<?xml version="1.0" encoding="utf-8"?>
<!-- Generator: Adobe Illustrator 25.2.0, SVG Export Plug-In . SVG Version: 6.00 Build 0)  -->
<svg version="1.1" id="Layer_1" xmlns="http://www.w3.org/2000/svg" xmlns:xlink="http://www.w3.org/1999/xlink" x="0px" y="0px"
	 viewBox="0 0 998.2 973.2" style="enable-background:new 0 0 998.2 973.2;" xml:space="preserve">
<style type="text/css">
	.st0{fill:#FF6E29;}
	.st1{fill:#E27247;}
	.st2{fill:#9DCBA4;}
	.st3{fill:#AD4930;}
	.st4{fill:#8DA38E;}
	.st5{fill:#45585A;}
	.st6{fill:#3A2B40;}
	.st7{fill:#FFFFFC;}
	.st8{fill:#4D1C39;}
	.st9{fill:#83A097;}
	.st10{fill:#3C2C40;}
	.st11{fill:#FFFEFF;}
	.st12{fill:#4E1C38;}
	.st13{fill:#82A295;}
	.st14{fill:#FFFFFF;}
</style>
<path class="st0" d="M619.7,476.9c-1.3,20.6,1.5,41.2,4.9,61.5c11.8,71.1,7.6,136,33.4,203.3c10.4,27.1,42.5,85.5,64.4,104.6
	c21.8,19.1,59.2,1.6,83.4-14.4c4.5-2.9,8.5-6.7,11.2-11.3c2.5-4.3,3.6-9.3,4.5-14.2c6.5-34.3,4.5-70.1-5.7-103.5
	c-7.5-24.5-19.2-47.5-29.7-70.9c-8.9-19.9-16.8-40.3-24.7-60.6c-7.4-19-14.8-38-19.9-57.8c-3-11.6-5.2-23.5-9.1-34.8
	c-2.6-7.6-6-15-9.3-22.3c-5.7-12.5-11.4-25.1-17.1-37.6c-4.2-9.2-8.5-18.6-15.1-26.3c-5.7-6.7-14-12.6-22.9-13.9
	c-3.8-0.5-6,1.7-8.4,4.3c-3.2,3.6-6.3,7.3-9.2,11.2c-11.5,15.4-20.1,32.9-25.3,51.4C622.2,455.7,620.4,466.2,619.7,476.9z"/>
<path class="st0" d="M659.2,846.8c-11.3,25.5-43.1,28.6-67.8,28.2c-86.4,1.2-175.5,5.8-261.8,11.1c-41.9-75.6,16.7-275.6-33.1-322.1
	c-25.9-25.9-72.1-32.2-101.4-52.9c12.5-42.8,20.4-90.5,61.3-148.8s90.3-18.4,136-28.1c6-39.5,110.1-26.3,140.1-22
	c9.5,3.2,20.9,8.2,24,18c-0.4,0.5,82.6-32.9,118.3,12.8s42.5,94.2,51.9,121.7c18.7,54.6-59.2,53.4-66,68.9
	c-23.9,50.2-6.4,53-10.5,108.5C644,713,638.7,778.7,659.2,846.8z"/>
<path class="st1" d="M614.4,521.5c4.1,37.6,8.3,75.1,12.4,112.7c0.3,2.5,0.4,5.4-1.5,7c-2.1,1.9-5.3,1.1-7.9,0.1
	c-13.1-5-25.2-12.4-37.4-19.5c-27.2-15.8-55.2-30.3-83.8-43.4c-14.9-6.8-30-13.2-45.9-17c-2.1-0.5-4.4-1-6.5-0.3
	c-7.4,2.2-5.3,13.3-1.6,20.1c13.4,24.7,26.8,49.4,40.2,74.1c3.6,6.6,6.9,15.6,1.5,20.8c-1.9,1.9-4.5,2.7-7,3.7
	c-35.3,12.9-63.2,44.6-71.5,81.3c-2,8.7-2.7,18.4,1.9,26c8,13.1,26.6,13.1,41.2,17.7c8.2,2.6,15.8,7.1,22,13.1
	c3.4,3.2,6.5,7,10.9,8.8c5.3,2.1,11.2,0.8,16.8-0.3c27.5-5.4,56.2-4.6,83.4,2.5c5.2,1.4,10.5,3,15.8,2.9c10.5-0.1,20.2-6.5,26.3-15
	c6.2-8.5,9.3-18.8,11.5-29c4.1-19.2,5.2-39,6.2-58.7c1-18.2,2-36.5,2.9-54.7c0.7-13.2,1.4-26.3,2-39.5c0.5-11.2,2.4-23.6,0.1-34.7
	c-0.7-3.3-2-6.5-2.9-9.7c-1.4-4.7-1.9-9.5-2.5-14.3c-1.3-10-3.4-20.1-7.3-29.5c-2.1-5-4.7-9.8-8-14.2c-1.6-2.1-3.3-4.1-5.2-5.9
	C619.7,525.7,614.5,522.4,614.4,521.5z"/>
<path class="st2" d="M412.2,272.5c0,0-9.4,44.2-4.2,62.6c5.1,18.3,67.6,117.7,81.1,117.1s47.8-89.6,48.9-117.7
	c1.2-28.1,1.2-53.4,0-52.5C536.8,282.9,412.2,272.5,412.2,272.5z"/>
<path class="st0" d="M193.7,515.7c-20.2,112.5-37.3,228.7-12.8,340.4c1.9,8.5,4.1,17.1,9,24.2c6.6,9.5,17.4,15.2,28.3,19.3
	c17.6,6.5,36.7,9.6,55.2,6.6c18.5-3,36.3-12.6,47.3-27.8c5.7-7.9,9.5-17,12.4-26.2c8.4-26.6,10.1-54.8,10.8-82.7
	c1.5-69.3-3.4-138.7-14.6-207c-4.1-24.6-9.2-49.8-22.7-70.8c-13.5-21-37.3-37.1-62.1-34.8c-11.1,1-21.6,5.7-30.5,12.2
	c-3.6,2.5-8.9,5.9-10.7,10c-2.3,5.1-3.9,10.8-5.3,16.1C196.2,502,194.9,508.9,193.7,515.7z"/>
<path class="st1" d="M668.2,468.5c1.9-13.1,5.6-28.6,18-33.2c-1.3,20.2-2.7,40.5-4,60.7c-0.1,2-0.1,4.4,1.5,5.6
	c1.2,0.9,2.8,0.7,4.3,0.6c7.9-0.9,15.8-1.8,23.6-2.7c2.6-0.3,5.4-0.6,7.7,0.7c6.6,3.6,2.5,13.6-2,19.5
	c-24.2,31.8-43.5,67.3-57.3,104.8c17.5,4.2,35,8.4,52.5,12.5c7,1.7,15.7,5.3,15.6,12.5c-5.3,1.9-9.3,6.9-10,12.5
	c15.8,2.4,31.1,8.1,44.6,16.7c-25,17.6-58.7,13.1-88.8,7.9c-4.1-0.7-8.4-1.5-11.5-4.2c-2.8-2.5-4.2-6.2-5.5-9.8
	c-8.3-23.9-14.8-50.3-8.8-75.5c1.4-5.9,3-11.2,3.9-17.2c1-7.1,2-14.2,3.1-21.3c2-14.1,4.1-28.3,6.1-42.4
	C663.7,500.3,666,484.4,668.2,468.5z"/>
<path class="st3" d="M403.4,336.6c1.3,6.7,4.4,12.9,7.6,18.9c18.5,35,40.4,69.3,71.9,93.3c-3-3.8-6.1-7.5-9.1-11.3
	c-8-10-16-20-23.2-30.5c-8.6-12.6-16.1-25.9-22.9-39.5c-6.8-13.6-12.9-27.5-18.9-41.4c-0.6-1.5-1.3-3.4-2.8-4.2
	c-1.8-0.9-2.1,1-2.5,2.4C402.5,328.3,402.6,332.6,403.4,336.6z"/>
<path class="st3" d="M531.2,415.3c-9.6,23.2-20.1,46.4-36.1,65.7c-1.6,2-3.1,5.3-0.9,6.5c1.5,0.8,3.2-0.3,4.5-1.4
	c14.2-12.4,24.2-28.9,32.5-45.9c14.2-28.8,24.4-59.6,30.1-91.2c0.5-2.6,1.8-14.9-4-13c-2.6,0.9-2.4,4.7-2.8,7
	c-0.6,3.5-1.4,6.9-2.2,10.3c-3.2,13.7-7.6,27-12.5,40.2C537.1,400.8,534.2,408.1,531.2,415.3z"/>
<path class="st3" d="M464.4,476.2c5.9,6.3,12.9,12.6,21.5,13.3c-15-14.8-28.6-31.2-40.4-48.7c-4.8-7.1-9.2-14.3-13.7-21.6
	c-4.4-7.1-8.7-14.2-13.1-21.2c-4.6-7.4-9.1-14.8-12.5-22.8c-2.6-6.2-4.5-12.7-6.5-19.2c-1-3.2-2.1-6.5-3.4-9.6
	c-0.6-1.6-1.3-3.1-2-4.7c-0.4-0.8-1.4-2.6-2.1-0.9c-0.4,0.9,0.6,3.2,0.8,4.2c0.4,1.5,0.8,3,1.1,4.5c0.8,3.1,1.6,6.1,2.5,9.1
	c1.8,6.1,3.8,12.1,6,18c4.4,11.8,9.5,23.3,15.3,34.5c5.8,11.1,12.4,21.9,19.6,32.2c7.2,10.3,15.1,20.2,23.7,29.5
	C462.3,474,463.4,475.1,464.4,476.2z"/>
<path class="st3" d="M496.4,483c0.2,0.5,0.6,1.1,1.1,0.8c0.8-2.7,0-5.5-0.7-8.1c-0.9-3.1-1.7-6.2-2.6-9.4c-0.4-1.5-0.9-3.1-1.3-4.6
	c-0.2-0.8-0.4-1.6-0.6-2.3c-0.1-0.3-0.2-1.6-0.6-1.8c-0.6-0.2-0.9,1.6-0.9,1.9c0,1.5,0.4,3,0.7,4.5c0.5,3,1.1,6,1.9,9
	C494.2,476.4,495.2,479.7,496.4,483z"/>
<path class="st3" d="M503.8,467.7c0.4,0.6,1,1.2,1.8,1.2c0.6-1.5-0.2-3-0.9-4.4c-2.1-3.9-4.2-7.8-6.2-11.8c-0.3-0.5-1.9-2.6-2.5-1.3
	c-0.4,0.8,0.7,2.8,1,3.5c1.1,2.9,2.4,5.7,4,8.4C501.8,464.8,502.7,466.3,503.8,467.7z"/>
<path class="st3" d="M512.8,463.2c0.6-2-0.5-4-1.6-5.8c-2.1-3.5-4.1-6.9-6.2-10.4c-0.8-1.2-2.3-3.6-4.1-2.8
	c-1.3,0.5,0.1,2.4,0.6,3.1c2.2,3.5,4.5,7,7,10.3c0.7,1,1.4,1.9,2.1,2.8C510.8,460.8,512.8,462.9,512.8,463.2z"/>
<path class="st3" d="M519.6,453.3c0.7-1,0-2.5-0.6-3.5c-3.3-5.2-6.7-10.4-11.2-14.6c-0.5-0.5-1.4-1.2-2.1-0.9
	c-0.7,0.3-0.4,0.9-0.1,1.4c0.9,1.5,1.9,3,2.9,4.4c2.1,3,4.4,6,6.8,8.7C516.7,450.3,518.1,451.8,519.6,453.3z"/>
<path class="st3" d="M525.3,441c0.2-0.6,0-1.2-0.2-1.8c-2.3-5.8-9.1-8.2-13-13c-0.8-0.9-1.4-1.9-2.3-2.7c0.1,0.1-0.2,2.1-0.2,2.5
	c0,0.5-0.1,1,0.1,1.4c0.5,1.3,2,2.5,3,3.4c2.5,2.5,5.1,4.8,7.9,6.8C522,438.9,523.7,440,525.3,441z"/>
<path class="st3" d="M528.4,428.8c0.8,0.5,1.7,1,2.6,1c0.3-0.6-0.2-1.3-0.7-1.8c-2.8-3.3-5.7-6.6-9.2-9c-1.6-1.1-3.3-2-4.8-3.2
	c-0.4-0.4-0.8-0.7-1.1-0.1c-0.2,0.5-0.1,1.2,0.1,1.7c0.7,1.5,2.5,2.9,3.6,4c1.3,1.3,2.8,2.6,4.2,3.8
	C524.9,426.4,526.6,427.6,528.4,428.8z"/>
<path class="st3" d="M537,420.4c0.4-1.1-0.3-2.4-1.1-3.3c-4-5-9.2-8.9-14.3-12.7c-0.8-0.6-1.8-1.1-2.6-0.5c-1.3,1.1,4.9,6.1,5.6,6.7
	c2.5,2.2,5.1,4.4,7.8,6.4C533.9,418.2,535.4,419.3,537,420.4z"/>
<path class="st3" d="M535,405.3c2.3,1.9,4.7,3.9,7.6,4.5c0.6-1.3-0.3-2.7-1.2-3.8c-2.2-2.7-4.9-5-7.8-6.9c-1.8-1.2-3.8-2.1-5.4-3.6
	c-1-0.9-2-2.2-3.4-2.3c-1.2,0-1.6,0.9-1.2,1.9c0.6,1.3,2,2.2,3,3.1c1.3,1.2,2.6,2.3,3.9,3.4C532,402.8,533.5,404,535,405.3z"/>
<path class="st3" d="M543.6,396.5c0.4,0.2,0.9,0.5,1.3,0.2c0.6-0.3,0.4-1.2,0.1-1.7c-1.6-2.9-4.3-5-7.2-6.7
	c-2.1-1.3-4.2-2.4-6.2-3.8c-0.6-0.4-4.5-4-4.6-1.7c-0.1,1.7,2.7,3.5,3.7,4.5c1.9,1.6,3.8,3.2,5.9,4.7
	C538.8,393.6,541.2,395.1,543.6,396.5z"/>
<path class="st3" d="M548.2,385.1c0.3,0.2,0.8,0.4,1.1,0.1c0.4-0.3,0.2-0.9-0.1-1.2c-2.1-3.2-5.2-5.6-8.3-7.9
	c-1.7-1.2-3.3-2.5-4.9-3.7c-1.2-0.9-3.3-2.3-4.8-1.1c-1.4,1,1.1,2.5,1.8,3.1c3.1,2.5,6.3,5,9.6,7.2
	C544.4,382.8,546.3,384,548.2,385.1z"/>
<path class="st3" d="M551.7,372.7c0.3,0.1,0.6,0.3,0.9,0.1c0.3-0.1,0.5-0.5,0.5-0.9c0.1-1.8-1.3-3.2-2.7-4.2
	c-3.4-2.7-7.1-5-10.8-7.4c-1-0.7-2.1-1.3-3.1-2c-0.7-0.5-1.6-1-2.5-0.5c-0.5,0.3-0.6,0.8-0.4,1.3c0.5,1.5,2.1,2.7,3.2,3.6
	c2.8,2.5,5.9,4.8,9.2,6.7C547.9,370.8,549.8,371.8,551.7,372.7z"/>
<path class="st3" d="M551.5,355.8c1.4,0.6,2.8,1.1,4.3,0.9c0.5-1.1-0.4-2.3-1.2-3.1c-4.7-4.7-10.8-7.9-17.3-9c0.1,0-0.1,1.7,0,1.9
	c0.2,0.4,0.5,0.5,0.8,0.7c1,0.6,2,1.6,2.9,2.4c2.1,1.6,4.3,3,6.5,4.3C548.8,354.5,550.1,355.2,551.5,355.8z"/>
<path class="st3" d="M554.1,344c1,0.6,2.6,1,3.1,0c0.3-0.6-0.1-1.4-0.5-2c-1.2-1.5-2.8-2.6-4.3-3.6c-2.9-1.9-5.8-3.9-8.6-5.8
	c-1.2-0.8-3.2-2.4-4.8-1.8c-1.2,0.4,0,1.9,0.4,2.4c2.3,2.9,5.8,5,8.8,7C550.1,341.5,552,342.8,554.1,344z"/>
<path class="st3" d="M550,329.2c1.6,1.1,3.4,2.2,5.3,1.9c-0.5-2-2.2-3.4-3.7-4.7c-1.6-1.4-3.2-2.7-4.9-4c-1.5-1.3-3.2-2.6-5.1-3
	c-0.6-0.1-3.1-0.7-3.3,0.4c-0.1,0.9,1.3,2,1.9,2.4c1.1,1,2.4,1.9,3.6,2.8C545.8,326.3,547.9,327.7,550,329.2z"/>
<path class="st3" d="M393.6,344.1c0.9,0.3,1.9-0.4,2.6-1.1c1.4-1.5,2.8-3,4.1-4.6c0.6-0.8,1.2-1.6,1.8-2.5c0.3-0.5,1.4-1.6,1.2-2.2
	c-0.1-0.5-0.8-0.7-1.3-0.6c-0.8,0.1-1.3,0.8-1.8,1.4c-1.3,1.4-2.6,2.8-3.7,4.3C396.3,339.1,393.3,344,393.6,344.1z"/>
<path class="st3" d="M408.7,344.4c-4.7,2.6-7.8,7.4-10.7,11.9c-0.3,0.5-0.7,1.3-0.3,1.8c0.2,0.3,0.6,0.4,0.9,0.4
	c1.2,0,2.1-1,2.9-1.8c2.1-2.2,4.1-4.4,6.2-6.6c1.5-1.7,3.1-3.4,3.9-5.5c0.1-0.3,0.2-0.6,0.1-0.9c-0.2-0.6-1.1-0.6-1.8-0.4
	c-2.1,0.6-4,1.7-5.4,3.3"/>
<path class="st3" d="M413.9,356.5c-5.1,2.8-9.3,7.4-11.6,12.7c-0.1,0.3-0.3,0.6-0.2,0.9c0.1,0.6,0.7,0.9,1.3,0.9s1.1-0.3,1.5-0.6
	c4.9-3.2,8.4-8,11.9-12.6c0.4-0.6,0.9-1.2,0.9-2c-2.9,0-5.6,1.7-8,3.3"/>
<path class="st3" d="M409,381.4c-0.5,0.6-0.9,1.6-0.3,2.2c0.6,0.6,1.7,0,2.3-0.6c2.7-2.6,5.3-5.1,8-7.7c1.3-1.3,2.7-2.6,4-3.8
	c0.9-0.9,2.1-1.8,2-3.2c-0.2-3-7.9,3.8-8.7,4.5C413.6,375.4,411.2,378.3,409,381.4z"/>
<path class="st3" d="M414.1,396.5c1.5,0.5,3-0.6,4.1-1.6c3.1-2.8,6-5.6,8.9-8.6c1.4-1.4,2.9-2.8,4.2-4.3c0.2-0.3,1-1,0.6-1.4
	c-0.7-0.8-4,1-4.6,1.3c-2.3,1.1-4.5,2.5-6.3,4.3C418.2,388.8,414.5,392.4,414.1,396.5z"/>
<path class="st3" d="M420.3,408.4c1.7,0.6,3.4-0.6,4.7-1.8c3.1-2.7,6-5.5,9-8.3c0.7-0.7,5.9-4.9,4.6-6.2c-0.9-0.9-4,1.2-4.7,1.7
	c-2.4,1.4-4.6,3-6.5,5c-1.4,1.4-2.8,2.9-3.9,4.6C423,403.7,420.2,408.4,420.3,408.4z"/>
<path class="st3" d="M434.3,417.8c3.4-2.7,6.8-5.7,9.6-9.1c0.4-0.5,3.6-4.6,1.1-4.3c-2.2,0.2-4.5,2.1-6.1,3.3
	c-2.6,1.9-4.9,4-7.1,6.5c-0.8,0.9-1.5,1.8-2.2,2.6c-0.5,0.7-1.5,1.6-1.5,2.6c0,1.8,4.4-0.3,5.2-0.8
	C433.5,418.4,433.9,418.1,434.3,417.8z"/>
<path class="st3" d="M434.6,431.2c-0.2,0.3-0.4,0.8-0.2,1c0.1,0.2,0.4,0.2,0.6,0.2c1.5,0.1,2.9-0.8,4.1-1.7
	c5.4-4.1,10-9.2,14.5-14.3c0.4-0.5,0.9-1,0.9-1.7c0-1-1.1-1.6-2.1-1.6c-1.4,0.1-2.7,1.2-3.7,2.1c-1.3,1.1-2.6,2.2-3.8,3.4
	c-2.5,2.4-4.8,5-6.9,7.7C436.8,428,435.6,429.6,434.6,431.2z"/>
<path class="st3" d="M441.6,444.2c3.3,0.5,6.2-1.9,8.4-4.4c2.4-2.5,4.6-5.3,6.6-8.1c1-1.5,2-3,2.9-4.5c0.5-0.9,2.3-3.4,0.1-3.1
	c-2.5,0.3-3.5,1.7-5.2,3.3c-2.4,2.3-4.7,4.5-6.8,7.2C445.3,437.6,443.3,440.8,441.6,444.2z"/>
<path class="st3" d="M453.8,449.3c-1.3,1.8-2.5,3.8-2.7,6c0,0.3,0,0.5,0.1,0.8c0.3,0.7,1.2,0.8,2,0.6c2.4-0.5,4-2.6,5.4-4.5
	c3.8-5.3,7.2-10.8,10.1-16.6c1.2-2.4-1.4-1.3-2.6-0.6c-2.3,1.4-4,3.8-5.8,5.8C458,443.5,455.8,446.3,453.8,449.3z"/>
<path class="st3" d="M468.7,451c-2.6,3.4-5.2,6.9-6.6,10.9c-0.3,0.7-0.5,1.6,0,2.2c0.5,0.6,1.4,0.6,2,0.3c0.7-0.3,1.1-1,1.6-1.6
	c3.9-5.3,7.6-10.7,11.2-16.1c0.6-1,1.5-2.3,1.1-3.5c-0.3-0.9-1.6-1.5-2.5-1.2c-0.8,0.2-1.3,1.1-1.7,1.8c-0.6,1.1-1.3,2.1-2,3
	C470.8,448.3,469.8,449.6,468.7,451z"/>
<path class="st1" d="M262.5,451c11,38.4,25.9,75.6,44.3,111.1c-8.9-0.7-16.1-14.3-23.5-9.3c-2.6,1.7-3.5,5.1-3.6,8.2
	c-0.8,13.7,8.2,25.6,14.6,37.7c16.3,30.5,17.6,68.6,3.3,100c-1,2.3-2.2,4.6-4.1,6.3c-1.9,1.6-4.2,2.4-6.6,3.2
	c-17.9,6.1-35.9,12.2-53.8,18.4c30.9,12.5,68.1-6,98.6,7.5c1.9,0.8,3.8,1.8,5.8,1.4c3.8-0.7,5.2-5.2,5.7-9
	c5.8-46-18.7-91.1-16.7-137.4c0.5-11.6,2.5-23.5,0-35c-1.9-8.7-5.3-17.3-8.1-25.7c-6.6-19.7-17.1-38.1-30.6-53.8
	c-3.8-4.4-7.7-8.5-11.9-12.4c-2.2-2-4.4-4-6.6-5.9C267.8,455.2,262.9,452.5,262.5,451z"/>
<path class="st3" d="M472.6,470.1c-1,1.9-2.1,4-1.4,6c1.5,0.6,2.9-0.8,3.8-2c1.7-2.4,3-5,4.4-7.6c1.8-3.4,3.5-6.8,5.3-10.1
	c0.8-1.6,1.9-3.3,2.1-5.1c-2.9-1.2-4.1,1.2-5.4,3.3c-1.9,3.3-3.8,6.6-5.6,9.9C474.8,466.4,473.7,468.3,472.6,470.1z"/>
<path class="st3" d="M485.6,458.9c-3.1,7.9-6.3,16-6.8,24.5c0,0.7,0.1,1.7,0.8,1.8c0.8,0.1,1.2-0.8,1.5-1.5
	c1.5-5.1,2.9-10.2,4.3-15.3c0.7-2.6,1.5-5.1,2.2-7.7c0.4-1.3,0.7-2.5,1.1-3.8c0.2-0.6,1-2.6,0.4-3.1
	C487.7,452.7,485.9,458.2,485.6,458.9z"/>
<path class="st3" d="M665.1,491.9c3.7-19.1,10.4-37.8,9.8-57.2c-4.2-2-7.4,4.2-8,8.8c-6.6,47.9-13.2,95.7-19.8,143.6
	c-0.6-18.2-3.7-36.4-9.4-53.8c-4.3,7.9-2.4,17.5-0.9,26.3c5.9,35.5,6.7,70.2,4.2,106.1c-0.9,12.9,2,18,1.1,30.8
	c8.5-9.1,5.8-14.8,6.1-27.3c0.1-6.8,2-15.6,2.1-22.4c0.1-5.2-1.5-7.3,0.3-12.3c1.2-3.3-0.8-6.2,0.6-9.4c2.2-5.2,3.3-10.9,4.4-16.5
	c4.7-24.7,4.2-50,5.2-75.1C661.4,519.5,663.3,505.8,665.1,491.9z"/>
<path class="st3" d="M485,782.4c-8.9,1.1-15.6,8.3-21.9,14.6c-25.4,25.5-53.1,46.4-83.7,65.4c-11,6.8-13.4,12.1-24.4,18.9
	c12.4,1.6,15.4-3.9,25.7-11c5.6-3.8,13.8-7.5,19.4-11.4c4.3-3,5-5.5,10.1-7c3.4-1,4.6-4.2,8-5C423.8,845.8,474.2,797.1,485,782.4z"
	/>
<path class="st3" d="M305.9,473.6c1.8,43.7,11.4,86.7,20.9,129.3c-3.4-14-8.9-27.6-16.4-39.9c-2.4,9.6,2.8,19.2,6.9,28.1
	c8.2,17.8,12.7,37.3,13.3,56.9c0.9,29.4,1.8,58.8,2.7,88.1c7.4,0.4,14.7,0.3,22.1-0.4c-1.6-19.9-3.5-39.8-5.7-59.6
	c-2.2-19.8-4.5-39.6-7.5-59.3c-0.9-6-2.7-11.7-4.5-17.4c-2.4-7.6-3.8-15.5-5.1-23.4c-2.8-16.8-4.6-33.7-7.8-50.4
	c-3.1-16.3-7.6-32.5-15.8-47C308.4,477.6,305.9,474.8,305.9,473.6z"/>
<g id="рука_1_">
	<g>
		<path class="st2" d="M620.3,350c2.4-3.3,20.2-16,24.1-14.6c6.5,2.5,28.7,37.6,41.5,52.4c15.9,18.5,23,41.1,18.5,65.9
			c-5.7,24.1-17.8,52-44.8,38c-33.1-20.6-62.4-51.3-73.9-89.1C579.9,380.5,600.5,357.8,620.3,350z"/>
		<path class="st2" d="M567.8,395.6c-3.5-3.2-7.1-6.7-8.9-11.1c-1.8-4.4-1.4-10.1,2.1-13.3c2.4-2.1,5.8-2.8,9-2.4
			c3.2,0.4,6.2,1.7,9,3.1c5.3,2.6,10.5,5.7,15.3,9.2c6.5,4.7,13,11.3,12.4,19.3c-0.2,3.3-1.8,6.5-4,9c-2.6,2.9-6.3,4.9-10.1,4.8
			C586.1,414.1,574.7,401.8,567.8,395.6z"/>
		<path class="st2" d="M659.3,385.5c-0.2-12.8,9.7-30.6,21.1-16.6c6.5,13.3,18.7,45.7,3.9,53C667,430.6,659.6,402.1,659.3,385.5z"/>
		<path class="st2" d="M570.5,388.3c-4.2,1-8.9-0.1-11.7-3.4c-1.4-1.6-2.2-3.5-2.8-5.5c-0.4-1.4-0.7-2.8-0.7-4.2c0-4,2.5-7.8,6-9.6
			c3.5-1.9,7.9-1.8,11.5-0.1c3.9,1.8,7.3,5.7,8.2,10c0.4,1.7,0.4,3.8-0.3,5.5c-0.6,1.4-1.9,2.5-3.1,3.5
			C575.5,386.3,573.1,387.7,570.5,388.3z"/>
		<path class="st2" d="M547.1,377.4c-9.7-6.6-19.2-14.7-23-25.8c-1.3-3.6-1.6-8.2,1.1-10.8c1.8-1.7,4.5-2.1,6.9-1.7s4.6,1.7,6.8,2.9
			c9.8,5.8,19.2,12.4,27.8,19.8c4.2,3.6,8.5,8,8.7,13.6c0,2.5-0.9,4.9-2.4,6.7c-1.1,1.4-2.7,3-4.5,3.5c-1.8,0.5-4-0.1-5.8-0.5
			c-2.7-0.6-5.2-1.7-7.6-2.9C552.3,380.9,549.7,379.2,547.1,377.4z"/>
		<path class="st2" d="M654.5,361.4c-3.5-9.2-6.1-19.6-3.5-29.9c0.9-3.4,2.7-7.1,5.9-8c2-0.6,4.1,0.2,5.5,1.6s2.3,3.3,3.2,5.1
			c4,8.6,7.2,17.7,9.5,27.2c1.1,4.6,2,9.9-0.5,14.3c-1.1,1.9-2.9,3.5-4.8,4.3c-1.4,0.6-3.2,1.2-4.7,0.9c-1.5-0.4-2.6-1.7-3.7-2.8
			c-1.5-1.6-2.7-3.5-3.8-5.5C656.4,366.3,655.4,363.9,654.5,361.4z"/>
		<path class="st4" d="M530.8,353.6c-2.9-1.8-5.8-4-6.9-7.2c-0.4-1.2-0.5-2.6,0.1-3.8c0.5-1.2,1.7-2.3,3.1-2.4
			c0.8-0.1,1.5,0.1,2.2,0.3c5,1.4,9.9,4,13.2,7.9c1.3,1.6,3.1,3.8,2.1,6c-0.9,1.8-3.1,2.6-5,2.7
			C536.3,357.1,533.4,355.2,530.8,353.6z"/>
		<path class="st4" d="M660.8,334.3c-1.1-3-2.1-6.1-1.6-7.8c0.2-0.7,0.7-1.1,1.5-0.9c0.8,0.1,1.9,0.9,2.8,2.1c0.5,0.6,0.9,1.3,1.3,2
			c2.6,4.7,4.7,9.6,5.3,13.5c0.2,1.6,0.5,3.7-0.9,3.4c-1.2-0.3-3-2-4.2-3.7C662.9,340.1,661.8,337,660.8,334.3z"/>
		<path class="st2" d="M560.4,319.8c-10-8-10.4-29,6.4-24.7c13.1,6.4,33.8,23.2,31.3,35.4C594.2,350.2,570.7,334.3,560.4,319.8z"/>
		<path class="st2" d="M585.5,365.9c-4.2,1-8.9-0.1-11.7-3.4c-1.4-1.6-2.2-3.5-2.8-5.5c-0.4-1.4-0.7-2.8-0.7-4.2c0-4,2.5-7.8,6-9.6
			c3.5-1.9,7.9-1.8,11.5-0.1c3.9,1.8,7.3,5.7,8.2,10c0.4,1.7,0.4,3.8-0.3,5.5c-0.6,1.4-1.9,2.5-3.1,3.5
			C590.6,363.8,588.2,365.2,585.5,365.9z"/>
		<path class="st2" d="M595.4,323.7c-10.7-7.2-12.9-28,4.4-24.8c13.7,5.4,35.9,20.8,34.5,33.1C631.9,351.6,607,337.4,595.4,323.7z"
			/>
		<path class="st2" d="M599.3,318.1c-12.8,4.7-22.8-14.9-11.2-21.9C603.6,287.2,619.2,313,599.3,318.1z"/>
		<path class="st2" d="M670.6,380.3c-13.1,3.9-21.3-16.5-9.2-22.7C677.5,349.5,690.8,376.4,670.6,380.3z"/>
		<path class="st2" d="M620.1,343.3c-10.7-7.2-12.9-28,4.4-24.8c13.7,5.4,35.9,20.8,34.5,33.1C656.6,371.2,631.7,357,620.1,343.3z"
			/>
		<path class="st2" d="M581.4,309.8c-10.3-5.9-22.1-13.2-25.8-24.3c-9.1-27.8,47.3,6.5,48.2,19.1
			C603.9,321.4,590.3,315.8,581.4,309.8z"/>
		<path class="st4" d="M562.2,283.1c-3.4-2-6.9-4.4-8.5-8.1c-0.6-1.4-0.9-3-0.4-4.5c0.4-1.4,1.6-2.7,3.1-2.9
			c0.8-0.1,1.7,0.1,2.5,0.3c5.7,1.5,11.4,4.2,15.5,8.6c1.6,1.8,4,4.3,3.1,6.9c-0.7,2.1-3.1,3.2-5.2,3.3
			C568.7,287.1,565.2,284.9,562.2,283.1z"/>
		<path class="st2" d="M583.3,341.1c-10-8-10.4-29,6.4-24.7c13.1,6.4,43.6,35.3,41.2,47.5C626.9,383.6,593.6,355.6,583.3,341.1z"/>
		<path class="st2" d="M564.7,314.5c-13.1,3.9-21.3-16.5-9.2-22.7C571.6,283.7,584.9,310.6,564.7,314.5z"/>
		<path class="st2" d="M556,345.5c-9.2-8.7-7.7-29.9,8.5-24.4c12.3,7.3,31.3,25.7,27.8,37.8C586.7,378.5,565,360.8,556,345.5z"/>
		<path class="st2" d="M590.4,338.8c-4.2,1-8.9-0.1-11.7-3.4c-1.4-1.6-2.2-3.5-2.8-5.5c-0.4-1.4-0.7-2.8-0.7-4.2c0-4,2.5-7.8,6-9.6
			c3.5-1.9,7.9-1.8,11.5-0.1c3.9,1.8,7.3,5.7,8.2,10c0.4,1.7,0.4,3.8-0.3,5.5c-0.6,1.4-1.9,2.5-3.1,3.5
			C595.4,336.8,593,338.2,590.4,338.8z"/>
		<path class="st2" d="M560.8,340.4c-13.3,3-19.6-18-7.1-23.5C570.4,310,581.1,338,560.8,340.4z"/>
		<path class="st2" d="M547.7,305c-9.7-6.6-20.8-14.7-23.5-26.1c-6.7-28.5,46.3,9.6,46,22.3C569.1,318,556.1,311.5,547.7,305z"/>
		<path class="st2" d="M576.7,368.5c-9.2-8.7-7.7-29.9,8.5-24.4c12.3,7.3,31.3,25.7,27.8,37.8C607.3,401.5,585.6,383.8,576.7,368.5z
			"/>
		<path class="st2" d="M544.8,329.7c-9-7.3-19.2-16.2-20.8-27.9c-4-29.1,44.9,12.9,43.5,25.6C564.8,344.3,552.5,336.9,544.8,329.7z"
			/>
		<path class="st4" d="M529.8,307.7c-3.2-2.2-6.5-4.8-7.2-8.5c-0.3-1.4-0.1-3,0.7-4.4c0.8-1.4,2.5-2.5,4.1-2.7
			c0.9-0.1,1.8,0.2,2.7,0.4c5.9,1.8,11.4,4.9,14.7,9.5c1.4,1.8,3.2,4.5,1.6,7c-1.3,2-4.2,2.9-6.6,2.9
			C535.9,312,532.6,309.6,529.8,307.7z"/>
		<path class="st4" d="M532.3,284.5c-3.3-2.2-6.7-4.8-7.9-8.6c-0.5-1.5-0.6-3.1,0-4.5c0.6-1.4,1.9-2.6,3.5-2.8
			c0.9-0.1,1.7,0.1,2.5,0.4c5.8,1.8,11.3,4.8,15.1,9.5c1.5,1.9,3.6,4.5,2.5,7.1c-0.9,2.1-3.5,3-5.7,3.1
			C538.6,288.8,535.2,286.4,532.3,284.5z"/>
		<path class="st5" d="M583.9,373c0.8-1.4,2.9-0.9,4.3-0.1c6.2,3.3,11.7,7.9,16.1,13.4c0.6,0.8,2.6,4.1,0.3,4.1
			c-1.3,0-3.3-3.3-4.2-4.2c-3.1-3.3-6.5-6.3-10.2-9C589.7,376.7,584,372.9,583.9,373z"/>
		<path class="st5" d="M591.6,341.1c9.2,9.9,19.5,19.4,32.2,24c-6.2-13.2-24.3-22.1-33.1-35.2c-5.1-5.5-21.3-24.2-28.7-27.4
			C553.6,307.2,588.9,335.4,591.6,341.1z"/>
		<path class="st5" d="M627.2,344.9c3.4,2.5,8.3,4.7,11.6,2.1c-16.6-9-53.1-63.1-63.2-53.6C598.7,312.4,603.1,325.9,627.2,344.9z"/>
		<path class="st5" d="M600.6,386.6c1.7-0.7,3.5-1.1,5.4-1.2c3.2-0.2,6.4,0.4,9.3,1.7c1,0.5,4.8,2.1,4.2,3.8c-0.5,1.3-3,1.4-4.1,1.5
			c-2.3,0.2-4.7,0-7-0.5C605.3,391.1,601.8,389.6,600.6,386.6z"/>
		<path class="st5" d="M632.8,369.6c-4.9-0.8-9.7-2.1-14.2-4.1c-1.2-0.5-2.6-1.2-2.9-2.5c-0.3-1.1,0.4-2.3,1.4-2.9
			c1-0.6,2.2-0.8,3.3-0.8c4.6-0.1,9.1,1.8,12.4,5c1,0.9,1.9,2.3,1.3,3.5c-0.4,0.9-1.5,1.3-2.6,1.3c-1,0-2-0.3-3-0.4"/>
		<path class="st5" d="M649,334.3c3.8,0.1,6.2,3.1,8,5.8c4.7,7,9,14.3,12.9,21.7c5.9,11.1,11.2,23,21.2,31.4
			c-7-12.5-14.1-24.9-21.2-37.3c-4.3-7.6-8.9-15.6-17-20.2"/>
	</g>
	<path class="st2" d="M758.9,542.7c8.4,18.6,17,39.7,9.9,58.9c-3.4,9.2-10,16.8-17.2,23.5c-8.2,7.7-17.4,14.6-28.1,18
		c-10.7,3.4-23.1,2.7-32.2-3.9c-15.7-11.5-23-73.2-30.5-94.2c-8-22.5-19-57.9-22.9-81.5c-2.4-14.5,1.4-26.3,7.9-39.6
		c6.9-14.3,20-24.6,36.4-23.5c5,0.3,9.7,1.5,13.3,5.3c4.3,4.6,6.6,11,9.1,16.7c8.5,18.9,17.1,37.9,25.6,56.8
		c8.5,18.9,17,37.7,25.5,56.6C756.8,538,757.9,540.4,758.9,542.7z"/>
</g>
<g>
	<path class="st0" d="M847.2,690.3c5.5,14.1,9.9,28.7,12.6,43.7c2.6,14.6,3.5,29.7,1.7,44.5c-1.2,10-2.9,22.1-9.5,30.2
		c-2.8,3.4-6.3,6.1-9.7,8.7c-5.8,4.4-11.6,8.9-17.8,12.9c-14.1,9.1-29.7,15.9-46,20.1c-16.5,4.2-35.4,5.4-49.4-4.3
		c-14-9.7-19.5-27.4-24-43.8c-10.4-38.7-21-105.6-20.7-119.2c0.4-21.4-11.5-40.5-13.1-61.9c-0.2-2.9-0.1-6.5,2.5-7.9
		c1.2-0.6,2.5-0.6,3.8-0.6c39.8,0.2,77.5-30.6,85.2-69.6c6-0.2,10,6,12.6,11.5c8.1,16.8,15.6,33.9,22.5,51.2
		c2.5,6.2,4.9,12.4,8.5,18c3.4,5.3,7.9,9.8,12,14.6c11.6,13.8,19.9,30.1,26.7,46.7C845.8,686.8,846.5,688.6,847.2,690.3z"/>
	<path class="st3" d="M706.1,682.8c23.7-6.5,48.4-13.7,66-30.8c8.9-8.7,15.4-19.5,24.8-27.7c1.1-1,5-4.5,6.3-2.3
		c1,1.7-1.1,5-1.9,6.5c-2.5,4.7-5.4,9.1-8.6,13.3c-6.5,8.5-14.3,15.9-23,22.1c-8.7,6.1-18.3,10.9-28.5,14.2
		c-10.1,3.3-20.8,5-31.5,4.9C708.7,682.9,707.1,682.5,706.1,682.8z"/>
	<path class="st3" d="M765.3,564.1c-16.5,33.2-52.8,55.4-89.8,55.5c-1.5,0-4.1-0.2-4.3-1.6c-0.2-1.5,0-3.8,2.5-4.7
		c5.9-2.2,20.6-2.9,26.4-5.1c26.3-9.9,46.3-32.8,57.8-58.5c1.2-2.7,5-10.2,8.9-6.7c2.8,2.5,2.3,9,1.6,12.2
		C767.9,558.3,766.7,561.3,765.3,564.1z"/>
	<path class="st3" d="M798,625.3c0.6,1.5,0.9,3.7-0.6,4.1c-1.2,0.4-2.2-1-2.8-2.1c-10.5-20.3-20.5-40.7-30.2-61.4
		c-1.5-3.3-5-11.6-0.6-14.3c3-1.9,5.4,6.3,6.1,8.1c5.7,14,11.9,27.8,17.9,41.6C791.1,609.4,794.5,617.3,798,625.3z"/>
	<path class="st3" d="M784.8,644c0.7,2.1,0.9,5.3-1.3,5.8c-6.7-9.5-11.2-20.4-15.6-31.3c-4-9.7-7.9-19.3-11.9-29
		c-1.9-4.7-4.1-9.5-5.7-14.3c-0.4-1.1-2.6-6-0.1-5.9c1.9,0.1,4.3,3.6,5.4,4.8c2.2,2.7,3.9,5.6,5.3,8.8c4.3,9.4,8.3,18.9,12.1,28.6
		C777.3,622.2,781.2,633,784.8,644z"/>
	<path class="st3" d="M763.6,645.3c1.9,5.4,3.8,11,3.8,16.8c0,1.3-0.6,3-1.9,2.8c-3.1-3.8-5-8.3-6.8-12.8
		c-8.1-19.5-16.1-39-24.1-58.5c-0.9-2.2-1.7-4.6-0.8-6.7c0.6-1.3,2.4-2.1,3.8-1.7c1.8,0.4,2.2,2.5,2.9,4c2.1,4.4,4.1,8.8,6.1,13.3
		c4,9,7.8,18.1,11.3,27.3C759.8,635,761.7,640.1,763.6,645.3z"/>
	<path class="st3" d="M743.9,674.6c-1.7,1.6-4.1-1-5-3.1c-8.5-20.5-17.1-40.9-25.6-61.4c-0.8-1.9-1.6-4.1-1-6.1
		c0.5-1.6,3-3.3,4.5-1.9c0.6,0.5,0.7,1.6,1,2.2c0.6,1.2,1.3,2.4,2,3.5c3,5,5.9,10.1,8.6,15.2c5.4,10.2,10.2,20.9,13,32.2
		C743,661.7,743.9,668.1,743.9,674.6z"/>
	<path class="st3" d="M713,678.7c0.2,1.3-0.2,3.3-1.6,3.1c-0.6-0.1-1.1-0.7-1.4-1.2c-1.9-3.1-3-6.7-4.2-10.1
		c-4.2-13-8.1-26.1-11.6-39.3c-0.8-3.1-1.6-6.2-2.2-9.3c-0.4-2.5-1.5-6.8,0-9.1c2.5-3.9,5.7,3.2,6.5,4.9c2.4,5.7,3.9,12,5.6,18
		c1.8,6.7,3.4,13.4,4.9,20.1C710.6,663.4,711.9,671.1,713,678.7z"/>
	<path class="st3" d="M691,672.8c0.5,2.9,0.9,6.3-1.4,8.6c-5.8-15.5-10.1-31.6-12.8-48c-0.7-4.1-1.3-8.3-1.7-12.4
		c-0.1-1.1-0.7-3.8,1.2-4c1.8-0.2,1.9,2.8,2.2,3.8c2.4,8.1,4.6,16.3,6.6,24.6C687.3,654.5,689.3,663.6,691,672.8z"/>
	<path class="st3" d="M782.4,569.9c8.2,17.3,15.9,34.9,22.9,52.8c1,0,1.1-1.4,0.9-2.3c-5.9-26-18-50.3-33-72.2
		c-1.5-2.2-3.2-4.4-5.5-5.7c-0.3-0.1-2.2-1.2-2.4-0.7c-0.1,0.4,1.3,1.5,1.6,1.7c2.2,2.1,3.8,4.8,5.4,7.3c1.8,2.9,3.5,5.8,5.1,8.8
		C779.1,563,780.8,566.5,782.4,569.9z"/>
</g>
<path class="st3" d="M281,458.9c-4.1-5.2-9-10.7-15.6-11.5c0.8,3.3,2.6,6.3,4.4,9.3c13.9,23.1,30.9,44.3,43.4,68.3
	c3.5,6.8,6.4,13.7,9.2,20.8c0-12-5.2-23.4-10-34.2c-5.2-12-11.4-23.5-18.5-34.5C289.8,470.8,285.5,464.8,281,458.9z"/>
<path class="st6" d="M644.2,483c-2,0.3-4.3,0.9-5.2,2.7c-0.4,0.8-0.4,1.7-0.3,2.6c0.2,4.9,1.7,9.8,3.1,14.5
	c1.9,6.2,3.7,12.4,5.6,18.6c0.6,2,1.3,4.2,3.1,5.3c1.8,1.1,4.1,0.7,6.2,0.2c14.7-3.6,28.6-10.5,40.3-20.1c1.6-1.3,3.2-2.8,3.5-4.9
	c0.2-1.3-0.3-2.7-0.8-3.9c-1.8-4.7-3.9-9.3-6.2-13.7c-1.2-2.2-2.4-4.4-3.7-6.6c-1-1.6-1.9-4.1-3.7-5c-1.2-0.6-2.6,0-3.7,0.6
	c-2.2,1-4.4,2-6.6,2.8c-4.7,1.7-9.7,3-14.6,4.1c-4.9,1.1-10,1.9-15,2.7C645.5,482.8,644.9,482.9,644.2,483z"/>
<path class="st7" d="M697.1,421.4c-2.8,1.9-4.8,4.7-6.8,7.5c-3.8,5.3-7.7,10.6-11.5,15.9c-8.1,10.7-10.2,25.1-3.8,37.1
	c2.4,4.9,4.8,9.8,7.1,14.8c2.5,5.2,9.1,15.2,14.6,17.1c4.4,1.5,12.7-1.1,16.4-4c3.7-2.8,5.1-10.9,7.4-15c3.6-6.4,0.8-12.2,2.7-19.3
	c2-7.1,3.1-14.5,3.1-21.9c0-6.8-1.1-13.4-2.5-20c-0.9-4.2-2.4-7.7-6-10.4C711.9,418.7,703.7,416.7,697.1,421.4z"/>
<path class="st8" d="M698.3,433.4c-22.5,31.4-17.9,36.9-3.1,66.8c6.9,13.9,15,14.7,20.8,6.4c9.1-10.7,18.4-23.3,20.5-37.4
	C738.8,454.3,722.1,400,698.3,433.4z"/>
<path class="st3" d="M700.4,703.6c10.2-24.2,23.6-47.3,29.2-73c-22.3,30.5-37.1,66.5-42.8,103.9c1.7-28.3,1.4-56.7-0.8-85
	c-0.2-2.1-1-4.9-3.1-4.9c-6.6,9.5-7.5,21.7-7.6,33.3c-0.3,31.5,2.8,62.9,6.4,94.2c0.5,4.7-0.5,18.4,6.6,17.8c4-0.3,7-3.2,6.4-7.1
	c-0.7-4.1-3.6-7.9-5.1-11.7c-2.3-5.9-2.3-12-2-18.3C688.5,735.8,693.8,719.3,700.4,703.6z"/>
<path class="st1" d="M344.4,352c12.1,20.9,27.4,39.9,45.1,56.1c-21.8,10.8-53-3.1-70,14.2c10.2,8.9,22.8,14.5,35.2,20
	c32.1,14.1,64.3,28.2,96.5,42.3c9.9,4.3,20.5,8.8,31.1,6.5c-8.4-8.1-16.9-16.2-25.3-24.2c-8.4-8.1-16.9-16.4-23.5-26.1
	c-5.8-8.5-7.6-17.7-11.8-26.8c-4.2-9.2-12.7-17.6-19.4-25c-7.4-8.2-15.5-16-24.5-22.5C367.8,359.5,356.5,354.2,344.4,352z"/>
<g>
	<path class="st9" d="M528.2,380.8c-7.9,9-18.9,15.1-30.5,18.1c-3.3,0.9-7.5,1.1-9.3-1.7c-1.9-2.9,0.3-6.7,2.7-9.2
		c6.8-7,15.9-11.1,23.9-16.7c4.2-3,8.2-6.3,11.8-10.1c1.8-1.9,3.6-3.9,5.2-5.9c1.6-2,3-4.2,4.5-6.2c0.5-0.7,2.7-3,3.6-1.9
		c0.5,0.6,0.3,2.2,0.2,2.9c0,1.2-0.1,2.3-0.2,3.5c-0.4,4.7-1.7,9.3-3.5,13.7c-1.9,4.4-4.4,8.5-7.4,12.2
		C529,379.9,528.6,380.4,528.2,380.8z"/>
	<path class="st9" d="M549.8,328.1c-0.9,12-5.7,29.8-13.1,39.3c-2.1,2.7-5.4-0.9-8.6-2.1c-3.2-1.2-3.8-5.5-3.4-9
		c1.2-9.7,5.9-18.5,8.9-27.8c1.6-4.9,2.7-10,3.3-15.2c0.3-2.6,0.5-5.2,0.5-7.9c0-2.6-0.2-5.1-0.2-7.7c0-0.9,0.3-4,1.8-3.7
		c0.8,0.2,1.5,1.6,2,2.2c0.7,0.9,1.4,1.9,2,2.9c2.5,4,4.3,8.4,5.5,13c1.2,4.6,1.7,9.4,1.5,14.2C549.9,326.9,549.9,327.5,549.8,328.1
		z"/>
	<path class="st5" d="M421.8,366.3c18.7,27.8,75.1,40.8,98.2,9.6c-15.3,20.6-80.9-35.4-80.9-35.4s-28.4-42.8-31.6-17.7
		C407.5,322.8,407.9,345.6,421.8,366.3z"/>
	<path class="st8" d="M379.4,263.4c-1.9-31.3-40.8-52.5-26.7-85.6c4.7-20.2,34.3-37.6,51.1-23.2c-10.1-24.5,22-61.3,57.1-40.1
		c11.5-9.9,29.8-6.5,35.1,8.1c14.5-8.3,45.1-0.8,42,17.6c34,31.8,28.7,70,5.2,106.3c-13.1,1-27.2,3.5-39.9,6.7
		C470.3,259.7,397.9,311.6,379.4,263.4z"/>
	<path class="st2" d="M405.8,287.9c-3-18.3-28.5-34.4-37.8-11.8c-6.3,21.2,19.1,70.4,39.8,46.2c7.6,43.7,48.6,74.6,85.9,67.7
		c44.1-5.5,54.6-51.2,49.7-86c27.6,6.2,20.2-96.9-5.9-53.9c17.3-80.7-88.4-88.6-128.1-39.2C388.5,233.4,408.1,263,405.8,287.9z"/>
	<path class="st9" d="M379.6,262c-0.3,0.4-0.6,0.7-0.6,1.2c-0.1,1.2,1.3,1.9,2.5,2.3c9.7,3,18.2,9.8,23.3,18.6
		c1,1.8,1.9,3.7,3.1,5.4c0.3,0.4,0.6,0.8,1.1,0.7c0.5-0.1,0.6-0.8,0.5-1.3c-1.2-13.1-9-25.4-20.3-31.9c-1.1-0.6-2.2-1.2-3.4-1.1
		c-1.9,0.1-2,1.5-2.7,2.8c-0.4,0.7-1.2,1.1-1.7,1.6C380.7,260.7,380.1,261.3,379.6,262z"/>
	<path class="st9" d="M391.2,289.9c-2.4-1.4-5.2-2.1-8-2c-1.3,0.1-2.6,0.3-3.6,0.9c-1.1,0.7-1.9,1.9-1.8,3.2c0,0.3,0.1,0.7,0.3,0.9
		c0.2,0.3,0.6,0.4,0.9,0.5c5.1,1.8,10.3,3.1,15.6,4c0.6-0.6,0.7-1.7,0.3-2.5c-0.3-0.8-1-1.5-1.6-2.1c-1.2-1.2-2.5-2.4-3.7-3.6"/>
	<path class="st8" d="M407.3,246.1c3.1-5.4,8.3-9.2,12-14.2c5-6.7,7.3-15.4,6.1-23.6c1.6,7.6,8.7,13.4,16.4,14.2
		c7.7,0.8,15.5-3,20.3-9.1c4.8-6.1,6.7-14.1,6.1-21.8c1.6,3.9,5.6,6.7,9.8,6.8s8.4-2.4,10.2-6.2c-0.4,3.7-0.8,7.3-1.2,11
		c8.1,4.5,19.8-0.4,22.4-9.3c-2.7,3.4-0.7,8.8,2.7,11.6c3.4,2.7,7.9,3.8,11.8,5.8c5.8,2.9,10.5,8,13,14c0.3,0.8,0.6,1.6,1.3,2.1
		c2.1,1.7,4.8-1.2,5.8-3.7c6.8-17.8,1.4-39.1-11.5-53.2c-12.9-14.1-32.3-21.2-51.4-21.5s-37.9,5.8-54.6,15
		c-11.7,6.4-22.7,14.5-30.5,25.2c-7.8,10.7-12.2,24.4-9.9,37.5c1.1,6.3,3.8,12.3,7.1,17.8c1.1,1.8,7.5,13.9,10.6,11.3
		c0.9-0.8,0.8-3.3,1.2-4.4C405.6,249.5,406.4,247.8,407.3,246.1z"/>
	<path class="st5" d="M392.5,283.2c-3.2-4.2-6.7-8.4-11.4-10.9c-0.7-0.4-1.5-0.7-2.3-0.6c-1.4,0.2-2.1,1.9-1.9,3.3s1.1,2.5,2,3.6
		c4.2,5.1,8.6,10,13.1,14.7c-0.5,0.7-1.6,0.4-2.4,0.2c-0.8-0.2-2-0.1-2.1,0.8c-0.1,0.5,0.3,0.9,0.7,1.2c3.6,3.2,7.9,5.3,12.3,7.3
		c1.5,0.7,3.6,1.2,4.5-0.6c0.5-1.1-0.7-2.3-1.3-3.1c-1.2-1.5-2.2-3.2-3.3-4.9c-1.2-1.8-2.4-3.5-3.6-5.2
		C395.4,287.1,393.9,285.1,392.5,283.2z"/>
	<path class="st5" d="M545.3,255.3c-1.3,4-1.5,8.4-1.3,12.6c0.2,3.6,0.7,7.3,2.7,10.2c0.2,0.3,0.5,0.7,0.9,0.7
		c0.5,0,0.8-0.4,1.1-0.9c2.8-4.8,4.9-10,6-15.5c-2.2,0.4-4.3,1.4-6.1,2.7c-0.6-5.3,2.8-10,5.1-14.8c0.6-1.1,1.2-2.6,0.5-3.8
		c-0.4-0.8-1.3-0.8-2.1-0.5c-2.2,0.8-3.9,3.2-5,5.2C546.4,252.5,545.8,253.9,545.3,255.3z"/>
	<path class="st9" d="M499.3,293.1c0.5,1,1.2,2.1,2.3,1.9c-0.2-2.3-0.8-4.6-1.5-6.9c-1.6-5.9-3-11.9-4.1-17.9
		c-1.1-6-2-12.1-2.6-18.1c-0.1-0.7,0.1-2.8-0.8-3.1c-0.7-0.2-1.4,0.9-1.7,1.4c-0.6,1-0.5,2.1-0.5,3.2c0,1.4,0,2.9,0.1,4.3
		c0.2,5.7,1,11.4,2.4,17c1.3,5.6,3.2,11,5.6,16.3C498.7,291.8,499,292.4,499.3,293.1z"/>
	<path class="st9" d="M488.9,315.1c1.2,0.5,2.6,0.5,3.8,0c0.4-0.1,0.8-0.4,1-0.7c0.8-0.9,0.5-2.3,0.2-3.4c-0.3-0.9-0.5-1.9-0.8-2.8
		c0-0.1-0.1-0.3-0.2-0.4c-0.1-0.1-0.3-0.2-0.4-0.2c-1.4-0.4-2.9-0.8-4.3-1.2c-0.9-0.3-2.1-0.8-3-0.1c-1.6,1.5-0.1,4.8,0.8,6.2
		C486.8,313.7,487.7,314.6,488.9,315.1z"/>
	<path class="st5" d="M467.7,305.4c0.3,0.5,0.8,1,1.4,1.3c0.5,0.2,1.1,0.3,1.7,0.4c1.3,0.1,2.8,0.1,3.9-0.4c0.5-0.2,0.9-0.5,1.2-0.9
		c-1.3-0.4-2.4-1.6-2.9-2.9c-0.3-0.8-0.5-1.6-0.6-2.4c-0.1-0.5,0-1-0.2-1.5c-0.3-0.5-0.9-0.6-1.4-0.4c-1.5,0.4-3,2-3.5,3.5
		C466.7,303.3,467,304.3,467.7,305.4z"/>
	<path class="st5" d="M489.4,304.8c3.4,0.6,6.7,1.8,10.1,2.5c1.1,0.2,2.4,0.3,3.1-0.5c0.4-0.5,0.5-1.3,0.5-2c0-1,0.1-2,0.1-2.9
		c0-0.4,0.1-0.8,0.4-0.9c0.2-0.1,0.5,0,0.7,0.2c1,0.8,1.4,2.1,1.7,3.4c0.3,1.2,0.6,2.4,0.5,3.6c-0.1,1.2-0.7,2.4-1.7,3
		c-0.9,0.5-2.1,0.5-3.1,0.3c-4.8-0.5-9.4-2-14.1-3c-2.4-0.5-4.7-0.9-7.1-1c-0.6,0-1.5,0-1-0.8c0.4-0.6,1.2-1.2,1.9-1.4
		C483.8,304.3,486.8,304.4,489.4,304.8z"/>
	<path class="st5" d="M539.7,272.5c1.4-3.2,0.8-6.9,0.5-10.4c-0.5-4.7-0.5-9.5,0-14.2c0.2-2.4,0.6-4.7,1.1-7.1
		c0.2-1.2,0.6-2.3,0.8-3.5c0.2-0.8,0.2-2.1-0.7-2.6c-1.3-0.7-2.6,1.8-3,2.7c-0.8,2-1.2,4.3-1.5,6.5c-0.7,4.5-0.9,9.1-0.5,13.6
		c0.4,4.6,1.3,9.1,2.8,13.4C539.3,271.5,539.5,272,539.7,272.5z"/>
	<path class="st10" d="M361.7,195.5c3.2,7.3,6.9,14.3,11.1,21.1c1.1,1.8,2.6,3.8,4.7,3.9c-0.4-4.2-1.1-8.4-2-12.5
		c1.5,5.3,4.1,10.3,7.6,14.5c1.1,1.4,2.5,2.8,4.2,3.4c1.7,0.5,4-0.1,4.7-1.8c1.4,3.9,6.3,6.2,10.2,4.8c-1.9,4.2-2,9.2-0.3,13.5
		c-1.8-3-4.9-5.3-8.4-6c-0.5,5.2-0.4,10.4,0.3,15.6c-2.9-2.8-5.8-5.7-8.6-8.5c0.2,2.9,0.3,5.8,0.5,8.7c-0.6-1.6-1.8-3.5-3.4-2.8
		c-3.9-11.5-12.9-20.7-17.7-31.9c-1.8-4.1-3-8.5-3.8-12.9c-0.8-4.4-1.3-8.9-1.6-13.4c-0.1-1.2-0.2-2.5-0.2-3.8
		c0-0.6-0.1-1.3-0.1-1.9c0-0.4,0.1-1-0.3-1.3c-0.2,0.8,0.1,2,0.3,2.8c0.2,1,0.4,1.9,0.7,2.9C360.1,191.8,360.8,193.7,361.7,195.5z"
		/>
	<path class="st10" d="M420.8,191.5c1,5.1,2.8,10.5,7.2,13.3c0.3,0.2,0.6,0.3,0.9,0.2c0.3-0.1,0.5-0.4,0.7-0.7
		c0.6-1.3,1-2.8,1.2-4.2c-0.1,2.6,0.9,5.1,2.6,7c1,1,2.4,1.9,3.9,1.7c1.5-0.1,2.8-1.5,2.5-2.9c1.6,3.7,5.8,5.9,9.8,5.6
		c4-0.3,7.7-2.7,10.1-6c2.4-3.3,3.5-7.3,3.8-11.3c-1.6,1.9-3.9,2.9-6.2,3.6c-4,1.2-8.7,1.4-11.9-1.2c-2.2-1.8-3.2-4.6-4.8-6.9
		c-1.6-2.3-4.4-4.4-7.1-3.5c-1.8,0.6-3.7,2.6-5.4,1.6c-0.9-0.5-1.2-1.7-1.3-2.7c-0.4-3.9,0.6-7.7,1.2-11.5c0.3-1.9,0.5-3.8,0.3-5.7
		c-0.1-1.3-0.4-3.2-1.7-3.9c-2.1-1.2-4.6,1-5.6,2.7c-0.8,1.5-1,3.3-1.2,4.9c-0.2,2-0.3,4.1-0.3,6.2c0,4.2,0.3,8.4,1,12.5
		C420.6,190.6,420.7,191,420.8,191.5z"/>
	<path class="st10" d="M455.3,151.8c9.9,7.4,15.6,20.1,14.6,32.4c2.9-2.2,4.9-5.6,5.3-9.2c2.3,2.3,3.9,5.2,4.8,8.4
		c-0.5-0.7,0.4-1.8,1.3-1.7c0.9,0.1,1.5,0.9,2,1.7c0.7,1.3,1,2.9,0.9,4.4c1.7-0.5,2.4-2.5,2.7-4.3c1.5-8.4,0.9-17.1-1.8-25.1
		c-0.4-1.2-1.2-2.6-2.4-2.3c0.1,1.1-1.1,2-2.2,2c-1.1,0-2.1-0.5-3-1.2c-2.7-1.9-4.8-4.5-7.1-6.9c-3.7-3.9-8.1-7.4-13.4-8.6
		c-3.7-0.9-7.7-0.4-11,1.5c-0.9,0.5-3.9,2.3-2.7,3.6c0.6,0.6,1.7,0.8,2.5,1c1.1,0.2,2.1,0.4,3.2,0.8
		C451.2,149,453.4,150.3,455.3,151.8z"/>
	<path class="st10" d="M502.7,185.4c0.3,1.2,0.8,2.6,2,2.8c0.8,0.1,1.6-0.5,2.2-1.1c1.2-1.2,2.2-2.7,2.9-4.3c0.2-0.4,0.5-1,1-1
		c0.5,0,0.8,0.4,1.1,0.8c1.3,2.2,2.3,4.6,3.1,7c0.7,2.2,1.1,4.6,2.4,6.5c0.6,1,1.6,1.9,2.8,1.8c2.5-0.1,2.6-4.2,4.8-5.5
		c0.3-0.2,0.7-0.3,1-0.2c0.5,0.1,0.8,0.6,1,1c2.3,3.9,4.1,8.1,5.5,12.5c0.2,0.7,0.4,1.4,1,1.8c1,0.6,2.2,0,3.1-0.7
		c1.6-1.3,3.1-2.8,4.3-4.5c3.6,6.3,3.6,14,3.4,21.3c3-0.6,4.5-4,5.5-6.9c3.2-9.4,6.4-19.3,4.7-29c-1.4-0.8-2.5,1.6-4.1,2.1
		c-1,0.3-2.2-0.3-2.8-1.2c-0.6-0.9-0.8-2-0.9-3.1c-0.9-6.9-1.1-14.5-5.6-19.7c-0.4-0.4-0.8-0.8-1.3-0.9c-1.1-0.1-1.8,1.2-2.1,2.3
		c-1.2,4.4-2,8.9-2.4,13.4c-1.9-0.2-3.3-1.9-4-3.7s-1-3.7-1.9-5.3c-0.2-0.4-0.5-0.9-0.9-1.1c-1-0.6-2.4,0-3.1,0.9
		c-0.7,1-0.8,2.2-0.9,3.4c-2-3.8-3.2-8.1-5.2-11.9c-3.8-7.2-10.6-12.8-18.5-15c0.8,3.3,3.1,6.1,4.9,9c2.8,4.6,4.4,9.8,4.7,15.2
		c0.1,1.2-0.1,2.6-1.2,3.1c-0.8,0.3-1.7-0.1-2.2-0.8c-0.5-0.7-0.8-1.5-1-2.3c-1-3.4-2.5-6.7-4.4-9.7c-0.7-1.1-1.5-2.1-2.4-3
		c-0.7-0.6-1.8-1.7-2.7-1.7c-1.8-0.1-1.4,2.9-1,3.9c1.1,2.4,2.3,4.7,3.2,7.3c0.9,2.6,1.6,5.2,2.2,7.8
		C501.5,179.5,502.1,182.4,502.7,185.4z"/>
	<path class="st10" d="M409.9,138c-1.1,6-1.4,12.2-1,18.3c0.1,1.7,0.3,3.4,1,4.9s2.1,2.8,3.8,3c-0.1-1.7-0.2-3.5,0.6-5
		s2.5-2.7,4.1-2.2c1.1,0.4,2.1,1.5,3.2,1c0.4-0.2,0.7-0.6,1.2-0.8c0.6-0.2,1.2,0.2,1.8,0.2c0.8,0,1.4-0.5,2-1c0.8-0.7,1.5-1.3,2.3-2
		c0.3-0.3,0.7-0.6,0.7-1c0.1-0.7-0.6-1.3-1.3-1.5c-2.2-0.6-5.2,1-6.7-0.8c-0.6-0.7-0.7-1.8-1-2.7c-0.5-1.5-1.9-2.6-3.4-2.9
		c-0.6-0.1-1.2-0.1-1.7-0.5c-0.6-0.6-0.5-1.6-0.4-2.4c0.9-5,1.4-10,1.7-15c0-0.6,0.5-2.3-0.3-2.5c-0.7-0.2-1.5,0.5-1.9,0.9
		c-1.4,1.5-2.4,3.3-3.1,5.2C410.8,133.4,410.3,135.7,409.9,138z"/>
	<path class="st11" d="M426.5,276.1c0,0,11.6-13,23-15.2c11.4-2.2,16.8,6.8,16.8,6.8s-5,8.6-16.1,10.8
		C439.1,280.6,426.5,276.1,426.5,276.1z"/>
	<circle class="st12" cx="450.1" cy="268.4" r="8.8"/>
	<path class="st5" d="M426.5,276.1c0,0-0.1-3.1,2.7-5.8c4.1-3.8,11-11.9,21.6-12.5c13.9-0.9,15.5,9.9,15.5,9.9s-6-10.1-18.7-5.2
		C435.3,265.8,426.5,276.1,426.5,276.1z"/>
	<path class="st13" d="M426.5,276.1c0,0,7.9,10.3,20.8,7.3c12.9-3,19-15.7,19-15.7s-9.2,10.3-20,10.4
		C435.5,278.2,426.5,276.1,426.5,276.1z"/>
	<path class="st11" d="M495.3,263.7c0,0,10-13.2,20.9-15c11-1.8,17.3,8.2,17.3,8.2s-5.9,8.2-16.6,10
		C506.2,268.6,495.3,263.7,495.3,263.7z"/>
	
		<ellipse transform="matrix(1 -7.706945e-03 7.706945e-03 1 -1.9631 4.0025)" class="st12" cx="518.3" cy="256.7" rx="8.4" ry="8.8"/>
	<path class="st5" d="M495.3,263.7c0,0,0-3.2,2.8-5.7c4-4.1,9.9-11.8,20-12.1c13.3-0.3,15.4,11,15.4,11s-7-10.5-17.2-6.8
		C502,255.1,495.3,263.7,495.3,263.7z"/>
	<path class="st13" d="M495.3,263.7c0,0,8.1,10.5,20.5,8s17.7-14.9,17.7-14.9s-10,10.1-20.3,9.8
		C502.9,266.4,495.3,263.7,495.3,263.7z"/>
	<path class="st9" d="M429.7,260c9.5-3.5,19-7.1,28-11.6c1.5-0.8,3.1-1.6,4.2-3c1.1-1.4,1.5-3.4,0.5-4.8c-1.4-2.1-4.5-1.7-6.9-1
		c-7.9,2.3-15.3,6.1-22.5,10.2c-3.6,2-7.5,4-10.7,6.5c-1.5,1.2-2.8,3.8-2.1,5.8c0.5,1.3,1.7,0.8,2.8,0.4
		C425.3,261.7,427.5,260.8,429.7,260z"/>
	<path class="st9" d="M489.2,238.7c0,0.3,0.1,0.6,0.3,0.8c0.2,0.2,0.4,0.2,0.7,0.2c7.8,0.9,15.2-3.6,22.9-5.1
		c5.7-1.1,11.7-0.4,17.3-1.9c0.6-0.1,1.1-0.3,1.5-0.8c0.5-0.7,0.4-1.7-0.1-2.3c-0.5-0.7-1.3-1.1-2.1-1.4
		c-10.1-4.4-21.7-1.7-32.7-0.8c-2.1,0.2-4.6,0.3-6.3,1.8c-0.6,0.5-0.7,1-0.9,1.8c-0.2,1.1-0.6,2.1-0.8,3.3
		C489,235.8,489,237.2,489.2,238.7z"/>
	<g>
		<path class="st8" d="M488.2,235.2c1.9,4.2,30.4-7.4,40.6-3.1c4.5,1.7,5.9-0.1,5-4.1c-9.9-9.4-22.4-5.9-35-6.3
			C487.9,219.8,480.2,217.8,488.2,235.2z"/>
	</g>
	<g>
		<path class="st8" d="M445.9,234.3c-12.2,6.9-26.1,10.3-31.3,23.6c1,4,3.3,4.8,6.8,1c8-9,41.5-13.5,41.4-18.2
			C462.3,221.4,455.7,227.1,445.9,234.3z"/>
	</g>
	<path class="st5" d="M484.2,352.9c3.6,0.5,7.2,0.1,10.8-0.3c2.5-0.3,5.1-0.7,7.5-1.5c4.6-1.6,8.6-4.9,10.7-9
		c0.2-0.3,0.3-0.7,0.3-1.1c0-1-1.5-1.6-2.6-1.3c-1.1,0.3-1.9,1.1-2.8,1.8c-4.1,3.4-9.5,5-14.9,5.7c-5.4,0.7-10.9,0.6-16.3,0.9
		c-0.7,0-1.4,0.1-1.9,0.5c-0.6,0.4-0.9,1.3-0.2,1.6c0.9,0.5,2,0.8,3,1.1C479.9,352,482,352.7,484.2,352.9z"/>
	<g>
		<path class="st9" d="M495.1,335.9c11.8-2.2,24.2-0.3,31.4-8.3c-5.7-2.6-21.3-2.4-27.2-0.2c-10,3.6-7.5,2.5-18.1,2.9
			c-4.6,0.2-23.3,7.4-22.8,10.8C463.5,346,485.9,337.6,495.1,335.9z"/>
		<path class="st14" d="M465.3,336.2c0,0,6.6,0.8,15.6,1c9,0.2,17.7-0.3,24.4-5.3c5.8-4.3,14.4-6,14.4-6l-19.5,0.8l-21.1,2.9
			L465.3,336.2z"/>
		<path class="st5" d="M458.7,339.6c-0.8,0.6-0.4,1.5-0.3,1.5c1.9,0.1,26-7.7,35-9.5c8.4-1.7,29-2.5,32.5-3.2c0.3-0.1,0.3-1-0.4-1.3
			c-0.7-0.3-17.5-5.9-21.6-6.5c-4.1-0.6-6.8,0.7-8.2,1.7l-1.2,1c-1.3,1.1-3,1.5-4.7,1l-1.1-0.3c-2.5-0.7-5-0.9-9.3,1
			C475.1,326.8,458.9,339.3,458.7,339.6z"/>
	</g>
</g>
<g id="рука_2_">
	<g>
		<path class="st2" d="M648.4,722c-35.4,17.5-77.9,17.3-115.6,7.3c-28.7-10.1-16.7-38-3-58.6c15-20.3,36.3-30.6,60.7-31.7
			c19.6-0.8,60.3-8.7,66.6-5.7c3.7,1.8,6.6,23.5,5.9,27.5C671,680.5,668.5,711.1,648.4,722z"/>
		<path class="st2" d="M635.2,724.9c-2.7-2.8-3.8-6.8-3.4-10.7c0.3-3.3,1.5-6.6,3.8-9.1c5.4-5.9,14.7-5.7,22.5-4.2
			c5.9,1.1,11.6,2.8,17.2,4.8c3,1.1,6,2.4,8.5,4.5c2.5,2.1,4.3,5,4.4,8.2c0.1,4.8-3.7,8.9-8.2,10.6c-4.5,1.7-9.4,1.5-14.2,1.1
			C656.6,729.5,639.8,729.5,635.2,724.9z"/>
		<path class="st2" d="M566.7,663.5c-4.8-15.8,27.2-29.1,41.3-33.5c18-1.3,11.9,18.1,2.4,26.7C598.1,667.9,572.4,682,566.7,663.5z"
			/>
		<path class="st2" d="M667.2,715.5c0-1.5-0.2-3.2,0.5-4.6c0.7-1.6,2.4-3,3.8-3.9c3.7-2.3,8.9-2.5,12.9-0.9c3.7,1.5,6.7,4.6,7.8,8.4
			c1.1,3.8,0,8.2-2.9,11c-1,1-2.3,1.7-3.5,2.4c-1.8,0.9-3.9,1.7-5.9,1.7c-4.3,0.2-8.4-2.5-10.5-6.2
			C667.9,720.9,667.3,718.2,667.2,715.5z"/>
		<path class="st2" d="M684.2,730.3c-2.6-0.9-5-2.1-7.3-3.5c-1.5-1-3.4-2.2-4.3-3.8c-0.9-1.6-0.8-3.9-0.5-5.6
			c0.3-2.4,1.4-4.7,3.3-6.4c4.1-3.7,10.3-3.6,15.8-3c11.3,1.2,22.6,3.4,33.5,6.7c2.4,0.7,4.8,1.5,6.8,2.9c2,1.5,3.5,3.7,3.5,6.2
			c0,3.8-3.6,6.7-7.1,8.2c-10.7,4.8-23.1,3.4-34.6,0.9C690.2,732.2,687.1,731.4,684.2,730.3z"/>
		<path class="st2" d="M623.9,646.3c-2.2,0.6-4.4,1-6.6,1c-1.5,0-3.3,0.1-4.6-0.7c-1.3-0.8-2-2.5-2.6-4c-0.7-2-0.8-4.3-0.2-6.5
			c1.5-4.9,5.9-7.8,10-10.2c8.5-4.7,17.3-8.7,26.3-11.7c2-0.7,4-1.3,5.9-1.2c2,0.1,4,1,4.9,2.9c1.5,2.9,0,6.8-1.8,9.8
			c-5.7,9-15,14.1-24.1,18C628.8,644.7,626.4,645.6,623.9,646.3z"/>
		<path class="st4" d="M713.2,724.3c-1.2-1.4-2.2-3.7-1.5-5.5c0.9-2.3,3.8-2.5,5.8-2.6c5.1-0.3,10.3,1.5,14.8,4.2
			c0.6,0.4,1.3,0.8,1.8,1.4c0.8,1.1,0.9,2.7,0.4,3.9c-0.5,1.2-1.6,2.1-2.7,2.7c-3,1.4-6.6,0.8-9.9-0.1
			C718.9,727.6,715.4,726.8,713.2,724.3z"/>
		<path class="st4" d="M637.5,623.3c-2,0.2-4.5,0.2-5.6-0.5c-1.3-0.8,0.5-2.1,1.8-3c3.2-2.2,8.2-4.1,13.5-5.4
			c0.7-0.2,1.5-0.4,2.3-0.5c1.5-0.1,2.8,0.2,3.5,0.6c0.7,0.5,0.7,1.1,0.3,1.7c-0.9,1.6-3.8,3-6.8,4.2
			C644,621.6,641,622.9,637.5,623.3z"/>
		<path class="st2" d="M692.3,663.6c7.2-10.2,33.7-6.6,47.3-1.5c14.6,9.3-0.9,23.4-13.6,21.6C708.4,686.1,680.8,679.9,692.3,663.6z"
			/>
		<path class="st2" d="M673.2,689.1c0-1.5-0.2-3.2,0.5-4.6c0.7-1.6,2.4-3,3.8-3.9c3.7-2.3,8.9-2.5,12.9-0.9c3.7,1.5,6.7,4.6,7.8,8.4
			c1.1,3.8,0,8.2-2.9,11c-1,1-2.3,1.7-3.5,2.4c-1.8,0.9-3.9,1.7-5.9,1.7c-4.3,0.2-8.4-2.5-10.5-6.2
			C674,694.6,673.3,691.8,673.2,689.1z"/>
		<path class="st2" d="M666.6,638.3c7.9-9.5,34.4-3.8,47.7,2.4c14.1,10.4-2.5,23-15.1,20.2C681.3,661.8,653.9,653.4,666.6,638.3z"/>
		<path class="st2" d="M724.2,647.4c2.9,13.2-18.2,19.4-23.6,6.8C690.7,636.2,720.1,629.9,724.2,647.4z"/>
		<path class="st2" d="M629.3,636c3.8,13.1-16.7,21.1-22.9,8.8C595.4,627.5,624.2,618.7,629.3,636z"/>
		<path class="st2" d="M635.4,633.7c7.9-9.5,34.4-3.8,47.7,2.4c14.1,10.4-2.5,23-15.1,20.2C650.1,657.2,622.6,648.8,635.4,633.7z"/>
		<path class="st2" d="M707.5,641.7c9.7-8,73.3,9.6,46.9,22c-10.6,5-24,1.4-35.4-2.1C708.5,659.1,695.1,653,707.5,641.7z"/>
		<path class="st4" d="M736.1,655.8c-1.3-1.6-2.2-4.1-1.2-6.1c1.3-2.4,4.7-2.4,7.1-2.5c6,0,11.9,2.2,16.9,5.4
			c0.7,0.5,1.4,0.9,1.9,1.6c0.9,1.2,0.8,3,0,4.2c-0.8,1.3-2.1,2.2-3.5,2.7c-3.7,1.4-7.9,0.5-11.7-0.6
			C742.3,659.6,738.4,658.6,736.1,655.8z"/>
		<path class="st2" d="M645.6,662.6c7.2-10.2,49.3-7.7,62.8-2.6c14.6,9.3-0.9,23.4-13.6,21.6C677.2,684,634,679,645.6,662.6z"/>
		<path class="st2" d="M749.8,668c3.8,13.1-16.7,21.1-22.9,8.8C715.9,659.5,744.7,650.8,749.8,668z"/>
		<path class="st2" d="M675.6,687.3c6.4-10.9,32.8-9.7,46.6-5.7c15.1,8,0.7,23.7-11.9,22.9C693.1,708.4,665.4,704.7,675.6,687.3z"/>
		<path class="st2" d="M689.6,667c0-1.5-0.2-3.2,0.5-4.6c0.7-1.6,2.4-3,3.8-3.9c3.7-2.3,8.9-2.5,12.9-0.9c3.7,1.5,6.7,4.6,7.8,8.4
			c1.1,3.8,0,8.2-2.9,11c-1,1-2.3,1.7-3.5,2.4c-1.8,0.9-3.9,1.7-5.9,1.7c-4.3,0.2-8.4-2.5-10.5-6.2
			C690.3,672.5,689.7,669.8,689.6,667z"/>
		<path class="st2" d="M732.7,686.6c4.6,12.9-15,22.7-21.9,10.9C698.6,681.1,726.4,669.6,732.7,686.6z"/>
		<path class="st2" d="M732.9,663.7c9.1-8.9,73.1,3.6,47.8,18.3c-10.2,5.9-23.7,3.4-35.1,0.8C735,681.2,721.4,676.1,732.9,663.7z"/>
		<path class="st2" d="M644.7,688c6.4-10.9,32.8-9.7,46.6-5.7c15.1,8,0.7,23.7-11.9,22.9C662.2,709.2,634.4,705.5,644.7,688z"/>
		<path class="st2" d="M715.7,683.7c8.3-9.7,72.4-2.9,48.5,14.1c-9.6,6.8-23.1,5.5-34.6,4C719,701.1,705.2,697.3,715.7,683.7z"/>
		<path class="st4" d="M745.9,693.2c-1.6-1.7-2.9-4.4-2.4-6.8c0.7-2.9,3.9-3.3,6.2-3.6c5.7-0.7,11.7,1.2,17,4.2
			c0.8,0.4,1.5,0.9,2.1,1.6c1.1,1.3,1.3,3.3,0.9,4.8c-0.4,1.6-1.5,2.8-2.7,3.5c-3.2,2-7.3,1.4-11.1,0.6
			C752.5,696.9,748.5,696.2,745.9,693.2z"/>
		<path class="st4" d="M761.1,675.6c-1.4-1.6-2.5-4.1-1.6-6.3c1.1-2.6,4.5-2.9,6.9-3c6-0.4,12.1,1.5,17.3,4.5c0.8,0.4,1.5,0.9,2,1.6
			c1,1.2,1,3,0.4,4.4c-0.6,1.4-1.9,2.4-3.3,3.1c-3.6,1.7-7.8,1-11.7,0.1C767.7,679.1,763.6,678.3,761.1,675.6z"/>
		<path class="st5" d="M663.9,701.2c-4.5-0.8-9-1.2-13.5-1.2c-1.3,0-5.1,0.8-6-0.2c-1.5-1.7,2.2-2.5,3.2-2.6
			c7-0.6,14.1,0.3,20.8,2.6c1.5,0.5,3.3,1.7,2.8,3.2C671.2,702.9,664.5,701.3,663.9,701.2z"/>
		<path class="st5" d="M737.5,670.6c-7.3-3.2-32.1-2.1-39.6-2.1c-15.5,2.6-34.4-4.5-48.3,0c12,6.1,26,7.1,39.5,7
			C695.2,673.6,739.9,680,737.5,670.6z"/>
		<path class="st5" d="M734.9,654.5c0-13.9-64.4-3.3-82.3-9.3c0.4,4.2,5.3,6.2,9.5,7C692.3,656.7,705.2,650.7,734.9,654.5z"/>
		<path class="st5" d="M640.8,698.1c-1.9-1.3-3.7-2.9-5.2-4.7c-0.7-0.9-2.3-2.8-1.7-4c0.8-1.6,4.6,0.1,5.6,0.5
			c3,1.2,5.6,3.1,7.6,5.6c1.2,1.4,2.1,3,2.8,4.7C646.9,701.3,643.3,699.8,640.8,698.1z"/>
		<path class="st5" d="M643.7,667.6c-0.8-0.7-1.7-1.2-2.4-2c-0.7-0.7-1.2-1.8-0.8-2.8c0.5-1.2,2.1-1.5,3.5-1.5
			c4.6,0.2,9,2.2,12.1,5.6c0.8,0.9,1.5,1.8,1.7,3c0.2,1.1-0.2,2.5-1.2,3c-1.1,0.6-2.6,0.2-3.8-0.4c-4.5-2-8.8-4.6-12.7-7.6"/>
		<path class="st5" d="M651.1,627.2c-8.9-2.7-17.9-0.6-26.4,1.5c-13.9,3.4-27.8,6.8-41.7,10.2c13,1.4,25.2-2.8,37.4-6.1
			c8.1-2.2,16.3-4,24.7-5.5c3.3-0.6,7.1-0.9,9.7,1.8"/>
	</g>
	<path class="st2" d="M427.7,691.9c-19.3,6.7-40.5,14.9-49.7,33.2c-4.4,8.8-5.3,18.8-5.3,28.6c0,11.2,1.2,22.7,6.1,32.8
		c4.9,10.1,13.9,18.7,24.9,20.7c19.1,3.6,69-33.4,89.5-42.4c21.9-9.6,55.2-25.9,75.1-39.2c12.2-8.1,18.2-19.1,23.4-32.9
		c5.7-14.8,4.2-31.4-7.8-42.6c-3.6-3.4-7.8-6-12.9-6.1c-6.3,0-12.6,2.8-18.4,4.8c-19.7,6.8-39.3,13.5-59,20.3
		c-19.6,6.7-39.1,13.5-58.7,20.2C432.5,690.2,430.1,691.1,427.7,691.9z"/>
</g>
<g>
	<path class="st0" d="M307.4,712.4c16.3-7.7,33.3-14.2,51.2-16.7c6.2-0.8,12.6-1.2,18.7-2.8c6.4-1.7,12.4-4.7,18.4-7.6
		c16.7-8.2,33.8-15.9,51.1-22.9c5.6-2.3,12.7-4.2,17,0c-20.5,34.1-13.2,82.3,16.5,108.8c1,0.9,2,1.8,2.5,3c1,2.8-1.3,5.5-3.4,7.6
		c-44.5,42.4-94.9,78.2-146.6,111.5c-14.3,9.2-63.5,16.2-80.4,14c-16.9-2.2,3.1-13.3-6.3-27.6c-9.3-14-16.2-29.6-20.6-45.8
		c-1.9-7.1-3.2-14.3-4.5-21.5c-0.8-4.3-1.6-8.6-1.4-13c0.5-10.4,7.4-20.5,13.2-28.7c8.6-12.2,19.3-22.8,31.1-31.9
		c12-9.3,25.1-17.2,38.6-23.9C304,714,305.7,713.2,307.4,712.4z"/>
	<path class="st3" d="M269.5,741.7c12.9-5.5,25.8-10.9,38.7-16.4c8.9-3.8,17.9-7.6,26.8-11.4c41-17.4,82.1-34.8,121.7-55.4
		c-6.3-0.8-12.6,1.6-18.4,4.3c-23.4,10.6-45.7,24.5-70.6,30.7c-15.8,3.9-32.3,4.7-47.8,9.7c-5.5,1.8-11.1,3.9-15.7,7.5
		c-4.9,3.9-9.5,8.2-14.3,12.2c-3.6,3-7.1,6.1-10.5,9.2c-1.7,1.5-3.3,3.1-5,4.7C273,738.1,271.1,741,269.5,741.7z"/>
	<path class="st3" d="M412,804.1c-13.2-20.7-26.7-42.6-28.2-67.1c-0.8-12.4,1.6-24.8,0.2-37.2c-0.2-1.5-0.7-6.7-3.1-6
		c-1.9,0.6-2.5,4.5-2.9,6.1c-1.3,5.1-2.2,10.4-2.6,15.6c-0.9,10.6-0.1,21.4,2.3,31.8c2.4,10.4,6.2,20.4,11.5,29.6
		c5.3,9.2,12.1,17.7,20,24.7C410,802.4,411.4,803.2,412,804.1z"/>
	<path class="st3" d="M447.8,676.3c-10.4,37,2.8,79.6,32.4,104.2c3-2.9,3.9-3.2,2.4-6.3c-3-6.2-13-15.4-16.2-21.5
		c-12.9-25-12.3-55.4-3.5-82.2c0.9-2.8,3.1-10.9-2.1-11c-3.8-0.1-7.7,5.2-9.4,8C449.8,670.3,448.7,673.3,447.8,676.3z"/>
	<path class="st3" d="M248.2,726.9c-28.2,11.3-57.5,26.6-71.1,53.8c22-9.5,40.7-25.1,60.2-39c19.5-13.9,41-26.7,64.8-28.9
		c-44.3,18.3-83.1,49.7-110.2,89.3c-3.1,4.6-6.1,9.3-8,14.6c-0.6,1.8-1.1,3.9-0.1,5.5c1.2,2.1,4.2,2.5,6.4,1.5
		c2.2-1,3.8-2.9,5.2-4.8c9.6-12.3,19.2-24.6,28.9-36.8c-8.5,14.9-17.2,31.6-13.9,48.4c8.9-8.8,13.3-21.1,18.7-32.4
		c15.8-33.5,42.5-61.8,75-79.7c2.9-1.6,10.4-5.4,8.4-9.8c-2-4.5-9.5-0.7-12.5,0.2c-11.2,3.4-22.2,7.1-33.2,11.1
		C260.6,722.1,254.4,724.4,248.2,726.9z"/>
	<path class="st3" d="M382.5,699.8c-1.4,0.7-3.2,2.1-2.3,3.5c0.7,1.1,2.3,0.8,3.5,0.3c21.4-8,42.6-16.4,63.6-25.2
		c3.3-1.4,11.4-5.2,10.1-10.2c-0.9-3.4-8.2,1.1-9.9,1.9c-13.6,6.5-27.5,12.6-41.2,18.9C398.3,692.5,390.4,696.2,382.5,699.8z"/>
	<path class="st3" d="M379.7,722.4c-1.9,1.1-4.2,3.3-2.9,5.2c11.4-2.5,22-7.6,32.6-12.7c9.4-4.5,18.8-9,28.2-13.5
		c4.6-2.2,9.4-4.3,13.8-6.8c1-0.6,6-2.8,4.1-4.3c-1.5-1.2-5.6-0.3-7.2,0c-3.5,0.5-6.7,1.6-9.9,2.9c-9.5,4.1-18.9,8.5-28.1,13
		C399.9,711.3,389.7,716.7,379.7,722.4z"/>
	<path class="st3" d="M394.5,737.7c-5.1,2.7-10.3,5.6-14.1,9.9c-0.9,1-1.6,2.7-0.5,3.4c4.8-0.7,9.2-2.8,13.6-4.9
		c19.1-9,38.1-18.1,57.2-27.2c2.1-1,4.4-2.3,5.1-4.5c0.4-1.4-0.4-3.1-1.6-3.8c-1.6-0.9-3.3,0.4-4.8,1c-4.5,1.9-9,3.8-13.4,5.8
		c-9,4-17.9,8.2-26.7,12.6C404.3,732.5,399.4,735.1,394.5,737.7z"/>
	<path class="st3" d="M389.5,772.6c0.2,2.3,3.7,2,5.8,1c20.1-9.4,40.1-18.9,60.2-28.3c1.9-0.9,3.9-1.9,4.8-3.8
		c0.7-1.6,0-4.5-2.1-4.4c-0.8,0-1.6,0.7-2.3,0.9c-1.2,0.5-2.6,0.9-3.9,1.3c-5.6,1.7-11.1,3.5-16.6,5.5c-10.9,3.9-21.6,8.6-31.2,15.2
		C398.8,763.6,393.8,767.8,389.5,772.6z"/>
	<path class="st3" d="M409.6,796.4c-1,0.9-2,2.6-0.9,3.4c0.5,0.4,1.2,0.2,1.8,0.1c3.5-1.1,6.7-2.9,9.9-4.7c11.8-6.8,23.5-14,35-21.4
		c2.7-1.7,5.3-3.5,7.8-5.5c2-1.6,5.6-4,6.1-6.7c0.7-4.5-6.4-1.4-8.1-0.7c-5.7,2.6-11,6.3-16.2,9.6c-5.8,3.7-11.5,7.6-17.1,11.7
		C421.6,786.7,415.5,791.4,409.6,796.4z"/>
	<path class="st3" d="M429.8,806.8c-2.4,1.8-4.9,4.1-4.8,7.3c14.7-7.6,28.7-16.6,41.7-27c3.3-2.6,6.5-5.2,9.6-8.1
		c0.8-0.7,3.1-2.4,1.8-3.8c-1.2-1.3-3.3,0.7-4.2,1.3c-7.2,4.4-14.3,9-21.4,13.8C444.9,795.6,437.3,801.1,429.8,806.8z"/>
</g>
</svg>
