<?xml version="1.0" encoding="utf-8"?>
<!-- Generator: Adobe Illustrator 25.2.0, SVG Export Plug-In . SVG Version: 6.00 Build 0)  -->
<svg version="1.1" id="Layer_1" xmlns="http://www.w3.org/2000/svg" xmlns:xlink="http://www.w3.org/1999/xlink" x="0px" y="0px"
	 viewBox="0 0 998.2 973.2" style="enable-background:new 0 0 998.2 973.2;" xml:space="preserve">
<style type="text/css">
	.st0{fill:#FF6E29;}
	.st1{fill:#E27247;}
	.st2{fill:#9DCBA4;}
	.st3{fill:#8DA38E;}
	.st4{fill:#45585A;}
	.st5{fill:#AD4930;}
	.st6{fill:#3A2B40;}
	.st7{fill:#FFFFFC;}
	.st8{fill:#4D1C39;}
	.st9{fill:#83A097;}
	.st10{fill:#3C2C40;}
	.st11{fill:#FFFFFF;}
	.st12{fill:#FFFEFF;}
	.st13{fill:#4E1C38;}
	.st14{fill:#82A295;}
</style>
<path class="st0" d="M619.7,476.9c-1.3,20.6,1.5,41.2,4.9,61.5c11.8,71.1,30.8,141.1,56.5,208.5c10.4,27.1,22.5,54.8,44.3,73.9
	c21.8,19.1,56,27.1,80.3,11.2c4.5-2.9,8.5-6.7,11.2-11.3c2.5-4.3,3.6-9.3,4.5-14.2c6.5-34.3,4.5-70.1-5.7-103.5
	c-7.5-24.5-19.2-47.5-29.7-70.9c-8.9-19.9-16.8-40.3-24.7-60.6c-7.4-19-14.8-38-19.9-57.8c-3-11.6-5.2-23.5-9.1-34.8
	c-2.6-7.6-6-15-9.3-22.3c-5.7-12.5-11.4-25.1-17.1-37.6c-4.2-9.2-8.5-18.6-15.1-26.3c-5.7-6.7-14-12.6-22.9-13.9
	c-3.8-0.5-6,1.7-8.4,4.3c-3.2,3.6-6.3,7.3-9.2,11.2c-11.5,15.4-20.1,32.9-25.3,51.4C622.2,455.7,620.4,466.2,619.7,476.9z"/>
<path class="st0" d="M659.2,846.8c-11.3,25.5-43.1,28.6-67.8,28.2c-86.4,1.2-175.5,5.8-261.8,11.1c-41.9-75.6,16.7-275.6-33.1-322.1
	c-25.9-25.9-72.1-32.2-101.4-52.9c12.5-42.8,25.3-98.5,67.9-122.4c39.4-25.1,83.7-44.8,129.4-54.6c6-39.5,110.1-26.3,140.1-22
	c9.5,3.2,20.9,8.2,24,18c-0.4,0.5,101,29.7,129.7,53.6c62.5,80.9-14.3,124.5-25.5,149.8c-23.9,50.2-6.4,53-10.5,108.5
	C644,713,638.7,778.7,659.2,846.8z"/>
<path class="st1" d="M614.4,521.5c4.1,37.6,8.3,75.1,12.4,112.7c0.3,2.5,0.4,5.4-1.5,7c-2.1,1.9-5.3,1.1-7.9,0.1
	c-13.1-5-25.2-12.4-37.4-19.5c-27.2-15.8-55.2-30.3-83.8-43.4c-14.9-6.8-30-13.2-45.9-17c-2.1-0.5-4.4-1-6.5-0.3
	c-7.4,2.2-5.3,13.3-1.6,20.1c13.4,24.7,26.8,49.4,40.2,74.1c3.6,6.6,6.9,15.6,1.5,20.8c-1.9,1.9-4.5,2.7-7,3.7
	c-35.3,12.9-63.2,44.6-71.5,81.3c-2,8.7-2.7,18.4,1.9,26c8,13.1,26.6,13.1,41.2,17.7c8.2,2.6,15.8,7.1,22,13.1
	c3.4,3.2,6.5,7,10.9,8.8c5.3,2.1,11.2,0.8,16.8-0.3c27.5-5.4,56.2-4.6,83.4,2.5c5.2,1.4,10.5,3,15.8,2.9c10.5-0.1,20.2-6.5,26.3-15
	c6.2-8.5,9.3-18.8,11.5-29c4.1-19.2,5.2-39,6.2-58.7c1-18.2,2-36.5,2.9-54.7c0.7-13.2,1.4-26.3,2-39.5c0.5-11.2,2.4-23.6,0.1-34.7
	c-0.7-3.3-2-6.5-2.9-9.7c-1.4-4.7-1.9-9.5-2.5-14.3c-1.3-10-3.4-20.1-7.3-29.5c-2.1-5-4.7-9.8-8-14.2c-1.6-2.1-3.3-4.1-5.2-5.9
	C619.7,525.7,614.5,522.4,614.4,521.5z"/>
<path class="st2" d="M412.2,272.5c0,0-9.4,44.2-4.2,62.6c5.1,18.3,67.6,117.7,81.1,117.1s47.8-89.6,48.9-117.7
	c1.2-28.1,1.2-53.4,0-52.5C536.8,282.9,412.2,272.5,412.2,272.5z"/>
<g id="рука_2_">
	<g>
		<path class="st2" d="M624.6,883.5c-39.3,3.8-79-11.5-110.6-34.3c-23.3-19.6-2.1-41.5,18-55.9c21.2-13.7,44.8-15.7,68-8.1
			c18.6,6.2,59.5,13.2,64.3,18.3c2.8,3-2.2,24.3-4.3,27.8C660.4,852.7,647.3,880.4,624.6,883.5z"/>
		<path class="st2" d="M611.2,881.5c-1.5-3.5-1.1-7.7,0.6-11.2c1.4-3,3.8-5.7,6.8-7.2c7.2-3.6,15.8-0.1,22.5,4.1
			c5.1,3.1,9.9,6.7,14.4,10.6c2.4,2.1,4.8,4.4,6.3,7.2c1.6,2.8,2.3,6.2,1.2,9.2c-1.6,4.5-6.7,7-11.5,7c-4.8,0-9.3-2-13.6-4
			C629.5,893.4,613.8,887.5,611.2,881.5z"/>
		<path class="st2" d="M569,799.8c1.1-16.5,35.8-17.5,50.5-16.6c17.3,5.2,4.7,21.1-7.2,25.8C596.8,815,567.7,819,569,799.8z"/>
		<path class="st2" d="M644.4,884c0.5-1.4,1-3.1,2.1-4.2c1.2-1.2,3.3-2,5-2.3c4.3-0.8,9.2,0.9,12.4,3.8c2.9,2.7,4.6,6.7,4.2,10.7
			c-0.4,4-2.9,7.7-6.6,9.2c-1.3,0.5-2.7,0.8-4.2,1c-2.1,0.2-4.2,0.2-6.2-0.5c-4.1-1.4-6.9-5.3-7.6-9.6
			C643.2,889.4,643.5,886.6,644.4,884z"/>
		<path class="st2" d="M655.1,903.9c-2.1-1.8-4-3.7-5.6-5.9c-1.1-1.5-2.4-3.2-2.7-5.1c-0.2-1.8,0.7-3.9,1.5-5.5
			c1.2-2.1,3-3.9,5.3-4.8c5.2-2,10.9,0.3,15.8,2.8c10.2,5.2,19.9,11.2,29,18.1c2,1.5,3.9,3.1,5.3,5.2s2,4.8,1.1,7
			c-1.4,3.6-5.7,5-9.6,5.2c-11.7,0.7-22.8-5-32.6-11.4C660,907.8,657.4,906,655.1,903.9z"/>
		<path class="st2" d="M628.5,804c-2.2-0.2-4.4-0.7-6.5-1.4c-1.4-0.5-3.1-1.1-4-2.3c-0.9-1.2-1-3.1-1-4.6c0-2.1,0.8-4.3,2.1-6.1
			c3.1-4,8.3-5.2,13-5.9c9.6-1.4,19.3-2,28.8-1.6c2.1,0.1,4.2,0.2,6,1c1.8,0.8,3.3,2.4,3.6,4.5c0.4,3.2-2.4,6.4-5.2,8.5
			c-8.5,6.4-19.1,7.9-29,8.2C633.7,804.3,631.1,804.3,628.5,804z"/>
		<path class="st3" d="M684.3,908.7c-0.7-1.8-0.8-4.2,0.6-5.7c1.6-1.8,4.4-1,6.3-0.3c4.9,1.5,9.1,5,12.3,9.2
			c0.5,0.6,0.9,1.2,1.1,1.9c0.4,1.3-0.1,2.8-1,3.8c-0.9,1-2.2,1.4-3.5,1.5c-3.3,0.3-6.4-1.6-9.2-3.6
			C688.4,913.7,685.5,911.8,684.3,908.7z"/>
		<path class="st3" d="M649.5,787.3c-2-0.5-4.3-1.4-5-2.4c-0.9-1.2,1.2-1.8,2.8-2.2c3.8-0.9,9.1-0.9,14.5-0.3
			c0.8,0.1,1.6,0.2,2.3,0.4c1.4,0.4,2.6,1.2,3,1.8c0.4,0.7,0.2,1.3-0.3,1.7c-1.3,1.2-4.7,1.4-7.8,1.5
			C656.1,788,652.8,788.2,649.5,787.3z"/>
		<path class="st2" d="M686.4,844.5c10.4-7,33.9,5.8,44.7,15.4c10.4,13.9-9.2,21.5-20.4,15.3C693.4,871.2,669.7,855.6,686.4,844.5z"
			/>
		<path class="st2" d="M659.5,861.5c0.5-1.4,1-3.1,2.1-4.2c1.2-1.2,3.3-2,5-2.3c4.3-0.8,9.2,0.9,12.4,3.8c2.9,2.7,4.6,6.7,4.2,10.7
			c-0.4,4-2.9,7.7-6.6,9.2c-1.3,0.5-2.7,0.8-4.2,1c-2.1,0.2-4.2,0.2-6.2-0.5c-4.1-1.4-6.9-5.3-7.6-9.6
			C658.2,866.9,658.6,864.1,659.5,861.5z"/>
		<path class="st2" d="M671.3,811.7c10.8-6,33.5,8.7,43.7,19.2c9.5,14.7-10.5,20.7-21.3,13.5C676.7,838.9,654,821.3,671.3,811.7z"/>
		<path class="st2" d="M721.9,840.6c-2,13.4-23.9,11.7-24.5-2C694.5,818.3,724.3,822.8,721.9,840.6z"/>
		<path class="st2" d="M637.3,796.3c-1.2,13.6-23.1,13.8-24.5,0.2C608.6,776.3,638.6,778.3,637.3,796.3z"/>
		<path class="st2" d="M643.7,796.3c10.8-6,33.5,8.7,43.7,19.2c9.5,14.7-10.5,20.7-21.3,13.5C649.1,823.5,626.5,805.9,643.7,796.3z"
			/>
		<path class="st2" d="M708.3,829.3c11.9-4,65.2,35,36,37.2c-11.7,0.9-23-7.3-32.3-14.5C703,846,692.7,835.6,708.3,829.3z"/>
		<path class="st3" d="M730.1,852.7c-0.7-2-0.6-4.6,1.1-6.1c2.1-1.8,5.3-0.6,7.5,0.2c5.7,2.1,10.4,6.3,13.9,11
			c0.5,0.7,1,1.4,1.2,2.2c0.4,1.5-0.3,3-1.5,4c-1.2,0.9-2.8,1.3-4.3,1.3c-4,0-7.5-2.4-10.7-4.8C734.5,858.5,731.2,856.1,730.1,852.7
			z"/>
		<path class="st2" d="M643,827c10.4-6.9,48.8,10.3,59.7,19.9c10.4,13.9-9.2,21.5-20.4,15.3C665,858.2,626.4,838.1,643,827z"/>
		<path class="st2" d="M738.5,869c-1.2,13.6-23.1,13.8-24.5,0.2C709.9,849.1,739.9,851.1,738.5,869z"/>
		<path class="st2" d="M662.3,860.7c9.9-7.9,34.1,2.6,45.6,11.2c11.3,12.9-7.7,22.4-19.2,17.2C671.2,886.7,646.5,873.4,662.3,860.7z
			"/>
		<path class="st2" d="M682.6,846.7c0.5-1.4,1-3.1,2.1-4.2c1.2-1.2,3.3-2,5-2.3c4.3-0.8,9.2,0.9,12.4,3.8c2.9,2.7,4.6,6.7,4.2,10.7
			c-0.4,4-2.9,7.7-6.6,9.2c-1.3,0.5-2.7,0.8-4.2,1c-2.1,0.2-4.2,0.2-6.2-0.5c-4.1-1.4-6.9-5.3-7.6-9.6
			C681.3,852.1,681.7,849.3,682.6,846.7z"/>
		<path class="st2" d="M716,880.3c-0.2,13.7-22.1,15.9-24.4,2.4C686.1,863,716.1,862.2,716,880.3z"/>
		<path class="st2" d="M724.3,859c11.6-5.1,67.1,29.3,38.2,34c-11.6,1.9-23.3-5.3-33.1-11.7C720.1,876.1,709.1,866.5,724.3,859z"/>
		<path class="st2" d="M633.2,850.4c9.9-7.9,34.1,2.6,45.6,11.2c11.3,12.9-7.7,22.4-19.2,17.2C642,876.4,617.4,863.1,633.2,850.4z"
			/>
		<path class="st2" d="M701.1,871.5c11.2-6.1,68.7,23,40.3,30.4c-11.4,3-23.6-3.1-33.8-8.6C698,889,686.5,880.5,701.1,871.5z"/>
		<path class="st3" d="M725.9,891.2c-0.9-2.2-1.2-5.2,0.2-7.2c1.7-2.4,4.8-1.7,7.1-1.2c5.6,1.4,10.5,5.2,14.4,10
			c0.6,0.7,1.1,1.4,1.4,2.3c0.5,1.6,0.1,3.5-0.9,4.8c-1,1.3-2.4,2-3.8,2.3c-3.7,0.7-7.3-1.2-10.6-3.4
			C730.8,897,727.3,894.9,725.9,891.2z"/>
		<path class="st3" d="M746.4,880.1c-0.8-2-0.9-4.8,0.7-6.4c1.9-2,5.2-1.1,7.5-0.4c5.8,1.7,10.8,5.7,14.6,10.3
			c0.5,0.7,1.1,1.4,1.3,2.2c0.5,1.5-0.1,3.2-1.2,4.3c-1.1,1.1-2.7,1.6-4.2,1.7c-3.9,0.3-7.6-1.8-10.9-4
			C751.3,885.8,747.8,883.5,746.4,880.1z"/>
		<path class="st4" d="M646.4,869.5c-3.9-2.4-8-4.3-12.2-6c-1.2-0.5-5-1-5.5-2.3c-0.8-2.1,3-1.5,3.9-1.3c6.7,2,13.1,5.3,18.5,9.8
			c1.2,1,2.5,2.8,1.5,4C652.7,873.7,647,869.9,646.4,869.5z"/>
		<path class="st4" d="M726.1,867.1c-5.7-5.6-29.2-13.4-36.3-16c-15.4-3.1-30.6-16.5-45.1-17.1c9.1,10,21.8,15.8,34.5,20.6
			C685.5,854.8,725,876.7,726.1,867.1z"/>
		<path class="st4" d="M729.4,851.1c4.9-13-59-25.9-73.7-37.9c-1.2,4.1,2.8,7.7,6.4,9.9C688.8,838,703,837,729.4,851.1z"/>
		<path class="st4" d="M625.9,858.5c-1.4-1.9-2.4-4-3.1-6.3c-0.3-1.1-1.2-3.4-0.2-4.4c1.3-1.2,4.3,1.7,5.1,2.4
			c2.4,2.2,4.1,4.9,5.2,7.9c0.6,1.8,0.9,3.6,0.9,5.4C630.5,863.6,627.7,861,625.9,858.5z"/>
		<path class="st4" d="M639.5,831c-0.5-0.9-1.1-1.7-1.5-2.7s-0.4-2.1,0.3-2.9c0.9-1,2.5-0.7,3.8-0.2c4.2,1.8,7.6,5.3,9.3,9.5
			c0.4,1.1,0.8,2.2,0.6,3.4c-0.2,1.1-1,2.2-2.2,2.4c-1.3,0.2-2.5-0.8-3.4-1.7c-3.5-3.5-6.6-7.4-9.2-11.6"/>
		<path class="st4" d="M660.8,795.8c-7.4-5.7-16.5-6.9-25.2-8c-14.2-1.8-28.4-3.5-42.6-5.3c11.6,5.9,24.6,6.3,37.2,7.6
			c8.4,0.8,16.7,2,25,3.7c3.2,0.6,6.9,1.7,8.4,5.2"/>
	</g>
	<path class="st2" d="M428.9,777c-20.5-0.6-43.2-0.5-58.2,13.4c-7.2,6.6-11.7,15.7-15.1,24.8c-4,10.5-6.9,21.7-5.9,32.8
		c1,11.2,6.4,22.4,15.9,28.2c16.6,10.2,76.4-6.7,98.7-7.9c23.9-1.2,60.8-4.6,84.1-10c14.3-3.3,23.8-11.4,33.6-22.4
		c10.6-11.9,15.1-27.8,7.8-42.6c-2.2-4.5-5.2-8.4-9.9-10.2c-5.9-2.2-12.7-1.9-18.9-2.1c-20.8-0.7-41.5-1.3-62.3-2
		c-20.7-0.7-41.4-1.3-62.1-2C434,777.1,431.5,777,428.9,777z"/>
</g>
<path class="st0" d="M193.7,515.7c-20.2,112.5-37.3,228.7-12.8,340.4c1.9,8.5,4.1,17.1,9,24.2c6.6,9.5,17.4,15.2,28.3,19.3
	c17.6,6.5,36.7,9.6,55.2,6.6c18.5-3,36.3-12.6,47.3-27.8c5.7-7.9,9.5-17,12.4-26.2c8.4-26.6,10.1-54.8,10.8-82.7
	c1.5-69.3-3.4-138.7-14.6-207c-4.1-24.6-9.2-49.8-22.7-70.8c-13.5-21-37.3-37.1-62.1-34.8c-11.1,1-21.6,5.7-30.5,12.2
	c-3.6,2.5-8.9,5.9-10.7,10c-2.3,5.1-3.9,10.8-5.3,16.1C196.2,502,194.9,508.9,193.7,515.7z"/>
<path class="st0" d="M342.1,735.4c18,0,36.2,1.4,53.4,6.9c6,1.9,11.9,4.3,18.1,5.5c6.5,1.2,13.2,1.1,19.9,1
	c18.6-0.3,37.3,0.1,55.9,1.2c6,0.3,13.3,1.6,15.4,7.3c-33.1,22-47.2,68.7-31.8,105.4c0.5,1.2,1,2.5,0.9,3.8
	c-0.3,2.9-3.5,4.4-6.3,5.4c-58.4,19.2-119.2,30-180.2,37.9c-16.9,2.2-35.3,3.8-49.6-5.4c-14.3-9.3-20.5-27.1-22.9-44
	c-2.4-16.6-2-33.7,1-50.2c1.3-7.2,3.2-14.3,5.1-21.3c1.1-4.2,2.2-8.5,4.3-12.3c4.9-9.2,15.5-15.4,24.2-20.3
	c13-7.3,27.2-12.3,41.8-15.5c14.8-3.3,30-4.8,45.2-5.1C338.3,735.4,340.2,735.4,342.1,735.4z"/>
<path class="st1" d="M668.2,468.5c1.9-13.1,5.6-28.6,18-33.2c-1.3,20.2-2.7,40.5-4,60.7c-0.1,2-0.1,4.4,1.5,5.6
	c1.2,0.9,2.8,0.7,4.3,0.6c7.9-0.9,15.8-1.8,23.6-2.7c2.6-0.3,5.4-0.6,7.7,0.7c6.6,3.6,2.5,13.6-2,19.5
	c-24.2,31.8-43.5,67.3-57.3,104.8c17.5,4.2,35,8.4,52.5,12.5c7,1.7,15.7,5.3,15.6,12.5c-5.3,1.9-9.3,6.9-10,12.5
	c15.8,2.4,31.1,8.1,44.6,16.7c-25,17.6-58.7,13.1-88.8,7.9c-4.1-0.7-8.4-1.5-11.5-4.2c-2.8-2.5-4.2-6.2-5.5-9.8
	c-8.3-23.9-14.8-50.3-8.8-75.5c1.4-5.9,3-11.2,3.9-17.2c1-7.1,2-14.2,3.1-21.3c2-14.1,4.1-28.3,6.1-42.4
	C663.7,500.3,666,484.4,668.2,468.5z"/>
<path class="st5" d="M403.4,336.6c1.3,6.7,4.4,12.9,7.6,18.9c18.5,35,40.4,69.3,71.9,93.3c-3-3.8-6.1-7.5-9.1-11.3
	c-8-10-16-20-23.2-30.5c-8.6-12.6-16.1-25.9-22.9-39.5c-6.8-13.6-12.9-27.5-18.9-41.4c-0.6-1.5-1.3-3.4-2.8-4.2
	c-1.8-0.9-2.1,1-2.5,2.4C402.5,328.3,402.6,332.6,403.4,336.6z"/>
<path class="st5" d="M531.2,415.3c-9.6,23.2-20.1,46.4-36.1,65.7c-1.6,2-3.1,5.3-0.9,6.5c1.5,0.8,3.2-0.3,4.5-1.4
	c14.2-12.4,24.2-28.9,32.5-45.9c14.2-28.8,24.4-59.6,30.1-91.2c0.5-2.6,1.8-14.9-4-13c-2.6,0.9-2.4,4.7-2.8,7
	c-0.6,3.5-1.4,6.9-2.2,10.3c-3.2,13.7-7.6,27-12.5,40.2C537.1,400.8,534.2,408.1,531.2,415.3z"/>
<path class="st5" d="M464.4,476.2c5.9,6.3,12.9,12.6,21.5,13.3c-15-14.8-28.6-31.2-40.4-48.7c-4.8-7.1-9.2-14.3-13.7-21.6
	c-4.4-7.1-8.7-14.2-13.1-21.2c-4.6-7.4-9.1-14.8-12.5-22.8c-2.6-6.2-4.5-12.7-6.5-19.2c-1-3.2-2.1-6.5-3.4-9.6
	c-0.6-1.6-1.3-3.1-2-4.7c-0.4-0.8-1.4-2.6-2.1-0.9c-0.4,0.9,0.6,3.2,0.8,4.2c0.4,1.5,0.8,3,1.1,4.5c0.8,3.1,1.6,6.1,2.5,9.1
	c1.8,6.1,3.8,12.1,6,18c4.4,11.8,9.5,23.3,15.3,34.5c5.8,11.1,12.4,21.9,19.6,32.2c7.2,10.3,15.1,20.2,23.7,29.5
	C462.3,474,463.4,475.1,464.4,476.2z"/>
<path class="st5" d="M496.4,483c0.2,0.5,0.6,1.1,1.1,0.8c0.8-2.7,0-5.5-0.7-8.1c-0.9-3.1-1.7-6.2-2.6-9.4c-0.4-1.5-0.9-3.1-1.3-4.6
	c-0.2-0.8-0.4-1.6-0.6-2.3c-0.1-0.3-0.2-1.6-0.6-1.8c-0.6-0.2-0.9,1.6-0.9,1.9c0,1.5,0.4,3,0.7,4.5c0.5,3,1.1,6,1.9,9
	C494.2,476.4,495.2,479.7,496.4,483z"/>
<path class="st5" d="M503.8,467.7c0.4,0.6,1,1.2,1.8,1.2c0.6-1.5-0.2-3-0.9-4.4c-2.1-3.9-4.2-7.8-6.2-11.8c-0.3-0.5-1.9-2.6-2.5-1.3
	c-0.4,0.8,0.7,2.8,1,3.5c1.1,2.9,2.4,5.7,4,8.4C501.8,464.8,502.7,466.3,503.8,467.7z"/>
<path class="st5" d="M512.8,463.2c0.6-2-0.5-4-1.6-5.8c-2.1-3.5-4.1-6.9-6.2-10.4c-0.8-1.2-2.3-3.6-4.1-2.8
	c-1.3,0.5,0.1,2.4,0.6,3.1c2.2,3.5,4.5,7,7,10.3c0.7,1,1.4,1.9,2.1,2.8C510.8,460.8,512.8,462.9,512.8,463.2z"/>
<path class="st5" d="M519.6,453.3c0.7-1,0-2.5-0.6-3.5c-3.3-5.2-6.7-10.4-11.2-14.6c-0.5-0.5-1.4-1.2-2.1-0.9
	c-0.7,0.3-0.4,0.9-0.1,1.4c0.9,1.5,1.9,3,2.9,4.4c2.1,3,4.4,6,6.8,8.7C516.7,450.3,518.1,451.8,519.6,453.3z"/>
<path class="st5" d="M525.3,441c0.2-0.6,0-1.2-0.2-1.8c-2.3-5.8-9.1-8.2-13-13c-0.8-0.9-1.4-1.9-2.3-2.7c0.1,0.1-0.2,2.1-0.2,2.5
	c0,0.5-0.1,1,0.1,1.4c0.5,1.3,2,2.5,3,3.4c2.5,2.5,5.1,4.8,7.9,6.8C522,438.9,523.7,440,525.3,441z"/>
<path class="st5" d="M528.4,428.8c0.8,0.5,1.7,1,2.6,1c0.3-0.6-0.2-1.3-0.7-1.8c-2.8-3.3-5.7-6.6-9.2-9c-1.6-1.1-3.3-2-4.8-3.2
	c-0.4-0.4-0.8-0.7-1.1-0.1c-0.2,0.5-0.1,1.2,0.1,1.7c0.7,1.5,2.5,2.9,3.6,4c1.3,1.3,2.8,2.6,4.2,3.8
	C524.9,426.4,526.6,427.6,528.4,428.8z"/>
<path class="st5" d="M537,420.4c0.4-1.1-0.3-2.4-1.1-3.3c-4-5-9.2-8.9-14.3-12.7c-0.8-0.6-1.8-1.1-2.6-0.5c-1.3,1.1,4.9,6.1,5.6,6.7
	c2.5,2.2,5.1,4.4,7.8,6.4C533.9,418.2,535.4,419.3,537,420.4z"/>
<path class="st5" d="M535,405.3c2.3,1.9,4.7,3.9,7.6,4.5c0.6-1.3-0.3-2.7-1.2-3.8c-2.2-2.7-4.9-5-7.8-6.9c-1.8-1.2-3.8-2.1-5.4-3.6
	c-1-0.9-2-2.2-3.4-2.3c-1.2,0-1.6,0.9-1.2,1.9c0.6,1.3,2,2.2,3,3.1c1.3,1.2,2.6,2.3,3.9,3.4C532,402.8,533.5,404,535,405.3z"/>
<path class="st5" d="M543.6,396.5c0.4,0.2,0.9,0.5,1.3,0.2c0.6-0.3,0.4-1.2,0.1-1.7c-1.6-2.9-4.3-5-7.2-6.7
	c-2.1-1.3-4.2-2.4-6.2-3.8c-0.6-0.4-4.5-4-4.6-1.7c-0.1,1.7,2.7,3.5,3.7,4.5c1.9,1.6,3.8,3.2,5.9,4.7
	C538.8,393.6,541.2,395.1,543.6,396.5z"/>
<path class="st5" d="M548.2,385.1c0.3,0.2,0.8,0.4,1.1,0.1c0.4-0.3,0.2-0.9-0.1-1.2c-2.1-3.2-5.2-5.6-8.3-7.9
	c-1.7-1.2-3.3-2.5-4.9-3.7c-1.2-0.9-3.3-2.3-4.8-1.1c-1.4,1,1.1,2.5,1.8,3.1c3.1,2.5,6.3,5,9.6,7.2
	C544.4,382.8,546.3,384,548.2,385.1z"/>
<path class="st5" d="M551.7,372.7c0.3,0.1,0.6,0.3,0.9,0.1c0.3-0.1,0.5-0.5,0.5-0.9c0.1-1.8-1.3-3.2-2.7-4.2
	c-3.4-2.7-7.1-5-10.8-7.4c-1-0.7-2.1-1.3-3.1-2c-0.7-0.5-1.6-1-2.5-0.5c-0.5,0.3-0.6,0.8-0.4,1.3c0.5,1.5,2.1,2.7,3.2,3.6
	c2.8,2.5,5.9,4.8,9.2,6.7C547.9,370.8,549.8,371.8,551.7,372.7z"/>
<path class="st5" d="M551.5,355.8c1.4,0.6,2.8,1.1,4.3,0.9c0.5-1.1-0.4-2.3-1.2-3.1c-4.7-4.7-10.8-7.9-17.3-9c0.1,0-0.1,1.7,0,1.9
	c0.2,0.4,0.5,0.5,0.8,0.7c1,0.6,2,1.6,2.9,2.4c2.1,1.6,4.3,3,6.5,4.3C548.8,354.5,550.1,355.2,551.5,355.8z"/>
<path class="st5" d="M554.1,344c1,0.6,2.6,1,3.1,0c0.3-0.6-0.1-1.4-0.5-2c-1.2-1.5-2.8-2.6-4.3-3.6c-2.9-1.9-5.8-3.9-8.6-5.8
	c-1.2-0.8-3.2-2.4-4.8-1.8c-1.2,0.4,0,1.9,0.4,2.4c2.3,2.9,5.8,5,8.8,7C550.1,341.5,552,342.8,554.1,344z"/>
<path class="st5" d="M550,329.2c1.6,1.1,3.4,2.2,5.3,1.9c-0.5-2-2.2-3.4-3.7-4.7c-1.6-1.4-3.2-2.7-4.9-4c-1.5-1.3-3.2-2.6-5.1-3
	c-0.6-0.1-3.1-0.7-3.3,0.4c-0.1,0.9,1.3,2,1.9,2.4c1.1,1,2.4,1.9,3.6,2.8C545.8,326.3,547.9,327.7,550,329.2z"/>
<path class="st5" d="M393.6,344.1c0.9,0.3,1.9-0.4,2.6-1.1c1.4-1.5,2.8-3,4.1-4.6c0.6-0.8,1.2-1.6,1.8-2.5c0.3-0.5,1.4-1.6,1.2-2.2
	c-0.1-0.5-0.8-0.7-1.3-0.6c-0.8,0.1-1.3,0.8-1.8,1.4c-1.3,1.4-2.6,2.8-3.7,4.3C396.3,339.1,393.3,344,393.6,344.1z"/>
<path class="st5" d="M408.7,344.4c-4.7,2.6-7.8,7.4-10.7,11.9c-0.3,0.5-0.7,1.3-0.3,1.8c0.2,0.3,0.6,0.4,0.9,0.4
	c1.2,0,2.1-1,2.9-1.8c2.1-2.2,4.1-4.4,6.2-6.6c1.5-1.7,3.1-3.4,3.9-5.5c0.1-0.3,0.2-0.6,0.1-0.9c-0.2-0.6-1.1-0.6-1.8-0.4
	c-2.1,0.6-4,1.7-5.4,3.3"/>
<path class="st5" d="M413.9,356.5c-5.1,2.8-9.3,7.4-11.6,12.7c-0.1,0.3-0.3,0.6-0.2,0.9c0.1,0.6,0.7,0.9,1.3,0.9s1.1-0.3,1.5-0.6
	c4.9-3.2,8.4-8,11.9-12.6c0.4-0.6,0.9-1.2,0.9-2c-2.9,0-5.6,1.7-8,3.3"/>
<path class="st5" d="M409,381.4c-0.5,0.6-0.9,1.6-0.3,2.2c0.6,0.6,1.7,0,2.3-0.6c2.7-2.6,5.3-5.1,8-7.7c1.3-1.3,2.7-2.6,4-3.8
	c0.9-0.9,2.1-1.8,2-3.2c-0.2-3-7.9,3.8-8.7,4.5C413.6,375.4,411.2,378.3,409,381.4z"/>
<path class="st5" d="M414.1,396.5c1.5,0.5,3-0.6,4.1-1.6c3.1-2.8,6-5.6,8.9-8.6c1.4-1.4,2.9-2.8,4.2-4.3c0.2-0.3,1-1,0.6-1.4
	c-0.7-0.8-4,1-4.6,1.3c-2.3,1.1-4.5,2.5-6.3,4.3C418.2,388.8,414.5,392.4,414.1,396.5z"/>
<path class="st5" d="M420.3,408.4c1.7,0.6,3.4-0.6,4.7-1.8c3.1-2.7,6-5.5,9-8.3c0.7-0.7,5.9-4.9,4.6-6.2c-0.9-0.9-4,1.2-4.7,1.7
	c-2.4,1.4-4.6,3-6.5,5c-1.4,1.4-2.8,2.9-3.9,4.6C423,403.7,420.2,408.4,420.3,408.4z"/>
<path class="st5" d="M434.3,417.8c3.4-2.7,6.8-5.7,9.6-9.1c0.4-0.5,3.6-4.6,1.1-4.3c-2.2,0.2-4.5,2.1-6.1,3.3
	c-2.6,1.9-4.9,4-7.1,6.5c-0.8,0.9-1.5,1.8-2.2,2.6c-0.5,0.7-1.5,1.6-1.5,2.6c0,1.8,4.4-0.3,5.2-0.8
	C433.5,418.4,433.9,418.1,434.3,417.8z"/>
<path class="st5" d="M434.6,431.2c-0.2,0.3-0.4,0.8-0.2,1c0.1,0.2,0.4,0.2,0.6,0.2c1.5,0.1,2.9-0.8,4.1-1.7
	c5.4-4.1,10-9.2,14.5-14.3c0.4-0.5,0.9-1,0.9-1.7c0-1-1.1-1.6-2.1-1.6c-1.4,0.1-2.7,1.2-3.7,2.1c-1.3,1.1-2.6,2.2-3.8,3.4
	c-2.5,2.4-4.8,5-6.9,7.7C436.8,428,435.6,429.6,434.6,431.2z"/>
<path class="st5" d="M441.6,444.2c3.3,0.5,6.2-1.9,8.4-4.4c2.4-2.5,4.6-5.3,6.6-8.1c1-1.5,2-3,2.9-4.5c0.5-0.9,2.3-3.4,0.1-3.1
	c-2.5,0.3-3.5,1.7-5.2,3.3c-2.4,2.3-4.7,4.5-6.8,7.2C445.3,437.6,443.3,440.8,441.6,444.2z"/>
<path class="st5" d="M453.8,449.3c-1.3,1.8-2.5,3.8-2.7,6c0,0.3,0,0.5,0.1,0.8c0.3,0.7,1.2,0.8,2,0.6c2.4-0.5,4-2.6,5.4-4.5
	c3.8-5.3,7.2-10.8,10.1-16.6c1.2-2.4-1.4-1.3-2.6-0.6c-2.3,1.4-4,3.8-5.8,5.8C458,443.5,455.8,446.3,453.8,449.3z"/>
<path class="st5" d="M468.7,451c-2.6,3.4-5.2,6.9-6.6,10.9c-0.3,0.7-0.5,1.6,0,2.2c0.5,0.6,1.4,0.6,2,0.3c0.7-0.3,1.1-1,1.6-1.6
	c3.9-5.3,7.6-10.7,11.2-16.1c0.6-1,1.5-2.3,1.1-3.5c-0.3-0.9-1.6-1.5-2.5-1.2c-0.8,0.2-1.3,1.1-1.7,1.8c-0.6,1.1-1.3,2.1-2,3
	C470.8,448.3,469.8,449.6,468.7,451z"/>
<path class="st1" d="M262.5,451c11,38.4,25.9,75.6,44.3,111.1c-8.9-0.7-16.1-14.3-23.5-9.3c-2.6,1.7-3.5,5.1-3.6,8.2
	c-0.8,13.7,8.2,25.6,14.6,37.7c16.3,30.5,17.6,68.6,3.3,100c-1,2.3-2.2,4.6-4.1,6.3c-1.9,1.6-4.2,2.4-6.6,3.2
	c-17.9,6.1-35.9,12.2-53.8,18.4c30.9,12.5,68.1-6,98.6,7.5c1.9,0.8,3.8,1.8,5.8,1.4c3.8-0.7,5.2-5.2,5.7-9
	c5.8-46-18.7-91.1-16.7-137.4c0.5-11.6,2.5-23.5,0-35c-1.9-8.7-5.3-17.3-8.1-25.7c-6.6-19.7-17.1-38.1-30.6-53.8
	c-3.8-4.4-7.7-8.5-11.9-12.4c-2.2-2-4.4-4-6.6-5.9C267.8,455.2,262.9,452.5,262.5,451z"/>
<path class="st5" d="M472.6,470.1c-1,1.9-2.1,4-1.4,6c1.5,0.6,2.9-0.8,3.8-2c1.7-2.4,3-5,4.4-7.6c1.8-3.4,3.5-6.8,5.3-10.1
	c0.8-1.6,1.9-3.3,2.1-5.1c-2.9-1.2-4.1,1.2-5.4,3.3c-1.9,3.3-3.8,6.6-5.6,9.9C474.8,466.4,473.7,468.3,472.6,470.1z"/>
<path class="st3" d="M563.8,810.7c-27.8-3.3-55.5-6.5-83.2-9.8c-3.9-0.5-8-0.9-11.6,0.6s-6.4,5.7-4.9,9.4
	c29.1,7.9,59.2,11.3,89.1,14.8c5.3,0.6,11.4,1.3,16-2c3.5-2.5,7.2-7.5,2.4-10.6C569.3,811.7,566.4,811,563.8,810.7z"/>
<path class="st5" d="M485.6,458.9c-3.1,7.9-6.3,16-6.8,24.5c0,0.7,0.1,1.7,0.8,1.8c0.8,0.1,1.2-0.8,1.5-1.5
	c1.5-5.1,2.9-10.2,4.3-15.3c0.7-2.6,1.5-5.1,2.2-7.7c0.4-1.3,0.7-2.5,1.1-3.8c0.2-0.6,1-2.6,0.4-3.1
	C487.7,452.7,485.9,458.2,485.6,458.9z"/>
<path class="st5" d="M305.9,473.6c1.8,43.7,11.4,86.7,20.9,129.3c-3.4-14-8.9-27.6-16.4-39.9c-2.4,9.6,2.8,19.2,6.9,28.1
	c8.2,17.8,12.7,37.3,13.3,56.9c0.9,29.4,1.8,58.8,2.7,88.1c7.4,0.4,14.7,0.3,22.1-0.4c-1.6-19.9-3.5-39.8-5.7-59.6
	c-2.2-19.8-4.5-39.6-7.5-59.3c-0.9-6-2.7-11.7-4.5-17.4c-2.4-7.6-3.8-15.5-5.1-23.4c-2.8-16.8-4.6-33.7-7.8-50.4
	c-3.1-16.3-7.6-32.5-15.8-47C308.4,477.6,305.9,474.8,305.9,473.6z"/>
<path class="st5" d="M397.3,863c-3-24.4-5.9-50,3.3-72.8c4.6-11.5,12.1-21.7,16.1-33.5c0.5-1.4,2.2-6.3-0.2-6.7
	c-2-0.3-4.2,3-5.2,4.2c-3.4,4.1-6.4,8.4-9,13c-5.4,9.2-9.2,19.3-11.6,29.7c-2.3,10.4-3.1,21.1-2.3,31.7c0.8,10.6,3.3,21.1,7.5,31
	C396.2,860.6,397.2,862,397.3,863z"/>
<path class="st5" d="M484.4,762.9c-25.3,29-31.5,73.2-15.3,108c4-1.3,4.9-1.2,4.9-4.7c-0.1-6.9-5.2-19.5-5.4-26.4
	c-0.9-28.1,12.6-55.3,32-75.8c2-2.1,7.5-8.5,2.8-10.8c-3.4-1.7-9.2,1.4-11.9,3.2C488.8,758.3,486.5,760.5,484.4,762.9z"/>
<path class="st5" d="M282.4,723.1c-30.3-1.8-63.4-0.6-87.2,18.2c23.9,0.9,47.5-5.2,71.1-9.5s48.5-6.5,71,1.6
	c-47.9-2.5-96.4,9.3-137.9,33.4c-4.8,2.8-9.6,5.8-13.4,9.8c-1.3,1.4-2.6,3-2.5,4.9c0.2,2.4,2.7,4,5.1,4.1c2.4,0.1,4.7-1,6.8-2.1
	c14-7,27.9-13.9,41.9-20.9c-14,9.9-29.1,21.1-33.3,37.8c11.9-4.1,21.1-13.3,30.8-21.3c28.7-23.5,64.9-37.7,101.9-39.8
	c3.3-0.2,11.7-0.4,11.8-5.3c0.1-4.9-8.3-4.8-11.4-5.2c-11.5-1.7-23.1-3.1-34.8-4.2C295.6,724,289,723.5,282.4,723.1z"/>
<path class="st5" d="M415.3,756.1c-1.6,0-3.8,0.6-3.6,2.1c0.1,1.3,1.8,1.7,3,1.8c22.7,1.9,45.5,3.4,68.3,4.5
	c3.6,0.2,12.6,0.2,13.5-4.9c0.6-3.5-7.9-2.5-9.8-2.5c-15.1,0.1-30.2-0.4-45.3-0.6C432.7,756.3,424,756.2,415.3,756.1z"/>
<path class="st5" d="M403.1,775.4c-2.2,0.2-5.2,1.2-4.9,3.4c11.4,2.6,23.2,2.5,34.9,2.5c10.4,0,20.9-0.1,31.3-0.1
	c5.1,0,10.3,0.1,15.4-0.2c1.1-0.1,6.6,0.1,5.5-2.1c-0.8-1.7-4.9-2.6-6.5-3.1c-3.4-1-6.7-1.4-10.2-1.6c-10.3-0.3-20.7-0.4-31-0.3
	C426.1,774,414.6,774.5,403.1,775.4z"/>
<path class="st5" d="M410,795.5c-5.8,0.3-11.7,0.7-17,2.9c-1.2,0.5-2.6,1.8-1.9,2.9c4.6,1.4,9.6,1.4,14.4,1.4
	c21.1,0,42.2,0,63.3-0.1c2.3,0,4.9-0.2,6.5-1.9c1-1.1,1-3,0.2-4.1c-1.1-1.5-3.2-1-4.8-1.1c-4.9-0.2-9.7-0.4-14.6-0.5
	c-9.9-0.2-19.7-0.3-29.6,0C421,795.1,415.5,795.3,410,795.5z"/>
<path class="st5" d="M390.5,825c-0.8,2.2,2.5,3.4,4.8,3.4c22.2,0.1,44.3,0.1,66.5,0.2c2.1,0,4.4,0,6-1.4c1.3-1.1,1.9-4.1,0-4.9
	c-0.7-0.3-1.7-0.1-2.5-0.1c-1.4-0.1-2.7-0.3-4-0.5c-5.8-0.8-11.6-1.6-17.4-2.1c-11.5-1.1-23.2-1.4-34.7,0.3
	C402.8,820.8,396.4,822.5,390.5,825z"/>
<path class="st5" d="M398.5,855c-1.3,0.3-2.9,1.5-2.3,2.7c0.3,0.6,1,0.7,1.6,0.8c3.6,0.5,7.3,0.3,11,0c13.6-1.1,27.2-2.5,40.8-4.3
	c3.2-0.4,6.3-0.8,9.4-1.6c2.5-0.6,6.8-1.2,8.4-3.5c2.6-3.8-5.2-4.1-7-4.1c-6.2-0.1-12.6,1-18.8,1.7c-6.9,0.9-13.7,1.9-20.5,3.2
	C413.5,851.4,405.9,853.1,398.5,855z"/>
<g id="рука_1_">
	<g>
		<path class="st2" d="M305.1,765.8c-2.1-3.5-7.1-24.8-4.3-27.8c4.8-5.1,45.7-12.1,64.3-18.3c23.2-7.6,46.8-5.6,68,8.1
			c20.1,14.4,41.2,36.3,18,55.9c-31.7,22.8-71.3,38-110.6,34.3C317.8,814.8,304.7,787,305.1,765.8z"/>
		<path class="st2" d="M327.2,831.7c-4.3,2-8.9,4-13.6,4c-4.8,0-9.9-2.5-11.5-7c-1.1-3-0.4-6.4,1.2-9.2c1.6-2.8,3.9-5.1,6.3-7.2
			c4.5-3.9,9.3-7.5,14.4-10.6c6.8-4.2,15.4-7.7,22.5-4.1c3,1.5,5.3,4.1,6.8,7.2c1.7,3.5,2.1,7.7,0.6,11.2
			C351.3,821.8,335.5,827.7,327.2,831.7z"/>
		<path class="st2" d="M352.8,743.3c-11.9-4.7-24.5-20.6-7.2-25.8c14.7-0.9,49.4,0.2,50.5,16.6C397.4,753.4,368.3,749.4,352.8,743.3
			z"/>
		<path class="st2" d="M321.5,826.5c-0.7,4.2-3.5,8.2-7.6,9.6c-2,0.7-4.1,0.7-6.1,0.5c-1.4-0.2-2.8-0.4-4.1-1
			c-3.7-1.5-6.2-5.3-6.6-9.2c-0.4-3.9,1.3-8,4.2-10.7c3.2-2.9,8.1-4.6,12.4-3.8c1.7,0.3,3.7,1.1,5,2.3c1.1,1.1,1.6,2.8,2.1,4.2
			C321.5,821,321.9,823.8,321.5,826.5z"/>
		<path class="st2" d="M302.5,843.9c-9.8,6.4-20.9,12.1-32.6,11.4c-3.8-0.2-8.2-1.6-9.6-5.2c-0.9-2.3-0.2-5,1.1-7
			c1.4-2.1,3.3-3.6,5.3-5.2c9.1-6.9,18.8-13,29-18.1c4.9-2.5,10.7-4.8,15.9-2.8c2.3,0.9,4.1,2.7,5.3,4.8c0.9,1.6,1.8,3.6,1.5,5.5
			c-0.3,1.9-1.6,3.6-2.7,5.1c-1.6,2.2-3.5,4.1-5.6,5.9C307.6,840.4,305.1,842.2,302.5,843.9z"/>
		<path class="st2" d="M328.7,738.6c-9.9-0.3-20.4-1.8-29-8.2c-2.8-2.1-5.5-5.2-5.2-8.5c0.2-2.1,1.8-3.7,3.6-4.5
			c1.8-0.8,3.9-0.9,6-1c9.5-0.4,19.1,0.2,28.8,1.6c4.7,0.7,9.9,1.9,13,5.9c1.4,1.8,2.1,4,2.1,6.1c0,1.5-0.1,3.5-1,4.6
			c-0.9,1.2-2.6,1.8-4,2.3c-2.1,0.8-4.3,1.2-6.5,1.4C334,738.6,331.4,738.6,328.7,738.6z"/>
		<path class="st3" d="M274.2,849.8c-2.8,2-5.9,3.9-9.2,3.6c-1.3-0.1-2.6-0.6-3.5-1.5c-0.9-1-1.4-2.5-1-3.8c0.2-0.7,0.7-1.4,1.1-1.9
			c3.2-4.1,7.4-7.6,12.3-9.2c2-0.6,4.7-1.5,6.3,0.3c1.4,1.5,1.2,3.9,0.6,5.7C279.6,846.1,276.6,848.1,274.2,849.8z"/>
		<path class="st3" d="M306.1,722.3c-3.2-0.1-6.5-0.3-7.8-1.5c-0.5-0.5-0.7-1-0.3-1.7c0.4-0.7,1.6-1.4,3-1.8
			c0.8-0.2,1.6-0.3,2.4-0.4c5.4-0.6,10.7-0.7,14.5,0.3c1.5,0.4,3.6,0.9,2.8,2.2c-0.7,1-3,2-5,2.4C312.2,722.5,309,722.4,306.1,722.3
			z"/>
		<path class="st2" d="M254.3,809.6c-11.2,6.2-30.7-1.5-20.4-15.3c10.9-9.7,34.4-22.4,44.7-15.4C295.3,790,271.7,805.6,254.3,809.6z
			"/>
		<path class="st2" d="M306.5,804c-0.7,4.2-3.5,8.2-7.6,9.6c-2,0.7-4.1,0.7-6.1,0.5c-1.4-0.2-2.8-0.4-4.1-1
			c-3.7-1.5-6.2-5.3-6.6-9.2c-0.4-3.9,1.3-8,4.2-10.7c3.2-2.9,8.1-4.6,12.4-3.8c1.7,0.3,3.7,1.1,5,2.3c1.1,1.1,1.6,2.8,2.1,4.2
			C306.5,798.5,306.9,801.3,306.5,804z"/>
		<path class="st2" d="M271.3,778.8c-10.8,7.2-30.8,1.2-21.3-13.5c10.2-10.5,32.9-25.2,43.7-19.2C311,755.7,288.4,773.2,271.3,778.8
			z"/>
		<path class="st2" d="M267.6,773c-0.6,13.7-22.5,15.4-24.5,2C240.7,757.2,270.5,752.6,267.6,773z"/>
		<path class="st2" d="M352.3,730.8c-1.4,13.6-23.4,13.4-24.5-0.2C326.5,712.7,356.5,710.7,352.3,730.8z"/>
		<path class="st2" d="M298.9,763.4c-10.8,7.2-30.8,1.2-21.3-13.5c10.2-10.5,32.9-25.2,43.7-19.2
			C338.6,740.3,315.9,757.9,298.9,763.4z"/>
		<path class="st2" d="M253.1,786.4c-9.4,7.2-20.7,15.4-32.3,14.5c-29.1-2.2,24.1-41.2,36-37.2C272.4,769.9,262,780.4,253.1,786.4z"
			/>
		<path class="st3" d="M227.8,795c-3.2,2.4-6.7,4.7-10.7,4.8c-1.5,0-3.1-0.4-4.3-1.3c-1.2-0.9-1.9-2.5-1.5-4
			c0.2-0.8,0.7-1.5,1.2-2.2c3.5-4.7,8.2-8.9,13.9-11c2.3-0.8,5.5-2,7.5-0.2c1.7,1.5,1.8,4.1,1.1,6.1
			C233.9,790.5,230.6,792.9,227.8,795z"/>
		<path class="st2" d="M282.8,796.6c-11.2,6.2-30.7-1.5-20.4-15.3c10.9-9.7,49.3-26.9,59.6-19.9
			C338.7,772.5,300.1,792.6,282.8,796.6z"/>
		<path class="st2" d="M251,803.5c-1.4,13.6-23.4,13.4-24.5-0.2C225.2,785.4,255.2,783.4,251,803.5z"/>
		<path class="st2" d="M276.4,823.4c-11.5,5.2-30.5-4.3-19.2-17.2c11.5-8.6,35.7-19.1,45.6-11.2C318.5,807.7,293.9,821,276.4,823.4z
			"/>
		<path class="st2" d="M283.3,789.2c-0.7,4.2-3.5,8.2-7.6,9.6c-2,0.7-4.1,0.7-6.1,0.5c-1.4-0.2-2.8-0.4-4.1-1
			c-3.7-1.5-6.2-5.3-6.6-9.2c-0.4-3.9,1.3-8,4.2-10.7c3.2-2.9,8.1-4.6,12.4-3.8c1.7,0.3,3.7,1.1,5,2.3c1.1,1.1,1.6,2.8,2.1,4.2
			C283.4,783.7,283.8,786.5,283.3,789.2z"/>
		<path class="st2" d="M273.5,817.1c-2.3,13.4-24.2,11.2-24.4-2.4C249,796.6,279,797.4,273.5,817.1z"/>
		<path class="st2" d="M235.8,815.6c-9.8,6.4-21.5,13.6-33.1,11.7c-28.9-4.7,26.6-39.1,38.2-34C256,800.9,245,810.4,235.8,815.6z"/>
		<path class="st2" d="M305.6,813.1c-11.5,5.2-30.5-4.3-19.2-17.2c11.5-8.6,35.7-19.1,45.6-11.2
			C347.7,797.4,323.1,810.8,305.6,813.1z"/>
		<path class="st2" d="M257.5,827.7c-10.2,5.5-22.4,11.5-33.8,8.6c-28.4-7.4,29.1-36.5,40.3-30.4
			C278.6,814.9,267.1,823.4,257.5,827.7z"/>
		<path class="st3" d="M231.4,833.2c-3.3,2.1-6.9,4.1-10.6,3.4c-1.4-0.3-2.9-1-3.8-2.3c-1-1.3-1.4-3.2-0.9-4.8
			c0.3-0.9,0.8-1.6,1.4-2.3c3.9-4.8,8.9-8.6,14.4-10c2.2-0.5,5.4-1.2,7.1,1.2c1.4,2,1.1,5,0.2,7.2
			C237.7,829.2,234.3,831.4,231.4,833.2z"/>
		<path class="st3" d="M210.9,822.1c-3.3,2.2-7,4.3-10.9,4c-1.5-0.1-3.1-0.7-4.2-1.7c-1.1-1.1-1.7-2.8-1.2-4.3
			c0.2-0.8,0.8-1.5,1.3-2.2c3.8-4.7,8.8-8.6,14.6-10.3c2.3-0.7,5.6-1.6,7.5,0.4c1.6,1.7,1.5,4.4,0.7,6.4
			C217.3,817.9,213.8,820.1,210.9,822.1z"/>
		<path class="st4" d="M312.4,808.1c-1-1.2,0.3-3,1.5-4c5.4-4.4,11.8-7.8,18.5-9.8c1-0.3,4.8-0.9,3.9,1.3c-0.5,1.2-4.3,1.8-5.5,2.3
			c-4.2,1.6-8.3,3.6-12.2,6C318.1,804.2,312.4,808,312.4,808.1z"/>
		<path class="st4" d="M285.9,788.8c12.6-4.8,25.4-10.6,34.5-20.6c-14.5,0.7-29.7,14-45.1,17.1c-7,2.7-30.5,10.5-36.3,16
			C240.1,811.1,279.6,789.2,285.9,788.8z"/>
		<path class="st4" d="M303,757.5c3.6-2.2,7.5-5.8,6.4-9.9c-14.6,12-78.6,24.9-73.7,37.9C262.1,771.3,276.3,772.4,303,757.5z"/>
		<path class="st4" d="M331.3,798c0-1.8,0.4-3.7,0.9-5.4c1-3,2.8-5.8,5.1-7.9c0.8-0.7,3.8-3.6,5.1-2.4c1,0.9,0.2,3.3-0.2,4.4
			c-0.7,2.2-1.8,4.4-3.1,6.3C337.4,795.3,334.6,798,331.3,798z"/>
		<path class="st4" d="M328,761.7c-2.6,4.2-5.7,8.1-9.2,11.6c-0.9,0.9-2.1,1.9-3.4,1.7c-1.1-0.2-2-1.3-2.2-2.4
			c-0.2-1.1,0.1-2.3,0.6-3.4c1.7-4.2,5.1-7.7,9.3-9.5c1.2-0.5,2.9-0.8,3.8,0.2c0.7,0.7,0.6,1.9,0.3,2.9s-1,1.7-1.5,2.7"/>
		<path class="st4" d="M301.5,733.2c1.5-3.5,5.2-4.5,8.4-5.2c8.3-1.6,16.6-2.8,25-3.7c12.6-1.2,25.5-1.6,37.1-7.6
			c-14.2,1.8-28.4,3.5-42.6,5.3c-8.7,1.1-17.8,2.3-25.2,8"/>
	</g>
	<path class="st2" d="M536.2,711.3c20.5-0.6,43.2-0.5,58.2,13.4c7.2,6.6,11.7,15.7,15.1,24.8c4,10.5,6.9,21.7,5.9,32.8
		c-1,11.2-6.4,22.4-15.9,28.2c-16.6,10.2-76.4-6.7-98.7-7.9c-23.9-1.2-60.8-4.6-84.1-10c-14.3-3.3-23.8-11.4-33.6-22.4
		c-10.6-11.9-15.1-27.8-7.8-42.6c2.2-4.5,5.1-8.4,9.9-10.2c5.9-2.2,12.7-1.9,18.9-2.1c20.8-0.7,41.5-1.3,62.3-2
		c20.7-0.7,41.4-1.3,62.1-2C531,711.5,533.6,711.4,536.2,711.3z"/>
</g>
<path class="st5" d="M412.3,873.1c-2.9,0.6-6.2,1.6-7.5,4.6c16.5-0.5,33-2.7,49.2-6.5c4.1-1,8.1-2,12.2-3.2c1-0.3,3.8-0.8,3.3-2.6
	c-0.5-1.7-3.3-0.7-4.4-0.6c-8.4,0.9-16.8,2-25.2,3.3C430.7,869.5,421.5,871.2,412.3,873.1z"/>
<g>
	<path class="st0" d="M706.3,686.2c15.2,0.3,30.3,1.8,45.2,5.1c14.5,3.2,28.8,8.1,41.8,15.5c8.7,5,19.3,11.1,24.2,20.3
		c2.1,3.8,3.2,8.1,4.3,12.3c1.9,7.1,3.8,14.1,5.1,21.3c3,16.5,3.4,33.6,1,50.2c-2.4,16.9-8.5,34.8-22.9,44
		c-14.3,9.2-32.8,7.6-49.6,5.4c-39.8-5.1-105.7-21-118-26.4c-19.6-8.6-41.9-4.8-62.2-11.5c-2.8-0.9-6.1-2.4-6.3-5.4
		c-0.1-1.3,0.4-2.6,0.9-3.8c15.4-36.7,1.4-83.3-31.8-105.4c2.1-5.6,9.4-6.9,15.4-7.3c18.6-1.1,37.3-1.5,55.9-1.2
		c6.6,0.1,13.3,0.3,19.9-1c6.2-1.2,12.1-3.6,18.1-5.5c17.2-5.5,35.4-6.9,53.4-6.9C702.5,686.1,704.4,686.1,706.3,686.2z"/>
	<path class="st5" d="M645.4,813.7c3-24.4,5.9-50-3.3-72.8c-4.6-11.5-12.1-21.7-16.1-33.5c-0.5-1.4-2.2-6.3,0.2-6.7
		c2-0.3,4.2,3,5.2,4.2c3.4,4.1,6.4,8.4,9,13c5.4,9.2,9.2,19.3,11.6,29.7c2.3,10.4,3.1,21.1,2.3,31.7c-0.8,10.6-3.3,21.1-7.5,31
		C646.5,811.3,645.6,812.7,645.4,813.7z"/>
	<path class="st5" d="M558.4,713.6c24.3,27.9,31,69.9,17,104.2c-0.6,1.4-1.8,3.8-3.2,3.3c-1.5-0.4-3.5-1.5-3.4-4.2
		c0.2-6.3,5.2-20.1,5.4-26.4c0.9-28.1-12.6-55.3-32-75.8c-2-2.1-7.5-8.5-2.8-10.8c3.4-1.7,9.2,1.4,11.9,3.2
		C554,709,556.3,711.2,558.4,713.6z"/>
	<path class="st5" d="M627.4,706.8c1.6,0,3.8,0.6,3.6,2.1c-0.1,1.3-1.8,1.7-3,1.8c-22.7,1.9-45.5,3.4-68.3,4.5
		c-3.6,0.2-12.6,0.2-13.5-4.9c-0.6-3.5,7.9-2.5,9.8-2.5c15.1,0.1,30.2-0.4,45.3-0.6C610.1,707,618.8,706.9,627.4,706.8z"/>
	<path class="st5" d="M639.6,726.1c2.2,0.2,5.2,1.2,4.9,3.4c-11.4,2.6-23.2,2.5-34.9,2.5c-10.4,0-20.9-0.1-31.3-0.1
		c-5.1,0-10.3,0.1-15.4-0.2c-1.2-0.1-6.6,0.1-5.5-2.1c0.8-1.7,4.9-2.6,6.5-3.1c3.4-1,6.7-1.4,10.2-1.6c10.3-0.3,20.7-0.4,31-0.3
		C616.6,724.7,628.1,725.2,639.6,726.1z"/>
	<path class="st5" d="M632.8,746.2c5.8,0.3,11.7,0.7,17,2.9c1.2,0.5,2.6,1.8,1.9,2.9c-4.6,1.4-9.6,1.4-14.4,1.4
		c-21.1,0-42.2,0-63.3-0.1c-2.3,0-4.9-0.2-6.5-1.9c-1-1.1-1-3-0.2-4.1c1.1-1.5,3.2-1,4.8-1.1c4.9-0.2,9.7-0.4,14.6-0.5
		c9.9-0.2,19.7-0.3,29.6,0C621.7,745.8,627.3,746,632.8,746.2z"/>
	<path class="st5" d="M652.3,775.7c0.8,2.2-2.5,3.4-4.8,3.4c-22.2,0.1-44.3,0.1-66.5,0.2c-2.1,0-4.4,0-6-1.4c-1.3-1.1-1.9-4.1,0-4.9
		c0.7-0.3,1.7-0.1,2.5-0.1c1.3-0.1,2.7-0.3,4-0.5c5.8-0.8,11.6-1.6,17.4-2.1c11.5-1.1,23.2-1.4,34.7,0.3
		C640,771.5,646.3,773.2,652.3,775.7z"/>
	<path class="st5" d="M644.3,805.7c1.3,0.3,2.9,1.5,2.3,2.7c-0.3,0.6-1,0.7-1.6,0.8c-3.6,0.5-7.3,0.3-11,0
		c-13.6-1.1-27.2-2.5-40.8-4.3c-3.2-0.4-6.3-0.8-9.4-1.6c-2.5-0.6-6.8-1.2-8.4-3.5c-2.6-3.8,5.2-4.1,7-4.1c6.2-0.1,12.6,1,18.8,1.7
		c6.8,0.9,13.7,1.9,20.5,3.2C629.3,802.1,636.8,803.8,644.3,805.7z"/>
	<path class="st5" d="M630.5,823.8c2.9,0.6,6.2,1.6,7.5,4.6c-16.5-0.5-33-2.7-49.2-6.5c-4.1-1-8.1-2-12.2-3.2
		c-1-0.3-3.8-0.8-3.3-2.6c0.5-1.7,3.3-0.7,4.4-0.6c8.4,0.9,16.8,2,25.2,3.3C612.1,820.2,621.3,821.8,630.5,823.8z"/>
</g>
<path class="st5" d="M665.1,491.9c3.7-19.1,10.4-37.8,9.8-57.2c-4.2-2-7.4,4.2-8,8.8c-6.6,47.9-13.2,95.7-19.8,143.6
	c-0.6-18.2-3.7-36.4-9.4-53.8c-4.3,7.9-2.4,17.5-0.9,26.3c5.9,35.5,6.7,70.2,4.2,106.1c-0.9,12.9,2,18,1.1,30.8
	c8.5-9.1,5.8-14.8,6.1-27.3c0.1-6.8,2-15.6,2.1-22.4c0.1-5.2-1.5-7.3,0.3-12.3c1.2-3.3-0.8-6.2,0.6-9.4c2.2-5.2,3.3-10.9,4.4-16.5
	c4.7-24.7,4.2-50,5.2-75.1C661.4,519.5,663.3,505.8,665.1,491.9z"/>
<path class="st5" d="M281,458.9c-4.1-5.2-9-10.7-15.6-11.5c0.8,3.3,2.6,6.3,4.4,9.3c13.9,23.1,30.9,44.3,43.4,68.3
	c3.5,6.8,6.4,13.7,9.2,20.8c0-12-5.2-23.4-10-34.2c-5.2-12-11.4-23.5-18.5-34.5C289.8,470.8,285.5,464.8,281,458.9z"/>
<path class="st6" d="M437.1,794.5c-0.5,2-0.9,4.3,0.5,5.8c0.6,0.7,1.5,1,2.3,1.3c4.7,1.7,9.6,2.2,14.6,2.7
	c6.4,0.6,12.9,1.3,19.3,1.9c2.1,0.2,4.4,0.4,6-0.9c1.7-1.3,2.2-3.5,2.5-5.6c2.3-15,1.2-30.4-3.2-44.9c-0.6-2-1.4-4.1-3.2-5.1
	c-1.2-0.7-2.6-0.7-3.9-0.8c-5-0.1-10.1,0.1-15.1,0.5c-2.5,0.2-5,0.5-7.5,0.9c-1.9,0.3-4.6,0.2-6.1,1.5c-1,0.9-1,2.4-0.9,3.7
	c0.1,2.4,0.1,4.8,0,7.2c-0.2,5.1-0.9,10.1-1.8,15.1s-2.1,9.9-3.2,14.8C437.5,793.2,437.3,793.8,437.1,794.5z"/>
<path class="st5" d="M718.7,504.7c-3.7-1.2-7.7,1-10.8,3.2c-18.7,13.4-32,33.2-41.2,54.3c-5.6,13-9.8,26.6-13.4,40.3
	c-0.9,3.4-1.8,6.9-2.6,10.3c-0.6,2.4-3,7.9-2.5,10.3c1,3.8,2.5,0.2,3.3-1.7c1.3-3.1,2.6-6.2,3.9-9.3c10.6-24.6,23.2-48.3,37.5-70.9
	c4-6.3,8.2-12.6,12.5-18.7C706.8,520.8,717.5,504.2,718.7,504.7z"/>
<path class="st7" d="M400.4,722.1c0.7,3.3,2.5,6.3,4.3,9.2c3.4,5.6,6.8,11.2,10.3,16.7c6.9,11.6,19.3,19,32.9,17.7
	c5.5-0.3,10.9-0.6,16.4-1c5.8-0.3,17.5-2.7,21.4-7c3.1-3.5,3.8-12.2,2.6-16.7c-1.2-4.5-8.1-8.9-11-12.6c-4.6-5.7-11-5.4-16.8-9.9
	c-5.8-4.5-12.2-8.4-19-11.2c-6.3-2.6-12.8-4.2-19.5-5.3c-4.3-0.8-8.1-0.8-11.9,1.6C403.6,707.4,398.6,714.2,400.4,722.1z"/>
<path class="st8" d="M412,725.5c20.5,32.8,27.2,30.7,60.5,28.4c15.4-1,19.3-8.2,13.8-16.8c-6.5-12.5-14.5-25.9-26.8-33.3
	C446.8,696.1,390.2,690.8,412,725.5z"/>
<path class="st5" d="M708.2,694.3c25.9,4.5,51.5,12.2,77.7,11.8c-34.8-14.8-73.2-21-110.9-18c27.9-4.8,55.5-11.5,82.6-20.1
	c2-0.6,4.5-2,4-4.1c-10.7-4.3-22.9-2.3-34.2,0.2c-30.8,6.8-60.6,17.1-90.2,27.7c-4.5,1.6-18,3.7-15.9,10.5c1.2,3.8,4.7,6.1,8.4,4.6
	c3.8-1.6,6.9-5.3,10.3-7.7c5.2-3.6,11.2-5,17.3-6.1C674.2,690,691.5,691.4,708.2,694.3z"/>
<path class="st1" d="M344.4,352c12.1,20.9,27.4,39.9,45.1,56.1c-21.8,10.8-53-3.1-70,14.2c10.2,8.9,22.8,14.5,35.2,20
	c32.1,14.1,64.3,28.2,96.5,42.3c9.9,4.3,20.5,8.8,31.1,6.5c-8.4-8.1-16.9-16.2-25.3-24.2c-8.4-8.1-16.9-16.4-23.5-26.1
	c-5.8-8.5-7.6-17.7-11.8-26.8c-4.2-9.2-12.7-17.6-19.4-25c-7.4-8.2-15.5-16-24.5-22.5C367.8,359.5,356.5,354.2,344.4,352z"/>
<path class="st5" d="M570.3,700c19.2-1,38.3-1.3,57.5-1c0.4-0.9-0.8-1.6-1.8-1.7c-26.3-4.5-53.3-2.6-79.4,2.9
	c-2.6,0.5-5.3,1.3-7.4,2.9c-0.2,0.2-2,1.6-1.6,2c0.3,0.3,1.9-0.7,2.2-0.8c2.8-1.2,5.9-1.7,8.8-2.2c3.3-0.6,6.7-1,10.1-1.3
	C562.7,700.4,566.5,700.2,570.3,700z"/>
<g>
	<path class="st9" d="M520.1,360.4c-9.5,7.3-21.4,11.2-33.4,12c-3.4,0.2-7.6-0.3-8.8-3.5c-1.3-3.2,1.6-6.5,4.5-8.5
		c8-5.5,17.8-7.9,26.7-11.8c4.7-2.1,9.3-4.7,13.5-7.6c2.2-1.5,4.2-3.1,6.2-4.8c2-1.7,3.7-3.5,5.6-5.3c0.6-0.6,3.2-2.5,3.9-1.2
		c0.4,0.7-0.2,2.2-0.3,2.9c-0.2,1.1-0.5,2.3-0.8,3.4c-1.3,4.5-3.4,8.9-6.1,12.8c-2.7,4-5.9,7.5-9.6,10.6
		C521,359.7,520.5,360.1,520.1,360.4z"/>
	<path class="st4" d="M424,338.2c18.4,28,74.6,41.6,98.1,10.6c-15.5,20.5-80.5-36.2-80.5-36.2s-27.9-43.1-31.4-18
		C410.2,294.6,410.4,317.4,424,338.2z"/>
	<path class="st8" d="M383,238.8c-1.6-31.3-40.2-53-25.8-85.9c5-20.1,34.7-37.2,51.3-22.6c-9.9-24.6,22.7-61,57.5-39.5
		c11.6-9.8,29.9-6.2,35,8.5c14.6-8.1,45.1-0.3,41.8,18.1c33.6,32.2,28,70.3,4.1,106.4c-13.1,0.9-27.2,3.2-40,6.3
		C474,236.2,401,287.3,383,238.8z"/>
	<path class="st2" d="M409.5,255.4c-2.8-18.4-28.1-34.7-37.7-12.2c-6.6,21.1,18.4,70.6,39.3,46.6c7.1,43.8,47.8,75.1,85.1,68.7
		c44.1-5,55.1-50.6,50.7-85.5c27.5,6.5,21.2-96.7-5.3-54c18.2-80.5-87.4-89.5-127.6-40.6C392.7,200.8,412,230.6,409.5,255.4z"/>
	<path class="st9" d="M383.2,237.5c-0.3,0.4-0.6,0.7-0.6,1.2c-0.1,1.2,1.3,1.9,2.5,2.3c9.7,3.1,18.1,10,23.1,18.9
		c1,1.8,1.9,3.7,3.1,5.4c0.3,0.4,0.6,0.8,1.1,0.7c0.5-0.1,0.6-0.8,0.5-1.3c-1-13.1-8.7-25.4-20-32.1c-1-0.6-2.2-1.2-3.4-1.2
		c-1.9,0.1-2,1.5-2.7,2.8c-0.4,0.7-1.2,1.1-1.8,1.6C384.4,236.2,383.8,236.8,383.2,237.5z"/>
	<path class="st9" d="M394.6,265.5c-2.4-1.4-5.2-2.1-7.9-2c-1.3,0-2.6,0.2-3.6,0.9c-1.1,0.7-1.9,1.9-1.8,3.1c0,0.3,0.1,0.7,0.3,0.9
		c0.2,0.3,0.6,0.4,0.9,0.5c5,1.9,10.2,3.3,15.5,4.2c0.6-0.6,0.7-1.7,0.3-2.5c-0.3-0.8-1-1.5-1.6-2.1c-1.2-1.2-2.4-2.4-3.7-3.6"/>
	<path class="st8" d="M411.1,221.9c3.2-5.3,8.4-9.1,12.2-14c5.1-6.6,7.4-15.3,6.3-23.5c1.5,7.6,8.6,13.5,16.3,14.3
		c7.7,0.9,15.5-2.9,20.4-8.9s6.9-14,6.3-21.7c1.5,3.9,5.5,6.8,9.7,6.9c4.2,0.2,8.4-2.3,10.3-6.1c-0.4,3.7-0.9,7.3-1.3,11
		c8.1,4.6,19.8-0.2,22.5-9c-2.8,3.4-0.8,8.8,2.6,11.6c3.4,2.8,7.9,3.9,11.8,5.9c5.8,3,10.4,8.1,12.9,14.1c0.3,0.8,0.6,1.6,1.3,2.1
		c2.1,1.7,4.8-1.2,5.8-3.6c7-17.7,1.8-39.1-10.9-53.3c-12.8-14.2-32.1-21.6-51.1-22.1s-37.9,5.4-54.8,14.4
		c-11.7,6.3-22.8,14.2-30.8,24.9c-7.9,10.7-12.5,24.3-10.3,37.4c1.1,6.3,3.6,12.3,6.9,17.8c1.1,1.8,7.4,13.9,10.5,11.4
		c0.9-0.8,0.9-3.3,1.2-4.4C409.4,225.3,410.1,223.5,411.1,221.9z"/>
	<path class="st4" d="M395.9,258.9c-3.2-4.2-6.7-8.5-11.3-11c-0.7-0.4-1.5-0.7-2.3-0.6c-1.4,0.2-2.1,1.9-1.9,3.3s1.1,2.5,2,3.6
		c4.1,5.1,8.5,10,13,14.8c-0.5,0.7-1.6,0.4-2.4,0.2c-0.8-0.2-2-0.1-2.1,0.7c-0.1,0.5,0.3,0.9,0.7,1.2c3.5,3.2,7.9,5.4,12.2,7.4
		c1.4,0.7,3.6,1.3,4.5-0.6c0.5-1.1-0.6-2.3-1.3-3.1c-1.2-1.6-2.2-3.3-3.2-4.9c-1.2-1.8-2.3-3.5-3.6-5.3
		C398.7,262.7,397.3,260.8,395.9,258.9z"/>
	<path class="st4" d="M549,232.6c-1.4,4-1.6,8.4-1.4,12.6c0.1,3.6,0.6,7.3,2.6,10.2c0.2,0.3,0.5,0.7,0.9,0.7c0.5,0,0.8-0.4,1.1-0.8
		c2.9-4.8,5-10,6.2-15.4c-2.2,0.4-4.3,1.3-6.1,2.6c-0.5-5.3,2.9-10,5.3-14.7c0.6-1.1,1.2-2.6,0.6-3.8c-0.4-0.8-1.3-0.8-2.1-0.5
		c-2.2,0.8-3.9,3.2-5.1,5.1C550.1,229.8,549.5,231.2,549,232.6z"/>
	<path class="st9" d="M501.8,266.9c0.5,1,1.2,2.1,2.3,1.9c-0.2-2.3-0.8-4.6-1.4-6.9c-1.6-5.9-2.9-11.9-3.9-17.9
		c-1.1-6-1.9-12.1-2.4-18.2c-0.1-0.7,0.1-2.8-0.8-3.1c-0.7-0.2-1.4,0.9-1.7,1.4c-0.6,1-0.5,2.1-0.6,3.2c0,1.4,0,2.9,0,4.3
		c0.2,5.7,0.9,11.5,2.2,17c1.3,5.6,3.1,11.1,5.4,16.3C501.3,265.7,501.6,266.3,501.8,266.9z"/>
	<path class="st9" d="M491.2,288.9c1.2,0.5,2.6,0.6,3.8,0.1c0.4-0.1,0.8-0.4,1-0.7c0.8-0.9,0.5-2.3,0.3-3.4c-0.2-1-0.5-1.9-0.7-2.8
		c0-0.1-0.1-0.3-0.2-0.4c-0.1-0.1-0.3-0.2-0.4-0.2c-1.4-0.4-2.8-0.8-4.3-1.3c-0.9-0.3-2.1-0.8-3-0.1c-1.6,1.4-0.2,4.8,0.7,6.3
		C489.1,287.4,490,288.4,491.2,288.9z"/>
	<path class="st4" d="M471,280.3c0.3,0.5,0.8,1,1.3,1.3c0.5,0.2,1.1,0.3,1.7,0.4c1.3,0.1,2.8,0.2,3.9-0.3c0.5-0.2,0.9-0.5,1.2-0.9
		c-1.3-0.4-2.4-1.6-2.9-2.9c-0.3-0.8-0.5-1.6-0.6-2.4c-0.1-0.5,0-1-0.2-1.5c-0.3-0.5-0.9-0.6-1.4-0.4c-1.6,0.4-3,2-3.5,3.4
		C470,278.2,470.3,279.3,471,280.3z"/>
	<path class="st4" d="M491.8,278.6c3.4,0.6,6.7,1.9,10.1,2.6c1.1,0.2,2.4,0.3,3.1-0.5c0.4-0.5,0.5-1.3,0.5-2c0.1-1,0.1-2,0.2-2.9
		c0-0.4,0.1-0.8,0.4-0.9c0.2-0.1,0.5,0,0.7,0.2c1,0.8,1.4,2.1,1.7,3.4c0.3,1.2,0.5,2.4,0.4,3.6c-0.1,1.2-0.7,2.4-1.8,3
		c-0.9,0.5-2.1,0.4-3.1,0.3c-4.8-0.6-9.4-2.1-14.1-3.2c-2.3-0.5-4.7-1-7.1-1.1c-0.6,0-1.5,0-1-0.8c0.4-0.6,1.2-1.1,1.9-1.4
		C486.2,277.9,489.2,278.1,491.8,278.6z"/>
	<path class="st9" d="M432.1,238.3c9.9-1.9,19.9-3.8,29.6-6.7c1.7-0.5,3.3-1.1,4.6-2.2c1.3-1.2,2-3.1,1.3-4.6
		c-1-2.3-4.1-2.5-6.6-2.2c-8.2,0.9-16.2,3.4-23.9,6.3c-3.9,1.4-8,2.7-11.7,4.6c-1.7,0.9-3.4,3.3-3,5.3c0.3,1.4,1.6,1.1,2.7,0.9
		C427.5,239.2,429.8,238.7,432.1,238.3z"/>
	<path class="st9" d="M501.4,219.1c0,0.3,0,0.6,0.2,0.9c0.2,0.2,0.4,0.3,0.7,0.3c7.7,1.8,15.5-1.7,23.4-2.2c5.8-0.3,11.7,1,17.4,0.3
		c0.6-0.1,1.2-0.2,1.6-0.6c0.6-0.6,0.6-1.6,0.2-2.3c-0.4-0.7-1.2-1.2-1.9-1.7c-9.5-5.6-21.3-4.3-32.4-4.8c-2.1-0.1-4.6-0.2-6.4,1.1
		c-0.6,0.4-0.8,1-1.1,1.6c-0.4,1-0.9,2.1-1.2,3.1C501.6,216.2,501.4,217.6,501.4,219.1z"/>
	<path class="st4" d="M483.8,318.9c3.4,0.5,7,0.2,10.6-0.2c2.5-0.3,5-0.5,7.4-1.2c4.6-1.4,8.7-4.4,11.1-8c0.2-0.3,0.4-0.6,0.4-1
		c0-0.9-1.3-1.4-2.4-1.2c-1.1,0.2-2,1-2.8,1.6c-4.2,3-9.7,4.4-15,5c-5.3,0.6-10.6,0.3-15.9,0.6c-0.7,0-1.3,0.1-1.9,0.4
		c-0.6,0.4-0.9,1.1-0.3,1.4c0.9,0.4,1.9,0.7,2.9,1.1C479.7,318,481.7,318.6,483.8,318.9z"/>
	<path class="st4" d="M543.2,249.7c1.4-3.2,0.9-6.9,0.6-10.4c-0.4-4.7-0.3-9.5,0.2-14.2c0.3-2.4,0.7-4.7,1.1-7.1
		c0.3-1.2,0.6-2.3,0.8-3.5c0.2-0.8,0.2-2.1-0.7-2.6c-1.3-0.7-2.6,1.8-3,2.7c-0.9,2-1.2,4.3-1.6,6.4c-0.8,4.5-1,9.1-0.7,13.6
		c0.3,4.6,1.2,9.1,2.6,13.4C542.8,248.7,543,249.2,543.2,249.7z"/>
	<path class="st10" d="M366,170.8c3.1,7.3,6.7,14.4,10.8,21.2c1.1,1.8,2.6,3.8,4.7,3.9c-0.4-4.2-1-8.4-1.8-12.6
		c1.5,5.3,4,10.3,7.4,14.6c1.1,1.4,2.4,2.9,4.2,3.4c1.7,0.6,4,0,4.7-1.7c1.4,3.9,6.2,6.3,10.1,4.9c-1.9,4.2-2.1,9.1-0.4,13.5
		c-1.8-3.1-4.9-5.3-8.3-6.1c-0.5,5.2-0.5,10.4,0.1,15.6c-2.8-2.9-5.7-5.7-8.5-8.6c0.1,2.9,0.3,5.8,0.4,8.7c-0.5-1.6-1.8-3.5-3.3-2.9
		c-3.8-11.6-12.6-20.8-17.3-32.1c-1.7-4.1-2.9-8.5-3.7-12.9c-0.8-4.4-1.2-9-1.4-13.4c-0.1-1.2-0.1-2.5-0.2-3.8
		c0-0.6-0.1-1.3-0.1-1.9c0-0.4,0.1-1-0.3-1.3c-0.2,0.8,0.1,2,0.3,2.8c0.2,1,0.4,1.9,0.7,2.9C364.5,167.1,365.2,169,366,170.8z"/>
	<path class="st10" d="M425.2,167.4c0.9,5.1,2.7,10.5,7,13.3c0.3,0.2,0.6,0.4,0.9,0.3c0.3-0.1,0.5-0.4,0.7-0.7
		c0.6-1.3,1-2.7,1.2-4.2c-0.2,2.6,0.8,5.2,2.6,7c1,1.1,2.4,1.9,3.8,1.8c1.5-0.1,2.8-1.5,2.6-2.9c1.6,3.7,5.8,6,9.8,5.7
		c4-0.2,7.7-2.6,10.1-5.9c2.4-3.2,3.6-7.3,4-11.3c-1.6,1.8-3.9,2.9-6.3,3.6c-4,1.2-8.7,1.3-11.8-1.4c-2.2-1.8-3.2-4.6-4.7-7
		c-1.6-2.4-4.4-4.4-7.1-3.6c-1.8,0.6-3.7,2.5-5.4,1.5c-0.9-0.5-1.2-1.7-1.3-2.7c-0.4-3.9,0.7-7.7,1.3-11.5c0.3-1.9,0.5-3.8,0.3-5.7
		c-0.1-1.3-0.4-3.2-1.7-3.9c-2.1-1.3-4.6,0.9-5.6,2.6c-0.8,1.5-1.1,3.3-1.3,4.9c-0.2,2-0.3,4.1-0.3,6.2c0,4.2,0.3,8.4,0.9,12.5
		C425,166.5,425.1,167,425.2,167.4z"/>
	<path class="st10" d="M460.1,128.1c9.8,7.5,15.4,20.3,14.3,32.6c2.9-2.2,4.9-5.5,5.4-9.2c2.2,2.4,3.9,5.3,4.7,8.4
		c-0.5-0.7,0.4-1.8,1.3-1.7c0.9,0.1,1.5,0.9,1.9,1.7c0.7,1.3,1,2.9,0.9,4.4c1.7-0.5,2.4-2.5,2.7-4.2c1.6-8.3,1-17.1-1.6-25.1
		c-0.4-1.2-1.2-2.6-2.4-2.4c0,1.1-1.1,2-2.2,2c-1.1,0-2.1-0.6-3-1.2c-2.7-1.9-4.8-4.6-7-7c-3.7-3.9-8.1-7.5-13.3-8.8
		c-3.6-0.9-7.7-0.5-11,1.4c-0.9,0.5-3.9,2.3-2.7,3.5c0.6,0.6,1.7,0.8,2.5,1c1.1,0.2,2.1,0.5,3.1,0.8
		C456.1,125.3,458.2,126.6,460.1,128.1z"/>
	<path class="st10" d="M507.2,162.2c0.2,1.2,0.7,2.7,2,2.8c0.8,0.1,1.6-0.5,2.2-1.1c1.2-1.2,2.2-2.7,3-4.2c0.2-0.4,0.5-1,1-1
		c0.5,0,0.8,0.4,1,0.8c1.3,2.2,2.3,4.6,3,7c0.7,2.2,1.1,4.6,2.3,6.6c0.6,1,1.6,1.9,2.7,1.9c2.5-0.1,2.7-4.2,4.9-5.5
		c0.3-0.2,0.7-0.3,1-0.2c0.5,0.1,0.8,0.6,1,1c2.3,4,4,8.2,5.4,12.5c0.2,0.7,0.4,1.4,1,1.8c0.9,0.6,2.2,0,3.1-0.7
		c1.7-1.3,3.1-2.7,4.4-4.4c3.5,6.4,3.4,14,3.1,21.3c3-0.6,4.5-3.9,5.6-6.9c3.3-9.4,6.6-19.2,5-29c-1.4-0.8-2.6,1.6-4.1,2
		c-1,0.3-2.2-0.3-2.8-1.2c-0.6-0.9-0.8-2-0.9-3.1c-0.9-6.9-0.9-14.5-5.4-19.8c-0.4-0.4-0.8-0.9-1.3-0.9c-1.1-0.1-1.8,1.2-2.1,2.3
		c-1.3,4.4-2.1,8.9-2.5,13.4c-1.9-0.2-3.2-1.9-4-3.7c-0.7-1.8-1-3.7-1.9-5.4c-0.2-0.4-0.5-0.9-0.9-1.1c-1-0.6-2.4-0.1-3.1,0.9
		c-0.7,1-0.8,2.2-0.9,3.4c-2-3.9-3.1-8.1-5-12c-3.7-7.3-10.5-12.9-18.3-15.2c0.8,3.3,3,6.1,4.8,9c2.7,4.6,4.3,9.9,4.5,15.2
		c0.1,1.2-0.2,2.6-1.3,3.1c-0.8,0.3-1.7-0.2-2.2-0.8c-0.5-0.7-0.7-1.5-1-2.3c-1-3.4-2.4-6.7-4.3-9.7c-0.7-1.1-1.4-2.1-2.4-3
		c-0.7-0.6-1.7-1.7-2.7-1.8c-1.8-0.1-1.5,2.9-1,3.9c1.1,2.4,2.2,4.8,3.1,7.3c0.9,2.6,1.5,5.2,2.1,7.8
		C506,156.3,506.6,159.2,507.2,162.2z"/>
	<path class="st10" d="M414.8,113.8c-1.1,6-1.5,12.2-1.2,18.3c0.1,1.7,0.2,3.4,1,4.9c0.7,1.5,2.1,2.8,3.8,3c-0.1-1.7-0.1-3.5,0.6-5
		c0.7-1.5,2.6-2.7,4.2-2.1c1.1,0.4,2.1,1.5,3.2,1c0.4-0.2,0.7-0.6,1.2-0.8c0.6-0.2,1.2,0.2,1.8,0.2c0.8,0,1.4-0.5,2-1
		c0.8-0.7,1.5-1.3,2.3-1.9c0.3-0.3,0.7-0.6,0.8-1c0.1-0.7-0.5-1.3-1.3-1.5c-2.2-0.7-5.2,0.9-6.7-0.8c-0.6-0.7-0.7-1.8-1-2.7
		c-0.5-1.5-1.8-2.6-3.3-2.9c-0.6-0.1-1.2-0.1-1.7-0.5c-0.6-0.6-0.5-1.6-0.4-2.4c0.9-4.9,1.6-9.9,1.9-15c0-0.6,0.5-2.3-0.3-2.5
		c-0.7-0.2-1.5,0.5-1.9,0.9c-1.4,1.4-2.4,3.3-3.2,5.1C415.8,109.3,415.3,111.5,414.8,113.8z"/>
	<g>
		<path class="st11" d="M470.9,306.9c0,0,13.1,0.2,23.4-1.3c11.1-1.6,18.9-6,18.9-6l-12.7-3l-19.7,3.2L470.9,306.9z"/>
		<path class="st4" d="M464.9,310c-0.7,0.6-0.5,1.6-0.4,1.6c0.8,0.2,10.8-7,17.8-8.9c5.4-1.5,16.2-2.9,22-2.7
			c4.1,0.1,13.6,4.4,14.7,4.2c0.2,0,0.3-1.1-0.2-1.5c-0.5-0.4-13-9.8-16.1-10.9c-3.1-1.1-5.4,0-6.7,1l-1.1,1.1
			c-1.2,1.1-2.6,1.3-3.8,0.6l-0.8-0.5c-1.8-1.1-3.8-1.5-7.4,0.2S465.1,309.7,464.9,310z"/>
	</g>
	<path class="st12" d="M432.5,253.1c0,0,10.1-9.4,21.6-11.7s17.1,3.3,17.1,3.3s-6.1,6.6-17.2,8.8
		C442.9,255.8,432.5,253.1,432.5,253.1z"/>
	<circle class="st13" cx="456.5" cy="245.9" r="8.8"/>
	<path class="st4" d="M431.4,253.2c0,0-0.2-3.1,2.7-5.9c4.1-3.8,11.2-10.8,21.9-11.5c13.9-0.9,15.2,8.8,15.2,8.8s-2.6-5.8-18.7-0.8
		C437.5,249.1,431.4,253.2,431.4,253.2z"/>
	<path class="st14" d="M431.4,253.2c0,0,9.2,7,22.1,4c12.9-3.1,17.7-12.5,17.7-12.5s-9.7,9.2-20.5,9.4
		C439.9,254.2,431.4,253.2,431.4,253.2z"/>
	<path class="st12" d="M499.6,241.1c0,0,10.9-7.9,22-8.5s15.7,5.7,15.7,5.7s-6.7,5.6-17.5,6.3C509,245.2,499.6,241.1,499.6,241.1z"
		/>
	
		<ellipse transform="matrix(9.636050e-02 -0.9953 0.9953 9.636050e-02 234.9904 734.2974)" class="st13" cx="521.9" cy="237.7" rx="8.8" ry="8.4"/>
	<path class="st4" d="M498.5,241.1c0,0,0.3-3.1,3.4-5.4c4.4-3.7,11.9-9.1,22-8.3c13.2,1.1,13.3,10.9,13.3,10.9s-2.6-6.5-17.5-3.5
		C504.9,237.9,498.5,241.1,498.5,241.1z"/>
	<path class="st14" d="M498.5,241.1c0,0,7.9,8.6,20.4,7.4s18.3-10.2,18.3-10.2s-10.5,7.7-20.7,6.4
		C506.4,243.2,498.5,241.1,498.5,241.1z"/>
	<path class="st9" d="M461.6,299.7c-0.4-6.9,1.6-14.9,3.9-21c1.8-4.9,3.9-9.7,5.8-14.3c1-2.3,2.6-3.9,3.7-3c1.6,1.3-0.7,6.3-1.4,8.5
		c-1.7,5.1-3.5,10-5.4,14.8c-1,2.6-2.1,5.2-3.2,7.7C464.6,293.1,461.6,299.2,461.6,299.7z"/>
	<path class="st8" d="M429.8,234.1c5.2-3.5,11.3-4.1,17.4-4.4c6.1-0.4,12.3-0.6,17.7-3.5c1.7-0.9,3.3-2.2,4.1-4.6
		c0.7-2.4,0.1-6.2-1.7-7.8c-1.1-1-2.4-0.9-3.5-0.6c-7.5,1.6-13.6,8-20.8,10.7c-4.8,1.8-10.2,2-14.5,5.2c-2.6,1.9-4.9,5-6.4,8.8
		c-0.3,0.8-0.6,3.4,0.6,4c0.8,0.4,2.2-3,2.7-3.7C426.6,236.6,428.1,235.2,429.8,234.1z"/>
	<path class="st8" d="M534.6,213.4c-6.1-1.2-12,0.6-17.8,2.6c-5.7,2-11.5,4.2-17.6,3.6c-1.9-0.2-3.9-0.7-5.5-2.6s-2.5-5.7-1.4-7.8
		c0.7-1.3,1.8-1.7,3-1.9c7.6-1.4,15.6,2.1,23.3,1.9c5.2-0.2,10.2-2.1,15.4-0.8c3.2,0.8,6.5,2.7,9.3,5.7c0.6,0.7,1.9,2.9,1,3.9
		c-0.6,0.7-3.2-1.9-3.9-2.3C538.5,214.5,536.5,213.8,534.6,213.4z"/>
</g>
</svg>
