<?xml version="1.0" encoding="utf-8"?>
<!-- Generator: Adobe Illustrator 25.2.1, SVG Export Plug-In . SVG Version: 6.00 Build 0)  -->
<svg version="1.1" id="Layer_1" xmlns="http://www.w3.org/2000/svg" xmlns:xlink="http://www.w3.org/1999/xlink" x="0px" y="0px"
	 viewBox="0 0 998.21 973.21" style="enable-background:new 0 0 998.21 973.21;" xml:space="preserve">
<style type="text/css">
	.st0{fill:#FF6E29;}
	.st1{fill:#E27247;}
	.st2{fill:#9DCBA4;}
	.st3{fill:#8DA38E;enable-background:new    ;}
	.st4{fill:#45585A;}
	.st5{fill:#AD4930;enable-background:new    ;}
	.st6{fill:#3A2B40;enable-background:new    ;}
	.st7{fill:#FFFFFC;enable-background:new    ;}
	.st8{fill:#4D1C39;enable-background:new    ;}
	.st9{fill:#83A097;}
	.st10{fill:#4D1C39;}
	.st11{fill:#3C2C40;}
	.st12{fill:#FFFEFF;}
	.st13{fill:#4E1C38;}
	.st14{fill:#82A295;}
	.st15{fill:#FFFFFF;}
</style>
<path class="st0" d="M619.73,476.86c-1.32,20.57,1.47,41.17,4.86,61.49c11.82,71.14,30.78,141.09,56.53,208.45
	c10.36,27.12,22.5,54.8,44.35,73.91c21.85,19.12,56.01,27.14,80.28,11.2c4.48-2.94,8.55-6.67,11.2-11.33
	c2.46-4.34,3.59-9.3,4.52-14.2c6.49-34.29,4.53-70.14-5.67-103.51c-7.48-24.51-19.24-47.47-29.65-70.89
	c-8.86-19.94-16.77-40.28-24.69-60.62c-7.39-19-14.8-38.05-19.92-57.78c-3.02-11.63-5.24-23.47-9.12-34.84
	c-2.61-7.63-5.95-14.98-9.28-22.32c-5.71-12.55-11.4-25.1-17.11-37.64c-4.19-9.24-8.48-18.61-15.07-26.32
	c-5.74-6.73-13.98-12.58-22.93-13.87c-3.79-0.55-5.96,1.68-8.37,4.33c-3.25,3.58-6.33,7.31-9.22,11.19
	c-11.5,15.38-20.11,32.89-25.31,51.38C622.24,455.72,620.42,466.25,619.73,476.86z"/>
<path class="st0" d="M659.21,846.79c-11.26,25.47-43.1,28.56-67.83,28.23c-86.42,1.21-175.49,5.81-261.76,11.08
	c-41.93-75.62,16.7-275.6-33.06-322.08c-25.92-25.92-72.14-32.19-101.37-52.9c12.51-42.82,25.26-98.49,67.92-122.37
	c39.41-25.14,83.69-44.83,129.42-54.56c6.03-39.47,110.13-26.3,140.1-22c9.55,3.23,20.94,8.2,24.03,17.98
	c-0.43,0.54,101.03,29.68,129.67,53.64c62.49,80.87-14.28,124.48-25.53,149.76c-23.87,50.23-6.41,53.03-10.46,108.5
	C644.01,713.02,638.66,778.72,659.21,846.79z"/>
<path class="st1" d="M614.36,521.5c4.14,37.56,8.28,75.11,12.41,112.67c0.27,2.48,0.4,5.37-1.46,7.04
	c-2.07,1.86-5.32,1.07-7.92,0.08c-13.14-5.01-25.23-12.39-37.39-19.46c-27.19-15.81-55.15-30.29-83.75-43.36
	c-14.86-6.79-29.98-13.23-45.88-17c-2.12-0.5-4.36-0.95-6.45-0.33c-7.42,2.22-5.27,13.27-1.57,20.08
	c13.41,24.7,26.81,49.39,40.22,74.09c3.58,6.59,6.87,15.57,1.51,20.81c-1.9,1.86-4.52,2.74-7.02,3.65
	c-35.34,12.9-63.2,44.57-71.48,81.27c-1.96,8.69-2.74,18.38,1.91,25.99c8.03,13.13,26.58,13.06,41.25,17.7
	c8.21,2.59,15.8,7.1,22.01,13.06c3.38,3.25,6.52,7.03,10.87,8.77c5.29,2.11,11.23,0.78,16.82-0.32c27.51-5.42,56.24-4.56,83.38,2.51
	c5.21,1.36,10.45,2.95,15.84,2.91c10.47-0.08,20.16-6.52,26.33-14.98c6.17-8.46,9.3-18.75,11.48-29c4.08-19.25,5.15-39,6.2-58.65
	c0.98-18.24,1.95-36.48,2.93-54.72c0.7-13.16,1.41-26.32,1.99-39.49c0.49-11.2,2.4-23.6,0.08-34.67c-0.69-3.32-1.98-6.46-2.92-9.7
	c-1.37-4.7-1.9-9.51-2.55-14.35c-1.34-10.05-3.43-20.11-7.34-29.5c-2.09-5.01-4.71-9.82-8.01-14.15c-1.59-2.09-3.34-4.06-5.23-5.88
	C619.72,525.73,614.45,522.38,614.36,521.5z"/>
<path class="st2" d="M412.2,272.48c0,0-9.38,44.24-4.22,62.57c5.15,18.33,67.62,117.69,81.06,117.12s47.8-89.63,48.95-117.69
	c1.15-28.06,1.15-53.39,0-52.47C536.85,282.93,412.2,272.48,412.2,272.48z"/>
<g id="рука_2_">
	<g>
		<path class="st2" d="M645.94,894.53c-39.53,0.63-77.8-17.75-107.55-42.97c-21.62-21.39,1.22-41.49,22.39-54.27
			c22.24-11.92,45.9-12.06,68.44-2.62c18.01,7.68,58.24,17.95,62.62,23.41c2.55,3.18-4.1,24.07-6.5,27.37
			C684.08,866.67,668.81,893.25,645.94,894.53z"/>
		<path class="st2" d="M632.78,891.51c-1.26-3.65-0.47-7.79,1.47-11.14c1.68-2.89,4.22-5.33,7.32-6.59
			c7.41-3.03,15.72,1.11,22.16,5.84c4.8,3.54,9.31,7.46,13.47,11.73c2.23,2.3,4.39,4.74,5.73,7.65c1.33,2.93,1.76,6.39,0.46,9.32
			c-1.93,4.37-7.21,6.47-11.97,6.1c-4.77-0.37-9.14-2.69-13.28-5.06C650.11,904.77,634.89,897.63,632.78,891.51z"/>
		<path class="st2" d="M597.19,806.65c2.41-16.36,37.07-14.64,51.67-12.57c16.83,6.55,2.98,21.39-9.28,25.14
			C623.71,824.05,594.36,825.74,597.19,806.65z"/>
		<path class="st2" d="M665.67,896.65c0.6-1.38,1.19-2.99,2.39-3.99c1.33-1.11,3.44-1.74,5.12-1.91c4.35-0.47,9.13,1.59,12.06,4.74
			c2.71,2.89,4.09,7.05,3.39,10.95c-0.69,3.91-3.55,7.42-7.32,8.66c-1.36,0.44-2.78,0.61-4.22,0.64c-2.07,0.06-4.19-0.16-6.09-0.96
			c-3.95-1.68-6.47-5.87-6.81-10.14C663.98,901.89,664.59,899.17,665.67,896.65z"/>
		<path class="st2" d="M674.72,917.33c-1.91-1.93-3.67-4.01-5.09-6.34c-0.96-1.56-2.18-3.43-2.28-5.31
			c-0.1-1.86,0.96-3.83,1.93-5.33c1.32-2.04,3.32-3.66,5.68-4.38c5.31-1.6,10.86,1.18,15.58,4.06c9.73,5.95,18.91,12.77,27.41,20.37
			c1.85,1.67,3.68,3.38,4.87,5.56c1.19,2.17,1.61,4.89,0.55,7.12c-1.68,3.46-6.12,4.48-9.95,4.4c-11.74-0.24-22.37-6.79-31.62-13.98
			C679.32,921.59,676.9,919.58,674.72,917.33z"/>
		<path class="st2" d="M656.2,815.64c-2.21-0.41-4.37-1-6.35-1.93c-1.35-0.63-2.98-1.33-3.81-2.6c-0.81-1.25-0.77-3.15-0.61-4.7
			c0.2-2.11,1.1-4.24,2.61-5.91c3.4-3.76,8.7-4.56,13.42-4.89c9.71-0.65,19.37-0.41,28.8,0.7c2.05,0.25,4.12,0.55,5.87,1.47
			c1.75,0.93,3.14,2.63,3.2,4.72c0.1,3.25-2.89,6.18-5.83,8.04c-9.01,5.66-19.65,6.33-29.51,5.88
			C661.35,816.29,658.74,816.08,656.2,815.64z"/>
		<path class="st3" d="M703.48,924.4c-0.51-1.84-0.44-4.25,1.02-5.63c1.76-1.66,4.44-0.61,6.35,0.16
			c4.73,1.94,8.64,5.75,11.53,10.12c0.42,0.62,0.82,1.28,0.98,2.03c0.28,1.36-0.31,2.8-1.32,3.69c-1,0.87-2.33,1.24-3.62,1.24
			c-3.33,0-6.29-2.14-8.91-4.33C707.19,929.73,704.4,927.54,703.48,924.4z"/>
		<path class="st3" d="M678.4,800.66c-1.95-0.65-4.16-1.77-4.81-2.84c-0.78-1.3,1.37-1.68,2.93-1.93c3.87-0.62,9.14-0.15,14.47,0.89
			c0.76,0.14,1.55,0.3,2.31,0.59c1.38,0.52,2.47,1.36,2.85,2.06c0.38,0.72,0.13,1.3-0.43,1.71c-1.44,1.04-4.74,1.02-7.92,0.87
			C684.98,801.89,681.71,801.78,678.4,800.66z"/>
		<path class="st2" d="M710.65,860.56c10.89-6.11,33.29,8.45,43.36,18.93c9.23,14.65-10.87,20.74-21.52,13.65
			C715.54,887.75,693.18,870.35,710.65,860.56z"/>
		<path class="st2" d="M682.45,875.41c0.6-1.38,1.19-2.99,2.39-3.99c1.33-1.11,3.44-1.74,5.12-1.91c4.35-0.47,9.13,1.59,12.06,4.74
			c2.71,2.89,4.09,7.05,3.39,10.95c-0.69,3.91-3.55,7.42-7.32,8.66c-1.36,0.44-2.78,0.61-4.22,0.64c-2.07,0.06-4.19-0.16-6.09-0.96
			c-3.95-1.68-6.47-5.87-6.81-10.14C680.76,880.67,681.37,877.93,682.45,875.41z"/>
		<path class="st2" d="M698.26,826.67c11.24-5.17,32.67,11.29,42.05,22.62c8.31,15.43-12.09,19.77-22.27,11.78
			C701.47,854.21,680.26,834.9,698.26,826.67z"/>
		<path class="st2" d="M746.38,859.56c-3.03,13.21-24.76,9.74-24.24-3.93C720.86,835.07,750.21,842,746.38,859.56z"/>
		<path class="st2" d="M665.54,808.62c-2.22,13.45-24.12,11.87-24.45-1.81C638.55,786.42,668.28,790.8,665.54,808.62z"/>
		<path class="st2" d="M671.99,809.12c11.24-5.17,32.67,11.29,42.05,22.62c8.31,15.43-12.09,19.77-22.27,11.78
			C675.2,836.68,653.99,817.37,671.99,809.12z"/>
		<path class="st2" d="M733.7,847.21c12.2-3.08,62.16,40.07,32.95,39.96c-11.72-0.05-22.31-9.07-31.1-17.05
			C727.13,863.42,717.62,852.18,733.7,847.21z"/>
		<path class="st3" d="M753.54,872.24c-0.5-2.05-0.25-4.65,1.56-5.98c2.2-1.61,5.31-0.18,7.5,0.84c5.47,2.58,9.83,7.09,12.98,12.1
			c0.44,0.71,0.88,1.46,1.02,2.28c0.24,1.49-0.58,3-1.81,3.84c-1.25,0.85-2.85,1.1-4.37,0.97c-3.95-0.34-7.32-2.96-10.28-5.59
			C757.52,878.39,754.37,875.73,753.54,872.24z"/>
		<path class="st2" d="M668.85,839.67c10.9-6.09,47.81,14.13,57.87,24.61c9.23,14.65-10.87,20.74-21.52,13.65
			C688.24,872.54,651.37,849.46,668.85,839.67z"/>
		<path class="st2" d="M760.7,889.2c-2.22,13.45-24.12,11.87-24.45-1.81C733.71,867.01,763.44,871.39,760.7,889.2z"/>
		<path class="st2" d="M685.4,874.79c10.47-7.11,33.8,5.29,44.54,14.78c10.2,13.73-9.46,21.69-20.56,15.62
			C692.11,901.41,668.63,886.18,685.4,874.79z"/>
		<path class="st2" d="M706.69,862.49c0.6-1.38,1.19-2.99,2.39-3.99c1.33-1.11,3.44-1.74,5.12-1.91c4.35-0.47,9.13,1.59,12.06,4.74
			c2.71,2.89,4.09,7.05,3.39,10.95c-0.69,3.91-3.55,7.42-7.32,8.66c-1.36,0.44-2.78,0.61-4.22,0.64c-2.07,0.06-4.19-0.16-6.09-0.96
			c-3.95-1.68-6.47-5.87-6.81-10.14C705,867.74,705.6,865.01,706.69,862.49z"/>
		<path class="st2" d="M737.28,898.62c-1.32,13.6-23.27,14.07-24.51,0.49C708.86,879.04,738.82,880.62,737.28,898.62z"/>
		<path class="st2" d="M747.27,878c12-4.12,64.52,34.58,35.36,36.97c-11.71,0.95-22.84-7.11-32.09-14.31
			C741.71,894.72,731.54,884.35,747.27,878z"/>
		<path class="st2" d="M657.15,862.2c10.47-7.11,33.8,5.29,44.54,14.78c10.2,13.73-9.46,21.69-20.56,15.62
			C663.84,888.83,640.38,873.59,657.15,862.2z"/>
		<path class="st2" d="M723.13,888.71c11.69-5.22,66.68,28.38,37.75,33.51c-11.62,2.05-23.26-4.95-32.98-11.24
			C718.7,905.88,707.85,896.51,723.13,888.71z"/>
		<path class="st3" d="M746.3,910.26c-0.7-2.25-0.77-5.26,0.77-7.16c1.86-2.29,4.95-1.34,7.13-0.62c5.44,1.8,10.05,6.05,13.6,11.11
			c0.52,0.73,1.01,1.48,1.23,2.4c0.4,1.64-0.19,3.54-1.25,4.76c-1.08,1.24-2.55,1.85-4,2.03c-3.74,0.44-7.21-1.83-10.29-4.23
			C750.75,916.45,747.48,914.06,746.3,910.26z"/>
		<path class="st3" d="M767.64,900.83c-0.6-2.08-0.54-4.8,1.2-6.36c2.09-1.87,5.27-0.68,7.53,0.2c5.62,2.2,10.26,6.51,13.7,11.45
			c0.5,0.7,0.98,1.45,1.16,2.29c0.34,1.53-0.37,3.17-1.56,4.16c-1.18,0.98-2.77,1.39-4.3,1.39c-3.95-0.01-7.47-2.43-10.59-4.9
			C772.05,906.89,768.73,904.38,767.64,900.83z"/>
		<path class="st4" d="M668.82,882.36c-3.67-2.66-7.59-4.97-11.68-6.92c-1.16-0.55-4.91-1.44-5.3-2.72
			c-0.67-2.2,3.08-1.31,4.01-0.96c6.55,2.49,12.6,6.34,17.66,11.2c1.15,1.1,2.28,2.95,1.18,4.1
			C674.76,886.99,669.34,882.73,668.82,882.36z"/>
		<path class="st4" d="M748.47,886.23c-5.27-6.03-28.08-15.68-34.87-18.89c-15.12-4.3-29.18-18.85-43.62-20.66
			c8.28,10.65,20.47,17.53,32.7,23.27C708.94,870.78,746.57,895.76,748.47,886.23z"/>
		<path class="st4" d="M752.97,870.56c5.93-12.55-56.77-30.56-70.41-43.64c-1.48,3.98,2.12,7.91,5.56,10.39
			C713.57,854.33,727.84,854.4,752.97,870.56z"/>
		<path class="st4" d="M649.26,869.69c-1.2-2-2.11-4.22-2.63-6.49c-0.26-1.08-0.92-3.53,0.17-4.38c1.4-1.1,4.11,2.03,4.86,2.83
			c2.18,2.33,3.72,5.22,4.5,8.31c0.44,1.79,0.62,3.65,0.5,5.49C653.4,875.16,650.84,872.32,649.26,869.69z"/>
		<path class="st4" d="M664.98,843.37c-0.38-0.95-0.98-1.8-1.29-2.77s-0.26-2.16,0.49-2.85c0.99-0.91,2.59-0.47,3.78,0.15
			c4.05,2.11,7.18,5.88,8.54,10.23c0.34,1.11,0.58,2.3,0.29,3.42c-0.3,1.12-1.22,2.14-2.38,2.24c-1.31,0.09-2.4-0.96-3.27-1.97
			c-3.21-3.75-5.99-7.89-8.23-12.29"/>
		<path class="st4" d="M688.99,809.97c-6.9-6.28-15.88-8.23-24.48-10c-14.01-2.88-28.03-5.77-42.04-8.65
			c11.11,6.85,24,8.28,36.43,10.49c8.28,1.48,16.5,3.36,24.64,5.64c3.18,0.89,6.75,2.24,8,5.81"/>
	</g>
	<path class="st2" d="M459.39,772.75c-20.33-2.27-43.01-3.92-59.1,8.71c-7.69,6.04-12.87,14.71-17.07,23.55
		c-4.81,10.13-8.6,21.04-8.51,32.25c0.09,11.22,4.57,22.83,13.64,29.42c15.74,11.44,76.68-0.64,99.03,0.03
		c23.92,0.71,60.93,0.25,84.6-3.23c14.5-2.13,24.62-9.47,35.29-19.7c11.47-10.99,17.23-26.53,11.15-41.81
		c-1.84-4.63-4.47-8.8-9.09-11.01c-5.66-2.7-12.53-2.88-18.65-3.57c-20.66-2.31-41.31-4.61-61.97-6.92
		c-20.57-2.3-41.14-4.59-61.71-6.89C464.47,773.32,461.93,773.03,459.39,772.75z"/>
</g>
<path class="st0" d="M193.73,515.72c-20.23,112.52-37.31,228.74-12.77,340.4c1.86,8.48,4.06,17.12,9.01,24.24
	c6.62,9.52,17.43,15.25,28.3,19.3c17.57,6.55,36.73,9.63,55.23,6.59c18.51-3.04,36.28-12.59,47.29-27.77
	c5.7-7.86,9.48-16.95,12.4-26.21c8.41-26.59,10.13-54.8,10.76-82.69c1.55-69.26-3.36-138.66-14.63-207.01
	c-4.06-24.62-9.2-49.77-22.72-70.75c-13.51-20.97-37.26-37.1-62.09-34.75c-11.09,1.05-21.56,5.71-30.54,12.18
	c-3.55,2.55-8.87,5.86-10.72,9.95c-2.29,5.07-3.91,10.75-5.31,16.13C196.2,502.05,194.95,508.89,193.73,515.72z"/>
<path class="st0" d="M342.1,735.37c18.01,0.01,36.2,1.42,53.37,6.87c6.01,1.91,11.9,4.31,18.1,5.48c6.53,1.23,13.22,1.06,19.86,0.97
	c18.65-0.26,37.32,0.14,55.94,1.21c6.01,0.34,13.27,1.63,15.4,7.26c-33.11,22.04-47.17,68.71-31.75,105.37
	c0.51,1.21,1.05,2.47,0.93,3.77c-0.27,2.92-3.54,4.44-6.33,5.36c-58.39,19.24-119.24,30.02-180.21,37.91
	c-16.86,2.18-35.34,3.81-49.61-5.43c-14.33-9.27-20.48-27.12-22.88-44.02c-2.36-16.64-1.98-33.66,1.01-50.2
	c1.3-7.2,3.21-14.27,5.09-21.33c1.11-4.18,2.24-8.46,4.3-12.3c4.93-9.19,15.49-15.37,24.23-20.32
	c12.98-7.35,27.23-12.27,41.76-15.47c14.82-3.26,30-4.77,45.16-5.06C338.34,735.39,340.22,735.37,342.1,735.37z"/>
<path class="st5" d="M295.28,745.56c13.99,0.59,27.98,1.17,41.97,1.76c9.7,0.41,19.39,0.81,29.09,1.22
	c44.54,1.87,89.13,3.74,133.68,2.13c-5.36-3.47-12.08-3.91-18.47-4.03c-25.71-0.48-51.75,2.57-76.95-2.55
	c-15.95-3.24-31.18-9.61-47.38-11.75c-5.75-0.76-11.73-1.26-17.43,0.08c-6.08,1.44-12.09,3.33-18.14,4.9
	c-4.51,1.17-9,2.45-13.45,3.85c-2.17,0.68-4.34,1.39-6.49,2.12C299.99,743.88,297.06,745.64,295.28,745.56z"/>
<path class="st1" d="M668.25,468.49c1.89-13.13,5.58-28.62,18.03-33.21c-1.35,20.24-2.7,40.48-4.05,60.72
	c-0.14,2.03-0.11,4.43,1.55,5.62c1.2,0.86,2.81,0.73,4.28,0.56c7.88-0.9,15.76-1.8,23.64-2.69c2.6-0.3,5.38-0.56,7.68,0.69
	c6.57,3.57,2.55,13.56-1.97,19.52c-24.16,31.83-43.54,67.28-57.27,104.81c17.49,4.18,34.98,8.36,52.47,12.54
	c7.05,1.68,15.7,5.29,15.63,12.54c-5.26,1.92-9.27,6.93-9.99,12.48c15.8,2.39,31.1,8.12,44.58,16.71
	c-24.96,17.6-58.68,13.13-88.77,7.91c-4.08-0.71-8.38-1.52-11.49-4.25c-2.84-2.5-4.23-6.22-5.46-9.8
	c-8.26-23.88-14.77-50.31-8.75-75.48c1.4-5.87,3.03-11.2,3.9-17.2c1.02-7.11,2.04-14.23,3.07-21.34
	c2.03-14.13,4.06-28.26,6.09-42.39C663.68,500.3,665.97,484.39,668.25,468.49z"/>
<path class="st5" d="M403.35,336.63c1.31,6.69,4.44,12.86,7.63,18.89c18.48,35.01,40.41,69.33,71.9,93.32
	c-3.03-3.78-6.06-7.55-9.09-11.33c-8-9.98-16.02-19.97-23.25-30.52c-8.6-12.56-16.07-25.86-22.86-39.47
	c-6.78-13.58-12.9-27.47-18.92-41.4c-0.63-1.47-1.26-3.44-2.82-4.21c-1.79-0.89-2.11,1.01-2.45,2.4
	C402.51,328.33,402.56,332.58,403.35,336.63z"/>
<path class="st5" d="M531.16,415.34c-9.59,23.17-20.09,46.37-36.12,65.66c-1.62,1.95-3.09,5.34-0.85,6.54
	c1.47,0.79,3.21-0.33,4.47-1.43c14.22-12.41,24.19-28.93,32.54-45.86c14.21-28.81,24.38-59.61,30.12-91.22
	c0.48-2.65,1.77-14.94-3.96-13.02c-2.64,0.89-2.43,4.74-2.85,6.97c-0.64,3.46-1.37,6.91-2.18,10.33
	c-3.2,13.67-7.59,27.03-12.51,40.16C537.08,400.82,534.16,408.09,531.16,415.34z"/>
<path class="st5" d="M464.42,476.21c5.93,6.26,12.88,12.61,21.47,13.28c-15.03-14.84-28.57-31.18-40.38-48.7
	c-4.76-7.06-9.23-14.31-13.71-21.56c-4.37-7.08-8.74-14.16-13.11-21.24c-4.56-7.39-9.14-14.81-12.49-22.82
	c-2.61-6.23-4.45-12.74-6.5-19.17c-1.03-3.24-2.11-6.47-3.38-9.63c-0.63-1.57-1.3-3.13-2.03-4.66c-0.36-0.75-1.39-2.63-2.15-0.93
	c-0.41,0.92,0.59,3.21,0.82,4.17c0.37,1.5,0.75,3,1.14,4.5c0.8,3.06,1.65,6.11,2.55,9.14c1.8,6.07,3.8,12.07,5.99,18.01
	c4.36,11.8,9.49,23.33,15.32,34.48c5.84,11.15,12.39,21.92,19.61,32.23c7.24,10.34,15.15,20.21,23.68,29.51
	C462.3,473.96,463.36,475.09,464.42,476.21z"/>
<path class="st5" d="M496.42,482.96c0.18,0.49,0.65,1.08,1.08,0.79c0.75-2.66,0.01-5.49-0.73-8.15c-0.87-3.12-1.73-6.24-2.6-9.36
	c-0.43-1.54-0.85-3.07-1.28-4.61c-0.22-0.78-0.43-1.56-0.65-2.34c-0.08-0.3-0.25-1.64-0.57-1.75c-0.63-0.2-0.89,1.57-0.89,1.92
	c0.01,1.47,0.41,3.04,0.66,4.49c0.51,3.04,1.15,6.05,1.92,9.03C494.23,476.36,495.25,479.69,496.42,482.96z"/>
<path class="st5" d="M503.8,467.74c0.44,0.6,1.02,1.24,1.76,1.2c0.56-1.45-0.19-3.04-0.91-4.41c-2.08-3.92-4.17-7.83-6.25-11.75
	c-0.29-0.55-1.88-2.56-2.51-1.34c-0.4,0.77,0.71,2.8,0.98,3.51c1.09,2.9,2.44,5.7,4.01,8.36
	C501.76,464.83,502.74,466.31,503.8,467.74z"/>
<path class="st5" d="M512.76,463.23c0.59-1.98-0.51-4.03-1.58-5.81c-2.07-3.46-4.15-6.92-6.22-10.38c-0.75-1.25-2.32-3.6-4.15-2.79
	c-1.26,0.55,0.15,2.42,0.59,3.11c2.22,3.51,4.53,6.96,7.01,10.3c0.7,0.95,1.42,1.88,2.14,2.81
	C510.82,460.82,512.85,462.91,512.76,463.23z"/>
<path class="st5" d="M519.6,453.29c0.73-1.04,0.04-2.45-0.64-3.52c-3.32-5.18-6.69-10.42-11.16-14.65
	c-0.52-0.49-1.37-1.21-2.15-0.88c-0.7,0.29-0.39,0.86-0.09,1.36c0.9,1.51,1.9,2.98,2.89,4.43c2.09,3.05,4.38,5.98,6.84,8.74
	C516.67,450.34,518.11,451.84,519.6,453.29z"/>
<path class="st5" d="M525.31,441.02c0.16-0.6-0.02-1.23-0.25-1.8c-2.32-5.75-9.06-8.25-13.05-13c-0.76-0.91-1.43-1.9-2.3-2.7
	c0.1,0.1-0.17,2.15-0.18,2.47c-0.01,0.48-0.06,0.97,0.11,1.43c0.47,1.3,2.04,2.48,2.99,3.43c2.45,2.46,5.08,4.75,7.86,6.83
	C522.05,438.86,523.66,439.97,525.31,441.02z"/>
<path class="st5" d="M528.36,428.77c0.8,0.51,1.68,1.02,2.63,0.96c0.26-0.63-0.22-1.3-0.66-1.82c-2.81-3.26-5.67-6.57-9.23-8.99
	c-1.58-1.08-3.27-1.98-4.76-3.19c-0.43-0.35-0.76-0.73-1.08-0.09c-0.23,0.45-0.1,1.22,0.12,1.66c0.74,1.47,2.46,2.86,3.63,4
	c1.34,1.33,2.75,2.58,4.22,3.77C524.86,426.4,526.58,427.64,528.36,428.77z"/>
<path class="st5" d="M537,420.41c0.44-1.14-0.32-2.38-1.09-3.33c-3.99-4.98-9.17-8.86-14.29-12.67c-0.76-0.56-1.83-1.13-2.56-0.54
	c-1.35,1.1,4.88,6.11,5.58,6.74c2.49,2.25,5.08,4.4,7.75,6.44C533.9,418.2,535.44,419.32,537,420.41z"/>
<path class="st5" d="M535,405.3c2.29,1.9,4.71,3.87,7.64,4.45c0.57-1.29-0.3-2.74-1.19-3.83c-2.21-2.7-4.87-5.04-7.83-6.9
	c-1.84-1.16-3.83-2.14-5.41-3.64c-0.98-0.93-1.96-2.24-3.43-2.3c-1.25-0.05-1.61,0.87-1.15,1.92c0.57,1.28,1.98,2.23,2.99,3.14
	c1.28,1.16,2.58,2.29,3.89,3.41C532,402.8,533.5,404.05,535,405.3z"/>
<path class="st5" d="M543.62,396.53c0.4,0.23,0.9,0.46,1.3,0.23c0.56-0.32,0.37-1.18,0.06-1.74c-1.58-2.91-4.34-5-7.16-6.73
	c-2.07-1.27-4.22-2.4-6.22-3.78c-0.58-0.4-4.53-4.01-4.64-1.73c-0.08,1.71,2.65,3.53,3.73,4.48c1.88,1.64,3.84,3.2,5.86,4.67
	C538.83,393.57,541.19,395.11,543.62,396.53z"/>
<path class="st5" d="M548.22,385.11c0.33,0.19,0.77,0.37,1.07,0.14c0.36-0.29,0.16-0.87-0.09-1.25c-2.08-3.24-5.24-5.61-8.33-7.9
	c-1.65-1.22-3.3-2.45-4.94-3.67c-1.25-0.93-3.26-2.3-4.81-1.14c-1.37,1.01,1.09,2.54,1.8,3.13c3.08,2.55,6.27,4.96,9.61,7.18
	C544.38,382.82,546.28,384,548.22,385.11z"/>
<path class="st5" d="M551.72,372.72c0.27,0.13,0.58,0.26,0.86,0.15c0.34-0.13,0.48-0.53,0.5-0.89c0.12-1.75-1.35-3.17-2.73-4.25
	c-3.43-2.69-7.12-5.04-10.8-7.38c-1.03-0.66-2.06-1.31-3.09-1.97c-0.7-0.45-1.64-0.96-2.45-0.45c-0.51,0.32-0.58,0.8-0.41,1.34
	c0.46,1.5,2.1,2.67,3.22,3.65c2.85,2.51,5.93,4.76,9.18,6.72C547.86,370.77,549.77,371.79,551.72,372.72z"/>
<path class="st5" d="M551.47,355.75c1.36,0.59,2.81,1.12,4.28,0.91c0.48-1.08-0.36-2.26-1.19-3.1c-4.65-4.71-10.81-7.91-17.33-9.01
	c0.1,0.02-0.07,1.7,0,1.9c0.15,0.42,0.45,0.47,0.8,0.69c1.05,0.65,1.95,1.63,2.93,2.39c2.06,1.6,4.26,3.04,6.55,4.29
	C548.8,354.52,550.12,355.16,551.47,355.75z"/>
<path class="st5" d="M554.07,343.96c1,0.59,2.56,1.02,3.07-0.02c0.32-0.64-0.06-1.4-0.5-1.96c-1.16-1.49-2.75-2.56-4.31-3.61
	c-2.87-1.94-5.75-3.87-8.62-5.81c-1.15-0.78-3.25-2.35-4.77-1.84c-1.18,0.4-0.02,1.88,0.42,2.44c2.26,2.87,5.78,4.98,8.76,7.02
	C550.07,341.5,552.05,342.77,554.07,343.96z"/>
<path class="st5" d="M550.01,329.16c1.58,1.08,3.38,2.21,5.27,1.88c-0.5-1.98-2.17-3.41-3.74-4.72c-1.63-1.35-3.25-2.69-4.88-4.04
	c-1.55-1.28-3.15-2.57-5.14-3.05c-0.64-0.15-3.14-0.71-3.29,0.44c-0.12,0.87,1.34,1.96,1.88,2.43c1.14,1,2.38,1.89,3.63,2.75
	C545.82,326.31,547.92,327.73,550.01,329.16z"/>
<path class="st5" d="M393.63,344.12c0.94,0.32,1.89-0.42,2.59-1.13c1.44-1.45,2.8-2.99,4.06-4.61c0.63-0.81,1.24-1.63,1.82-2.48
	c0.34-0.49,1.38-1.6,1.23-2.25c-0.12-0.52-0.84-0.66-1.29-0.6c-0.77,0.1-1.28,0.84-1.79,1.37c-1.31,1.35-2.56,2.77-3.67,4.29
	C396.28,339.12,393.34,344.02,393.63,344.12z"/>
<path class="st5" d="M408.66,344.43c-4.7,2.64-7.78,7.38-10.67,11.94c-0.34,0.53-0.67,1.26-0.28,1.75c0.22,0.27,0.59,0.36,0.93,0.36
	c1.19-0.02,2.13-0.95,2.94-1.82c2.06-2.21,4.12-4.43,6.18-6.64c1.54-1.66,3.13-3.39,3.89-5.52c0.11-0.3,0.2-0.64,0.08-0.94
	c-0.24-0.63-1.14-0.62-1.79-0.44c-2.07,0.58-3.98,1.74-5.44,3.31"/>
<path class="st5" d="M413.87,356.52c-5.12,2.83-9.27,7.37-11.65,12.71c-0.13,0.29-0.26,0.61-0.21,0.93
	c0.08,0.56,0.71,0.91,1.28,0.88s1.08-0.34,1.55-0.65c4.85-3.22,8.43-7.98,11.91-12.64c0.44-0.59,0.9-1.25,0.85-1.98
	c-2.93-0.05-5.56,1.66-7.98,3.3"/>
<path class="st5" d="M409.02,381.39c-0.46,0.65-0.9,1.59-0.34,2.16c0.63,0.64,1.68,0.01,2.33-0.61c2.66-2.56,5.33-5.12,7.99-7.68
	c1.33-1.28,2.66-2.56,4-3.84c0.91-0.87,2.08-1.81,1.97-3.22c-0.24-3.04-7.93,3.77-8.67,4.52
	C413.63,375.39,411.21,378.33,409.02,381.39z"/>
<path class="st5" d="M414.06,396.47c1.47,0.49,2.96-0.61,4.11-1.64c3.07-2.76,6.03-5.63,8.92-8.57c1.41-1.43,2.85-2.84,4.18-4.34
	c0.25-0.28,1-1,0.64-1.42c-0.71-0.83-3.97,0.97-4.62,1.28c-2.27,1.1-4.53,2.47-6.31,4.26C418.23,388.82,414.49,392.36,414.06,396.47
	z"/>
<path class="st5" d="M420.32,408.4c1.67,0.58,3.37-0.65,4.7-1.81c3.06-2.68,6.05-5.45,8.95-8.3c0.71-0.7,5.9-4.91,4.57-6.18
	c-0.92-0.87-4,1.23-4.74,1.67c-2.36,1.4-4.58,3.04-6.54,4.96c-1.44,1.41-2.75,2.94-3.92,4.58
	C423.05,403.72,420.23,408.37,420.32,408.4z"/>
<path class="st5" d="M434.26,417.82c3.43-2.7,6.75-5.72,9.56-9.08c0.37-0.45,3.61-4.57,1.11-4.28c-2.16,0.25-4.45,2.08-6.15,3.3
	c-2.64,1.89-4.94,4.04-7.09,6.47c-0.77,0.87-1.52,1.75-2.25,2.65c-0.54,0.66-1.51,1.63-1.49,2.56c0.05,1.84,4.43-0.29,5.16-0.78
	C433.5,418.4,433.88,418.12,434.26,417.82z"/>
<path class="st5" d="M434.59,431.21c-0.21,0.32-0.41,0.75-0.17,1.04c0.14,0.17,0.38,0.22,0.59,0.24c1.52,0.11,2.91-0.79,4.12-1.71
	c5.41-4.1,9.96-9.21,14.46-14.3c0.43-0.48,0.87-1.02,0.87-1.66c0-0.97-1.1-1.64-2.07-1.56c-1.4,0.12-2.7,1.24-3.73,2.11
	c-1.31,1.09-2.57,2.23-3.8,3.41c-2.48,2.39-4.78,4.96-6.89,7.68C436.78,428,435.65,429.58,434.59,431.21z"/>
<path class="st5" d="M441.65,444.17c3.26,0.49,6.19-1.94,8.44-4.35c2.38-2.55,4.58-5.27,6.58-8.13c1.02-1.46,1.98-2.95,2.89-4.48
	c0.5-0.85,2.32-3.43,0.09-3.12c-2.45,0.34-3.53,1.69-5.19,3.34c-2.35,2.34-4.73,4.55-6.8,7.17
	C445.32,437.56,443.3,440.77,441.65,444.17z"/>
<path class="st5" d="M453.76,449.3c-1.27,1.83-2.52,3.81-2.69,6.03c-0.02,0.27-0.02,0.55,0.08,0.79c0.29,0.68,1.23,0.78,1.95,0.62
	c2.35-0.53,4.01-2.58,5.42-4.54c3.78-5.26,7.24-10.82,10.1-16.64c1.16-2.36-1.42-1.34-2.58-0.65c-2.34,1.38-4.05,3.77-5.76,5.82
	C457.98,443.48,455.8,446.34,453.76,449.3z"/>
<path class="st5" d="M468.74,451.03c-2.59,3.41-5.22,6.89-6.64,10.93c-0.26,0.73-0.45,1.62,0.04,2.23c0.47,0.58,1.38,0.61,2.05,0.26
	c0.66-0.34,1.12-0.97,1.56-1.57c3.85-5.29,7.6-10.66,11.23-16.11c0.65-0.97,1.54-2.31,1.08-3.53c-0.32-0.86-1.57-1.48-2.46-1.2
	c-0.8,0.25-1.27,1.13-1.67,1.79c-0.64,1.06-1.3,2.06-2.05,3.05C470.84,448.27,469.79,449.65,468.74,451.03z"/>
<path class="st1" d="M262.47,451.05c11.03,38.37,25.89,75.63,44.3,111.06c-8.91-0.71-16.09-14.29-23.54-9.35
	c-2.58,1.71-3.47,5.08-3.65,8.17c-0.78,13.65,8.17,25.61,14.63,37.65c16.34,30.46,17.59,68.57,3.27,100.03
	c-1.05,2.3-2.22,4.62-4.12,6.27c-1.86,1.61-4.24,2.44-6.57,3.23c-17.93,6.12-35.86,12.24-53.8,18.36
	c30.89,12.46,68.13-5.97,98.58,7.53c1.85,0.82,3.81,1.78,5.81,1.43c3.75-0.65,5.19-5.21,5.66-8.98
	c5.82-45.97-18.7-91.07-16.72-137.36c0.5-11.6,2.52-23.54,0.02-35.04c-1.89-8.66-5.27-17.33-8.08-25.73
	c-6.6-19.69-17.09-38.06-30.64-53.79c-3.75-4.36-7.74-8.51-11.94-12.44c-2.16-2.02-4.37-3.97-6.64-5.86
	C267.82,455.21,262.88,452.49,262.47,451.05z"/>
<path class="st5" d="M472.65,470.14c-1.05,1.86-2.13,4.02-1.42,6.03c1.45,0.59,2.91-0.77,3.81-2.05c1.67-2.39,3.03-4.99,4.37-7.58
	c1.76-3.38,3.51-6.75,5.27-10.13c0.81-1.57,1.88-3.34,2.1-5.11c-2.88-1.17-4.15,1.18-5.36,3.32c-1.87,3.31-3.75,6.63-5.62,9.94
	C474.75,466.42,473.7,468.28,472.65,470.14z"/>
<path class="st3" d="M563.69,834.97c-27.87,2.04-55.73,4.07-83.6,6.11c-3.89,0.28-7.99,0.63-11.23,2.81
	c-3.24,2.18-5.17,6.84-3.04,10.12c30.06,2.21,60.25-0.05,90.3-2.31c5.37-0.4,11.39-0.91,15.39-4.98c3.02-3.07,5.67-8.74,0.32-10.83
	C569.29,834.89,566.38,834.77,563.69,834.97z"/>
<path class="st5" d="M485.62,458.87c-3.13,7.91-6.3,15.99-6.77,24.49c-0.04,0.73,0.1,1.69,0.82,1.83c0.76,0.15,1.25-0.78,1.46-1.53
	c1.45-5.1,2.89-10.19,4.34-15.29c0.73-2.57,1.46-5.14,2.19-7.7c0.36-1.26,0.72-2.53,1.08-3.79c0.16-0.58,1.02-2.63,0.38-3.12
	C487.7,452.69,485.89,458.21,485.62,458.87z"/>
<path class="st5" d="M305.93,473.61c1.8,43.7,11.39,86.65,20.94,129.33c-3.37-14.04-8.93-27.56-16.41-39.92
	c-2.36,9.57,2.79,19.15,6.89,28.11c8.17,17.83,12.74,37.31,13.34,56.92c0.89,29.37,1.79,58.75,2.68,88.12
	c7.36,0.4,14.74,0.26,22.08-0.4c-1.61-19.89-3.52-39.76-5.72-59.6c-2.19-19.8-4.47-39.64-7.45-59.34
	c-0.92-6.04-2.66-11.65-4.52-17.44c-2.44-7.59-3.83-15.5-5.14-23.36c-2.8-16.76-4.58-33.69-7.77-50.38
	c-3.11-16.27-7.65-32.46-15.84-46.96C308.36,477.57,305.93,474.82,305.93,473.61z"/>
<path class="st5" d="M397.33,863c-3.01-24.37-5.87-49.97,3.28-72.76c4.62-11.52,12.12-21.71,16.08-33.53
	c0.47-1.41,2.21-6.35-0.25-6.72c-1.96-0.3-4.21,2.98-5.24,4.22c-3.37,4.08-6.39,8.44-9.05,13.01c-5.37,9.23-9.25,19.3-11.58,29.72
	c-2.32,10.39-3.11,21.12-2.27,31.73c0.84,10.63,3.32,21.14,7.51,30.95C396.22,860.6,397.2,861.96,397.33,863z"/>
<path class="st5" d="M484.4,762.93c-25.27,29-31.54,73.16-15.32,108.04c3.96-1.34,4.91-1.22,4.87-4.68
	c-0.08-6.89-5.18-19.46-5.39-26.38c-0.89-28.13,12.64-55.34,32.01-75.75c2-2.1,7.5-8.51,2.8-10.83c-3.39-1.67-9.2,1.36-11.93,3.18
	C488.79,758.29,486.49,760.54,484.4,762.93z"/>
<path class="st5" d="M282.41,723.13c-30.34-1.83-63.36-0.63-87.25,18.17c23.93,0.87,47.48-5.23,71.06-9.46s48.46-6.52,70.98,1.62
	c-47.89-2.47-96.42,9.3-137.86,33.43c-4.8,2.8-9.55,5.79-13.44,9.76c-1.33,1.36-2.63,3.04-2.48,4.93c0.19,2.39,2.73,4.04,5.13,4.11
	c2.4,0.06,4.66-1.04,6.81-2.11c13.96-6.97,27.91-13.94,41.87-20.91c-14.04,9.88-29.06,21.14-33.33,37.76
	c11.85-4.12,21.08-13.32,30.78-21.27c28.68-23.5,64.89-37.66,101.9-39.85c3.28-0.19,11.69-0.43,11.81-5.28
	c0.12-4.89-8.29-4.76-11.4-5.22c-11.55-1.71-23.15-3.11-34.78-4.18C295.62,724.03,289.02,723.52,282.41,723.13z"/>
<path class="st5" d="M415.32,756.09c-1.58-0.02-3.76,0.56-3.58,2.13c0.14,1.27,1.76,1.69,3.04,1.8c22.72,1.93,45.48,3.42,68.26,4.47
	c3.61,0.17,12.57,0.16,13.46-4.89c0.62-3.52-7.91-2.54-9.8-2.53c-15.1,0.06-30.23-0.4-45.33-0.62
	C432.69,756.34,424,756.21,415.32,756.09z"/>
<path class="st5" d="M403.12,775.37c-2.23,0.16-5.2,1.2-4.86,3.41c11.39,2.58,23.19,2.54,34.86,2.5
	c10.44-0.04,20.87-0.08,31.31-0.12c5.13-0.02,10.3,0.14,15.42-0.25c1.15-0.09,6.57,0.06,5.53-2.14c-0.81-1.72-4.94-2.63-6.52-3.11
	c-3.36-1.02-6.68-1.44-10.17-1.56c-10.33-0.35-20.68-0.44-31.02-0.27C426.15,774.01,414.62,774.53,403.12,775.37z"/>
<path class="st5" d="M409.98,795.54c-5.77,0.28-11.67,0.68-16.99,2.93c-1.2,0.51-2.58,1.75-1.88,2.86c4.64,1.38,9.56,1.41,14.4,1.42
	c21.1,0.04,42.21,0,63.31-0.11c2.33-0.01,4.94-0.15,6.51-1.86c0.98-1.06,1.02-2.98,0.17-4.14c-1.07-1.46-3.18-1.04-4.77-1.11
	c-4.87-0.24-9.74-0.42-14.62-0.54c-9.86-0.25-19.72-0.26-29.58-0.04C421.02,795.07,415.5,795.27,409.98,795.54z"/>
<path class="st5" d="M390.45,824.95c-0.81,2.18,2.46,3.43,4.79,3.43c22.16,0.07,44.32,0.13,66.48,0.2c2.1,0.01,4.39-0.05,5.99-1.4
	c1.31-1.1,1.91-4.08,0.03-4.91c-0.7-0.31-1.72-0.08-2.47-0.12c-1.35-0.07-2.7-0.33-4.04-0.52c-5.78-0.82-11.57-1.59-17.38-2.14
	c-11.52-1.11-23.22-1.44-34.69,0.33C402.75,820.8,396.44,822.46,390.45,824.95z"/>
<path class="st5" d="M398.45,855.01c-1.29,0.33-2.94,1.46-2.28,2.66c0.31,0.57,1.02,0.74,1.64,0.84c3.63,0.53,7.31,0.26,10.96-0.03
	c13.62-1.1,27.21-2.54,40.77-4.31c3.16-0.41,6.32-0.85,9.43-1.57c2.45-0.57,6.83-1.23,8.39-3.49c2.61-3.78-5.18-4.06-7.02-4.08
	c-6.24-0.07-12.61,0.95-18.8,1.73c-6.85,0.87-13.68,1.94-20.48,3.22C413.49,851.39,405.94,853.07,398.45,855.01z"/>
<g id="рука_1_">
	<g>
		<path class="st2" d="M296.27,842.74c-2.75-3.02-11.67-23.04-9.48-26.49c3.74-5.91,42.6-20.56,59.65-30.19
			c21.35-11.87,44.89-14.34,68.31-4.96c22.45,10.36,47.37,27.81,28.25,51.47c-26.78,28.35-62.79,50.85-102.15,54.59
			C317.97,888.42,299.85,863.69,296.27,842.74z"/>
		<path class="st2" d="M330.36,903.27c-3.85,2.81-7.94,5.59-12.64,6.49c-4.69,0.9-10.17-0.61-12.57-4.74
			c-1.61-2.77-1.57-6.25-0.57-9.31c1-3.05,2.88-5.71,4.85-8.24c3.66-4.71,7.71-9.1,12.09-13.15c5.88-5.41,13.67-10.45,21.38-8.26
			c3.22,0.91,6.01,3.06,8,5.74c2.3,3.11,3.54,7.14,2.69,10.91C352.17,889.03,337.83,897.8,330.36,903.27z"/>
		<path class="st2" d="M338.84,811.62c-12.61-2.37-28-15.59-12-23.96c14.29-3.67,48.54-9.21,52.75,6.78
			C384.5,813.1,355.15,814.67,338.84,811.62z"/>
		<path class="st2" d="M323.81,899.22c0.13,4.28-1.91,8.72-5.65,10.83c-1.8,1.01-3.88,1.46-5.95,1.63
			c-1.43,0.13-2.87,0.12-4.26-0.17c-3.89-0.81-7.12-3.99-8.23-7.8c-1.12-3.8-0.21-8.08,2.16-11.26c2.57-3.45,7.1-6.03,11.47-6.05
			c1.69-0.02,3.85,0.38,5.3,1.34c1.3,0.86,2.07,2.4,2.82,3.71C322.82,893.84,323.73,896.47,323.81,899.22z"/>
		<path class="st2" d="M308.42,919.92c-8.4,8.17-18.24,15.85-29.89,17.39c-3.81,0.5-8.33-0.03-10.38-3.28
			c-1.31-2.09-1.18-4.84-0.24-7.13c0.94-2.29,2.57-4.2,4.23-6.06c7.61-8.49,15.98-16.29,24.99-23.27c4.37-3.39,9.58-6.76,15.03-5.76
			c2.42,0.45,4.59,1.84,6.12,3.72c1.13,1.39,2.4,3.22,2.51,5.08c0.1,1.89-0.9,3.88-1.68,5.53c-1.15,2.47-2.67,4.74-4.36,6.86
			C312.84,915.48,310.66,917.75,308.42,919.92z"/>
		<path class="st2" d="M314.28,811.53c-9.75,1.54-20.39,2.04-29.98-2.58c-3.13-1.52-6.42-4.1-6.68-7.34
			c-0.17-2.09,1.02-3.93,2.66-5.04c1.64-1.11,3.67-1.64,5.67-2.11c9.25-2.15,18.82-3.45,28.54-3.88c4.72-0.19,10.08,0.01,13.88,3.38
			c1.68,1.49,2.81,3.51,3.24,5.58c0.32,1.52,0.57,3.41-0.09,4.74c-0.68,1.36-2.23,2.23-3.5,3.01c-1.87,1.15-3.96,1.97-6.1,2.62
			C319.45,810.61,316.88,811.11,314.28,811.53z"/>
		<path class="st3" d="M281.78,931.11c-2.36,2.46-5.07,4.91-8.38,5.28c-1.28,0.14-2.65-0.07-3.74-0.83
			c-1.1-0.77-1.86-2.14-1.72-3.52c0.07-0.76,0.4-1.46,0.75-2.12c2.39-4.66,5.85-8.88,10.34-11.33c1.81-0.98,4.35-2.32,6.29-0.86
			c1.61,1.21,1.94,3.6,1.64,5.48C286.39,926.44,283.86,928.92,281.78,931.11z"/>
		<path class="st3" d="M289.01,799.85c-3.15,0.49-6.42,0.88-7.97,0.01c-0.6-0.35-0.91-0.9-0.61-1.65c0.3-0.74,1.29-1.7,2.61-2.36
			c0.73-0.37,1.49-0.62,2.23-0.84c5.18-1.63,10.36-2.67,14.28-2.49c1.57,0.08,3.76,0.22,3.12,1.6c-0.52,1.13-2.6,2.49-4.46,3.35
			C295.05,798.94,291.8,799.41,289.01,799.85z"/>
		<path class="st2" d="M254.67,895.35c-9.8,8.22-30.45,4.39-22.9-11.19c8.85-11.53,29.5-28.48,41-23.61
			C291.22,868.36,270.92,888.12,254.67,895.35z"/>
		<path class="st2" d="M304.79,879.97c0.13,4.28-1.91,8.72-5.65,10.83c-1.8,1.01-3.88,1.46-5.95,1.63
			c-1.43,0.13-2.87,0.12-4.26-0.17c-3.89-0.81-7.12-3.99-8.23-7.8c-1.12-3.8-0.21-8.08,2.16-11.26c2.57-3.45,7.1-6.03,11.47-6.05
			c1.69-0.02,3.85,0.38,5.3,1.34c1.3,0.86,2.07,2.4,2.82,3.71C303.8,874.59,304.7,877.24,304.79,879.97z"/>
		<path class="st2" d="M265.49,861.88c-9.23,9.07-30,7-23.44-9.25c8.07-12.3,27.55-31.02,39.29-27.13
			C300.14,831.7,281.2,853.24,265.49,861.88z"/>
		<path class="st2" d="M260.81,856.93c2.03,13.53-19.18,19.37-23.66,6.58C231.4,846.49,259.81,836.35,260.81,856.93z"/>
		<path class="st2" d="M335.97,799.45c1.19,13.63-20.4,17.62-24.1,4.5C307.18,786.54,336.24,778.91,335.97,799.45z"/>
		<path class="st2" d="M289.66,841.54c-9.23,9.07-30,7-23.44-9.25c8.07-12.3,27.55-31.02,39.29-27.13
			C324.32,811.37,305.37,832.91,289.66,841.54z"/>
		<path class="st2" d="M249.08,872.81c-7.85,8.9-17.38,19.03-29.02,20.38c-29.01,3.34,15.87-45.07,28.34-43.36
			C264.93,853,256.72,865.22,249.08,872.81z"/>
		<path class="st3" d="M225.82,886.05c-2.65,2.94-5.71,5.91-9.6,6.69c-1.5,0.3-3.12,0.23-4.45-0.48c-1.32-0.7-2.3-2.11-2.23-3.62
			c0.05-0.83,0.4-1.62,0.76-2.38c2.57-5.33,6.41-10.3,11.56-13.46c2.06-1.26,5-3.02,7.36-1.67c1.94,1.12,2.49,3.67,2.21,5.77
			C231,880.47,228.17,883.46,225.82,886.05z"/>
		<path class="st2" d="M280.11,877.22c-9.8,8.22-30.45,4.39-22.9-11.19c8.85-11.53,43.29-35.7,54.8-30.86
			C330.46,842.98,296.38,869.99,280.11,877.22z"/>
		<path class="st2" d="M250.29,890.05c1.19,13.63-20.4,17.62-24.1,4.5C221.51,877.15,250.57,869.52,250.29,890.05z"/>
		<path class="st2" d="M278.96,904.77c-10.36,7.26-30.78,1.52-22.16-13.25c9.63-10.62,31.44-25.53,42.64-19.61
			C317.37,881.38,295.72,899.1,278.96,904.77z"/>
		<path class="st2" d="M279.27,869.8c0.13,4.28-1.91,8.72-5.65,10.83c-1.8,1.01-3.88,1.46-5.95,1.63c-1.43,0.13-2.87,0.12-4.26-0.17
			c-3.89-0.81-7.12-3.99-8.23-7.8c-1.12-3.8-0.21-8.08,2.16-11.26c2.57-3.45,7.1-6.03,11.47-6.05c1.69-0.02,3.85,0.38,5.3,1.34
			c1.3,0.86,2.07,2.4,2.82,3.71C278.29,864.42,279.19,867.07,279.27,869.8z"/>
		<path class="st2" d="M274.93,899.11c0.27,13.63-21.6,15.6-24.41,2.22C246.99,883.61,276.59,878.73,274.93,899.11z"/>
		<path class="st2" d="M237.57,904.82c-8.4,8.17-18.57,17.42-30.31,17.76c-29.25,0.84,18.68-43.42,31.06-40.65
			C254.64,886.51,245.68,897.94,237.57,904.82z"/>
		<path class="st2" d="M305.65,889.14c-10.36,7.26-30.78,1.52-22.16-13.25c9.63-10.62,31.44-25.53,42.64-19.61
			C344.06,865.74,322.42,883.48,305.65,889.14z"/>
		<path class="st2" d="M261.2,912.57c-8.97,7.33-19.76,15.57-31.54,14.81c-29.32-1.9,21.62-41.37,33.82-37.47
			C279.53,895.97,269.79,906.49,261.2,912.57z"/>
		<path class="st3" d="M236.61,922.91c-2.8,2.72-6,5.37-9.76,5.34c-1.46-0.01-2.99-0.46-4.2-1.57c-1.2-1.1-1.99-2.92-1.77-4.59
			c0.12-0.94,0.52-1.74,0.96-2.52c2.96-5.42,7.08-10.15,12.29-12.54c2.08-0.96,5.05-2.24,7.15-0.17c1.74,1.72,2.01,4.73,1.56,7.04
			C242.09,917.8,239.09,920.53,236.61,922.91z"/>
		<path class="st3" d="M214.38,915.84c-2.82,2.8-6.05,5.6-9.98,6.04c-1.52,0.17-3.14-0.06-4.43-0.91c-1.3-0.86-2.18-2.4-2.01-3.96
			c0.09-0.86,0.49-1.65,0.9-2.41c2.87-5.29,7.01-10.09,12.36-12.89c2.15-1.12,5.18-2.66,7.47-1.03c1.9,1.35,2.27,4.05,1.9,6.18
			C219.89,910.52,216.88,913.38,214.38,915.84z"/>
		<path class="st4" d="M311.45,882.93c-1.22-1.02-0.31-2.99,0.72-4.21c4.49-5.39,10.08-9.88,16.31-13.08
			c0.89-0.46,4.51-1.75,4.09,0.51c-0.24,1.32-3.87,2.61-4.96,3.29c-3.85,2.39-7.49,5.12-10.85,8.17
			C316.29,878.02,311.36,882.86,311.45,882.93z"/>
		<path class="st4" d="M281.73,869.01c11.53-7.06,22.87-15.24,29.93-26.74c-14.15,3.4-26.51,19.41-41.07,25.36
			c-6.39,3.93-28,16.05-32.57,22.62C240.96,899.51,275.6,870.52,281.73,869.01z"/>
		<path class="st4" d="M292.6,834.96c3.14-2.84,6.29-7.15,4.38-10.94c-12.12,14.51-72.44,39.34-65.16,51.15
			C255.02,856.33,269.18,854.69,292.6,834.96z"/>
		<path class="st4" d="M328.08,869.38c-0.32-1.82-0.35-3.69-0.11-5.51c0.43-3.16,1.65-6.2,3.55-8.76c0.66-0.87,3-4.29,4.52-3.34
			c1.18,0.73,0.8,3.24,0.66,4.34c-0.27,2.32-0.93,4.62-1.9,6.75C333.52,865.64,331.29,868.74,328.08,869.38z"/>
		<path class="st4" d="M317.9,834.4c-1.75,4.62-4.04,9.04-6.83,13.12c-0.75,1.09-1.72,2.26-3.03,2.32
			c-1.16,0.04-2.19-0.88-2.61-1.96c-0.41-1.08-0.31-2.29-0.09-3.43c0.86-4.48,3.56-8.57,7.36-11.11c1.12-0.75,2.66-1.37,3.74-0.57
			c0.82,0.6,1,1.78,0.8,2.78c-0.2,1-0.7,1.91-0.97,2.89"/>
		<path class="st4" d="M286.55,811.44c0.85-3.68,4.25-5.42,7.31-6.66c7.84-3.17,15.79-5.94,23.86-8.33
			c12.11-3.57,24.75-6.42,35.04-14.45c-13.61,4.41-27.22,8.83-40.83,13.24c-8.36,2.71-17.07,5.64-23.23,12.64"/>
	</g>
	<path class="st2" d="M512.79,745.52c19.95-4.5,42.31-8.65,59.7,2.13c8.32,5.15,14.42,13.19,19.56,21.52
		c5.9,9.54,10.87,19.96,12.03,31.11s-2.02,23.19-10.31,30.75c-14.38,13.11-76.28,7.84-98.42,10.97
		c-23.69,3.35-60.53,6.98-84.44,6.14c-14.65-0.52-25.51-6.69-37.25-15.68c-12.61-9.66-20.06-24.47-15.7-40.32
		c1.32-4.8,3.47-9.24,7.82-11.95c5.33-3.31,12.14-4.25,18.14-5.6c20.27-4.57,40.55-9.15,60.82-13.72
		c20.19-4.55,40.38-9.11,60.57-13.66C507.81,746.64,510.3,746.08,512.79,745.52z"/>
</g>
<path class="st5" d="M412.28,873.07c-2.9,0.61-6.21,1.58-7.45,4.56c16.54-0.55,33.04-2.74,49.23-6.52
	c4.07-0.95,8.14-1.95,12.16-3.15c1.05-0.32,3.79-0.85,3.29-2.63c-0.48-1.71-3.28-0.73-4.38-0.61c-8.43,0.91-16.83,2.01-25.22,3.32
	C430.67,869.47,421.46,871.15,412.28,873.07z"/>
<g>
	<path class="st0" d="M675.08,688.59c14.94-2.59,30.13-3.98,45.3-3.58c14.87,0.39,29.8,2.52,43.93,7.28
		c9.52,3.21,21.06,7.27,27.64,15.37c2.75,3.38,4.67,7.37,6.55,11.26c3.18,6.58,6.4,13.16,9.04,19.98
		c6.07,15.67,9.66,32.32,10.5,49.1c0.84,17.05-1.82,35.74-14.13,47.56c-12.26,11.77-30.72,13.67-47.68,14.72
		c-40.01,2.47-107.71-0.58-120.89-3.56c-20.86-4.71-42.01,3.18-63.24,0.45c-2.91-0.38-6.41-1.25-7.23-4.06
		c-0.36-1.25-0.07-2.59,0.2-3.88c8.2-38.92-14.44-82.08-51.12-97.45c1.03-5.93,7.91-8.57,13.75-10.04
		c18.08-4.58,36.34-8.5,54.7-11.78c6.54-1.17,13.14-2.27,19.32-4.71c5.87-2.32,11.2-5.79,16.74-8.81
		c15.83-8.6,33.42-13.43,51.1-16.85C671.39,689.23,673.24,688.89,675.08,688.59z"/>
	<path class="st5" d="M639.47,825.36c-1.66-24.5-3.7-50.18-16.99-70.82c-6.72-10.44-16.01-19.02-22.13-29.88
		c-0.73-1.3-3.37-5.81-1.03-6.65c1.87-0.67,4.7,2.13,5.94,3.15c4.08,3.37,7.87,7.08,11.35,11.06c7.02,8.04,12.73,17.2,16.99,26.99
		c4.25,9.76,7.05,20.15,8.23,30.73c1.19,10.59,0.74,21.38-1.51,31.81C640.1,822.8,639.4,824.32,639.47,825.36z"/>
	<path class="st5" d="M535.03,743.59c29.19,22.82,43.73,62.79,36.43,99.06c-0.29,1.44-1.01,4.02-2.47,3.89
		c-1.51-0.13-3.71-0.8-4.12-3.43c-0.96-6.2,1.3-20.72,0.3-26.92c-4.45-27.79-22.89-51.94-45.78-68.32c-2.36-1.69-8.98-6.94-4.8-10.1
		c3.02-2.28,9.29-0.4,12.31,0.86C529.84,739.86,532.53,741.64,535.03,743.59z"/>
	<path class="st5" d="M601.56,723.79c1.55-0.32,3.8-0.16,3.92,1.41c0.1,1.28-1.41,2-2.64,2.34c-21.95,6.2-44.01,11.97-66.18,17.32
		c-3.51,0.85-12.31,2.54-14.14-2.25c-1.28-3.34,7.28-3.99,9.14-4.34c14.84-2.8,29.6-6.12,44.39-9.19
		C584.56,727.32,593.06,725.56,601.56,723.79z"/>
	<path class="st5" d="M617.19,740.41c2.22-0.26,5.34,0.19,5.42,2.43c-10.7,4.68-22.28,6.89-33.76,9.05
		c-10.25,1.94-20.51,3.87-30.76,5.81c-5.04,0.95-10.09,2.09-15.19,2.67c-1.15,0.13-6.44,1.3-5.84-1.05
		c0.47-1.84,4.35-3.52,5.81-4.29c3.11-1.64,6.28-2.68,9.69-3.46c10.08-2.3,20.22-4.35,30.4-6.14
		C594.33,743.44,605.74,741.76,617.19,740.41z"/>
	<path class="st5" d="M614.28,761.52c5.72-0.81,11.59-1.55,17.24-0.34c1.28,0.27,2.86,1.23,2.39,2.45
		c-4.29,2.24-9.12,3.19-13.87,4.12c-20.72,4.03-41.45,7.99-62.19,11.88c-2.29,0.43-4.87,0.79-6.75-0.59
		c-1.16-0.86-1.56-2.73-0.95-4.03c0.77-1.63,2.93-1.62,4.47-2c4.74-1.15,9.49-2.25,14.25-3.3c9.63-2.11,19.31-3.99,29.03-5.64
		C603.35,763.15,608.81,762.3,614.28,761.52z"/>
	<path class="st5" d="M639.02,786.69c1.21,1.99-1.77,3.83-4.05,4.28c-21.75,4.26-43.5,8.52-65.24,12.78
		c-2.06,0.4-4.32,0.78-6.15-0.24c-1.5-0.84-2.65-3.64-0.96-4.82c0.63-0.44,1.68-0.4,2.4-0.58c1.32-0.32,2.59-0.84,3.87-1.28
		c5.52-1.9,11.06-3.75,16.66-5.4c11.1-3.27,22.53-5.81,34.13-6.24C626.16,784.95,632.67,785.39,639.02,786.69z"/>
	<path class="st5" d="M636.86,817.72c1.33,0.08,3.16,0.87,2.74,2.18c-0.2,0.62-0.86,0.92-1.45,1.13c-3.46,1.21-7.13,1.64-10.77,2.04
		c-13.58,1.5-27.2,2.66-40.85,3.49c-3.18,0.19-6.37,0.37-9.56,0.24c-2.51-0.1-6.94,0.08-8.9-1.84c-3.28-3.22,4.32-4.97,6.12-5.34
		c6.11-1.25,12.56-1.46,18.78-1.86c6.89-0.45,13.8-0.69,20.71-0.72C621.41,817.02,629.14,817.24,636.86,817.72z"/>
	<path class="st5" d="M626.69,838.08c2.96,0.05,6.4,0.38,8.18,3.07c-16.35,2.59-32.96,3.56-49.58,2.92
		c-4.17-0.16-8.36-0.37-12.53-0.79c-1.1-0.11-3.88-0.11-3.73-1.96c0.15-1.77,3.08-1.33,4.19-1.43c8.45-0.7,16.91-1.21,25.39-1.52
		C607.96,838.03,617.32,837.93,626.69,838.08z"/>
	<path class="st5" d="M544.19,727.92c18.61-4.61,37.39-8.57,56.28-11.86c0.23-0.94-1.12-1.37-2.09-1.35
		c-26.63,0.58-52.85,7.54-77.4,17.9c-2.41,1.02-4.94,2.24-6.68,4.25c-0.2,0.23-1.61,1.94-1.17,2.21c0.34,0.21,1.74-1.01,2-1.18
		c2.49-1.69,5.45-2.75,8.26-3.81c3.18-1.2,6.41-2.25,9.67-3.2C536.74,729.8,540.46,728.85,544.19,727.92z"/>
</g>
<path class="st5" d="M665.07,491.85c3.67-19.06,10.43-37.82,9.81-57.22c-4.2-1.98-7.38,4.16-8.01,8.75
	c-6.59,47.86-13.18,95.72-19.77,143.58c-0.58-18.24-3.74-36.39-9.38-53.75c-4.26,7.88-2.4,17.49-0.93,26.33
	c5.88,35.48,6.69,70.2,4.23,106.08c-0.88,12.89,1.98,17.95,1.09,30.84c8.53-9.12,5.84-14.81,6.08-27.3
	c0.13-6.75,1.98-15.63,2.11-22.38c0.1-5.23-1.52-7.28,0.27-12.28c1.18-3.3-0.75-6.16,0.63-9.38c2.24-5.22,3.33-10.93,4.38-16.48
	c4.66-24.73,4.16-50.03,5.21-75.07C661.39,519.47,663.27,505.8,665.07,491.85z"/>
<path class="st5" d="M280.97,458.94c-4.09-5.24-9.02-10.68-15.61-11.55c0.82,3.32,2.57,6.33,4.35,9.26
	c13.92,23.13,30.92,44.32,43.35,68.35c3.5,6.76,6.35,13.72,9.16,20.78c0.02-12.02-5.24-23.38-9.98-34.24
	c-5.22-11.96-11.4-23.51-18.46-34.5C289.8,470.81,285.52,464.77,280.97,458.94z"/>
<path class="st6" d="M431.32,845.9c-0.09,2.02-0.03,4.4,1.61,5.59c0.72,0.52,1.61,0.71,2.49,0.84c4.89,0.76,9.89,0.31,14.82-0.14
	c6.43-0.58,12.87-1.17,19.3-1.75c2.08-0.19,4.37-0.48,5.78-2.02c1.42-1.56,1.49-3.89,1.4-6c-0.58-15.12-4.58-30.1-11.61-43.5
	c-0.95-1.81-2.12-3.74-4.06-4.39c-1.28-0.43-2.67-0.22-4,0.01c-4.96,0.86-9.86,1.99-14.7,3.37c-2.42,0.69-4.82,1.45-7.2,2.27
	c-1.78,0.61-4.44,1.08-5.68,2.65c-0.86,1.09-0.48,2.54-0.2,3.77c0.55,2.34,1.04,4.69,1.4,7.07c0.75,5,1.04,10.07,1.09,15.13
	c0.05,5.06-0.14,10.13-0.37,15.19C431.37,844.62,431.34,845.26,431.32,845.9z"/>
<path class="st5" d="M718.72,504.67c-3.72-1.23-7.65,0.95-10.84,3.23c-18.7,13.4-32.05,33.22-41.18,54.34
	c-5.63,13.01-9.79,26.6-13.37,40.3c-0.9,3.43-1.75,6.88-2.59,10.33c-0.59,2.44-3.05,7.92-2.45,10.31c0.98,3.85,2.53,0.18,3.3-1.73
	c1.26-3.11,2.56-6.22,3.89-9.3c10.58-24.6,23.15-48.34,37.55-70.92c4.04-6.33,8.21-12.57,12.53-18.71
	C706.79,520.77,717.47,504.25,718.72,504.67z"/>
<path class="st7" d="M381.53,781.78c1.35,3.11,3.68,5.67,5.97,8.18c4.41,4.83,8.83,9.65,13.24,14.48
	c8.91,10.07,22.52,15.06,35.63,11.18c5.29-1.34,10.59-2.69,15.88-4.03c5.65-1.43,16.7-5.92,19.67-10.93
	c2.38-4.02,1.43-12.67-0.59-16.88c-2.02-4.21-9.66-7.22-13.2-10.26c-5.57-4.78-11.78-3.2-18.32-6.54
	c-6.57-3.35-13.56-5.91-20.79-7.42c-6.64-1.39-13.37-1.65-20.13-1.56c-4.34,0.05-8.06,0.79-11.35,3.79
	C381.87,766.76,378.28,774.41,381.53,781.78z"/>
<path class="st8" d="M393.53,782.99c26.31,28.3,32.56,24.94,64.82,16.42c14.95-3.95,17.42-11.73,10.41-19.09
	c-8.71-11.04-19.16-22.67-32.57-27.61C422.14,747.53,365.62,752.97,393.53,782.99z"/>
<path class="st5" d="M684.66,704.83c26.14,2.38,52.27,8.08,78.4,5.53c-35.88-11.94-74.64-15.08-111.97-9.07
	c27.46-7.03,54.44-15.94,80.69-26.65c1.97-0.8,4.34-2.4,3.7-4.43c-11.05-3.43-22.98-0.47-34.03,2.93
	c-30.1,9.28-59.03,21.88-87.71,34.82c-4.34,1.96-17.65,5.08-14.99,11.68c1.49,3.68,5.17,5.74,8.73,3.91c3.7-1.9,6.44-5.84,9.63-8.44
	c4.89-3.99,10.75-5.9,16.79-7.48C650.39,703.3,667.77,703.3,684.66,704.83z"/>
<path class="st1" d="M344.43,352.04c12.06,20.87,27.35,39.87,45.15,56.13c-21.83,10.83-52.95-3.14-70.03,14.24
	c10.17,8.94,22.79,14.51,35.19,19.95c32.15,14.1,64.3,28.2,96.46,42.3c9.86,4.33,20.55,8.75,31.09,6.5
	c-8.43-8.08-16.86-16.17-25.28-24.25c-8.44-8.09-16.86-16.4-23.48-26.09c-5.8-8.49-7.59-17.68-11.79-26.75
	c-4.25-9.19-12.69-17.58-19.39-25.05c-7.41-8.25-15.45-16.03-24.51-22.45C367.81,359.49,356.54,354.18,344.43,352.04z"/>
<g>
	<path class="st9" d="M520.16,354.95c-9.5,7.31-21.39,11.23-33.36,12c-3.38,0.22-7.58-0.31-8.82-3.47
		c-1.27-3.22,1.59-6.53,4.44-8.49c8.02-5.53,17.74-7.9,26.65-11.86c4.74-2.1,9.26-4.67,13.5-7.65c2.15-1.51,4.24-3.13,6.23-4.85
		c1.95-1.68,3.7-3.54,5.59-5.28c0.65-0.6,3.18-2.48,3.93-1.16c0.39,0.7-0.17,2.19-0.32,2.91c-0.23,1.15-0.52,2.29-0.85,3.41
		c-1.33,4.54-3.4,8.86-6.05,12.78c-2.67,3.95-5.91,7.52-9.59,10.56C521.07,354.23,520.62,354.6,520.16,354.95z"/>
	<path class="st4" d="M424.12,332.82c18.4,28,74.64,41.56,98.07,10.57c-15.5,20.49-80.54-36.18-80.54-36.18
		s-27.93-43.13-31.42-17.98C410.23,289.24,410.46,312.04,424.12,332.82z"/>
	<path class="st10" d="M383.02,233.46c-1.61-31.27-40.28-52.96-25.85-85.87c4.95-20.14,34.65-37.26,51.32-22.63
		c-9.89-24.57,22.62-61.06,57.5-39.55c11.59-9.83,29.91-6.24,35.04,8.46c14.57-8.13,45.06-0.35,41.83,18.04
		c33.63,32.19,28.01,70.25,4.15,106.35c-13.11,0.91-27.25,3.2-40.01,6.34C473.99,230.74,401.07,281.91,383.02,233.46z"/>
	<path class="st2" d="M409.49,250.04c-2.79-18.36-28.14-34.67-37.72-12.18c-6.55,21.09,18.43,70.56,39.34,46.56
		c7.16,43.77,47.84,75.07,85.18,68.62c44.13-5.02,55.1-50.59,50.61-85.5c27.51,6.48,21.15-96.69-5.34-53.96
		c18.15-80.47-87.45-89.48-127.67-40.54C392.68,195.4,411.99,225.18,409.49,250.04z"/>
	<path class="st9" d="M383.21,232.09c-0.28,0.35-0.56,0.73-0.61,1.18c-0.14,1.22,1.31,1.91,2.47,2.29
		c9.7,3.11,18.14,9.98,23.15,18.85c1.02,1.81,1.91,3.7,3.07,5.43c0.25,0.38,0.64,0.8,1.08,0.68c0.5-0.13,0.57-0.81,0.53-1.32
		c-1.02-13.07-8.71-25.44-19.98-32.14c-1.05-0.62-2.19-1.21-3.41-1.15c-1.89,0.1-2.01,1.47-2.7,2.76c-0.37,0.69-1.18,1.07-1.76,1.56
		C384.39,230.79,383.77,231.41,383.21,232.09z"/>
	<path class="st9" d="M394.59,260.1c-2.39-1.4-5.17-2.11-7.94-2.04c-1.27,0.03-2.57,0.24-3.65,0.91c-1.08,0.67-1.89,1.87-1.81,3.14
		c0.02,0.33,0.11,0.67,0.32,0.91c0.23,0.26,0.56,0.39,0.89,0.51c5.04,1.86,10.25,3.25,15.54,4.15c0.64-0.62,0.68-1.66,0.34-2.48
		c-0.34-0.82-0.98-1.46-1.61-2.09c-1.22-1.21-2.44-2.43-3.67-3.64"/>
	<path class="st10" d="M411.1,216.53c3.17-5.33,8.39-9.12,12.17-14.04c5.09-6.61,7.41-15.29,6.33-23.55
		c1.52,7.58,8.61,13.45,16.3,14.32s15.52-2.86,20.38-8.88c4.86-6.02,6.87-14.05,6.33-21.75c1.55,3.92,5.54,6.76,9.76,6.93
		c4.22,0.17,8.42-2.33,10.28-6.12c-0.43,3.66-0.88,7.33-1.31,10.99c8.07,4.58,19.84-0.16,22.49-9.06c-2.78,3.42-0.81,8.82,2.6,11.59
		c3.42,2.77,7.86,3.89,11.78,5.91c5.78,2.99,10.43,8.1,12.88,14.12c0.31,0.77,0.62,1.6,1.27,2.12c2.08,1.67,4.83-1.15,5.82-3.64
		c7.02-17.75,1.8-39.07-10.96-53.27c-12.77-14.2-32.07-21.57-51.16-22.06c-19.09-0.49-37.93,5.42-54.78,14.42
		c-11.72,6.27-22.82,14.22-30.76,24.89c-7.94,10.66-12.46,24.32-10.24,37.44c1.07,6.33,3.65,12.3,6.88,17.83
		c1.07,1.83,7.39,13.93,10.53,11.36c0.92-0.75,0.87-3.3,1.2-4.42C409.39,219.88,410.14,218.14,411.1,216.53z"/>
	<path class="st4" d="M395.89,253.49c-3.18-4.23-6.66-8.46-11.32-10.99c-0.72-0.39-1.53-0.74-2.33-0.61
		c-1.37,0.23-2.14,1.87-1.93,3.25c0.21,1.38,1.12,2.54,2,3.63c4.14,5.1,8.47,10.04,12.97,14.83c-0.5,0.69-1.56,0.43-2.37,0.2
		c-0.82-0.23-2.01-0.12-2.11,0.73c-0.06,0.48,0.32,0.91,0.69,1.24c3.52,3.23,7.89,5.36,12.19,7.44c1.45,0.71,3.6,1.29,4.49-0.59
		c0.54-1.13-0.63-2.31-1.26-3.13c-1.2-1.56-2.17-3.27-3.25-4.91c-1.16-1.78-2.34-3.54-3.56-5.27
		C398.73,257.33,397.33,255.39,395.89,253.49z"/>
	<path class="st4" d="M549.04,227.12c-1.36,4.03-1.59,8.37-1.41,12.61c0.15,3.56,0.62,7.26,2.59,10.22c0.21,0.32,0.5,0.66,0.88,0.69
		c0.47,0.03,0.82-0.43,1.07-0.84c2.87-4.76,4.97-9.98,6.19-15.41c-2.21,0.4-4.31,1.32-6.12,2.65c-0.55-5.26,2.86-9.99,5.26-14.72
		c0.57-1.11,1.21-2.6,0.56-3.81c-0.44-0.8-1.3-0.83-2.08-0.54c-2.2,0.81-3.92,3.19-5.08,5.11
		C550.14,224.36,549.52,225.71,549.04,227.12z"/>
	<path class="st9" d="M502.62,264.38c0.46,0.96,1.23,2.09,2.28,1.91c-0.16-2.35-0.79-4.62-1.39-6.89
		c-1.56-5.93-2.88-11.91-3.94-17.95c-1.07-6.01-1.87-12.08-2.43-18.15c-0.07-0.68,0.08-2.85-0.81-3.08c-0.71-0.18-1.4,0.9-1.67,1.39
		c-0.57,1.03-0.54,2.1-0.56,3.24c-0.03,1.44-0.01,2.89,0.03,4.34c0.18,5.74,0.93,11.45,2.21,17.05c1.28,5.6,3.1,11.06,5.43,16.31
		C502.05,263.16,502.34,263.77,502.62,264.38z"/>
	<path class="st9" d="M491.97,286.36c1.2,0.53,2.6,0.55,3.82,0.09c0.38-0.14,0.76-0.35,1.04-0.66c0.81-0.88,0.55-2.26,0.25-3.42
		c-0.25-0.95-0.49-1.89-0.75-2.84c-0.04-0.14-0.07-0.28-0.16-0.38c-0.1-0.12-0.27-0.17-0.43-0.21c-1.43-0.42-2.84-0.83-4.26-1.25
		c-0.93-0.28-2.11-0.85-2.96-0.09c-1.59,1.44-0.15,4.81,0.73,6.26C489.91,284.92,490.81,285.84,491.97,286.36z"/>
	<path class="st4" d="M471.79,277.83c0.34,0.54,0.77,1.04,1.34,1.33c0.51,0.25,1.09,0.31,1.65,0.37c1.3,0.12,2.76,0.18,3.9-0.32
		c0.46-0.21,0.88-0.5,1.2-0.93c-1.34-0.43-2.35-1.59-2.89-2.89c-0.32-0.76-0.49-1.57-0.58-2.39c-0.06-0.47,0.01-1.04-0.23-1.47
		c-0.29-0.54-0.87-0.58-1.42-0.44c-1.55,0.41-2.98,1.97-3.51,3.43C470.82,275.73,471.12,276.79,471.79,277.83z"/>
	<path class="st4" d="M492.64,276.06c3.43,0.61,6.7,1.86,10.1,2.59c1.07,0.23,2.36,0.33,3.07-0.5c0.45-0.53,0.5-1.27,0.54-1.96
		c0.05-0.98,0.1-1.96,0.15-2.95c0.02-0.36,0.1-0.8,0.44-0.91c0.24-0.08,0.48,0.05,0.68,0.2c1.03,0.78,1.38,2.14,1.68,3.39
		c0.27,1.18,0.55,2.38,0.43,3.59c-0.12,1.21-0.7,2.44-1.77,3.01c-0.93,0.51-2.07,0.44-3.11,0.32c-4.79-0.57-9.4-2.09-14.1-3.17
		c-2.35-0.53-4.73-0.96-7.14-1.08c-0.63-0.04-1.52,0.02-0.99-0.82c0.41-0.65,1.19-1.15,1.89-1.41
		C487.04,275.43,490.03,275.6,492.64,276.06z"/>
	<path class="st9" d="M433.97,229.92c9.71-2.82,19.45-5.65,28.81-9.47c1.6-0.65,3.23-1.37,4.39-2.63c1.16-1.27,1.72-3.25,0.86-4.74
		c-1.23-2.16-4.34-2.06-6.76-1.54c-8.09,1.72-15.75,4.97-23.18,8.51c-3.71,1.77-7.73,3.41-11.17,5.65c-1.6,1.04-3.12,3.62-2.49,5.59
		c0.44,1.35,1.68,0.93,2.75,0.62C429.44,231.24,431.7,230.57,433.97,229.92z"/>
	<path class="st9" d="M494.9,213.07c0.02,0.3,0.07,0.65,0.28,0.86c0.18,0.18,0.43,0.23,0.67,0.28c7.76,1.46,15.42-2.48,23.26-3.33
		c5.78-0.63,11.69,0.45,17.42-0.56c0.57-0.1,1.17-0.24,1.57-0.66c0.58-0.61,0.52-1.64,0.06-2.35c-0.46-0.71-1.22-1.17-1.97-1.56
		c-9.78-5.13-21.53-3.29-32.56-3.24c-2.1,0-4.64-0.01-6.38,1.37c-0.59,0.47-0.79,0.99-0.99,1.69c-0.31,1.07-0.75,2.09-1.01,3.19
		C494.93,210.16,494.81,211.63,494.9,213.07z"/>
	<path class="st4" d="M485.97,320.66c3.51,0.75,7.19,0.63,10.8,0.46c2.55-0.13,5.13-0.29,7.59-0.92c4.75-1.22,8.93-4.25,11.3-8.19
		c0.2-0.32,0.39-0.68,0.39-1.05c0.03-1.02-1.36-1.66-2.46-1.45c-1.12,0.21-2,0.95-2.9,1.59c-4.3,3.08-9.87,4.31-15.31,4.6
		c-5.44,0.29-10.87-0.26-16.31-0.34c-0.67-0.01-1.38,0-1.94,0.32c-0.65,0.37-0.95,1.19-0.28,1.56c0.91,0.52,1.96,0.91,2.93,1.33
		C481.77,319.43,483.82,320.21,485.97,320.66z"/>
	<path class="st4" d="M543.22,244.26c1.43-3.2,0.9-6.88,0.6-10.38c-0.42-4.73-0.35-9.5,0.16-14.22c0.26-2.38,0.64-4.74,1.14-7.08
		c0.25-1.16,0.57-2.3,0.81-3.47c0.17-0.83,0.22-2.14-0.69-2.61c-1.33-0.69-2.6,1.76-2.98,2.65c-0.86,1.99-1.21,4.32-1.57,6.44
		c-0.77,4.49-1,9.08-0.67,13.63c0.33,4.56,1.21,9.09,2.64,13.44C542.84,243.2,543.03,243.74,543.22,244.26z"/>
	<path class="st11" d="M365.97,165.46c3.1,7.31,6.74,14.4,10.86,21.2c1.1,1.82,2.56,3.82,4.68,3.94c-0.36-4.21-0.98-8.41-1.85-12.55
		c1.49,5.3,4.04,10.3,7.45,14.62c1.13,1.44,2.45,2.85,4.18,3.42c1.73,0.57,3.98-0.04,4.67-1.74c1.39,3.92,6.19,6.25,10.13,4.91
		c-1.9,4.19-2.06,9.15-0.43,13.47c-1.79-3.06-4.88-5.31-8.34-6.07c-0.54,5.17-0.5,10.42,0.1,15.59c-2.85-2.88-5.7-5.74-8.55-8.62
		c0.15,2.91,0.29,5.8,0.44,8.71c-0.54-1.56-1.8-3.5-3.33-2.87c-3.81-11.57-12.65-20.83-17.36-32.06c-1.74-4.14-2.89-8.49-3.66-12.89
		c-0.78-4.44-1.18-8.95-1.44-13.45c-0.08-1.25-0.13-2.51-0.19-3.76c-0.02-0.63-0.06-1.27-0.08-1.9c-0.01-0.4,0.07-1.02-0.29-1.3
		c-0.18,0.83,0.1,1.99,0.26,2.83c0.17,0.98,0.4,1.95,0.69,2.9C364.44,161.76,365.18,163.62,365.97,165.46z"/>
	<path class="st11" d="M425.13,162.03c0.91,5.09,2.68,10.53,7.02,13.34c0.28,0.18,0.59,0.35,0.91,0.26
		c0.33-0.09,0.52-0.43,0.66-0.74c0.61-1.33,1.02-2.75,1.22-4.21c-0.15,2.56,0.8,5.15,2.57,7c1.01,1.05,2.39,1.88,3.85,1.78
		c1.46-0.11,2.84-1.48,2.55-2.91c1.56,3.71,5.77,5.95,9.79,5.72c4.02-0.22,7.74-2.62,10.12-5.86c2.39-3.24,3.56-7.26,3.95-11.27
		c-1.6,1.84-3.93,2.88-6.27,3.56c-3.98,1.17-8.69,1.33-11.84-1.36c-2.16-1.84-3.18-4.64-4.75-7c-1.58-2.35-4.36-4.44-7.06-3.56
		c-1.85,0.61-3.71,2.52-5.38,1.51c-0.89-0.54-1.16-1.68-1.26-2.7c-0.36-3.87,0.7-7.67,1.29-11.46c0.3-1.88,0.51-3.82,0.33-5.73
		c-0.12-1.34-0.4-3.18-1.66-3.94c-2.07-1.25-4.64,0.95-5.63,2.64c-0.85,1.45-1.06,3.25-1.25,4.89c-0.23,2.04-0.32,4.1-0.34,6.16
		c-0.04,4.17,0.26,8.36,0.92,12.47C424.97,161.09,425.05,161.55,425.13,162.03z"/>
	<path class="st11" d="M460.08,122.7c9.81,7.54,15.39,20.26,14.3,32.59c2.93-2.16,4.94-5.55,5.41-9.17
		c2.25,2.36,3.89,5.29,4.73,8.44c-0.51-0.73,0.41-1.79,1.3-1.68s1.52,0.89,1.93,1.69c0.68,1.34,0.99,2.87,0.87,4.37
		c1.7-0.48,2.39-2.5,2.72-4.24c1.59-8.34,1.03-17.07-1.59-25.14c-0.38-1.17-1.2-2.57-2.41-2.35c0.04,1.1-1.1,1.96-2.2,1.99
		s-2.12-0.55-3.02-1.19c-2.68-1.93-4.77-4.56-7.04-6.97c-3.68-3.93-8.07-7.46-13.31-8.75c-3.65-0.89-7.73-0.5-11.01,1.4
		c-0.88,0.51-3.9,2.28-2.73,3.52c0.59,0.64,1.65,0.84,2.47,0.99c1.08,0.19,2.12,0.46,3.14,0.83
		C455.99,119.89,458.12,121.2,460.08,122.7z"/>
	<path class="st11" d="M507.14,156.76c0.24,1.2,0.75,2.65,1.96,2.83c0.85,0.13,1.62-0.47,2.22-1.07c1.23-1.23,2.23-2.67,2.96-4.23
		c0.2-0.45,0.49-0.97,0.98-1c0.47-0.03,0.81,0.43,1.04,0.83c1.29,2.2,2.3,4.58,3.01,7.03c0.65,2.24,1.07,4.59,2.31,6.57
		c0.62,0.98,1.59,1.91,2.74,1.86c2.54-0.11,2.69-4.18,4.89-5.47c0.3-0.18,0.67-0.3,1-0.21c0.46,0.12,0.75,0.56,0.99,0.97
		c2.26,3.96,4.06,8.16,5.36,12.53c0.19,0.66,0.42,1.39,1,1.77c0.94,0.64,2.22,0.01,3.13-0.68c1.65-1.25,3.14-2.74,4.38-4.41
		c3.49,6.38,3.46,14.04,3.16,21.31c3.03-0.58,4.54-3.94,5.56-6.86c3.27-9.36,6.61-19.2,5.02-28.99c-1.42-0.79-2.55,1.57-4.1,2.05
		c-1.04,0.33-2.18-0.31-2.79-1.22s-0.78-2.02-0.92-3.11c-0.87-6.89-0.94-14.46-5.42-19.77c-0.36-0.42-0.78-0.85-1.33-0.92
		c-1.12-0.15-1.81,1.17-2.13,2.25c-1.28,4.37-2.12,8.88-2.51,13.42c-1.88-0.22-3.24-1.94-3.96-3.69c-0.72-1.75-1-3.69-1.88-5.36
		c-0.23-0.43-0.51-0.86-0.92-1.13c-0.99-0.63-2.39-0.07-3.07,0.89c-0.67,0.97-0.82,2.19-0.94,3.37c-1.97-3.85-3.08-8.09-5.05-11.95
		c-3.7-7.27-10.49-12.89-18.32-15.18c0.77,3.33,3.04,6.09,4.79,9.03c2.73,4.59,4.31,9.88,4.54,15.22c0.05,1.18-0.15,2.65-1.26,3.06
		c-0.79,0.29-1.69-0.16-2.2-0.81c-0.52-0.66-0.74-1.49-0.97-2.3c-1-3.42-2.45-6.7-4.32-9.74c-0.66-1.09-1.44-2.11-2.35-2.99
		c-0.66-0.65-1.73-1.71-2.72-1.77c-1.82-0.12-1.45,2.92-1.01,3.89c1.11,2.42,2.24,4.77,3.09,7.31c0.86,2.56,1.53,5.18,2.14,7.81
		C505.94,150.84,506.53,153.8,507.14,156.76z"/>
	<path class="st11" d="M414.77,108.43c-1.12,6.03-1.51,12.17-1.17,18.29c0.09,1.69,0.25,3.41,0.96,4.94
		c0.72,1.52,2.11,2.84,3.79,3.03c-0.06-1.71-0.12-3.49,0.62-5.03c0.74-1.54,2.56-2.7,4.16-2.12c1.08,0.39,2.12,1.5,3.16,1.02
		c0.42-0.2,0.72-0.64,1.16-0.78c0.59-0.19,1.21,0.19,1.83,0.2c0.77,0.02,1.44-0.5,2.03-1c0.77-0.65,1.53-1.29,2.3-1.94
		c0.32-0.27,0.67-0.58,0.75-0.99c0.14-0.72-0.55-1.34-1.25-1.54c-2.23-0.67-5.18,0.94-6.68-0.83c-0.63-0.75-0.66-1.81-0.98-2.72
		c-0.5-1.46-1.84-2.59-3.35-2.89c-0.58-0.11-1.25-0.12-1.69-0.52c-0.63-0.56-0.53-1.56-0.37-2.39c0.92-4.95,1.55-9.94,1.89-14.97
		c0.04-0.57,0.49-2.29-0.26-2.52c-0.65-0.21-1.47,0.51-1.89,0.92c-1.42,1.44-2.43,3.27-3.19,5.12
		C415.74,103.87,415.18,106.14,414.77,108.43z"/>
	<path class="st12" d="M431.1,246.5c0,0,10.29-9.18,21.72-11.43c13.35-2.63,17.06,3.54,17.06,3.54s-6.17,6.47-17.31,8.6
		C441.42,249.31,431.1,246.5,431.1,246.5z"/>
	
		<ellipse transform="matrix(0.9993 -0.0373 0.0373 0.9993 -8.6671 17.0605)" class="st13" cx="452.63" cy="240.68" rx="8.81" ry="8.81"/>
	<path class="st4" d="M430.01,246.64c0,0-0.12-3.15,2.78-5.82c4.12-3.79,11.24-9.69,21.86-10.23c13.9-0.72,15.23,8.02,15.23,8.02
		s-4.33-1.81-19.39,3.26C435.42,246.93,430.01,246.64,430.01,246.64z"/>
	<path class="st14" d="M430.01,246.64c0,0,8.51,7.8,21.43,4.91c12.92-2.88,18.46-12.95,18.46-12.95s-8.84,3.29-22.1,5.66
		C437.19,246.15,430.01,246.64,430.01,246.64z"/>
	<path class="st12" d="M498.88,234.98c0,0,11.2-8.98,22.18-10.66c10.99-1.67,16.12,4.21,16.12,4.21s-6.13,6.22-16.82,7.91
		C509.66,238.11,498.88,234.98,498.88,234.98z"/>
	
		<ellipse transform="matrix(2.454777e-03 -1 1 2.454777e-03 289.4501 750.0169)" class="st13" cx="520.66" cy="229.93" rx="8.81" ry="8.4"/>
	<path class="st4" d="M498.88,234.98c0,0,0.01-3.15,2.87-5.7c4.07-3.62,11.07-9.23,21.22-9.36c13.27-0.17,14.2,8.61,14.2,8.61
		s-3.05-1.73-17.81,1.94C503.83,234.35,498.88,234.98,498.88,234.98z"/>
	<path class="st14" d="M498.88,234.98c0,0,7.81,8.13,20.23,5.76c12.42-2.37,18.08-12.21,18.08-12.21s-9.94,2.44-20.4,4.81
		C506.11,235.78,498.88,234.98,498.88,234.98z"/>
	<g>
		<path class="st10" d="M428.97,219.98c6.71-6.18,33.35-30.28,43.66-16.18c3.98,17.03-8.71,9.33-21.76,14.2
			c-10.18,4.16-17.94,10.8-27.98,15.65C417.85,228.92,422.26,226.15,428.97,219.98z"/>
	</g>
	<g>
		<path class="st10" d="M494.1,209.5c1.6,4.34,30.86-5.1,40.76-0.11c4.32,2.02,5.9,0.35,5.25-3.68c-9.15-10.08-21.85-7.56-34.4-8.93
			C494.97,194.12,487.49,191.62,494.1,209.5z"/>
	</g>
	<path class="st9" d="M474.35,305.22c10.6,3.37,46.49,1.03,49.49-17.44c-6.12,1.26-15.2,4.4-21.13,6.36
		c-10.1,3.34-17.41,2.85-28.05,2.97c-4.62,0.04-14.35-2.5-14.68-2.12C459.12,297.8,468.75,303.44,474.35,305.22z"/>
	<path class="st15" d="M461.44,296.33c0,0,15.44,8.72,24.45,9.17c9.01,0.46,16.33,0.24,23.17-4.52
		c5.93-4.12,13.79-12.37,13.79-12.37l-19.26,4.87l-21.13,2.27L461.44,296.33z"/>
	<path class="st4" d="M460.48,294.69c-0.78,0.6-0.43,1.45-0.33,1.46c1.91,0.13,27.46,5.29,36.58,3.74
		c8.49-1.44,24.1-11.14,27.64-11.75c0.28-0.05,0.3-0.96-0.41-1.29c-0.71-0.34-12.64,2.24-16.44,2.34c-2.63,0.06-6.84,0.48-8.27,1.44
		l-1.26,1c-1.33,1.05-3.09,1.37-4.7,0.86l-1.1-0.35c-2.44-0.77-6.8,0.41-9.31,0.73C478.89,293.35,460.74,294.48,460.48,294.69z"/>
	<path class="st9" d="M452.86,296.66c-0.03,0.21-0.06,0.43-0.19,0.6c-0.37,0.49-1.19,0.19-1.58-0.29c-0.93-1.14-0.82-2.79-0.52-4.22
		c0.24-1.15,0.59-2.28,1.1-3.34c0.26-0.53,0.55-1.04,0.9-1.51c0.25-0.34,0.64-0.98,1.09-1.08c0.38-0.08,0.71,0.25,0.87,0.56
		c0.24,0.48,0.12,0.87-0.07,1.33c-0.47,1.18-0.77,2.42-0.99,3.67C453.21,293.8,453.05,295.23,452.86,296.66z"/>
	<path class="st9" d="M530.55,284.13c0.11,0.18,0.22,0.38,0.4,0.48c0.53,0.32,1.17-0.28,1.35-0.87c0.43-1.4-0.29-2.89-1.12-4.11
		c-0.66-0.97-1.41-1.89-2.28-2.68c-0.44-0.39-0.91-0.75-1.41-1.05c-0.36-0.22-0.97-0.67-1.41-0.58c-0.38,0.07-0.56,0.5-0.59,0.85
		c-0.05,0.53,0.22,0.85,0.57,1.2c0.88,0.91,1.63,1.95,2.31,3.02C529.14,281.62,529.83,282.89,530.55,284.13z"/>
	<path class="st14" d="M413.96,246.17c1.03,1.59,3.36,1.43,5.22,1.09c1.48-0.27,2.97-0.55,4.45-0.82c0.58-0.11,3.38-0.19,3.14-1.12
		c-0.24-0.93-6.94,0.12-7.96,0.23c-0.82,0.09-1.64,0.19-2.46,0.29C416.07,245.87,414.08,246.33,413.96,246.17z"/>
	<path class="st14" d="M425.62,247.99c-3.61,0.78-7.06,2.31-10.06,4.47c3.87-0.48,7.61-1.94,10.78-4.2c-0.3-0.23-0.61-0.47-0.91-0.7
		"/>
</g>
</svg>
