<?xml version="1.0" encoding="utf-8"?>
<!-- Generator: Adobe Illustrator 25.2.1, SVG Export Plug-In . SVG Version: 6.00 Build 0)  -->
<svg version="1.1" id="Layer_1" xmlns="http://www.w3.org/2000/svg" xmlns:xlink="http://www.w3.org/1999/xlink" x="0px" y="0px"
	 viewBox="0 0 998.21 973.21" style="enable-background:new 0 0 998.21 973.21;" xml:space="preserve">
<style type="text/css">
	.st0{fill:#FF6E29;}
	.st1{fill:#E27247;}
	.st2{fill:#9DCBA4;}
	.st3{fill:#8DA38E;enable-background:new    ;}
	.st4{fill:#45585A;}
	.st5{fill:#83A097;}
	.st6{fill:#4D1C39;}
	.st7{fill:#3C2C40;}
	.st8{fill:#FFFEFF;}
	.st9{fill:#4E1C38;}
	.st10{fill:#82A295;}
	.st11{fill:#AD4930;enable-background:new    ;}
	.st12{fill:#3A2B40;enable-background:new    ;}
	.st13{fill:#FFFFFC;enable-background:new    ;}
	.st14{fill:#4D1C39;enable-background:new    ;}
</style>
<path class="st0" d="M619.73,476.86c-1.32,20.57,1.47,41.17,4.86,61.49c11.82,71.14,30.78,141.09,56.53,208.45
	c10.36,27.12,22.5,54.8,44.35,73.91c21.85,19.12,56.01,27.14,80.28,11.2c4.48-2.94,8.55-6.67,11.2-11.33
	c2.46-4.34,3.59-9.3,4.52-14.2c6.49-34.29,4.53-70.14-5.67-103.51c-7.48-24.51-19.24-47.47-29.65-70.89
	c-8.86-19.94-16.77-40.28-24.69-60.62c-7.39-19-14.8-38.05-19.92-57.78c-3.02-11.63-5.24-23.47-9.12-34.84
	c-2.61-7.63-5.95-14.98-9.28-22.32c-5.71-12.55-11.4-25.1-17.11-37.64c-4.19-9.24-8.48-18.61-15.07-26.32
	c-5.74-6.73-13.98-12.58-22.93-13.87c-3.79-0.55-5.96,1.68-8.37,4.33c-3.25,3.58-6.33,7.31-9.22,11.19
	c-11.5,15.38-20.11,32.89-25.31,51.38C622.24,455.72,620.42,466.25,619.73,476.86z"/>
<path class="st0" d="M659.21,846.79c-11.26,25.47-43.1,28.56-67.83,28.23c-86.42,1.21-175.49,5.81-261.76,11.08
	c-41.93-75.62,16.7-275.6-33.06-322.08c-25.92-25.92-72.14-32.19-101.37-52.9c12.51-42.82,25.26-98.49,67.92-122.37
	c39.41-25.14,83.69-44.83,129.42-54.56c6.03-39.47,110.13-26.3,140.1-22c9.55,3.23,20.94,8.2,24.03,17.98
	c-0.43,0.54,101.03,29.68,129.67,53.64c62.49,80.87-14.28,124.48-25.53,149.76c-23.87,50.23-6.41,53.03-10.46,108.5
	C644.01,713.02,638.66,778.72,659.21,846.79z"/>
<path class="st1" d="M614.36,521.5c4.14,37.56,8.28,75.11,12.41,112.67c0.27,2.48,0.4,5.37-1.46,7.04
	c-2.07,1.86-5.32,1.07-7.92,0.08c-13.14-5.01-25.23-12.39-37.39-19.46c-27.19-15.81-55.15-30.29-83.75-43.36
	c-14.86-6.79-29.98-13.23-45.88-17c-2.12-0.5-4.36-0.95-6.45-0.33c-7.42,2.22-5.27,13.27-1.57,20.08
	c13.41,24.7,26.81,49.39,40.22,74.09c3.58,6.59,6.87,15.57,1.51,20.81c-1.9,1.86-4.52,2.74-7.02,3.65
	c-35.34,12.9-63.2,44.57-71.48,81.27c-1.96,8.69-2.74,18.38,1.91,25.99c8.03,13.13,26.58,13.06,41.25,17.7
	c8.21,2.59,15.8,7.1,22.01,13.06c3.38,3.25,6.52,7.03,10.87,8.77c5.29,2.11,11.23,0.78,16.82-0.32c27.51-5.42,56.24-4.56,83.38,2.51
	c5.21,1.36,10.45,2.95,15.84,2.91c10.47-0.08,20.16-6.52,26.33-14.98c6.17-8.46,9.3-18.75,11.48-29c4.08-19.25,5.15-39,6.2-58.65
	c0.98-18.24,1.95-36.48,2.93-54.72c0.7-13.16,1.41-26.32,1.99-39.49c0.49-11.2,2.4-23.6,0.08-34.67c-0.69-3.32-1.98-6.46-2.92-9.7
	c-1.37-4.7-1.9-9.51-2.55-14.35c-1.34-10.05-3.43-20.11-7.34-29.5c-2.09-5.01-4.71-9.82-8.01-14.15c-1.59-2.09-3.34-4.06-5.23-5.88
	C619.72,525.73,614.45,522.38,614.36,521.5z"/>
<path class="st2" d="M412.2,272.48c0,0-9.38,44.24-4.22,62.57c5.15,18.33,67.62,117.69,81.06,117.12s47.8-89.63,48.95-117.69
	c1.15-28.06,1.15-53.39,0-52.47C536.85,282.93,412.2,272.48,412.2,272.48z"/>
<g id="рука_2_">
	<g>
		<path class="st2" d="M624.58,883.5c-39.35,3.78-78.97-11.5-110.63-34.26c-23.26-19.6-2.09-41.46,17.99-55.88
			c21.22-13.65,44.8-15.68,68.01-8.06c18.56,6.22,59.49,13.25,64.28,18.35c2.8,2.97-2.17,24.32-4.3,27.8
			C660.39,852.69,647.28,880.4,624.58,883.5z"/>
		<path class="st2" d="M611.23,881.54c-1.54-3.54-1.09-7.73,0.58-11.22c1.44-3.01,3.78-5.65,6.77-7.15
			c7.15-3.61,15.76-0.14,22.55,4.06c5.07,3.14,9.87,6.69,14.36,10.62c2.41,2.11,4.76,4.37,6.32,7.17c1.56,2.81,2.26,6.23,1.2,9.25
			c-1.57,4.51-6.67,7.03-11.45,7.03c-4.79,0.01-9.33-1.95-13.64-3.98C629.55,893.37,613.82,887.47,611.23,881.54z"/>
		<path class="st2" d="M568.99,799.78c1.1-16.5,35.79-17.54,50.51-16.64c17.29,5.19,4.68,21.09-7.25,25.8
			C596.8,815.02,567.69,819.04,568.99,799.78z"/>
		<path class="st2" d="M644.42,884.04c0.49-1.42,0.95-3.08,2.07-4.17c1.24-1.21,3.29-2.01,4.95-2.31c4.3-0.81,9.23,0.86,12.4,3.77
			c2.93,2.67,4.64,6.7,4.25,10.65c-0.37,3.95-2.94,7.68-6.61,9.21c-1.32,0.55-2.73,0.83-4.15,0.98c-2.06,0.22-4.19,0.18-6.15-0.48
			c-4.07-1.36-6.92-5.34-7.59-9.57C643.15,889.4,643.54,886.64,644.42,884.04z"/>
		<path class="st2" d="M655.09,903.94c-2.06-1.77-3.98-3.71-5.58-5.91c-1.08-1.48-2.44-3.24-2.7-5.11c-0.24-1.85,0.65-3.89,1.5-5.47
			c1.16-2.14,3.02-3.92,5.31-4.82c5.17-2.02,10.92,0.31,15.85,2.81c10.17,5.15,19.87,11.22,28.95,18.12
			c1.98,1.52,3.94,3.08,5.3,5.15c1.36,2.07,2,4.75,1.11,7.05c-1.4,3.58-5.74,4.96-9.57,5.18c-11.73,0.7-22.84-4.98-32.64-11.42
			C660.01,907.81,657.44,906,655.09,903.94z"/>
		<path class="st2" d="M628.53,804.05c-2.23-0.24-4.43-0.65-6.49-1.42c-1.39-0.52-3.08-1.09-4-2.29c-0.9-1.18-1.01-3.08-0.99-4.63
			c0.03-2.12,0.76-4.31,2.13-6.09c3.09-4.02,8.31-5.24,12.99-5.94c9.63-1.42,19.27-1.95,28.76-1.59c2.06,0.08,4.15,0.22,5.97,1
			c1.82,0.78,3.34,2.37,3.56,4.45c0.36,3.23-2.39,6.39-5.17,8.48c-8.54,6.36-19.08,7.88-28.95,8.21
			C633.71,804.28,631.09,804.28,628.53,804.05z"/>
		<path class="st3" d="M684.32,908.69c-0.65-1.79-0.78-4.2,0.57-5.69c1.63-1.79,4.38-0.96,6.34-0.34c4.87,1.55,9.07,5.04,12.29,9.17
			c0.47,0.59,0.92,1.21,1.14,1.94c0.39,1.33-0.09,2.82-1.03,3.78c-0.93,0.95-2.23,1.42-3.51,1.52c-3.32,0.26-6.44-1.63-9.23-3.6
			C688.44,913.71,685.49,911.75,684.32,908.69z"/>
		<path class="st3" d="M649.46,787.34c-1.99-0.49-4.29-1.43-5.02-2.44c-0.88-1.23,1.23-1.79,2.76-2.16c3.81-0.93,9.1-0.88,14.5-0.26
			c0.77,0.08,1.57,0.18,2.35,0.4c1.42,0.41,2.57,1.16,3.01,1.83c0.43,0.68,0.23,1.28-0.29,1.73c-1.35,1.15-4.65,1.39-7.83,1.5
			C656.12,788.04,652.85,788.2,649.46,787.34z"/>
		<path class="st2" d="M686.38,844.48c10.37-6.96,33.86,5.77,44.73,15.42c10.36,13.87-9.19,21.54-20.37,15.32
			C693.42,871.2,669.74,855.64,686.38,844.48z"/>
		<path class="st2" d="M659.45,861.54c0.49-1.42,0.95-3.08,2.07-4.17c1.24-1.21,3.29-2.01,4.95-2.31c4.3-0.81,9.23,0.86,12.4,3.77
			c2.93,2.67,4.64,6.7,4.25,10.65c-0.37,3.95-2.94,7.68-6.61,9.21c-1.32,0.55-2.73,0.83-4.15,0.98c-2.06,0.22-4.19,0.18-6.15-0.48
			c-4.07-1.36-6.92-5.34-7.59-9.57C658.19,866.91,658.58,864.13,659.45,861.54z"/>
		<path class="st2" d="M671.33,811.68c10.79-6.05,33.46,8.65,43.72,19.2c9.52,14.72-10.48,20.67-21.26,13.52
			C676.72,838.89,654.04,821.33,671.33,811.68z"/>
		<path class="st2" d="M721.92,840.64c-1.97,13.41-23.91,11.69-24.48-1.98C694.53,818.26,724.34,822.84,721.92,840.64z"/>
		<path class="st2" d="M637.28,796.3c-1.15,13.58-23.1,13.75-24.51,0.15C608.6,776.33,638.59,778.32,637.28,796.3z"/>
		<path class="st2" d="M643.74,796.29c10.79-6.05,33.46,8.65,43.72,19.2c9.52,14.72-10.48,20.67-21.26,13.52
			C649.14,823.5,626.46,805.94,643.74,796.29z"/>
		<path class="st2" d="M708.29,829.34c11.92-4.04,65.15,35,36.03,37.21c-11.69,0.88-22.96-7.27-32.35-14.52
			C703.03,846.02,692.66,835.58,708.29,829.34z"/>
		<path class="st3" d="M730.07,852.71c-0.66-2.01-0.62-4.62,1.08-6.08c2.06-1.78,5.28-0.61,7.54,0.24
			c5.66,2.13,10.37,6.29,13.9,11.03c0.49,0.67,0.99,1.39,1.2,2.19c0.36,1.47-0.34,3.03-1.5,3.97c-1.18,0.94-2.75,1.32-4.28,1.31
			c-3.97-0.03-7.53-2.37-10.69-4.75C734.52,858.53,731.17,856.12,730.07,852.71z"/>
		<path class="st2" d="M643.05,826.99c10.38-6.94,48.78,10.27,59.65,19.92c10.36,13.87-9.19,21.54-20.37,15.32
			C664.99,858.21,626.41,838.14,643.05,826.99z"/>
		<path class="st2" d="M738.55,869.04c-1.15,13.58-23.1,13.75-24.51,0.15C709.88,849.08,739.86,851.07,738.55,869.04z"/>
		<path class="st2" d="M662.35,860.68c9.87-7.93,34.11,2.58,45.58,11.19c11.27,12.87-7.7,22.38-19.25,17.21
			C671.15,886.68,646.53,873.37,662.35,860.68z"/>
		<path class="st2" d="M682.58,846.72c0.49-1.42,0.95-3.08,2.07-4.17c1.24-1.21,3.29-2.01,4.95-2.31c4.3-0.81,9.23,0.86,12.4,3.77
			c2.93,2.67,4.64,6.7,4.25,10.65c-0.37,3.95-2.94,7.68-6.61,9.21c-1.32,0.55-2.73,0.83-4.15,0.98c-2.06,0.22-4.19,0.18-6.15-0.48
			c-4.07-1.36-6.92-5.34-7.59-9.57C681.32,852.09,681.7,849.32,682.58,846.72z"/>
		<path class="st2" d="M715.96,880.3c-0.23,13.67-22.08,15.88-24.39,2.44C686.07,863.05,716.06,862.24,715.96,880.3z"/>
		<path class="st2" d="M724.27,858.95c11.63-5.06,67.07,29.33,38.19,34.04c-11.59,1.88-23.33-5.27-33.13-11.7
			C720.07,876.06,709.1,866.53,724.27,858.95z"/>
		<path class="st2" d="M633.18,850.38c9.87-7.93,34.11,2.58,45.58,11.19c11.27,12.87-7.7,22.38-19.25,17.21
			C641.98,876.39,617.37,863.07,633.18,850.38z"/>
		<path class="st2" d="M701.07,871.55c11.23-6.14,68.73,22.98,40.3,30.39c-11.42,2.97-23.58-3.08-33.77-8.58
			C698.01,889.02,686.45,880.54,701.07,871.55z"/>
		<path class="st3" d="M725.87,891.18c-0.88-2.18-1.19-5.18,0.2-7.2c1.67-2.43,4.83-1.73,7.06-1.18c5.56,1.36,10.5,5.23,14.44,9.99
			c0.58,0.69,1.12,1.4,1.42,2.3c0.53,1.6,0.1,3.54-0.87,4.84c-0.98,1.32-2.4,2.05-3.83,2.34c-3.69,0.74-7.33-1.25-10.6-3.4
			C730.81,897,727.35,894.88,725.87,891.18z"/>
		<path class="st3" d="M746.39,880.09c-0.77-2.02-0.92-4.75,0.69-6.43c1.94-2.03,5.2-1.1,7.53-0.4c5.78,1.74,10.75,5.67,14.57,10.32
			c0.55,0.66,1.09,1.37,1.34,2.19c0.46,1.5-0.11,3.19-1.23,4.27c-1.1,1.08-2.65,1.61-4.18,1.73c-3.94,0.31-7.64-1.83-10.94-4.04
			C751.27,885.77,747.77,883.54,746.39,880.09z"/>
		<path class="st4" d="M646.42,869.55c-3.87-2.36-7.96-4.35-12.2-5.96c-1.2-0.45-5.01-1.04-5.5-2.29c-0.84-2.14,2.97-1.55,3.92-1.27
			c6.73,1.96,13.06,5.31,18.5,9.76c1.24,1.01,2.51,2.76,1.5,4C652.71,873.68,646.96,869.87,646.42,869.55z"/>
		<path class="st4" d="M726.12,867.06c-5.73-5.59-29.24-13.39-36.26-16.05c-15.42-3.08-30.59-16.46-45.12-17.12
			c9.11,9.96,21.8,15.84,34.45,20.59C685.49,854.81,724.99,876.71,726.12,867.06z"/>
		<path class="st4" d="M729.37,851.08c4.91-12.98-59.02-25.94-73.66-37.89c-1.16,4.08,2.75,7.72,6.37,9.92
			C688.8,838.04,703.02,836.97,729.37,851.08z"/>
		<path class="st4" d="M625.92,858.48c-1.36-1.9-2.44-4.04-3.14-6.26c-0.35-1.06-1.2-3.44-0.18-4.38c1.31-1.21,4.26,1.7,5.07,2.43
			c2.36,2.15,4.12,4.91,5.15,7.93c0.58,1.75,0.91,3.59,0.94,5.43C630.47,863.6,627.69,860.97,625.92,858.48z"/>
		<path class="st4" d="M639.49,830.99c-0.45-0.92-1.12-1.71-1.5-2.65c-0.38-0.94-0.43-2.13,0.26-2.88c0.91-0.99,2.55-0.67,3.78-0.15
			c4.21,1.78,7.63,5.29,9.33,9.52c0.43,1.08,0.76,2.24,0.56,3.38c-0.21,1.14-1.05,2.23-2.19,2.42c-1.3,0.19-2.47-0.77-3.42-1.7
			c-3.5-3.48-6.6-7.38-9.19-11.59"/>
		<path class="st4" d="M660.76,795.78c-7.38-5.71-16.49-6.94-25.2-8.02c-14.2-1.76-28.4-3.51-42.59-5.27
			c11.62,5.94,24.58,6.35,37.15,7.56c8.37,0.81,16.71,2.03,25.01,3.66c3.24,0.64,6.91,1.7,8.43,5.15"/>
	</g>
	<path class="st2" d="M428.93,776.97c-20.45-0.64-43.18-0.48-58.22,13.39c-7.19,6.63-11.66,15.69-15.14,24.83
		c-3.98,10.48-6.9,21.66-5.92,32.83c0.98,11.17,6.37,22.39,15.94,28.24c16.6,10.15,76.39-6.74,98.72-7.86
		c23.9-1.19,60.76-4.6,84.08-9.96c14.29-3.28,23.78-11.4,33.61-22.44c10.56-11.87,15.07-27.82,7.78-42.56
		c-2.21-4.47-5.15-8.42-9.94-10.25c-5.86-2.24-12.72-1.88-18.87-2.07c-20.77-0.65-41.55-1.31-62.32-1.96
		c-20.69-0.65-41.37-1.3-62.06-1.95C434.03,777.13,431.48,777.05,428.93,776.97z"/>
</g>
<path class="st0" d="M193.73,515.72c-20.23,112.52-37.31,228.74-12.77,340.4c1.86,8.48,4.06,17.12,9.01,24.24
	c6.62,9.52,17.43,15.25,28.3,19.3c17.57,6.55,36.73,9.63,55.23,6.59c18.51-3.04,36.28-12.59,47.29-27.77
	c5.7-7.86,9.48-16.95,12.4-26.21c8.41-26.59,10.13-54.8,10.76-82.69c1.55-69.26-3.36-138.66-14.63-207.01
	c-4.06-24.62-9.2-49.77-22.72-70.75c-13.51-20.97-37.26-37.1-62.09-34.75c-11.09,1.05-21.56,5.71-30.54,12.18
	c-3.55,2.55-8.87,5.86-10.72,9.95c-2.29,5.07-3.91,10.75-5.31,16.13C196.2,502.05,194.95,508.89,193.73,515.72z"/>
<path class="st0" d="M342.1,735.37c18.01,0.01,36.2,1.42,53.37,6.87c6.01,1.91,11.9,4.31,18.1,5.48c6.53,1.23,13.22,1.06,19.86,0.97
	c18.65-0.26,37.32,0.14,55.94,1.21c6.01,0.34,13.27,1.63,15.4,7.26c-33.11,22.04-47.17,68.71-31.75,105.37
	c0.51,1.21,1.05,2.47,0.93,3.77c-0.27,2.92-3.54,4.44-6.33,5.36c-58.39,19.24-119.24,30.02-180.21,37.91
	c-16.86,2.18-35.34,3.81-49.61-5.43c-14.33-9.27-20.48-27.12-22.88-44.02c-2.36-16.64-1.98-33.66,1.01-50.2
	c1.3-7.2,3.21-14.27,5.09-21.33c1.11-4.18,2.24-8.46,4.3-12.3c4.93-9.19,15.49-15.37,24.23-20.32
	c12.98-7.35,27.23-12.27,41.76-15.47c14.82-3.26,30-4.77,45.16-5.06C338.34,735.39,340.22,735.37,342.1,735.37z"/>
<path class="st1" d="M668.25,468.49c1.89-13.13,5.58-28.62,18.03-33.21c-1.35,20.24-2.7,40.48-4.05,60.72
	c-0.14,2.03-0.11,4.43,1.55,5.62c1.2,0.86,2.81,0.73,4.28,0.56c7.88-0.9,15.76-1.8,23.64-2.69c2.6-0.3,5.38-0.56,7.68,0.69
	c6.57,3.57,2.55,13.56-1.97,19.52c-24.16,31.83-43.54,67.28-57.27,104.81c17.49,4.18,34.98,8.36,52.47,12.54
	c7.05,1.68,15.7,5.29,15.63,12.54c-5.26,1.92-9.27,6.93-9.99,12.48c15.8,2.39,31.1,8.12,44.58,16.71
	c-24.96,17.6-58.68,13.13-88.77,7.91c-4.08-0.71-8.38-1.52-11.49-4.25c-2.84-2.5-4.23-6.22-5.46-9.8
	c-8.26-23.88-14.77-50.31-8.75-75.48c1.4-5.87,3.03-11.2,3.9-17.2c1.02-7.11,2.04-14.23,3.07-21.34
	c2.03-14.13,4.06-28.26,6.09-42.39C663.68,500.3,665.97,484.39,668.25,468.49z"/>
<g>
	<path class="st5" d="M518.55,347.58c-9.77,6.95-21.79,10.43-33.78,10.75c-3.39,0.09-7.56-0.59-8.69-3.79
		c-1.15-3.26,1.84-6.46,4.75-8.32c8.22-5.23,18.03-7.24,27.08-10.85c4.81-1.92,9.43-4.32,13.78-7.14c2.21-1.43,4.35-2.97,6.41-4.61
		c2.01-1.6,3.83-3.4,5.78-5.07c0.67-0.57,3.27-2.36,3.97-1.01c0.37,0.71-0.25,2.18-0.43,2.9c-0.28,1.14-0.6,2.27-0.97,3.38
		c-1.5,4.49-3.73,8.72-6.52,12.55c-2.81,3.85-6.19,7.29-9.98,10.19C519.49,346.9,519.02,347.24,518.55,347.58z"/>
	<path class="st4" d="M423.41,321.89c17.35,28.67,73.03,44.32,97.61,14.23c-16.25,19.9-79.14-39.16-79.14-39.16
		s-26.3-44.14-30.73-19.14C411.15,277.82,410.53,300.6,423.41,321.89z"/>
	<path class="st6" d="M386.05,221.06c-0.44-31.31-38.27-54.42-22.62-86.77c5.7-19.94,36.01-35.95,52.12-20.7
		c-8.97-24.92,24.88-60.17,58.94-37.38c11.95-9.39,30.12-5.12,34.7,9.76c14.86-7.58,45.04,1.33,41.13,19.59
		c32.41,33.42,25.37,71.25,0.18,106.43c-13.13,0.42-27.35,2.18-40.22,4.84C477.06,221.74,402.28,270.15,386.05,221.06z"/>
	<path class="st2" d="M411.88,238.61c-2.1-18.45-26.83-35.7-37.24-13.58c-7.33,20.83,15.78,71.2,37.57,48
		c5.52,44.01,45.01,76.8,82.56,71.75c44.29-3.37,56.95-48.5,53.77-83.55c27.25,7.5,24.74-95.83-3.32-54.12
		c21.14-79.74-84.05-92.68-126.07-45.28C397.12,183.38,415.31,213.86,411.88,238.61z"/>
	<path class="st5" d="M386.29,219.7c-0.3,0.34-0.59,0.71-0.66,1.15c-0.19,1.21,1.24,1.96,2.39,2.38
		c9.58,3.47,17.75,10.65,22.43,19.7c0.95,1.85,1.77,3.77,2.86,5.54c0.24,0.39,0.61,0.82,1.06,0.72c0.51-0.11,0.6-0.78,0.58-1.3
		c-0.53-13.1-7.76-25.75-18.77-32.86c-1.02-0.66-2.15-1.3-3.36-1.28c-1.89,0.03-2.06,1.39-2.8,2.66c-0.4,0.68-1.22,1.03-1.82,1.5
		C387.51,218.44,386.87,219.04,386.29,219.7z"/>
	<path class="st5" d="M396.61,248.11c-2.34-1.48-5.09-2.3-7.86-2.33c-1.27-0.01-2.58,0.15-3.68,0.77c-1.1,0.63-1.96,1.8-1.92,3.07
		c0.01,0.33,0.08,0.67,0.29,0.93c0.22,0.27,0.55,0.41,0.87,0.54c4.96,2.05,10.12,3.63,15.37,4.72c0.66-0.59,0.74-1.63,0.43-2.46
		c-0.31-0.83-0.93-1.5-1.53-2.15c-1.18-1.26-2.35-2.52-3.53-3.78"/>
	<path class="st6" d="M414.74,205.19c3.37-5.21,8.72-8.8,12.69-13.58c5.33-6.42,7.98-15,7.2-23.3c1.24,7.63,8.1,13.76,15.75,14.92
		s15.62-2.28,20.7-8.11s7.39-13.78,7.14-21.5c1.4,3.98,5.28,6.96,9.49,7.29s8.5-2.01,10.5-5.73c-0.57,3.64-1.15,7.29-1.72,10.93
		c7.89,4.88,19.83,0.58,22.81-8.21c-2.91,3.31-1.14,8.78,2.17,11.68c3.31,2.9,7.71,4.18,11.55,6.35c5.66,3.2,10.12,8.48,12.34,14.59
		c0.28,0.78,0.56,1.62,1.19,2.17c2.02,1.75,4.87-0.97,5.95-3.42c7.68-17.48,3.26-38.98-8.96-53.64
		c-12.23-14.67-31.24-22.75-50.3-23.95s-38.11,4-55.28,12.37c-11.95,5.83-23.33,13.36-31.67,23.72
		c-8.33,10.36-13.36,23.84-11.63,37.03c0.83,6.37,3.19,12.43,6.21,18.07c1,1.87,6.86,14.2,10.1,11.75c0.95-0.72,0.99-3.27,1.36-4.37
		C412.91,208.47,413.72,206.76,414.74,205.19z"/>
	<path class="st4" d="M398.16,241.55c-3.02-4.35-6.34-8.7-10.9-11.4c-0.7-0.42-1.5-0.8-2.31-0.7c-1.38,0.18-2.21,1.79-2.05,3.18
		c0.16,1.39,1.02,2.58,1.86,3.7c3.95,5.25,8.09,10.35,12.41,15.3c-0.53,0.67-1.57,0.37-2.38,0.11s-2-0.19-2.14,0.65
		c-0.08,0.48,0.29,0.92,0.64,1.26c3.4,3.36,7.68,5.65,11.9,7.89c1.42,0.76,3.55,1.42,4.51-0.42c0.58-1.11-0.54-2.33-1.14-3.17
		c-1.14-1.6-2.05-3.35-3.06-5.03c-1.09-1.82-2.21-3.62-3.36-5.4C400.86,245.5,399.53,243.51,398.16,241.55z"/>
	<path class="st4" d="M552.19,220.92c-1.51,3.98-1.9,8.3-1.88,12.55c0.02,3.56,0.35,7.28,2.21,10.31c0.2,0.33,0.47,0.68,0.85,0.72
		c0.47,0.05,0.84-0.4,1.1-0.8c3.05-4.65,5.34-9.79,6.76-15.17c-2.22,0.32-4.36,1.16-6.21,2.42c-0.35-5.28,3.23-9.88,5.81-14.51
		c0.61-1.09,1.31-2.55,0.7-3.79c-0.41-0.82-1.27-0.88-2.06-0.62c-2.23,0.73-4.04,3.04-5.27,4.92
		C553.39,218.2,552.72,219.53,552.19,220.92z"/>
	<path class="st5" d="M504.41,256.42c0.42,0.98,1.15,2.13,2.21,1.99c-0.07-2.35-0.62-4.65-1.13-6.94
		c-1.34-5.98-2.43-12.01-3.27-18.08c-0.84-6.05-1.42-12.14-1.75-18.23c-0.04-0.68,0.19-2.84-0.69-3.11
		c-0.7-0.21-1.43,0.85-1.72,1.33c-0.61,1.01-0.62,2.08-0.68,3.22c-0.08,1.44-0.12,2.89-0.13,4.34c-0.03,5.74,0.5,11.48,1.57,17.12
		s2.68,11.17,4.82,16.5C503.89,255.18,504.15,255.8,504.41,256.42z"/>
	<path class="st5" d="M492.95,277.99c1.18,0.57,2.58,0.65,3.81,0.23c0.39-0.13,0.77-0.32,1.06-0.62c0.84-0.85,0.63-2.24,0.38-3.41
		c-0.21-0.96-0.42-1.91-0.64-2.87c-0.03-0.14-0.06-0.28-0.15-0.39c-0.1-0.12-0.26-0.18-0.42-0.23c-1.41-0.47-2.81-0.94-4.21-1.41
		c-0.92-0.31-2.08-0.93-2.95-0.2c-1.64,1.38-0.33,4.8,0.5,6.28C490.94,276.47,491.81,277.42,492.95,277.99z"/>
	<path class="st4" d="M472.23,267.21c0.32,0.55,0.73,1.07,1.29,1.38c0.5,0.27,1.08,0.35,1.64,0.43c1.29,0.17,2.75,0.28,3.91-0.17
		c0.47-0.19,0.9-0.47,1.23-0.88c-1.32-0.48-2.29-1.68-2.78-3c-0.29-0.77-0.43-1.59-0.49-2.41c-0.04-0.47,0.05-1.04-0.17-1.48
		c-0.27-0.55-0.85-0.61-1.4-0.49c-1.56,0.35-3.05,1.86-3.64,3.3C471.34,265.07,471.6,266.14,472.23,267.21z"/>
	<path class="st4" d="M494,267.72c3.4,0.74,6.63,2.11,10,2.97c1.06,0.27,2.35,0.42,3.09-0.38c0.47-0.51,0.55-1.25,0.61-1.94
		c0.09-0.98,0.17-1.96,0.26-2.94c0.03-0.36,0.13-0.8,0.47-0.89c0.24-0.07,0.48,0.07,0.67,0.23c1,0.82,1.3,2.19,1.55,3.45
		c0.23,1.19,0.46,2.4,0.3,3.6c-0.16,1.2-0.79,2.41-1.88,2.94c-0.95,0.47-2.08,0.36-3.12,0.2c-4.77-0.75-9.32-2.44-13.97-3.69
		c-2.33-0.62-4.69-1.14-7.09-1.35c-0.63-0.06-1.52-0.04-0.96-0.86c0.43-0.63,1.23-1.1,1.94-1.34
		C488.43,266.88,491.41,267.16,494,267.72z"/>
	<path class="st5" d="M437.35,218.66c10-1.52,20.02-3.04,29.81-5.6c1.67-0.43,3.38-0.93,4.7-2.03c1.32-1.11,2.13-3,1.48-4.59
		c-0.94-2.3-4.03-2.61-6.5-2.42c-8.25,0.64-16.27,2.85-24.1,5.39c-3.91,1.27-8.11,2.36-11.82,4.13c-1.72,0.82-3.57,3.18-3.2,5.21
		c0.26,1.4,1.54,1.14,2.64,0.98C432.69,219.37,435.02,219.01,437.35,218.66z"/>
	<path class="st5" d="M498.42,207.33c0.05,0.3,0.12,0.64,0.35,0.83c0.19,0.16,0.45,0.19,0.69,0.22c7.85,0.81,15.16-3.76,22.9-5.26
		c5.71-1.11,11.69-0.53,17.31-2.01c0.56-0.15,1.15-0.34,1.51-0.79c0.53-0.66,0.38-1.68-0.14-2.35s-1.31-1.06-2.09-1.39
		c-10.17-4.3-21.73-1.48-32.72-0.51c-2.09,0.18-4.62,0.38-6.24,1.9c-0.55,0.52-0.7,1.05-0.85,1.77c-0.22,1.09-0.57,2.15-0.74,3.26
		C498.21,204.43,498.21,205.9,498.42,207.33z"/>
	<path class="st4" d="M476.52,295.71c14.56-1.92,29.12-3.84,43.68-5.76c-0.04-0.76-0.82-1.22-1.51-1.54
		c-3.93-1.86-7.86-3.72-11.8-5.58c-1.21-0.57-2.48-1.16-3.82-1.1c-2.18,0.09-3.95,1.86-6.1,2.26c-2.65,0.5-5.32-1.17-7.99-0.79
		c-1.49,0.21-2.83,1.03-4.1,1.83c-3.15,1.99-6.28,4.01-9.39,6.07c-1.56,1.02-3.11,2.05-4.65,3.09c-0.58,0.39-1.56,0.8-1.87,1.47
		c-0.37,0.81,0.75,0.61,1.26,0.61C472.34,296.27,474.43,295.99,476.52,295.71z"/>
	<path class="st4" d="M485.66,308.12c3.15,0.89,6.47,0.92,9.74,0.9c2.31-0.02,4.64-0.08,6.88-0.61c4.33-1.03,8.2-3.89,10.46-7.72
		c0.19-0.32,0.37-0.66,0.39-1.03c0.06-1.02-1.18-1.71-2.18-1.55c-1.02,0.16-1.83,0.87-2.66,1.47c-3.98,2.9-9.05,3.9-13.97,3.97
		c-4.92,0.07-9.81-0.7-14.72-1c-0.6-0.04-1.24-0.06-1.76,0.24c-0.6,0.34-0.89,1.15-0.3,1.55c0.81,0.55,1.74,0.98,2.61,1.45
		C481.9,306.72,483.73,307.58,485.66,308.12z"/>
	<path class="st4" d="M545.73,237.83c1.55-3.14,1.16-6.84,0.99-10.35c-0.24-4.74,0-9.51,0.69-14.2c0.35-2.37,0.82-4.71,1.4-7.03
		c0.29-1.15,0.66-2.28,0.94-3.44c0.2-0.82,0.3-2.13-0.59-2.63c-1.3-0.74-2.66,1.66-3.08,2.54c-0.93,1.96-1.37,4.27-1.81,6.38
		c-0.94,4.46-1.34,9.04-1.18,13.6c0.16,4.57,0.87,9.13,2.14,13.53C545.39,236.76,545.56,237.3,545.73,237.83z"/>
	<path class="st7" d="M371.55,152.47c2.83,7.42,6.2,14.64,10.06,21.59c1.03,1.86,2.42,3.91,4.53,4.11
		c-0.2-4.22-0.67-8.44-1.38-12.61c1.29,5.35,3.65,10.44,6.9,14.89c1.08,1.48,2.34,2.94,4.05,3.57c1.71,0.63,3.98,0.11,4.73-1.56
		c1.24,3.97,5.95,6.48,9.94,5.28c-2.06,4.12-2.4,9.07-0.93,13.44c-1.67-3.12-4.68-5.49-8.11-6.38c-0.73,5.15-0.89,10.39-0.48,15.58
		c-2.74-2.98-5.48-5.95-8.22-8.93c0.04,2.91,0.07,5.81,0.11,8.72c-0.48-1.58-1.67-3.56-3.22-2.99
		c-3.38-11.7-11.86-21.29-16.15-32.69c-1.58-4.2-2.57-8.59-3.18-13.02c-0.61-4.47-0.85-8.99-0.94-13.49
		c-0.03-1.25-0.04-2.51-0.05-3.76c0-0.63-0.01-1.27-0.01-1.9c0-0.4,0.11-1.02-0.24-1.31c-0.21,0.82,0.03,1.99,0.15,2.84
		c0.13,0.99,0.33,1.96,0.58,2.92C370.16,148.71,370.83,150.6,371.55,152.47z"/>
	<path class="st7" d="M430.79,151.25c0.72,5.12,2.29,10.62,6.52,13.59c0.27,0.19,0.58,0.37,0.9,0.29c0.33-0.08,0.54-0.41,0.69-0.71
		c0.66-1.31,1.12-2.71,1.38-4.16c-0.25,2.55,0.61,5.18,2.31,7.09c0.97,1.09,2.32,1.97,3.78,1.92c1.46-0.06,2.89-1.37,2.66-2.81
		c1.42,3.77,5.54,6.16,9.57,6.08c4.03-0.07,7.83-2.33,10.33-5.48c2.51-3.15,3.83-7.12,4.37-11.11c-1.67,1.78-4.03,2.73-6.4,3.32
		c-4.02,1.02-8.73,1-11.78-1.8c-2.09-1.92-3-4.76-4.49-7.17s-4.19-4.6-6.92-3.82c-1.87,0.54-3.8,2.38-5.43,1.31
		c-0.87-0.57-1.1-1.72-1.16-2.75c-0.22-3.88,0.99-7.64,1.72-11.4c0.37-1.87,0.65-3.8,0.54-5.71c-0.07-1.34-0.28-3.19-1.51-4
		c-2.02-1.33-4.67,0.78-5.72,2.43c-0.9,1.42-1.18,3.21-1.43,4.84c-0.31,2.03-0.47,4.09-0.57,6.14c-0.2,4.17-0.05,8.36,0.45,12.5
		C430.67,150.3,430.73,150.77,430.79,151.25z"/>
	<path class="st7" d="M467.19,113.25c9.52,7.9,14.62,20.82,13.07,33.1c3.01-2.05,5.14-5.36,5.75-8.96c2.16,2.44,3.69,5.43,4.41,8.61
		c-0.48-0.75,0.48-1.77,1.36-1.63s1.49,0.95,1.87,1.76c0.63,1.36,0.88,2.9,0.71,4.4c1.72-0.42,2.48-2.41,2.88-4.14
		c1.9-8.27,1.67-17.02-0.65-25.18c-0.34-1.18-1.1-2.61-2.32-2.44c0,1.1-1.17,1.92-2.27,1.91c-1.1-0.01-2.1-0.63-2.97-1.3
		c-2.61-2.03-4.6-4.73-6.77-7.23c-3.53-4.06-7.79-7.76-12.97-9.24c-3.61-1.03-7.71-0.79-11.05,0.99c-0.9,0.48-3.98,2.13-2.86,3.42
		c0.57,0.66,1.62,0.9,2.43,1.08c1.07,0.23,2.1,0.54,3.11,0.95C463.21,110.29,465.29,111.68,467.19,113.25z"/>
	<path class="st7" d="M512.94,149.04c0.2,1.21,0.65,2.68,1.85,2.9c0.84,0.16,1.64-0.41,2.26-0.99c1.27-1.18,2.33-2.58,3.12-4.12
		c0.22-0.44,0.53-0.95,1.02-0.96c0.47-0.01,0.79,0.46,1.01,0.87c1.21,2.25,2.13,4.66,2.75,7.14c0.57,2.26,0.9,4.63,2.06,6.65
		c0.58,1,1.52,1.97,2.67,1.96c2.54-0.02,2.84-4.08,5.09-5.28c0.31-0.17,0.68-0.27,1.01-0.17c0.46,0.14,0.73,0.59,0.95,1.01
		c2.11,4.04,3.75,8.31,4.89,12.72c0.17,0.67,0.37,1.4,0.93,1.81c0.92,0.67,2.22,0.09,3.15-0.56c1.7-1.19,3.24-2.62,4.54-4.24
		c3.25,6.51,2.93,14.16,2.36,21.41c3.05-0.47,4.68-3.77,5.81-6.65c3.62-9.23,7.32-18.94,6.1-28.78c-1.39-0.84-2.61,1.47-4.17,1.9
		c-1.05,0.29-2.17-0.39-2.74-1.32c-0.57-0.93-0.7-2.05-0.8-3.14c-0.61-6.92-0.4-14.49-4.68-19.96c-0.34-0.43-0.75-0.88-1.29-0.97
		c-1.11-0.19-1.85,1.1-2.21,2.17c-1.44,4.32-2.45,8.79-3.01,13.32c-1.87-0.29-3.17-2.06-3.82-3.84c-0.65-1.78-0.86-3.72-1.68-5.43
		c-0.21-0.44-0.48-0.88-0.88-1.16c-0.97-0.67-2.39-0.16-3.1,0.77c-0.71,0.94-0.9,2.16-1.06,3.33c-1.83-3.92-2.78-8.2-4.6-12.13
		c-3.43-7.4-10-13.27-17.74-15.85c0.65,3.36,2.81,6.2,4.45,9.2c2.56,4.69,3.94,10.03,3.97,15.38c0.01,1.18-0.25,2.64-1.37,3.01
		c-0.8,0.26-1.68-0.22-2.17-0.89c-0.49-0.68-0.68-1.52-0.88-2.33c-0.87-3.45-2.2-6.79-3.95-9.89c-0.62-1.11-1.36-2.16-2.24-3.08
		c-0.64-0.67-1.67-1.77-2.65-1.87c-1.81-0.19-1.56,2.86-1.15,3.85c1.02,2.46,2.06,4.85,2.81,7.42c0.76,2.59,1.34,5.23,1.85,7.88
		C511.97,143.08,512.44,146.06,512.94,149.04z"/>
	<path class="st7" d="M422.44,97.3c-1.34,5.98-1.96,12.11-1.85,18.23c0.03,1.69,0.12,3.42,0.78,4.97s2,2.92,3.67,3.17
		c0-1.71,0.01-3.49,0.81-5s2.66-2.6,4.24-1.96c1.06,0.43,2.06,1.58,3.12,1.14c0.43-0.18,0.74-0.61,1.19-0.74
		c0.6-0.17,1.2,0.23,1.82,0.27c0.77,0.05,1.46-0.45,2.07-0.92c0.79-0.62,1.58-1.23,2.37-1.85c0.33-0.26,0.69-0.55,0.79-0.96
		c0.17-0.71-0.5-1.36-1.19-1.59c-2.2-0.75-5.21,0.75-6.64-1.08c-0.6-0.77-0.59-1.83-0.88-2.75c-0.45-1.48-1.74-2.66-3.24-3.01
		c-0.58-0.13-1.24-0.17-1.67-0.58c-0.61-0.58-0.47-1.58-0.28-2.4c1.1-4.91,1.92-9.88,2.45-14.89c0.06-0.57,0.58-2.27-0.17-2.53
		c-0.64-0.23-1.49,0.45-1.92,0.85c-1.47,1.39-2.55,3.18-3.38,5C423.58,92.78,422.94,95.03,422.44,97.3z"/>
	<path class="st8" d="M433.61,235.88c0,0,10.61-8.91,22.13-10.61s16.92,4.17,16.92,4.17s-6.41,6.24-17.62,7.95
		C443.82,239.08,433.61,235.88,433.61,235.88z"/>
	<circle class="st9" cx="455.34" cy="230.87" r="8.81"/>
	<path class="st4" d="M432.51,235.98c0,0,0-3.15,3-5.71c4.26-3.63,11.59-9.26,22.23-9.41c13.92-0.2,14.92,8.58,14.92,8.58
		s-3.38-6.27-18.62-1.77C438.79,232.17,432.51,235.98,432.51,235.98z"/>
	<path class="st10" d="M432.51,235.98c0,0,8.21,8.11,21.23,5.71s18.93-12.25,18.93-12.25s-10.2,8.69-20.97,8.32
		S432.51,235.98,432.51,235.98z"/>
	<path class="st8" d="M502.82,226.85c0,0,10.46-8.5,21.5-9.76s15.95,4.81,15.95,4.81s-6.35,5.99-17.1,7.28
		C512.42,230.43,502.82,226.85,502.82,226.85z"/>
	
		<ellipse transform="matrix(0.0398 -0.9992 0.9992 0.0398 280.3959 737.1096)" class="st9" cx="523.72" cy="222.67" rx="8.81" ry="8.4"/>
	<path class="st4" d="M501.76,226.91c0,0,0.13-3.15,3.09-5.59c4.2-3.47,11.41-8.81,21.55-8.56c13.27,0.33,13.87,9.14,13.87,9.14
		s-2.97-6.39-17.67-2.47S501.76,226.91,501.76,226.91z"/>
	<path class="st10" d="M501.76,226.91c0,0,7.5,8.41,20,6.51c12.5-1.9,18.52-11.52,18.52-11.52s-10.06,8.3-20.31,7.52
		C509.72,228.62,501.76,226.91,501.76,226.91z"/>
	<path class="st6" d="M432.39,208.78c9.04-5.82,18.76-10.57,28.9-14.14c1.69-0.59,3.44-1.16,5.23-1.12
		c3.07,0.08,5.91,2.04,7.47,4.69s1.93,5.88,1.47,8.91c-0.08,0.52-0.19,1.06-0.52,1.46c-0.63,0.76-1.76,0.77-2.74,0.71
		c-5.66-0.34-11.38-0.89-16.96,0.14c-3.43,0.63-6.71,1.84-9.89,3.24c-3.21,1.42-6.32,3.05-9.5,4.54c-1.59,0.75-3.2,1.46-4.84,2.1
		c-1.57,0.61-3.33,1.39-5.02,1.54c-2.55,0.23-3.01-2.76-2.23-4.6c0.6-1.41,1.95-2.49,3.09-3.46c1.41-1.21,2.93-2.29,4.47-3.31
		C431.68,209.24,432.04,209.01,432.39,208.78z"/>
	<path class="st6" d="M497.53,204.06c1.85,2.2,5.35,1.38,8.06,0.42c10.04-3.58,20.8-6.59,31.26-4.55c1.25,0.24,2.63,0.54,3.74-0.08
		c1.74-0.98,1.68-3.64,0.56-5.29c-2.19-3.24-6.65-3.8-10.55-4.05c-3.46-0.22-6.91-0.43-10.38-0.53c-3.49-0.1-6.98-0.09-10.46,0.13
		c-3.05,0.2-6.17,0.49-9.15,1.19c-1.84,0.44-3.05,1.35-3.59,3.22c-0.43,1.47-0.51,3.03-0.55,4.55c-0.04,1.37-0.08,2.85,0.51,4.13
		C497.12,203.5,497.31,203.8,497.53,204.06z"/>
</g>
<path class="st11" d="M403.35,336.63c1.31,6.69,4.44,12.86,7.63,18.89c18.48,35.01,40.41,69.33,71.9,93.32
	c-3.03-3.78-6.06-7.55-9.09-11.33c-8-9.98-16.02-19.97-23.25-30.52c-8.6-12.56-16.07-25.86-22.86-39.47
	c-6.78-13.58-12.9-27.47-18.92-41.4c-0.63-1.47-1.26-3.44-2.82-4.21c-1.79-0.89-2.11,1.01-2.45,2.4
	C402.51,328.33,402.56,332.58,403.35,336.63z"/>
<path class="st11" d="M531.16,415.34c-9.59,23.17-20.09,46.37-36.12,65.66c-1.62,1.95-3.09,5.34-0.85,6.54
	c1.47,0.79,3.21-0.33,4.47-1.43c14.22-12.41,24.19-28.93,32.54-45.86c14.21-28.81,24.38-59.61,30.12-91.22
	c0.48-2.65,1.77-14.94-3.96-13.02c-2.64,0.89-2.43,4.74-2.85,6.97c-0.64,3.46-1.37,6.91-2.18,10.33
	c-3.2,13.67-7.59,27.03-12.51,40.16C537.08,400.82,534.16,408.09,531.16,415.34z"/>
<path class="st11" d="M464.42,476.21c5.93,6.26,12.88,12.61,21.47,13.28c-15.03-14.84-28.57-31.18-40.38-48.7
	c-4.76-7.06-9.23-14.31-13.71-21.56c-4.37-7.08-8.74-14.16-13.11-21.24c-4.56-7.39-9.14-14.81-12.49-22.82
	c-2.61-6.23-4.45-12.74-6.5-19.17c-1.03-3.24-2.11-6.47-3.38-9.63c-0.63-1.57-1.3-3.13-2.03-4.66c-0.36-0.75-1.39-2.63-2.15-0.93
	c-0.41,0.92,0.59,3.21,0.82,4.17c0.37,1.5,0.75,3,1.14,4.5c0.8,3.06,1.65,6.11,2.55,9.14c1.8,6.07,3.8,12.07,5.99,18.01
	c4.36,11.8,9.49,23.33,15.32,34.48c5.84,11.15,12.39,21.92,19.61,32.23c7.24,10.34,15.15,20.21,23.68,29.51
	C462.3,473.96,463.36,475.09,464.42,476.21z"/>
<path class="st11" d="M496.42,482.96c0.18,0.49,0.65,1.08,1.08,0.79c0.75-2.66,0.01-5.49-0.73-8.15c-0.87-3.12-1.73-6.24-2.6-9.36
	c-0.43-1.54-0.85-3.07-1.28-4.61c-0.22-0.78-0.43-1.56-0.65-2.34c-0.08-0.3-0.25-1.64-0.57-1.75c-0.63-0.2-0.89,1.57-0.89,1.92
	c0.01,1.47,0.41,3.04,0.66,4.49c0.51,3.04,1.15,6.05,1.92,9.03C494.23,476.36,495.25,479.69,496.42,482.96z"/>
<path class="st11" d="M503.8,467.74c0.44,0.6,1.02,1.24,1.76,1.2c0.56-1.45-0.19-3.04-0.91-4.41c-2.08-3.92-4.17-7.83-6.25-11.75
	c-0.29-0.55-1.88-2.56-2.51-1.34c-0.4,0.77,0.71,2.8,0.98,3.51c1.09,2.9,2.44,5.7,4.01,8.36
	C501.76,464.83,502.74,466.31,503.8,467.74z"/>
<path class="st11" d="M512.76,463.23c0.59-1.98-0.51-4.03-1.58-5.81c-2.07-3.46-4.15-6.92-6.22-10.38c-0.75-1.25-2.32-3.6-4.15-2.79
	c-1.26,0.55,0.15,2.42,0.59,3.11c2.22,3.51,4.53,6.96,7.01,10.3c0.7,0.95,1.42,1.88,2.14,2.81
	C510.82,460.82,512.85,462.91,512.76,463.23z"/>
<path class="st11" d="M519.6,453.29c0.73-1.04,0.04-2.45-0.64-3.52c-3.32-5.18-6.69-10.42-11.16-14.65
	c-0.52-0.49-1.37-1.21-2.15-0.88c-0.7,0.29-0.39,0.86-0.09,1.36c0.9,1.51,1.9,2.98,2.89,4.43c2.09,3.05,4.38,5.98,6.84,8.74
	C516.67,450.34,518.11,451.84,519.6,453.29z"/>
<path class="st11" d="M525.31,441.02c0.16-0.6-0.02-1.23-0.25-1.8c-2.32-5.75-9.06-8.25-13.05-13c-0.76-0.91-1.43-1.9-2.3-2.7
	c0.1,0.1-0.17,2.15-0.18,2.47c-0.01,0.48-0.06,0.97,0.11,1.43c0.47,1.3,2.04,2.48,2.99,3.43c2.45,2.46,5.08,4.75,7.86,6.83
	C522.05,438.86,523.66,439.97,525.31,441.02z"/>
<path class="st11" d="M528.36,428.77c0.8,0.51,1.68,1.02,2.63,0.96c0.26-0.63-0.22-1.3-0.66-1.82c-2.81-3.26-5.67-6.57-9.23-8.99
	c-1.58-1.08-3.27-1.98-4.76-3.19c-0.43-0.35-0.76-0.73-1.08-0.09c-0.23,0.45-0.1,1.22,0.12,1.66c0.74,1.47,2.46,2.86,3.63,4
	c1.34,1.33,2.75,2.58,4.22,3.77C524.86,426.4,526.58,427.64,528.36,428.77z"/>
<path class="st11" d="M537,420.41c0.44-1.14-0.32-2.38-1.09-3.33c-3.99-4.98-9.17-8.86-14.29-12.67c-0.76-0.56-1.83-1.13-2.56-0.54
	c-1.35,1.1,4.88,6.11,5.58,6.74c2.49,2.25,5.08,4.4,7.75,6.44C533.9,418.2,535.44,419.32,537,420.41z"/>
<path class="st11" d="M535,405.3c2.29,1.9,4.71,3.87,7.64,4.45c0.57-1.29-0.3-2.74-1.19-3.83c-2.21-2.7-4.87-5.04-7.83-6.9
	c-1.84-1.16-3.83-2.14-5.41-3.64c-0.98-0.93-1.96-2.24-3.43-2.3c-1.25-0.05-1.61,0.87-1.15,1.92c0.57,1.28,1.98,2.23,2.99,3.14
	c1.28,1.16,2.58,2.29,3.89,3.41C532,402.8,533.5,404.05,535,405.3z"/>
<path class="st11" d="M543.62,396.53c0.4,0.23,0.9,0.46,1.3,0.23c0.56-0.32,0.37-1.18,0.06-1.74c-1.58-2.91-4.34-5-7.16-6.73
	c-2.07-1.27-4.22-2.4-6.22-3.78c-0.58-0.4-4.53-4.01-4.64-1.73c-0.08,1.71,2.65,3.53,3.73,4.48c1.88,1.64,3.84,3.2,5.86,4.67
	C538.83,393.57,541.19,395.11,543.62,396.53z"/>
<path class="st11" d="M548.22,385.11c0.33,0.19,0.77,0.37,1.07,0.14c0.36-0.29,0.16-0.87-0.09-1.25c-2.08-3.24-5.24-5.61-8.33-7.9
	c-1.65-1.22-3.3-2.45-4.94-3.67c-1.25-0.93-3.26-2.3-4.81-1.14c-1.37,1.01,1.09,2.54,1.8,3.13c3.08,2.55,6.27,4.96,9.61,7.18
	C544.38,382.82,546.28,384,548.22,385.11z"/>
<path class="st11" d="M551.72,372.72c0.27,0.13,0.58,0.26,0.86,0.15c0.34-0.13,0.48-0.53,0.5-0.89c0.12-1.75-1.35-3.17-2.73-4.25
	c-3.43-2.69-7.12-5.04-10.8-7.38c-1.03-0.66-2.06-1.31-3.09-1.97c-0.7-0.45-1.64-0.96-2.45-0.45c-0.51,0.32-0.58,0.8-0.41,1.34
	c0.46,1.5,2.1,2.67,3.22,3.65c2.85,2.51,5.93,4.76,9.18,6.72C547.86,370.77,549.77,371.79,551.72,372.72z"/>
<path class="st11" d="M551.47,355.75c1.36,0.59,2.81,1.12,4.28,0.91c0.48-1.08-0.36-2.26-1.19-3.1c-4.65-4.71-10.81-7.91-17.33-9.01
	c0.1,0.02-0.07,1.7,0,1.9c0.15,0.42,0.45,0.47,0.8,0.69c1.05,0.65,1.95,1.63,2.93,2.39c2.06,1.6,4.26,3.04,6.55,4.29
	C548.8,354.52,550.12,355.16,551.47,355.75z"/>
<path class="st11" d="M554.07,343.96c1,0.59,2.56,1.02,3.07-0.02c0.32-0.64-0.06-1.4-0.5-1.96c-1.16-1.49-2.75-2.56-4.31-3.61
	c-2.87-1.94-5.75-3.87-8.62-5.81c-1.15-0.78-3.25-2.35-4.77-1.84c-1.18,0.4-0.02,1.88,0.42,2.44c2.26,2.87,5.78,4.98,8.76,7.02
	C550.07,341.5,552.05,342.77,554.07,343.96z"/>
<path class="st11" d="M550.01,329.16c1.58,1.08,3.38,2.21,5.27,1.88c-0.5-1.98-2.17-3.41-3.74-4.72c-1.63-1.35-3.25-2.69-4.88-4.04
	c-1.55-1.28-3.15-2.57-5.14-3.05c-0.64-0.15-3.14-0.71-3.29,0.44c-0.12,0.87,1.34,1.96,1.88,2.43c1.14,1,2.38,1.89,3.63,2.75
	C545.82,326.31,547.92,327.73,550.01,329.16z"/>
<path class="st11" d="M393.63,344.12c0.94,0.32,1.89-0.42,2.59-1.13c1.44-1.45,2.8-2.99,4.06-4.61c0.63-0.81,1.24-1.63,1.82-2.48
	c0.34-0.49,1.38-1.6,1.23-2.25c-0.12-0.52-0.84-0.66-1.29-0.6c-0.77,0.1-1.28,0.84-1.79,1.37c-1.31,1.35-2.56,2.77-3.67,4.29
	C396.28,339.12,393.34,344.02,393.63,344.12z"/>
<path class="st11" d="M408.66,344.43c-4.7,2.64-7.78,7.38-10.67,11.94c-0.34,0.53-0.67,1.26-0.28,1.75
	c0.22,0.27,0.59,0.36,0.93,0.36c1.19-0.02,2.13-0.95,2.94-1.82c2.06-2.21,4.12-4.43,6.18-6.64c1.54-1.66,3.13-3.39,3.89-5.52
	c0.11-0.3,0.2-0.64,0.08-0.94c-0.24-0.63-1.14-0.62-1.79-0.44c-2.07,0.58-3.98,1.74-5.44,3.31"/>
<path class="st11" d="M413.87,356.52c-5.12,2.83-9.27,7.37-11.65,12.71c-0.13,0.29-0.26,0.61-0.21,0.93
	c0.08,0.56,0.71,0.91,1.28,0.88s1.08-0.34,1.55-0.65c4.85-3.22,8.43-7.98,11.91-12.64c0.44-0.59,0.9-1.25,0.85-1.98
	c-2.93-0.05-5.56,1.66-7.98,3.3"/>
<path class="st11" d="M409.02,381.39c-0.46,0.65-0.9,1.59-0.34,2.16c0.63,0.64,1.68,0.01,2.33-0.61c2.66-2.56,5.33-5.12,7.99-7.68
	c1.33-1.28,2.66-2.56,4-3.84c0.91-0.87,2.08-1.81,1.97-3.22c-0.24-3.04-7.93,3.77-8.67,4.52
	C413.63,375.39,411.21,378.33,409.02,381.39z"/>
<path class="st11" d="M414.06,396.47c1.47,0.49,2.96-0.61,4.11-1.64c3.07-2.76,6.03-5.63,8.92-8.57c1.41-1.43,2.85-2.84,4.18-4.34
	c0.25-0.28,1-1,0.64-1.42c-0.71-0.83-3.97,0.97-4.62,1.28c-2.27,1.1-4.53,2.47-6.31,4.26C418.23,388.82,414.49,392.36,414.06,396.47
	z"/>
<path class="st11" d="M420.32,408.4c1.67,0.58,3.37-0.65,4.7-1.81c3.06-2.68,6.05-5.45,8.95-8.3c0.71-0.7,5.9-4.91,4.57-6.18
	c-0.92-0.87-4,1.23-4.74,1.67c-2.36,1.4-4.58,3.04-6.54,4.96c-1.44,1.41-2.75,2.94-3.92,4.58
	C423.05,403.72,420.23,408.37,420.32,408.4z"/>
<path class="st11" d="M434.26,417.82c3.43-2.7,6.75-5.72,9.56-9.08c0.37-0.45,3.61-4.57,1.11-4.28c-2.16,0.25-4.45,2.08-6.15,3.3
	c-2.64,1.89-4.94,4.04-7.09,6.47c-0.77,0.87-1.52,1.75-2.25,2.65c-0.54,0.66-1.51,1.63-1.49,2.56c0.05,1.84,4.43-0.29,5.16-0.78
	C433.5,418.4,433.88,418.12,434.26,417.82z"/>
<path class="st11" d="M434.59,431.21c-0.21,0.32-0.41,0.75-0.17,1.04c0.14,0.17,0.38,0.22,0.59,0.24c1.52,0.11,2.91-0.79,4.12-1.71
	c5.41-4.1,9.96-9.21,14.46-14.3c0.43-0.48,0.87-1.02,0.87-1.66c0-0.97-1.1-1.64-2.07-1.56c-1.4,0.12-2.7,1.24-3.73,2.11
	c-1.31,1.09-2.57,2.23-3.8,3.41c-2.48,2.39-4.78,4.96-6.89,7.68C436.78,428,435.65,429.58,434.59,431.21z"/>
<path class="st11" d="M441.65,444.17c3.26,0.49,6.19-1.94,8.44-4.35c2.38-2.55,4.58-5.27,6.58-8.13c1.02-1.46,1.98-2.95,2.89-4.48
	c0.5-0.85,2.32-3.43,0.09-3.12c-2.45,0.34-3.53,1.69-5.19,3.34c-2.35,2.34-4.73,4.55-6.8,7.17
	C445.32,437.56,443.3,440.77,441.65,444.17z"/>
<path class="st11" d="M453.76,449.3c-1.27,1.83-2.52,3.81-2.69,6.03c-0.02,0.27-0.02,0.55,0.08,0.79c0.29,0.68,1.23,0.78,1.95,0.62
	c2.35-0.53,4.01-2.58,5.42-4.54c3.78-5.26,7.24-10.82,10.1-16.64c1.16-2.36-1.42-1.34-2.58-0.65c-2.34,1.38-4.05,3.77-5.76,5.82
	C457.98,443.48,455.8,446.34,453.76,449.3z"/>
<path class="st11" d="M468.74,451.03c-2.59,3.41-5.22,6.89-6.64,10.93c-0.26,0.73-0.45,1.62,0.04,2.23
	c0.47,0.58,1.38,0.61,2.05,0.26c0.66-0.34,1.12-0.97,1.56-1.57c3.85-5.29,7.6-10.66,11.23-16.11c0.65-0.97,1.54-2.31,1.08-3.53
	c-0.32-0.86-1.57-1.48-2.46-1.2c-0.8,0.25-1.27,1.13-1.67,1.79c-0.64,1.06-1.3,2.06-2.05,3.05
	C470.84,448.27,469.79,449.65,468.74,451.03z"/>
<path class="st1" d="M262.47,451.05c11.03,38.37,25.89,75.63,44.3,111.06c-8.91-0.71-16.09-14.29-23.54-9.35
	c-2.58,1.71-3.47,5.08-3.65,8.17c-0.78,13.65,8.17,25.61,14.63,37.65c16.34,30.46,17.59,68.57,3.27,100.03
	c-1.05,2.3-2.22,4.62-4.12,6.27c-1.86,1.61-4.24,2.44-6.57,3.23c-17.93,6.12-35.86,12.24-53.8,18.36
	c30.89,12.46,68.13-5.97,98.58,7.53c1.85,0.82,3.81,1.78,5.81,1.43c3.75-0.65,5.19-5.21,5.66-8.98
	c5.82-45.97-18.7-91.07-16.72-137.36c0.5-11.6,2.52-23.54,0.02-35.04c-1.89-8.66-5.27-17.33-8.08-25.73
	c-6.6-19.69-17.09-38.06-30.64-53.79c-3.75-4.36-7.74-8.51-11.94-12.44c-2.16-2.02-4.37-3.97-6.64-5.86
	C267.82,455.21,262.88,452.49,262.47,451.05z"/>
<path class="st11" d="M472.65,470.14c-1.05,1.86-2.13,4.02-1.42,6.03c1.45,0.59,2.91-0.77,3.81-2.05c1.67-2.39,3.03-4.99,4.37-7.58
	c1.76-3.38,3.51-6.75,5.27-10.13c0.81-1.57,1.88-3.34,2.1-5.11c-2.88-1.17-4.15,1.18-5.36,3.32c-1.87,3.31-3.75,6.63-5.62,9.94
	C474.75,466.42,473.7,468.28,472.65,470.14z"/>
<path class="st3" d="M563.77,810.74c-27.75-3.28-55.49-6.55-83.24-9.83c-3.88-0.46-7.96-0.89-11.56,0.63
	c-3.6,1.52-6.37,5.74-4.9,9.36c29.1,7.86,59.17,11.35,89.11,14.82c5.35,0.62,11.36,1.27,16.05-1.98c3.54-2.45,7.22-7.51,2.36-10.57
	C569.28,811.73,566.44,811.05,563.77,810.74z"/>
<path class="st11" d="M485.62,458.87c-3.13,7.91-6.3,15.99-6.77,24.49c-0.04,0.73,0.1,1.69,0.82,1.83c0.76,0.15,1.25-0.78,1.46-1.53
	c1.45-5.1,2.89-10.19,4.34-15.29c0.73-2.57,1.46-5.14,2.19-7.7c0.36-1.26,0.72-2.53,1.08-3.79c0.16-0.58,1.02-2.63,0.38-3.12
	C487.7,452.69,485.89,458.21,485.62,458.87z"/>
<path class="st11" d="M305.93,473.61c1.8,43.7,11.39,86.65,20.94,129.33c-3.37-14.04-8.93-27.56-16.41-39.92
	c-2.36,9.57,2.79,19.15,6.89,28.11c8.17,17.83,12.74,37.31,13.34,56.92c0.89,29.37,1.79,58.75,2.68,88.12
	c7.36,0.4,14.74,0.26,22.08-0.4c-1.61-19.89-3.52-39.76-5.72-59.6c-2.19-19.8-4.47-39.64-7.45-59.34
	c-0.92-6.04-2.66-11.65-4.52-17.44c-2.44-7.59-3.83-15.5-5.14-23.36c-2.8-16.76-4.58-33.69-7.77-50.38
	c-3.11-16.27-7.65-32.46-15.84-46.96C308.36,477.57,305.93,474.82,305.93,473.61z"/>
<path class="st11" d="M397.33,863c-3.01-24.37-5.87-49.97,3.28-72.76c4.62-11.52,12.12-21.71,16.08-33.53
	c0.47-1.41,2.21-6.35-0.25-6.72c-1.96-0.3-4.21,2.98-5.24,4.22c-3.37,4.08-6.39,8.44-9.05,13.01c-5.37,9.23-9.25,19.3-11.58,29.72
	c-2.32,10.39-3.11,21.12-2.27,31.73c0.84,10.63,3.32,21.14,7.51,30.95C396.22,860.6,397.2,861.96,397.33,863z"/>
<path class="st11" d="M484.4,762.93c-25.27,29-31.54,73.16-15.32,108.04c3.96-1.34,4.91-1.22,4.87-4.68
	c-0.08-6.89-5.18-19.46-5.39-26.38c-0.89-28.13,12.64-55.34,32.01-75.75c2-2.1,7.5-8.51,2.8-10.83c-3.39-1.67-9.2,1.36-11.93,3.18
	C488.79,758.29,486.49,760.54,484.4,762.93z"/>
<path class="st11" d="M282.41,723.13c-30.34-1.83-63.36-0.63-87.25,18.17c23.93,0.87,47.48-5.23,71.06-9.46s48.46-6.52,70.98,1.62
	c-47.89-2.47-96.42,9.3-137.86,33.43c-4.8,2.8-9.55,5.79-13.44,9.76c-1.33,1.36-2.63,3.04-2.48,4.93c0.19,2.39,2.73,4.04,5.13,4.11
	c2.4,0.06,4.66-1.04,6.81-2.11c13.96-6.97,27.91-13.94,41.87-20.91c-14.04,9.88-29.06,21.14-33.33,37.76
	c11.85-4.12,21.08-13.32,30.78-21.27c28.68-23.5,64.89-37.66,101.9-39.85c3.28-0.19,11.69-0.43,11.81-5.28
	c0.12-4.89-8.29-4.76-11.4-5.22c-11.55-1.71-23.15-3.11-34.78-4.18C295.62,724.03,289.02,723.52,282.41,723.13z"/>
<path class="st11" d="M415.32,756.09c-1.58-0.02-3.76,0.56-3.58,2.13c0.14,1.27,1.76,1.69,3.04,1.8
	c22.72,1.93,45.48,3.42,68.26,4.47c3.61,0.17,12.57,0.16,13.46-4.89c0.62-3.52-7.91-2.54-9.8-2.53c-15.1,0.06-30.23-0.4-45.33-0.62
	C432.69,756.34,424,756.21,415.32,756.09z"/>
<path class="st11" d="M403.12,775.37c-2.23,0.16-5.2,1.2-4.86,3.41c11.39,2.58,23.19,2.54,34.86,2.5
	c10.44-0.04,20.87-0.08,31.31-0.12c5.13-0.02,10.3,0.14,15.42-0.25c1.15-0.09,6.57,0.06,5.53-2.14c-0.81-1.72-4.94-2.63-6.52-3.11
	c-3.36-1.02-6.68-1.44-10.17-1.56c-10.33-0.35-20.68-0.44-31.02-0.27C426.15,774.01,414.62,774.53,403.12,775.37z"/>
<path class="st11" d="M409.98,795.54c-5.77,0.28-11.67,0.68-16.99,2.93c-1.2,0.51-2.58,1.75-1.88,2.86
	c4.64,1.38,9.56,1.41,14.4,1.42c21.1,0.04,42.21,0,63.31-0.11c2.33-0.01,4.94-0.15,6.51-1.86c0.98-1.06,1.02-2.98,0.17-4.14
	c-1.07-1.46-3.18-1.04-4.77-1.11c-4.87-0.24-9.74-0.42-14.62-0.54c-9.86-0.25-19.72-0.26-29.58-0.04
	C421.02,795.07,415.5,795.27,409.98,795.54z"/>
<path class="st11" d="M390.45,824.95c-0.81,2.18,2.46,3.43,4.79,3.43c22.16,0.07,44.32,0.13,66.48,0.2c2.1,0.01,4.39-0.05,5.99-1.4
	c1.31-1.1,1.91-4.08,0.03-4.91c-0.7-0.31-1.72-0.08-2.47-0.12c-1.35-0.07-2.7-0.33-4.04-0.52c-5.78-0.82-11.57-1.59-17.38-2.14
	c-11.52-1.11-23.22-1.44-34.69,0.33C402.75,820.8,396.44,822.46,390.45,824.95z"/>
<path class="st11" d="M398.45,855.01c-1.29,0.33-2.94,1.46-2.28,2.66c0.31,0.57,1.02,0.74,1.64,0.84c3.63,0.53,7.31,0.26,10.96-0.03
	c13.62-1.1,27.21-2.54,40.77-4.31c3.16-0.41,6.32-0.85,9.43-1.57c2.45-0.57,6.83-1.23,8.39-3.49c2.61-3.78-5.18-4.06-7.02-4.08
	c-6.24-0.07-12.61,0.95-18.8,1.73c-6.85,0.87-13.68,1.94-20.48,3.22C413.49,851.39,405.94,853.07,398.45,855.01z"/>
<g id="рука_1_">
	<g>
		<path class="st2" d="M305.15,765.79c-2.13-3.49-7.09-24.83-4.3-27.8c4.8-5.1,45.72-12.13,64.28-18.35
			c23.21-7.61,46.79-5.59,68.01,8.06c20.08,14.43,41.25,36.28,17.99,55.88c-31.67,22.77-71.28,38.04-110.63,34.26
			C317.81,814.76,304.7,787.05,305.15,765.79z"/>
		<path class="st2" d="M327.16,831.68c-4.31,2.03-8.85,3.99-13.64,3.98c-4.78-0.01-9.87-2.52-11.45-7.03
			c-1.06-3.02-0.36-6.44,1.2-9.25c1.56-2.8,3.91-5.06,6.32-7.17c4.49-3.93,9.29-7.48,14.36-10.62c6.79-4.2,15.41-7.67,22.55-4.06
			c2.99,1.51,5.33,4.14,6.77,7.15c1.67,3.49,2.12,7.68,0.58,11.22C351.27,821.83,335.53,827.73,327.16,831.68z"/>
		<path class="st2" d="M352.84,743.29c-11.93-4.72-24.54-20.61-7.25-25.8c14.72-0.9,49.4,0.15,50.51,16.64
			C397.39,753.4,368.28,749.38,352.84,743.29z"/>
		<path class="st2" d="M321.49,826.47c-0.68,4.23-3.53,8.2-7.59,9.57c-1.96,0.65-4.09,0.7-6.15,0.48c-1.43-0.15-2.84-0.43-4.15-0.98
			c-3.66-1.53-6.24-5.26-6.61-9.21c-0.38-3.94,1.33-7.98,4.25-10.65c3.18-2.9,8.11-4.58,12.4-3.77c1.66,0.3,3.71,1.11,4.95,2.31
			c1.12,1.09,1.58,2.75,2.07,4.17C321.54,820.99,321.93,823.76,321.49,826.47z"/>
		<path class="st2" d="M302.46,843.88c-9.8,6.44-20.91,12.11-32.64,11.42c-3.83-0.22-8.18-1.6-9.57-5.18
			c-0.89-2.3-0.24-4.98,1.11-7.05c1.36-2.07,3.32-3.64,5.3-5.15c9.08-6.9,18.78-12.97,28.95-18.12c4.94-2.5,10.68-4.82,15.85-2.81
			c2.29,0.9,4.15,2.67,5.31,4.82c0.85,1.57,1.75,3.62,1.5,5.47c-0.26,1.87-1.62,3.63-2.7,5.11c-1.6,2.21-3.52,4.14-5.58,5.91
			C307.64,840.36,305.07,842.17,302.46,843.88z"/>
		<path class="st2" d="M328.74,738.56c-9.86-0.33-20.41-1.85-28.95-8.21c-2.79-2.09-5.53-5.24-5.17-8.48
			c0.22-2.08,1.75-3.67,3.56-4.45c1.82-0.78,3.91-0.92,5.97-1c9.49-0.36,19.13,0.18,28.76,1.59c4.67,0.7,9.9,1.92,12.99,5.94
			c1.37,1.78,2.09,3.98,2.13,6.09c0.03,1.55-0.08,3.45-0.99,4.63c-0.92,1.2-2.61,1.77-4,2.29c-2.06,0.77-4.26,1.18-6.49,1.42
			C333.99,738.64,331.37,738.64,328.74,738.56z"/>
		<path class="st3" d="M274.18,849.82c-2.78,1.97-5.91,3.86-9.23,3.6c-1.29-0.1-2.59-0.57-3.51-1.52c-0.94-0.96-1.42-2.45-1.03-3.78
			c0.21-0.73,0.67-1.36,1.14-1.94c3.23-4.12,7.42-7.61,12.29-9.17c1.96-0.62,4.71-1.45,6.34,0.34c1.35,1.49,1.22,3.9,0.57,5.69
			C279.6,846.11,276.64,848.07,274.18,849.82z"/>
		<path class="st3" d="M306.14,722.31c-3.18-0.11-6.48-0.35-7.83-1.5c-0.52-0.45-0.72-1.05-0.29-1.73c0.43-0.67,1.59-1.42,3.01-1.83
			c0.79-0.22,1.58-0.33,2.35-0.4c5.4-0.62,10.68-0.66,14.5,0.26c1.53,0.37,3.65,0.93,2.76,2.16c-0.73,1.01-3.02,1.95-5.02,2.44
			C312.23,722.55,308.96,722.4,306.14,722.31z"/>
		<path class="st2" d="M254.34,809.58c-11.18,6.22-30.73-1.46-20.37-15.32c10.87-9.65,34.36-22.38,44.73-15.42
			C295.34,789.99,271.66,805.56,254.34,809.58z"/>
		<path class="st2" d="M306.46,803.96c-0.68,4.23-3.53,8.2-7.59,9.57c-1.96,0.65-4.09,0.7-6.15,0.48c-1.43-0.15-2.84-0.43-4.15-0.98
			c-3.66-1.53-6.24-5.26-6.61-9.21c-0.38-3.94,1.33-7.98,4.25-10.65c3.18-2.9,8.11-4.58,12.4-3.77c1.66,0.3,3.71,1.11,4.95,2.31
			c1.12,1.09,1.58,2.75,2.07,4.17C306.5,798.49,306.9,801.26,306.46,803.96z"/>
		<path class="st2" d="M271.3,778.76c-10.78,7.16-30.78,1.2-21.26-13.52c10.25-10.55,32.93-25.25,43.72-19.2
			C311.04,755.69,288.36,773.25,271.3,778.76z"/>
		<path class="st2" d="M267.64,773.02c-0.57,13.67-22.51,15.39-24.48,1.98C240.74,757.19,270.55,752.62,267.64,773.02z"/>
		<path class="st2" d="M352.32,730.81c-1.41,13.61-23.37,13.44-24.51-0.15C326.5,712.68,356.48,710.68,352.32,730.81z"/>
		<path class="st2" d="M298.88,763.36c-10.78,7.16-30.78,1.2-21.26-13.52c10.25-10.55,32.93-25.25,43.72-19.2
			C338.62,740.3,315.94,757.86,298.88,763.36z"/>
		<path class="st2" d="M253.11,786.39c-9.4,7.25-20.67,15.4-32.35,14.52c-29.12-2.21,24.12-41.25,36.03-37.21
			C272.42,769.94,262.05,780.38,253.11,786.39z"/>
		<path class="st3" d="M227.77,794.98c-3.16,2.38-6.72,4.73-10.69,4.75c-1.53,0.01-3.11-0.37-4.28-1.31
			c-1.16-0.94-1.86-2.51-1.5-3.97c0.2-0.8,0.7-1.52,1.2-2.19c3.53-4.74,8.24-8.9,13.9-11.03c2.26-0.85,5.48-2.02,7.54-0.24
			c1.7,1.46,1.75,4.08,1.08,6.08C233.91,790.48,230.56,792.89,227.77,794.98z"/>
		<path class="st2" d="M282.75,796.59c-11.18,6.22-30.73-1.46-20.37-15.32c10.87-9.65,49.27-26.86,59.65-19.92
			C338.67,772.5,300.09,792.57,282.75,796.59z"/>
		<path class="st2" d="M251.04,803.55c-1.41,13.61-23.37,13.44-24.51-0.15C225.22,785.43,255.2,783.44,251.04,803.55z"/>
		<path class="st2" d="M276.41,823.43c-11.55,5.17-30.51-4.34-19.25-17.21c11.47-8.6,35.71-19.11,45.58-11.19
			C318.55,807.73,293.93,821.04,276.41,823.43z"/>
		<path class="st2" d="M283.33,789.15c-0.68,4.23-3.53,8.2-7.59,9.57c-1.96,0.65-4.09,0.7-6.15,0.48c-1.43-0.15-2.84-0.43-4.15-0.98
			c-3.66-1.53-6.24-5.26-6.61-9.21c-0.38-3.94,1.33-7.98,4.25-10.65c3.18-2.9,8.11-4.58,12.4-3.77c1.66,0.3,3.71,1.11,4.95,2.31
			c1.12,1.09,1.58,2.75,2.07,4.17C283.39,783.68,283.77,786.45,283.33,789.15z"/>
		<path class="st2" d="M273.52,817.1c-2.32,13.43-24.17,11.22-24.39-2.44C249.02,796.6,279.01,797.41,273.52,817.1z"/>
		<path class="st2" d="M235.75,815.64c-9.8,6.44-21.54,13.59-33.13,11.7c-28.88-4.71,26.56-39.1,38.19-34.04
			C255.98,800.89,245.02,810.41,235.75,815.64z"/>
		<path class="st2" d="M305.57,813.13c-11.55,5.17-30.51-4.34-19.25-17.21c11.47-8.6,35.71-19.11,45.58-11.19
			C347.72,797.43,323.11,810.75,305.57,813.13z"/>
		<path class="st2" d="M257.49,827.73c-10.19,5.5-22.35,11.55-33.77,8.58c-28.43-7.41,29.07-36.53,40.3-30.39
			C278.63,814.9,267.07,823.37,257.49,827.73z"/>
		<path class="st3" d="M231.39,833.23c-3.26,2.14-6.91,4.13-10.6,3.4c-1.43-0.29-2.85-1.02-3.83-2.34c-0.97-1.3-1.4-3.24-0.87-4.84
			c0.3-0.9,0.84-1.61,1.42-2.3c3.93-4.76,8.87-8.63,14.44-9.99c2.23-0.54,5.39-1.25,7.06,1.18c1.39,2.02,1.08,5.02,0.2,7.2
			C237.73,829.24,234.27,831.36,231.39,833.23z"/>
		<path class="st3" d="M210.9,822.08c-3.3,2.22-7,4.35-10.94,4.04c-1.53-0.12-3.07-0.65-4.18-1.73c-1.11-1.09-1.69-2.77-1.23-4.27
			c0.25-0.83,0.79-1.53,1.34-2.19c3.82-4.65,8.8-8.58,14.57-10.32c2.32-0.7,5.59-1.63,7.53,0.4c1.61,1.69,1.46,4.41,0.69,6.43
			C217.31,817.89,213.81,820.13,210.9,822.08z"/>
		<path class="st4" d="M312.44,808.13c-1.01-1.24,0.26-2.99,1.5-4c5.43-4.44,11.77-7.79,18.5-9.76c0.96-0.28,4.76-0.87,3.92,1.27
			c-0.49,1.25-4.29,1.83-5.5,2.29c-4.23,1.62-8.33,3.61-12.2,5.96C318.12,804.23,312.37,808.04,312.44,808.13z"/>
		<path class="st4" d="M285.9,788.84c12.65-4.75,25.35-10.63,34.45-20.59c-14.54,0.66-29.71,14.04-45.12,17.12
			c-7.02,2.65-30.53,10.46-36.26,16.05C240.09,811.07,279.59,789.16,285.9,788.84z"/>
		<path class="st4" d="M303.01,757.46c3.62-2.2,7.53-5.83,6.37-9.92c-14.64,11.95-78.57,24.91-73.66,37.89
			C262.06,771.33,276.29,772.4,303.01,757.46z"/>
		<path class="st4" d="M331.34,797.97c0.03-1.84,0.35-3.69,0.94-5.43c1.02-3.02,2.79-5.77,5.15-7.93c0.81-0.73,3.76-3.64,5.07-2.43
			c1.02,0.94,0.17,3.33-0.18,4.38c-0.71,2.22-1.79,4.37-3.14,6.26C337.39,795.33,334.61,797.95,331.34,797.97z"/>
		<path class="st4" d="M327.96,761.7c-2.59,4.21-5.68,8.11-9.19,11.59c-0.94,0.93-2.12,1.89-3.42,1.7
			c-1.14-0.18-1.98-1.28-2.19-2.42c-0.2-1.14,0.13-2.31,0.56-3.38c1.7-4.23,5.12-7.74,9.33-9.52c1.24-0.53,2.87-0.84,3.78,0.15
			c0.7,0.74,0.64,1.93,0.26,2.88s-1.05,1.74-1.5,2.65"/>
		<path class="st4" d="M301.53,733.22c1.53-3.45,5.2-4.52,8.43-5.15c8.29-1.63,16.63-2.85,25.01-3.66
			c12.57-1.21,25.52-1.62,37.15-7.56c-14.2,1.76-28.4,3.51-42.59,5.27c-8.72,1.08-17.82,2.3-25.2,8.02"/>
	</g>
	<path class="st2" d="M536.16,711.32c20.45-0.64,43.18-0.48,58.22,13.39c7.19,6.63,11.66,15.69,15.14,24.83
		c3.98,10.48,6.9,21.66,5.92,32.83c-0.98,11.17-6.37,22.39-15.94,28.24c-16.6,10.15-76.39-6.74-98.72-7.86
		c-23.9-1.19-60.76-4.6-84.08-9.96c-14.29-3.28-23.78-11.4-33.61-22.44c-10.56-11.87-15.07-27.82-7.78-42.56
		c2.21-4.47,5.15-8.42,9.94-10.25c5.86-2.24,12.72-1.88,18.87-2.07c20.77-0.65,41.55-1.31,62.32-1.96
		c20.69-0.65,41.37-1.3,62.06-1.95C531.05,711.48,533.6,711.4,536.16,711.32z"/>
</g>
<path class="st11" d="M412.28,873.07c-2.9,0.61-6.21,1.58-7.45,4.56c16.54-0.55,33.04-2.74,49.23-6.52
	c4.07-0.95,8.14-1.95,12.16-3.15c1.05-0.32,3.79-0.85,3.29-2.63c-0.48-1.71-3.28-0.73-4.38-0.61c-8.43,0.91-16.83,2.01-25.22,3.32
	C430.67,869.47,421.46,871.15,412.28,873.07z"/>
<g>
	<path class="st0" d="M706.29,686.15c15.16,0.29,30.34,1.8,45.16,5.06c14.53,3.2,28.78,8.12,41.76,15.47
		c8.74,4.95,19.3,11.13,24.23,20.32c2.06,3.84,3.19,8.12,4.3,12.3c1.88,7.06,3.79,14.13,5.09,21.33c2.99,16.54,3.37,33.56,1.01,50.2
		c-2.4,16.9-8.55,34.75-22.88,44.02c-14.27,9.24-32.75,7.61-49.61,5.43c-39.75-5.14-105.65-20.96-118.03-26.38
		c-19.59-8.57-41.86-4.83-62.18-11.53c-2.79-0.92-6.06-2.44-6.33-5.36c-0.12-1.3,0.42-2.56,0.93-3.77
		c15.42-36.66,1.36-83.33-31.75-105.37c2.13-5.63,9.39-6.92,15.4-7.26c18.62-1.07,37.29-1.47,55.94-1.21
		c6.64,0.09,13.33,0.26,19.86-0.97c6.2-1.17,12.09-3.57,18.1-5.48c17.17-5.45,35.36-6.86,53.37-6.87
		C702.54,686.08,704.42,686.1,706.29,686.15z"/>
	<path class="st11" d="M645.43,813.71c3.01-24.37,5.87-49.97-3.28-72.76c-4.62-11.52-12.12-21.71-16.08-33.53
		c-0.47-1.41-2.21-6.35,0.25-6.72c1.96-0.3,4.21,2.98,5.24,4.22c3.37,4.08,6.39,8.44,9.05,13.01c5.37,9.23,9.25,19.3,11.58,29.72
		c2.32,10.39,3.11,21.12,2.27,31.73c-0.84,10.63-3.32,21.14-7.51,30.95C646.53,811.31,645.56,812.67,645.43,813.71z"/>
	<path class="st11" d="M558.36,713.64c24.35,27.93,31.05,69.94,17.02,104.16c-0.56,1.36-1.75,3.75-3.16,3.35
		c-1.45-0.41-3.49-1.49-3.4-4.15c0.23-6.27,5.2-20.1,5.39-26.38c0.89-28.13-12.64-55.34-32.01-75.75c-2-2.1-7.5-8.51-2.8-10.83
		c3.39-1.67,9.2,1.36,11.93,3.18C553.96,708.99,556.27,711.25,558.36,713.64z"/>
	<path class="st11" d="M627.44,706.8c1.58-0.02,3.76,0.56,3.58,2.13c-0.14,1.27-1.76,1.69-3.04,1.8
		c-22.72,1.93-45.48,3.42-68.26,4.47c-3.61,0.17-12.57,0.16-13.46-4.89c-0.62-3.52,7.91-2.54,9.8-2.53
		c15.1,0.06,30.23-0.4,45.33-0.62C610.07,707.04,618.75,706.92,627.44,706.8z"/>
	<path class="st11" d="M639.64,726.07c2.23,0.16,5.2,1.2,4.86,3.41c-11.39,2.58-23.19,2.54-34.86,2.5
		c-10.44-0.04-20.87-0.08-31.31-0.12c-5.13-0.02-10.3,0.14-15.42-0.25c-1.15-0.09-6.57,0.06-5.53-2.14
		c0.81-1.72,4.94-2.63,6.52-3.11c3.36-1.02,6.68-1.44,10.17-1.56c10.33-0.35,20.68-0.44,31.02-0.27
		C616.61,724.72,628.14,725.23,639.64,726.07z"/>
	<path class="st11" d="M632.78,746.25c5.77,0.28,11.67,0.68,16.99,2.93c1.2,0.51,2.58,1.75,1.88,2.86
		c-4.64,1.38-9.56,1.41-14.4,1.42c-21.1,0.04-42.21,0-63.31-0.11c-2.33-0.01-4.94-0.15-6.51-1.86c-0.98-1.06-1.02-2.98-0.17-4.14
		c1.07-1.46,3.18-1.04,4.77-1.11c4.87-0.24,9.74-0.42,14.62-0.54c9.86-0.25,19.72-0.26,29.58-0.04
		C621.74,745.78,627.26,745.97,632.78,746.25z"/>
	<path class="st11" d="M652.31,775.65c0.81,2.18-2.46,3.43-4.79,3.43c-22.16,0.07-44.32,0.13-66.48,0.2
		c-2.1,0.01-4.39-0.05-5.99-1.4c-1.31-1.1-1.91-4.08-0.03-4.91c0.7-0.31,1.72-0.08,2.47-0.12c1.35-0.07,2.7-0.33,4.04-0.52
		c5.78-0.82,11.57-1.59,17.38-2.14c11.52-1.11,23.22-1.44,34.69,0.33C640,771.5,646.31,773.17,652.31,775.65z"/>
	<path class="st11" d="M644.31,805.71c1.29,0.33,2.94,1.46,2.28,2.66c-0.31,0.57-1.02,0.74-1.64,0.84
		c-3.63,0.53-7.31,0.26-10.96-0.03c-13.62-1.1-27.21-2.54-40.77-4.31c-3.16-0.41-6.32-0.85-9.43-1.57
		c-2.45-0.57-6.83-1.23-8.39-3.49c-2.61-3.78,5.18-4.06,7.02-4.08c6.24-0.07,12.61,0.95,18.8,1.73c6.85,0.87,13.68,1.94,20.48,3.22
		C629.27,802.09,636.82,803.77,644.31,805.71z"/>
	<path class="st11" d="M630.47,823.77c2.9,0.61,6.21,1.58,7.45,4.56c-16.54-0.55-33.04-2.74-49.23-6.52
		c-4.07-0.95-8.14-1.95-12.16-3.15c-1.05-0.32-3.79-0.85-3.29-2.63c0.48-1.71,3.28-0.73,4.38-0.61c8.43,0.91,16.84,2.01,25.22,3.32
		C612.09,820.18,621.3,821.85,630.47,823.77z"/>
</g>
<path class="st11" d="M665.07,491.85c3.67-19.06,10.43-37.82,9.81-57.22c-4.2-1.98-7.38,4.16-8.01,8.75
	c-6.59,47.86-13.18,95.72-19.77,143.58c-0.58-18.24-3.74-36.39-9.38-53.75c-4.26,7.88-2.4,17.49-0.93,26.33
	c5.88,35.48,6.69,70.2,4.23,106.08c-0.88,12.89,1.98,17.95,1.09,30.84c8.53-9.12,5.84-14.81,6.08-27.3
	c0.13-6.75,1.98-15.63,2.11-22.38c0.1-5.23-1.52-7.28,0.27-12.28c1.18-3.3-0.75-6.16,0.63-9.38c2.24-5.22,3.33-10.93,4.38-16.48
	c4.66-24.73,4.16-50.03,5.21-75.07C661.39,519.47,663.27,505.8,665.07,491.85z"/>
<path class="st11" d="M280.97,458.94c-4.09-5.24-9.02-10.68-15.61-11.55c0.82,3.32,2.57,6.33,4.35,9.26
	c13.92,23.13,30.92,44.32,43.35,68.35c3.5,6.76,6.35,13.72,9.16,20.78c0.02-12.02-5.24-23.38-9.98-34.24
	c-5.22-11.96-11.4-23.51-18.46-34.5C289.8,470.81,285.52,464.77,280.97,458.94z"/>
<path class="st12" d="M437.15,794.46c-0.47,1.97-0.86,4.32,0.53,5.8c0.6,0.65,1.45,1,2.28,1.3c4.66,1.67,9.65,2.18,14.58,2.67
	c6.43,0.64,12.86,1.29,19.29,1.93c2.08,0.21,4.38,0.36,6.05-0.89c1.69-1.26,2.19-3.54,2.51-5.62c2.29-14.96,1.2-30.42-3.17-44.91
	c-0.59-1.96-1.38-4.08-3.16-5.08c-1.17-0.66-2.58-0.72-3.93-0.75c-5.03-0.09-10.06,0.09-15.07,0.53c-2.51,0.22-5,0.51-7.49,0.86
	c-1.87,0.27-4.57,0.22-6.08,1.52c-1.05,0.91-0.95,2.4-0.91,3.67c0.09,2.4,0.14,4.8,0.04,7.2c-0.21,5.06-0.88,10.08-1.79,15.06
	c-0.91,4.98-2.06,9.92-3.23,14.84C437.45,793.22,437.3,793.84,437.15,794.46z"/>
<path class="st11" d="M718.72,504.67c-3.72-1.23-7.65,0.95-10.84,3.23c-18.7,13.4-32.05,33.22-41.18,54.34
	c-5.63,13.01-9.79,26.6-13.37,40.3c-0.9,3.43-1.75,6.88-2.59,10.33c-0.59,2.44-3.05,7.92-2.45,10.31c0.98,3.85,2.53,0.18,3.3-1.73
	c1.26-3.11,2.56-6.22,3.89-9.3c10.58-24.6,23.15-48.34,37.55-70.92c4.04-6.33,8.21-12.57,12.53-18.71
	C706.79,520.77,717.47,504.25,718.72,504.67z"/>
<path class="st13" d="M400.4,722.08c0.74,3.31,2.54,6.27,4.31,9.16c3.42,5.57,6.84,11.15,10.26,16.72
	c6.85,11.58,19.26,19.05,32.87,17.72c5.45-0.32,10.9-0.63,16.35-0.95c5.81-0.34,17.52-2.65,21.38-7.01c3.1-3.5,3.8-12.17,2.62-16.68
	c-1.18-4.52-8.11-8.92-11.02-12.57c-4.57-5.74-10.96-5.37-16.75-9.89c-5.82-4.54-12.2-8.37-19.01-11.22
	c-6.26-2.62-12.81-4.15-19.47-5.35c-4.27-0.77-8.06-0.75-11.86,1.57C403.58,707.4,398.61,714.22,400.4,722.08z"/>
<path class="st14" d="M411.96,725.54c20.48,32.77,27.25,30.65,60.54,28.4c15.42-1.04,19.33-8.22,13.83-16.77
	c-6.46-12.49-14.53-25.89-26.75-33.28C446.76,696.13,390.24,690.78,411.96,725.54z"/>
<path class="st11" d="M708.2,694.29c25.87,4.46,51.46,12.23,77.7,11.77c-34.81-14.76-73.2-20.99-110.89-17.98
	c27.94-4.82,55.54-11.55,82.56-20.12c2.03-0.64,4.51-2.05,4.04-4.12c-10.74-4.3-22.87-2.31-34.16,0.21
	c-30.75,6.85-60.59,17.1-90.21,27.71c-4.49,1.61-18,3.66-15.87,10.45c1.19,3.79,4.7,6.14,8.39,4.6c3.84-1.6,6.89-5.31,10.27-7.65
	c5.19-3.59,11.19-5.02,17.33-6.12C674.17,690.03,691.5,691.41,708.2,694.29z"/>
<path class="st1" d="M344.43,352.04c12.06,20.87,27.35,39.87,45.15,56.13c-21.83,10.83-52.95-3.14-70.03,14.24
	c10.17,8.94,22.79,14.51,35.19,19.95c32.15,14.1,64.3,28.2,96.46,42.3c9.86,4.33,20.55,8.75,31.09,6.5
	c-8.43-8.08-16.86-16.17-25.28-24.25c-8.44-8.09-16.86-16.4-23.48-26.09c-5.8-8.49-7.59-17.68-11.79-26.75
	c-4.25-9.19-12.69-17.58-19.39-25.05c-7.41-8.25-15.45-16.03-24.51-22.45C367.81,359.49,356.54,354.18,344.43,352.04z"/>
<path class="st11" d="M570.31,699.99c19.15-1.01,38.34-1.34,57.51-0.99c0.4-0.88-0.84-1.56-1.79-1.72
	c-26.26-4.47-53.33-2.6-79.39,2.92c-2.56,0.54-5.27,1.26-7.37,2.9c-0.24,0.19-1.95,1.6-1.57,1.95c0.3,0.27,1.9-0.66,2.18-0.78
	c2.77-1.19,5.87-1.67,8.83-2.18c3.35-0.58,6.72-0.99,10.1-1.31C562.65,700.42,566.48,700.19,570.31,699.99z"/>
</svg>
