<?xml version="1.0" encoding="utf-8"?>
<!-- Generator: Adobe Illustrator 25.2.0, SVG Export Plug-In . SVG Version: 6.00 Build 0)  -->
<svg version="1.1" xmlns="http://www.w3.org/2000/svg" xmlns:xlink="http://www.w3.org/1999/xlink" x="0px" y="0px"
	 viewBox="0 0 998.2 973.2" style="enable-background:new 0 0 998.2 973.2;" xml:space="preserve">
<style type="text/css">
	.st0{display:none;}
	.st1{display:inline;fill:#59B1D3;}
	.st2{display:inline;fill:#39768D;}
	.st3{display:inline;fill:#C7AFC4;}
	.st4{display:inline;fill:#16272D;}
	.st5{display:inline;fill:#596187;}
	.st6{display:inline;fill:#2E3552;}
	.st7{display:inline;fill:#FFFFFF;}
	.st8{display:inline;fill:#AC91A8;}
	.st9{display:inline;}
	.st10{fill:#C7AFC4;}
	.st11{fill:#596187;}
	.st12{fill:#AC91A8;}
	.st13{fill:#16272D;}
	.st14{fill:#59B1D3;}
	.st15{fill:#FFFFFF;}
	.st16{clip-path:url(#SVGID_2_);}
	.st17{clip-path:url(#SVGID_4_);}
	.st18{clip-path:url(#SVGID_6_);}
	.st19{clip-path:url(#SVGID_8_);}
	.st20{clip-path:url(#SVGID_10_);}
	.st21{clip-path:url(#SVGID_12_);}
	.st22{clip-path:url(#SVGID_14_);}
	.st23{fill:#8ABBFD;}
	.st24{fill:#285BAA;}
	.st25{fill:#FF9D68;}
	.st26{fill:#0F396C;}
	.st27{fill:#2B1E3C;}
	.st28{fill:#D03475;}
	.st29{fill:#701A59;}
	.st30{fill:#89BDF7;}
	.st31{fill:#295CA5;}
	.st32{fill:#3B71B2;}
</style>
<g id="голова" class="st0">
	<path class="st1" d="M1410.4,410.2c47,93.6,74.7,184.4,112.5,282.1c10.9,41.1,36.7,90.1-1.9,111.6c-19.9,9.3-103.3,24-121.3,7.9
		c-29.3-36.1-20.2-90-40.7-130.9c-35.3-58.8-56.9-121.6-47.5-191.4C1310.6,425.6,1410.4,410.2,1410.4,410.2z"/>
	<path class="st2" d="M1370.3,491.5c-4,1.7-6.5,5.9-7.2,10.2c-0.7,4.3,0.1,8.7,1,12.9c2.2,10.1,5.2,20.1,7.3,30.3
		c4.2,20.8,4,42.5-0.3,63.3c-1.3,6.2-3,12.3-3.6,18.6c-0.6,6.2-0.1,12.5,0.3,18.8c0.9,12.4,1.8,24.8,4,36.9
		c2.8,15.4,7.7,30.4,12.6,45.3c4.5-3.5,7-9,9.8-13.9c5.9-10.4,14.1-19.5,23.7-26.5c9.9-7.2,21.8-12.7,27.8-23.3
		c-8.3-0.5-15.8-5.1-21.5-11.2c-5.7-6-9.7-13.4-13.6-20.7c-3.8-7-7.6-14-11.4-21.1c-1.4-2.6-2.9-5.3-3.2-8.3c-0.3-3,0.9-6.3,3.6-7.6
		c2.7-1.3,5.8-0.3,8.7,0.2c2.9,0.5,6.6,0.2,7.9-2.4c0.5-1,0.6-2.3,0.5-3.5c-0.5-10-7.2-18.5-12.3-27.1c-9.4-16.2-13.4-34.9-18.3-53
		c-1.5-5.6-3.3-11.5-7.8-15.3c-4.4-3.7-12.4-3.9-15.2,1.2"/>
	<path class="st1" d="M1001.4,405.8c-27.6,31.2-49.3,72.8-52.7,114.8c2.1,10.4,12.9,16.2,22.3,21c75.4,35.3,121.7,32.9,94.4,177.4
		c-7.9,41.5-24.3,93,4.4,128.9c9.4,8.3,22.9,9.4,35.4,9.8c73.3,0.9,146.6-2.2,219.9-3c62.4,6,78.8-42.4,68-96.1
		c-4.8-49.2-8.7-77.6-14.9-126.5c-0.8-9.8,10.1-24.8,8-55.5c-3.2-47-23.6-71.2-12.1-80.5c12.5-14,51-35.2,49.1-57.8
		c-34.2-105.3-138.2-89-225.9-81C1128.3,359.3,1051.3,345.9,1001.4,405.8z"/>
	<path class="st2" d="M1473.5,702.7c-23.6-3.9-47.7-4.6-71.4-2c-6.1,0.7-12.2,1.6-17.9,3.6c-4.4,1.5-8.5,3.6-12.6,5.7
		c-16.5,8.4-33,16.8-49.5,25.2c-8.5,4.3-17.1,8.7-24.7,14.5c-4.3,3.3-8.3,7-12.3,10.7c-3.4,3.2-6.8,6.4-10.2,9.6
		c-5.2,4.9-10.8,12-7.6,18.3c3.2,6.1,11.8,5.9,18.5,4.7c8.1-1.5,16.2-3.2,24.3-4.9c45.3-9.6,90.7-19.2,135.3-31.8
		c21-6,42.2-12.7,60.4-24.8c3.1-2,6.3-4.5,7.4-8.1c1.1-3.6-1.3-8.3-5-8.1c-2.8,0.1-4.1,0.8-4.7-2.3c-0.4-2.1-3.5-2.9-5.3-3.7
		c-5-2.2-10.3-3.7-15.6-4.9C1479.6,703.8,1476.6,703.2,1473.5,702.7z"/>
	<path class="st1" d="M1529.4,733.6c35,54.7-9.8,123.5-141,126.1c-16.3,0.3-33.7-6.8-47.4,1.1c-25.3,14.6-51.7-7.2-66.2-23.5
		c-16.9-18.9-37.3-55.7,12.8-63.7c9.4-17.9,34.9-30.4,58.5-41.4c36.5-19.3,81.8-26.2,123.9-25
		C1495.8,708.8,1526.8,713.7,1529.4,733.6z"/>
	<path class="st2" d="M1340,794.1c2.9,4.1,4.5,8.9,8.5,12.2c2.3,1.9,5.3,3.1,7.7,5c3.1,2.5,4.8,6,7.2,9c2.4,3,6.2,5.7,10.3,5.3
		c-1.8-16.3-10.3-32-23.5-43.6c-4.7-4.1-10-7.7-15.6-10.9c-6.2-3.6-13-6.7-20.2-8.3c-4.1-0.9-13.7-2.9-16.4,1.4
		c-3.2,5,7.2,8.7,10.8,10.3c5.6,2.5,11.2,4.8,16.6,7.6C1331.1,785.2,1336.4,789,1340,794.1z"/>
	<path class="st2" d="M1167.4,445.6c3.7,1.5,7.9,2.5,11.7,1.3c3.7-1.2,6.5-4.2,8.9-7.3c6.1-8,10.4-17.2,12.7-27
		c0.7-3.1,1.3-6.2,2.9-8.9c1.6-2.7,4.6-4.9,7.7-4.5c0.2-1,0.4-1.9,0.5-2.8c1.3,0.4,2.6,0.8,3.9,1.2c1.4,1.5,3.2,2.5,4.9,3.6
		c11.4,7.1,21,17.1,27.6,28.8c1.8,3.2,3.9,7,7.5,7.7c2.6,0.5,5.2-0.7,7.4-2.1c4.1-2.6,7.6-5.9,10.5-9.7c2-2.7,4.2-7.5,7.2-8.8
		c3.1-1.4,11.6-6.4,11.4-3.1c0,0.7-4.5,10-4.7,10.7c-3.1,8.6-7,18-15.2,21.8c-7,3.2-15.5,1.3-21.9-3c-6.4-4.3-11-10.7-15.3-17.2
		s-8.3-13.2-13.9-18.5c-3-2.9-7.6-5.4-11.2-3.2c-2.5,1.5-3.4,4.6-4.1,7.4c-3.1,11.6-6.8,23-11.4,34c-2.1,5.2-4.6,10.5-9.1,13.8
		c-7.5,5.4-18.3,3.2-26.3-1.5c-8-4.7-14.7-11.6-22.9-15.9c-3-1.5-6.8-3.1-8.5-6.3c-1.5-2.8-0.2-7.9,3.3-8.8c1.7-0.4,3.7,0.5,5.2,1.1
		c2.1,0.8,4.1,1.8,6.1,2.9c4,2.2,7.8,4.7,11.6,7.1C1158.3,441.1,1162.7,443.7,1167.4,445.6z"/>
	<path class="st3" d="M1141.9,351.3c0,0,14.2,48.4,68.8,42.2s60.9-65.5,60.9-65.5l-101.8-17.4h-31.4L1141.9,351.3z"/>
	<path class="st4" d="M1142.5,314.6c6.2,12.3,14.4,25.1,27,30.9c12.6,5.7,26.7,7.7,40.5,7.1c10.7-0.5,21.6-2.6,30.4-8.6
		s17.8-20,16.1-30.5c-0.2-1.5-0.8-3.2-2.2-3.8c-0.9-0.4-2-0.3-3,0c-4.9,1.1-9.4,3.7-13.9,6c-16.9,8.4-36.9,12.1-54.8,6
		c-7.4-2.5-14.2-6.6-21-10.3c-3.4-1.8-6.9-3.6-10.4-5.1c-1.8-0.7-3.6-1.4-5.5-1.9c-1.5-0.4-3.3-1.1-4.9-0.5c-2,0.6-1.5,2.5-1,4.1
		C1140.5,310.2,1141.4,312.4,1142.5,314.6z"/>
	<path class="st5" d="M1190,116.5c0,0-41.8-6.7-65.4,12.5c-23.5,19.2-40.5,53.3-37.2,108.7c3.2,55.4-13.9,98-29.5,138.9
		c0,0,1.9,6.3,12.8,11.5c0,0-8.7,10.9-7.4,16.2c1.3,5.3,7.9,9.6,7.9,9.6s-18.1,18.9,1.8,32.3c19.9,13.4,29.6,1.1,29.6,1.1
		s21.2,6.5,31.7-1c10.4-7.5,15.1-135.8,15.1-135.8l105.9-7.1c0,0-5.8,96.3,9.8,109.7c15.6,13.4,29.5-1.1,29.5-1.1s28.5,2,38.4-8.3
		c9.8-10.3,9-31.4-9-64.4s-38.3-70.6-40.1-95.7c0,0,13.5-71.1-17.2-105.4C1236.2,104.1,1190,116.5,1190,116.5z"/>
	<path class="st6" d="M1269,273.2c-2.7,0.1-4.7,4-5.7,6.1c-0.8,1.6-1.1,3.3-1.1,5.1c-0.1,2.8-0.4,5.6-0.7,8.5
		c-0.7,7.1-1.3,14.2-1.7,21.4c-0.4,7.1-0.6,14.3-0.5,21.4c0.1,7.1,0.4,14.2,1,21.3c0.1,0.9,0.2,1.8,0.2,2.7
		c2,20.2,6.8,40.3,15.1,58.7c2.9,0.5,5.5,0.4,7.9-0.2c-6.8-17.8-15-35.4-15.4-54.3c6,17.7,12.2,35.8,21.7,51.7
		c3-1.8,4.8-3.6,4.8-3.6s4.5,0.3,10.5,0.1c-19.5-41.6-18.3-90.1-32-134.1C1272.6,276,1271.3,273.1,1269,273.2z"/>
	<path class="st6" d="M1129.3,274.8c-0.3-3-0.8-6.3-2.7-8.8c-1.8-2.3-5.4-3.4-8-1.6c-1.9,1.3-1,3.9-0.8,5.7
		c0.5,3.7,0.2,7.5,0.2,11.2c0,8.1-0.2,16.2-0.5,24.2c-0.4,8.1-0.9,16.2-1.8,24.2c-0.8,8-2,16-3.4,24c-0.2,1-0.4,2-0.6,3
		c-5.8,30-16.7,59.4-34.6,84.2c-1.3,1.8-2.6,3.5-3.9,5.3c4.3,2.9,8.2,4.5,11.5,5.4c1-1.6,2-3.2,3-4.9c5.3-9.5,9.3-19.8,16-28.4
		c2.2,9.6,0.4,19.3-1.4,29c0.1-0.1,0.2-0.2,0.2-0.2s4.1,1.3,9.6,2c5.5-30.3,10.8-60.7,10.5-91.5c0-0.9,0-1.9,0.6-2.6
		c0.9-1.1,2.8-0.7,3.8,0.4c0.9,1.1,1.2,2.6,1.3,4c3.5,29.5,0.3,59.4,1,89c1.7-0.5,3.4-1.3,4.8-2.3c3.2-2.3,5.8-15.5,7.9-33
		c0.1-2,0.2-4.1,0.3-6.1c0.4-21.8-5.2-43.2-8-64.8C1131.5,320,1131.7,297.3,1129.3,274.8z"/>
	<path class="st3" d="M1133.4,239.6c0,0-5.8-15.4-20.9-13.4c-15.2,2-6.6,26.6-3,32.7c3.6,6.2,12.3,18.6,22.3,9.8
		c0,0,4.2,39.4,23.9,57.6c19.7,18.2,74,24.4,97,2.1c23.1-22.4,21.2-66.3,21.2-66.3s10.1,5,18-9.1c8.5-15.1,7.8-32.2-5.6-33.4
		c-10-0.9-15.9,15.7-15.9,15.7s0-31.9-23-36.3c-26.8-5.1-42.9-21.8-42.9-21.8s-18.9,20.8-37.8,23.2
		C1145.2,203.4,1133.2,232.2,1133.4,239.6z"/>
	<path class="st4" d="M1144.2,228.3c-0.4,0.4,0.1,1,0.6,0.8c3.9-1.8,14-5.4,17.5-5.7c4.9-0.4,26.1,2.8,29.7,2.2
		c3.6-0.7,6.3-4.2,4.6-7.1c-1.7-2.9-30.2-1.9-36-0.5C1156.4,218.9,1147.4,225.2,1144.2,228.3z"/>
	<path class="st4" d="M1278.7,220.9c0.4,0.3,0.1,1-0.5,0.9c-4.1-1.3-14.5-3.8-18.1-3.6c-4.9,0.2-25.6,5.9-29.3,5.6
		c-3.7-0.2-6.8-3.4-5.4-6.5s29.8-5.4,35.7-4.7C1265.5,213,1275.1,218.1,1278.7,220.9z"/>
	<path class="st4" d="M1220.8,244.1c2.5-0.9,3,8.4,4.4,12.2c1.4,3.8,5.4,10.6,4.3,11.2c-1.1,0.6-6.8-6.1-8.3-10.5
		C1220.1,254,1218.7,244.9,1220.8,244.1z"/>
	<path class="st4" d="M1196.3,278.7c0,0.5,0.3,1,0.6,1.4c2.3,3.1,6.1,4.9,9.9,4.9c0.6,0,1.3-0.1,1.9-0.3c1.1-0.4,1.9-1.4,2.1-2.6
		c0.1-0.4,0.1-0.9-0.2-1.3c-0.5-0.7-1.6-0.5-2.4-0.3c-1.8,0.5-3.8,0.8-5.2-0.3c-0.9-0.6-1.4-1.6-2.2-2.2c-0.8-0.6-1.7-0.9-2.7-0.8
		C1197.3,277.2,1196.3,277.8,1196.3,278.7z"/>
	<path class="st4" d="M1229.1,283c1.7-0.1,3.4-0.6,4.6-1.7c1.2-1.2,1.7-3.1,1-4.6c-0.2-0.5-0.7-1-1.2-1.1c-1-0.2-1.7,0.8-2.4,1.4
		c-0.9,0.8-2.2,1.2-3.4,1.1c1.2-1,2.1-2.2,2.6-3.7c0.2-0.5,0.3-1.1,0-1.5c-0.2-0.2-0.5-0.4-0.8-0.4c-1.4-0.2-2.6,0.7-3.6,1.6
		c-1.6,1.5-2.9,3.2-4.6,4.4c-2.2,1.5-5,2.1-7.7,1.7c-0.5,0.5-0.4,1.4,0,1.9c0.4,0.5,1.1,0.8,1.8,1c1.9,0.5,3.9,0.4,5.8-0.1
		c0.8-0.2,1.6-0.7,2.5-0.8c0.7-0.1,1.3,0.2,1.9,0.4C1226.6,282.9,1227.9,283.1,1229.1,283z"/>
	<path class="st4" d="M1185.2,299c-0.2,1.6-0.4,3.2-0.6,4.7c-0.1,0.6,0,1.3,0.5,1.5c0.5,0.2,1-0.4,1.4-0.7c1.2-1.1,3.1-0.9,4.7-0.8
		c9.5,0.8,19-0.8,28.5-1.9c6.6-0.8,13.2-1.3,19.7-1.2c0.8,0,1.8,0.1,2.4,0.6c0.3,0.3,0.7,0.7,1.1,0.5c0.2-0.1,0.2-0.4,0.2-0.7
		c0-1.8-0.1-3.5-0.4-5.3c-0.1-0.6-0.4-1.4-1-1.3c-0.3,0-0.6,0.3-0.8,0.5c-1.4,1-3.4,0.5-5,0c-2.7-1-5.3-2-7.9-3.1
		c-1.9-0.8-4-1.6-5.8-0.8c-1.5,0.7-2.3,2.3-3.4,3.5c-1.1,1.2-3,2.2-4.3,1.2c-1.3-1-2.5-1.7-3.8-2.6c-0.5-0.4-1-0.7-1.6-0.8
		c-0.5,0-1,0.2-1.4,0.4c-3.8,1.7-7.5,3.5-11.3,5.2c-2.7,1.3-5.9,2.5-8.6,1.4c-0.5-0.2-1-0.5-1.5-0.6
		C1185.8,298.6,1185.2,298.4,1185.2,299z"/>
	<path class="st4" d="M1206.7,311.3c2.8,0,5.7-0.3,8.5-0.6c6.2-0.6,12.4-1.4,18.6-2.4c0.6-0.1,1.2-0.2,1.8,0c0.5,0.2,1,0.8,0.8,1.4
		c-0.1,0.2-0.3,0.4-0.5,0.6c-3.1,2.6-7.2,3.4-11.2,4.1c-5.3,0.9-10.7,1.7-16,1.7c-2.3,0-4.7-0.2-7-0.6c-2.3-0.4-4.6-1-6.8-1.9
		c-1-0.4-2.2-0.8-2.9-1.5c-0.5-0.5-0.7-1.4,0-1.8c0.7-0.4,1.7-0.3,2.5-0.2c1.2,0.2,2.5,0.4,3.8,0.6c2.5,0.3,5,0.5,7.6,0.5
		C1206.1,311.3,1206.4,311.3,1206.7,311.3z"/>
	<path class="st4" d="M1219,323.5c0.1,0.7-0.1,1.5-0.1,2.2c0,0.8,0.5,1.6,1.2,1.6c0.5,0,0.9-0.3,1.2-0.8c0.2-0.4,0.2-1,0.2-1.5
		c0-0.4-0.1-0.9-0.2-1.3c-0.1-0.4-0.2-0.9-0.5-1.2c-0.3-0.3-0.7-0.6-1.1-0.5c-0.4,0.1-0.8,0.4-0.9,0.9c-0.1,0.4-0.1,0.9,0.1,1.3"/>
	<path class="st7" d="M1152.8,250.6c0,0,10.7,5.1,20.5,3.6s12.6-10.1,12.6-10.1s-4.9-6.5-16.3-4.1S1152.8,250.6,1152.8,250.6z"/>
	<path class="st4" d="M1152.8,250.6c5.2-11.4,23.4-18.3,33.1-6.4c0,0-8.4-3.2-14.9-2C1162.3,243.8,1155.8,248,1152.8,250.6z"/>
	<path class="st8" d="M1157.3,240c6.5-6.6,20.5-10,26.7-1.6c0.4,0.7-0.6,1.5-1.2,1C1169.6,229.4,1155.4,245.3,1157.3,240z"/>
	<path class="st8" d="M1208.5,276c0.2,0.9,0.5,1.8,1.1,2.5c0.5,0.7,1.4,1.3,2.3,1.3c0.3,0,0.7-0.1,0.9-0.3c0.4-0.3,0.5-0.8,0.4-1.3
		s-0.3-0.9-0.6-1.3c-0.4-0.8-0.9-1.5-1.3-2.2c-0.4-0.7-0.8-1.5-1.2-2.1c-0.3-0.4-0.9-0.8-1.4-0.5c-0.4,0.3-0.5,0.9-0.5,1.4
		C1208.2,274.3,1208.3,275.2,1208.5,276z"/>
	<circle class="st4" cx="1174.2" cy="245.8" r="6.8"/>
	<path class="st7" d="M1230.6,245.6c0,0,10.7,5.1,20.5,3.6c9.8-1.4,12.6-10.1,12.6-10.1s-4.9-6.5-16.3-4.1
		C1235.9,237.5,1230.6,245.6,1230.6,245.6z"/>
	<path class="st4" d="M1230.6,245.6c5.2-11.4,23.4-18.3,33.1-6.4c0,0-8.4-3.2-14.9-2C1240,238.9,1233.6,243.1,1230.6,245.6z"/>
	<path class="st8" d="M1235.1,235.1c6.5-6.6,20.5-10,26.7-1.6c0.4,0.7-0.6,1.5-1.2,1C1247.3,224.5,1233.1,240.4,1235.1,235.1z"/>
	<circle class="st4" cx="1251.9" cy="240.9" r="6.8"/>
	<path class="st4" d="M1119.7,241.9c4.6,3.2,6.8,5.9,9.5,18.3c0,0,0,0,0,0c0,0,0,0.1,0,0.1c0.3,1.3,0.5,2.6,0.7,4
		c0.1,0.6-0.3,1.1-0.9,1.2c-0.1,0-0.1,0-0.2,0c-0.5,0-1-0.4-1-0.9c-0.2-1.3-0.4-2.6-0.7-3.8c-4-11-15.6-8.2-15.8-8.8
		c-0.2-0.6,6.7-5.4,12.2-0.3c-3.9-10.1-14.7-11.2-14.7-11.8C1108.9,239.3,1114.2,237.9,1119.7,241.9z"/>
	<path class="st4" d="M1283.5,235.5c-4.5,3.4-6.7,6.1-9,18.5c0,0,0,0,0,0c0,0,0,0.1,0,0.1c-0.2,1.3-0.5,2.6-0.6,4.1
		c-0.1,0.6,0.4,1.1,1,1.2c0.1,0,0.1,0,0.2,0c0.5,0,0.9-0.4,1-1c0.2-1.3,0.3-2.6,0.6-3.8c3.7-11.1,15.4-8.6,15.5-9.2
		c0.2-0.6-6.9-5.2-12.2,0c3.6-10.2,14.4-11.6,14.4-12.2C1294.2,232.6,1288.9,231.4,1283.5,235.5z"/>
	<path class="st5" d="M1143.8,365.9c0.4-10.9,3.4-21.4,4.5-32.2c1.9-19.7-3.2-39.3-6.9-58.7s-6.1-40,0.8-58.6
		c2.5-6.8,7.2-13.8,14.3-15.1c-5.2-1.4-11.1-1.1-15.8,1.5c-9.1,5.1-12.7,16.4-13.8,26.8C1122.1,274.5,1146.1,320.7,1143.8,365.9z"/>
	<path class="st5" d="M1283.5,361.4c-10-14.9-16.3-35.2-16.1-53.2c0.2-18,3.3-31.1,4.2-50.7c0.5-9.4-0.5-20.3-2.8-29.3
		c-4.6-17.8-13.2-35.1-27.3-46.9c9.2-1.3,18.9,1.2,25.6,7.7c10.6,10.3,12.5,26.4,13.3,41.2c1.7,31.4,1.6,62.8-0.3,94.1
		C1279.3,338.4,1277.4,348.7,1283.5,361.4z"/>
	<path class="st6" d="M1192.8,189.9c3.5-2.2,6.8-4.9,9-8.4s2.9-8.1,1.2-11.8c-1.3-2.9-4-5.2-4.1-8.4c-0.1-2.5,1.5-4.8,1.5-7.3
		c0-2.7-1.8-5.1-3.9-6.7s-4.6-2.7-6.9-4.2c-0.8-0.6-1.7-1.3-1.8-2.3c-0.1-2.1,2.8-2.5,4.6-3.6c2-1.2,2.9-4,1.8-6.1
		c-0.5-1.1-1.4-1.9-1.7-3.1c-0.3-1.3,0.2-2.6,0.7-3.9c1-2.9,1.8-5.5,1.6-8.6c-2.9,0.3-4.8,1-4.8,1s-1.1-0.2-3-0.4
		c-0.5,0.9-1,1.7-1.8,2.4c-4,3.7-10.8,2.1-15.3,5.1c5.6,1,12,2.6,14.6,7.6c-6.9,0.3-13.8,0.7-20.7,1c-0.9,0-1.8,0.1-2.3,0.9
		c-0.9,1.4,1,2.8,2.5,3.3c4.9,1.7,9.9,2.9,14.5,5.2c4.6,2.3,8.8,6,10.3,10.9c-2.7-0.2-5.4,0.2-8,1c3.8,1.7,7.2,4.1,10.1,7.1
		c3,3.1,5.4,8.1,2.9,11.7c-1.5,2.1-4.2,2.9-6.6,3.6c-5.9,1.5-11.9,2.8-17.6,5.1c-18.9,7.8-31.6,28.5-30.1,48.8
		c2.8-5.3,5.7-10.6,9.7-15.1C1160.5,202.3,1178.6,198.9,1192.8,189.9z"/>
	<circle class="st2" cx="1233.6" cy="465.8" r="7.3"/>
	<circle class="st2" cx="1261.8" cy="569.3" r="7.3"/>
	<circle class="st2" cx="1269.6" cy="673.2" r="7.3"/>
	<path class="st1" d="M959.2,475c-7.9,18-54.3,185.6-75.6,288.1c-4,42.3,17.4,89,59,103.9c21.1,5.9,120.9,8.6,136.1-10.3
		c23-40.3-46.5-87.8-32.9-131.5c25.3-63.7,33.9-129.4,13.3-196.7C1049.6,465.4,967.2,457,959.2,475z"/>
	<path class="st1" d="M937,740.8c-20.3,71.6,23.6,144.4,126.4,121.7c12.8-2.8,25.4-14.6,37.2-7.9c21.7,12.3,39.4-18.6,48.7-40.8
		c10.8-25.7,21.9-73.2-18.2-72.9c-9.7-19.3-31.2-29.1-51.1-37.5c-31-15.7-67.3-15-100-5.3C960.1,704.8,936.5,716.8,937,740.8z"/>
	<path class="st2" d="M1091.3,604.4c-2.9,8.3,0.2,17.5,4.4,25.2c4.2,7.7,9.6,15,11.6,23.6c-5.6-1.5-9.7-6-13.2-10.5
		c-9.5-12-17.7-25.2-22.1-39.9c-5.1-17-4.9-35-4.7-52.8c0.1-5.7,0.1-11.4,0.2-17.1c0-2.8,0.1-5.7,0.1-8.5c0-2.1,0-3.9,0.8-5.8
		c0.3-0.9,0.9-2.5,1.9-1.4c1.1,1.3,1.1,4.1,1.3,5.6c0.9,6.7,1.3,13.5,2,20.2c1,9.6,2.9,19.1,5.4,28.4c2.7,10.2,6.3,20.1,10.6,29.7
		C1090,601.5,1091.5,603.9,1091.3,604.4z"/>
	<path class="st2" d="M1109.8,756.6c-3.9,0.7-7.8,1.6-11.3,3.4c-3.6,1.8-6.7,4.5-9.8,7.2c-9.1,7.9-18.6,16.3-22.7,27.7
		c-2.6,7.1-2.8,14.8-3.4,22.3c-0.2,2.6-1.8,6.1-4.2,5.2c-1.1-0.4-1.7-1.6-2.1-2.7c-5.3-14.9-1.6-32.1,7.7-44.9
		c9.3-12.8,23.5-21.4,38.6-26.1c7.5-2.3,15.8-3.6,23.6-1.9c2.7,0.6,7.5,1.6,8.1,4.9c0.3,1.4-0.4,2-1.7,2.2c-2.3,0.3-4.7,0.3-7.1,0.6
		C1120.3,754.9,1115,755.6,1109.8,756.6z"/>
	<path class="st2" d="M1051,696.4c-17.8-6.3-36.1-11.2-54.8-14.5c-2.8-0.5-6.4-0.6-7.7,1.9c5.9,1.7,11.7,3.5,17.6,5.2
		c-5.8,1.6-11.9,1.5-17.9,1.7c-18.8,0.5-37.9,3.3-54.8,11.5s-31.6,22.3-37.4,40.2c13-15.6,31.8-25.4,51.3-30.8
		c19.5-5.5,39.9-6.9,60.1-8.3c-8.7,1.5-17.5,3-25.8,5.9c1.3,3.2,5.8,3,9.2,2.3c18.1-3.4,36.9-3.3,55,0.2c4,0.8,8.1,1.8,11.8,3.6
		c2.7,1.3,5.1,3,7.8,4.2c3.9,1.7,8.8,2.4,13.1,2.2c3.3-0.2,5-3.5,3.2-6.3c-4.2-6.3-11.9-10.7-18.5-13.9
		C1059.3,699.5,1055.2,697.9,1051,696.4z"/>
	<path class="st2" d="M1063.1,527.3c-5.4-24-9.8-64.8-36-73.1c-5.8,18.3,9.9,35.5,16.9,51.5c7.5,18,12.2,37,18.4,55.4
		c-7.8-25.7-33.6-26.9-15.9,3.8c20,23.5,16,53.6,19.8,82c1.8,19.3-62.7,64.4-30.8,62.6c19.8,4.8,88.9,36.3,91.6,27.3
		c-0.5-9-54-19.7-49.2-46.6C1089.2,626.6,1087.3,635.5,1063.1,527.3z"/>
	<path class="st2" d="M1133.5,753.7c6.8,1.1,13.5,5.4,15.4,12c0.7,2.6,0.7,5.5,2.4,7.7c2.3,3,6.8,3.1,10.6,2.9
		c2.2-0.1,4.8-0.5,5.8-2.4c0.4-0.9,0.5-1.9,0.4-2.9c-0.3-3.7-1.7-7.2-3.4-10.5c-4.3-8.3-10.8-15.5-18.6-20.6
		c-3.8-2.5-8-4.5-11.5-7.4c-5.1-4.2-21.9-3.8-29-9.5c-0.9-0.7-4.8,3.8-5.4,2.8c-2.5,8.8,22.2,7.6,22.9,16.6c0.2,3.2-0.2,5.4-2.7,7.5
		c-1.3,1.1-2.9,1.6-4.4,2.3c-0.8,0.4-3.5,1.8-1.9,2.9c0.7,0.5,1.8,0,2.6-0.2c1.1-0.2,2.1-0.4,3.2-0.6c2.1-0.4,4.2-0.7,6.4-0.8
		C1128.6,753.3,1131.1,753.3,1133.5,753.7z"/>
	<g class="st9">
		<path class="st10" d="M1955.1,1108.8c-33.7,17.9-74.6,18.8-111.2,10.1c-28-9-17.2-36.2-4.6-56.5c13.9-20,34.1-30.5,57.6-32.2
			c18.8-1.3,57.9-10,64.1-7.2c3.6,1.6,7.1,22.5,6.4,26.4C1975.7,1068.1,1974.2,1097.7,1955.1,1108.8z"/>
		<path class="st10" d="M1942.5,1112c-2.7-2.6-3.8-6.5-3.6-10.2c0.2-3.2,1.3-6.4,3.4-8.9c5-5.8,14-5.9,21.6-4.7
			c5.7,0.9,11.3,2.3,16.7,4.2c2.9,1,5.9,2.2,8.3,4.1c2.4,1.9,4.3,4.7,4.5,7.8c0.3,4.6-3.3,8.7-7.6,10.5c-4.3,1.8-9,1.7-13.6,1.5
			C1963.2,1115.8,1947,1116.3,1942.5,1112z"/>
		<path class="st10" d="M1869.1,1049.1c-5.1-15.1,25.4-28.8,38.9-33.4c17.3-1.7,12,17.1,3.1,25.7
			C1899.5,1052.5,1875,1066.7,1869.1,1049.1z"/>
		<path class="st10" d="M1973,1102c-0.1-1.4-0.3-3.1,0.3-4.5c0.7-1.5,2.2-3,3.6-3.9c3.5-2.3,8.5-2.6,12.4-1.2
			c3.6,1.3,6.6,4.3,7.7,7.9c1.1,3.7,0.2,7.9-2.5,10.7c-1,1-2.1,1.7-3.3,2.4c-1.7,1-3.7,1.7-5.7,1.8c-4.1,0.3-8.1-2.2-10.3-5.7
			C1973.9,1107.2,1973.2,1104.6,1973,1102z"/>
		<path class="st10" d="M1989.9,1115.9c-2.5-0.8-4.9-1.9-7.2-3.2c-1.5-0.9-3.4-2-4.3-3.6c-0.9-1.6-0.9-3.7-0.7-5.4
			c0.2-2.3,1.2-4.6,2.9-6.3c3.8-3.7,9.8-3.7,15.1-3.3c11,0.9,21.9,2.7,32.5,5.5c2.3,0.6,4.6,1.3,6.6,2.6c2,1.3,3.5,3.5,3.6,5.9
			c0.1,3.7-3.3,6.5-6.6,8.1c-10.2,4.9-22.2,3.9-33.3,1.8C1995.7,1117.5,1992.7,1116.8,1989.9,1115.9z"/>
		<path class="st10" d="M1923.7,1031c-2.1,0.6-4.2,1-6.3,1.1c-1.4,0.1-3.1,0.2-4.4-0.6c-1.2-0.7-2-2.4-2.6-3.8
			c-0.7-1.9-0.9-4.1-0.4-6.2c1.3-4.7,5.5-7.7,9.4-10.1c8.1-4.8,16.5-8.8,25-12c1.9-0.7,3.8-1.3,5.7-1.3c1.9,0,3.9,0.9,4.8,2.7
			c1.5,2.8,0.2,6.6-1.5,9.5c-5.3,8.8-14.1,14.1-22.8,18C1928.4,1029.3,1926.1,1030.3,1923.7,1031z"/>
		<path class="st11" d="M2018.3,1108.2c-1.3-1.4-2.3-3.5-1.6-5.4c0.9-2.3,3.9-2.6,6-2.9c5.3-0.5,10.6,0.9,15.3,3.4
			c0.7,0.4,1.3,0.7,1.8,1.3c0.9,1,0.9,2.6,0.4,3.8c-0.5,1.2-1.6,2.2-2.8,2.8c-3.1,1.6-6.8,1.1-10.3,0.4
			C2024.1,1111.1,2020.5,1110.5,2018.3,1108.2z"/>
		<path class="st11" d="M1942.8,1005.3c-2,0.3-4.4,0.3-5.4-0.3c-1.2-0.8,0.4-2,1.7-2.9c3.1-2.2,7.8-4.1,12.8-5.6
			c0.7-0.2,1.5-0.4,2.3-0.5c1.4-0.2,2.7,0.1,3.4,0.5c0.6,0.4,0.7,1.1,0.4,1.6c-0.8,1.5-3.6,3-6.4,4.2
			C1949,1003.5,1946.2,1004.8,1942.8,1005.3z"/>
		<path class="st10" d="M1980.6,1073c6.7-10,32.3-7.3,45.6-2.7c14.4,8.6-0.2,22.6-12.5,21.2C1996.8,1094.2,1970,1089,1980.6,1073z"
			/>
		<path class="st10" d="M1995.8,1051.2c6.7-10,32.3-7.3,45.6-2.7c14.4,8.6-0.2,22.6-12.5,21.2
			C2011.9,1072.5,1985.1,1067.3,1995.8,1051.2z"/>
		<path class="st10" d="M2036.2,1075.7c4,12.5-15.5,20.8-21.8,9.1C2003.3,1068.4,2030.7,1059.2,2036.2,1075.7z"/>
		<path class="st10" d="M1978.1,1076.4c-0.1-1.4-0.3-3.1,0.3-4.5c0.7-1.5,2.2-3,3.6-3.9c3.5-2.3,8.5-2.6,12.4-1.2
			c3.6,1.3,6.6,4.3,7.7,7.9c1.1,3.7,0.2,7.9-2.5,10.7c-1,1-2.1,1.7-3.3,2.4c-1.7,1-3.7,1.7-5.7,1.8c-4.1,0.3-8.1-2.2-10.3-5.7
			C1978.9,1081.6,1978.3,1079,1978.1,1076.4z"/>
		<path class="st10" d="M1950.5,1071.8c6.7-10,32.3-7.3,45.6-2.7c14.4,8.6-0.2,22.6-12.5,21.2
			C1966.7,1093.1,1939.8,1087.9,1950.5,1071.8z"/>
		<path class="st10" d="M2019.8,1072c8.5-8.8,70.6,1.5,46.6,16.4c-9.6,5.9-22.7,3.9-33.8,1.7C2022.3,1088.8,2009,1084.3,2019.8,1072
			z"/>
		<path class="st11" d="M2052.7,1080.2c-1.3-1.4-2.3-3.5-1.6-5.4c0.9-2.3,3.9-2.6,6-2.9c5.3-0.5,10.6,0.9,15.3,3.4
			c0.7,0.4,1.3,0.7,1.8,1.3c0.9,1,0.9,2.6,0.4,3.8c-0.5,1.2-1.6,2.2-2.8,2.8c-3.1,1.6-6.8,1.1-10.3,0.4
			C2058.5,1083.2,2054.9,1082.6,2052.7,1080.2z"/>
		<path class="st10" d="M1970.1,1029.9c6.7-10,32.3-7.3,45.6-2.7c14.4,8.6-0.2,22.6-12.5,21.2
			C1986.3,1051.2,1959.4,1046,1970.1,1029.9z"/>
		<path class="st10" d="M2025.7,1032.7c4,12.5-15.5,20.8-21.8,9.1C1992.8,1025.4,2020.2,1016.1,2025.7,1032.7z"/>
		<path class="st10" d="M1928.6,1020.9c4,12.5-15.5,20.8-21.8,9.1C1895.7,1013.6,1923.2,1004.3,1928.6,1020.9z"/>
		<path class="st10" d="M1940,1028.7c6.7-10,32.3-7.3,45.6-2.7c14.4,8.6-0.2,22.6-12.5,21.2C1956.2,1050,1929.3,1044.8,1940,1028.7z
			"/>
		<path class="st10" d="M2009.3,1028.9c8.5-8.8,70.6,1.5,46.6,16.4c-9.6,5.9-22.7,3.9-33.8,1.7
			C2011.8,1045.7,1998.5,1041.2,2009.3,1028.9z"/>
		<path class="st11" d="M2042.2,1037.2c-1.3-1.4-2.3-3.5-1.6-5.4c0.9-2.3,3.9-2.6,6-2.9c5.3-0.5,10.6,0.9,15.3,3.4
			c0.7,0.4,1.3,0.7,1.8,1.3c0.9,1,0.9,2.6,0.4,3.8c-0.5,1.2-1.6,2.2-2.8,2.8c-3.1,1.6-6.8,1.1-10.3,0.4
			C2048,1040.1,2044.4,1039.5,2042.2,1037.2z"/>
		<path class="st10" d="M1950.7,1051.6c6.7-10,47.3-8.8,60.5-4.1c14.4,8.6-0.2,22.6-12.5,21.2
			C1981.8,1071.4,1940,1067.6,1950.7,1051.6z"/>
		<path class="st10" d="M2051.3,1054c4,12.5-15.5,20.8-21.8,9.1C2018.4,1046.7,2045.9,1037.5,2051.3,1054z"/>
		<path class="st10" d="M1993.2,1054.6c-0.1-1.4-0.3-3.1,0.3-4.5c0.7-1.5,2.2-3,3.6-3.9c3.5-2.3,8.5-2.6,12.4-1.2
			c3.6,1.3,6.6,4.3,7.7,7.9c1.1,3.7,0.2,7.9-2.5,10.7c-1,1-2.1,1.7-3.3,2.4c-1.7,1-3.7,1.7-5.7,1.8c-4.1,0.3-8.1-2.2-10.3-5.7
			C1994.1,1059.9,1993.4,1057.3,1993.2,1054.6z"/>
		<path class="st10" d="M2034.9,1050.2c8.5-8.8,70.6,1.5,46.6,16.4c-9.6,5.9-22.7,3.9-33.8,1.7
			C2037.5,1067.1,2024.2,1062.6,2034.9,1050.2z"/>
		<path class="st11" d="M2067.9,1058.5c-1.3-1.4-2.3-3.5-1.6-5.4c0.9-2.3,3.9-2.6,6-2.9c5.3-0.5,10.6,0.9,15.3,3.4
			c0.7,0.4,1.3,0.7,1.8,1.3c0.9,1,0.9,2.6,0.4,3.8c-0.5,1.2-1.6,2.2-2.8,2.8c-3.1,1.6-6.8,1.1-10.3,0.4
			C2073.7,1061.4,2070.1,1060.8,2067.9,1058.5z"/>
		<path class="st12" d="M1969.4,1088.3c-4.3-0.7-8.7-1-13.1-0.8c-1.2,0-4.8,0.9-5.7,0c-1.5-1.6,2.1-2.5,3-2.6
			c6.7-0.7,13.6-0.1,20.1,1.9c1.5,0.4,3.2,1.5,2.8,3C1976.6,1089.7,1970,1088.4,1969.4,1088.3z"/>
		<path class="st12" d="M2009.1,1065.2c2.2-0.1,4.3-0.1,6.5-0.2c1.9,0,4.2,0.3,6.1,0c1.6-0.3,5.3-3.1,3.3-4.9c-1.1-1-3.6-1.1-5-1.3
			c-1.9-0.3-3.8-0.4-5.8-0.5c-3.9-0.1-7.7,0.2-11.6,0.4c-13.5,0.9-27.1,0.7-40.6-0.6c-2.2-0.2-5-0.1-5.9,1.9
			c11.8,5.6,25.3,6.1,38.3,5.7C1999.4,1065.7,2004.2,1065.4,2009.1,1065.2z"/>
		<path class="st12" d="M2036.5,1041.3c-0.4-13.4-62.2-1.4-79.6-6.7c0.5,4.1,5.3,5.9,9.3,6.5
			C1995.6,1044.6,2007.8,1038.4,2036.5,1041.3z"/>
	</g>
	<path class="st2" d="M1393,451.7c0.2-1.7,0.4-3.5-0.2-5.1c-0.7-1.6-2.6-2.7-4.2-2c-0.8,0.4-1.3,1.2-1.8,2c-5,8.7-8.2,18.3-9.6,28.2
		c1.2-19.1,12-37.1,10.5-56.2c-0.2-2-0.8-4.4-2.8-4.8c-2.1-0.4-3.7,1.8-4.6,3.8c-4.8,10.2-8.3,21-10.4,32.1
		c-2.1,11.1-2.9,22.5-2.3,33.9c0.3,5.7,1,11.3,2,16.9c0.5,2.8,1,5.6,1.8,8.3c0.3,1.2,0.9,2.6,2.2,2.9c2.8,0.6,5.6-3.5,6.8-5.4
		c2.6-3.9,3.9-8,4.9-12.5c2.7-12.4,5-24.9,6.8-37.4C1392.5,454.8,1392.8,453.2,1393,451.7z"/>
	<path class="st8" d="M1110.4,862.1c-0.1,0.7-0.1,1.5,0.2,2.2c0.5,1.2,1.7,1.8,2.7,2.7c2.1,1.8,2.9,4.8,2.1,7.4
		c7.9-0.3,15.4,6.1,16.4,13.9c4.7-0.4,10-0.7,13.4,2.5c1.9,1.8,2.9,4.4,5.2,5.6c2.6,1.5,5.9,0.5,8.9,0.8c4.8,0.5,8.6,4.2,13,6.3
		c3.1,1.5,6.5,2.1,9.9,2.7c4.3,0.8,9,1.5,12.9-0.5c4.7-2.4,6.8-8.7,4.5-13.5c-1.4-2.8-3.9-4.8-6.4-6.8c-21-16.1-42.8-32.7-68.6-39
		c-2.7-0.7-7.2-1.8-9.5,0.5c-0.8,0.8-1.1,1.9-1.5,2.9c-0.7,1.8-1.4,3.5-1.9,5.4C1111,857.4,1110.6,859.7,1110.4,862.1z"/>
	<path class="st8" d="M1234.5,788.3c-9.5-0.9-19.1,0.5-28.6-0.5c-7.8-0.8-15.6-3.3-23.4-2.6c-7.8,0.7-16.2,5.8-16.9,13.7
		c-0.3,4.1,1.5,8.1,3.5,11.7c6.6,11.9,16.2,22.9,29,27.5c13.1,4.7,28.3,2.1,40.2-5.2c8.8-5.4,16-13.2,21.6-21.9
		c1.4-2.2,2.7-4.5,3.9-6.8c1-2,2.4-4.2,2.2-6.5c-0.5-5.1-7.4-4.8-11.1-5.5C1248.1,790.8,1241.4,789,1234.5,788.3z"/>
	<g class="st9">
		<g>
			<path class="st10" d="M1121.3,738.9c11.5-4.5,20.2-23.1,3.2-27.2c-14.2-0.1-72.3-6.5-72.5,9.5
				C1051.8,739.8,1084,753.3,1121.3,738.9z"/>
			<path class="st10" d="M1127.7,734.8c11.1,1.6,23.2,1.9,34-3.5c3.5-1.8,7.2-4.8,7.5-8.5c0.2-2.4-1.2-4.5-3.1-5.7s-4.2-1.8-6.5-2.3
				c-10.5-2.3-21.4-3.5-32.5-3.8c-5.4-0.1-11.4,0.2-15.7,4.1c-1.9,1.7-3.1,4.1-3.6,6.4c-0.3,1.7-0.6,3.9,0.2,5.4
				c0.8,1.5,2.6,2.5,4,3.3c2.1,1.3,4.5,2.2,7,2.9C1121.9,733.9,1124.8,734.4,1127.7,734.8z"/>
			<path class="st11" d="M1168.9,720.2c3.5,0,7.2-0.2,8.5-1.2c0.5-0.4,0.7-0.9,0.1-1.5c-0.6-0.6-2-1.2-3.6-1.6
				c-0.9-0.2-1.8-0.3-2.7-0.4c-6.1-0.6-12-0.7-16.1,0c-1.7,0.3-4,0.7-2.8,1.8c0.9,0.9,3.6,1.7,5.9,2.1
				C1162.1,720.3,1165.8,720.2,1168.9,720.2z"/>
			<path class="st10" d="M1114,729.1c2.1,13,23.2,11.7,23.6-1.4C1137.9,710.3,1108.9,709.9,1114,729.1z"/>
		</g>
		<path class="st12" d="M1106.6,726.3c-0.8-0.1-1.6-0.1-2.1,0.5c-0.3,0.3-0.4,0.8-0.4,1.3c-0.4,3.5,0,7.2,1.7,10.2
			c1.7,3.1,5,5.4,8.5,5.4c1.3,0,2.6-0.3,3.9-0.7c4.2-1.1,8.4-2.1,12.5-3.2c2.1-0.5,4.2-1.1,6.3-1.6c1-0.3,3.9-0.7,3.6-2.2
			c-0.3-1.5-2.6-1.9-3.8-2.2c-1.9-0.4-3.8-0.9-5.7-1.4c-3.9-1.1-7.7-2.3-11.5-3.4C1115.3,727.7,1111,726.7,1106.6,726.3z"/>
	</g>
	<g class="st9">
		<path class="st13" d="M1238.1,682L1238.1,682L1238.1,682c-0.5-1.2-1.3-2.2-2.2-3l0,0l-4.5-4c-0.1-0.1-0.2-0.1-0.2-0.2l-0.1-0.1
			l0,0c-1.6-1.4-3.7-2.2-6.2-2.3l-66.4-1.1c-5.8-0.1-10.9,4.4-11.5,10.1l-14.8,139.2c-0.3,2.5,0.4,4.8,1.7,6.6
			c1,1.4,5.6,5.4,6.7,6.2c1.5,1.1,3.4,1.7,5.5,1.8l66.4,1.1c5.8,0.1,10.9-4.4,11.5-10.1l14.8-139.2
			C1239.1,685.2,1238.8,683.5,1238.1,682z"/>
		
			<ellipse transform="matrix(0.1061 -0.9944 0.9944 0.1061 341.2132 1796.1406)" class="st14" cx="1169.6" cy="708.3" rx="16.5" ry="7"/>
		<circle class="st15" cx="1169.1" cy="712.7" r="4.4"/>
		<circle class="st15" cx="1170.1" cy="702.9" r="3.3"/>
	</g>
	<g class="st9">
		<path class="st10" d="M1139.1,820.6c-0.6,3.9-10.2,22.8-14.2,23.2c-6.7,0.8-44.4-14.2-58.8-26.3c-23.8-20-30.5-27.3-37.6-50.5
			c-5.8-23.1,4.2-51.8,33.5-51.8c37.5,2.8,56.7,17.9,83.4,45.1C1160.3,776.5,1152.7,805.2,1139.1,820.6z"/>
		<g>
			<path class="st10" d="M1158.3,830.4c4.3,1.6,8.7,3.4,11.2,6.2s2.6,7-1.2,10c-2.6,2-6.4,3.2-10.1,3.5c-3.7,0.3-7.2,0-10.7-0.5
				c-6.4-0.9-12.6-2.1-18.4-3.7c-7.9-2.1-15.9-5.6-16-11.5c0-2.5,1.5-5,3.8-7.3c2.7-2.6,6.8-4.8,11.2-5.5
				C1135.6,820.6,1149.9,827.2,1158.3,830.4z"/>
			<path class="st10" d="M1152,835.2c1.7-3.8,5.3-6.8,9.4-7.1c2-0.1,4,0.3,5.8,1c1.3,0.5,2.5,1.1,3.6,1.9c3,2.3,4.5,6.4,3.9,10.2
				c-0.6,3.8-3.2,7.1-6.6,8.9c-3.7,2-8.7,2.3-12.5,0.5c-1.5-0.7-3.2-1.9-4.1-3.4c-0.8-1.3-0.8-3-0.9-4.4
				C1150.7,840.3,1151,837.7,1152,835.2z"/>
			<path class="st10" d="M1178.3,823.9c10.7-3.6,22.5-6.3,33.2-2.8c3.5,1.1,7.2,3.5,7.7,7.2c0.3,2.4-1,4.7-2.8,6.3s-4,2.6-6.2,3.5
				c-10.2,4.2-20.7,7.6-31.4,9.9c-5.2,1.1-11.1,1.9-15.5-1.2c-1.9-1.4-3.2-3.5-3.8-5.8c-0.4-1.7-0.8-3.8-0.1-5.5
				c0.7-1.7,2.4-3,3.8-4.1c2-1.7,4.3-3,6.7-4.2C1172.7,826,1175.5,824.9,1178.3,823.9z"/>
			<path class="st11" d="M1207.4,826.3c3.3-1.1,6.9-2.1,10.2-1c1.3,0.4,2.5,1.2,3.2,2.4c0.7,1.2,0.8,2.7,0.1,3.8
				c-0.4,0.6-1,1.1-1.6,1.5c-4.3,3-9.4,5.2-14.7,5.4c-2.1,0.1-5.1,0.1-6.3-2c-1-1.8-0.3-4,0.8-5.5
				C1201.1,828.4,1204.5,827.3,1207.4,826.3z"/>
		</g>
		<g>
			<path class="st10" d="M1181.7,799.6c11.9-3.1,28.3,8.8,15.3,19.3c-12.5,6.4-37.5,12.6-45.5,3.6
				C1138.7,808,1164.6,799.1,1181.7,799.6z"/>
			<path class="st10" d="M1183.3,806c4.6-12.4,25.1-6.9,22.8,6.1C1203,829.2,1174.6,823.8,1183.3,806z"/>
			<path class="st10" d="M1145.5,813.6c1.7-3.8,5.3-6.8,9.4-7.1c2-0.1,4,0.3,5.8,1c1.3,0.5,2.5,1.1,3.6,1.9c3,2.3,4.5,6.4,3.9,10.2
				s-3.2,7.1-6.6,8.9c-3.7,2-8.7,2.3-12.5,0.5c-1.5-0.7-3.2-1.9-4-3.4c-0.8-1.3-0.8-3-0.9-4.4C1144.1,818.7,1144.4,816,1145.5,813.6
				z"/>
			<path class="st10" d="M1156.8,803c12,2.7,21.1,20.8,4.7,24.1c-14-0.1-39.1-6-42-17.7C1114.7,790.6,1141.8,794.7,1156.8,803z"/>
			<path class="st10" d="M1200.6,798.4c10.7-3.6,23.4-7.5,33.8-2.9c25.8,11.4-34.3,30.1-43.9,22.6
				C1178.1,807.3,1190.6,801.1,1200.6,798.4z"/>
			<path class="st11" d="M1230.2,800.7c3.3-1.1,6.9-2.1,10.2-1c1.3,0.4,2.5,1.2,3.2,2.4c0.7,1.2,0.8,2.7,0.1,3.8
				c-0.4,0.6-1,1.1-1.6,1.5c-4.3,3-9.4,5.2-14.7,5.4c-2.1,0.1-5.1,0.1-6.3-2c-1-1.8-0.3-4,0.8-5.5
				C1223.8,802.8,1227.3,801.7,1230.2,800.7z"/>
		</g>
		<g>
			<path class="st10" d="M1175.5,755.2c12.2-2.1,27.5,11.2,13.6,20.5c-13,5.3-38.4,9.4-45.6-0.3
				C1131.9,759.9,1158.5,753.3,1175.5,755.2z"/>
			<path class="st10" d="M1175.1,759.9c4.6-12.4,25.1-6.9,22.8,6.1C1194.8,783.1,1166.3,777.7,1175.1,759.9z"/>
			<path class="st10" d="M1151.6,757.4c11.9,3.2,20.3,21.6,3.8,24.3c-14-0.6-38.8-7.5-41.4-19.3
				C1110,743.5,1136.9,748.5,1151.6,757.4z"/>
			<path class="st10" d="M1192.3,752.3c10.7-3.6,23.4-7.5,33.8-2.9c25.8,11.4-34.3,30.1-43.9,22.6
				C1169.8,761.2,1182.4,755,1192.3,752.3z"/>
			<path class="st11" d="M1221.9,754.6c3.3-1.1,6.9-2.1,10.2-1c1.3,0.4,2.5,1.2,3.2,2.4c0.7,1.2,0.8,2.7,0.1,3.8
				c-0.4,0.6-1,1.1-1.6,1.5c-4.3,3-9.4,5.2-14.7,5.4c-2.1,0.1-5.1,0.1-6.3-2c-1-1.8-0.3-4,0.8-5.5
				C1215.6,756.7,1219,755.6,1221.9,754.6z"/>
		</g>
		<g>
			<path class="st10" d="M1185.8,780.6c11.2-3,26.5,8.1,14.2,18c-11.7,6.1-35.2,12-42.6,3.6C1145.4,788.8,1169.7,780.3,1185.8,780.6
				z"/>
			<path class="st10" d="M1158.3,782.6c12.2,2,22.4,19.4,6.2,23.8c-14,0.8-53.4-9-57.1-20.5C1101.6,767.5,1142.8,775.3,1158.3,782.6
				z"/>
			<path class="st10" d="M1187.6,784.3c4.6-12.4,25.1-6.9,22.8,6.1C1207.3,807.5,1178.9,802.1,1187.6,784.3z"/>
			<path class="st10" d="M1155.8,793c1.7-3.8,5.3-6.8,9.4-7.1c2-0.1,4,0.3,5.8,1c1.3,0.5,2.5,1.1,3.6,1.9c3,2.3,4.5,6.4,3.9,10.2
				c-0.6,3.8-3.2,7.1-6.6,8.9c-3.7,2-8.7,2.3-12.5,0.5c-1.5-0.7-3.2-1.9-4.1-3.4c-0.8-1.3-0.8-3-0.9-4.4
				C1154.4,798.1,1154.7,795.5,1155.8,793z"/>
			<path class="st10" d="M1204.8,776.7c10.7-3.6,23.4-7.5,33.8-2.9c25.8,11.4-34.3,30.1-43.9,22.6
				C1182.4,785.6,1194.9,779.4,1204.8,776.7z"/>
			<path class="st11" d="M1234.5,779c3.3-1.1,6.9-2.1,10.2-1c1.3,0.4,2.5,1.2,3.2,2.4c0.7,1.2,0.8,2.7,0.1,3.8
				c-0.4,0.6-1,1.1-1.6,1.5c-4.3,3-9.4,5.2-14.7,5.4c-2.1,0.1-5.1,0.1-6.3-2c-1-1.8-0.3-4,0.8-5.5
				C1228.1,781.1,1231.6,780,1234.5,779z"/>
		</g>
		<path class="st12" d="M1157.6,780.5c0,1.5-2.1,2-3.6,2c-6.8-0.1-13.5-1.5-19.7-4.2c-0.9-0.4-4-2.3-2.1-3.4
			c1.1-0.6,4.3,1.3,5.5,1.7c4.1,1.4,8.4,2.5,12.7,3.1C1151,779.9,1157.6,780.6,1157.6,780.5z"/>
		<path class="st12" d="M1158,808.4c0,1.5-2.1,2-3.6,2c-6.8-0.1-13.5-1.5-19.7-4.2c-0.9-0.4-4.1-2.3-2.1-3.4
			c1.1-0.6,4.3,1.3,5.5,1.7c4.1,1.4,8.4,2.5,12.7,3.1C1151.4,807.8,1158,808.5,1158,808.4z"/>
		<path class="st12" d="M1146.1,825.4c0,1.5-2.1,2-3.6,2c-6.8-0.1-13.5-1.5-19.7-4.2c-0.9-0.4-4-2.3-2.1-3.4
			c1.1-0.6,4.3,1.3,5.5,1.7c4.1,1.4,8.4,2.5,12.7,3.1C1139.5,824.8,1146.1,825.5,1146.1,825.4z"/>
		<path class="st12" d="M1188.1,808.3c12.4-2.1,24.9-5.1,34.2-11.6c-1.5-1.4-4.2-0.9-6.2-0.3c-12.3,3.5-25,6.2-38,8.1
			c-3.7,0.5-7.4,1.1-11,1.9c-1.8,0.4-3.6,0.9-5.3,1.5c-1.2,0.4-3.6,1-4.3,1.9c-1.3,1.8,3.1,3.2,4.7,3.1c1.9-0.1,3.9-0.8,5.7-1.1
			c2-0.4,4.1-0.8,6.2-1.1C1178.8,809.8,1183.5,809.1,1188.1,808.3z"/>
		<path class="st12" d="M1179.1,827.7c9.2-1.5,18.5-3.5,25.4-8c-1.1-1-3.1-0.7-4.6-0.3c-9.1,2.4-18.6,4.3-28.2,5.5
			c-2.8,0.4-5.5,0.7-8.2,1.3c-1.3,0.3-2.7,0.6-3.9,1c-0.9,0.3-2.7,0.7-3.2,1.3c-1,1.2,2.3,2.3,3.5,2.2c1.4,0,2.9-0.5,4.3-0.8
			c1.5-0.3,3.1-0.5,4.6-0.8C1172.2,828.8,1175.7,828.3,1179.1,827.7z"/>
		<path class="st12" d="M1176.5,780.4c9.2-1.5,18.5-3.5,25.4-8c-1.1-1-3.1-0.7-4.6-0.3c-9.1,2.4-18.6,4.3-28.2,5.5
			c-2.8,0.4-5.5,0.7-8.2,1.3c-1.3,0.3-2.7,0.6-3.9,1c-0.9,0.3-2.7,0.7-3.2,1.3c-1,1.2,2.3,2.3,3.5,2.2c1.4,0,2.9-0.5,4.3-0.8
			c1.5-0.3,3.1-0.5,4.6-0.8C1169.6,781.4,1173.1,781,1176.5,780.4z"/>
	</g>
	<path class="st6" d="M1227.8,185.7c-13.6-5.2-24.2-14.3-24.2-14.3l0.3-0.1c-2.7-0.3-5.3,0.1-6.3,2.6c-1.7,4.4,2.7,9,5.9,11.3
		c2.4,1.7,5,2.9,7.6,4.1c12.1,5.6,24.7,11.3,38,11.6c1.7,0,3.3,0,4.9,0.6c1.6,0.7,2.8,2.1,3.9,3.5c2.3,3,4.4,6.1,6.2,9.4
		c-1.5-5.1-3.3-10-5.5-14.8C1252.4,190.2,1241.4,190.9,1227.8,185.7z"/>
	<path class="st6" d="M1245.3,170.4c16.6,9.4,31.6,24.5,34.3,43.4c0.9-8.6-2.3-17-5.6-25c-2.3-5.9-5-12.1-10.3-15.5
		c-2.9-1.8-6.4-2.6-9.2-4.6c-2.7-1.8-4.6-4.6-7.2-6.4c-3.2-2.3-7.4-3.1-11.3-2.2c-1.2,0.3-3.7,1.2-2.7,2.9c0.5,0.8,1.8,1.5,2.5,2
		c0.9,0.6,1.8,1.2,2.8,1.8C1240.8,168,1243.1,169.2,1245.3,170.4z"/>
	<path class="st6" d="M1133.3,195c-1.3,3.7-2,7.5-2.7,11.4c-1.3,7.8-2.7,15.7-4,23.5c-1.6-15.8-3.2-32.4,2.8-47.1
		c1.3-3.2,3.1-6.2,5.8-8.3c5.6-4.2,12.4-4.5,14-4.6c1-0.1,9.5-2.6,10.3-2c1.7,1.4-9.1,7-10,7.6c-4.6,3-8.8,6.8-12,11.3
		C1135.9,189.3,1134.4,192.1,1133.3,195z"/>
	<g id="эскиз_3.psd_1_">
		<g class="st9">
			<defs>
				<rect id="SVGID_1_" x="-1056.7" y="-73.2" width="1771.5" height="1250"/>
			</defs>
			<clipPath id="SVGID_2_">
				<use xlink:href="#SVGID_1_"  style="overflow:visible;"/>
			</clipPath>
			<g class="st16">
				
					<image style="overflow:visible;enable-background:new    ;" width="3543" height="2500" id="Background" xlink:href="671DB7B7.jpg"  transform="matrix(0.5 0 0 0.5 -1056.7251 -73.158)">
				</image>
			</g>
		</g>
		<g class="st9">
			<defs>
				<rect id="SVGID_3_" x="-1056.7" y="-73.2" width="1771.5" height="1250"/>
			</defs>
			<clipPath id="SVGID_4_">
				<use xlink:href="#SVGID_3_"  style="overflow:visible;"/>
			</clipPath>
			<g class="st17">
				
					<image style="overflow:visible;enable-background:new    ;" width="3543" height="2500" id="Layer_7" xlink:href="671DB7B5.png"  transform="matrix(0.5 0 0 0.5 -1056.7251 -73.158)">
				</image>
			</g>
		</g>
		<g class="st9">
			<defs>
				<rect id="SVGID_5_" x="-1056.7" y="-73.2" width="1771.5" height="1250"/>
			</defs>
			<clipPath id="SVGID_6_">
				<use xlink:href="#SVGID_5_"  style="overflow:visible;"/>
			</clipPath>
			<g class="st18">
				
					<image style="overflow:visible;enable-background:new    ;" width="3543" height="2500" id="Layer_7_1_" xlink:href="671DB7BB.png"  transform="matrix(0.5 0 0 0.5 -1056.7251 -73.158)">
				</image>
			</g>
		</g>
		<g class="st9">
			<defs>
				<rect id="SVGID_7_" x="-1056.7" y="-73.2" width="1771.5" height="1250"/>
			</defs>
			<clipPath id="SVGID_8_">
				<use xlink:href="#SVGID_7_"  style="overflow:visible;"/>
			</clipPath>
			<g class="st19">
				
					<image style="overflow:visible;enable-background:new    ;" width="3543" height="2500" id="Layer_7_2_" xlink:href="671DB7BD.png"  transform="matrix(0.5 0 0 0.5 -1056.7251 -73.158)">
				</image>
			</g>
		</g>
		<g class="st9">
			<defs>
				<rect id="SVGID_9_" x="-1056.7" y="-73.2" width="1771.5" height="1250"/>
			</defs>
			<clipPath id="SVGID_10_">
				<use xlink:href="#SVGID_9_"  style="overflow:visible;"/>
			</clipPath>
			<g class="st20">
				
					<image style="overflow:visible;enable-background:new    ;" width="3543" height="2500" id="Layer_7_3_" xlink:href="671DB7BF.png"  transform="matrix(0.5 0 0 0.5 -1056.7251 -73.158)">
				</image>
			</g>
		</g>
		<g class="st9">
			<defs>
				<rect id="SVGID_11_" x="-1056.7" y="-73.2" width="1771.5" height="1250"/>
			</defs>
			<clipPath id="SVGID_12_">
				<use xlink:href="#SVGID_11_"  style="overflow:visible;"/>
			</clipPath>
			<g class="st21">
				
					<image style="overflow:visible;enable-background:new    ;" width="3543" height="2500" id="Layer_7_4_" xlink:href="671DB7BC.png"  transform="matrix(0.5 0 0 0.5 -1056.7251 -73.158)">
				</image>
			</g>
		</g>
		<g class="st9">
			<defs>
				<rect id="SVGID_13_" x="-1056.7" y="-73.2" width="1771.5" height="1250"/>
			</defs>
			<clipPath id="SVGID_14_">
				<use xlink:href="#SVGID_13_"  style="overflow:visible;"/>
			</clipPath>
			<g class="st22">
				
					<image style="overflow:visible;enable-background:new    ;" width="3543" height="2500" id="Layer_7_5_" xlink:href="671DB7B4.png"  transform="matrix(0.5 0 0 0.5 -1056.7251 -73.158)">
				</image>
			</g>
		</g>
	</g>
</g>
<g id="Layer_2">
	<path class="st23" d="M379.4,354.9c0,0,15.5-5.2,28.3-12.2c5.7-3.1,12-6.5,17.2-9.3c7.2-3.9,13-9.8,16.8-17l12.7-24l72.5-2.7
		c4.9-2.7-0.4,19.1,11.7,30c10,9,26.8,12.6,35.7,15.3c19.6,6.1,30.8,5.5,30.8,5.5l-31.4,63.8c0,0-125.8,16.7-124.1,15.4
		S379.4,354.9,379.4,354.9z"/>
	<path class="st24" d="M385.5,353.2c0,0,38.9,56.5,118.9,48.1c77.9-8.2,100.6-60.7,100.6-60.7s55.9,8.5,86.7,65.5
		s73.9,282.1,85.5,286.6c11.7,4.6,10.5,26.3,10.5,26.3s16.2,32.5,7.9,40s-70.4-19.5-241.2-12.3c-170.8,7.1-329.5,48.5-332.9,38.5
		c-3.4-10.1,5.7-33.4,5.8-35.4c0.1-2-13.3-10.6-7-18.2s8.6-13.4,8.9-19.4c0.3-5.9,23.1-218.9,74.8-299.4
		C335.6,363.7,385.5,353.2,385.5,353.2z"/>
	
		<ellipse transform="matrix(5.111716e-02 -0.9987 0.9987 5.111716e-02 -74.6381 1073.0647)" class="st25" cx="527.4" cy="575.8" rx="18" ry="16.6"/>
	<circle class="st25" cx="505.4" cy="465" r="5.5"/>
	<circle class="st25" cx="516.5" cy="477.5" r="5.5"/>
	<circle class="st25" cx="524" cy="463.7" r="5.5"/>
	<g>
		<path class="st25" d="M515.6,475.2c-23-32-41-64-63-99c-10-15-20-30-32-43c1,0,2-1,2-1c25,31,44,62,64,97c4,6,7,11,11,17
			c6,8,11,16,17,24c1-1,2-3,2-4c1-3,1-7,2-10c15-43,30-83,41-127c0,0,1,0,2,0c-10,43-26,85-41,127c-1,3-1,7-2,10
			S515.6,472.2,515.6,475.2L515.6,475.2z"/>
	</g>
	<g>
		<path class="st25" d="M522.6,568.2c-18-34-33-69-44-106c-2-4-4-8-5-12c-2-9-5-17-8-26c-14-31-26-60-46-90c-1-2,2-2,2-2
			c5,7,8,15,13,22c6,11,12,22,17,33s10,22,14,34c1,2,2,3,3,5c3,13,8,24,12,36c11,36,24,70,44,103c0,0,3-1,3-2c2-23,3-46,6-69
			c6-42,15-80,21-122c2-15,3-28,5-43c0,0,1,0,2,0c0,11-2,21-4,32c-7,69-27,134-27,203C527.6,565.2,525.6,567.2,522.6,568.2
			L522.6,568.2z"/>
	</g>
	<path class="st26" d="M364.7,459.1c-2.7-10.2-5.4-20.4-8.9-30.4c-2.4-6.8-5.6-13.9-11.8-17.5c-0.8,8,0.7,16,2.1,23.9
		c5.4,28.7,11.5,57.3,17.6,85.8c-1.9-3.7-5.2-6.7-9-8.4c2.2,12.8,4.4,25.6,6.5,38.4c1.3,7.6,2.6,15.4,5.4,22.6
		c1.7,4.3,3.8,8.3,6,12.3c4.9,9.1,9.7,18.1,14.6,27.2c0.4,0.7,0.9,1.5,1.6,1.6c1.2,0.1,1.8-1.3,2.1-2.4c3.5-14.7,4.3-30,2.5-45
		c-0.4-3.2-0.9-6.3-1.9-9.4c-0.5-1.5-1.1-3-1.9-4.5c-0.7-1.2-1.7-2.3-2.2-3.6c-0.4-1.1-0.4-2.4-0.7-3.6c-0.5-1.9-0.9-3.8-1.4-5.7
		c-0.9-3.7-1.8-7.5-2.8-11.2c-1.9-7.5-3.7-15-5.6-22.4c-1.9-7.5-3.8-15-5.7-22.5c-1.9-7.5-3.8-14.9-5.8-22.4
		C365.1,460.9,364.9,460,364.7,459.1z"/>
	<path class="st26" d="M587.7,586.6c-13.4,9.1-28.7,14.9-43.8,20.6c-12.8,4.8-25.5,9.6-38.3,14.4c-3.6,1.3-7.2,3-10.8,4
		c0.6-2.2,2.2-4.8,3.6-6.7c1.1-1.5,2.6-2.5,4.3-3.3c6.3-3.2,12.9-5.8,19.4-8.4c6.8-2.7,13.7-5.3,20.6-7.7c7-2.4,14-4.6,21.1-6.7
		c7.1-2,14.2-3.9,21.4-5.6C585.9,587,586.8,586.8,587.7,586.6z"/>
	<path class="st26" d="M585.3,610.1c-1.5,4.3-6.4,6.1-10.8,7.3c-9.4,2.6-18.9,4.8-28.4,6.6c-9.6,1.9-19.2,3.4-28.9,4.5
		c-1.2,0.1-2.4,0.3-3.6,0.4c-0.7,0.1-2.1,0.5-2.8,0.1c-1-0.6-0.2-2.1,0.3-2.8c1.1-1.5,3-1.6,4.7-2c2.4-0.6,4.8-1.1,7.2-1.7
		c9.7-2.2,19.5-4.4,29.3-6.3c9.8-2,19.5-3.8,29.3-5.5C582.9,610.5,584.1,610.3,585.3,610.1z"/>
	<path class="st26" d="M641.5,497.7c3.2-16.1,2.5-32.7,2.9-49.2c0.4-16.4,2-33.3,9.3-48.1c-0.8,22.4-0.8,44.8-0.1,67.1
		c1-6.2,2.7-12.3,5-18.1c2.3,1.8,2.3,5.2,2.2,8.1c-1.1,22.7-3.7,45.4-7.7,67.8c-6.2-10.8-9.7-23.2-10-35.6"/>
	<path class="st26" d="M597.9,354c2.8-4.4,5.3-9.2,5.7-14.4c-1.2-0.4-2.3,0.7-3,1.7c-6.2,8.6-11.1,18.2-19.1,25.1
		c-2.7,2.3-5.7,4.3-8.4,6.7c-3.6,3.1-6.5,6.9-10.2,10c-0.9,0.8-1.8,1.5-2.8,2.1c-0.2,0.2-0.9,0.4-0.8,0.7c0.1,0.2,0.9,0.1,1.1,0.1
		c1-0.3,2.1-0.9,3.1-1.4c1-0.5,2.1-1,3.1-1.6c4.1-2.2,7.9-4.7,11.6-7.5c3.7-2.8,7.1-5.9,10.2-9.3c3.2-3.4,6-7,8.6-10.8
		C597.3,354.9,597.6,354.4,597.9,354z"/>
	<path class="st26" d="M433.3,390.9c-18.9-10.1-38-21.3-50.7-38.6c9.1-0.1,16.1,7.9,23,13.2c13,10.6,27.6,20.4,41.1,30.3
		C449.7,399.2,434.4,391.2,433.3,390.9z"/>
	<path class="st26" d="M291.8,741.7c-5.5,1.6-11,3.3-16.3,5.6c-5.6,2.5-10.9,5.6-16.3,8.5c-12.6,6.7-26.7,12.5-34.5,24.4
		c-0.8,1.2-1.5,2.6-1.3,4c0.2,1.8,1.9,3.1,3.6,3.4s3.5,0,5.2-0.5c8.8-2.5,16.3-8.1,24-13c4.3-2.8,8.7-5.4,13.2-7.8
		c4.5-2.5,9.1-4.8,13.7-6.9c4.7-2.2,9.4-4.2,14.1-6.1c4.8-1.9,9.6-3.7,14.4-5.4c4.9-1.7,9.8-3.4,14.7-4.9c4.9-1.6,9.9-3,14.8-4.4
		c5-1.4,10-2.8,15-4.1c5-1.3,10-2.6,15-3.9c5-1.3,10.1-2.6,15.1-3.9c5-1.3,10-2.6,15.1-3.9c0.8-0.2,2.2-0.3,2.8-0.8
		c-0.8-0.5-2.3-0.2-3.2-0.1c-1.9,0.2-3.8,0.3-5.7,0.5c-3.8,0.3-7.6,0.7-11.4,1.1c-7.6,0.8-15.1,1.8-22.6,3c-7.5,1.2-15,2.5-22.5,3.9
		c-7.5,1.5-14.9,3.1-22.4,4.9c-7.4,1.8-14.8,3.7-22.1,5.8C293.5,741.2,292.7,741.5,291.8,741.7z"/>
	<path class="st26" d="M247.2,714c41.2-20.5,86.9-31.8,132.9-32.7c-18.1-4.2-36.9,1.1-55,4.9c-19.2,4.1-38.7,6.7-57.4,12.6
		c-6.2,2-12.3,4.3-18.2,7.1c-5.8,2.8-11.5,6.1-16.7,10c-5.1,3.8-9.9,8.2-13.9,13.2c-0.5,0.6-2.3,2.6-1.6,3.4c0.6,0.6,2,0,2.6-0.2
		c1.3-0.6,2.2-1.9,3.3-2.9c1.2-1.2,2.5-2.3,3.9-3.3c5.5-4.4,11.6-7.8,17.8-11C245.7,714.7,246.4,714.4,247.2,714z"/>
	<path class="st26" d="M220.1,738.7c20.3-4.2,39.2-14.1,59.5-18.2c11.4-2.3,23.1-2.8,34.6-4.7c17.2-2.8,34.9-8.8,51.5-3.5
		c-5.3,0.9-10.5,1.9-15.8,2.8c-25,4.4-50.1,8.9-74.2,16.8c-15.8,5.2-31.1,11.8-45.6,19.8c-1.2,0.7-2.6,1.3-3.8,0.4
		c-0.8-0.6-1.5-1.6-1.9-2.6c-0.3-0.8-0.3-1.6-0.4-2.4c-0.2-1.3-0.7-2.6-1.3-3.8C222,741.6,221.1,740.1,220.1,738.7z"/>
	<path class="st26" d="M764.8,685.1c-16-9.1-32.8-17.2-47.3-28.5c1.7,6.3,6.2,11.5,11.5,15.3c5.3,3.8,11.3,6.4,17.1,9.3
		c14.4,7.2,28,16.1,40.2,26.5c-0.8-3.9-1.9-8.3-5.1-10.9c-1.6-1.3-3.5-2.1-4.9-3.6c-1.3-1.3-2.6-2.5-4.1-3.6
		C769.9,688,767.4,686.5,764.8,685.1z"/>
	<path class="st26" d="M706.6,673.7c8.2,3.4,15.5,8.8,23.5,12.6c5,2.3,10.2,3.9,15.1,6.4c15,7.7,25.9,23,42.2,26.9
		c-1.5-4.2-4.8-7.5-8.4-10.1c-3.7-2.5-7.7-4.4-11.6-6.7c-9.6-5.8-17.6-14.3-28.1-18c-3.6-1.3-7.5-2-10.9-3.8c-2-1-3.7-2.4-5.6-3.7
		c-4.2-2.7-8.8-4.3-13.5-5.8c-4.8-1.5-9.6-2.7-14.2-4.5c-1.3-0.5-2.6-1-3.8-1.6c-0.6-0.3-2.5-1.7-3.2-1.3c1.4,2.1,4.2,3.6,6.3,4.7
		c2.5,1.3,5.2,2.2,7.8,3.2C703.6,672.5,705.1,673.1,706.6,673.7z"/>
	<path class="st26" d="M696.1,708.6c4.5,2.1,9,4.3,13.7,5.7c4.3,1.3,8.8,1.8,13.2,2.6c6.4,1.2,12.7,3,18.7,5.4
		c6.4,2.5,12.5,5.7,19.2,7.4c0.8-2.8-0.6-5.9-2.9-7.8c-2.2-1.9-5.1-2.9-7.9-3.7c-11.9-3.6-24.2-6-35.8-10.5
		c-4.5-1.7-8.9-3.8-13.6-4.6c-4.4-0.7-8.9-0.4-13.2-1.2c-4.1-0.7-8-2.4-12.1-3.3c-1.3-0.3-2.7-0.6-4-0.7c-1-0.1-2.4-0.6-3.3,0.1
		c-0.6,0.5-0.9,1.1-0.1,1.4c1.2,0.5,2.7,0.5,4,0.8c5.3,1.2,10.5,2.9,15.6,4.9C690.5,706.1,693.3,707.3,696.1,708.6z"/>
	<path class="st26" d="M745.1,712.5c3.4,1.1,6.7,2.2,9.9,3.6c5.6,2.6,10.7,6.4,15.6,10.1c3.7,2.8,7.5,5.7,10,9.5
		c4.1,6.1,4.7,13.8,7.5,20.6c0.6,1.4,1.4,2.9,2.8,3.4c2.5,0.9,4.8-1.9,5.5-4.5c1.2-4.5,0.3-9.5-1.7-13.7s-5-8-7.9-11.7
		c-3.3-4.2-6.7-8.4-11.1-11.6c-5.9-4.3-13.2-6.4-20.3-8.3c-11.4-3.1-22.7-6.2-34.1-9.3c-5.6-1.5-11.2-3-16.8-4.3
		c-6.1-1.3-12.3-2.3-18.6-2.9c-1.6-0.2-3.2-0.3-4.8-0.4c-0.3,0-3.1-0.1-2.1,1c0.3,0.3,1.6,0.4,2.1,0.5c0.8,0.2,1.5,0.4,2.3,0.6
		c1.5,0.4,3.1,0.7,4.6,1.1c6.1,1.5,12.2,3.1,18.3,4.7c6.1,1.6,12.2,3.4,18.3,5.1c6.1,1.8,12.1,3.6,18.1,5.5
		C743.6,712,744.4,712.3,745.1,712.5z"/>
	<path class="st27" d="M358.1,363.8c0,0,21.4,52.6,21.2,131.9s5.2,267.6,5.2,267.6s98.6,9.3,160.6,8.2c62-1.1,131.4-14.5,131.4-14.5
		s-11.8-78.4-11.8-122.9c0-44.5,2.9-63.7-1.6-89.1c-4.5-25.4-51.3-202.9-51.3-202.9l-6.7-1.5c0,0-11.5,88.7-22.1,144.2
		s-39.4,164.3-39.4,164.3s-61.4-97.9-82.4-133.8c-21.1-35.9-96.6-154.7-96.6-154.7L358.1,363.8z"/>
	<g>
		<path class="st23" d="M781,728c13.2,4.6,19.1,20.1,12,32.2c-63.2,107.7-174.1,63.3-287.5,65.1c-55.4-2.7-106.2,22.7-159.9,30.1
			c-13.1-2.1-62.7,26.9-66.3,16c-2.3-5.3,3.4-8.9,7.6-10.6c15.2-6.9,30.1-14.2,44.9-22.1c1.4-3.1-1.8-2.3-3.7-1.9
			c-24.9,6.4-49.7,12.9-74.6,19.3c-5.7,2.7-17.1,0.3-13.6-7.6c-4,2.1-5.9-4.5-4.1-7.4c4.7-9.4,17.8-10.6,26.5-15.1
			c-38,0.5,53.3-37.6,59.1-38.2c16.8-5.6,35.2-7.8,52.1-13.6c-8.1-0.5-16.7-4.9-21.6-11.5c-1.4-1.9-0.7-4.6,1.4-5.7
			c3.4-1.6,8-1.4,11.9-1.1c16.7,1.3,33.4-1.7,49.9-4.6c28.6-4.5,57.4-6.1,85.7-12.7c55-9.4,109.7-25.4,165.7-25.9
			c38.3,1.8,77.7,2.9,114.2,15.2C780.9,728,781,728,781,728z"/>
		<path class="st11" d="M250.2,854.6c-2.9,1.2-6.1,2.2-9.1,1.4c-1.2-0.3-2.3-1-3-2c-0.7-1-0.9-2.4-0.3-3.4c0.3-0.6,0.8-1,1.4-1.5
			c3.7-3,8.1-5.2,12.8-5.6c1.9-0.2,4.6-0.4,5.8,1.5c1,1.5,0.5,3.6-0.4,5C255.8,852.4,252.7,853.5,250.2,854.6z"/>
		<path class="st11" d="M241.7,843.9c-2.8,1.3-5.9,2.5-8.9,1.8c-1.2-0.3-2.3-0.9-3-1.8c-0.7-0.9-1-2.3-0.5-3.4
			c0.3-0.6,0.8-1.1,1.3-1.5c3.5-3.1,7.7-5.4,12.3-6.1c1.9-0.3,4.5-0.6,5.7,1.2c1,1.5,0.6,3.5-0.2,4.9
			C247.1,841.5,244.2,842.8,241.7,843.9z"/>
		<path class="st11" d="M264.7,825.6c-2.6,1.4-5.6,2.8-8.5,2.3c-1.1-0.2-2.3-0.7-3.1-1.6c-0.8-0.9-1.1-2.2-0.7-3.3
			c0.2-0.6,0.7-1.1,1.1-1.5c3.2-3.2,7.2-5.8,11.7-6.8c1.8-0.4,4.3-0.9,5.7,0.8c1.1,1.4,0.8,3.4,0.1,4.8
			C269.8,822.9,267,824.3,264.7,825.6z"/>
		<path class="st11" d="M286.5,869.4c-1.9,1-4,2-6.2,1.7c-0.8-0.1-1.7-0.5-2.2-1.1c-0.6-0.6-0.8-1.6-0.5-2.4
			c0.2-0.4,0.5-0.8,0.8-1.1c2.3-2.3,5.2-4.2,8.4-4.9c1.3-0.3,3.1-0.6,4.1,0.6c0.8,1,0.6,2.4,0.1,3.5
			C290.2,867.5,288.2,868.5,286.5,869.4z"/>
		<path class="st11" d="M360.6,761.5c-2.5,0-5.3-0.2-7.9-1.6c-1-0.5-1.9-1.2-2.4-2c-0.5-0.8-0.6-1.7-0.1-2.2
			c0.3-0.3,0.8-0.4,1.3-0.6c3.3-0.9,7.2-1.1,11.3-0.1c1.6,0.4,3.9,1,4.8,2.5c0.8,1.2,0.2,2.4-0.7,3
			C365.5,761.6,362.8,761.5,360.6,761.5z"/>
		<path class="st26" d="M321.5,820.3c-24.1,9.5-49.7,14.4-74,23.4c-1.2,0.5-2.6,0.9-3.9,0.5c13.4-8.5,29.6-11.3,44.6-16.5
			c3.4-1.2,6.8-2.5,10.1-3.9c3.4-1.4,6.8-2.8,10.2-4.1c3.4-1.3,6.8-2.5,10.3-3.6c1.7-0.5,3.5-1,5.2-1.4c0.9-0.2,1.8-0.4,2.7-0.6
			c0.5-0.1,1.2-0.4,1.4,0.2c0.3,1-1.1,2.5-1.8,3.1c-1.1,1-2.5,1.7-3.9,2.3C322.1,820,321.8,820.1,321.5,820.3z"/>
		<path class="st26" d="M309.6,808.6c-17.1,5.7-35.3,15.6-53.6,20.1c8.5-6.9,48.4-23.9,69-29.6C328.7,802.3,312.2,807.8,309.6,808.6
			z"/>
		<path class="st26" d="M399.7,763.2c0.7,0.6,0.6,1.8,0.1,2.5c-0.6,0.7-1.5,1.1-2.3,1.5c-3.1,1.3-6.3,2.5-9.5,3.5
			c-3.2,1-6.5,1.9-9.8,2.7c-0.9,0.2-1.8,0.4-2.8,0.6c-0.5,0.1-2.3,0.7-2.6,0.4c0.7-0.5,1.7-0.8,2.5-1.2c0.9-0.4,1.7-0.8,2.6-1.2
			c1.7-0.8,3.5-1.6,5.3-2.3c3.5-1.5,7-2.9,10.6-4.3c1-0.4,2-0.8,3-1.2c0.5-0.2,1-0.4,1.5-0.6C398.5,763.7,399.6,763.2,399.7,763.2z"
			/>
	</g>
	<g>
		<path class="st26" d="M699.9,743.8c5.8-3.3,12-7.6,13.2-14.2c-13.4-1.1-26.4,4.4-38.6,10.2c-9.6,4.5-19.1,9.3-28.5,14.2
			c-9.5,5-18.8,10.2-28.1,15.6c-1.9,1.1-1.2,1.8,0.7,2c2.1,0.2,4.5-0.8,6.6-1.3c4.9-1.2,9.8-2.4,14.7-3.7c9.8-2.6,19.5-5.4,29-8.9
			c9.5-3.4,18.7-7.4,27.6-12.1C697.7,745,698.8,744.4,699.9,743.8z"/>
		<path class="st26" d="M564.1,699.3c-23.3,5.5-47.5,5.5-71.1,9.6c-7,1.2-14.7,3.3-18.7,9.2c22.5,3,45.5,2,67.6-2.9
			c11.2-2.5,22.1-6,32.9-9.4c7-2.2,14.2-4.5,20.4-8.5c9.5-6.1,16.1-15.6,22.1-25.1c0.8-1.3,1.6-2.7,2.3-4.1c0.4-0.8,1.8-3.3,1.5-4.2
			c-0.6-1.6-3.1,1.3-3.7,2c-3,4.2-6.1,8.1-9.9,11.7c-7.7,7.1-17,12.5-26.7,16.4C575.5,696.2,569.9,697.9,564.1,699.3z"/>
		<path class="st26" d="M462.1,812.8c53.9-18.7,110.5-27.8,165.5-43.1c6.9-1.9,14.7-4.7,17.3-11.4c-19-2.2-38.2,0.9-57,4.4
			c-23.8,4.3-47.7,9.2-69.7,19.3c-16.6,7.6-31.7,18-46.7,28.4"/>
		<path class="st26" d="M320.9,732.5c18.5-8.3,38.5-12.7,58.4-16.6c18.9-3.7,38.1-6.9,57.4-6.9c7.9,0,15.8,0.6,23.7,1.1
			c20.7,1.4,41.5,2.9,61.9,6.9c-0.2,1.8-2.2,2.8-4,3.3c-40.2,12.6-83.5,8.5-125.2,14.4c-8.5,1.2-17,2.8-25.4,4.6
			c-8.5,1.8-17,3.7-25.5,5.5c-8.5,1.8-17.1,3.4-25.7,4.6c-4.3,0.6-8.6,1.1-12.9,1.4c-1.4,0.1-3.4,0.7-4.6-0.5
			c-0.9-0.9-1-2.3-0.6-3.4c0.5-1.6,2.1-2.5,3.4-3.5c1.7-1.3,3.5-2.4,5.3-3.6c3.6-2.2,7.3-4.2,11.1-6
			C319,733.3,319.9,732.9,320.9,732.5z"/>
		<path class="st23" d="M233,775.2c-11.6,7.8-13.3,24.3-3.4,34.2c88.6,88,174.3,11.7,284.4-15.4c16.1-5.1,36.5-16,53-17.1
			c37.6-2.6,131.4-61.9,125.7-61c-17.7-1.1-36,1.4-53.9,0.1c7.7-2.6,14.9-9,18-16.6c0.9-2.2-0.5-4.7-2.8-5.1
			c-3.7-0.7-8.1,0.7-11.8,2c-15.8,5.5-32.8,6.9-49.5,8.2c-28.8,2.9-57.1,8.8-86.1,9.6c-55.6,4.9-112.6,3.3-166.9,17.2
			c-36.6,11.5-74.4,22.6-106.6,43.8C233.1,775.1,233.1,775.1,233,775.2z"/>
		<path class="st25" d="M499,717.6c9.7,10,13.4,24.4,15.1,38.2c1.2,9.9,1.5,19.9,1,29.9c-0.4,6.7-1.3,13.9-6,18.8
			c8.2-2.3,13-11.2,13.7-19.6c0.7-8.5-1.9-16.8-3.9-25.1c-1.8-7.5-3.1-15-4-22.6c-0.9-7.6-1.7-16-7.3-21.1
			c-4.1-3.7-9.8-4.7-15.2-4.3c-1,0.1-2.8-0.1-3.6,0.7C492.8,712.9,496.1,714.6,499,717.6z"/>
		<g>
			<path class="st28" d="M800.1,575.7L800.1,575.7L800.1,575.7c-0.1-1.1-0.4-2.1-0.9-3l0,0l-2.5-4.5c0-0.1-0.1-0.2-0.1-0.2l0-0.1
				l0,0c-0.9-1.6-2.4-2.9-4.4-3.6l-53.6-19.5c-4.7-1.7-10.1,0.6-12.2,5l-51,108.9c-0.9,1.9-1,4-0.5,5.8c0.4,1.4,3,5.9,3.7,6.9
				c0.9,1.3,2.3,2.4,4,3l53.6,19.5c4.7,1.7,10.1-0.6,12.2-5l51-108.9C800,578.6,800.2,577.2,800.1,575.7z"/>
			<ellipse transform="matrix(0.424 -0.9057 0.9057 0.424 -98.8919 1000.463)" class="st14" cx="737.1" cy="578" rx="14.2" ry="6"/>
			<circle class="st15" cx="735.4" cy="581.4" r="3.8"/>
			<circle class="st15" cx="739" cy="573.8" r="2.8"/>
		</g>
		<path class="st23" d="M536.4,717.7c15.5-5,31.2-10.1,45.4-18.1c14.2-8,27.1-19.3,34.3-34c1.9-3.8,3.3-7.8,5.5-11.4
			c7.4-12.2,21.5-18.2,34-24.9c13.4-7.2,26-16,37.3-26.1c2.6-2.3,6.5-4.7,9.1-2.4c0.9,0.8,1.3,2.1,1.6,3.3c2.2,11-3.7,22.2-11.8,30
			c-8,7.8-18.1,13.1-27.1,19.8c-1.2,0.9-2.6,2.2-2.1,3.7c4.7,4.7,12.5,3.2,18.8,1c31.4-10.8,59.8-29.2,91.8-38.2
			c2.6-0.7,5.4-1.4,8.1-0.9c2.7,0.5,5.3,2.7,5.4,5.4c0.2,3.3-2.9,5.8-5.7,7.6c1.9-1,2.7,1.1,3.5,3.2s0.2,4.4-0.7,6.4
			c-4.5,10.2-16.7,15.8-20.1,26.4c-1.2,3.5-1.2,7.3-2,11c-2.2,10.6-10.2,19-18.6,25.8c-8.4,6.8-17.7,12.8-24.2,21.4
			c-2,2.6-3.7,5.3-6.1,7.5c-2,1.8-4.4,3-6.9,4.2c-26.8,13.2-55.7,22.2-85.3,26.4c-26.6,3.8-54,11.6-79.5,20
			C537.2,763,537,739.9,536.4,717.7z"/>
		<path class="st26" d="M717,674.1c-4.7,3.1-9.5,6.2-13.1,10.4c-1.3,1.5-2.5,3.5-1.8,5.4c3,0.3,5.8-1.5,8.4-3.2
			c4.3-2.9,8.6-6,11.9-9.9c1.3-1.5,2.4-3.1,3.5-4.6c1-1.4,2.5-2.8,3.3-4.4c0.2-0.3,0.6-1.2,0.4-1.5c-0.3-0.5-1.1,0.3-1.5,0.6
			c-1.8,1.1-3.5,2.3-5.3,3.4C720.8,671.6,718.9,672.9,717,674.1z"/>
		<path class="st26" d="M720,672.2c-6.3,4.6-12.8,9.6-16.4,16.6c3.2-0.8,5.7-3.1,8.2-5.2c18.2-15.9,38.1-30,59.1-42
			c1.1-0.7,2.3-1.3,3.4-2c0.9-0.5,2.6-1.2,3.2-2c0.3-0.4,0.4-1.5-0.3-1.6c-0.7-0.1-2.5,1.3-3.1,1.7c-4.5,2.5-9.1,5.1-13.5,7.8
			c-8.9,5.3-17.7,11-26.3,16.8C729.4,665.4,724.6,668.8,720,672.2z"/>
		<path class="st26" d="M755.5,670.6c-3.9,3.5-7.4,7.4-11.1,11.1c-6,6.2-12.3,12-18.9,17.6c-7.1,6-14.8,12.1-17.7,20.9
			c2.2-0.2,3.9-1.7,5.5-3.2c5.3-4.9,10.6-9.9,15.8-14.8c6.1-5.7,12.3-11.5,18.1-17.5c2.9-3,5.8-6.1,8.5-9.3c1.4-1.6,2.7-3.2,4-4.8
			c1.1-1.5,2.6-3,3.4-4.6c0.1-0.2,0.7-1.3,0.3-1.5c-0.3-0.2-1.9,1.3-2.2,1.5C759.2,667.4,757.3,668.9,755.5,670.6z"/>
		<path class="st11" d="M776,635.7c-1.4-0.2-3.1-0.9-3.6-2.4c-0.6-1.8,1-3.5,2.1-4.6c2.8-2.9,6.7-4.7,10.7-5.6
			c0.6-0.1,1.1-0.2,1.7-0.1c1,0.2,1.8,1.1,2.1,2.1c0.3,1,0.1,2.1-0.3,3.1c-1.1,2.5-3.5,4-5.8,5.3C780.9,634.6,778.4,636,776,635.7z"
			/>
		<path class="st11" d="M692.7,616.3c-1.9,0.3-4.2,0-5.4-1.7c-1.4-2-0.1-4.7,0.9-6.6c2.5-4.7,6.7-8.4,11.3-10.9
			c0.7-0.4,1.3-0.7,2.1-0.8c1.4-0.1,2.7,0.7,3.4,1.8c0.7,1.1,0.9,2.6,0.8,3.9c-0.4,3.5-2.9,6.4-5.3,8.8
			C698.4,613.1,695.9,615.8,692.7,616.3z"/>
		<path class="st11" d="M779.4,648.2c-1.2,0.3-2.7,0.2-3.5-0.8c-1-1.3-0.3-3.2,0.3-4.5c1.3-3.3,3.8-6,6.6-8c0.4-0.3,0.8-0.6,1.3-0.7
			c0.8-0.2,1.7,0.3,2.2,1c0.5,0.7,0.7,1.7,0.7,2.6c-0.1,2.4-1.5,4.4-2.9,6.3C782.8,645.7,781.3,647.6,779.4,648.2z"/>
		<path class="st25" d="M514,713.1c4.3,3.1,7.2,7.8,9.4,12.6c6.1,13,8.8,27.3,10.2,41.6c0.7,7,1,14.5-2.7,20.4
			c-1.9,3-4.6,5.3-7.2,7.6c-3.5,3.1-7.2,6.2-11.5,8c7.1,2,14.8,1.8,21.8-0.6c3.9-1.3,7.6-3.4,10.1-6.7c1.6-2.2,2.6-4.9,3.3-7.6
			c2.6-9.6,2.5-19.7,2.4-29.7c-0.1-6.7-0.1-13.6-2.2-20c-1.5-4.5-3.8-8.7-6.2-12.8c-4.9-8.6-10.6-17.7-19.8-21.2
			c-3.6-1.3-7.4-1.7-11.2-1.6c-4.2,0.1-8.4,0.6-12.1,2.4c-1.8,0.9-3.4,2-4.8,3.5c-0.9,0.9-3.3,3.5-2.8,4.9c1.4-0.6,2.6-1.8,4-2.5
			c1.5-0.7,3.1-1.2,4.7-1.5c3.2-0.6,6.6-0.4,9.7,0.5C510.8,711.2,512.5,712,514,713.1z"/>
		<path class="st25" d="M510,711.5c1.8-4.6,6.7-7.4,11.6-7.7s9.7,1.6,13.8,4.2c7.3,4.7,13,12,15.7,20.3c1.9,5.7,2.4,11.7,2.9,17.6
			c0.4,4.3,0.7,8.5,1.1,12.8c0.7,8,1.4,16.1-0.7,23.8c-2.1,7.7-7.6,15-15.3,16.9c8.2-0.4,16-5.7,19.4-13.2c2.3-5,2.7-10.5,3.1-16
			c0.5-6.5,0.9-13,0.2-19.4c-0.5-5-1.8-10-3.3-14.8c-3-9.8-7.1-19.7-14.8-26.5c-7.7-6.7-20-9.2-28.3-3.2"/>
	</g>
	<g>
		<path class="st26" d="M521.1,349.2c-16,8.9-34.3,2.3-46.1-6.4c-5.7-4.2-13.7-4.2,1.8,8.5s49.2,14.3,58.6-13.2
			C537.6,332.1,537.2,340.3,521.1,349.2z"/>
		<path class="st28" d="M536.9,321.1c2.2,3.5,5.9,5.9,9.7,7.5c8.3,3.4,17.9,3.4,26.3,0.1c8.3-3.3,15.3-9.9,19.1-18
			c3.7,1.1,6.5,2.7,10.2,1.7c2.2-0.6,4.5-1.8,5.1-4c-5.3-5.7-9.8-12.1-13-19.1c4.5-0.3,9.1-1.3,12.8-3.9s6.4-6.9,6.2-11.4
			c-3.4-3.7-6.6-7.9-10-11.5c-3.2-3.5-6.5-7-9.3-10.8c-3.1-4.3-5.7-8.9-8.2-13.6c-9.1-16.6-18.1-33.2-27.2-49.8
			c-10.1-18.5-13.8-41.4-28.9-56.2c-14.2-13.8-37-16.3-55.5-9.2c-15,5.7-28.1,17.8-32.3,33.3c-2.5,9.2-1.8,19,0,28.4
			c6.3,33.4,24.9,62.8,40,93.2c6,12.1,11.8,24.8,22.3,33.3c3.5,2.8,7.4,5,11.8,6C523,318.6,533.1,315,536.9,321.1z"/>
		<path class="st29" d="M562.7,291.2c5.3,9.8,12.5,18.7,21.9,24.6c-10.7-5.1-19.7-13.5-25.6-23.8c2.1,7.7,5.7,15,10.5,21.5
			c-4.2-2-8.2-4.3-11.9-7c-0.1,1.7,0.5,3.5,1.7,4.8c-0.8-0.5-1.5-1-2.3-1.5c0.2,1.3,0.4,2.5,0.5,3.8c0-1.2-1.9-1.4-2.7-0.6
			c-0.8,0.9-0.8,2.2-0.7,3.3c0.2,2.7,0.6,5.9,2.9,7.3c-6.1-6.2-11.6-12.8-16.5-20c0,1,1.2,1.6,2.1,1.2c0.9-0.4,1.4-1.3,1.8-2.2
			c2.1-5.3,1.1-11.1-0.1-16.4c-1.3-5.9-2.5-11.6-2-17.6c0.2-2.4,0.4-4.9,1.9-6.9c0.9-1.2,2.5-2.9,4.2-2.7c2.1,0.2,2.5,3.7,3,5.3
			c1,2.9,2,5.7,3,8.5c2.1,5.6,4.3,11.2,7.1,16.5C562,289.9,562.4,290.6,562.7,291.2z"/>
		<path class="st23" d="M545.2,206.4c0,0,10.4,55.6,2,98.4c-7.8,40.1-22.9,46.1-31.9,48.2c-9,2.1-45.6,3.7-78-46.3
			c-37.4-57.8-16.7-98.1-16.7-98.1l69.7-28.5L545.2,206.4z"/>
		<path class="st15" d="M453,261.4c0,0,8.7,3.2,18.4,1.3s14.3-9.3,14.3-9.3s-5.2-6.3-16.5-3.4C458,253,453,261.4,453,261.4z"/>
		
			<ellipse transform="matrix(0.999 -4.491948e-02 4.491948e-02 0.999 -10.9505 21.5938)" class="st30" cx="475" cy="254.5" rx="6.8" ry="6.8"/>
		<path class="st26" d="M453,261.4c2.4-5.9,4.3-10.9,14.2-13.8c8.1-2.4,13.5,0.3,18.5,5.9c0,0-5.6-4.4-12.1-2.9
			C465.1,252.6,455.9,258.7,453,261.4z"/>
		<path class="st15" d="M515.8,250.5c0,0,8,4.1,17.6,3.3c9.5-0.8,14.8-7.6,14.8-7.6s-4.3-6.8-15.5-5.1
			C521.5,242.7,515.8,250.5,515.8,250.5z"/>
		
			<ellipse transform="matrix(6.616578e-02 -0.9978 0.9978 6.616578e-02 256.5325 764.5559)" class="st30" cx="536.7" cy="245.2" rx="6.8" ry="6.6"/>
		<path class="st26" d="M515.8,250.5c2.9-5.6,5.4-10.4,15.2-12.2c8.1-1.5,13,1.7,17.2,7.9c0,0-5.8-5.3-12.2-4.5
			C527.5,242.8,518.9,248.1,515.8,250.5z"/>
		<path class="st26" d="M511.9,260c2.1,5.7,4.6,11.4,9.1,15.4c0.4,0.4,1,0.7,1.5,0.5c-2.1-4.3-4.2-8.6-6.3-12.9
			c-0.8-1.7-1.7-3.4-2.3-5.2c-0.8-2.1-1.3-4.2-1.8-6.4c-0.6-2.5-1.1-4.9-1.6-7.4c-0.2-1.2-0.4-2.4-0.7-3.6c-0.1-0.4-0.4-0.9-0.9-0.8
			c-0.4,0.1-0.8,0.6-1,0.9c-0.4,0.5-0.4,1.1-0.3,1.7c0.1,0.8,0.3,1.6,0.4,2.5c0.2,2.4,0.7,4.9,1.3,7.2c0.6,2.4,1.4,4.7,2.3,7.1
			C511.7,259.4,511.8,259.7,511.9,260z"/>
		<path class="st26" d="M495.9,287c0.8,1.3,1.7,2.7,3.2,3.1c1.9,0.5,3.8-0.9,5.6-1.8c5.6-2.6,12.5,0.4,18.1-2.1
			c0.4-0.2,0.8-0.5,0.8-0.9c-2.1-0.4-4.4,0.8-6.4,0.2c-1.1-0.3-2-1.1-3-1.7c-1.8-1.2-4.1-1.8-6.2-1.2c-1.8,0.6-3.3,2-5.1,2.6
			c-1.7,0.6-3.6,0.3-5.2-0.5c-0.8-0.4-1.5-0.9-2.2-1.3c-0.5-0.2-1.2-0.3-1,0.5C494.7,285.1,495.3,286,495.9,287z"/>
		<path class="st29" d="M515.2,228.1c0.4,0.1,0.8-0.1,1.2-0.2c11.5-4.1,25.1-1.5,34.3,6.6c0.5-0.6,0.3-1.5,0-2.2
			c-1.9-4.5-6.4-7.2-11-8.9c-2-0.7-4-1.3-6.1-1.7c-2.1-0.4-4.2-0.6-6.3-0.7c-2.1,0-4.2,0.1-6.2,0.6c-1,0.2-2,0.5-3,0.8
			c-0.9,0.3-1.9,0.6-2.6,1.1c-0.6,0.4-0.9,1.1-1.3,1.7c-0.4,0.9-0.6,2.1,0.3,2.7C514.8,228,515,228.1,515.2,228.1z"/>
		<path class="st29" d="M448.1,247.6c-0.9,1.9-1.4,3.9-1.5,6c0,0.2,0,0.5,0.1,0.7c0.2,0.4,0.8,0.4,1.1,0.1c0.3-0.2,0.5-0.7,0.7-1
			c0.8-1.7,1.5-3.4,2.5-4.9c3.3-5.4,8.3-9.7,14-12.4s12.1-3.8,18.5-3.7c1.2,0,2.7,0,3.3-1.1c0.4-0.7,0.2-1.6-0.3-2.2
			c-0.5-0.6-1.2-1-1.9-1.3c-4.9-2.1-10.6-1.2-15.7,0.4c-4.4,1.5-8.7,3.5-12.4,6.4s-6.8,6.6-8.7,10.9c-1,2.2-1.6,4.6-1.3,7"/>
		<path class="st25" d="M448,237.1c-1.2,1.7-1,4-0.5,6c0.2,0.8,0.4,1.5,0.8,2.2c1.1,2.1,3.8,3.2,6.1,2.8c2.3-0.5,4.3-2.5,4.8-4.8
			c0.2-0.8,0.2-1.7-0.3-2.3c-0.5-0.7-1.6-0.9-2.1-0.3c-0.4,0.5-0.3,1.3-0.5,1.9c-0.4,1.4-2.2,1.9-3.5,1.5c-1.3-0.5-2.3-1.7-2.9-3
			c-0.2-0.5-0.5-1.1-0.3-1.6c0.2-0.6,0.7-1,1.3-1.3c1-0.6,2.1-0.8,3.3-1c0.6-0.1,1-0.4,0.8-1c-0.6-1.8-2.8-1.4-4.2-0.9
			C449.6,235.6,448.6,236.2,448,237.1z"/>
		<path class="st29" d="M389.8,303.9c2.3,6.6,4.8,13.4,9.5,18.6c-0.2-5.2-0.9-10.5-1.9-15.6c1.5,6.7,4.8,13,9.5,18.1
			c0.7-4.6,0.5-9.4-0.7-13.9c0.5,2.9,1.7,5.7,3.5,8c0.1-1.6,0.2-3.2,0.3-4.8c2.9,8.7,8.8,16.3,16.5,21.3c-0.9-4.7-4.3-8.5-6.9-12.6
			c-2.5-4-4.2-8.6-4.9-13.3c-0.2-1.2-0.3-2.5-0.9-3.6c-0.5-0.8-1.2-1.4-2-2.1c-5.4-4.5-10.8-9.1-16.6-13c-2.9-2-5.9-3.8-9.1-5.4
			c-0.6-0.3-1.6-1-2.3-1.1c-1-0.1-0.6,0.6-0.4,1.2c0.7,1.9,1.3,3.7,2,5.6C386.8,295.5,388.3,299.7,389.8,303.9z"/>
		<path class="st28" d="M345.7,310.6c-1.1,4.2,2.1,8.6,6.1,10.2c4,1.6,8.6,1,12.8-0.1c-0.3,4.1,2.4,7.9,5.9,10
			c3.5,2.1,7.6,2.9,11.6,3.5c2.1,0.3,5,0.1,5.5-1.9c3.5,6.2,10,10.1,16.3,13.5c2.9,1.6,5.9,3.1,9.1,4.2c3.9,1.3,8,1.8,12,2.1
			c8.4,0.7,16.9,0.7,25.1-1.1c8.2-1.8,22.5-7,28.3-13.1c-2.2-7.8-13.6-13.1-18.1-19.9c-15.4-23.3-25-53.4-22.2-81.2
			c23.4-15.8,50.9-22.4,79.1-23.5c10.1-0.4,20.2,0.3,30.2-0.6c-3.7-13.2-4.9-26.3-8.3-39.5c-3.3-13.3-9.1-26.6-19.8-35.2
			c-10.4-8.4-24.1-11.2-37.2-13.8c-5.9-1.2-12.2-2.3-17.6,0.2c-19.5-4.4-41.6,1.7-57.3,14.1c-15.7,12.4-26.4,30.2-33.2,49
			c-3,8.3-5.2,16.8-6.7,25.5c-1.7,10-2.4,20.1-3.7,30.1C360.4,265.7,351.3,288.5,345.7,310.6z"/>
		<path class="st29" d="M393.1,295.9c1.7,10.5,4.2,20.9,7.6,31c-1.8-12.3-3.7-24.7-4.1-37.1c2.4,13,6.2,25.8,11.2,38
			c-1.8-11-3.6-21.9-5.5-32.9c1.5,7.8,4.2,15.3,7.9,22.3c-0.6-5.9-1.3-11.8-1.9-17.8c1,3.8,2.6,7.5,4.6,10.9
			c0.1-2.8-0.1-5.6-0.7-8.4c-0.3,4.2,1.4,8.3,3.4,12c3.6,6.5,8.4,12.3,13.1,18c-2.6-5.9-5.2-11.7-7.8-17.6
			c-2.3-5.2-4.7-10.5-6.1-16.1c0.1,0.5,0.2,1,0.3,1.5c-0.3-5.2-0.8-10.9-4.4-14.7c-2-2.1-4.7-3.3-6.9-5.2c-1.7-1.5-3.1-3.3-4.6-5
			c-1.3-1.4-3.3-3.5-5.3-3.6c-1.2-0.1-1.2,1.7-1.4,2.6c-0.3,1.4-0.4,2.7-0.6,4.1c-0.2,2.8-0.2,5.6,0,8.3
			C392.2,289.7,392.6,292.8,393.1,295.9z"/>
		<path class="st23" d="M407.1,242.4c-32,5.3-18.7,46.6,7.3,52.6c2.4,0.6,3.6,0.1,3.1-2.3c-1.1-12.5-3.7-24.8-3.5-37.4
			C414.6,249.9,413.8,241.2,407.1,242.4z"/>
		<path class="st26" d="M397.5,257.3c-0.6-0.4-1.5-0.9-2.2-0.5c-0.1,1.4,0.6,2.6,1.3,3.8c3.6,5.4,8.7,9.7,13.7,13.8
			c-3.6-1.6-7.3-3.2-11.2-2.9c-0.5,0-1,0.1-1.3,0.4c-0.9,0.8-0.2,2.4,0.8,3.1c1.1,0.7,2.4,1,3.7,1.3c3.7,0.8,7.5,1.7,11.2,2.5
			c0.8,0.2,2.3,0.3,2.4-1c0-0.8-0.9-1.9-1.3-2.5c-1-1.7-2.2-3.4-3.4-5c-2.5-3.3-5.3-6.2-8.4-8.9
			C401.2,259.9,399.4,258.5,397.5,257.3z"/>
		<path class="st23" d="M561.4,221.8c2.1-0.4,4.3-0.6,6.3,0.2c3.6,1.4,5.5,5.3,6.3,9c2.1,10.2-1.9,20.6-5.8,30.3
			c-0.1,0.2-0.2,0.5-0.5,0.6c-0.3,0.1-0.6-0.2-0.8-0.4c-4-5-7.2-10.8-9.3-16.9c-1.1-3.1-1.9-6.2-2.4-9.4c-0.3-1.6-0.5-3.2-0.6-4.8
			c-0.1-1.1-0.6-2.3-0.5-3.3C554.4,223.9,558.9,222.3,561.4,221.8z"/>
		<path class="st26" d="M562.9,229c1.4,3.4,0.2,7.3-1,10.7c-0.6,1.7-1.2,3.3-1.8,5c0.7-3.2,3.2-5.9,6.3-6.9c-0.1,0-0.6,3.2-0.7,3.6
			c-0.4,1.2-0.8,2.4-1.4,3.5c-0.6,1.1-3.5,5.8-5,4.9c-1.6-1-2.5-4-2.2-5.7c0.2-1,0.5-1.9,0.8-2.8c0.3-1.3,0.5-2.7,0.9-4
			C559.7,234.3,561,231.5,562.9,229z"/>
		<path class="st29" d="M468.8,129.9c1.3,1.7,2.1,3.7,2.9,5.7c0.6,1.5,1.2,3,1.8,4.5c-0.1-0.4,0.4-1.7,0.4-2.2
			c0.1-0.7,0.1-1.5,0-2.2c-0.1-1.5-0.6-3-1.3-4.4c-0.7-1.3-1.6-2.6-2.7-3.6c-0.6-0.6-2.6-2.4-3.5-1.7c-0.6,0.5-0.3,1.2,0.1,1.6
			C467.3,128.4,468.2,129,468.8,129.9z"/>
		<path class="st29" d="M443.1,336c0.2-4.1-2.1-7.8-4-11.4c-10.9-20.2-15-43.2-20.1-65.5c-1-4.5-2.1-9.1-4.5-13
			c-0.9-1.5-2-3-3.6-3.7c-1.1-0.5-2.9-0.8-3.7,0.5c-0.6,1.1-0.4,2.7-0.4,3.9c0,1.8,0.1,3.6,0.1,5.5c0.3,7.5,1.3,15,3,22.4
			c1.7,7.4,4,14.6,6.9,21.5c2.9,7,6.4,13.7,10.5,20.1c4.1,6.3,8.7,12.3,13.8,17.8C441.8,334.6,442.4,335.3,443.1,336z"/>
		<path class="st29" d="M471.8,160.6c-0.2,3.1,1.8,5.9,3.4,8.6c3.9,6.8,5.6,14.9,4.6,22.7c4.3-8.3,5.1-18.3,2.1-27.1
			c4.8,4.9,8,11.3,9.1,18.1c4.9-12.3,3-27-4.7-37.6c4.4,5.6,8.6,11.4,12.5,17.3c2.7,4.1,5.5,8.8,4.9,13.8c0.9-3.7,0.8-7.6-0.2-11.3
			c5.4,2.5,11.4,5.6,13.2,11.2c0.2-9.9-3.9-19.5-9.9-27.5c-5.9-7.9-13.7-14.3-21.7-20.2c7.5,3.8,16.1,5.2,23.4,9.3
			c6.7,3.7,12.1,9.2,17.5,14.7c4.6,4.7,9.2,9.5,12.3,15.3c5.2,9.7,5.7,21.2,6,32.3c-4.2-11.3-9.8-22-16.7-31.8
			c5.3,9.8,5.2,22.2-0.1,31.9c-0.7-4.6-2.3-9-4.5-13.1c-0.1,3.3-1.4,6.6-3.7,9.1c-1.1-1.4-1.8-3.2-1.9-5c-0.6,1.1-1.2,2.1-1.8,3.2
			c-1.4-5.5-3.7-10.8-6.9-15.6c-0.1,5.9-0.4,11.8-2.1,17.4s-5,10.9-9.9,14.1c1.2-7.8,1.5-15.7,0.7-23.6c-1.8,5.2-3.9,10.8-8.4,14
			c-0.4-1.8-0.8-3.6-1.1-5.4c-0.5,0.9-1,1.8-1.5,2.7c0-0.9,0.1-1.8,0.1-2.7c-4.7,9.5-12.7,17.3-22.3,21.9c3-5.1,5.5-10.4,7.7-15.9
			c1.1-2.7,2.1-5.9,0.6-8.5c0.2,0.3-0.5,1.8-0.6,2.2c-0.2,0.7-0.5,1.4-0.7,2.1c-0.6,1.4-1.2,2.8-2,4.2c-1.5,2.7-3.5,5.1-5.7,7.3
			c-2.2,2.1-4.7,3.9-7.4,5.4c-1.1,0.6-6.3,3.6-6.9,1.7c-0.9-2.5,2.7-5.1,4-6.5c2.3-2.5,4.4-5.2,6.3-8c3.8-5.6,6.8-11.7,8.9-18.1
			c2.1-6.4,3.3-13.2,3.5-20C471.8,162.2,471.8,161.4,471.8,160.6z"/>
		<path class="st29" d="M550.6,220.7c1,15,3.5,30.4,11.3,43.3c4,6.6,9.2,12.3,14.5,17.8c-2.2-7.5-5.2-14.9-8.9-21.7
			c-3.3-6-7.1-11.8-9-18.3c-0.8-2.7-1.2-5.5-1.7-8.2c-1.3-6.3-3.3-12.4-5.3-18.5c-0.6,3.1-0.8,6.4-0.6,9.5"/>
		<path class="st29" d="M555.5,213c-2.8-1.9-6.6-1.9-9.4-0.1c5.4,0.2,10.6,1.6,15.8,2.9c-1.7-4.1-2.4-8.5-3-12.9
			c-0.9-6.3-1.9-12.6-2.8-18.9c-0.2-1.1-0.6-5.8-2.6-4.5c-1,0.6-0.6,1.7-0.6,2.7c0.1,1.4,0.3,2.9,0.4,4.3c0.3,2.8,0.5,5.7,0.8,8.5
			c0.2,2.8,0.5,5.7,0.7,8.5c0.2,2.9,0.4,5.7,0.6,8.6C555.4,212.2,555.4,213,555.5,213z"/>
		<path class="st31" d="M524.2,279.7c0.7,1.8,0.6,3.9-0.4,5.6c0.2,0.4,0.7,0.2,1-0.1c1-0.9,1.3-2.3,1.3-3.7c0-0.7-0.1-1.5-0.5-2.1
			c-0.2-0.3-0.6-0.6-0.9-0.9c-0.2-0.2-0.6-0.6-0.9-0.6c-0.4,0-0.4,0.3-0.2,0.6C523.8,278.9,524,279.3,524.2,279.7z"/>
		<path class="st29" d="M407.7,234.4c6.4,0,12.8-1.9,18.2-5.4c-1.8,4.5-5.6,8.1-10.1,9.8c4.1-1,8-2.6,11.6-4.8
			c-1.5,2.6-3.8,4.8-6.5,6.3c0.8-0.9-0.5,1.9-0.3,0.7c4.5-1.7,8.5-4.5,11.5-8.2c-0.9,0.9-1.7,1.8-2.6,2.6c1.9-1.6,3.9-3.2,5.8-4.8
			c-3.8-0.2-7.5-1.8-10.1-4.5c0.2,0.2,5.6-4.4,6.1-4.9c2-1.8,3.9-3.6,5.6-5.6c3.5-3.9,6.7-8.2,9.3-12.8c2.7-4.6,4.9-9.4,6.6-14.5
			c1.7-5,2.9-10.2,3.5-15.5c0.6-5.2,0.7-10.6,0.2-15.8c0-0.5-0.1-1,0-1.4c-0.5,6.1-1.9,12.3-3.7,18.2c-1.8,6-4.1,11.8-6.8,17.4
			c-2.8,5.6-6,11-9.7,16c-3.7,5.1-7.7,9.8-12.2,14.2c-4.5,4.4-9.3,8.3-14.5,11.8C409,233.6,408.4,234,407.7,234.4z"/>
		<path class="st29" d="M485.8,314c0,0,7.9,12.8,29.3,9.9c16.8-2.3,20.8-21.1,20.8-21.1L485.8,314z"/>
		<path class="st23" d="M453,261.4c0,0,16.7-7.7,32.7-7.9l1.5,6.4l-18.3,10.8l-16.3-5.7L453,261.4z"/>
		<path class="st27" d="M484.4,311.3c-0.3,0.2-0.8,0.4-0.7,0.8c0,0.2,0.2,0.4,0.4,0.5c1.6,1.4,3.2,2.8,5.3,3.5
			c1.5,0.5,3.2,0.7,4.9,0.7c3.2,0.1,6.3,0.1,9.5,0.1c3,0,6,0,9-0.1c1.9,0,2.8-1.4,4.6-1.8c4.2-0.8,7.9-2.2,11.2-4.7
			c2.6-1.9,6.1-3.7,7.2-6.6c0.1-0.3,0.2-0.7,0.1-1c-0.1-0.3-0.5-0.5-0.8-0.6c-4.8-1.9-10.4-0.9-15.5,0.1c-2.5,0.5-5,0.9-7.5,1.3
			c-2.5,0.4-5.1,0.8-7.6,1.2c-2.5,0.4-5.1,0.7-7.6,1c-1.3,0.2-2.6,0.3-3.8,0.5c-0.6,0.1-1.3,0.1-1.9,0.2c-0.4,0-1.1,0-1.4,0.3
			c-0.3,0.3-0.6,0.8-0.9,1.2c-0.3,0.4-0.7,0.7-1,1.1c-0.7,0.7-1.6,1.3-2.5,1.8C484.9,311,484.6,311.1,484.4,311.3z"/>
		<path class="st15" d="M488.2,309.2c0,0,9.2,7.7,27.6,3.6c17.3-3.9,16-10.1,16-10.1L488.2,309.2z"/>
		<path class="st23" d="M515.8,250.5c0,0,22.3-6.6,32.3-4.3l1.3,7.2l-13.7,7c0,0-11.7,0.4-12.7-0.3
			C521.9,259.3,515.8,250.5,515.8,250.5z"/>
		<path class="st29" d="M482.8,311.8c0,0,14.2-14.8,21.8-15.8c4.1-0.6,5.3,2.6,8.2,2.2c2.4-0.4,2.2-4.1,7.1-4.4
			c7-0.4,11.6,4.9,16,9.1c0,0-2.4-0.3-5.6,1.2c-4.6,2-10,3.1-10,3.1c-1.2,0.4-3.2,2-4.8,2.3c-3.4,0.6-5.6-0.4-7.1-0.2
			c0,0-11.8,1.1-16.5,1.3C488.4,310.6,482.8,311.8,482.8,311.8z"/>
		<path class="st32" d="M466.8,262c0.4,0.8-0.6,1.6-1.4,2c-2.5,1.1-5.1,2.1-7.8,3c-1.3,0.4-2.7,0.8-4,1.2c-0.7,0.2-1.4,0.4-2.1,0.5
			c-0.5,0.1-1.2,0.5-1.7,0.4c-1.6-0.2,0.6-2.6,1.1-3.1c1.7-1.6,4.6-2.2,6.8-2.7C460.6,262.5,463.7,262.1,466.8,262z"/>
		<path class="st32" d="M535,256.6c2.1-0.6,4.1-1.4,6.1-2.4c1-0.5,1.9-1,2.9-1.6c0.5-0.3,1.9-1,2.1-1.6c0.2-1-1.7-1-2.4-1
			c-1.8,0.1-3.4,1.2-5,2.2c-1,0.6-2.1,1.2-2.9,2c-0.3,0.3-0.7,0.7-0.9,1.2C535,255.4,534.8,256.7,535,256.6z"/>
	</g>
</g>
</svg>
