<?xml version="1.0" encoding="utf-8"?>
<!-- Generator: Adobe Illustrator 25.2.0, SVG Export Plug-In . SVG Version: 6.00 Build 0)  -->
<svg version="1.1" id="Layer_2" xmlns="http://www.w3.org/2000/svg" xmlns:xlink="http://www.w3.org/1999/xlink" x="0px" y="0px"
	 viewBox="0 0 998.2 973.2" style="enable-background:new 0 0 998.2 973.2;" xml:space="preserve">
<style type="text/css">
	.st0{fill:#8ABBFD;}
	.st1{fill:#0F396C;}
	.st2{fill:#D03475;}
	.st3{fill:#701A59;}
	.st4{fill:#FFFFFF;}
	.st5{fill:#89BDF7;}
	.st6{fill:#FF9D68;}
	.st7{fill:#295CA5;}
	.st8{fill:#285BAA;}
	.st9{fill:#2B1E3C;}
	.st10{fill:#596187;}
</style>
<path class="st0" d="M379.4,354.9c0,0,15.5-5.2,28.3-12.2c5.7-3.1,12-6.5,17.2-9.3c7.2-3.9,13-9.8,16.8-17l12.7-24l72.5-2.7
	c4.9-2.7-0.4,19.1,11.7,30c10,9,26.8,12.6,35.7,15.3c19.6,6.1,30.8,5.5,30.8,5.5l-31.4,63.8c0,0-125.8,16.7-124.1,15.4
	S379.4,354.9,379.4,354.9z"/>
<g>
	<path class="st1" d="M521.2,337.3c-17,6.9-34.3-1.9-44.9-12c-5.1-4.9-13.1-5.9,0.8,8.6s47.1,20.2,59.8-6
		C539.6,322.3,538.2,330.4,521.2,337.3z"/>
	<path class="st2" d="M539.9,311.3c1.7,3.8,5.1,6.6,8.8,8.6c7.8,4.4,17.4,5.6,26,3.3c8.7-2.3,16.4-8,21.1-15.6
		c3.5,1.6,6.1,3.5,9.9,2.9c2.2-0.3,4.7-1.2,5.5-3.3c-4.5-6.3-8.3-13.2-10.6-20.6c4.5,0.3,9.2-0.2,13.2-2.3s7.2-6.1,7.5-10.6
		c-3-4.1-5.5-8.6-8.5-12.7c-2.8-3.8-5.6-7.7-7.9-11.8c-2.6-4.6-4.6-9.6-6.5-14.5c-7-17.6-13.9-35.1-20.9-52.7
		c-7.8-19.6-8.7-42.8-21.9-59.3c-12.4-15.4-34.7-20.6-54-15.9c-15.6,3.9-30.1,14.3-36.2,29.1c-3.6,8.8-4.1,18.7-3.5,28.2
		c2.2,33.9,17.1,65.4,28.3,97.4c4.5,12.7,8.7,26.1,18.1,35.7c3.1,3.2,6.8,5.9,11,7.4C526.4,307.1,536.9,304.8,539.9,311.3z"/>
	<path class="st3" d="M569.5,284.8c4.1,10.3,10.1,20.1,18.8,27.1c-10-6.3-18-15.8-22.5-26.7c1.2,7.9,3.9,15.6,7.9,22.6
		c-3.9-2.5-7.6-5.3-11-8.4c-0.4,1.7,0.1,3.6,1.1,5c-0.7-0.6-1.4-1.2-2.1-1.8c0,1.3,0,2.5,0.1,3.8c0.1-1.2-1.7-1.7-2.6-0.9
		c-0.9,0.8-1,2.1-1.1,3.2c-0.2,2.7-0.2,5.9,2,7.6c-5.3-6.8-9.9-14.2-13.9-21.8c-0.2,1,1,1.7,2,1.4s1.6-1.1,2-2
		c2.8-5,2.4-10.9,1.9-16.3c-0.6-6-1.1-11.8,0.1-17.7c0.5-2.4,1-4.8,2.7-6.6c1-1.1,2.8-2.5,4.5-2.2c2,0.5,2,4,2.3,5.6
		c0.6,3,1.2,5.9,1.9,8.8c1.4,5.8,2.9,11.6,5,17.3C569,283.4,569.2,284.1,569.5,284.8z"/>
	<path class="st0" d="M562.5,198.5c0,0,3.5,56.4-10,97.9c-12.7,38.8-28.3,43-37.5,44c-9.1,1-45.8-1.9-71.8-55.5
		c-30.1-61.9-4.6-99.4-4.6-99.4l72.7-19.8L562.5,198.5z"/>
	<path class="st4" d="M464.2,241.8c0,0,8.3,4.2,18.1,3.6c9.9-0.7,15.3-7.4,15.3-7.4s-4.4-6.8-16-5.3
		C470.2,234.1,464.2,241.8,464.2,241.8z"/>
	
		<ellipse transform="matrix(7.696283e-02 -0.997 0.997 7.696283e-02 211.2276 702.3475)" class="st5" cx="484.9" cy="237.1" rx="6.8" ry="6.8"/>
	<path class="st1" d="M464.2,241.8c3.1-5.6,5.6-10.3,15.8-12c8.4-1.4,13.4,1.9,17.7,8.1c0,0-8.1-3.9-14.7-3.1
		C474.2,235.8,467.4,239.5,464.2,241.8z"/>
	<path class="st4" d="M527.9,238.7c0,0,7.5,5.1,17,5.4c9.6,0.4,15.6-5.8,15.6-5.8s-3.5-7.3-14.7-7S527.9,238.7,527.9,238.7z"/>
	
		<ellipse transform="matrix(0.1871 -0.9823 0.9823 0.1871 213.782 730.5971)" class="st5" cx="548.3" cy="236.1" rx="6.8" ry="6.6"/>
	<path class="st3" d="M491.5,299.2c0,0,10,16.3,26.7,15.8c16.8-0.5,19.4-18.7,19.4-18.7s-7.7,2.9-18.6,4
		C507.6,301.4,491.5,299.2,491.5,299.2z"/>
	<path class="st1" d="M527.9,238.7c3.6-5.2,6.6-9.6,16.5-10.2c8.2-0.5,12.7,3.3,16.1,9.9c0,0-7.4-4.7-13.8-4.7
		C538.1,233.7,531.2,236.7,527.9,238.7z"/>
	<path class="st3" d="M491.5,299.2c0,0,0.8-0.1,4.7-1.1c3.8-1,8.7-12.1,15.6-12.3c3.8-0.1,4.5,3.3,7,3.1c2.2-0.1,2.5-3.8,6.8-3.5
		c6.3,0.5,7.7,10.6,12,10.9l-13.4,4.9c-1.1,0.3-3.1,1.6-4.6,1.7c-3.1,0.2-5-1-6.3-1.1L491.5,299.2z"/>
	<path class="st1" d="M522.9,247.6c1.4,5.9,3.2,11.9,7.2,16.4c0.4,0.4,0.9,0.9,1.4,0.7c-1.6-4.5-3.1-9-4.7-13.6
		c-0.6-1.8-1.2-3.6-1.7-5.4c-0.5-2.1-0.8-4.3-1-6.5c-0.3-2.5-0.5-5-0.7-7.5c-0.1-1.2-0.1-2.4-0.3-3.6c-0.1-0.4-0.3-0.9-0.8-0.9
		c-0.4,0-0.8,0.5-1.1,0.8c-0.4,0.5-0.6,1.1-0.5,1.7c0,0.8,0.1,1.6,0.1,2.5c-0.1,2.5,0.1,4.9,0.4,7.3c0.3,2.5,0.8,4.9,1.4,7.3
		C522.8,247,522.8,247.3,522.9,247.6z"/>
	<path class="st1" d="M503.7,272.5c0.6,1.4,1.4,2.9,2.8,3.4c1.9,0.7,3.9-0.5,5.8-1.1c5.8-1.9,12.3,1.9,18.2,0.1
		c0.4-0.1,0.9-0.4,0.9-0.8c-2.1-0.7-4.4,0.3-6.4-0.5c-1.1-0.4-1.9-1.3-2.8-2.1c-1.7-1.4-3.9-2.3-6-1.9c-1.9,0.3-3.5,1.6-5.4,1.9
		c-1.8,0.3-3.6-0.2-5.1-1.1c-0.7-0.4-1.3-1.1-2.1-1.5c-0.5-0.3-1.2-0.4-1,0.4C502.8,270.4,503.3,271.5,503.7,272.5z"/>
	<path class="st3" d="M526.3,224.3c0.4-0.1,0.7-0.4,1-0.7c8.7-8.6,22.1-12,33.9-8.6c0.2-0.7-0.4-1.5-0.9-2
		c-3.6-3.2-8.9-3.8-13.8-3.4c-2.1,0.2-4.2,0.5-6.2,1c-2,0.5-4,1.2-6,2c-1.9,0.9-3.7,1.9-5.4,3.2c-0.8,0.6-1.6,1.3-2.4,2
		c-0.7,0.6-1.4,1.3-1.9,2.1c-0.4,0.6-0.4,1.4-0.4,2.1c0,1,0.4,2.1,1.4,2.3C525.8,224.3,526.1,224.3,526.3,224.3z"/>
	<path class="st3" d="M462.4,219.3c-1.7,1.2-3.1,2.8-4.2,4.6c-0.1,0.2-0.2,0.4-0.2,0.7c0,0.4,0.5,0.7,0.9,0.6s0.8-0.3,1.1-0.6
		c1.5-1.1,3-2.2,4.6-3.1c5.5-3.2,11.9-4.5,18.3-4.1c6.3,0.4,12.5,2.5,18,5.6c1.1,0.6,2.4,1.3,3.4,0.6c0.7-0.4,0.9-1.3,0.8-2.1
		c-0.1-0.8-0.6-1.5-1.1-2.1c-3.3-4.2-8.7-6.2-14-7.1c-4.6-0.8-9.4-1.1-14-0.4c-4.6,0.7-9.1,2.5-12.8,5.4c-1.9,1.5-3.6,3.3-4.5,5.5"
		/>
	<path class="st6" d="M467.3,210c-1.9,0.9-2.8,3-3.4,5c-0.2,0.8-0.4,1.5-0.4,2.3c0,2.4,1.7,4.6,4,5.4s4.9-0.1,6.5-1.9
		c0.5-0.6,1-1.4,0.8-2.2c-0.1-0.8-1-1.5-1.7-1.2c-0.6,0.2-0.9,1-1.4,1.4c-1,1-2.8,0.7-3.8-0.4c-0.9-1.1-1.2-2.6-1.1-4
		c0-0.6,0.1-1.2,0.5-1.6c0.4-0.5,1.1-0.6,1.8-0.6c1.2,0,2.3,0.3,3.4,0.7c0.6,0.2,1.1,0.2,1.2-0.5c0.4-1.9-1.8-2.6-3.3-2.8
		C469.4,209.4,468.3,209.5,467.3,210z"/>
	<path class="st3" d="M396.3,276.4c1.5,6.8,3.1,13.9,7.2,19.6c0.4-5.2,0.4-10.5,0-15.7c0.7,6.8,3.2,13.5,7.2,19.1
		c1.2-4.5,1.6-9.3,1-13.9c0.1,2.9,1,5.8,2.5,8.3c0.3-1.6,0.6-3.1,0.9-4.7c1.9,8.9,6.8,17.2,13.7,23.2c-0.3-4.8-3.3-8.9-5.3-13.3
		c-2-4.3-3.1-9-3.2-13.8c0-1.2,0-2.5-0.5-3.6c-0.4-0.9-1-1.6-1.7-2.3c-4.8-5.1-9.6-10.3-14.9-15c-2.6-2.3-5.4-4.5-8.3-6.5
		c-0.6-0.4-1.4-1.2-2.1-1.3c-0.9-0.2-0.7,0.5-0.5,1.1c0.4,1.9,0.9,3.8,1.3,5.8C394.4,267.7,395.3,272,396.3,276.4z"/>
	<path class="st2" d="M351.8,277.7c-1.6,4,1,8.8,4.8,10.9c3.8,2.1,8.4,2.1,12.7,1.4c-0.8,4,1.4,8.1,4.6,10.6s7.2,3.8,11.1,4.9
		c2.1,0.6,4.9,0.8,5.7-1.3c2.8,6.6,8.7,11.2,14.5,15.3c2.7,1.9,5.5,3.8,8.5,5.2c3.7,1.7,7.7,2.7,11.7,3.6c8.2,1.7,16.6,2.8,25,1.9
		c8.4-0.8,23.2-4.2,29.7-9.6c-1.2-8-11.9-14.7-15.5-21.9c-12.5-25-18.3-56-12.2-83.3c25.1-12.8,53.2-16.1,81.3-13.7
		c10,0.9,20,2.7,30.1,3.1c-2.1-13.5-1.7-26.7-3.4-40.2c-1.7-13.6-5.8-27.5-15.4-37.3c-9.3-9.6-22.5-14.1-35.2-18.3
		c-5.7-1.9-11.8-3.8-17.5-1.9c-18.8-6.7-41.5-3.4-58.6,7c-17.1,10.4-29.9,26.7-38.9,44.6c-4,7.9-7.2,16.1-9.8,24.5
		c-2.9,9.7-4.8,19.6-7.4,29.4C371.8,234.9,360,256.3,351.8,277.7z"/>
	<path class="st3" d="M400.6,268.8c0.4,10.6,1.7,21.3,3.8,31.7c-0.3-12.5-0.6-24.9,0.4-37.4c0.8,13.2,3,26.3,6.5,39.1
		c-0.5-11.1-0.9-22.2-1.4-33.3c0.5,7.9,2.3,15.7,5.1,23.1c0.1-6,0.2-11.9,0.2-17.9c0.5,3.9,1.6,7.8,3.2,11.4
		c0.5-2.8,0.6-5.6,0.3-8.4c-0.8,4.1,0.4,8.4,2,12.4c2.8,6.9,6.8,13.2,10.8,19.5c-1.9-6.1-3.7-12.2-5.6-18.4c-1.7-5.5-3.4-11-4-16.7
		c0.1,0.5,0.1,1,0.2,1.5c0.3-5.2,0.5-10.9-2.6-15.1c-1.7-2.3-4.3-3.9-6.2-6c-1.5-1.7-2.7-3.7-4-5.5c-1.1-1.5-2.8-3.9-4.8-4.2
		c-1.2-0.2-1.4,1.5-1.7,2.4c-0.4,1.3-0.8,2.7-1.1,4c-0.6,2.7-0.9,5.5-1.1,8.3C400.4,262.5,400.5,265.7,400.6,268.8z"/>
	<path class="st0" d="M421,217.4c-32.4,1.4-24.2,43.9,0.8,53.1c2.3,0.8,3.6,0.5,3.4-1.9c0.4-12.5-0.6-25.1,1.1-37.5
		C427.5,225.7,427.8,217.1,421,217.4z"/>
	<path class="st1" d="M409.6,231c-0.6-0.5-1.3-1-2.1-0.8c-0.3,1.3,0.2,2.7,0.9,3.9c2.9,5.8,7.4,10.6,11.9,15.4
		c-3.3-2-6.9-4.1-10.8-4.3c-0.5,0-1,0-1.4,0.2c-1,0.7-0.5,2.4,0.4,3.2c1,0.9,2.3,1.3,3.5,1.8c3.6,1.3,7.2,2.6,10.8,3.8
		c0.8,0.3,2.3,0.5,2.5-0.7c0.1-0.8-0.7-1.9-1-2.6c-0.8-1.8-1.7-3.6-2.7-5.4c-2-3.5-4.5-6.8-7.2-9.9C413,234,411.3,232.4,409.6,231z"
		/>
	<path class="st0" d="M576.6,215.7c2.1-0.2,4.3-0.1,6.2,0.9c3.4,1.8,4.8,5.9,5.1,9.7c0.8,10.4-4.4,20.2-9.5,29.4
		c-0.1,0.2-0.3,0.5-0.6,0.5c-0.3,0-0.5-0.3-0.7-0.5c-3.4-5.5-5.8-11.6-7.2-17.9c-0.7-3.2-1.1-6.4-1.3-9.6c-0.1-1.6-0.1-3.3,0-4.9
		c0-1.1-0.3-2.3-0.1-3.4C569.4,216.9,574.1,215.9,576.6,215.7z"/>
	<path class="st1" d="M577.2,223.1c1,3.5-0.7,7.2-2.3,10.5c-0.8,1.6-1.6,3.2-2.4,4.7c1.1-3.1,3.9-5.5,7.1-6.1
		c-0.1,0-0.9,3.1-1.1,3.5c-0.5,1.1-1.1,2.2-1.9,3.3c-0.7,1-4.2,5.4-5.5,4.3c-1.5-1.2-2-4.3-1.5-6c0.3-0.9,0.8-1.8,1.1-2.7
		c0.5-1.3,0.9-2.6,1.4-3.8C573.4,227.9,575.1,225.3,577.2,223.1z"/>
	<path class="st3" d="M495.9,113.3c1.1,1.9,1.6,3.9,2.2,6c0.4,1.6,0.8,3.1,1.2,4.7c-0.1-0.4,0.6-1.7,0.7-2.1
		c0.2-0.7,0.2-1.4,0.3-2.2c0-1.5-0.2-3.1-0.7-4.5c-0.5-1.4-1.3-2.8-2.3-3.9c-0.6-0.6-2.3-2.7-3.3-2.1c-0.6,0.4-0.5,1.2-0.1,1.6
		C494.6,111.6,495.4,112.3,495.9,113.3z"/>
	<path class="st3" d="M445.3,314.7c0.7-4-1.1-8-2.6-11.9c-8.4-21.3-9.6-44.7-12-67.5c-0.5-4.6-1-9.3-2.9-13.5
		c-0.7-1.6-1.7-3.2-3.2-4.1c-1.1-0.7-2.8-1.2-3.7,0c-0.8,1-0.7,2.6-0.8,3.8c-0.2,1.8-0.4,3.6-0.5,5.4c-0.6,7.5-0.5,15.1,0.3,22.6
		c0.8,7.5,2.2,15,4.2,22.2c2,7.3,4.7,14.4,8,21.2c3.3,6.8,7.1,13.3,11.5,19.4C444.1,313.2,444.7,313.9,445.3,314.7z"/>
	<path class="st3" d="M495.1,144c-0.5,3.1,1.1,6.1,2.3,8.9c3.1,7.2,3.7,15.5,1.8,23.1c5.3-7.7,7.3-17.5,5.4-26.7
		c4.2,5.4,6.6,12.2,6.8,19.1c6.3-11.6,6.3-26.4-0.1-37.9c3.7,6.1,7.1,12.3,10.3,18.7c2.2,4.5,4.4,9.4,3.2,14.2
		c1.3-3.6,1.7-7.4,1.2-11.2c5.1,3.1,10.6,6.9,11.8,12.8c1.4-9.8-1.5-19.9-6.4-28.5s-11.8-15.9-19-22.7c7,4.6,15.3,7.2,22.1,12
		c6.2,4.5,10.9,10.7,15.5,16.8c3.9,5.2,7.9,10.5,10.3,16.7c4,10.3,3,21.8,2,32.8c-2.8-11.7-7.1-23-12.7-33.6c4,10.3,2.5,22.7-4,31.7
		c-0.2-4.6-1.2-9.2-2.9-13.5c-0.5,3.3-2.2,6.4-4.8,8.6c-0.9-1.6-1.4-3.4-1.3-5.2c-0.7,1-1.5,2-2.2,2.9c-0.7-5.7-2.4-11.2-4.9-16.3
		c-0.8,5.8-1.8,11.7-4.2,17c-2.4,5.4-6.3,10.2-11.6,12.8c2.2-7.6,3.4-15.4,3.6-23.3c-2.4,5-5.2,10.3-10.1,12.9
		c-0.2-1.8-0.3-3.7-0.5-5.5c-0.6,0.8-1.2,1.6-1.9,2.5c0.2-0.9,0.3-1.8,0.5-2.6c-5.9,8.8-14.7,15.7-24.8,19c3.6-4.7,6.8-9.6,9.6-14.8
		c1.4-2.6,2.8-5.7,1.6-8.4c0.1,0.3-0.7,1.7-0.8,2.1c-0.3,0.7-0.6,1.4-1,2c-0.7,1.4-1.6,2.7-2.5,3.9c-1.9,2.5-4.1,4.7-6.5,6.5
		c-2.5,1.8-5.2,3.3-8,4.4c-1.2,0.4-6.6,2.8-7.1,0.9c-0.6-2.6,3.3-4.7,4.8-6c2.6-2.2,5-4.6,7.2-7.2c4.4-5.1,8.1-10.8,11-16.9
		c2.9-6.1,4.9-12.7,5.9-19.4C494.9,145.7,495,144.9,495.1,144z"/>
	<path class="st3" d="M566,213.3c-0.9,15-0.2,30.6,5.9,44.3c3.1,7,7.6,13.3,12.3,19.4c-1.2-7.8-3.3-15.4-6.2-22.7
		c-2.5-6.3-5.7-12.5-6.7-19.3c-0.4-2.8-0.5-5.6-0.7-8.4c-0.5-6.4-1.8-12.7-3-19c-1,3-1.6,6.2-1.8,9.4"/>
	<path class="st3" d="M571.8,206.3c-2.5-2.2-6.3-2.7-9.3-1.3c5.3,0.9,10.4,2.8,15.4,4.8c-1.2-4.3-1.3-8.8-1.4-13.2
		c-0.2-6.4-0.3-12.7-0.5-19.1c0-1.1,0.1-5.9-2-4.8c-1,0.5-0.9,1.6-0.9,2.6c0,1.4-0.1,2.9-0.1,4.3c-0.1,2.9-0.2,5.7-0.3,8.6
		s-0.2,5.7-0.4,8.5c-0.1,2.9-0.3,5.7-0.4,8.6C571.9,205.5,571.7,206.2,571.8,206.3z"/>
	<path class="st7" d="M532.7,268.6c0.5,1.9,0.1,3.9-1,5.5c0.1,0.4,0.7,0.3,1,0c1.1-0.8,1.6-2.1,1.8-3.5c0.1-0.7,0.1-1.5-0.3-2.1
		c-0.2-0.4-0.5-0.7-0.8-1c-0.2-0.2-0.5-0.7-0.9-0.7c-0.4,0-0.4,0.3-0.3,0.6C532.4,267.8,532.6,268.2,532.7,268.6z"/>
	<path class="st3" d="M422.6,209.5c6.4,0.7,12.9-0.4,18.7-3.2c-2.4,4.2-6.5,7.4-11.2,8.5c4.2-0.4,8.3-1.6,12.1-3.4
		c-1.8,2.4-4.4,4.3-7.2,5.4c0.9-0.8-0.7,1.8-0.4,0.6c4.6-1.1,9-3.4,12.4-6.7c-1,0.8-1.9,1.5-2.9,2.3c2.1-1.4,4.2-2.7,6.3-4.1
		c-3.7-0.6-7.2-2.7-9.5-5.7c0.2,0.3,6.1-3.7,6.7-4.1c2.2-1.5,4.3-3.1,6.3-4.9c4-3.5,7.6-7.4,10.8-11.6c3.2-4.2,6-8.8,8.3-13.5
		c2.3-4.8,4.1-9.8,5.4-15c1.3-5.1,2-10.4,2.1-15.7c0-0.5,0-1,0.2-1.4c-1.3,6-3.4,11.9-5.9,17.6c-2.5,5.7-5.5,11.2-8.9,16.5
		c-3.4,5.2-7.3,10.2-11.5,14.7c-4.2,4.6-8.9,8.8-13.8,12.6c-5,3.8-10.3,7.1-15.8,10C424,208.9,423.3,209.2,422.6,209.5z"/>
</g>
<path class="st8" d="M385.5,353.2c0,0,38.9,56.5,118.9,48.1c77.9-8.2,100.6-60.7,100.6-60.7s55.9,8.5,86.7,65.5
	s73.9,282.1,85.5,286.6c11.7,4.6,10.5,26.3,10.5,26.3s16.2,32.5,7.9,40s-70.4-19.5-241.2-12.3c-170.8,7.1-329.5,48.5-332.9,38.5
	c-3.4-10.1,5.7-33.4,5.8-35.4c0.1-2-13.3-10.6-7-18.2s8.6-13.4,8.9-19.4c0.3-5.9,23.1-218.9,74.8-299.4
	C335.6,363.7,385.5,353.2,385.5,353.2z"/>
<ellipse transform="matrix(5.111716e-02 -0.9987 0.9987 5.111716e-02 -74.6381 1073.0647)" class="st6" cx="527.4" cy="575.8" rx="18" ry="16.6"/>
<circle class="st6" cx="505.4" cy="465" r="5.5"/>
<circle class="st6" cx="516.5" cy="477.5" r="5.5"/>
<circle class="st6" cx="524" cy="463.7" r="5.5"/>
<g>
	<path class="st6" d="M515.6,475.2c-23-32-41-64-63-99c-10-15-20-30-32-43c1,0,2-1,2-1c25,31,44,62,64,97c4,6,7,11,11,17
		c6,8,11,16,17,24c1-1,2-3,2-4c1-3,1-7,2-10c15-43,30-83,41-127c0,0,1,0,2,0c-10,43-26,85-41,127c-1,3-1,7-2,10
		S515.6,472.2,515.6,475.2L515.6,475.2z"/>
</g>
<g>
	<path class="st6" d="M522.6,568.2c-18-34-33-69-44-106c-2-4-4-8-5-12c-2-9-5-17-8-26c-14-31-26-60-46-90c-1-2,2-2,2-2
		c5,7,8,15,13,22c6,11,12,22,17,33s10,22,14,34c1,2,2,3,3,5c3,13,8,24,12,36c11,36,24,70,44,103c0,0,3-1,3-2c2-23,3-46,6-69
		c6-42,15-80,21-122c2-15,3-28,5-43c0,0,1,0,2,0c0,11-2,21-4,32c-7,69-27,134-27,203C527.6,565.2,525.6,567.2,522.6,568.2
		L522.6,568.2z"/>
</g>
<path class="st1" d="M364.7,459.1c-2.7-10.2-5.4-20.4-8.9-30.4c-2.4-6.8-5.6-13.9-11.8-17.5c-0.8,8,0.7,16,2.1,23.9
	c5.4,28.7,11.5,57.3,17.6,85.8c-1.9-3.7-5.2-6.7-9-8.4c2.2,12.8,4.4,25.6,6.5,38.4c1.3,7.6,2.6,15.4,5.4,22.6
	c1.7,4.3,3.8,8.3,6,12.3c4.9,9.1,9.7,18.1,14.6,27.2c0.4,0.7,0.9,1.5,1.6,1.6c1.2,0.1,1.8-1.3,2.1-2.4c3.5-14.7,4.3-30,2.5-45
	c-0.4-3.2-0.9-6.3-1.9-9.4c-0.5-1.5-1.1-3-1.9-4.5c-0.7-1.2-1.7-2.3-2.2-3.6c-0.4-1.1-0.4-2.4-0.7-3.6c-0.5-1.9-0.9-3.8-1.4-5.7
	c-0.9-3.7-1.8-7.5-2.8-11.2c-1.9-7.5-3.7-15-5.6-22.4c-1.9-7.5-3.8-15-5.7-22.5c-1.9-7.5-3.8-14.9-5.8-22.4
	C365.1,460.9,364.9,460,364.7,459.1z"/>
<path class="st1" d="M587.7,586.6c-13.4,9.1-28.7,14.9-43.8,20.6c-12.8,4.8-25.5,9.6-38.3,14.4c-3.6,1.3-7.2,3-10.8,4
	c0.6-2.2,2.2-4.8,3.6-6.7c1.1-1.5,2.6-2.5,4.3-3.3c6.3-3.2,12.9-5.8,19.4-8.4c6.8-2.7,13.7-5.3,20.6-7.7c7-2.4,14-4.6,21.1-6.7
	c7.1-2,14.2-3.9,21.4-5.6C585.9,587,586.8,586.8,587.7,586.6z"/>
<path class="st1" d="M585.3,610.1c-1.5,4.3-6.4,6.1-10.8,7.3c-9.4,2.6-18.9,4.8-28.4,6.6c-9.6,1.9-19.2,3.4-28.9,4.5
	c-1.2,0.1-2.4,0.3-3.6,0.4c-0.7,0.1-2.1,0.5-2.8,0.1c-1-0.6-0.2-2.1,0.3-2.8c1.1-1.5,3-1.6,4.7-2c2.4-0.6,4.8-1.1,7.2-1.7
	c9.7-2.2,19.5-4.4,29.3-6.3c9.8-2,19.5-3.8,29.3-5.5C582.9,610.5,584.1,610.3,585.3,610.1z"/>
<path class="st1" d="M641.5,497.7c3.2-16.1,2.5-32.7,2.9-49.2c0.4-16.4,2-33.3,9.3-48.1c-0.8,22.4-0.8,44.8-0.1,67.1
	c1-6.2,2.7-12.3,5-18.1c2.3,1.8,2.3,5.2,2.2,8.1c-1.1,22.7-3.7,45.4-7.7,67.8c-6.2-10.8-9.7-23.2-10-35.6"/>
<path class="st1" d="M597.9,354c2.8-4.4,5.3-9.2,5.7-14.4c-1.2-0.4-2.3,0.7-3,1.7c-6.2,8.6-11.1,18.2-19.1,25.1
	c-2.7,2.3-5.7,4.3-8.4,6.7c-3.6,3.1-6.5,6.9-10.2,10c-0.9,0.8-1.8,1.5-2.8,2.1c-0.2,0.2-0.9,0.4-0.8,0.7c0.1,0.2,0.9,0.1,1.1,0.1
	c1-0.3,2.1-0.9,3.1-1.4c1-0.5,2.1-1,3.1-1.6c4.1-2.2,7.9-4.7,11.6-7.5c3.7-2.8,7.1-5.9,10.2-9.3c3.2-3.4,6-7,8.6-10.8
	C597.3,354.9,597.6,354.4,597.9,354z"/>
<path class="st1" d="M433.3,390.9c-18.9-10.1-38-21.3-50.7-38.6c9.1-0.1,16.1,7.9,23,13.2c13,10.6,27.6,20.4,41.1,30.3
	C449.7,399.2,434.4,391.2,433.3,390.9z"/>
<path class="st1" d="M291.8,741.7c-5.5,1.6-11,3.3-16.3,5.6c-5.6,2.5-10.9,5.6-16.3,8.5c-12.6,6.7-26.7,12.5-34.5,24.4
	c-0.8,1.2-1.5,2.6-1.3,4c0.2,1.8,1.9,3.1,3.6,3.4s3.5,0,5.2-0.5c8.8-2.5,16.3-8.1,24-13c4.3-2.8,8.7-5.4,13.2-7.8
	c4.5-2.5,9.1-4.8,13.7-6.9c4.7-2.2,9.4-4.2,14.1-6.1c4.8-1.9,9.6-3.7,14.4-5.4c4.9-1.7,9.8-3.4,14.7-4.9c4.9-1.6,9.9-3,14.8-4.4
	c5-1.4,10-2.8,15-4.1c5-1.3,10-2.6,15-3.9c5-1.3,10.1-2.6,15.1-3.9c5-1.3,10-2.6,15.1-3.9c0.8-0.2,2.2-0.3,2.8-0.8
	c-0.8-0.5-2.3-0.2-3.2-0.1c-1.9,0.2-3.8,0.3-5.7,0.5c-3.8,0.3-7.6,0.7-11.4,1.1c-7.6,0.8-15.1,1.8-22.6,3c-7.5,1.2-15,2.5-22.5,3.9
	c-7.5,1.5-14.9,3.1-22.4,4.9c-7.4,1.8-14.8,3.7-22.1,5.8C293.5,741.2,292.7,741.5,291.8,741.7z"/>
<path class="st1" d="M247.2,714c41.2-20.5,86.9-31.8,132.9-32.7c-18.1-4.2-36.9,1.1-55,4.9c-19.2,4.1-38.7,6.7-57.4,12.6
	c-6.2,2-12.3,4.3-18.2,7.1c-5.8,2.8-11.5,6.1-16.7,10c-5.1,3.8-9.9,8.2-13.9,13.2c-0.5,0.6-2.3,2.6-1.6,3.4c0.6,0.6,2,0,2.6-0.2
	c1.3-0.6,2.2-1.9,3.3-2.9c1.2-1.2,2.5-2.3,3.9-3.3c5.5-4.4,11.6-7.8,17.8-11C245.7,714.7,246.4,714.4,247.2,714z"/>
<path class="st1" d="M220.1,738.7c20.3-4.2,39.2-14.1,59.5-18.2c11.4-2.3,23.1-2.8,34.6-4.7c17.2-2.8,34.9-8.8,51.5-3.5
	c-5.3,0.9-10.5,1.9-15.8,2.8c-25,4.4-50.1,8.9-74.2,16.8c-15.8,5.2-31.1,11.8-45.6,19.8c-1.2,0.7-2.6,1.3-3.8,0.4
	c-0.8-0.6-1.5-1.6-1.9-2.6c-0.3-0.8-0.3-1.6-0.4-2.4c-0.2-1.3-0.7-2.6-1.3-3.8C222,741.6,221.1,740.1,220.1,738.7z"/>
<path class="st1" d="M764.8,685.1c-16-9.1-32.8-17.2-47.3-28.5c1.7,6.3,6.2,11.5,11.5,15.3c5.3,3.8,11.3,6.4,17.1,9.3
	c14.4,7.2,28,16.1,40.2,26.5c-0.8-3.9-1.9-8.3-5.1-10.9c-1.6-1.3-3.5-2.1-4.9-3.6c-1.3-1.3-2.6-2.5-4.1-3.6
	C769.9,688,767.4,686.5,764.8,685.1z"/>
<path class="st1" d="M706.6,673.7c8.2,3.4,15.5,8.8,23.5,12.6c5,2.3,10.2,3.9,15.1,6.4c15,7.7,25.9,23,42.2,26.9
	c-1.5-4.2-4.8-7.5-8.4-10.1c-3.7-2.5-7.7-4.4-11.6-6.7c-9.6-5.8-17.6-14.3-28.1-18c-3.6-1.3-7.5-2-10.9-3.8c-2-1-3.7-2.4-5.6-3.7
	c-4.2-2.7-8.8-4.3-13.5-5.8c-4.8-1.5-9.6-2.7-14.2-4.5c-1.3-0.5-2.6-1-3.8-1.6c-0.6-0.3-2.5-1.7-3.2-1.3c1.4,2.1,4.2,3.6,6.3,4.7
	c2.5,1.3,5.2,2.2,7.8,3.2C703.6,672.5,705.1,673.1,706.6,673.7z"/>
<path class="st1" d="M696.1,708.6c4.5,2.1,9,4.3,13.7,5.7c4.3,1.3,8.8,1.8,13.2,2.6c6.4,1.2,12.7,3,18.7,5.4
	c6.4,2.5,12.5,5.7,19.2,7.4c0.8-2.8-0.6-5.9-2.9-7.8c-2.2-1.9-5.1-2.9-7.9-3.7c-11.9-3.6-24.2-6-35.8-10.5
	c-4.5-1.7-8.9-3.8-13.6-4.6c-4.4-0.7-8.9-0.4-13.2-1.2c-4.1-0.7-8-2.4-12.1-3.3c-1.3-0.3-2.7-0.6-4-0.7c-1-0.1-2.4-0.6-3.3,0.1
	c-0.6,0.5-0.9,1.1-0.1,1.4c1.2,0.5,2.7,0.5,4,0.8c5.3,1.2,10.5,2.9,15.6,4.9C690.5,706.1,693.3,707.3,696.1,708.6z"/>
<path class="st1" d="M745.1,712.5c3.4,1.1,6.7,2.2,9.9,3.6c5.6,2.6,10.7,6.4,15.6,10.1c3.7,2.8,7.5,5.7,10,9.5
	c4.1,6.1,4.7,13.8,7.5,20.6c0.6,1.4,1.4,2.9,2.8,3.4c2.5,0.9,4.8-1.9,5.5-4.5c1.2-4.5,0.3-9.5-1.7-13.7s-5-8-7.9-11.7
	c-3.3-4.2-6.7-8.4-11.1-11.6c-5.9-4.3-13.2-6.4-20.3-8.3c-11.4-3.1-22.7-6.2-34.1-9.3c-5.6-1.5-11.2-3-16.8-4.3
	c-6.1-1.3-12.3-2.3-18.6-2.9c-1.6-0.2-3.2-0.3-4.8-0.4c-0.3,0-3.1-0.1-2.1,1c0.3,0.3,1.6,0.4,2.1,0.5c0.8,0.2,1.5,0.4,2.3,0.6
	c1.5,0.4,3.1,0.7,4.6,1.1c6.1,1.5,12.2,3.1,18.3,4.7c6.1,1.6,12.2,3.4,18.3,5.1c6.1,1.8,12.1,3.6,18.1,5.5
	C743.6,712,744.4,712.3,745.1,712.5z"/>
<path class="st9" d="M358.1,363.8c0,0,21.4,52.6,21.2,131.9s5.2,267.6,5.2,267.6s98.6,9.3,160.6,8.2c62-1.1,131.4-14.5,131.4-14.5
	s-11.8-78.4-11.8-122.9c0-44.5,2.9-63.7-1.6-89.1c-4.5-25.4-51.3-202.9-51.3-202.9l-6.7-1.5c0,0-11.5,88.7-22.1,144.2
	s-39.4,164.3-39.4,164.3s-61.4-97.9-82.4-133.8c-21.1-35.9-96.6-154.7-96.6-154.7L358.1,363.8z"/>
<g>
	<path class="st0" d="M789.6,748.1c11.3,8.2,12.4,24.8,2.1,34.3c-91.7,84.7-184.9,10.1-294-21c-52.2-18.6-108.2-9.1-161.8-17.5
		c-12-5.8-67.9,7.6-68.1-3.9c-0.7-5.7,5.8-7.5,10.4-7.9c16.5-2.2,33-4.9,49.3-8.1c2.2-2.6-1-2.8-3-2.9c-25.6-1-51.3-2.1-76.9-3.1
		c-6.2,0.9-16.5-4.6-10.8-11.2c-4.4,0.8-4.4-6-1.8-8.3c7.2-7.7,20.1-5,29.7-6.8c-36.5-10.6,61.9-20.6,67.6-19.5
		c17.7-0.4,35.9,2.7,53.8,2c-7.6-2.8-14.5-9.6-17.3-17.3c-0.8-2.2,0.7-4.7,3-5c3.7-0.6,8,1,11.7,2.4c15.6,6.1,32.5,8.1,49.1,10
		c28.7,3.9,56.7,10.8,85.7,12.7c55.4,6.9,112.4,7.4,166.1,23.2c36.1,12.8,73.6,25.3,104.9,47.7C789.4,748,789.5,748.1,789.6,748.1z"
		/>
	<path class="st10" d="M244.8,715.5c-3.1,0.3-6.5,0.4-9.1-1.3c-1-0.7-1.9-1.6-2.3-2.7c-0.4-1.1-0.2-2.5,0.7-3.4
		c0.5-0.5,1.1-0.7,1.7-1c4.4-1.8,9.3-2.6,13.9-1.7c1.9,0.4,4.5,1,5.1,3.1c0.5,1.7-0.6,3.6-1.9,4.7
		C250.8,715,247.6,715.2,244.8,715.5z"/>
	<path class="st10" d="M239.8,702.8c-3,0.4-6.3,0.7-9-0.9c-1-0.6-1.9-1.5-2.4-2.6c-0.4-1.1-0.3-2.5,0.5-3.3c0.5-0.5,1.1-0.8,1.7-1.1
		c4.2-1.9,9-3,13.6-2.2c1.9,0.3,4.4,0.7,5.1,2.8c0.6,1.7-0.4,3.5-1.6,4.7C245.7,702.1,242.5,702.5,239.8,702.8z"/>
	<path class="st10" d="M267.1,691.9c-2.9,0.6-6.1,1.1-8.8-0.3c-1-0.5-2-1.3-2.5-2.4c-0.5-1.1-0.4-2.4,0.3-3.3c0.4-0.5,1-0.8,1.5-1.1
		c4-2.2,8.6-3.5,13.1-3.1c1.8,0.2,4.4,0.4,5.2,2.4c0.7,1.6-0.2,3.5-1.3,4.7C272.8,690.8,269.7,691.4,267.1,691.9z"/>
	<path class="st10" d="M275.3,740.2c-2.1,0.4-4.4,0.8-6.4-0.2c-0.8-0.4-1.4-1-1.8-1.7c-0.3-0.8-0.3-1.7,0.2-2.4
		c0.3-0.4,0.7-0.6,1.1-0.8c2.9-1.6,6.2-2.5,9.5-2.2c1.3,0.1,3.2,0.3,3.8,1.7c0.5,1.2-0.1,2.5-0.9,3.4
		C279.4,739.4,277.2,739.8,275.3,740.2z"/>
	<path class="st10" d="M377.4,658.3c-2.4-0.8-5-1.8-7.1-3.8c-0.8-0.8-1.5-1.7-1.7-2.7c-0.3-0.9-0.1-1.8,0.6-2.2
		c0.4-0.2,0.9-0.2,1.4-0.2c3.4,0.1,7.3,1.1,10.9,3.2c1.5,0.9,3.5,2.1,3.9,3.8c0.4,1.4-0.5,2.3-1.5,2.7
		C382.1,659.9,379.6,659,377.4,658.3z"/>
	<path class="st1" d="M323,703.3c-25.8,2.1-51.7-0.6-77.6,0.9c-1.3,0.1-2.8,0.1-3.8-0.7c15.3-4.2,31.6-2.2,47.5-2.9
		c3.6-0.2,7.2-0.5,10.8-0.8c3.6-0.3,7.3-0.7,10.9-0.9c3.6-0.3,7.3-0.4,10.9-0.4c1.8,0,3.6,0.1,5.4,0.2c0.9,0.1,1.8,0.1,2.7,0.2
		c0.5,0.1,1.3,0,1.3,0.6c0,1.1-1.8,2.1-2.6,2.5c-1.4,0.7-2.9,0.9-4.4,1.1C323.7,703.2,323.4,703.3,323,703.3z"/>
	<path class="st1" d="M315,688.7c-18,0.5-38.3,4.7-57.1,3.8c10.1-4.1,53.2-8.9,74.6-8.4C335.1,688.2,317.8,688.7,315,688.7z"/>
	<path class="st1" d="M414.4,671.4c0.5,0.8,0.1,1.9-0.7,2.4s-1.7,0.7-2.7,0.8c-3.3,0.3-6.7,0.5-10.1,0.6c-3.4,0.1-6.8,0-10.1-0.2
		c-0.9-0.1-1.9-0.1-2.8-0.2c-0.5,0-2.4,0-2.6-0.4c0.8-0.3,1.9-0.3,2.8-0.4c0.9-0.1,1.9-0.3,2.8-0.4c1.9-0.2,3.8-0.5,5.7-0.7
		c3.8-0.4,7.6-0.8,11.3-1.1c1.1-0.1,2.1-0.2,3.2-0.2c0.5,0,1.1-0.1,1.6-0.1C413.1,671.5,414.3,671.3,414.4,671.4z"/>
</g>
<path class="st1" d="M385.6,742.5c36.7-3.9,59.2,58.2,96.1,57.4c39.6-0.8,112.1,2.6,115,3.6c4.4,1.5,91.5,17.9,96.1,18.1
	c38.7,1.8,77.9-5.9,110.3-51.1c-16.8-26-102.5-60.5-144.8-63.6c-87.7-6.6-110.2-0.1-198.2,2.7c-10,0.3-76.3,4.3-86.2,5.8
	c-23.4,3.6-41.9,12.9-50.5,17.5c-7,3.7-16.2,6.9-20.7,13.9c-1.1,1.7-2,4.2,0.8,4.3c4.9,0.2,10.3-1.1,15.1-1.6
	c10.6-1.1,21.2-2.3,31.8-3.4C362.1,744.9,373.9,743.8,385.6,742.5z"/>
<g>
	<path class="st0" d="M249.9,766.6c-12.1,7-14.9,23.4-5.6,33.9c82.6,93.7,182.9,29,294.6,9.2c16.4-4,32.8-5.4,49.4-5.5
		c37.7-0.1,75.7,6.6,113.4,4.6c12.5-4.6,66.7,14.5,68.1,3.1c1.3-5.6-5-8.1-9.5-8.9c-16.2-3.8-32.3-8.2-48.2-13.1
		c-2-2.8,1.3-2.6,3.3-2.5c25.6,1.6,51.2,3.2,76.9,4.7c6.1,1.6,16.9-2.9,11.9-10.1c4.3,1.3,4.9-5.5,2.6-8.1c-6.4-8.4-19.5-7-28.9-9.8
		c37.4-6.8-59.5-26.8-65.3-26.3c-17.6-2.2-36-1-53.8-3.5c7.8-2.1,15.4-8,19-15.4c1-2.1-0.2-4.7-2.5-5.3c-3.6-1-8.1,0.2-11.9,1.2
		c-16.2,4.5-33.1,4.7-49.9,5c-28.9,1-57.5,5-86.5,3.9c-55.8,1.2-112.5-4.1-167.6,6.1c-37.2,9.1-75.8,17.7-109.2,36.7
		C250.1,766.5,250,766.5,249.9,766.6z"/>
	<path class="st10" d="M787.2,786.6c-1.2-1.2-2.1-3.1-1.4-4.8c0.8-2,3.5-2.3,5.4-2.5c4.7-0.5,9.5,0.9,13.7,3.1
		c0.6,0.3,1.2,0.7,1.6,1.2c0.8,0.9,0.8,2.3,0.3,3.4c-0.5,1.1-1.5,2-2.6,2.5c-2.8,1.4-6.1,1-9.2,0.4
		C792.4,789.2,789.2,788.7,787.2,786.6z"/>
	<path class="st10" d="M793.8,774.2c-1.1-1.3-1.9-3.2-1.2-4.8c0.9-2,3.5-2.1,5.4-2.3c4.7-0.3,9.3,1.3,13.3,3.6
		c0.6,0.3,1.1,0.7,1.5,1.2c0.7,1,0.7,2.3,0.2,3.4c-0.5,1.1-1.5,1.9-2.6,2.3c-2.8,1.3-6.1,0.7-9,0C798.8,777,795.7,776.3,793.8,774.2
		z"/>
	<path class="st10" d="M768.2,760.1c-1-1.3-1.6-3.2-0.8-4.8c1-1.9,3.6-1.9,5.4-1.8c4.6,0.1,9,1.9,12.7,4.4c0.5,0.4,1.1,0.8,1.4,1.3
		c0.6,1,0.5,2.3,0,3.3c-0.6,1-1.6,1.7-2.7,2.1c-2.8,1-6,0.3-8.8-0.6C772.8,763.2,769.8,762.3,768.2,760.1z"/>
	<path class="st10" d="M757.1,808.4c-0.7-0.9-1.2-2.3-0.6-3.4c0.7-1.3,2.6-1.3,3.9-1.3c3.3,0,6.5,1.3,9.2,3.2c0.4,0.3,0.8,0.5,1,0.9
		c0.5,0.7,0.4,1.7,0,2.4c-0.4,0.7-1.2,1.2-2,1.5c-2,0.7-4.3,0.2-6.4-0.5C760.5,810.7,758.3,810,757.1,808.4z"/>
	<path class="st10" d="M662.6,719.6c-1-0.5-1.8-1.5-1.3-2.8c0.6-1.6,2.8-2.6,4.3-3.3c3.8-1.8,7.7-2.3,11.1-2.1c0.5,0,1,0.1,1.3,0.3
		c0.7,0.4,0.7,1.3,0.4,2.2c-0.4,0.9-1.1,1.8-2,2.5c-2.2,1.8-4.9,2.5-7.4,3C666.9,719.8,664.3,720.4,662.6,719.6z"/>
	<path class="st1" d="M718.6,769.7c25.4,4.8,51.5,4.7,77.1,8.8c1.3,0.2,2.7,0.4,3.9-0.3c-14.8-5.8-31.2-5.4-46.9-7.8
		c-3.6-0.5-7.1-1.2-10.7-1.9c-3.6-0.7-7.2-1.4-10.8-2.1c-3.6-0.6-7.2-1.2-10.8-1.5c-1.8-0.2-3.6-0.3-5.4-0.3c-0.9,0-1.8,0-2.7,0
		c-0.5,0-1.3-0.2-1.3,0.5c-0.1,1.1,1.5,2.3,2.3,2.7c1.3,0.8,2.8,1.2,4.2,1.5C717.9,769.5,718.3,769.6,718.6,769.7z"/>
	<path class="st1" d="M728.1,755.9c17.9,2.4,37.7,8.6,56.4,9.6c-9.7-5.1-52-14.3-73.4-16C708.1,753.4,725.3,755.6,728.1,755.9z"/>
	<path class="st1" d="M630.9,728.6c-0.6,0.7-0.3,1.9,0.4,2.5c0.7,0.6,1.7,0.8,2.6,1c3.3,0.7,6.6,1.2,10,1.6
		c3.4,0.4,6.7,0.7,10.1,0.8c0.9,0,1.9,0.1,2.8,0.1c0.5,0,2.3,0.3,2.7-0.1c-0.8-0.4-1.8-0.5-2.7-0.7c-0.9-0.2-1.8-0.4-2.8-0.7
		c-1.9-0.4-3.7-0.9-5.6-1.3c-3.7-0.8-7.4-1.5-11.2-2.2c-1.1-0.2-2.1-0.4-3.2-0.6c-0.5-0.1-1.1-0.2-1.6-0.3
		C632.3,728.8,631,728.5,630.9,728.6z"/>
</g>
<path class="st6" d="M534.2,724c4.1,3.4,6.6,8.3,8.6,13.2c5.2,13.4,6.9,27.8,7.4,42.2c0.2,7,0,14.5-4.1,20.2c-2,2.9-4.9,5-7.7,7.1
	c-3.7,2.8-7.6,5.7-12,7.2c7,2.4,14.7,2.7,21.8,0.8c3.9-1.1,7.8-2.9,10.5-6c1.8-2.1,2.9-4.7,3.8-7.3c3.2-9.4,3.8-19.5,4.4-29.4
	c0.4-6.7,0.8-13.5-0.9-20.1c-1.1-4.6-3.3-8.9-5.4-13.2c-4.4-8.9-9.4-18.4-18.4-22.4c-3.5-1.5-7.3-2.1-11.1-2.3
	c-4.1-0.2-8.4,0-12.3,1.6c-1.8,0.7-3.6,1.8-5,3.1c-0.9,0.8-3.5,3.3-3.1,4.7c1.4-0.5,2.7-1.7,4.2-2.2c1.5-0.6,3.2-1,4.8-1.2
	c3.2-0.4,6.6,0,9.6,1.2C531.1,721.8,532.8,722.8,534.2,724z"/>
<path class="st6" d="M530,723.3c2.1-4.4,7.2-7,12.1-7c4.9,0,9.6,2.2,13.5,5.1c7,5.2,12.2,12.8,14.4,21.3c1.5,5.8,1.6,11.8,1.8,17.8
	c0.1,4.3,0.2,8.6,0.3,12.8c0.2,8,0.3,16.2-2.3,23.7c-2.6,7.5-8.6,14.5-16.4,15.9c8.2,0.1,16.3-4.6,20.2-11.8
	c2.6-4.8,3.4-10.3,4.1-15.7c0.9-6.4,1.8-12.9,1.5-19.4c-0.2-5.1-1.1-10.1-2.3-15c-2.3-10-5.7-20.2-13-27.4
	c-7.3-7.2-19.3-10.5-28-5.1"/>
<path class="st6" d="M518.6,728.6c9,10.6,11.8,25.2,12.5,39.1c0.5,10,0.2,20-1,29.9c-0.8,6.7-2.3,13.8-7.2,18.4
	c8.3-1.8,13.7-10.3,15-18.7c1.2-8.4-0.8-16.9-2.2-25.3c-1.3-7.6-2.1-15.2-2.5-22.8c-0.4-7.6-0.6-16-5.9-21.5
	c-3.8-4-9.5-5.3-14.8-5.3c-1,0-2.8-0.3-3.7,0.4C512.8,723.5,516,725.5,518.6,728.6z"/>
</svg>
