<?xml version="1.0" encoding="utf-8"?>
<!-- Generator: Adobe Illustrator 25.2.0, SVG Export Plug-In . SVG Version: 6.00 Build 0)  -->
<svg version="1.1" id="Layer_1" xmlns="http://www.w3.org/2000/svg" xmlns:xlink="http://www.w3.org/1999/xlink" x="0px" y="0px"
	 viewBox="0 0 998.2 973.2" style="enable-background:new 0 0 998.2 973.2;" xml:space="preserve">
<style type="text/css">
	.st0{fill:#8ABBFD;}
	.st1{fill:#0F396C;}
	.st2{fill:#D03475;}
	.st3{fill:#701A59;}
	.st4{fill:#FFFFFF;}
	.st5{fill:#89BDF7;}
	.st6{fill:#FF9D68;}
	.st7{fill:#295CA5;}
	.st8{fill:#285BAA;}
	.st9{fill:#2B1E3C;}
	.st10{fill:#596187;}
	.st11{fill:#59B1D3;}
</style>
<g id="Layer_2_1_">
	<path class="st0" d="M379.4,354.9c0,0,15.5-5.2,28.3-12.2c5.7-3.1,12-6.5,17.2-9.3c7.2-3.9,13-9.8,16.8-17l12.7-24l72.5-2.7
		c4.9-2.7-0.4,19.1,11.7,30c10,9,26.8,12.6,35.7,15.3c19.6,6.1,30.8,5.5,30.8,5.5l-31.4,63.8c0,0-125.8,16.7-124.1,15.4
		S379.4,354.9,379.4,354.9z"/>
	<g>
		<path class="st1" d="M525.6,334.8c-16.9,7-34.4-1.6-45-11.7c-5.2-4.8-13.1-5.8,0.9,8.6c14,14.4,47.2,19.9,59.7-6.3
			C543.8,319.8,542.5,327.8,525.6,334.8z"/>
		<path class="st2" d="M544.1,308.8c1.8,3.8,5.2,6.5,8.8,8.6c7.9,4.4,17.4,5.5,26,3.2c8.6-2.3,16.3-8.1,21.1-15.7
			c3.6,1.5,6.1,3.4,9.9,2.8c2.2-0.3,4.7-1.3,5.5-3.4c-4.6-6.3-8.3-13.1-10.6-20.5c4.5,0.3,9.2-0.2,13.1-2.4c4-2.2,7.2-6.1,7.5-10.6
			c-3-4.1-5.6-8.6-8.6-12.7c-2.8-3.8-5.7-7.7-8.1-11.8c-2.6-4.6-4.6-9.5-6.6-14.5c-7.1-17.5-14.2-35.1-21.2-52.5
			c-7.9-19.5-8.9-42.8-22.2-59.1c-12.5-15.4-34.8-20.4-54.1-15.5c-15.6,3.9-30,14.5-35.9,29.3c-3.5,8.8-4,18.6-3.2,28.2
			c2.4,33.8,17.5,65.3,28.9,97.2c4.6,12.7,8.8,26,18.3,35.6c3.1,3.2,6.8,5.9,11,7.3C530.6,304.6,541,302.2,544.1,308.8z"/>
		<path class="st3" d="M573.6,282.1c4.2,10.3,10.2,20,18.9,27c-10-6.2-18.1-15.6-22.7-26.6c1.2,7.9,3.9,15.6,8,22.5
			c-3.9-2.4-7.6-5.2-11-8.3c-0.3,1.7,0.1,3.6,1.2,4.9c-0.8-0.6-1.4-1.1-2.2-1.8c0,1.3,0.1,2.5,0.1,3.8c0.1-1.2-1.7-1.6-2.5-0.9
			s-1,2-1.1,3.2c-0.1,2.7-0.1,5.9,2,7.6c-5.4-6.9-10.1-14.1-14.1-21.7c-0.2,1,1.1,1.7,2,1.5c0.9-0.2,1.6-1.2,2.1-1.9
			c2.7-5,2.3-10.8,1.8-16.3c-0.6-6-1.1-11.7,0.1-17.8c0.5-2.4,1-4.8,2.7-6.7c1-1.1,2.8-2.6,4.5-2.1c2.1,0.5,2,4,2.3,5.6
			c0.7,3,1.3,5.9,2,8.8c1.4,5.8,3.1,11.6,5.1,17.3C573,280.7,573.2,281.4,573.6,282.1z"/>
		<path class="st0" d="M566,195.8c0,0,3.9,56.4-9.4,98c-12.5,38.9-28.1,43.1-37.2,44.2c-9.1,1.1-45.7-1.6-72.1-55
			c-30.4-61.7-5.2-99.4-5.2-99.4l72.6-20.3L566,195.8z"/>
		<path class="st4" d="M468,239.8c0,0,8.3,4.2,18.2,3.4c9.9-0.7,15.3-7.6,15.3-7.6s-5.2-8.1-16.7-6.5
			C473.3,230.8,468,239.8,468,239.8z"/>
		
			<ellipse transform="matrix(7.094570e-02 -0.9975 0.9975 7.094570e-02 215.1908 703.5903)" class="st5" cx="485.3" cy="236.3" rx="6.8" ry="6.8"/>
		<path class="st1" d="M468,239.8c3.1-5.6,4.2-11.6,14.4-13.3c8.3-1.4,14.8,3.1,19.1,9.2c0,0-9.6-7.6-16.2-6.8
			C476.6,230,471.2,237.4,468,239.8z"/>
		<path class="st4" d="M531.6,236.2c0,0,7.5,5,17,5.3c9.6,0.3,15.5-5.8,15.5-5.8s-3.6-8.4-14.9-8C538.2,228,531.6,236.2,531.6,236.2
			z"/>
		
			<ellipse transform="matrix(0.1811 -0.9835 0.9835 0.1811 218.3321 732.0984)" class="st5" cx="548.8" cy="234.9" rx="6.8" ry="6.6"/>
		<path class="st3" d="M494.3,299c0,0,12.2,12.6,27.4,12c15.2-0.6,20.8-14.5,20.8-14.5s-10.2,0.2-20.1,1.2
			C512,298.7,494.3,299,494.3,299z"/>
		<path class="st1" d="M531.6,236.2c3.5-5.2,6.6-11.2,16.5-11.8c8.2-0.5,14.5,5.1,16.1,11.3c0,0-4.2-8-14.8-8.4
			C540.8,227.4,534.9,234.2,531.6,236.2z"/>
		<path class="st3" d="M494.3,299c0,0,15.2-14.4,21.4-14.6c3.4-0.1,4,2.9,6.4,2.8c2-0.1,2.2-3.5,6.2-3.2
			c5.7,0.4,14.2,12.5,14.2,12.5l-15.5,1.9c-1,0.3-2.8,1.5-4.1,1.6c-2.8,0.2-4.5-0.9-5.8-0.9L494.3,299z"/>
		<path class="st4" d="M520.2,298.5c0.3,0.1,0.6,0.2,0.9,0.1c0.3,0,0.6-0.2,0.8-0.3c0.6-0.3,1.2-0.7,1.8-1c-0.3-0.3-0.9-0.3-1.3-0.3
			c-1.3,0.1-2.7,0.2-4,0.2c-0.4,0-1.1-0.1-1.2,0.4c0,0.5,0.5,0.5,0.9,0.5C518.8,298.3,519.5,298.4,520.2,298.5z"/>
		<path class="st1" d="M526.7,245.1c1.4,5.8,3.2,11.8,7.3,16.4c0.4,0.4,0.8,0.9,1.4,0.7c-1.6-4.6-3.2-9-4.8-13.5
			c-0.7-1.8-1.2-3.6-1.8-5.4c-0.5-2.2-0.8-4.4-1.1-6.5c-0.3-2.5-0.6-5-0.8-7.5c-0.1-1.2-0.1-2.4-0.3-3.6c-0.1-0.4-0.3-0.9-0.8-0.9
			c-0.4,0.1-0.8,0.4-1.1,0.8c-0.4,0.5-0.6,1.1-0.5,1.7c0,0.8,0.2,1.6,0.1,2.5c-0.1,2.5,0.1,4.9,0.5,7.4c0.4,2.4,0.9,4.9,1.4,7.2
			C526.5,244.5,526.6,244.8,526.7,245.1z"/>
		<path class="st1" d="M507.6,270.1c0.7,1.4,1.5,2.8,2.8,3.4c1.8,0.8,3.9-0.5,5.7-1.1c5.8-1.9,12.4,1.8,18.2,0
			c0.4-0.2,0.9-0.4,0.9-0.8c-2.1-0.7-4.4,0.3-6.4-0.5c-1.1-0.4-1.9-1.4-2.7-2c-1.7-1.3-3.9-2.2-6.1-1.9c-1.9,0.3-3.5,1.6-5.4,2
			c-1.7,0.4-3.6-0.2-5.1-1c-0.8-0.5-1.3-1.1-2.1-1.5c-0.5-0.2-1.2-0.4-1,0.3C506.7,268,507.2,269.1,507.6,270.1z"/>
		<path class="st3" d="M529.9,221.8c0.4-0.2,0.7-0.4,1-0.7c8.6-8.6,22.1-12.1,33.8-8.8c0.2-0.8-0.4-1.4-0.9-2
			c-3.6-3.2-8.9-3.7-13.8-3.3c-2.1,0.2-4.2,0.6-6.2,1.1c-2.1,0.5-4,1.2-6,2.1c-1.9,0.8-3.8,1.9-5.4,3.2c-0.9,0.6-1.6,1.3-2.4,2
			c-0.7,0.6-1.4,1.4-1.9,2.2c-0.4,0.7-0.4,1.4-0.4,2.1c0,1,0.4,2.1,1.4,2.3C529.5,221.9,529.7,221.9,529.9,221.8z"/>
		<path class="st3" d="M466.1,217.2c-1.7,1.3-3.1,2.8-4.2,4.6c-0.1,0.2-0.2,0.4-0.3,0.7c0.1,0.4,0.5,0.6,1,0.6s0.7-0.3,1.2-0.6
			c1.5-1.1,3-2.3,4.6-3.1c5.5-3.3,11.9-4.6,18.2-4.2c6.3,0.3,12.5,2.3,18,5.5c1.1,0.6,2.4,1.2,3.4,0.6c0.6-0.4,0.9-1.3,0.8-2.1
			c-0.1-0.8-0.6-1.5-1-2.1c-3.3-4.2-8.7-6.1-14-7.1c-4.7-0.8-9.3-1.1-14-0.3c-4.7,0.8-9.1,2.6-12.8,5.5c-1.9,1.4-3.6,3.3-4.5,5.5"/>
		<path class="st6" d="M470.8,207.9c-1.9,0.9-2.8,3.1-3.3,5c-0.2,0.8-0.3,1.6-0.4,2.3c0,2.4,1.7,4.7,4.1,5.4c2.3,0.7,4.9-0.2,6.5-2
			c0.6-0.7,0.9-1.4,0.8-2.2s-1-1.5-1.7-1.2c-0.6,0.2-0.9,0.9-1.3,1.4c-1,1-2.9,0.7-3.8-0.4c-0.9-1.1-1.2-2.6-1.1-4
			c0-0.6,0.1-1.2,0.5-1.6c0.4-0.5,1.2-0.6,1.8-0.6c1.2,0,2.3,0.3,3.4,0.7c0.6,0.2,1.1,0.2,1.2-0.5c0.4-1.9-1.8-2.6-3.3-2.8
			C473,207.3,471.9,207.5,470.8,207.9z"/>
		<path class="st3" d="M400.3,274.7c1.5,6.9,3.2,13.8,7.3,19.6c0.4-5.2,0.4-10.5-0.1-15.8c0.7,6.9,3.2,13.5,7.3,19.1
			c1.2-4.5,1.6-9.3,0.9-13.9c0.2,2.9,1,5.8,2.5,8.3c0.3-1.6,0.6-3.2,0.9-4.7c2,8.9,6.9,17.2,13.8,23.1c-0.3-4.8-3.3-8.9-5.4-13.3
			c-2.1-4.3-3.2-9-3.3-13.7c0-1.2,0-2.5-0.5-3.7c-0.4-0.8-1.1-1.6-1.7-2.2c-4.8-5.1-9.7-10.2-15-14.9c-2.6-2.3-5.5-4.5-8.4-6.4
			c-0.6-0.4-1.4-1.2-2.1-1.3c-1-0.2-0.6,0.4-0.5,1.2c0.4,1.9,0.9,3.9,1.3,5.7C398.3,266,399.2,270.4,400.3,274.7z"/>
		<path class="st2" d="M355.7,276.2c-1.5,4.1,1.1,8.8,4.9,10.8c3.8,2.1,8.4,2,12.7,1.4c-0.7,4,1.5,8.1,4.6,10.6
			c3.2,2.5,7.2,3.7,11.1,4.8c2.1,0.6,5,0.7,5.6-1.3c2.8,6.6,8.7,11.2,14.6,15.3c2.7,1.9,5.5,3.8,8.5,5.2c3.7,1.7,7.7,2.6,11.8,3.5
			c8.2,1.7,16.6,2.7,25,1.8c8.3-0.8,23.1-4.4,29.6-9.8c-1.2-8-11.9-14.5-15.7-21.8c-12.6-24.9-18.6-55.9-12.7-83.2
			c25.1-13,53.1-16.4,81.2-14.1c10.1,0.8,20.1,2.6,30.1,2.9c-2.2-13.5-1.9-26.6-3.7-40.2c-1.8-13.6-6.1-27.5-15.6-37.2
			c-9.3-9.5-22.6-13.9-35.3-18.1c-5.7-1.9-11.8-3.7-17.5-1.9c-18.8-6.6-41.6-3.1-58.6,7.4c-17,10.5-29.7,26.9-38.6,44.9
			c-3.9,7.9-7.2,16.2-9.6,24.6c-2.8,9.7-4.7,19.7-7.2,29.4C375.5,233.3,363.8,254.9,355.7,276.2z"/>
		<path class="st3" d="M404.5,267.1c0.4,10.7,1.8,21.2,4,31.6c-0.4-12.5-0.7-24.9,0.2-37.4c0.9,13.2,3.2,26.4,6.8,39.1
			c-0.6-11.1-1.1-22.2-1.7-33.4c0.6,7.9,2.3,15.7,5.2,23.1c0.1-5.9,0.1-11.9,0.2-17.8c0.6,4,1.7,7.8,3.3,11.4
			c0.4-2.8,0.6-5.6,0.3-8.4c-0.8,4.1,0.4,8.5,2,12.3c2.8,6.9,6.9,13.2,10.9,19.5c-1.9-6.1-3.8-12.3-5.7-18.3
			c-1.8-5.5-3.4-11-4.1-16.7c0.1,0.5,0.1,1,0.2,1.5c0.3-5.2,0.5-10.9-2.7-15.1c-1.7-2.3-4.3-3.9-6.2-6c-1.6-1.6-2.7-3.6-4.1-5.5
			c-1.1-1.5-2.9-3.9-4.9-4.2c-1.2-0.2-1.4,1.6-1.7,2.5c-0.4,1.3-0.7,2.6-1,4c-0.5,2.8-0.9,5.4-1,8.2
			C404.4,260.8,404.4,264,404.5,267.1z"/>
		<path class="st0" d="M424.6,215.5c-32.4,1.6-23.9,44.1,1.1,53.1c2.3,0.8,3.6,0.5,3.4-1.9c0.3-12.5-0.7-25,0.9-37.6
			C431.2,223.9,431.4,215.2,424.6,215.5z"/>
		<path class="st1" d="M413.3,229.2c-0.6-0.5-1.3-1-2-0.8c-0.3,1.3,0.3,2.6,0.9,3.9c2.9,5.9,7.6,10.6,12,15.2c-3.3-2-6.9-4-10.8-4.2
			c-0.5,0-1,0-1.3,0.3c-1.1,0.7-0.5,2.4,0.4,3.1c1,0.9,2.3,1.3,3.5,1.7c3.6,1.3,7.2,2.5,10.8,3.8c0.8,0.3,2.3,0.5,2.5-0.7
			c0.2-0.8-0.6-2-1-2.6c-0.8-1.9-1.8-3.7-2.8-5.3c-2.1-3.5-4.6-6.8-7.3-9.8C416.7,232.2,415.1,230.7,413.3,229.2z"/>
		<path class="st0" d="M580.2,212.9c2.1-0.2,4.3,0,6.2,0.9c3.4,1.8,4.8,5.9,5.2,9.7c0.9,10.4-4.3,20.3-9.3,29.4
			c-0.1,0.2-0.2,0.5-0.5,0.6c-0.3,0.1-0.6-0.2-0.7-0.6c-3.5-5.5-5.9-11.5-7.4-17.9c-0.7-3.2-1.2-6.4-1.3-9.6c-0.1-1.6-0.1-3.2,0-4.9
			c0-1.1-0.3-2.3-0.1-3.3C573.1,214.2,577.7,213.1,580.2,212.9z"/>
		<path class="st1" d="M580.9,220.3c1,3.5-0.6,7.3-2.3,10.5c-0.7,1.5-1.6,3.2-2.3,4.7c1.1-3.1,3.9-5.5,7-6.1c-0.1,0-1,3.1-1.1,3.4
			c-0.5,1.2-1.1,2.2-1.9,3.3c-0.7,1-4.2,5.4-5.5,4.4c-1.5-1.1-2.1-4.3-1.5-5.9c0.3-1,0.8-1.8,1.1-2.7c0.5-1.3,0.8-2.5,1.4-3.8
			C577.1,225.2,578.8,222.5,580.9,220.3z"/>
		<path class="st3" d="M498.9,111c1,1.9,1.7,4,2.2,6c0.4,1.5,0.8,3.1,1.2,4.6c-0.1-0.4,0.6-1.7,0.7-2.1c0.2-0.7,0.2-1.5,0.3-2.2
			c0-1.5-0.3-3-0.7-4.5c-0.5-1.4-1.3-2.7-2.3-3.9c-0.5-0.6-2.4-2.7-3.2-2.1c-0.6,0.3-0.5,1.2-0.1,1.6
			C497.6,109.4,498.4,110,498.9,111z"/>
		<path class="st3" d="M449.5,312.7c0.6-4.1-1.1-8-2.6-11.9c-8.5-21.3-9.9-44.7-12.4-67.5c-0.5-4.6-1-9.2-3-13.5
			c-0.7-1.6-1.6-3.1-3.2-4.1c-1-0.7-2.8-1.1-3.7,0.1c-0.8,1-0.7,2.6-0.8,3.8c-0.1,1.8-0.4,3.6-0.5,5.5c-0.5,7.5-0.4,15.1,0.4,22.6
			c0.8,7.5,2.3,14.9,4.3,22.2c2.1,7.3,4.8,14.3,8.1,21.1c3.3,6.8,7.2,13.2,11.6,19.3C448.3,311.2,448.9,311.9,449.5,312.7z"/>
		<path class="st3" d="M498.3,141.7c-0.6,3.1,1.1,6,2.4,8.9c3.1,7.2,3.8,15.5,2,23.1c5.3-7.7,7.2-17.6,5.2-26.7
			c4.3,5.4,6.7,12.2,6.9,19c6.3-11.6,6.1-26.4-0.4-38c3.7,6,7.2,12.2,10.4,18.6c2.2,4.4,4.4,9.4,3.3,14.2c1.3-3.6,1.7-7.5,1.1-11.2
			c5.1,3.1,10.7,6.8,11.8,12.7c1.3-9.8-1.7-19.9-6.6-28.4c-5-8.5-11.9-15.8-19.2-22.6c7,4.6,15.4,7.1,22.2,11.9
			c6.3,4.4,11,10.5,15.7,16.7c4,5.2,8,10.5,10.5,16.6c4.1,10.3,3.2,21.7,2.2,32.8c-2.8-11.7-7.2-23-12.9-33.6
			c4.1,10.3,2.6,22.7-3.8,31.7c-0.2-4.6-1.2-9.2-3-13.5c-0.5,3.3-2.1,6.4-4.7,8.6c-0.9-1.6-1.4-3.4-1.4-5.2c-0.7,0.9-1.5,2-2.1,2.9
			c-0.7-5.7-2.5-11.1-5.1-16.3c-0.8,5.9-1.8,11.7-4.1,17c-2.3,5.3-6.2,10.3-11.5,12.8c2.1-7.5,3.3-15.5,3.4-23.3
			c-2.4,5-5.2,10.3-10,12.9c-0.2-1.8-0.3-3.6-0.4-5.6c-0.6,0.9-1.2,1.6-1.8,2.5c0.2-0.9,0.2-1.8,0.4-2.7
			c-5.9,8.8-14.6,15.7-24.7,19.1c3.5-4.7,6.7-9.7,9.5-14.9c1.4-2.6,2.8-5.7,1.6-8.4c0.2,0.3-0.6,1.8-0.9,2.1c-0.3,0.7-0.6,1.4-1,2
			c-0.7,1.3-1.5,2.7-2.4,3.9c-1.8,2.5-4,4.7-6.5,6.6c-2.5,1.8-5.1,3.4-8,4.5c-1.1,0.4-6.7,2.8-7.1,0.9c-0.6-2.6,3.2-4.8,4.7-6
			c2.6-2.2,4.9-4.6,7.1-7.2c4.4-5.2,8.1-10.9,10.9-17c2.8-6.2,4.9-12.7,5.8-19.4C498.2,143.4,498.2,142.6,498.3,141.7z"/>
		<path class="st3" d="M569.6,210.6c-0.7,15.1,0,30.6,6.3,44.3c3.2,7,7.7,13.3,12.3,19.4c-1.3-7.7-3.4-15.3-6.4-22.6
			c-2.6-6.3-5.8-12.5-6.8-19.2c-0.5-2.7-0.5-5.6-0.8-8.4c-0.6-6.4-1.9-12.7-3.1-18.9c-1,3-1.5,6.2-1.7,9.4"/>
		<path class="st3" d="M575.4,203.6c-2.5-2.2-6.4-2.6-9.3-1.2c5.3,0.8,10.4,2.8,15.4,4.7c-1.3-4.2-1.4-8.7-1.5-13.2
			c-0.2-6.3-0.3-12.8-0.6-19.1c0-1.1,0.1-5.8-2-4.8c-1,0.5-0.8,1.6-0.8,2.6c0,1.4,0,2.9-0.1,4.3c0,2.8-0.2,5.7-0.2,8.5
			c-0.1,2.8-0.2,5.7-0.3,8.5c-0.1,2.9-0.3,5.7-0.4,8.6C575.4,202.7,575.3,203.5,575.4,203.6z"/>
		<path class="st7" d="M536.6,266.1c0.5,1.9,0.1,3.9-1.1,5.5c0.2,0.4,0.7,0.3,1,0c1.1-0.8,1.6-2.2,1.7-3.5c0.1-0.7,0.1-1.5-0.2-2.1
			c-0.2-0.3-0.5-0.6-0.8-1c-0.2-0.2-0.5-0.7-0.8-0.7c-0.4,0-0.4,0.3-0.2,0.6C536.3,265.3,536.5,265.7,536.6,266.1z"/>
		<path class="st3" d="M426.1,207.7c6.4,0.7,12.9-0.4,18.6-3.3c-2.4,4.2-6.5,7.4-11.1,8.6c4.2-0.5,8.3-1.6,12-3.4
			c-1.8,2.5-4.4,4.4-7.2,5.5c0.9-0.8-0.6,1.8-0.4,0.7c4.6-1.1,8.9-3.5,12.4-6.8c-1,0.8-1.9,1.5-2.9,2.4c2.1-1.3,4.2-2.8,6.4-4.1
			c-3.8-0.6-7.2-2.7-9.6-5.7c0.2,0.3,6.1-3.8,6.7-4.2c2.1-1.5,4.3-3.2,6.2-4.9c4-3.5,7.5-7.4,10.7-11.7c3.2-4.3,5.9-8.8,8.1-13.6
			c2.3-4.8,4-9.8,5.3-15c1.2-5.1,2-10.4,2-15.7c0-0.5,0-1,0.2-1.4c-1.2,6-3.3,12-5.8,17.6c-2.5,5.7-5.5,11.3-8.8,16.5
			c-3.3,5.2-7.3,10.2-11.5,14.8c-4.2,4.6-8.9,8.8-13.8,12.7c-4.9,3.8-10.2,7.2-15.8,10C427.6,207,426.8,207.3,426.1,207.7z"/>
	</g>
	<path class="st8" d="M385.5,353.2c0,0,38.9,56.5,118.9,48.1c77.9-8.2,100.6-60.7,100.6-60.7s55.9,8.5,86.7,65.5
		s73.9,282.1,85.5,286.6c11.7,4.6,10.5,26.3,10.5,26.3s16.2,32.5,7.9,40s-70.4-19.5-241.2-12.3c-170.8,7.1-329.5,48.5-332.9,38.5
		c-3.4-10.1,5.7-33.4,5.8-35.4s-13.3-10.6-7-18.2s8.6-13.4,8.9-19.4c0.3-5.9,23.1-218.9,74.8-299.4
		C335.6,363.7,385.5,353.2,385.5,353.2z"/>
	
		<ellipse transform="matrix(5.111678e-02 -0.9987 0.9987 5.111678e-02 -74.6158 1073.0344)" class="st6" cx="527.4" cy="575.8" rx="18" ry="16.6"/>
	<circle class="st6" cx="505.4" cy="465" r="5.5"/>
	<circle class="st6" cx="516.5" cy="477.5" r="5.5"/>
	<circle class="st6" cx="524" cy="463.7" r="5.5"/>
	<g>
		<path class="st6" d="M515.6,475.2c-23-32-41-64-63-99c-10-15-20-30-32-43c1,0,2-1,2-1c25,31,44,62,64,97c4,6,7,11,11,17
			c6,8,11,16,17,24c1-1,2-3,2-4c1-3,1-7,2-10c15-43,30-83,41-127c0,0,1,0,2,0c-10,43-26,85-41,127c-1,3-1,7-2,10
			S515.6,472.2,515.6,475.2L515.6,475.2z"/>
	</g>
	<g>
		<path class="st6" d="M522.6,568.2c-18-34-33-69-44-106c-2-4-4-8-5-12c-2-9-5-17-8-26c-14-31-26-60-46-90c-1-2,2-2,2-2
			c5,7,8,15,13,22c6,11,12,22,17,33s10,22,14,34c1,2,2,3,3,5c3,13,8,24,12,36c11,36,24,70,44,103c0,0,3-1,3-2c2-23,3-46,6-69
			c6-42,15-80,21-122c2-15,3-28,5-43c0,0,1,0,2,0c0,11-2,21-4,32c-7,69-27,134-27,203C527.6,565.2,525.6,567.2,522.6,568.2
			L522.6,568.2z"/>
	</g>
	<path class="st1" d="M364.7,459.1c-2.7-10.2-5.4-20.4-8.9-30.4c-2.4-6.8-5.6-13.9-11.8-17.5c-0.8,8,0.7,16,2.1,23.9
		c5.4,28.7,11.5,57.3,17.6,85.8c-1.9-3.7-5.2-6.7-9-8.4c2.2,12.8,4.4,25.6,6.5,38.4c1.3,7.6,2.6,15.4,5.4,22.6
		c1.7,4.3,3.8,8.3,6,12.3c4.9,9.1,9.7,18.1,14.6,27.2c0.4,0.7,0.9,1.5,1.6,1.6c1.2,0.1,1.8-1.3,2.1-2.4c3.5-14.7,4.3-30,2.5-45
		c-0.4-3.2-0.9-6.3-1.9-9.4c-0.5-1.5-1.1-3-1.9-4.5c-0.7-1.2-1.7-2.3-2.2-3.6c-0.4-1.1-0.4-2.4-0.7-3.6c-0.5-1.9-0.9-3.8-1.4-5.7
		c-0.9-3.7-1.8-7.5-2.8-11.2c-1.9-7.5-3.7-15-5.6-22.4c-1.9-7.5-3.8-15-5.7-22.5c-1.9-7.5-3.8-14.9-5.8-22.4
		C365.1,460.9,364.9,460,364.7,459.1z"/>
	<path class="st1" d="M587.7,586.6c-13.4,9.1-28.7,14.9-43.8,20.6c-12.8,4.8-25.5,9.6-38.3,14.4c-3.6,1.3-7.2,3-10.8,4
		c0.6-2.2,2.2-4.8,3.6-6.7c1.1-1.5,2.6-2.5,4.3-3.3c6.3-3.2,12.9-5.8,19.4-8.4c6.8-2.7,13.7-5.3,20.6-7.7c7-2.4,14-4.6,21.1-6.7
		c7.1-2,14.2-3.9,21.4-5.6C585.9,587,586.8,586.8,587.7,586.6z"/>
	<path class="st1" d="M585.3,610.1c-1.5,4.3-6.4,6.1-10.8,7.3c-9.4,2.6-18.9,4.8-28.4,6.6c-9.6,1.9-19.2,3.4-28.9,4.5
		c-1.2,0.1-2.4,0.3-3.6,0.4c-0.7,0.1-2.1,0.5-2.8,0.1c-1-0.6-0.2-2.1,0.3-2.8c1.1-1.5,3-1.6,4.7-2c2.4-0.6,4.8-1.1,7.2-1.7
		c9.7-2.2,19.5-4.4,29.3-6.3c9.8-2,19.5-3.8,29.3-5.5C582.9,610.5,584.1,610.3,585.3,610.1z"/>
	<path class="st1" d="M641.5,497.7c3.2-16.1,2.5-32.7,2.9-49.2c0.4-16.4,2-33.3,9.3-48.1c-0.8,22.4-0.8,44.8-0.1,67.1
		c1-6.2,2.7-12.3,5-18.1c2.3,1.8,2.3,5.2,2.2,8.1c-1.1,22.7-3.7,45.4-7.7,67.8c-6.2-10.8-9.7-23.2-10-35.6"/>
	<path class="st1" d="M597.9,354c2.8-4.4,5.3-9.2,5.7-14.4c-1.2-0.4-2.3,0.7-3,1.7c-6.2,8.6-11.1,18.2-19.1,25.1
		c-2.7,2.3-5.7,4.3-8.4,6.7c-3.6,3.1-6.5,6.9-10.2,10c-0.9,0.8-1.8,1.5-2.8,2.1c-0.2,0.2-0.9,0.4-0.8,0.7c0.1,0.2,0.9,0.1,1.1,0.1
		c1-0.3,2.1-0.9,3.1-1.4s2.1-1,3.1-1.6c4.1-2.2,7.9-4.7,11.6-7.5c3.7-2.8,7.1-5.9,10.2-9.3c3.2-3.4,6-7,8.6-10.8
		C597.3,354.9,597.6,354.4,597.9,354z"/>
	<path class="st1" d="M433.3,390.9c-18.9-10.1-38-21.3-50.7-38.6c9.1-0.1,16.1,7.9,23,13.2c13,10.6,27.6,20.4,41.1,30.3
		C449.7,399.2,434.4,391.2,433.3,390.9z"/>
	<path class="st1" d="M291.8,741.7c-5.5,1.6-11,3.3-16.3,5.6c-5.6,2.5-10.9,5.6-16.3,8.5c-12.6,6.7-26.7,12.5-34.5,24.4
		c-0.8,1.2-1.5,2.6-1.3,4c0.2,1.8,1.9,3.1,3.6,3.4s3.5,0,5.2-0.5c8.8-2.5,16.3-8.1,24-13c4.3-2.8,8.7-5.4,13.2-7.8
		c4.5-2.5,9.1-4.8,13.7-6.9c4.7-2.2,9.4-4.2,14.1-6.1c4.8-1.9,9.6-3.7,14.4-5.4c4.9-1.7,9.8-3.4,14.7-4.9c4.9-1.6,9.9-3,14.8-4.4
		c5-1.4,10-2.8,15-4.1s10-2.6,15-3.9c5-1.3,10.1-2.6,15.1-3.9c5-1.3,10-2.6,15.1-3.9c0.8-0.2,2.2-0.3,2.8-0.8
		c-0.8-0.5-2.3-0.2-3.2-0.1c-1.9,0.2-3.8,0.3-5.7,0.5c-3.8,0.3-7.6,0.7-11.4,1.1c-7.6,0.8-15.1,1.8-22.6,3s-15,2.5-22.5,3.9
		c-7.5,1.5-14.9,3.1-22.4,4.9c-7.4,1.8-14.8,3.7-22.1,5.8C293.5,741.2,292.7,741.5,291.8,741.7z"/>
	<path class="st1" d="M247.2,714c41.2-20.5,86.9-31.8,132.9-32.7c-18.1-4.2-36.9,1.1-55,4.9c-19.2,4.1-38.7,6.7-57.4,12.6
		c-6.2,2-12.3,4.3-18.2,7.1c-5.8,2.8-11.5,6.1-16.7,10c-5.1,3.8-9.9,8.2-13.9,13.2c-0.5,0.6-2.3,2.6-1.6,3.4c0.6,0.6,2,0,2.6-0.2
		c1.3-0.6,2.2-1.9,3.3-2.9c1.2-1.2,2.5-2.3,3.9-3.3c5.5-4.4,11.6-7.8,17.8-11C245.7,714.7,246.4,714.4,247.2,714z"/>
	<path class="st1" d="M220.1,738.7c20.3-4.2,39.2-14.1,59.5-18.2c11.4-2.3,23.1-2.8,34.6-4.7c17.2-2.8,34.9-8.8,51.5-3.5
		c-5.3,0.9-10.5,1.9-15.8,2.8c-25,4.4-50.1,8.9-74.2,16.8c-15.8,5.2-31.1,11.8-45.6,19.8c-1.2,0.7-2.6,1.3-3.8,0.4
		c-0.8-0.6-1.5-1.6-1.9-2.6c-0.3-0.8-0.3-1.6-0.4-2.4c-0.2-1.3-0.7-2.6-1.3-3.8C222,741.6,221.1,740.1,220.1,738.7z"/>
	<path class="st1" d="M764.8,685.1c-16-9.1-32.8-17.2-47.3-28.5c1.7,6.3,6.2,11.5,11.5,15.3s11.3,6.4,17.1,9.3
		c14.4,7.2,28,16.1,40.2,26.5c-0.8-3.9-1.9-8.3-5.1-10.9c-1.6-1.3-3.5-2.1-4.9-3.6c-1.3-1.3-2.6-2.5-4.1-3.6
		C769.9,688,767.4,686.5,764.8,685.1z"/>
	<path class="st1" d="M706.6,673.7c8.2,3.4,15.5,8.8,23.5,12.6c5,2.3,10.2,3.9,15.1,6.4c15,7.7,25.9,23,42.2,26.9
		c-1.5-4.2-4.8-7.5-8.4-10.1c-3.7-2.5-7.7-4.4-11.6-6.7c-9.6-5.8-17.6-14.3-28.1-18c-3.6-1.3-7.5-2-10.9-3.8c-2-1-3.7-2.4-5.6-3.7
		c-4.2-2.7-8.8-4.3-13.5-5.8c-4.8-1.5-9.6-2.7-14.2-4.5c-1.3-0.5-2.6-1-3.8-1.6c-0.6-0.3-2.5-1.7-3.2-1.3c1.4,2.1,4.2,3.6,6.3,4.7
		c2.5,1.3,5.2,2.2,7.8,3.2C703.6,672.5,705.1,673.1,706.6,673.7z"/>
	<path class="st1" d="M696.1,708.6c4.5,2.1,9,4.3,13.7,5.7c4.3,1.3,8.8,1.8,13.2,2.6c6.4,1.2,12.7,3,18.7,5.4
		c6.4,2.5,12.5,5.7,19.2,7.4c0.8-2.8-0.6-5.9-2.9-7.8c-2.2-1.9-5.1-2.9-7.9-3.7c-11.9-3.6-24.2-6-35.8-10.5
		c-4.5-1.7-8.9-3.8-13.6-4.6c-4.4-0.7-8.9-0.4-13.2-1.2c-4.1-0.7-8-2.4-12.1-3.3c-1.3-0.3-2.7-0.6-4-0.7c-1-0.1-2.4-0.6-3.3,0.1
		c-0.6,0.5-0.9,1.1-0.1,1.4c1.2,0.5,2.7,0.5,4,0.8c5.3,1.2,10.5,2.9,15.6,4.9C690.5,706.1,693.3,707.3,696.1,708.6z"/>
	<path class="st1" d="M745.1,712.5c3.4,1.1,6.7,2.2,9.9,3.6c5.6,2.6,10.7,6.4,15.6,10.1c3.7,2.8,7.5,5.7,10,9.5
		c4.1,6.1,4.7,13.8,7.5,20.6c0.6,1.4,1.4,2.9,2.8,3.4c2.5,0.9,4.8-1.9,5.5-4.5c1.2-4.5,0.3-9.5-1.7-13.7s-5-8-7.9-11.7
		c-3.3-4.2-6.7-8.4-11.1-11.6c-5.9-4.3-13.2-6.4-20.3-8.3c-11.4-3.1-22.7-6.2-34.1-9.3c-5.6-1.5-11.2-3-16.8-4.3
		c-6.1-1.3-12.3-2.3-18.6-2.9c-1.6-0.2-3.2-0.3-4.8-0.4c-0.3,0-3.1-0.1-2.1,1c0.3,0.3,1.6,0.4,2.1,0.5c0.8,0.2,1.5,0.4,2.3,0.6
		c1.5,0.4,3.1,0.7,4.6,1.1c6.1,1.5,12.2,3.1,18.3,4.7c6.1,1.6,12.2,3.4,18.3,5.1c6.1,1.8,12.1,3.6,18.1,5.5
		C743.6,712,744.4,712.3,745.1,712.5z"/>
	<path class="st9" d="M358.1,363.8c0,0,21.4,52.6,21.2,131.9s5.2,267.6,5.2,267.6s98.6,9.3,160.6,8.2S676.5,757,676.5,757
		s-11.8-78.4-11.8-122.9s2.9-63.7-1.6-89.1c-4.5-25.4-51.3-202.9-51.3-202.9l-6.7-1.5c0,0-11.5,88.7-22.1,144.2
		s-39.4,164.3-39.4,164.3s-61.4-97.9-82.4-133.8c-21.1-35.9-96.6-154.7-96.6-154.7L358.1,363.8z"/>
	<g>
		<path class="st0" d="M783.9,745.6c11.1,8.5,11.8,25.1,1.2,34.3c-93.9,82.3-185.2,5.3-293.3-28.7c-51.7-20-107.9-11.9-161.3-21.8
			c-11.8-6.1-68,5.8-68-5.7c-0.5-5.7,6-7.4,10.6-7.6c16.6-1.7,33.1-4,49.5-6.8c2.3-2.5-1-2.8-2.9-2.9c-25.6-1.7-51.2-3.4-76.8-5.2
			c-6.2,0.8-16.4-5.1-10.5-11.5c-4.4,0.7-4.2-6.1-1.6-8.3c7.4-7.5,20.2-4.5,29.9-6c-36.2-11.5,62.4-18.9,68.1-17.7
			c17.7,0,35.8,3.7,53.8,3.5c-7.5-3-14.3-9.9-16.9-17.7c-0.7-2.2,0.8-4.6,3.1-4.9c3.7-0.5,8,1.2,11.7,2.7
			c15.5,6.5,32.3,8.9,48.9,11.3c28.6,4.7,56.4,12.3,85.3,14.9c55.2,8.4,112.1,10.4,165.5,27.6c35.8,13.8,72.9,27.3,103.6,50.4
			C783.8,745.5,783.8,745.6,783.9,745.6z"/>
		<path class="st10" d="M240.2,698.6c-3.1,0.2-6.5,0.2-9.1-1.5c-1-0.7-1.9-1.6-2.2-2.8s-0.1-2.5,0.8-3.4c0.5-0.5,1.1-0.7,1.8-1
			c4.4-1.7,9.3-2.4,14-1.3c1.9,0.4,4.5,1.1,5,3.2c0.5,1.8-0.7,3.6-2,4.6C246.2,698.3,242.9,698.5,240.2,698.6z"/>
		<path class="st10" d="M235.5,685.8c-3,0.3-6.3,0.5-9-1.1c-1-0.6-1.9-1.5-2.3-2.7c-0.4-1.1-0.2-2.5,0.6-3.3c0.5-0.5,1.1-0.8,1.7-1
			c4.3-1.8,9-2.7,13.6-1.9c1.8,0.3,4.4,0.9,5.1,2.9c0.5,1.7-0.5,3.5-1.8,4.6C241.4,685.3,238.2,685.5,235.5,685.8z"/>
		<path class="st10" d="M263.1,675.7c-3,0.5-6.2,0.9-8.8-0.5c-1-0.5-2-1.4-2.4-2.4c-0.5-1.1-0.4-2.4,0.4-3.3c0.4-0.5,1-0.8,1.6-1.1
			c4-2.1,8.7-3.3,13.2-2.7c1.8,0.2,4.4,0.5,5.1,2.5c0.6,1.6-0.3,3.5-1.4,4.6C268.8,674.7,265.7,675.2,263.1,675.7z"/>
		<path class="st10" d="M270,724.2c-2.1,0.4-4.5,0.7-6.4-0.4c-0.7-0.4-1.4-1-1.7-1.8c-0.3-0.8-0.3-1.7,0.3-2.4
			c0.3-0.4,0.7-0.6,1.1-0.8c2.9-1.5,6.3-2.4,9.5-2c1.3,0.2,3.2,0.4,3.7,1.8c0.5,1.2-0.2,2.5-1,3.3
			C274.1,723.5,271.9,723.8,270,724.2z"/>
		<path class="st10" d="M374.3,645c-2.4-0.8-5-1.9-7-4c-0.8-0.8-1.4-1.8-1.7-2.7c-0.2-0.9,0-1.8,0.7-2.2c0.4-0.2,0.9-0.2,1.4-0.1
			c3.4,0.2,7.2,1.3,10.8,3.5c1.4,0.9,3.4,2.2,3.8,3.9c0.3,1.4-0.6,2.3-1.6,2.7C378.9,646.7,376.4,645.7,374.3,645z"/>
		<path class="st1" d="M318.6,688.5c-25.8,1.5-51.7-2-77.6-1.1c-1.3,0-2.8,0.1-3.8-0.8c15.4-3.8,31.6-1.4,47.5-1.7
			c3.6-0.1,7.2-0.3,10.8-0.5c3.6-0.2,7.3-0.5,10.9-0.7s7.3-0.3,10.9-0.1c1.8,0.1,3.6,0.2,5.4,0.3c0.9,0.1,1.8,0.2,2.7,0.3
			c0.5,0.1,1.3,0,1.3,0.7c-0.1,1.1-1.8,2.1-2.7,2.4c-1.4,0.6-2.9,0.9-4.4,1C319.4,688.5,319,688.5,318.6,688.5z"/>
		<path class="st1" d="M311,673.7c-18,0.1-38.4,3.7-57.2,2.3c10.2-3.8,53.4-7.5,74.8-6.4C331.2,673.7,313.8,673.8,311,673.7z"/>
		<path class="st1" d="M410.9,659c0.5,0.8,0,1.9-0.7,2.4s-1.7,0.6-2.7,0.7c-3.4,0.2-6.7,0.4-10.1,0.3c-3.4,0-6.8-0.2-10.1-0.5
			c-0.9-0.1-1.9-0.2-2.8-0.3c-0.5-0.1-2.4,0-2.6-0.4c0.9-0.2,1.9-0.2,2.8-0.3s1.9-0.2,2.8-0.3c1.9-0.2,3.8-0.4,5.7-0.5
			c3.8-0.3,7.6-0.6,11.4-0.8c1.1-0.1,2.1-0.1,3.2-0.2c0.5,0,1.1,0,1.6-0.1C409.5,659.1,410.8,658.9,410.9,659z"/>
	</g>
	<g>
		<path class="st1" d="M478.8,769.7c49.5-28.3,103.6-47.5,154.8-72.6c6.5-3.2,13.6-7.3,14.9-14.4c-19.1,1.3-37.4,7.9-55.3,14.7
			c-22.6,8.6-45.3,17.8-65,31.7c-14.9,10.5-27.8,23.5-40.7,36.4"/>
		<path class="st1" d="M325.3,716.5c16.7-11.5,35.5-19.5,54.4-27c18-7.1,36.2-13.8,55.2-17.3c7.8-1.4,15.6-2.3,23.5-3.2
			c20.6-2.4,41.3-4.7,62.1-4.5c0.1,1.8-1.7,3.1-3.3,4c-37.2,19.7-80.6,23.6-120.5,37c-8.2,2.7-16.2,5.9-24.2,9.2s-16,6.7-24.1,10.1
			c-8.1,3.3-16.2,6.5-24.4,9.2c-4.1,1.4-8.2,2.6-12.4,3.8c-1.4,0.4-3.2,1.3-4.6,0.4c-1-0.7-1.4-2.1-1.2-3.3c0.2-1.7,1.6-2.9,2.7-4
			c1.5-1.5,3-3,4.5-4.5c3.1-2.9,6.4-5.5,9.8-8C323.5,717.7,324.4,717.1,325.3,716.5z"/>
		<path class="st0" d="M246.7,774.6c-10,9.8-8.6,26.3,2.9,34.2c103.1,70.3,173.5-20.3,276.8-67.1c14.9-7.9,33-22.4,48.9-26.5
			c36.5-9.5,117.9-84.8,112.4-82.9c-17.6,2.2-35.1,8-53,9.9c7.1-3.9,13-11.6,14.6-19.6c0.5-2.3-1.3-4.5-3.7-4.5
			c-3.7,0-7.8,2.2-11.2,4.1c-14.6,8.3-31,12.8-47.1,17.1c-27.8,8.1-54.5,19-82.9,25.1c-53.7,15-110,23.9-160.9,47.4
			c-33.8,18-69,35.9-96.8,62.6C246.8,774.5,246.7,774.5,246.7,774.6z"/>
		<path class="st6" d="M497.6,669.4c11.4,8.1,17.7,21.5,21.8,34.8c3,9.5,5.1,19.3,6.4,29.2c0.9,6.7,1.2,13.9-2.4,19.6
			c7.6-3.8,10.8-13.4,9.9-21.8s-4.9-16.2-8.4-23.9c-3.1-7-5.8-14.2-8.1-21.5c-2.2-7.3-4.6-15.4-11-19.4c-4.7-2.9-10.5-2.8-15.7-1.5
			c-1,0.2-2.8,0.4-3.4,1.3C490.7,665.8,494.3,667,497.6,669.4z"/>
		<g>
			<path class="st2" d="M767.8,474.9L767.8,474.9L767.8,474.9c-0.3-1-0.8-2-1.5-2.8l0,0l-3.3-3.9c-0.1-0.1-0.1-0.1-0.2-0.2l-0.1-0.1
				l0,0c-1.2-1.4-2.9-2.4-4.9-2.7l-56.3-9.4c-4.9-0.8-9.8,2.4-11.1,7.2l-30.2,116.4c-0.5,2.1-0.3,4.1,0.6,5.8c0.7,1.3,4,5.3,4.9,6.1
				c1.2,1.1,2.7,1.9,4.5,2.2l56.3,9.4c4.9,0.8,9.8-2.4,11.1-7.2l30.2-116.4C768.2,477.7,768.1,476.2,767.8,474.9z"/>
			
				<ellipse transform="matrix(0.2513 -0.9679 0.9679 0.2513 55.8297 1049.348)" class="st11" cx="706.2" cy="488.6" rx="14.2" ry="6"/>
			<circle class="st4" cx="705.2" cy="492.3" r="3.8"/>
			<circle class="st4" cx="707.3" cy="484.1" r="2.8"/>
		</g>
		<path class="st0" d="M534.4,662.6c14.4-7.8,28.8-15.6,41.4-26.1c12.5-10.5,23.1-23.9,27.5-39.7c1.1-4.1,1.8-8.3,3.3-12.2
			c5-13.4,17.8-21.8,28.9-30.8c11.9-9.5,22.6-20.4,31.9-32.5c2.1-2.7,5.6-5.8,8.5-4c1.1,0.7,1.7,1.8,2.1,3
			c4.2,10.4,0.4,22.5-6.1,31.6s-15.4,16.2-23,24.4c-1,1.1-2.1,2.7-1.4,4c5.5,3.8,12.9,0.9,18.7-2.4c28.9-16.3,53.5-39.7,83.2-54.3
			c2.5-1.2,5.1-2.4,7.8-2.3c2.7,0,5.7,1.6,6.3,4.3c0.8,3.2-1.8,6.2-4.2,8.5c1.7-1.3,2.9,0.6,4,2.5s1,4.2,0.5,6.4
			c-2.6,10.9-13.5,18.6-14.9,29.7c-0.5,3.7,0.1,7.4,0.1,11.1c-0.3,10.8-6.6,20.5-13.6,28.8s-15,15.9-19.9,25.5
			c-1.5,2.9-2.6,5.9-4.6,8.5c-1.7,2.1-3.8,3.8-6,5.4c-23.9,17.9-50.7,32-79,41.6c-25.5,8.6-50.9,21.3-74.5,34.2
			C543.5,707,539.1,684.3,534.4,662.6z"/>
		<path class="st1" d="M704,586.8c-4.1,3.9-8.2,7.8-11,12.6c-1,1.7-1.8,3.9-0.8,5.7c3-0.3,5.5-2.5,7.6-4.6c3.7-3.6,7.3-7.4,9.9-11.9
			c1-1.7,1.8-3.4,2.6-5.2c0.8-1.6,1.9-3.2,2.5-4.9c0.1-0.3,0.4-1.3,0.1-1.6c-0.4-0.4-1,0.5-1.4,0.8c-1.5,1.4-3,2.9-4.6,4.3
			C707.4,583.6,705.7,585.2,704,586.8z"/>
		<path class="st1" d="M706.6,584.3c-5.4,5.7-10.8,11.8-13.1,19.3c3-1.4,5.1-4.1,7.1-6.6c15-19,31.9-36.5,50.4-52.1
			c1-0.8,2-1.7,3-2.6c0.8-0.7,2.3-1.6,2.8-2.6c0.2-0.5,0.1-1.6-0.6-1.6c-0.7,0-2.2,1.7-2.7,2.2c-4,3.3-8,6.7-11.9,10.2
			c-7.8,6.9-15.4,14-22.8,21.4C714.6,576,710.6,580.1,706.6,584.3z"/>
		<path class="st1" d="M741.2,576.3c-3.2,4.2-6,8.6-8.9,13c-4.8,7.2-9.9,14.1-15.4,20.7c-5.9,7.2-12.4,14.6-13.6,23.8
			c2.1-0.6,3.5-2.4,4.8-4.1c4.3-5.8,8.6-11.6,12.9-17.4c5-6.8,10-13.5,14.6-20.5c2.3-3.5,4.6-7.1,6.7-10.7c1-1.8,2-3.6,3-5.5
			c0.9-1.6,2-3.4,2.5-5.2c0.1-0.2,0.4-1.4,0-1.5s-1.7,1.6-1.9,1.9C744.3,572.4,742.7,574.3,741.2,576.3z"/>
		<path class="st10" d="M755,538.2c-1.4,0.1-3.2-0.3-4-1.7c-0.9-1.7,0.3-3.6,1.2-5c2.3-3.4,5.8-5.8,9.5-7.4c0.5-0.2,1.1-0.4,1.7-0.4
			c1,0,2,0.7,2.5,1.6c0.5,0.9,0.5,2,0.3,3.1c-0.6,2.6-2.7,4.6-4.8,6.3C759.6,536.2,757.5,538.1,755,538.2z"/>
		<path class="st10" d="M669.6,534.4c-1.8,0.7-4.2,0.8-5.6-0.7c-1.7-1.7-0.9-4.6-0.3-6.7c1.6-5.1,5-9.5,9.1-12.8
			c0.6-0.5,1.2-0.9,1.9-1.2c1.3-0.4,2.8,0.1,3.7,1.1s1.4,2.4,1.5,3.7c0.2,3.5-1.7,6.8-3.6,9.7C674.6,530.2,672.6,533.3,669.6,534.4z
			"/>
		<path class="st10" d="M760.6,549.9c-1.1,0.5-2.6,0.7-3.6-0.2c-1.2-1.1-0.8-3.1-0.6-4.5c0.7-3.5,2.6-6.6,5-9.1
			c0.3-0.3,0.7-0.7,1.1-0.9c0.8-0.3,1.8,0,2.4,0.6c0.6,0.6,1,1.5,1.1,2.4c0.3,2.4-0.7,4.6-1.7,6.7
			C763.5,546.8,762.5,549,760.6,549.9z"/>
		<path class="st6" d="M511.6,662.2c4.8,2.2,8.5,6.4,11.6,10.7c8.4,11.7,13.6,25.3,17.6,39.1c1.9,6.7,3.6,14,1.1,20.6
			c-1.3,3.3-3.5,6.1-5.7,8.8c-2.9,3.7-5.9,7.4-9.8,10c7.4,0.6,14.9-1,21.4-4.6c3.6-2,6.9-4.7,8.7-8.4c1.2-2.5,1.7-5.3,1.9-8
			c0.8-9.9-1.1-19.8-3-29.6c-1.3-6.6-2.6-13.3-5.8-19.2c-2.3-4.2-5.4-7.9-8.5-11.5c-6.4-7.5-13.6-15.5-23.4-17.2
			c-3.7-0.6-7.6-0.3-11.3,0.5c-4.1,0.8-8.1,2.1-11.5,4.6c-1.6,1.2-3,2.6-4.1,4.3c-0.7,1-2.6,4.1-1.9,5.3c1.2-0.8,2.2-2.3,3.5-3.2
			c1.3-1,2.8-1.7,4.4-2.3c3-1.2,6.4-1.6,9.6-1.2C508.1,660.9,509.9,661.4,511.6,662.2z"/>
		<path class="st6" d="M507.3,661.4c0.9-4.8,5.2-8.5,10-9.7s9.8-0.2,14.4,1.6c8.1,3.3,15,9.4,19.2,17.1c2.9,5.2,4.5,11,6.1,16.8
			c1.1,4.1,2.3,8.3,3.4,12.4c2.1,7.7,4.3,15.6,3.6,23.5c-0.7,8-4.7,16.1-12,19.4c8-1.9,14.6-8.5,16.7-16.5
			c1.3-5.3,0.7-10.8,0.1-16.3c-0.7-6.4-1.5-12.9-3.3-19.1c-1.5-4.9-3.6-9.5-5.9-14c-4.7-9.1-10.6-18.1-19.4-23.3
			c-8.8-5.2-21.3-5.4-28.4,2"/>
	</g>
</g>
</svg>
