<?xml version="1.0" encoding="utf-8"?>
<!-- Generator: Adobe Illustrator 25.2.0, SVG Export Plug-In . SVG Version: 6.00 Build 0)  -->
<svg version="1.1" id="Layer_3" xmlns="http://www.w3.org/2000/svg" xmlns:xlink="http://www.w3.org/1999/xlink" x="0px" y="0px"
	 viewBox="0 0 998.2 973.2" style="enable-background:new 0 0 998.2 973.2;" xml:space="preserve">
<style type="text/css">
	.st0{fill:#285BAA;}
	.st1{fill:#26394B;}
	.st2{fill:#8F6014;}
	.st3{fill:#76A1A9;}
	.st4{fill:#F18F24;}
	.st5{fill:#FFFFFF;}
	.st6{fill:#00022E;}
	.st7{fill:#678C91;}
	.st8{display:none;fill:#FFFFFF;}
</style>
<g>
	<path class="st0" d="M555.4,361.1c0.8,1.1,1.7,2.1,2.2,3.4c0.5,1.2,0.6,2.7,0.8,4c1,7.4-2.1,19.4,2.2,25.5c1.7,2.4,4.3,3.9,7,5.3
		c6.1,2.9,26.8,15.9,30.4,10.2c3.2-5-1.8-33-1.7-38.9c0.1-14.4-9.6-27.8-8.8-42.2c0.3-6.3,2.7-12.2,3.7-18.5
		c1.5-8.6,3.7-18,2.9-26.7c-0.5-6-4.3-11.8-8.5-16c-2.9-2.9-8.5-19.3-12.5-19.7c-12.5-1.4-23.3,21.2-29.7,32
		c-6.4,10.8-7.2,24.2-4.7,36.5c1.3,6.5,3.7,13.1,8,18.3c0.8,1,1.9,1.8,2.4,3c0.4,1.1,0.2,2.4,0.1,3.5c-0.2,3.4,0.3,6.7,1.2,10
		C551.4,354.5,553,358,555.4,361.1z"/>
	<path class="st1" d="M573.3,372.7c-7.1-3.1-12.8-7.2-18.4-12.7c-2.4-2.3-3.7-4.9-3.9-8.3c1.6,0.6,3.2,1.4,4.8,2.2
		c0.1-3.6,0.2-7.2,0.7-10.7c0.2-1.8,0.8-3.4,1.5-5.1c0.4-1.1,2.3-9.3,4.4-7.1c1.5,1.7-1.3,8-1.6,10c-0.3,2.1-0.4,3.5-0.2,5.2
		c0.9,6.7,2.7,12.4,5.8,18.4c0.9,1.7,2.1,2.9,3.4,4.6C570.6,370.2,571.9,372,573.3,372.7z"/>
	<path class="st1" d="M572.7,354.6c5.4-2.8,9.9-7.5,12.4-13.1c-0.3,6.1-2.2,12.1-5.5,17.1c2.3-1.3,4.3-3.4,5.3-5.8
		c0.7,5.2,0,10.4-2.2,15.2c7.4-8.7,10.1-21.2,7-32.2c-0.5-1.7-1.1-3.5-1.4-5.4c-0.5-4,0.8-7.8,1.5-11.5c0.7-3.6-2.3,0-2.9,1.3
		c-1.8,3.4-2.6,7.3-3.9,10.8c-1.4,3.8-3,7.5-4.6,11.2C576.8,346.4,574.9,350.5,572.7,354.6z"/>
</g>
<path class="st2" d="M247.8,683.4c13.1,6.6,28.5,7.2,43,5.2s28.6-6.4,42.9-9.4c6.1-1.3,12.3-2.3,18.2-4.5c5.7-2.1,10.9-5.2,16.1-8.3
	c6.4-3.8,12.8-7.6,19.2-11.4c1.3-0.8,2.7-1.7,3.1-3.2c0.3-1.3-0.2-2.5-0.9-3.7c-4.7-8.8-13.8-14.7-23.3-17.5
	c-9.6-2.8-19.7-2.9-29.7-2.5c-11.5,0.5-22.9,1.8-34.2,3.7c-11.4,1.9-22.7,4.6-33.8,7.9c-11.1,3.3-22,7.3-32.6,12
	c-4.8,2.1-10.3,4-14.4,7.4c-2.5,2.1-6,6-4.3,9.6c2.1,4.1,9.3,3.8,13.1,5.3c5,1.9,9.4,4.9,14,7.6
	C245.4,682.2,246.6,682.8,247.8,683.4z"/>
<path class="st2" d="M811.8,623.2c-2.8,1-5.4,2.6-7.6,4.6c-3,2.7-5.3,6.2-8,9.2c-8.6,9.9-21.1,15.7-33.9,18.5
	c-12.8,2.8-26,2.8-39.1,2.8c-9,0-18,0-27.1,0c-8.5,0-17.2,0-25.3-2.5s-15.8-7.8-19.1-15.6c-0.3-0.7-0.6-1.5-0.4-2.3
	c0.3-1.3,1.6-2.1,2.7-2.7c33.3-17.7,70.4-33.2,107.7-27.2c8.9,1.4,17.5,4.1,26.2,6.7c4.3,1.3,8.7,2.6,13,4c1.9,0.6,4.2,1,5.9,2
	C808.3,621.4,810,622.3,811.8,623.2z"/>
<path class="st3" d="M460,311.7c0,0,3.5,43.3-25.3,57.7s-69,36.6-69,36.6l22.6,62.4l77.3,41.8h141.5l45.4-112.7
	c0,0-61.9-10.9-82.5-22.8c-27.1-15.5-12.7-57.2-12.7-57.2L460,311.7z"/>
<path class="st2" d="M449.2,455.4c8.6,2.4,17.5,3.7,26.4,5s17.7,2.5,26.6,3.8c7.8,1.1,15.7,2.2,23.6,2.2c17.3,0,34.2-5.5,50.2-12.2
	c11-4.6,22-10.2,29.7-19.3c4.9-5.8,8.2-12.8,11.4-19.7c3.8-8.2,7.6-16.3,11.4-24.5c5.3,8.8,2.6,20.2-1.6,29.6
	c-12,27.4-35.4,49.7-63.5,60.3c-25.3,9.6-53.2,9.9-80.3,8.4c-12.4-0.7-25-1.7-36.7-5.7c-9.3-3.2-17.9-8.3-26.1-13.8
	c-8.9-6-17.6-12.8-22.5-22.3c-2.8-5.4-4.2-11.4-7.3-16.6c-4.9-8.1-14.9-14.3-16.5-24.1c-1.1-6.7,8.8-7.3,12.1-3.4
	c3,3.5,4.9,8.1,7.5,11.9c2.5,3.7,5.2,7.2,8.2,10.5c5.9,6.6,12.7,12.4,20.1,17.3s15.5,8.8,23.9,11.5
	C447,454.8,448.1,455.1,449.2,455.4z"/>
<path class="st0" d="M504.3,357.8c34.8,4.4,51-18.6,55.2-30c-2.8-3.7-8.5-2.9-13.1-1.9c-5.7,1.3-11.4,2.2-17.1,2.7
	c-5.8,0.5-11.6,0.7-17.5,0.4c-5.8-0.3-11.6-1-17.3-2.1c-5.7-1.2-24-20.3-29.3-22.4c-5.4-2.1-5.2,6.7-5.1,7.1
	C460.3,312.7,461.9,352.4,504.3,357.8z"/>
<path class="st4" d="M386.3,653.5c0,0,8.2,20.4,7.5,38.2S370.2,794.1,373,804.4c2.7,10.3,65.7,8.2,99.7,8.2s125.8-13.7,167-7.5
	s59.6,2.1,63.1,0.7c3.4-1.4-49.7-112.5-49.7-131.4s3.8-38.7,3.8-38.7L386.3,653.5z"/>
<g>
	<path class="st3" d="M775.5,611.1c0,0,38.1,123.2,31.6,155.7s12.8,48.3-74.5,50.4s-262.1-36.3-282.4-31.7
		c-20.2,4.6-30.1,18.3-87.8,20.8c0,0-55.3,17.7-58.2,9.1c-2.4-7.2,5.1-8.8,5.1-8.8s-35.4,8.4-38.7,1.3c-3.6-7.8,4.9-10.8,4.9-10.8
		s-12.9,4.3-14.7-1.1c-2.7-8.2,14.4-14.3,14.4-14.3s1.1-12.2,23.3-23.6c22.2-11.5,26.3-14.5,26.3-14.5s-5-10.4,1.9-11.3
		c2.8-0.3,11.4,3.5,24.9,2.5c0,0,43.8-13.9,87.9-15.9c0,0,165.4-13,236.3-11c0,0-6.7-79.6-9-107.8L775.5,611.1z"/>
	<path class="st1" d="M746.9,726.4c3.7,1.3,7.9,3.2,9.1,6.9c-4.9,2.9-11.2,1.2-16.6-0.7c-22-7.3-44-14.7-65.9-22
		c-0.3-0.1,1.5-2.4,1.7-2.6c0.8-0.5,1.4-0.2,2.2-0.1c2.6,0.5,5.1,0.9,7.7,1.4c5.1,1,10.1,2.1,15.2,3.2c10.1,2.4,20.1,5.1,30.1,8.2
		C735.9,722.6,741.4,724.4,746.9,726.4z"/>
	<path class="st1" d="M488.7,791.8c-13.5-2.4-37.5-4.3-42.2-3.2c-4.8,1.2-9.1,3.5-13.5,5.6c-14.3,6.9-29.6,11.5-45.3,13.8
		c-9.7,1.4-19.8,1.8-29-1.7c12.9-2.5,25.7-5.1,38.6-7.6c8.4-1.7,17-3.4,24.6-7.2c5.4-2.7,10.3-6.5,15.9-8.8
		c9.6-3.9,45.6,3.8,55.9,4.6L488.7,791.8z"/>
	<path class="st1" d="M345.7,793.3c1.1-0.6,2.3-1.2,3.1-2.1c0.9-0.9,1.3-2.3,0.9-3.5c-2.9,0-5.3,1.9-7.6,3.6
		c-5.1,3.6-10.9,6.3-17,7.9c-3.3,0.9-6.7,1.5-9.8,2.7c-1.5,0.6-3,1.3-4.3,2.3c-0.5,0.3-1.6,1.1-1.8,1.6c-0.2,0.5,0.5,0.5,0.9,0.4
		c1.8-0.1,3.7-0.8,5.5-1.3c2-0.5,4-1.1,5.9-1.7c3.9-1.2,7.8-2.6,11.6-4.1c3.8-1.5,7.6-3.2,11.3-5
		C344.8,793.7,345.3,793.5,345.7,793.3z"/>
	<path class="st1" d="M276,797c2.5-3.2,6.8-4.5,10.7-5.7c15.8-4.8,31.4-10.4,46.6-16.9c2.9-1.2,5.8-2.5,8.9-3.4
		c1.1-0.3,2.2-0.5,3.3,0c0.7,0.3,1.4,0.9,0.7,1.6c-0.5,0.5-1.3,0.7-1.9,1c-0.7,0.3-1.4,0.6-2.1,0.9c-1.4,0.6-2.8,1.2-4.2,1.8
		c-2.8,1.1-5.6,2.2-8.5,3.2c-5.7,2-11.5,3.7-17.3,5.4s-11.6,3.3-17.4,5.1c-5.7,1.8-11.4,3.8-17,6.2C277.5,796.4,276.3,796.7,276,797
		z"/>
	<path class="st1" d="M340.2,752.3c-0.5,0.8-1.3,1.3-2.1,1.8c-3.7,2.4-7.4,4.7-11.3,6.6c-4.8,2.3-10,4-15,5.7
		c-12.2,4.2-24.2,9.3-35.8,15c0.4-2.1,2.4-3.4,4.2-4.5c17.5-10.1,37.5-15.2,55-25.3c1.2-0.7,2.7-2,4.1-2S340.7,751.4,340.2,752.3z"
		/>
	<path class="st1" d="M332.6,740.1c2.6-0.9,5.2-1.9,7.9-2.4c3.8-0.7,7.9-0.7,11-2.9c-6.5,0.6-12.8,2.1-19.2,3.6
		c-1.5,0.4-3,0.7-4.3,1.6c-0.8,0.5-1.6,1.3-2.2,2.1c-0.6,0.9,0.6,0.8,1.1,0.5C328.8,741.5,330.7,740.8,332.6,740.1z"/>
	<path class="st1" d="M371.6,734.6c-4.4,1.2-8.7,2.5-13.2,2.9c-2.5,0.2-5.6-0.2-6.7-2.5c0.9-1.1,2.3-1.5,3.7-1.8
		c8.8-2.2,17.7-4.4,26.5-6.6c4.6-1.1,9.2-2.3,13.8-3.1c6.2-1.1,12.5-1.7,18.8-2.3c2.8-0.3,5.5-0.5,8.3-0.8c2.3-0.2,4.9-0.8,7.3-0.5
		c0.3,0,1.7,0.1,1.8,0.5c0.1,0.4-1.8,0.6-2.1,0.7c-2.7,0.5-5.4,1.1-8.1,1.7c-5.4,1.1-10.8,2.3-16.2,3.5c-5.4,1.2-10.7,2.4-16.1,3.7
		c-5.3,1.3-10.7,2.7-16,4.1C372.9,734.2,372.2,734.5,371.6,734.6z"/>
	<path class="st0" d="M507.2,796.4c-6.7-1-13.6-2-19.6-5.1c-0.7-0.4-1.3-0.7-1.6-1.4c-0.4-1,0.3-2.3,1.3-2.8
		c1.1-0.5,2.3-0.4,3.3-0.2c7.4,0.8,14.6,2.8,21.8,4.4c4.4,0.9,8.8,1.7,13.2,2.3s8.9,1.2,13.4,1.8s9,1.1,13.5,1.8
		c4.5,0.7,8.9,1.4,13.3,2.4c2.2,0.4,4.3,1,6.6,1.5c1.1,0.3,2.1,0.6,3.2,0.9c0.5,0.2,2.3,0.3,2.3,1c0.1,0.6-0.9,1.1-1.3,1.3
		c-0.9,0.3-2.2,0.2-3.2,0.2c-2.3,0-4.6,0.1-7,0c-4.7-0.1-9.3-0.4-14-0.9c-4.7-0.5-9.3-1.1-14-1.8s-9.3-1.5-14-2.2
		c-4.6-0.8-9.3-1.6-13.9-2.3C509.5,796.7,508.3,796.6,507.2,796.4z"/>
	<path class="st0" d="M722.4,713.9c14.4,3,29.1,7,40.6,16.2c2.1,1.6,4.2,3.7,4.4,6.3c-3.1,0.6-6.4-0.4-9.4-1.4
		c-20.4-6.9-40.5-14.9-61.4-20.3c-4.1-1.1-8.2-2-12.3-3.4c-2-0.7-4-1.4-5.9-2.3c-0.5-0.2-1-0.5-1.5-0.7c-0.3-0.2-0.8-0.3-0.4-0.6
		c0.3-0.2,1-0.1,1.4,0c0.6,0,1.1,0.1,1.7,0.1c4.6,0.3,9.2,0.7,13.8,1.3c4.6,0.5,9.1,1.2,13.7,2c4.5,0.8,9.1,1.6,13.6,2.5
		C721.3,713.6,721.8,713.8,722.4,713.9z"/>
	<path class="st1" d="M271,807c-1.6-0.6-3.3-2-3.4-3.8c-0.2-2.2,2.1-3.6,3.7-4.7c4-2.4,8.9-3.3,13.6-3.2c0.7,0.1,1.3,0.1,1.9,0.4
		c1.2,0.5,1.8,1.8,1.8,3s-0.5,2.3-1.2,3.3c-1.9,2.5-5.1,3.6-8.1,4.3C276.7,807.1,273.6,808,271,807z"/>
	<path class="st1" d="M303.6,813.8c-1.3-0.5-2.7-1.6-2.8-3.1c-0.1-1.8,1.7-3,3.1-3.8c3.3-2,7.3-2.7,11.2-2.6c0.5,0.1,1.1,0,1.6,0.3
		c0.9,0.4,1.5,1.5,1.5,2.4c0,1-0.4,1.9-1,2.7c-1.5,2-4.2,2.9-6.7,3.6C308.3,813.8,305.8,814.6,303.6,813.8z"/>
	<path class="st1" d="M323.1,733.5c-1-0.8-1.7-1.9-1.2-2.8c0.7-1,2.9-1,4.5-0.9c3.9,0.2,8,1.3,11.5,2.9c0.5,0.2,1,0.4,1.3,0.8
		c0.7,0.6,0.7,1.4,0.3,1.9c-0.4,0.5-1.3,0.9-2.2,1.1c-2.3,0.5-5.2,0-7.7-0.6C327.4,735.3,324.7,734.7,323.1,733.5z"/>
	<path class="st1" d="M261.5,794.8c-1.6-0.5-3.4-1.8-3.6-3.5c-0.3-2.2,1.9-3.8,3.4-4.9c3.9-2.7,8.7-3.9,13.4-4c0.7,0,1.3,0,2,0.2
		c1.2,0.5,1.9,1.7,2,2.8c0.1,1.2-0.4,2.4-1,3.4c-1.7,2.6-4.9,3.9-7.8,4.8C267.2,794.6,264.2,795.6,261.5,794.8z"/>
	<path class="st1" d="M268.6,784.9c-1.4-0.3-3.1-1.2-3.4-2.7c-0.5-1.8,1.2-3.4,2.4-4.5c3-2.7,7-4.2,11.1-4.8c0.6,0,1.1-0.1,1.7,0
		c1.1,0.3,1.8,1.2,2,2.2c0.2,1-0.1,2-0.5,3c-1.2,2.4-3.8,3.8-6.2,4.9C273.4,784.1,270.9,785.3,268.6,784.9z"/>
</g>
<path class="st0" d="M537.2,414.3c3.7-11.1,7.3-22.2,11-33.3c2.4-7.5,5-15.1,6.5-22.9c0.4-2,0.7-4,0.9-5.9c0.1-1.2,0.6-3,0.2-4.2
	c-0.6-1.5-1.8,0.2-2.4,0.9c-3.6,4.5-5.2,10-6.8,15.3c-2.3,7.6-4.2,15.5-5.7,23.3c-1.5,7.9-2.7,15.8-3.3,23.8
	C537.4,412.4,537.3,413.4,537.2,414.3z"/>
<path class="st0" d="M667.8,734.5c-11.2-1.5,27.8-29,16.5-29.1c-60.2-0.7-160.2,11.5-221.2,16.6c-13.3,1.1-30.7,5.6-45,6.6
	c-10,0.7-30.2,9.2-40.1,10.2c-15.8,1.5-29.3,11.7-41.9,21.5c2.9-0.2,5.7-0.4,8.6-0.7c113.2-8.8,229.3-17.4,342.9-16.5
	c2.8,0,5.6,0,8.3-0.6c0.8-0.2,2-0.5,1.8-1.6s-1.9-1-2.8-1.1c-5.8-1.1-11.6-2.5-17.4-3.7C674.3,735.6,671.1,735,667.8,734.5z"/>
<path class="st0" d="M643.9,734.4c0,0,73.7,6.2,92.9,2.6c19.2-3.6,29.1-12.1,44.2-6.5c15.1,5.6,26.2,33.2,26.2,33.2l-4.7,35.4
	l-69.9,18.1c0,0-87-1.5-170.3-17.4C535.8,793.9,643.9,734.4,643.9,734.4z"/>
<path class="st0" d="M524.7,432.2c1,0.5,1.8-0.8,2.1-1.9c2.2-8.7,2.3-17.8,2.2-26.7c0-1,0.6-4.3-1-3.9s-1.9,2.6-2.1,3.8
	c-0.8,4.5-1.3,9-1.5,13.6c-0.1,2.6-0.2,5.1-0.1,7.7c0,1.2,0.1,2.5,0.2,3.7C524.5,428.9,524.4,432,524.7,432.2z"/>
<g>
	<path class="st5" d="M773.5,673.5l-48,96.3c-3.2,6.5-10.4,9.9-17.5,8.2l-49.8-11.6l-11.6-13.8l54.9-104.5c1.9-3.7,6.1-5.5,10.1-4.4
		l50.5,13.8c2.1,0.6,3.9,1.8,5.3,3.4l5.3,6.3C774.2,669.1,774.5,671.5,773.5,673.5z"/>
	<circle class="st6" cx="749.3" cy="705.8" r="4.5"/>
	<path class="st6" d="M762,689.8c-3.3,6.8-6.9,9.2-9.2,8.1c-2.4-1.2-2.6-5.5,0.7-12.2c3.3-6.8,6.3-8.1,8.7-7
		C764.5,679.8,765.3,683,762,689.8z"/>
	<path class="st3" d="M579.6,738.7c-145.2,1.3-135.8-6.2-205.9,4.1c0,0-2.7-79.9-3.8-108.1l-106.6,23.8c0,0-23.4,126.8-13,158.3
		c10.3,31.5-7.1,49.4,79.9,41.3c86.9-8.2,284.2-61.7,304.8-59.5C634.9,798.6,636,738.2,579.6,738.7z"/>
	<path class="st1" d="M257.3,844.2c0.6,2.1,1.2,4.3,2.5,6.1c1.6,2.1,4.2,3.3,6.7,4.3c21.5,8.3,45.5,4.4,68.2,0.4
		c-6.6-4.9-14.9-6.6-23.1-7s-16.3,0.5-24.5,0.4c-3.4-0.1-6.8-0.3-9.9-1.7s-5.5-3.9-7.8-6.3c-4.4-4.6-8.8-9.2-13.2-13.7
		c-1.1-1.1-2.1-2.5-3.4-3.5c-1.7-1.3-1.1,1-0.8,2c0.8,3,1.7,6.1,2.5,9.1c0.5,1.7,0.9,3.4,1.4,5.1
		C256.4,840.7,257.3,842.7,257.3,844.2z"/>
	<path class="st1" d="M305.1,769.7c-3.5,1.8-7.4,4.1-8.2,7.9c5.2,2.3,11.3-0.2,16.4-2.6c21-9.9,41.9-19.8,62.9-29.6
		c0.3-0.1-1.7-2.2-2-2.3c-0.8-0.4-1.4-0.1-2.2,0.2c-2.5,0.8-5,1.5-7.4,2.3c-4.9,1.6-9.8,3.3-14.7,5c-9.8,3.5-19.4,7.4-28.9,11.6
		C315.6,764.6,310.3,767.1,305.1,769.7z"/>
	<path class="st0" d="M328,754.4c-13.9,4.7-28,10.4-38.4,20.8c-1.9,1.9-3.7,4.2-3.6,6.8c3.2,0.2,6.3-1.2,9.2-2.5
		c19.4-9.3,38.5-19.6,58.5-27.4c3.9-1.5,7.9-3,11.8-4.8c1.9-0.9,3.8-1.9,5.6-3c0.5-0.3,0.9-0.6,1.4-0.9c0.3-0.2,0.8-0.4,0.3-0.6
		c-0.4-0.2-1,0.1-1.4,0.1c-0.6,0.1-1.1,0.2-1.7,0.3c-4.5,0.8-9.1,1.8-13.6,2.9c-4.5,1.1-8.9,2.3-13.4,3.6c-4.4,1.3-8.8,2.7-13.2,4.1
		C329.1,754,328.5,754.2,328,754.4z"/>
	<path class="st3" d="M592.1,804.4c38.7-1,59.2-2.5,75.8-4.7c11.3-1.5,23.8-4.8,30.4-14.1c10.1-1.2,19.9-5.1,28-11.2
		c5-3.8,9.5-8.4,14.9-11.6c1.5-0.9,3.2-1.8,4.2-3.3c1.8-2.9,0.4-7.5-3-7.4c3.7-2,7.1-4.6,9.9-7.8c0.6-0.7,1.2-1.4,1.4-2.2
		c0.7-2.1-0.7-4.3-2.5-5.5c-3.6-2.3-8.2-1.3-12.4-0.3c-4.6,1.2-9.3,2.3-13.9,3.5c-5.3,1.3-10.7,2.6-16,4c-2.6,0.6-5.2,1.1-7.7,2
		c-1.4,0.5-3,0.5-4.5,0.5c-3,0.1-6.1,0.1-9.1-0.2c-3.3-0.3-6.6-0.8-9.8-1.6c-1.5-0.3-3-0.7-4.4-1.1c-0.7-0.2-1.5-0.4-2.2-0.6
		c0,0-1.3-0.5-1.4-0.4c6.1-2.4,12.4-4.3,18.9-5.6c4.4-0.9,8.8-1.4,13.1-2.2c13.1-2.4,25.9-6.6,37.8-12.6c0.5-0.2,1-0.5,1.4-0.8
		c1.5-1.3,1.5-3.8,0.5-5.6c-1.1-1.7-2.9-2.8-4.8-3.5c-8.3-3.4-17.6-2.3-26.4-0.9c-14.9,2.3-29.4,3.6-44.2,6.9
		c3.8-5.7,7.2-11.7,10-17.9c1.1-2.4,2.1-5.4,0.6-7.5c-6.6-0.4-11.6,5.8-17.6,8.6c-4.3,2-9.3,2.4-13.6,4.5c-2,1-3.9,2.3-5.8,3.4
		c-3.4,1.9-7.2,3-10.7,4.6c-8,3.8-41.6,9.3-52.4,29.4c-5.4,10,0,19.1,0,30.5C576.7,785.3,592.5,804.2,592.1,804.4z"/>
	<path class="st1" d="M651.5,727.4c3.6-2,6.6-5.1,10.5-6.4c1.1-0.4,2.2-0.6,3.2-1.2c1-0.6,1.8-1.6,1.7-2.7c-3.1,1.2-6.2,2.5-9.3,3.7
		c-2.1,0.8-4.2,1.7-6.4,2.2c-2.8,0.7-5.8,0.8-8.6,1.4c-2.9,0.6-5.6,1.7-8.1,3.2c-1.3,0.8-2.5,1.6-3.6,2.6c-0.9,0.8-1.8,1.5-2.3,2.7
		c-0.2,0.7-0.4,1.6,0.6,1.3c1.4-0.5,2.7-1,4.1-1.4c2.9-0.8,5.8-1.3,8.7-2C645.3,729.9,648.5,729,651.5,727.4z"/>
	<path class="st1" d="M660.8,745.4c-0.5,0.3-1.1,0.6-1.4,1.1c-0.3,0.5-0.2,1.3,0.3,1.6c0.2,0.1,0.5,0.1,0.7,0.1c4.5,0,9,0,13.5-0.1
		c6.1,0,12.2-0.1,18.1-1.2c-0.9-0.8-2.2-0.8-3.4-0.8c-4.3,0-8.6-0.6-12.8-2c-1-0.3-2.1-0.7-3.1-1.2c-0.7-0.3-1.3-0.4-1.1-1.3
		c0.1-0.5,0.4-0.8-0.4-0.6c-1.1,0.3-2.2,0.7-3.3,1.2C665.5,743.2,663.1,744.3,660.8,745.4z"/>
	<path class="st1" d="M704,765.8c12-3.7,23-10.3,35.2-13.1c1.5-0.3,3.3-0.8,3.8-2.3c-14.1,0.3-26.2,10-40,12.9
		c-6.1,1.3-12.4,1.1-18.6,2.1c-4.2,0.7-8.4,1.9-12.3,3.7c-1.6,0.8-3.6,1.6-4.9,2.9c-0.6,0.5-0.2,0.7,0.4,0.7c2.6,0,5.3-0.9,7.8-1.3
		c4.4-0.8,8.8-1.4,13.2-2.1c4.6-0.8,9.2-1.7,13.7-2.9C702.9,766.2,703.4,766,704,765.8z"/>
	<path class="st1" d="M686.8,789.6c2.4-0.3,4.8-0.6,6.8-2c0.9-0.7,1.7-1.6,2.8-1.8c1-0.2,2.2,0.1,2.7-0.8c-1.2-0.5-2.5-0.7-3.8-0.8
		c-7.6-0.6-15.1,1.8-22.4,4.3c-1.4,0.5-2.8,0.9-4,1.7c-0.4,0.3-1.3,0.7-0.6,1.1c0.6,0.3,1.7,0,2.4-0.1c3.4-0.3,6.9-0.6,10.3-1
		C682.9,790,684.9,789.8,686.8,789.6z"/>
	<path class="st1" d="M670.5,697.3c-2.1,1.7-4.3,3.4-6.7,4c-0.9,0.2-1.8,0.2-2.4,0c-0.6-0.3-0.9-1-0.5-1.8c0.1-0.5,0.6-0.8,0.8-1.2
		c2.4-3,5.6-5.8,9.1-7.7c1.4-0.8,3.4-1.8,4.5-1.2c0.9,0.5,0.8,1.9,0.2,3C674.5,694.1,672.3,695.8,670.5,697.3z"/>
	<path class="st1" d="M743.4,761.8c-2.3,1.3-4.8,2.6-7.4,2.2c-1-0.2-2-0.6-2.7-1.3c-0.7-0.7-1-1.9-0.6-2.8c0.2-0.6,0.6-0.9,1-1.4
		c2.8-2.9,6.2-5.2,10.1-6.2c1.6-0.4,3.8-0.8,5,0.6c1,1.2,0.8,3,0.2,4.2C747.8,759.3,745.4,760.6,743.4,761.8z"/>
	<path class="st1" d="M747.5,750.4c-2.8,1-5.8,1.8-8.5,0.9c-1.1-0.4-2.1-1-2.7-1.9c-0.5-0.9-0.8-2.2-0.1-3.3
		c0.3-0.5,0.8-0.9,1.3-1.3c3.5-2.7,7.9-4.5,12.2-4.7c1.8-0.1,4.3-0.1,5.3,1.6c0.9,1.4,0.3,3.4-0.6,4.7
		C752.9,748.6,750,749.5,747.5,750.4z"/>
	<path class="st1" d="M735.6,723.2c-2.7,0.7-5.9,1.3-8.4,0c-1-0.5-2-1.2-2.5-2.1c-0.5-1-0.5-2.2,0.2-3.1c0.4-0.5,0.9-0.8,1.4-1.1
		c3.8-2.2,8.1-3.6,12.4-3.4c1.8,0.1,4.2,0.3,5.1,2.1c0.7,1.5-0.1,3.3-1.1,4.6C740.9,721.9,738.1,722.6,735.6,723.2z"/>
</g>
<path class="st4" d="M376.8,398.2c0,0-22.7,6.4-57.6,46.1s-54.2,117.3-64.5,144S217,665.1,217,665.1s6.2-8.9,17.1-6.5
	c11,2.4,25.8,12.8,61.7,8c24.7-3.3,37-14.7,52.7-15.6s37.7,2.6,37.7,2.6s8.2,20.4,7.5,38.2s259.1,1.5,259.1-17.4s3.8-38.7,3.8-38.7
	s37.3,12.2,56.5,4s47.3-1.3,58.3-7.2s30.8-13.4,39.1-10.7c0,0-89.1-178.4-126.1-205.1s-54.8-26-54.8-26s3.1,82.6-105,82.6
	C391.8,473.1,376.8,398.2,376.8,398.2z"/>
<path class="st2" d="M657.2,640c0.3-2.5,0.7-5.1,1.8-7.4c1.2-2.2,3-4,4.8-5.8c20.9-20.2,39.2-43,54.4-67.8
	c-13.4,9.4-25.9,19.9-37.5,31.4c9.6-17.3,19.2-34.6,28.8-51.9c6-10.8,12.2-22.2,12.1-34.6c-21.3,24.4-39.6,51.4-54.5,80.2
	c0.1-4.5,0.2-8.9,0.3-13.4c-4.7,12.6-9.4,25.2-14.1,37.8c1.9-19.4,3.7-38.8,5.6-58.2c-3.1,0.2-4.6,3.7-5.5,6.7
	c-2.3,8.3-4.1,16.7-5.3,25.2c-1.7,12.5-2.1,25.1-2.4,37.6c-0.5,15.9-0.9,31.8-1.4,47.7c-0.1,4.4-4.3,9.7-4,14.1
	c4-1.3,11.6-5,12.5-9.2c1.4-6.5,1.8-13.3,2.7-19.8C656.1,648.4,656.6,644.2,657.2,640z"/>
<path class="st2" d="M363.2,588.6c9.2,10.7,18.3,21.5,27.5,32.2c-11.4-33.5-22.9-67.6-23.6-102.9c8.1,20.5,16.1,41,24.2,61.5
	c0-3.3-0.1-6.6-0.1-9.9c10.5,40.7,15.8,82.7,15.5,124.7c0,3.2-0.1,6.5-1.2,9.6c-1.5,4-4.7,7-6.6,10.8c-2,4.1-0.1,8.3-0.1,8.3
	s-6.5,0.7-10.9,2c0-9.7,6.4-24.4,4.8-43.4c-0.6-7.7-3.9-14.3-5.6-21.7c-1.2-4.8-0.2-9.7-1.2-14.5c-2.6-13-11.1-24.2-16.8-36
	C366,603,363.5,596,363.2,588.6z"/>
<path class="st2" d="M411.7,680c18.6,4.3,38.1,2.4,57.1,0.4c37.6-3.9,75.3-7.8,112.9-11.7c22.3-2.3,44.8-4.7,65.9-12.1
	c1,8.7,1.3,19-5.8,24.2c-3.2,2.3-7.2,3-11.2,3.6c-35.1,5.2-70.5,8.3-105.8,11.5c-10.4,0.9-20.9,1.8-31.3,2.5
	c-32.8,2-65.8,1.2-98.5-2.3c-1.3-6.9-1.7-15.4,0.5-22.2C401.6,673.5,405.5,680,411.7,680z"/>
<path class="st2" d="M261.8,639.5c9.9,0.7,19.8,2.9,29.7,2.4c13-0.6,25.3-5.6,37.7-9.5c12.4-3.9,25.9-6.7,38.3-2.7
	c-13.9-6.5-30-5.7-45.1-3s-30,7-45.4,7.1c-7.7,0-15.4-1-23-0.1c-5.2,0.6-13.1,2.5-16.5,7c-0.3,0.5-1.2,1.9-0.4,2.4
	c0.5,0.3,3.2-1.2,3.8-1.4c3.1-1.1,6.4-1.7,9.6-2C254.2,639.2,258,639.2,261.8,639.5z"/>
<path class="st2" d="M684.2,612.4c8.6,1.8,17,4.9,25.7,4.8c13.7,0,26.3-7.6,39.9-8.9c4.5-0.4,9-0.1,13.4-1
	c8.2-1.7,15.3-7.7,23.6-8.2c-14.5-5.8-30.6,1-46.2,2.6c-5.2,0.5-10.4,0.5-15.5,1.6c-4.8,1.1-9.4,3.2-14.3,4.1
	c-8.7,1.7-17.5-0.6-26.3-1.4c-5.9-0.5-12.2-0.1-17.6,2.4c-0.8,0.4-4.2,2.8-2.4,3.9c0.6,0.4,3.3-0.7,4.1-0.8c1.6-0.2,3.2-0.3,4.8-0.4
	C677.1,611.2,680.7,611.6,684.2,612.4z"/>
<g>
	<path class="st1" d="M461.3,357.2c6.9,7.2,13.9,13.2,23.1,17c6,2.5,12.4,2.6,18.8,3.1c5.1,0.4,10.2,0.8,15.1-0.5
		c11.3-3.1,20.8-8.1,29.8-15.6c4.1-3.4,4.9-8.5,6.8-13.2c-3.3,1-5.4,3.5-8.4,5.1c-12.1,6.4-23.8,11.3-37.7,12.5
		c-8.8,0.8-17.4-1.1-25.8-4.2c-4.8-1.7-8-6.1-12.1-9c-0.6-0.4-1.4-1.3-1.9-1.7c-0.8-0.9-1.6-1.4-2.3-2.2c-1.6-1.6-2.7-2.6-4.3-4.4
		c-1.6-1.8-2.4-2.1-4.5-4.7s-5.2-12.7-8.4-14.3s-1.6,4.1-0.8,6.7c0.9,3.3,4.1,11.6,6.3,15.2C457.2,350.8,458.6,354.4,461.3,357.2z"
		/>
	<path class="st3" d="M449.8,329.5c11.8,31.8,32.1,39.3,63,42.7s43.9-21.5,48.7-44c4.8-22.5,5.5-34.7,10.6-53.4
		c5.1-18.7,7.9-33.8,11.7-52.2c-17.3-10.6-29.3-23.6-48.2-33.3c-18.9-9.7-38.7-18.8-60-7.5c-21.3,11.3-29.8,34.1-47.3,49.2
		C436.8,263.6,438,297.7,449.8,329.5z"/>
	<path class="st5" d="M471.5,273.3c6.4,1.9,13,5.6,19.5,6.4c6.5,0.8,11.8-1.6,18.1-2c-3.6-4-5.3-8.5-10.4-11.2
		c-5.1-2.8-13.2-2.4-18.3-0.8C475.3,267.2,475.1,270.3,471.5,273.3z"/>
	<path class="st0" d="M491.2,273.3c-0.1,3.6-2.7,6.5-6.3,6.6s-6.2-2.4-6.2-6.1s2.8-6.5,6.5-6.6C488.9,267.2,491.4,269.7,491.2,273.3
		z"/>
	<path class="st1" d="M471.7,273.2c3.2-3.5,3.9-7.6,9.1-9.3c6.6-2.1,14.2-1.7,20.5,1.6c4.9,2.6,5.5,7.5,7.9,11.9
		c-5.4-1.9-7.2-3.2-13.7-4.2C489.1,272.3,478.9,271.6,471.7,273.2z"/>
	<path class="st5" d="M533.2,280.5c5.8,2.5,12.5,6.3,18.4,7.4c5.9,1.2,9.5-1,15-1.2c-2.8-3.7-3.5-7.6-7.7-10.3
		c-4.3-2.7-11.3-3.1-16-2C538.3,275.5,536.7,278.1,533.2,280.5z"/>
	<path class="st0" d="M551.8,281.2c-0.1,3.7-3.1,6.2-6.7,6.1c-3.6,0-6.6-2.7-6.4-6.4c0.2-3.7,3.2-6.1,6.9-6.1S552,277.5,551.8,281.2
		z"/>
	<path class="st1" d="M533.3,280.4c3.2-2.8,4.5-6,9.1-7.3c5.9-1.5,12.5-1.8,18.1,1.6c4.3,2.6,4.7,7.4,6.3,11.8
		c-4.8-2.1-6.6-3.8-12.4-4.8C548.5,280.6,539.8,279.8,533.3,280.4z"/>
	<g>
		<path class="st1" d="M535.8,266.2c-2,1.1-2.7,2.4-3.3,4.4c-0.3,1,0.5,0.6,1.1,0.7c3.5,0.8,8.3,0.1,11.4-0.6
			c6.1-1.5,10.8-5.3,16.7-5.4s8.8,4.4,13.7,6.6c-11.5-12.4-13.6-11.8-29.6-9c-2.4,0.4-3.3,1.1-5.2,1.6
			C538.8,265,537.3,265.4,535.8,266.2z"/>
	</g>
	<g>
		<path class="st1" d="M515.1,264.3c0.8,2.3,0.1,3.6-1.3,5.3c-0.6,0.7-1-0.1-1.5-0.5c-2.9-1.7-6-3.3-8.9-5.1
			c-5.6-3.5-10-9.3-16.2-11.5c-6.2-2.2-12.3-0.4-18.6-0.9c18.1-4.7,21.6-2.8,37.5,5.5c2.3,1.2,3.6,1.8,5.4,2.9
			C513.3,261.3,514.4,262.6,515.1,264.3z"/>
	</g>
	<path class="st0" d="M531.7,307.8c0.3-9.6,0.8-19.1,1.3-28.7c0.1-1.5,0.1-3.1,0-4.7c-0.1-1-0.2-2.5-1.5-2.6s-1.6,1.1-1.8,2.1
		c-0.3,1.7-0.4,3.3-0.5,5c-0.1,3.2-0.3,6.4-0.2,9.5c0,3.1,0.2,6.2,0.6,9.3c0.4,3.1,1,6,1.7,8.9C531.4,307,531.6,307.4,531.7,307.8z"
		/>
	<path class="st0" d="M412.2,298.5c-3.9,5.2-8.3,9.7-10.6,16c-2.3,6.3-2.5,12.8-2.8,19.7c-0.2,3.8,0.4,8.9,0.4,13
		c-5.4,19.4-6.5,38-1.5,57.3c1.4,5.4,4.5,8.5,6.7,13c1.7,3.5,2.9,6.3,4.9,9.5c4.9,7.8,11,14.1,17.8,20.2
		c5.2,11.9,11.7,22.2,19.7,32.4c1.1,1.4,2.3,2.5,2.9,4.2c0.5,1.3,0.1,2.7,0.2,4c0.4,9.2,2.2,17.6,5.4,26.2c-0.3,2.6-0.6,5.3-0.4,7.9
		c0.2,2.2,0.4,4.3,0.7,6.4c0.4,2.4,0.7,4.7,1.5,7.1c0.7,1.9,1.9,3.5,2.9,5.3c1.8,3.3,4,6.3,4.3,10.2c0.2,2.6-1.9,4.5-2.7,6.8
		c-0.9,2.6-1.5,5.5-1.6,8.1c-0.1,2.6-0.3,4.9,0.1,7.4c1,6.1,3,11.9,5.2,17.6c-4.7,15.5-6,28.9-2.1,44.8c0.8,3.2,3.8,6.1,4.9,9.4
		c2.8,8.2,4.3,16.8,5.6,25.4c1.1-12.1,4.8-24.2,6.9-36c2.4-13.3,1.1-25.4-0.3-38.6c1.9-2.1,3.6-4.3,4-7.2c0.4-2.8-0.6-5.3-0.9-8
		c4-9.5,8.7-18.8,9.4-29.3c0.6-8.8-3.4-15.2-7.5-22.6c2.6-9,2.7-16.7-0.1-25.8c0,0-0.1,0.6-0.1,0.3c0.5-5.1,1.7-10.2,1.5-15.4
		c-0.1-5.6-2.4-10.1-5.3-14.9c-1.4-2.3-3.2-4.3-4.5-6.6c-0.8-9.5,0.4-18.4-5.5-26.7c-4.8-6.8-12.9-8.8-20.2-12.2
		c-0.4-1.4,0-2.2-0.3-3.6c-1.2-5.2-1.9-10.2-3.6-15.6c-0.9-2.9-1.9-6.2-3.9-9.1s-5.7-5.2-8.8-6.9c2-11.2,2.3-21.9,0.9-33.1
		c3.6-8.2,7.8-16,10.7-24.5c1.7-5.1,1.3-10.4,2.3-15.7c1-5.3,0.4-11,1.4-16.4c1.9-9.3,4.3-19,11.1-25.9
		c21.8-22.1,48.7-34.2,76.6-46.3c5.2,3.2,10.4,5.4,16.2,7.1c4.4,3.3,8.9,5.2,14.4,6.1c0.5,10.4,2,20.5,4.8,30.6
		c-1.7,4.8-4.6,9.1-4.4,14.4c0.2,5.3,3.1,8.4,8,10.2c2.4,0.9,5.2,0,7.1-1.6c5.7-5,11.3-9.7,14.3-16.8c5-11.9,6.8-23.3,5.3-36.2
		c-0.6-5.4-5.3-9.4-7.6-14c0.8-7.5,3-14.7,1.7-22.2s-4.8-13.6-9.9-19.4c-2.8-3.2-7.3-4.6-10.6-7.3c-1.2-5.5-3.2-10.7-7.4-14.3
		c-4.3-3.6-9.2-5.6-13.8-8.4c-6.6-4-12-10.3-19.4-12.7c-14.4-4.6-26.6-2-40.7,1.9c-13.2-0.5-26.1-2.7-38.2,3.8s-16.5,18.2-22.8,29.5
		c-7.2,6.7-15.1,11.3-19.3,20.7c-9,20.3-12.3,41.6-14.5,63.6C403.3,276.9,406.7,288,412.2,298.5z"/>
	<path class="st0" d="M498,309.6c0,1.2,0.1,2.2,0.9,3.2s2,1.6,3.2,1.7c1.3,0.2,2.6-0.1,3.9-0.3c-0.1-0.6-0.2-0.9-0.8-1.3
		c-0.6-0.3-1.2-0.6-1.8-0.9c-0.6-0.3-1.3-0.6-1.6-1.2c-0.6-1-0.5-2.1-0.3-3.2c0.2-0.7,0.6-1.2,0.9-1.9c0.1-0.3,0.2-0.6,0.1-0.8
		c-0.3-0.6-0.9-0.9-1.5-0.8c-0.9,0.1-1.5,0.5-2,1.3C498.4,306.7,498,308.1,498,309.6z"/>
	<path class="st0" d="M524.3,315.2c1.6-0.2,3.4-0.8,5-1.2c0.7-0.2,1.4-0.1,1.7,0.5c0.3,0.6-0.2,0.8-0.7,1.1
		c-1.4,0.9-2.8,1.7-4.3,2.5c-0.9,0.5-1.6,1-2.6,1.2c-1.4,0.3-2.9,0.4-4.4,0.2c-2.6-0.4-5-1.2-7.4-2.1c-0.5-0.2-0.9-0.5-1.3-0.9
		c-0.4-0.4-0.6-0.9-1.1-1.2s-1.1-0.4-1.4-0.8c-0.3-0.4-0.1-0.7,0.4-0.8c1.2-0.1,2.4-0.2,3.6-0.1c2.7,0.3,5.3,1,8,1.4
		C521.2,315.3,522.7,315.4,524.3,315.2z"/>
	<path class="st0" d="M550.7,332.8c0.4-1.3,1-2.4,2.1-3.4c0.3-0.2,0.7-0.3,1,0c0.3,0.3,0.6,0.9,0.4,1.4c-0.6,1.5-1.5,3-2.1,4.5
		c-0.2,0.6-0.3,1.3-0.5,1.8c-0.2,0.5-0.2,1-0.8,1c-0.6,0-0.6-0.3-0.6-0.9c0-0.6-0.1-1.4,0-2.1C550.3,334.4,550.4,333.6,550.7,332.8z
		"/>
	<path class="st0" d="M470.7,320.2c-0.2-1-0.6-1.8-1.4-2.5c-0.2-0.2-0.5-0.2-0.8-0.1c-0.3,0.2-0.5,0.4-0.6,0.8
		c-0.3,0.9-0.5,1.8-0.4,2.8c0.1,0.7,0.5,1.2,0.7,1.9c0.5,1.5,1,3.1,1.3,4.7c0.2,0.8,0.2,1.7,0.4,2.5c0.1,0.4,0.1,1.1,0.7,1.1
		c0.6,0,0.9-0.9,1-1.3c0.2-1.4,0.2-2.6,0.1-3.9C471.4,324.2,471.1,322.2,470.7,320.2z"/>
	<path class="st1" d="M440.5,267.2c8.4-9.3,17.2-18.3,25.1-28.1c3.6-4.4,5.1-9.3,6.6-14.7c0,1.7,0,3.4-0.1,5
		c5.1-4.7,10-9.6,14.6-14.8c-0.4,1.8-0.7,3.7-1.1,5.5c5-5.6,9-11.5,12.2-18.3c0.2,7.3-0.6,14.1-2.4,21.1c3.6-2.7,5.9-5.7,7.7-9.8
		c-1.2,8.8-3.2,17.1-6.2,25.5c11.8-11,19.7-22.7,25.5-37.7c-0.6,6.5-1.7,12.7-3.4,19c6.3-4.5,10.8-9.5,14.7-16.2
		c0,3.1-0.1,6.3-0.3,9.4c3.7-2.4,7.2-5,10.4-8c-2.2,6.6-4.8,13.1-7.8,19.4c3.8-2.3,7-5.1,9.9-8.4c-2.7,4.4-5.7,8.3-9.4,11.9
		c7.3-0.2,13.3-2,19.6-5.7c-4.8,3.8-9.9,6.9-15.5,9.5c5.6,0.7,10.9,1.3,16.2-1c5.4-2.3,9.5-6.4,14.2-9.7c-5.4,5.5-11,10.7-16.9,15.6
		c5.7,3.3,10.7,4.2,17.2,3.2c-1.9,1.5-3.8,2.9-5.7,4.4c8.6-2.2,15.2-6,21.9-11.7c-8,1.8-15.8,2.6-24,2.3c8.5-11.1,15-22.4,19.2-35.7
		c-6.1,7.9-12.8,15-20.1,21.8c0.2-1.6,0.4-3.3,0.7-4.9c-2.2,0.9-4.4,1.7-6.7,2.6c7.1-9,12.6-18.2,16.6-29c-2,3.2-4.3,6.1-6.9,8.9
		c0.9-8.8,0.2-16.7-2.4-25.2c-2,13.6-5.9,25.4-12.9,37.2c1.4-6.1,3-11.9,3.4-18.1c0.2-3.4-1.1-6.3-3-9.2c-2.5,5.7-5,11.4-8.6,16.6
		c-1.1,1.6-2.6,1.9-4.3,1.1c-0.7-0.3-0.6-1.4-1.2-1.8c-0.6-0.4-1-0.3-1.3,0.4c-2.7-7.6-6.1-14.7-10.5-21.5c-0.1,1-0.3,2.1-0.5,3.1
		c-2.1-7.4-5.3-14-9.2-20.6c-0.3,16.4-2.8,31.1-8,46.7c0-4-0.4-7.9-1.2-11.8c-0.6,1.3-1.3,2.5-2.2,3.7c-3-1.1-6.1-2.2-9.1-3.3
		c-4.3,6.3-9.2,11.7-15.1,16.6c2.5-11,4.1-22.1,4.7-33.4c-0.2,1.2-0.4,2.5-0.5,3.7c-0.7-3.9-1.3-7.7-1.8-11.6
		c-0.3-1.9-0.6-3.8-1-5.8c-0.2-1.1-0.5-2.4-0.9-3.5c-0.4,1.6-0.6,3.2-0.9,4.9s-0.8,3.5-1.2,5.3c-0.8,3.6-1.3,7.2-2.1,10.8
		c-1.6,7.2-3,14.4-5,21.5s-4.4,14.2-7.3,21.1c-2.9,6.9-6.4,13.5-10.1,20.2c-3.7,6.6-8.3,13.1-12.2,19.6
		C441.5,265.9,441,266.5,440.5,267.2z"/>
	<path class="st1" d="M426.4,217.6c1.3-10.2,2.8-19.8,5.5-29.9c0.7-2.6,2.1-5.7,4.4-7.5c0.5-0.4,1.8-0.8,2.1,0.3
		c0.3,1.1-0.7,2.4-1.1,3.3c-3,7.1-5.6,14-7.8,21.3C428.4,209.1,427.5,213.4,426.4,217.6z"/>
	<path class="st1" d="M423.3,271.5c1.3,6.9,4.6,13,5.6,20c4,26.3,1.5,51.7-5.4,77.3c1.5-13.7,2.5-27.4,3.4-41.1
		c-1.8,11.6-3.9,23.1-6.6,34.5c1-9.6,1.8-19.3,2.6-28.9c-1.6,5.1-3.1,10.2-5.2,15.1c0.2-3.2,0.5-6.3,1.1-9.4c-0.3,1.1-0.7,2.2-1,3.2
		c0.1-11.7-0.4-23-3.7-34.2c-1.3-4.3-4.9-6.8-6.2-11c-3.7-12-4.9-24.4-6.2-36.9c2,8.6,3.5,17.4,7.6,25.2c3.1,6,7.1,11,9.8,17.2
		c-2.6-11.7-6.1-23-10.5-34.1c5.3,6.4,10,13.2,14.3,20.3c-1.1-7.3-3.8-14.3-4.8-21.6c-1.5-11.4-0.4-22.1,1.6-33.3
		c0.3-1.6,1.1-3,1.6-4.4s1.2-2.6,1.6-4c-1.4,12.1-2.3,23.9-1.5,36.1C421.6,264.7,422.7,268.1,423.3,271.5z"/>
	<path class="st1" d="M418.6,384.1c-4.9-2.6-7.8-5.8-10.2-10.8c5,9.5,10.4,18.6,16.5,27.4c-7.1-5-13-9.3-17.3-17.3
		c-3.7-6.8-6.3-14.5-8.1-22.5s-1.7-16.8-1.9-25.1c0-1.9,0.2-4.1,0.6-5.9c0.2-0.8,0.7-2.2,1.6-1c0.4,0.6,0.1,1.8,0,2.7
		c0,0.9,0,2,0.1,3c0.2,1.9,0.1,4.2,0.5,6.1c1.4,7.5,2.8,15.2,5.6,22.3c2.8,7,6.9,12.9,10.9,19.2C417.3,382.9,418,383.4,418.6,384.1z
		"/>
	<path class="st1" d="M393.1,403.7c4.8,11.4,12.4,14.6,21.1,21.8c-2.7-2.8-5.4-5.5-7.6-8.8c0.6,2,1.3,3.4,3.2,4.5
		c6.1,3.4,12.5,6,18.9,8.7c-3.7-2.9-7.5-5.7-11.1-8.6c4.2,1.8,8.4,2.5,13,2.9c-9-4.8-17.7-6.8-25.4-14.5
		c-5.5-5.5-8.1-15.3-11.2-22.9c-0.9-2.1,0-6.2-0.6-8.5C393,385.7,390.4,397.2,393.1,403.7z"/>
	<path class="st1" d="M443.9,332.7c-4.6,11.2-9.3,22.1-14.7,32.9c0.9-3,1.7-6.1,2.3-9.2c-2.3,9-4.9,17.9-7.9,26.7
		c4.4-5.9,8.6-12.1,12.4-18.5c-1.4,13.2-3.4,26.7-8.5,38.8c-2.4,5.8-4.9,9.6-5.4,15.8c4.4-9,12.1-14.5,15.1-24.4
		c4-13.2,2.3-27.8,4.9-41.6c1.1-5.8,5.3-11.1,7-17.1c2-7.4,3-14.7,3.1-22.6s-0.8-16.3-0.6-24.3c0.1-3.9,0.3-8,0.9-11.9
		c0.1-0.7,0.6-1.8,0.5-2.5s-0.2-0.8-0.7-0.3c-1,1-1.9,2.6-2.2,4c-1.8,8.4-3.2,16.9-3.7,25.5s-1,17-1.8,25.5
		C444.4,330.6,444.3,331.7,443.9,332.7z"/>
	<path class="st1" d="M450.9,450.5c1.6-5.1,3.7-10.4,3.9-15.7c0.2-5.4-1.5-9.7-2.4-15.1c-0.1-0.7-0.5-3-1.7-3.3s-1.6,1.2-1.7,1.7
		c-0.5,4.3-0.7,7.9-0.3,12.1c0.6,6.1,1.5,12.2,2,18.3C450.8,449.1,450.9,449.9,450.9,450.5z"/>
	<path class="st1" d="M475.5,453.9c-3.6-4.8-7.4-9.4-11.3-14c7,12.5,10,24.7,10.3,39.1c1.8-4.1,3.3-8.2,4.4-12.5
		c0,0.4,0.3,0.7,0.6,0.5c0.4-0.2,0.7-0.4,0.6-0.9c-0.7-10.8-1.6-18.9-7.5-28.8c-1.1-1.9-7.5-7.7-9.7-2.4c-0.8,2.1,3.4,3.7,4.8,5
		c1.7,1.8,3,4.3,4.3,6.4c0.7,1.2,1.3,2.5,1.9,3.7S474.9,452.6,475.5,453.9z"/>
	<path class="st1" d="M417.1,444.2c10.2,6.2,21.9,9.8,32.7,14.9c-5.1-5.2-11.2-9.2-17.4-12.9c7.4,1.6,14.8,3.4,21.8,6.2
		c-13.8-8.5-28.5-15.4-41.3-25.3c-2.5-2-2.7-5.1-4.7-7.4c-0.7-0.8-1.3-1.4-2.2-0.8c-1,0.6-1.5,1.8-1.3,2.9
		c1.2,5.5,2.5,10.5,5.7,15.3C412,439.7,414,442.3,417.1,444.2z"/>
	<path class="st1" d="M442.3,480.5c3.7,2.7,7.8,4.7,11.7,7c4.7,2.8,9.3,5.8,13.8,8.9c-3.5-4.5-7.4-8.4-11.9-12
		c4.1,1.5,7.9,3.3,11.6,5.7c-2.3-3.8-5.4-6.1-9.1-8.4c-7.2-4.4-13.9-9.6-20.5-14.9c-0.9-0.7-1.8-1.4-2.5-2.2
		c-0.8-0.8-1.5-1.5-2.3-2.2c0,0.9,0.2,1.8,0.6,2.7c0.6,1.4,1.1,2.6,1.9,3.9c1.4,2.6,2.7,5.3,4.3,7.8
		C440.5,478,441,479.5,442.3,480.5z"/>
	<path class="st1" d="M474.4,515.7c4.7-4.5,9.8-8.6,12.6-14.5c2.2-4.5,1.5-9.2,1.8-14.1c0.1-1.3-0.3-2.5-0.6-3.9
		c-0.2-1-0.8-2.3-1.5-3s-1-0.2-1.1,0.5c-0.5,3.3-0.1,6.8-0.5,10.1c-0.5,4.3-1.7,8.3-3.1,12.5c-0.8,2.2-2.1,4.4-3.3,6.5
		C477.5,512,475.9,513.9,474.4,515.7z"/>
	<path class="st1" d="M455.9,517.3c4.2,4.8,8,9.8,11.2,15.3c-1.1-4.1-2.4-8-4.2-11.8c3.4,1.2,6.8,2.3,10.2,3.5
		c-2.6-3.8-6.3-6.5-9.3-9.9c-5.4-6.1-8.5-12.8-10.9-20.6c-0.3-1,0-2.1,0-3.1s0.4-2.1,0.1-2.9c-0.5-1.2-1.7-0.7-2.4-0.1
		c-1.3,1.1-2.2,2.4-2.6,4c-0.5,2.2-0.9,4.3-0.6,6.5c0.6,4.8,2,9,4.2,13.4c1,1.9,2.8,3.5,3.5,5.7c0.3,1-0.1,2.1-0.1,3.1
		c-0.1,3.8-0.5,7.6-0.2,11.4c0.4,4.1-0.5,8.4,1.9,12c6.7,10.2,15.9,18,24.1,26.8c-5.1-12.2-13.1-23-19.2-34.6
		c-3.1-5.9-3.4-12.3-7.2-17.8"/>
	<path class="st1" d="M473.6,539.8c4.9-2.2,9.4-4.8,12.9-8.8c1.7-2,2-4.4,2.5-6.8c0.3-1.2,0.2-2.4-0.2-3.5c-0.4-1-0.9-0.6-1.4,0.3
		c-1.1,2-2,4.3-3.4,6.4c-1.3,2.1-2.9,4.1-4.5,6.1C477.8,535.7,475.7,537.7,473.6,539.8z"/>
	<path class="st1" d="M485.4,583.4c0.5,0.8-0.2,1.5-1.1,1.8c-0.8,0.3-1.8,0.5-2.7,0.7c-3.9,0.5-7.9,1-11.8,1.5
		c1,2.3,2.1,3.5,4.7,3.9c2.6,0.3,5.3-0.2,7.9,0c0.3,1.6,0.1,2.9-1.5,3.7c-1.6,0.8-3.5,0.8-5.2,0.8c-2.8-0.1-6-0.5-8.4-1.7
		c-2.4-1.2-4.2-3.6-3-6c2.5-4.6,7.1-4.1,11.5-4.6c2.2-0.2,4-0.8,6.1-1.1C483.4,582.1,484.6,582.1,485.4,583.4z"/>
	<path class="st1" d="M589.9,274.2c-2,3.1-5,4.8-7.9,6.9c3.1-0.9,5.9-2.1,8.6-3.9c-1.2,2.9-2.7,5.4-4.8,7.8c1.7-0.5,3.1-1.3,4.6-2.3
		c-4.1,7.8-9.2,13.8-16.1,19.2c3.2-0.7,6.7-1.3,9.6-2.7c2.6-1.3,4-3.5,6.3-5.2c1,1.8,2.1,4.2,1.1,6.2c-6.3,13.1-14.5,21.3-26.7,28.9
		c2.9-2.1,6.1-3.7,8.6-6.4c3.9-4.1,7.1-8.7,9.9-13.7c1.4-2.5,2.3-5.3,3.4-7.9c0.5-1.1,0.7-2.4,1.1-3.6c0.2-0.5,0.4-0.8,0.7-1.3
		c1.5-1.9,3.3-3.5,4.5-5.7c1.5-2.6,2.5-5.4,3.5-8.3c1.1-3.3,2.1-6.5,3.1-9.9c1.6-6,3.1-12,3.7-18.3c0.3-3.4-0.5-6.8-1-10.5
		c-0.1-0.7-0.5-3.1-1.7-3.3c-1.3-0.2-1.1,1.6-1.2,2.2c-0.8,7.2-1.6,14.2-3.8,21C594.2,267.4,592.2,270.8,589.9,274.2z"/>
	<path class="st7" d="M547,328.1c-0.9-4.5-2.3-8.2-5-11.9c-0.7-1-1.9-2.5-3.3-2.7s-1.4,1.2-0.8,2c2.1,2.7,4.2,5.3,6.1,8
		c0.5,0.8,1,1.5,1.5,2.3C546.1,326.5,546.7,327.2,547,328.1z"/>
	<path class="st7" d="M483.3,318.5c1.7-4.3,3.7-7.7,7.1-11c0.9-0.9,2.3-2.1,3.7-2c1.4,0.1,1,1.6,0.3,2.3c-2.5,2.2-5,4.3-7.4,6.6
		c-0.6,0.6-1.2,1.3-1.9,2C484.4,317.1,483.7,317.7,483.3,318.5z"/>
	<path class="st7" d="M511.9,276.2c-0.3-2.2-1.1-4.4-2.6-6s-3-2.5-4.8-3.5c-2.6-1.6-5.1-3-7.8-4.4c-1.2-0.6-2.4-1.2-3.7-1.5
		c-1-0.3-1.8-0.2-2.7,0.4c-0.2,0.2-0.5,0.5-0.5,0.8s0.5,0.6,0.9,0.7c1,0.5,2.1,1,3.1,1.5c2.1,1,4.2,2.1,6.3,3.2c2,1.1,4,2.3,5.9,3.7
		c1.9,1.3,3.6,2.9,5.2,4.5C511.5,275.7,511.8,276,511.9,276.2z"/>
	<path class="st7" d="M555.8,272c0.7-0.1,1.6-0.2,1.7-1c0-0.3-0.2-0.5-0.4-0.7c-1-0.5-2-0.7-3.1-0.6c-4,0.3-7.9,1-11.7,1.9
		c-1.7,0.4-3.5,0.8-5,1.7c-1.8,1.1-2.5,2.8-3.6,4.6c-0.2,0.3-0.8,1.7,0,1.7c0.8,0,0.9-0.8,1.6-1.2c2-1.1,4.1-2.2,6.3-3.1
		c2.2-0.9,4.4-1.6,6.7-2.2c2.3-0.6,4.6-0.8,6.9-1.1C555.2,272,555.5,272,555.8,272z"/>
	<path class="st7" d="M489.4,277c5.2,1.7,10.3,1.9,15.5,1.4c-9.5,5.6-22.4,3.8-30.3-2.4C466.4,269.6,488.4,276.6,489.4,277z"/>
	<path class="st7" d="M543.9,288c5.8,1.6,15.1,1.8,21.6-0.8c-10.2-0.7-19.9-2.2-29.8-5.6C532.4,279.5,540.1,286.9,543.9,288z"/>
	<g>
		<path class="st1" d="M506,336.2c3.3,1.7,6.7,3.2,10.4,3.1c2.2-0.1,4-1.5,5.9-2.2c2.3-0.9,4.8-1.7,6.8-2.6
			c4.1-1.8,7.1-4.3,10.9-6.4c-0.3-0.4-0.7-0.8-1.2-0.8c-5.5,0.2-10.8,1.1-16.3,1.1c-0.9,0-1.7-0.1-2.5,0.4c-1.7,0.9-3,2.3-5.1,2.4
			c-1.1,0-1.8-1.3-2.5-1.9c-1.5-1.1-3.4-2-5.1-2.4c-2.7-0.6-4.9-0.6-7.4-1.6c-2.5-1-4.9-2-7.6-2.6c-0.6-0.1-1.6-0.2-2.2-0.3
			c-0.6-0.1-1.2-0.2-1.7,0.2c-0.5,0.3-0.6,0.6-0.3,1.2c0.3,0.6,1,0.8,1.5,1c2.8,1.5,4.9,2.9,7.1,5.4c2.2,2.4,5.3,4.2,8.2,5.8
			C505.3,335.8,505.5,335.9,506,336.2z"/>
	</g>
	<path class="st0" d="M500.3,345.7c0.6,0.6,1.4,1.1,2.3,1.4c5.6,1.8,11.2,2.8,17.1,2.8c2.5,0,4.6-1,6.9-1.9c0.6-0.3,0.9-0.7,1.1-1.3
		c0.2-0.6-0.1-1.2-0.5-1.5c-0.4-0.3-0.6-0.2-1-0.2c-1.6,0.1-2.9,0.7-4.5,0.9c-3.4,0.4-6.7,0.6-10.1,0.1c-3.4-0.5-6.9-1.6-10.3-2.5
		c-0.6-0.2-1.5-0.7-1.8,0.2S499.6,345.1,500.3,345.7z"/>
</g>
<image style="display:none;overflow:visible;" width="1680" height="900" xlink:href="IMG_0631.PNG"  transform="matrix(0.6603 0.1064 -0.1064 0.6603 166.6979 454.6288)">
</image>
<path class="st1" d="M803.1,794.7c-0.3,2.2-0.7,4.4-1.8,6.3c-1.4,2.3-3.8,3.8-6.1,5c-20.4,10.7-44.7,9.7-67.6,8.4
	c5.9-5.6,14.1-8.4,22.1-9.7c8.1-1.3,16.3-1.4,24.4-2.5c3.3-0.5,6.7-1.1,9.6-2.9c2.9-1.8,5-4.5,7-7.2c3.8-5.1,7.7-10.1,11.5-15.2
	c0.9-1.2,1.8-2.8,2.9-3.9c1.5-1.5,1.2,0.9,1,1.9c-0.5,3.1-0.9,6.2-1.4,9.3c-0.3,1.7-0.5,3.5-0.8,5.2
	C803.7,791.1,803,793.2,803.1,794.7z"/>
<path id="RECJXTR_NTKTDJYF" class="st8" d="M691.8,648.1l56.6-10.7L710.8,627c-4.1-1.1-8.4,0.7-10.3,4.5L691.8,648.1z"/>
</svg>
