<?xml version="1.0" encoding="utf-8"?>
<!-- Generator: Adobe Illustrator 25.2.0, SVG Export Plug-In . SVG Version: 6.00 Build 0)  -->
<svg version="1.1" id="Layer_3" xmlns="http://www.w3.org/2000/svg" xmlns:xlink="http://www.w3.org/1999/xlink" x="0px" y="0px"
	 viewBox="0 0 998.2 973.2" style="enable-background:new 0 0 998.2 973.2;" xml:space="preserve">
<style type="text/css">
	.st0{fill:#285BAA;}
	.st1{fill:#26394B;}
	.st2{fill:#8F6014;}
	.st3{fill:#76A1A9;}
	.st4{fill:#F18F24;}
	.st5{fill:#FFFFFF;}
	.st6{fill:#00022E;}
	.st7{fill:#678C91;}
</style>
<g>
	<path class="st0" d="M562,366.5c0.9,1,1.9,2,2.5,3.2s0.8,2.6,1.1,3.9c1.6,7.3-0.6,19.5,4.2,25.3c1.9,2.3,4.6,3.6,7.4,4.7
		c6.3,2.4,27.9,13.8,31.1,7.8c2.8-5.2-4.3-32.8-4.7-38.7c-1-14.4-11.7-27-12-41.4c-0.2-6.3,1.7-12.4,2.3-18.7
		c0.8-8.7,2.3-18.3,0.8-26.9c-1-5.9-5.2-11.4-9.7-15.3c-3.1-2.7-10-18.6-14-18.7c-12.6-0.4-21.6,22.9-27.1,34.2s-5.3,24.7-1.9,36.8
		c1.8,6.4,4.7,12.8,9.4,17.6c0.9,0.9,2,1.7,2.6,2.8c0.5,1.1,0.4,2.4,0.4,3.5c0.1,3.4,0.8,6.7,2,9.9
		C557.5,360.3,559.4,363.6,562,366.5z"/>
	<path class="st1" d="M580.7,376.7c-7.3-2.5-13.4-6.2-19.3-11.2c-2.5-2.1-4.1-4.6-4.5-8c1.7,0.5,3.3,1.1,4.9,1.8
		c-0.2-3.6-0.3-7.2-0.1-10.8c0.1-1.8,0.5-3.4,1.1-5.2c0.4-1.1,1.6-9.5,3.8-7.4c1.7,1.6-0.7,8-0.8,10.1s-0.2,3.5,0.2,5.2
		c1.4,6.6,3.6,12.2,7.2,17.9c1,1.6,2.4,2.7,3.7,4.4C577.8,374.5,579.3,376.2,580.7,376.7z"/>
	<path class="st1" d="M578.8,358.7c5.2-3.2,9.3-8.2,11.4-14c0.2,6.1-1.3,12.2-4.2,17.5c2.2-1.5,4-3.7,4.8-6.2
		c1.1,5.1,0.8,10.4-1,15.3c6.7-9.2,8.4-21.9,4.5-32.6c-0.6-1.7-1.4-3.4-1.8-5.3c-0.8-3.9,0.2-7.8,0.6-11.6c0.4-3.6-2.3,0.2-2.8,1.5
		c-1.5,3.5-2,7.5-3.1,11.1c-1.1,3.9-2.4,7.7-3.7,11.5C582.2,350.2,580.6,354.5,578.8,358.7z"/>
</g>
<path class="st2" d="M247.8,683.4c13.1,6.6,28.5,7.2,43,5.2s28.6-6.4,42.9-9.4c6.1-1.3,12.3-2.3,18.2-4.5c5.7-2.1,10.9-5.2,16.1-8.3
	c6.4-3.8,12.8-7.6,19.2-11.4c1.3-0.8,2.7-1.7,3.1-3.2c0.3-1.3-0.2-2.5-0.9-3.7c-4.7-8.8-13.8-14.7-23.3-17.5
	c-9.6-2.8-19.7-2.9-29.7-2.5c-11.5,0.5-22.9,1.8-34.2,3.7c-11.4,1.9-22.7,4.6-33.8,7.9c-11.1,3.3-22,7.3-32.6,12
	c-4.8,2.1-10.3,4-14.4,7.4c-2.5,2.1-6,6-4.3,9.6c2.1,4.1,9.3,3.8,13.1,5.3c5,1.9,9.4,4.9,14,7.6
	C245.4,682.2,246.6,682.8,247.8,683.4z"/>
<path class="st2" d="M811.8,623.2c-2.8,1-5.4,2.6-7.6,4.6c-3,2.7-5.3,6.2-8,9.2c-8.6,9.9-21.1,15.7-33.9,18.5
	c-12.8,2.8-26,2.8-39.1,2.8c-9,0-18,0-27.1,0c-8.5,0-17.2,0-25.3-2.5s-15.8-7.8-19.1-15.6c-0.3-0.7-0.6-1.5-0.4-2.3
	c0.3-1.3,1.6-2.1,2.7-2.7c33.3-17.7,70.4-33.2,107.7-27.2c8.9,1.4,17.5,4.1,26.2,6.7c4.3,1.3,8.7,2.6,13,4c1.9,0.6,4.2,1,5.9,2
	C808.3,621.4,810,622.3,811.8,623.2z"/>
<path class="st3" d="M460,311.7c0,0,3.5,43.3-25.3,57.7s-69,36.6-69,36.6l22.6,62.4l77.3,41.8h141.5l45.4-112.7
	c0,0-61.9-10.9-82.5-22.8c-27.1-15.5-12.7-57.2-12.7-57.2L460,311.7z"/>
<path class="st2" d="M449.2,455.4c8.6,2.4,17.5,3.7,26.4,5s17.7,2.5,26.6,3.8c7.8,1.1,15.7,2.2,23.6,2.2c17.3,0,34.2-5.5,50.2-12.2
	c11-4.6,22-10.2,29.7-19.3c4.9-5.8,8.2-12.8,11.4-19.7c3.8-8.2,7.6-16.3,11.4-24.5c5.3,8.8,2.6,20.2-1.6,29.6
	c-12,27.4-35.4,49.7-63.5,60.3c-25.3,9.6-53.2,9.9-80.3,8.4c-12.4-0.7-25-1.7-36.7-5.7c-9.3-3.2-17.9-8.3-26.1-13.8
	c-8.9-6-17.6-12.8-22.5-22.3c-2.8-5.4-4.2-11.4-7.3-16.6c-4.9-8.1-14.9-14.3-16.5-24.1c-1.1-6.7,8.8-7.3,12.1-3.4
	c3,3.5,4.9,8.1,7.5,11.9c2.5,3.7,5.2,7.2,8.2,10.5c5.9,6.6,12.7,12.4,20.1,17.3s15.5,8.8,23.9,11.5
	C447,454.8,448.1,455.1,449.2,455.4z"/>
<path class="st0" d="M504.3,357.8c34.8,4.4,51-18.6,55.2-30c-2.8-3.7-8.5-2.9-13.1-1.9c-5.7,1.3-11.4,2.2-17.1,2.7
	c-5.8,0.5-11.6,0.7-17.5,0.4c-5.8-0.3-11.6-1-17.3-2.1c-5.7-1.2-24-20.3-29.3-22.4c-5.4-2.1-5.2,6.7-5.1,7.1
	C460.3,312.7,461.9,352.4,504.3,357.8z"/>
<path class="st4" d="M386.3,653.5c0,0,8.2,20.4,7.5,38.2S370.2,794.1,373,804.4c2.7,10.3,65.7,8.2,99.7,8.2s125.8-13.7,167-7.5
	s59.6,2.1,63.1,0.7c3.4-1.4-49.7-112.5-49.7-131.4s3.8-38.7,3.8-38.7L386.3,653.5z"/>
<g>
	<path class="st3" d="M775.5,611.1c0,0,38.1,123.2,31.6,155.7s12.8,48.3-74.5,50.4s-262.1-36.3-282.4-31.7
		c-20.2,4.6-30.1,18.3-87.8,20.8c0,0-55.3,17.7-58.2,9.1c-2.4-7.2,5.1-8.8,5.1-8.8s-35.4,8.4-38.7,1.3c-3.6-7.8,4.9-10.8,4.9-10.8
		s-12.9,4.3-14.7-1.1c-2.7-8.2,14.4-14.3,14.4-14.3s1.1-12.2,23.3-23.6c22.2-11.5,26.3-14.5,26.3-14.5s-5-10.4,1.9-11.3
		c2.8-0.3,11.4,3.5,24.9,2.5c0,0,43.8-13.9,87.9-15.9c0,0,165.4-13,236.3-11c0,0-6.7-79.6-9-107.8L775.5,611.1z"/>
	<path class="st1" d="M746.9,726.4c3.7,1.3,7.9,3.2,9.1,6.9c-4.9,2.9-11.2,1.2-16.6-0.7c-22-7.3-44-14.7-65.9-22
		c-0.3-0.1,1.5-2.4,1.7-2.6c0.8-0.5,1.4-0.2,2.2-0.1c2.6,0.5,5.1,0.9,7.7,1.4c5.1,1,10.1,2.1,15.2,3.2c10.1,2.4,20.1,5.1,30.1,8.2
		C735.9,722.6,741.4,724.4,746.9,726.4z"/>
	<path class="st1" d="M488.7,791.8c-13.5-2.4-37.5-4.3-42.2-3.2c-4.8,1.2-9.1,3.5-13.5,5.6c-14.3,6.9-29.6,11.5-45.3,13.8
		c-9.7,1.4-19.8,1.8-29-1.7c12.9-2.5,25.7-5.1,38.6-7.6c8.4-1.7,17-3.4,24.6-7.2c5.4-2.7,10.3-6.5,15.9-8.8
		c9.6-3.9,45.6,3.8,55.9,4.6L488.7,791.8z"/>
	<path class="st1" d="M345.7,793.3c1.1-0.6,2.3-1.2,3.1-2.1c0.9-0.9,1.3-2.3,0.9-3.5c-2.9,0-5.3,1.9-7.6,3.6
		c-5.1,3.6-10.9,6.3-17,7.9c-3.3,0.9-6.7,1.5-9.8,2.7c-1.5,0.6-3,1.3-4.3,2.3c-0.5,0.3-1.6,1.1-1.8,1.6c-0.2,0.5,0.5,0.5,0.9,0.4
		c1.8-0.1,3.7-0.8,5.5-1.3c2-0.5,4-1.1,5.9-1.7c3.9-1.2,7.8-2.6,11.6-4.1c3.8-1.5,7.6-3.2,11.3-5
		C344.8,793.7,345.3,793.5,345.7,793.3z"/>
	<path class="st1" d="M276,797c2.5-3.2,6.8-4.5,10.7-5.7c15.8-4.8,31.4-10.4,46.6-16.9c2.9-1.2,5.8-2.5,8.9-3.4
		c1.1-0.3,2.2-0.5,3.3,0c0.7,0.3,1.4,0.9,0.7,1.6c-0.5,0.5-1.3,0.7-1.9,1c-0.7,0.3-1.4,0.6-2.1,0.9c-1.4,0.6-2.8,1.2-4.2,1.8
		c-2.8,1.1-5.6,2.2-8.5,3.2c-5.7,2-11.5,3.7-17.3,5.4s-11.6,3.3-17.4,5.1c-5.7,1.8-11.4,3.8-17,6.2C277.5,796.4,276.3,796.7,276,797
		z"/>
	<path class="st1" d="M340.2,752.3c-0.5,0.8-1.3,1.3-2.1,1.8c-3.7,2.4-7.4,4.7-11.3,6.6c-4.8,2.3-10,4-15,5.7
		c-12.2,4.2-24.2,9.3-35.8,15c0.4-2.1,2.4-3.4,4.2-4.5c17.5-10.1,37.5-15.2,55-25.3c1.2-0.7,2.7-2,4.1-2S340.7,751.4,340.2,752.3z"
		/>
	<path class="st1" d="M332.6,740.1c2.6-0.9,5.2-1.9,7.9-2.4c3.8-0.7,7.9-0.7,11-2.9c-6.5,0.6-12.8,2.1-19.2,3.6
		c-1.5,0.4-3,0.7-4.3,1.6c-0.8,0.5-1.6,1.3-2.2,2.1c-0.6,0.9,0.6,0.8,1.1,0.5C328.8,741.5,330.7,740.8,332.6,740.1z"/>
	<path class="st1" d="M371.6,734.6c-4.4,1.2-8.7,2.5-13.2,2.9c-2.5,0.2-5.6-0.2-6.7-2.5c0.9-1.1,2.3-1.5,3.7-1.8
		c8.8-2.2,17.7-4.4,26.5-6.6c4.6-1.1,9.2-2.3,13.8-3.1c6.2-1.1,12.5-1.7,18.8-2.3c2.8-0.3,5.5-0.5,8.3-0.8c2.3-0.2,4.9-0.8,7.3-0.5
		c0.3,0,1.7,0.1,1.8,0.5c0.1,0.4-1.8,0.6-2.1,0.7c-2.7,0.5-5.4,1.1-8.1,1.7c-5.4,1.1-10.8,2.3-16.2,3.5c-5.4,1.2-10.7,2.4-16.1,3.7
		c-5.3,1.3-10.7,2.7-16,4.1C372.9,734.2,372.2,734.5,371.6,734.6z"/>
	<path class="st0" d="M521.1,793.7c-6.7-1-13.6-2-19.6-5.1c-0.7-0.4-1.3-0.7-1.6-1.4c-0.4-1,0.3-2.3,1.3-2.8
		c1.1-0.5,2.3-0.4,3.3-0.2c7.4,0.8,14.6,2.8,21.8,4.4c4.4,0.9,8.8,1.7,13.2,2.3s8.9,1.2,13.4,1.8s9,1.1,13.5,1.8s8.9,1.4,13.3,2.4
		c2.2,0.4,4.3,1,6.6,1.5c1.1,0.3,2.1,0.6,3.2,0.9c0.5,0.2,2.3,0.3,2.3,1c0.1,0.6-0.9,1.1-1.3,1.3c-0.9,0.3-2.2,0.2-3.2,0.2
		c-2.3,0-4.6,0.1-7,0c-4.7-0.1-9.3-0.4-14-0.9s-9.3-1.1-14-1.8s-9.3-1.5-14-2.2c-4.6-0.8-9.3-1.6-13.9-2.3
		C523.4,794,522.2,793.9,521.1,793.7z"/>
	<path class="st0" d="M722.4,713.9c14.4,3,29.1,7,40.6,16.2c2.1,1.6,4.2,3.7,4.4,6.3c-3.1,0.6-6.4-0.4-9.4-1.4
		c-20.4-6.9-40.5-14.9-61.4-20.3c-4.1-1.1-8.2-2-12.3-3.4c-2-0.7-4-1.4-5.9-2.3c-0.5-0.2-1-0.5-1.5-0.7c-0.3-0.2-0.8-0.3-0.4-0.6
		c0.3-0.2,1-0.1,1.4,0c0.6,0,1.1,0.1,1.7,0.1c4.6,0.3,9.2,0.7,13.8,1.3c4.6,0.5,9.1,1.2,13.7,2c4.5,0.8,9.1,1.6,13.6,2.5
		C721.3,713.6,721.8,713.8,722.4,713.9z"/>
	<path class="st1" d="M271,807c-1.6-0.6-3.3-2-3.4-3.8c-0.2-2.2,2.1-3.6,3.7-4.7c4-2.4,8.9-3.3,13.6-3.2c0.7,0.1,1.3,0.1,1.9,0.4
		c1.2,0.5,1.8,1.8,1.8,3s-0.5,2.3-1.2,3.3c-1.9,2.5-5.1,3.6-8.1,4.3C276.7,807.1,273.6,808,271,807z"/>
	<path class="st1" d="M303.6,813.8c-1.3-0.5-2.7-1.6-2.8-3.1c-0.1-1.8,1.7-3,3.1-3.8c3.3-2,7.3-2.7,11.2-2.6c0.5,0.1,1.1,0,1.6,0.3
		c0.9,0.4,1.5,1.5,1.5,2.4c0,1-0.4,1.9-1,2.7c-1.5,2-4.2,2.9-6.7,3.6C308.3,813.8,305.8,814.6,303.6,813.8z"/>
	<path class="st1" d="M323.1,733.5c-1-0.8-1.7-1.9-1.2-2.8c0.7-1,2.9-1,4.5-0.9c3.9,0.2,8,1.3,11.5,2.9c0.5,0.2,1,0.4,1.3,0.8
		c0.7,0.6,0.7,1.4,0.3,1.9c-0.4,0.5-1.3,0.9-2.2,1.1c-2.3,0.5-5.2,0-7.7-0.6C327.4,735.3,324.7,734.7,323.1,733.5z"/>
	<path class="st1" d="M261.5,794.8c-1.6-0.5-3.4-1.8-3.6-3.5c-0.3-2.2,1.9-3.8,3.4-4.9c3.9-2.7,8.7-3.9,13.4-4c0.7,0,1.3,0,2,0.2
		c1.2,0.5,1.9,1.7,2,2.8c0.1,1.2-0.4,2.4-1,3.4c-1.7,2.6-4.9,3.9-7.8,4.8C267.2,794.6,264.2,795.6,261.5,794.8z"/>
	<path class="st1" d="M268.6,784.9c-1.4-0.3-3.1-1.2-3.4-2.7c-0.5-1.8,1.2-3.4,2.4-4.5c3-2.7,7-4.2,11.1-4.8c0.6,0,1.1-0.1,1.7,0
		c1.1,0.3,1.8,1.2,2,2.2s-0.1,2-0.5,3c-1.2,2.4-3.8,3.8-6.2,4.9C273.4,784.1,270.9,785.3,268.6,784.9z"/>
</g>
<path class="st0" d="M593.3,799.8c6.2,0.5,12.4,0.3,18.6,0.2c17.6-0.4,35.2-0.8,52.8-1.1c5.7-0.1,11.5-0.3,17.2-1.2
	c7.5-1.2,14.7-3.7,21.7-6.6c13.2-5.4,26-12,36.4-21.8c3.4-3.2,6.5-6.6,10.1-9.4c4.5-3.4,9.9-5.7,13.7-9.9s5.6-11.1,1.8-15.3
	c-2.1-2.2-5.2-3.1-8.2-3.6c-10.2-1.7-20.7-0.7-31,0.5c-21,2.6-41.9,6.6-62.5,11.8c-14.2,3.6-28.2,7.8-42.2,12
	c-12.1,3.6-24.4,7.3-35.4,13.5c-6.4,3.5-12.6,8.3-16.1,14.8c-1.2,2.3-3.2,6-1.9,8.6c1.8,3.4,6.5,4.2,9.9,5
	C583.2,798.6,588.2,799.4,593.3,799.8z"/>
<path class="st0" d="M537.2,414.3c3.7-11.1,7.3-22.2,11-33.3c2.4-7.5,5-15.1,6.5-22.9c0.4-2,0.7-4,0.9-5.9c0.1-1.2,0.6-3,0.2-4.2
	c-0.6-1.5-1.8,0.2-2.4,0.9c-3.6,4.5-5.2,10-6.8,15.3c-2.3,7.6-4.2,15.5-5.7,23.3c-1.5,7.9-2.7,15.8-3.3,23.8
	C537.4,412.4,537.3,413.4,537.2,414.3z"/>
<path class="st0" d="M667.8,734.5c-11.2-1.5,27.8-29,16.5-29.1c-60.2-0.7-160.2,11.5-221.2,16.6c-13.3,1.1-30.7,5.6-45,6.6
	c-10,0.7-30.2,9.2-40.1,10.2c-15.8,1.5-29.3,11.7-41.9,21.5c2.9-0.2,5.7-0.4,8.6-0.7c113.2-8.8,229.3-17.4,342.9-16.5
	c2.8,0,5.6,0,8.3-0.6c0.8-0.2,2-0.5,1.8-1.6s-1.9-1-2.8-1.1c-5.8-1.1-11.6-2.5-17.4-3.7C674.3,735.6,671.1,735,667.8,734.5z"/>
<path class="st0" d="M524.7,432.2c1,0.5,1.8-0.8,2.1-1.9c2.2-8.7,2.3-17.8,2.2-26.7c0-1,0.6-4.3-1-3.9s-1.9,2.6-2.1,3.8
	c-0.8,4.5-1.3,9-1.5,13.6c-0.1,2.6-0.2,5.1-0.1,7.7c0,1.2,0.1,2.5,0.2,3.7C524.5,428.9,524.4,432,524.7,432.2z"/>
<g>
	<path class="st5" d="M772.5,656.8l-48,96.3c-3.2,6.5-10.4,9.9-17.5,8.2l-49.8-11.6L645.6,736l54.9-104.5c1.9-3.7,6.1-5.5,10.1-4.4
		l50.5,13.8c2.1,0.6,3.9,1.8,5.3,3.4l5.3,6.3C773.2,652.4,773.5,654.8,772.5,656.8z"/>
	<circle class="st6" cx="748.4" cy="689" r="4.5"/>
	<path class="st6" d="M761,673.1c-3.3,6.8-6.9,9.2-9.2,8.1c-2.4-1.2-2.6-5.5,0.7-12.2c3.3-6.8,6.3-8.1,8.7-7
		C763.6,663.1,764.3,666.3,761,673.1z"/>
	<path class="st3" d="M578.6,722c-145.2,1.3-134.9,10.5-205,20.8c0,0-2.7-79.9-3.8-108.1l-106.6,23.8c0,0-23.4,126.8-13,158.3
		c10.3,31.5-7.1,49.4,79.9,41.3c86.9-8.2,283.3-78.4,303.9-76.2C634,781.9,635.1,721.5,578.6,722z"/>
	<path class="st1" d="M257.3,844.2c0.6,2.1,1.2,4.3,2.5,6.1c1.6,2.1,4.2,3.3,6.7,4.3c21.5,8.3,45.5,4.4,68.2,0.4
		c-6.6-4.9-14.9-6.6-23.1-7s-16.3,0.5-24.5,0.4c-3.4-0.1-6.8-0.3-9.9-1.7s-5.5-3.9-7.8-6.3c-4.4-4.6-8.8-9.2-13.2-13.7
		c-1.1-1.1-2.1-2.5-3.4-3.5c-1.7-1.3-1.1,1-0.8,2c0.8,3,1.7,6.1,2.5,9.1c0.5,1.7,0.9,3.4,1.4,5.1
		C256.4,840.7,257.3,842.7,257.3,844.2z"/>
	<path class="st1" d="M305.1,769.7c-3.5,1.8-7.4,4.1-8.2,7.9c5.2,2.3,11.3-0.2,16.4-2.6c21-9.9,41.9-19.8,62.9-29.6
		c0.3-0.1-1.7-2.2-2-2.3c-0.8-0.4-1.4-0.1-2.2,0.2c-2.5,0.8-5,1.5-7.4,2.3c-4.9,1.6-9.8,3.3-14.7,5c-9.8,3.5-19.4,7.4-28.9,11.6
		C315.6,764.6,310.3,767.1,305.1,769.7z"/>
	<path class="st0" d="M328,754.4c-13.9,4.7-28,10.4-38.4,20.8c-1.9,1.9-3.7,4.2-3.6,6.8c3.2,0.2,6.3-1.2,9.2-2.5
		c19.4-9.3,38.5-19.6,58.5-27.4c3.9-1.5,7.9-3,11.8-4.8c1.9-0.9,3.8-1.9,5.6-3c0.5-0.3,0.9-0.6,1.4-0.9c0.3-0.2,0.8-0.4,0.3-0.6
		c-0.4-0.2-1,0.1-1.4,0.1c-0.6,0.1-1.1,0.2-1.7,0.3c-4.5,0.8-9.1,1.8-13.6,2.9c-4.5,1.1-8.9,2.3-13.4,3.6c-4.4,1.3-8.8,2.7-13.2,4.1
		C329.1,754,328.5,754.2,328,754.4z"/>
	<path class="st3" d="M591.1,787.7c38.7-1,59.2-2.5,75.8-4.7c11.3-1.5,23.8-4.8,30.4-14.1c10.1-1.2,19.9-5.1,28-11.2
		c5-3.8,9.5-8.4,14.9-11.6c1.5-0.9,3.2-1.8,4.2-3.3c1.8-2.9,0.4-7.5-3-7.4c3.7-2,7.1-4.6,9.9-7.8c0.6-0.7,1.2-1.4,1.4-2.2
		c0.7-2.1-0.7-4.3-2.5-5.5c-3.6-2.3-8.2-1.3-12.4-0.3c-4.6,1.2-9.3,2.3-13.9,3.5c-5.3,1.3-10.7,2.6-16,4c-2.6,0.6-5.2,1.1-7.7,2
		c-1.4,0.5-3,0.5-4.5,0.5c-3,0.1-6.1,0.1-9.1-0.2c-3.3-0.3-6.6-0.8-9.8-1.6c-1.5-0.3-3-0.7-4.4-1.1c-0.7-0.2-1.5-0.4-2.2-0.6
		c0,0-1.3-0.5-1.4-0.4c6.1-2.4,12.4-4.3,18.9-5.6c4.4-0.9,8.8-1.4,13.1-2.2c13.1-2.4,25.9-6.6,37.8-12.6c0.5-0.2,1-0.5,1.4-0.8
		c1.5-1.3,1.5-3.8,0.5-5.6c-1.1-1.7-2.9-2.8-4.8-3.5c-8.3-3.4-17.6-2.3-26.4-0.9c-14.9,2.3-29.4,3.6-44.2,6.9
		c3.8-5.7,7.2-11.7,10-17.9c1.1-2.4,2.1-5.4,0.6-7.5c-6.6-0.4-11.6,5.8-17.6,8.6c-4.3,2-9.3,2.4-13.6,4.5c-2,1-3.9,2.3-5.8,3.4
		c-3.4,1.9-7.2,3-10.7,4.6c-8,3.8-41.6,9.3-52.4,29.4c-5.4,10,0,19.1,0,30.5C575.7,768.6,591.6,787.5,591.1,787.7z"/>
	<path class="st1" d="M650.5,710.7c3.6-2,6.6-5.1,10.5-6.4c1.1-0.4,2.2-0.6,3.2-1.2c1-0.6,1.8-1.6,1.7-2.7c-3.1,1.2-6.2,2.5-9.3,3.7
		c-2.1,0.8-4.2,1.7-6.4,2.2c-2.8,0.7-5.8,0.8-8.6,1.4c-2.9,0.6-5.6,1.7-8.1,3.2c-1.3,0.8-2.5,1.6-3.6,2.6c-0.9,0.8-1.8,1.5-2.3,2.7
		c-0.2,0.7-0.4,1.6,0.6,1.3c1.4-0.5,2.7-1,4.1-1.4c2.9-0.8,5.8-1.3,8.7-2C644.3,713.2,647.6,712.3,650.5,710.7z"/>
	<path class="st1" d="M659.8,728.7c-0.5,0.3-1.1,0.6-1.4,1.1c-0.3,0.5-0.2,1.3,0.3,1.6c0.2,0.1,0.5,0.1,0.7,0.1c4.5,0,9,0,13.5-0.1
		c6.1,0,12.2-0.1,18.1-1.2c-0.9-0.8-2.2-0.8-3.4-0.8c-4.3,0-8.6-0.6-12.8-2c-1-0.3-2.1-0.7-3.1-1.2c-0.7-0.3-1.3-0.4-1.1-1.3
		c0.1-0.5,0.4-0.8-0.4-0.6c-1.1,0.3-2.2,0.7-3.3,1.2C664.6,726.5,662.2,727.5,659.8,728.7z"/>
	<path class="st1" d="M703,749.1c12-3.7,23-10.3,35.2-13.1c1.5-0.3,3.3-0.8,3.8-2.3c-14.1,0.3-26.2,10-40,12.9
		c-6.1,1.3-12.4,1.1-18.6,2.1c-4.2,0.7-8.4,1.9-12.3,3.7c-1.6,0.8-3.6,1.6-4.9,2.9c-0.6,0.5-0.2,0.7,0.4,0.7c2.6,0,5.3-0.9,7.8-1.3
		c4.4-0.8,8.8-1.4,13.2-2.1c4.6-0.8,9.2-1.7,13.7-2.9C701.9,749.5,702.5,749.3,703,749.1z"/>
	<path class="st1" d="M685.9,772.9c2.4-0.3,4.8-0.6,6.8-2c0.9-0.7,1.7-1.6,2.8-1.8c1-0.2,2.2,0.1,2.7-0.8c-1.2-0.5-2.5-0.7-3.8-0.8
		c-7.6-0.6-15.1,1.8-22.4,4.3c-1.4,0.5-2.8,0.9-4,1.7c-0.4,0.3-1.3,0.7-0.6,1.1c0.6,0.3,1.7,0,2.4-0.1c3.4-0.3,6.9-0.6,10.3-1
		C682,773.3,683.9,773.1,685.9,772.9z"/>
	<path class="st1" d="M669.5,680.6c-2.1,1.7-4.3,3.4-6.7,4c-0.9,0.2-1.8,0.2-2.4,0c-0.6-0.3-0.9-1-0.5-1.8c0.1-0.5,0.6-0.8,0.8-1.2
		c2.4-3,5.6-5.8,9.1-7.7c1.4-0.8,3.4-1.8,4.5-1.2c0.9,0.5,0.8,1.9,0.2,3C673.5,677.4,671.4,679.1,669.5,680.6z"/>
	<path class="st1" d="M742.4,745.1c-2.3,1.3-4.8,2.6-7.4,2.2c-1-0.2-2-0.6-2.7-1.3s-1-1.9-0.6-2.8c0.2-0.6,0.6-0.9,1-1.4
		c2.8-2.9,6.2-5.2,10.1-6.2c1.6-0.4,3.8-0.8,5,0.6c1,1.2,0.8,3,0.2,4.2C746.9,742.6,744.4,743.9,742.4,745.1z"/>
	<path class="st1" d="M746.6,733.7c-2.8,1-5.8,1.8-8.5,0.9c-1.1-0.4-2.1-1-2.7-1.9s-0.8-2.2-0.1-3.3c0.3-0.5,0.8-0.9,1.3-1.3
		c3.5-2.7,7.9-4.5,12.2-4.7c1.8-0.1,4.3-0.1,5.3,1.6c0.9,1.4,0.3,3.4-0.6,4.7C751.9,731.9,749.1,732.8,746.6,733.7z"/>
	<path class="st1" d="M734.6,706.5c-2.7,0.7-5.9,1.3-8.4,0c-1-0.5-2-1.2-2.5-2.1c-0.5-1-0.5-2.2,0.2-3.1c0.4-0.5,0.9-0.8,1.4-1.1
		c3.8-2.2,8.1-3.6,12.4-3.4c1.8,0.1,4.2,0.3,5.1,2.1c0.7,1.5-0.1,3.3-1.1,4.6C740,705.2,737.1,705.9,734.6,706.5z"/>
</g>
<path class="st4" d="M376.8,398.2c0,0-22.7,6.4-57.6,46.1s-54.2,117.3-64.5,144S217,665.1,217,665.1s6.2-8.9,17.1-6.5
	c11,2.4,25.8,12.8,61.7,8c24.7-3.3,37-14.7,52.7-15.6s37.7,2.6,37.7,2.6s8.2,20.4,7.5,38.2s259.1,1.5,259.1-17.4s3.8-38.7,3.8-38.7
	s37.3,12.2,56.5,4s47.3-1.3,58.3-7.2s30.8-13.4,39.1-10.7c0,0-89.1-178.4-126.1-205.1s-54.8-26-54.8-26s3.1,82.6-105,82.6
	C391.8,473.1,376.8,398.2,376.8,398.2z"/>
<path class="st2" d="M657.2,640c0.3-2.5,0.7-5.1,1.8-7.4c1.2-2.2,3-4,4.8-5.8c20.9-20.2,39.2-43,54.4-67.8
	c-13.4,9.4-25.9,19.9-37.5,31.4c9.6-17.3,19.2-34.6,28.8-51.9c6-10.8,12.2-22.2,12.1-34.6c-21.3,24.4-39.6,51.4-54.5,80.2
	c0.1-4.5,0.2-8.9,0.3-13.4c-4.7,12.6-9.4,25.2-14.1,37.8c1.9-19.4,3.7-38.8,5.6-58.2c-3.1,0.2-4.6,3.7-5.5,6.7
	c-2.3,8.3-4.1,16.7-5.3,25.2c-1.7,12.5-2.1,25.1-2.4,37.6c-0.5,15.9-0.9,31.8-1.4,47.7c-0.1,4.4-4.3,9.7-4,14.1
	c4-1.3,11.6-5,12.5-9.2c1.4-6.5,1.8-13.3,2.7-19.8C656.1,648.4,656.6,644.2,657.2,640z"/>
<path class="st2" d="M363.2,588.6c9.2,10.7,18.3,21.5,27.5,32.2c-11.4-33.5-22.9-67.6-23.6-102.9c8.1,20.5,16.1,41,24.2,61.5
	c0-3.3-0.1-6.6-0.1-9.9c10.5,40.7,15.8,82.7,15.5,124.7c0,3.2-0.1,6.5-1.2,9.6c-1.5,4-4.7,7-6.6,10.8c-2,4.1-0.1,8.3-0.1,8.3
	s-6.5,0.7-10.9,2c0-9.7,6.4-24.4,4.8-43.4c-0.6-7.7-3.9-14.3-5.6-21.7c-1.2-4.8-0.2-9.7-1.2-14.5c-2.6-13-11.1-24.2-16.8-36
	C366,603,363.5,596,363.2,588.6z"/>
<path class="st2" d="M411.7,680c18.6,4.3,38.1,2.4,57.1,0.4c37.6-3.9,75.3-7.8,112.9-11.7c22.3-2.3,44.8-4.7,65.9-12.1
	c1,8.7,1.3,19-5.8,24.2c-3.2,2.3-7.2,3-11.2,3.6c-35.1,5.2-70.5,8.3-105.8,11.5c-10.4,0.9-20.9,1.8-31.3,2.5
	c-32.8,2-65.8,1.2-98.5-2.3c-1.3-6.9-1.7-15.4,0.5-22.2C401.6,673.5,405.5,680,411.7,680z"/>
<path class="st2" d="M261.8,639.5c9.9,0.7,19.8,2.9,29.7,2.4c13-0.6,25.3-5.6,37.7-9.5c12.4-3.9,25.9-6.7,38.3-2.7
	c-13.9-6.5-30-5.7-45.1-3s-30,7-45.4,7.1c-7.7,0-15.4-1-23-0.1c-5.2,0.6-13.1,2.5-16.5,7c-0.3,0.5-1.2,1.9-0.4,2.4
	c0.5,0.3,3.2-1.2,3.8-1.4c3.1-1.1,6.4-1.7,9.6-2C254.2,639.2,258,639.2,261.8,639.5z"/>
<path class="st2" d="M684.2,612.4c8.6,1.8,17,4.9,25.7,4.8c13.7,0,26.3-7.6,39.9-8.9c4.5-0.4,9-0.1,13.4-1
	c8.2-1.7,15.3-7.7,23.6-8.2c-14.5-5.8-30.6,1-46.2,2.6c-5.2,0.5-10.4,0.5-15.5,1.6c-4.8,1.1-9.4,3.2-14.3,4.1
	c-8.7,1.7-17.5-0.6-26.3-1.4c-5.9-0.5-12.2-0.1-17.6,2.4c-0.8,0.4-4.2,2.8-2.4,3.9c0.6,0.4,3.3-0.7,4.1-0.8c1.6-0.2,3.2-0.3,4.8-0.4
	C677.1,611.2,680.7,611.6,684.2,612.4z"/>
<g>
	<path class="st1" d="M465.2,354c7.6,6.9,15.7,12.6,25.4,15.9c6.4,2.1,12.7,1.8,19.3,1.9c5.2,0,10.3,0.2,15.2-1.5
		c11.3-3.9,20.5-9.8,29-18.3c3.8-3.8,4.6-9.1,6-14.1c-3.3,1.3-5.2,4-8.1,6c-11.6,7.9-23,13.8-37.1,15.8c-9,1.3-17.7-0.2-26.4-2.9
		c-5-1.5-8.9-5.8-13.3-8.5c-0.7-0.4-1.6-1.2-2.1-1.6c-0.9-0.8-1.7-1.4-2.5-2.1c-1.7-1.5-2.9-2.5-4.4-4.2c-1.6-1.7-1.9-1.9-4-4.3
		s-5.9-13.3-8.5-14.7s-1.3,4.1-0.4,6.5c1.1,3.1,3.8,12.3,5.7,16.1C460.6,347.9,462.2,351.3,465.2,354z"/>
	<path class="st3" d="M453.7,326.2c12.5,31.6,33.3,39.1,65.4,39.9s43.9-27.4,46.5-50.7c2.6-23.3,1.6-35.2,4.1-54.9
		c2.5-19.6,2.4-35.5,2.9-54.8c-18.7-8.6-34.6-21.3-54.4-28.2c-19.8-6.9-43.1-13.9-61.3,0.2s-22,37.8-36.3,54.7
		C433.9,263.4,441.2,294.6,453.7,326.2z"/>
	<path class="st5" d="M470.6,270.2c6.8,1.4,14,4.8,20.7,5c6.8,0.2,11.7-2.6,18.1-3.7c-4.2-3.7-6.6-8.2-12.2-10.5
		c-5.5-2.3-14.1-1.3-19.1,0.9S473.8,266.8,470.6,270.2z"/>
	<path class="st0" d="M494.1,260.8c4.3-0.5,7.9,2.4,8.4,6.7c0.5,4.3-2.4,8-6.7,8.5c-4.3,0.5-7.9-2.4-8.4-6.7
		C487,265,489.8,261.3,494.1,260.8z"/>
	<path class="st1" d="M470.6,270.1c3-3.7,2.6-7.8,7.7-10c6.5-2.8,14.4-3,21.3-0.3c5.3,2.1,6.9,7.1,9.8,11.5
		c-4.6-1.9-7.7-5.5-12.9-5.6C487.2,265.7,479.3,267.3,470.6,270.1z"/>
	<path class="st5" d="M533.2,271.5c5.9,1.9,13,5,18.8,5.5c5.8,0.5,8.7-2.3,14-3.1c-3.1-3.5-4.1-7.4-8.6-9.7
		c-4.5-2.3-11.6-1.8-16.1-0.1S536.2,268.6,533.2,271.5z"/>
	<path class="st0" d="M552.3,262.7c3.9-0.4,7.2,2.3,7.6,6.2c0.4,3.9-2.1,7.2-6.1,7.6c-3.9,0.4-7.2-2.3-7.6-6.2
		S548.3,263.1,552.3,262.7z"/>
	<path class="st1" d="M533.2,271.3c2.6-3.3,3-6.7,7.4-8.6c5.6-2.4,12-3.5,17.9-0.7c4.6,2.2,5.6,7.1,7.6,11.4
		c-4.8-2-6.3-5.5-12.3-5.7S539.5,269.8,533.2,271.3z"/>
	<g>
		<path class="st1" d="M538,248.6c-2,1.1-2.7,2.4-3.2,4.4c-0.2,0.9,0.5,0.6,1.1,0.7c3.1,0.7,6.5,1.2,9.6,2
			c5.9,1.6,13.1,1.4,18.1,4.8c5,3.4,4,9.1,6.9,13.7c-1.6-19.4-4.7-19-21.5-25.6c-2.5-1-3.7-0.8-5.7-1.1
			C541.1,247.2,539.6,247.8,538,248.6z"/>
	</g>
	<g>
		<path class="st1" d="M510.7,245.9c2.3,1.2,2.9,2.5,3.1,4.8c0.1,0.9-0.8,0.5-1.5,0.6c-3.4,0.7-7,1.6-10.4,2.3
			c-6.8,1.3-14.6,0-20.9,2.6c-6.3,2.6-9.4,7.9-14.4,12c10.4-17.1,14.2-16.4,32.3-21.3c2.6-0.7,4-1.1,6.2-1.6
			C507.2,244.9,508.9,245,510.7,245.9z"/>
	</g>
	<path class="st0" d="M534.4,299.3c-0.4-9.7-0.9-19.4-1.6-29.1c-0.1-1.6-0.4-3.2-0.8-4.9c-0.2-1-0.6-2.6-1.9-2.5
		c-1.3,0.1-1.3,1.5-1.3,2.5c0,1.7,0.2,3.5,0.4,5.1c0.3,3.2,0.5,6.5,1,9.7c0.4,3.2,0.8,6.2,1.4,9.3c0.6,3.1,1.5,5.9,2.4,8.9
		C534.1,298.5,534.3,298.9,534.4,299.3z"/>
	<path class="st0" d="M414.7,298c-3.1,5-7.1,9.2-8.7,14.9s-1.1,11.5-0.6,17.6c0.3,3.4,1.6,7.8,1.9,11.4c-3.9,18.4-3,34.3,3.6,52
		c1.8,4.9,5.5,8.7,8,13.2c1.9,3.6,3.5,7.1,5.3,10.8c4.3,9,9.9,17,15.8,25c2.5,14,6.6,26.6,11.4,39.9c0.7,1.8,1.4,3.5,1.4,5.1
		c0.1,1.7-0.6,3-0.9,4.3c-2.2,9.4-2.6,17.5-0.4,26.9c-0.8,2.4-1.4,4.8-1.5,7.4c-0.1,2.1-0.2,4-0.2,6.1s0,4.5,0.5,6.8
		c0.4,1.8,1.4,3.6,2.2,5.3c1.5,3.2,3.5,6.3,3.4,10c-0.1,2.6-2.3,3.9-3.3,6.1c-1,2.2-1.7,5.1-1.8,7.5c-0.1,2.5-0.5,4.6-0.1,7
		c1,5.9,3.5,11.4,6.1,16.8c-3.8,15.1-2.9,27.8,2.3,42.6c1.1,3,4.2,5.5,5.5,8.5c3.4,7.7,5.3,15.7,7,23.9c0-11.7,3.5-23.6,4.8-34.9
		c1.5-12.8-1.2-23.5-4.4-35.7c1.7-1.9,3.2-3.8,3.4-6.4c0.2-2.6-0.8-4.6-1.3-7c4-8.3,8.9-15.8,10.5-25c1.3-7.8-1.9-14-5.3-20.8
		c4.3-7.8,5.6-14.4,4-23.1c0,0-0.2,0.6-0.1,0.2c1.6-5,3.6-9.3,4.6-14.7c1.1-5.7,0.1-11.4-1.7-17.1c-0.9-2.7-2.1-5.6-2.8-8.4
		c1.8-10.9,4.8-21.9,0.2-32.3c-3.8-8.6-11-13.5-17.7-19.2c-0.2-1.7,0.3-2.9,0.1-4.8c-0.5-6.5-1-12.9-3.4-19.2
		c-1.2-3.4-2.1-6.9-4.6-9.9s-6.5-5.1-10-6.9c1.3-10.2-0.1-19.7-3.2-29.5c2.5-7.5,5.1-13.9,6.8-21.9c1-4.6,0.5-10,1-15.1
		c0.5-5.1-0.3-10.5,0-15.7c0.6-9.1,2.5-18.4,8.2-25.7c18.4-23.5,42.9-39.3,67.9-54.8c5.6,2.7,11.2,4.4,17.4,5.4
		c4.9,3,9.5,4.4,15.2,4.5c2.1,10.7,5.3,20.8,9.6,30.9c-1,5.1-3.3,10-2.4,15.3c0.9,5.3,4.1,8.4,9.3,9.5c2.6,0.5,5-0.6,6.8-2.6
		c5.1-5.8,9.7-11.3,11.7-19c3.4-12.9,3.6-25,0-38c-1.5-5.4-6.8-9-10-13.4c-0.2-7.8,0.6-15.5-1.9-23.1c-2.5-7.6-6.8-13.3-12.9-18.4
		c-3.5-2.9-8.3-3.8-12.2-6c-1.9-5.5-4.9-10.5-9.9-13.6s-10.3-4.4-15.5-6.6c-7.3-3.1-13.5-8.6-21.3-10.1c-15-2.9-26.6,1.4-40,7.8
		c-13.1,1-25.8,0.6-36.8,8.8c-11,8.2-13.4,19.9-17.3,32.2c-6.2,7.2-12.8,12.9-15.3,22.5c-5.6,20.8-5.8,41.7-4.4,63.2
		C402.4,279.5,407.3,288.9,414.7,298z"/>
	<path class="st0" d="M501,304c0.1,1.3,0.2,2.2,1,3.1c0.8,1,2.1,1.4,3.4,1.4c1.3,0.1,2.6-0.4,3.9-0.6c-0.1-0.6-0.3-0.9-0.8-1.2
		c-0.6-0.3-1.3-0.5-1.9-0.8c-0.6-0.3-1.3-0.6-1.7-1.1c-0.7-1-0.7-2-0.4-3.2c0.1-0.7,0.6-1.3,0.8-1.9c0.1-0.3,0.2-0.6,0.1-0.8
		c-0.3-0.6-1-0.8-1.5-0.6c-1,0.2-1.5,0.7-1.9,1.5C501.2,301.2,500.8,302.7,501,304z"/>
	<path class="st0" d="M527.5,307.5c1.6-0.4,3.4-1.1,5-1.7c0.7-0.2,1.4-0.3,1.7,0.4c0.3,0.7-0.2,0.8-0.7,1.2c-1.3,1-2.7,2-4.1,3
		c-0.8,0.6-1.6,1.2-2.5,1.5c-1.4,0.4-2.8,0.7-4.3,0.5c-2.6-0.2-5-0.8-7.5-1.6c-0.5-0.2-1-0.5-1.4-0.9s-0.7-0.9-1.1-1.2
		c-0.4-0.3-1.2-0.3-1.5-0.7c-0.3-0.4-0.1-0.7,0.4-0.8c1.2-0.2,2.4-0.4,3.6-0.4c2.7,0.1,5.3,0.5,8,0.8
		C524.5,307.8,525.9,307.9,527.5,307.5z"/>
	<path class="st0" d="M557.3,325.1c0.4-1.3,0.8-2.6,1.8-3.7c0.3-0.3,0.6-0.4,1-0.1c0.4,0.3,0.6,0.8,0.4,1.3
		c-0.6,1.6-1.2,3.2-1.8,4.8c-0.2,0.6-0.2,1.4-0.4,1.9c-0.2,0.5-0.1,1-0.7,1.1c-0.6,0.1-0.6-0.2-0.6-0.8c0-0.6-0.2-1.4-0.1-2.2
		S557.1,325.9,557.3,325.1z"/>
	<path class="st0" d="M471.1,322.3c-0.2-1-0.6-1.8-1.4-2.4c-0.3-0.2-0.5-0.2-0.7,0c-0.3,0.2-0.4,0.5-0.5,0.9c-0.2,0.9-0.5,2-0.3,2.8
		c0.1,0.8,0.4,1.2,0.7,1.9c0.5,1.5,1,3,1.3,4.7c0.1,0.8,0.1,1.6,0.4,2.5c0.1,0.4,0.1,1.1,0.8,1.1c0.6,0,0.9-1,1-1.5
		c0.1-1.3,0.2-2.6,0-3.8C471.9,326.2,471.5,324.3,471.1,322.3z"/>
	<path class="st1" d="M438.5,266.5c7.2-9.7,14.4-19.3,20.2-29.9c2.7-4.8,3.3-10,3.5-15.4c0.3,1.7,0.7,3.4,1,5.1
		c4.2-5.3,7.9-10.8,11.1-16.7c0,1.9,0.1,3.8,0.1,5.7c4-6.3,6.5-12.8,7.9-20.1c1.9,7.3,2.8,14.3,2.4,21.8c3.3-3.2,4.7-6.5,5.4-11
		c1,9.1,0.9,17.8-0.5,26.8c10.2-12.8,15-25.6,17-41.8c0.9,6.6,1.2,13.2,0.9,19.9c5.6-5.3,8.9-11,11.2-18.4c0.8,3.2,1.3,6.4,1.7,9.7
		c3.3-2.9,6.2-6,8.8-9.5c-0.8,7-2.1,14-3.7,20.9c3.4-2.9,6-6,8.3-9.8c-1.7,4.9-3.9,9.3-6.9,13.5c7.4-0.9,12.8-3.3,18.4-8.3
		c-3.9,4.6-8.3,8.3-13.5,11.6c5.7,0.3,11,0.2,15.9-2.9c4.9-3.1,8.2-7.8,12.2-11.8c-4.3,6.3-8.9,12.3-13.9,18.1
		c6.2,3,11.1,3.5,17.6,1.2c-1.6,1.7-3.2,3.5-4.8,5.2c8.5-3,14-7.9,19.6-14.8c-7.6,3.1-15.1,4.8-23.3,5.4c6.7-12.5,11-24.8,12.8-38.9
		c-4.8,8.7-10.1,16.9-16.3,24.7c-0.1-1.7-0.2-3.4-0.2-5.1c-2.1,1.1-4.2,2.3-6.2,3.4c5.7-10.1,9.6-20.1,11.5-31.6
		c-1.5,3.5-3.3,6.8-5.5,9.9c-0.4-9.1-2.5-17-6.6-25.1c0.4,13.9-1.3,26.3-6.6,39.2c0.3-6.4,0.8-12.5,0.1-18.9c-0.4-3.6-2.2-6.5-4.8-9
		c-1.5,6.1-3,12.1-5.6,17.9c-0.8,1.8-2.4,2.4-4.3,1.7c-0.7-0.3-0.9-1.3-1.6-1.7c-0.7-0.4-1.1-0.3-1.3,0.5c-4.1-7.5-9-14.2-14.8-20.4
		c0,1,0,2.1,0.1,3.1c-3.2-6.9-7-13.1-11.8-19c1.6,16,2,31.6,0,47.7c-0.8-4.2-2.1-8-3.8-11.9c-0.3,1.4-0.7,2.7-1.4,4
		c-3.2-0.7-6.3-1.4-9.5-2.1c-2.8,7-6.3,13-11.2,18.7c0.2-11.4-0.4-22.6-1.7-33.9c0,1.2,0,2.5,0,3.7c-1.3-3.7-2.5-7.4-3.6-11.2
		c-0.5-1.9-1.1-3.6-1.7-5.6c-0.3-1-0.7-2.4-1.4-3.3c-0.2,1.7-0.1,3.2-0.2,5c-0.1,1.7-0.3,3.6-0.4,5.4c-0.2,3.6-0.4,7.3-0.5,10.9
		c-0.3,7.4-0.2,14.8-0.9,22.1c-0.7,7.3-1.3,14.7-2.8,21.9s-3.6,14.2-6.1,21.2c-2.5,6.9-5.9,13.5-8.9,20.3
		C439.3,265,438.9,265.7,438.5,266.5z"/>
	<path class="st1" d="M416.3,219.6c-0.6-10.1-0.6-19.7,0.3-29.9c0.2-2.6,1-5.9,2.9-8c0.5-0.5,1.7-1,2.1,0c0.5,1-0.3,2.5-0.5,3.4
		c-1.7,7.3-3,14.4-3.9,21.8C416.8,211.1,416.7,215.4,416.3,219.6z"/>
	<path class="st1" d="M421.9,272.1c2.4,6.1,6.2,12.3,8.2,18.5c7.6,23.2,8.2,46.6,3.5,70.5c0-12.3-0.7-24.5-1.3-36.8
		c-0.5,10.4-1.1,20.6-2.5,30.9c0-8.6-0.3-17.2-0.8-25.7c-0.7,4.6-1.9,9.1-3.3,13.6c-0.3-2.8-0.2-5.6,0-8.4c-0.2,1-0.4,1.9-0.7,2.9
		c-0.9-10.8-2.7-20.7-7.3-30.7c-1.8-3.8-5.6-6.1-7.8-9.8c-6-10.5-8.5-21.9-11.7-33.5c3.3,7.9,5.6,16,11.2,22.8
		c4.2,5.1,9.1,9.3,12.3,15.2c-4.1-10.9-9.2-21-15.4-30.8c6.4,5.3,12.1,11.1,17.2,17.7c-2-6.9-5.6-13.1-7.8-20
		c-3.4-10.6-3.9-21.2-3.6-32.3c0-1.5,0.6-3,0.8-4.5c0.2-1.4,0.8-2.6,1-4c0.5,11.9,1.5,23.4,4.3,34.9
		C419.2,265.7,420.7,268.9,421.9,272.1z"/>
	<path class="st1" d="M430.4,374.6c-5.1-2.2-8.4-4.9-11.3-9.7c5.9,8.7,12.4,16.8,19.2,24.8c-7.5-4.2-14.1-8.5-19.1-15.7
		c-4.3-6.2-7.4-12.8-10.1-19.9s-3.6-14.5-4.8-22c-0.3-1.7-0.3-3.5,0-5.2c0.1-0.8,0.5-2,1.5-1c0.5,0.5,0.2,1.6,0.3,2.5
		c0.1,0.8,0.2,1.8,0.4,2.6c0.4,1.7,0.6,3.6,1.2,5.4c2.2,6.7,4.4,13.4,7.9,19.6c3.5,6.2,8,11.5,12.6,17
		C428.9,373.5,429.8,373.9,430.4,374.6z"/>
	<path class="st1" d="M406.2,393.5c5.7,10.9,14.3,15.4,23.2,22.7c-2.9-3.3-5.8-6.3-8.2-9.9c0.6,2.2,1.7,3.8,3.6,5
		c6.1,3.8,12.5,7.3,18.7,10.9c-3.4-3.8-6.7-7.5-10.5-10.8c4.2,2.1,8.3,3.3,13,4c-8.9-6.1-18.4-9-26.9-16.4c-6.1-5.3-8.9-14.7-13-22
		c-1.1-2-0.4-5.7-1.3-7.8C405.4,376.4,403,387.2,406.2,393.5z"/>
	<path class="st1" d="M448.8,329c-3,10.1-5.6,19.6-9.9,29.2c0.6-2.7,1-5.4,1.1-8.1c-1.1,8-2.6,15.9-4.7,23.6
		c3.8-5.2,7.1-10.6,10.1-16.3c0.5,12.3,0,23.8-4,35.5c-1.9,5.7-4.5,10.3-3.9,16.5c3.2-8.8,10.9-15.4,13.1-24.6
		c2.9-12.3-1.4-24.7-0.8-37.3c0.3-5.2,3.4-9.6,4.2-15.2c1.1-6.9,1.9-14.3,1.4-21.8c-0.6-7.5-2.4-15.5-2.9-23.2
		c-0.3-3.8-0.5-7.7-0.4-11.6c0-0.7,0.3-1.9,0.1-2.6c-0.2-0.7-0.3-0.8-0.7-0.3c-1,1.1-1.5,2.8-1.6,4.2c-0.9,8.2-1.2,16.4-0.9,24.6
		s0.3,16.3,0.1,24.4C449.2,327,449.1,328.1,448.8,329z"/>
	<path class="st1" d="M462,451c2.6-6.1,5.3-11.8,6.1-18.5c0.8-6.7-0.3-12.9-0.8-19.8c-0.1-0.8-0.1-4.1-1.4-4.6
		c-1.4-0.5-1.6,1.5-1.8,2.2c-0.9,5.3-1.1,10.1-1.2,15.3c0,7.7-0.1,15.2-0.7,22.9C462.2,449.2,462.2,450.2,462,451z"/>
	<path class="st1" d="M484.6,458.9c-2.6-6.2-5.6-12.1-8.7-18.1c5.7,16,5.6,30.6,1.6,47.1c3-4.2,5.4-8.5,7.4-13.2
		c-0.1,0.4,0,0.9,0.5,0.6c0.4-0.2,0.7-0.4,0.8-1c2.2-12.4,3.1-22.3-1.6-34.7c-0.9-2.4-6.2-10.6-9.3-5.3c-1.2,2.1,2.8,5.1,3.9,7
		c1.5,2.4,2.3,5.5,3.2,8.2c0.5,1.5,0.8,3.1,1.1,4.7C484,455.7,484.3,457.3,484.6,458.9z"/>
	<path class="st1" d="M430.8,438c8.9,8.4,18.8,15.3,28.4,22.7c-3.8-6.9-8.4-12.8-14-18.4c6.9,3.2,13.3,6.7,19.3,11.3
		c-11.5-12.7-24.7-23.5-36.7-35.6c-2.4-2.4-2.8-6-4.9-8.6c-0.7-0.8-1.3-1.7-2.4-1c-1.1,0.7-1.4,2-1.2,3.3c1.1,6.2,2.6,12,5.3,17.7
		C426.2,432.6,428.1,435.5,430.8,438z"/>
	<path class="st1" d="M447.1,482.9c2.5,3.7,5.7,6.7,8.8,10c3.7,4,7,8.5,11,12.1c-2.9-5.1-5-10.3-8.4-15.1c3.5,2.5,6.7,5.2,9.5,8.5
		c-0.9-4.5-3.4-7.7-6.4-10.9c-5.8-6.3-10.1-13.3-15.2-20c-0.7-0.9-1.2-1.9-1.8-2.9s-1-2.1-1.7-3c-0.3,1-0.2,2.2,0,3.1
		c0.3,1.7,0.5,3.1,0.8,4.7c0.6,3,1.3,5.9,2.2,8.9C446.3,479.8,446.2,481.6,447.1,482.9z"/>
	<path class="st1" d="M470.1,524c5.5-3.2,11.2-5.9,15.1-11c3-3.9,3.3-8.8,4.4-13.4c0.3-1.2,0.2-2.6,0.2-3.9c0-1.2-0.3-2.7-0.7-3.7
		s-0.9-0.3-1.2,0.4c-1.3,3.2-1.7,7.1-2.8,10.4c-1.4,4.2-3.2,7.6-5.4,11.3c-1.2,2-2.8,3.6-4.3,5.4C473.9,521,472.1,522.6,470.1,524z"
		/>
	<path class="st1" d="M451.5,522.3c3.6,5.1,6.7,10.2,9,16c-0.4-4-1.2-7.8-2.4-11.6c3.2,1.6,6.5,3.2,9.7,4.9c-2-4.1-5.3-6.9-7.9-10.6
		c-4.7-6.6-6.7-13.6-6.6-21.8c0-1.1,0.5-2.2,0.8-3.2c0.2-1,1-2.1,0.9-3.1c-0.1-1.4-1.5-1.1-2.3-0.7c-1.6,0.9-2.8,2-3.5,3.6
		c-1,2.1-2.1,4.3-2.3,6.5c-0.5,4.8,0.1,9.1,1.4,13.7c0.6,2,2.2,3.8,2.6,5.9c0.2,1-0.5,2-0.6,2.9c-0.6,3.5-1.6,7.1-1.8,10.7
		c-0.2,4-1.8,7.8,0.3,11.6c5.7,10.5,14.4,18.3,22.7,26.8c-4.6-11.6-12.3-21.8-16.9-33.5c-2.3-5.9-1.3-12.2-4.6-17.8"/>
	<path class="st1" d="M466.2,545.6c5.1-1.2,9.9-2.9,14-6.2c2-1.6,2.5-3.5,3.5-5.7c0.4-1,0.5-2.1,0.3-3.1c-0.2-1-0.8-0.7-1.4,0
		c-1.4,1.7-2.7,3.5-4.3,5.2c-1.6,1.7-3.5,3.3-5.3,4.8C470.8,542.5,468.5,544.1,466.2,545.6z"/>
	<path class="st1" d="M476.2,585.7c0.6,0.8-0.2,1.3-1,1.6c-0.8,0.3-1.7,0.4-2.7,0.5c-3.8,0.3-7.8,0.8-11.6,1.2
		c1,2.3,2.4,3.3,4.9,3.6c2.5,0.3,5.3-0.2,7.9,0c0.6,1.4,0.4,2.6-1.1,3.3c-1.5,0.8-3.4,0.8-5.1,0.8c-2.8,0-6.1-0.4-8.5-1.5
		c-2.4-1.1-4.6-3.3-3.4-5.7c2.2-4.6,7.1-3.8,11.2-4c2.1-0.1,3.9-0.6,5.9-0.8C474,584.5,475.3,584.5,476.2,585.7z"/>
	<path class="st1" d="M587,258.2c-1.6,3.4-4,5.6-6.8,8c2.9-1.3,5.5-2.9,7.8-5.1c-0.7,3.2-1.8,5.9-3.5,8.6c1.6-0.7,2.9-1.7,4.1-2.9
		c-2.6,8.7-6.7,15.3-13.1,21.7c3-1.1,6.5-2.2,9.1-3.9c2.5-1.7,3.4-4.1,5.4-6.2c1.2,1.8,2.6,4,1.9,6.2c-4.1,14.6-11.2,23.9-23.3,32.9
		c2.7-2.6,5.8-4.6,8.1-7.6c3.5-4.7,6.1-9.8,8.3-15.2c1.1-2.7,1.7-5.7,2.3-8.6c0.3-1.2,0.3-2.6,0.6-3.9c0.1-0.5,0.2-0.8,0.6-1.4
		c1.2-2.1,2.7-4,3.7-6.4c1.1-2.8,1.7-5.9,2.2-9c0.6-3.5,1.1-6.9,1.5-10.6c0.7-6.4,1.4-12.7,1-19.3c-0.2-3.5-1.4-6.9-2.5-10.5
		c-0.2-0.7-0.9-3.2-2.2-3.2c-1.3,0-0.9,1.8-0.8,2.5c0.4,7.5,0.4,14.7-0.6,22C589.9,250.5,588.7,254.4,587,258.2z"/>
	<path class="st7" d="M544.6,277.1c1.8,0.7,3.4,1.6,5.3,1.8c5.7,0.6,10.3-1.8,15.2-4.6c-3.4,0.3-6.6,1.2-10,1.8
		c-3.4,0.6-6.7,0.6-10.1-0.4c-1.6-0.5-3-1.4-4.7-1.8c-0.2-0.1-0.6-0.2-0.8,0c-0.2,0.2-0.1,0.4,0,0.6c0.1,0.3,0.5,0.4,0.8,0.5
		c0.3,0.2,0.9,0.4,1.2,0.6C542.7,276.2,543.7,276.7,544.6,277.1z"/>
	<path class="st7" d="M485.5,271.2c1.8-0.3,3.4-0.8,5.2-1.1c6.6-1,12.5-1.2,18.7,1.3c-5.1,3.2-10.3,6.3-16.4,6.6
		c-5.4,0.2-10.2-1-15.3-2.6c-1.4-0.4-2.5-0.9-3.9-1.6c-0.9-0.5-2.4-1.3-2.4-2.5c0-0.6,0.4-0.7,0.9-0.6c0.8,0.1,1.6,0.3,2.5,0.4
		c1.7,0.2,3.3,0.4,5,0.5C481.7,271.6,483.7,271.5,485.5,271.2z"/>
	<path class="st5" d="M491,320.3c0,0,10.3,7.7,13.4,11c1.7,1.8,9.5,0.5,16.8,0c6.1-0.4,11.9,0.4,13-0.8c2.5-2.6,6-10.1,10.7-11.3
		c0,0-20.6,1.4-20.7,2s-14.5,3.6-15.8,2.8C507.1,323.2,491,320.3,491,320.3z"/>
	<path class="st7" d="M542.1,273c6.4-0.4,12.4-2.7,18.9-2c2.2,0.2,4,1.3,5.3,3.2c0.1,0.2,0.2,0.3,0.1,0.5c0,0.3-0.4,0.6-0.8,0.7
		c-3.3,1.3-6.4,2.7-9.9,3.3c-3.5,0.7-6.9,0.6-10.3-0.6c-2.1-0.8-3.9-2.1-5.9-3c-0.9-0.4-1.8-0.7-2.7-1c-0.5-0.2-0.9-0.3-1.4-0.5
		c-0.4-0.2-0.9-0.2-1.3-0.7c-0.3-0.5,0.7-0.8,1.1-0.7c1.2,0.1,2,0.4,3.2,0.6C539.6,272.9,540.9,273.1,542.1,273z"/>
	<g>
		<path class="st1" d="M513.2,327.6c3,0.7,6.1,1.5,9.2,1c1.8-0.3,3.3-1.6,5.1-2.1c2.1-0.7,4.4-0.7,6.5-1.3c4.2-1.3,7.3-3.9,11-6
			c0-0.6-0.8-1-1.3-1c-5.2,0-10-0.4-15.2-1.2c-0.8-0.1-1.9-0.3-2.7,0.1c-1.7,0.9-2.8,2.5-4.9,2.5c-1.1,0-1.8-1.1-2.7-1.5
			c-1.8-0.8-3.6-0.5-5.5,0c-3,0.7-5.7,1.4-8.7,2c-3,0.6-5.9,0.6-9,0.2c-0.7-0.1-1.6-0.2-2.3-0.3c-0.6,0-1.3-0.1-1.7,0.3
			c-0.4,0.4-0.5,0.7-0.2,1.2s1.2,0.5,1.7,0.8c3.1,1.5,6.2,2.9,9.6,3.5s6.6,1,10,1.7C512.4,327.5,512.8,327.5,513.2,327.6z"/>
	</g>
	<path class="st0" d="M507.2,342.4c0.7,0.6,1.6,0.9,2.4,1.1c5.5,1.7,11.5,1.9,17.2,0.7c2.4-0.5,4.9-1.3,6.8-2.9
		c0.5-0.4,1-0.9,1.1-1.5c0.2-0.6-0.1-1.4-0.6-1.6c-0.3-0.1-0.6-0.1-1,0c-1.6,0.3-3.1,1.1-4.6,1.6c-3.2,1.2-6.6,1.6-10,1.5
		c-3.5-0.1-6.9-0.6-10.3-1.3c-0.6-0.1-1.6-0.5-2,0.3C505.9,341.1,506.7,342,507.2,342.4z"/>
</g>
<image style="display:none;overflow:visible;enable-background:new    ;" width="1680" height="900" xlink:href="IMG_0631.PNG"  transform="matrix(0.6603 0.1064 -0.1064 0.6603 166.6979 454.6288)">
</image>
<path class="st1" d="M803.1,794.7c-0.3,2.2-0.7,4.4-1.8,6.3c-1.4,2.3-3.8,3.8-6.1,5c-20.4,10.7-44.7,9.7-67.6,8.4
	c5.9-5.6,14.1-8.4,22.1-9.7c8.1-1.3,16.3-1.4,24.4-2.5c3.3-0.5,6.7-1.1,9.6-2.9c2.9-1.8,5-4.5,7-7.2c3.8-5.1,7.7-10.1,11.5-15.2
	c0.9-1.2,1.8-2.8,2.9-3.9c1.5-1.5,1.2,0.9,1,1.9c-0.5,3.1-0.9,6.2-1.4,9.3c-0.3,1.7-0.5,3.5-0.8,5.2
	C803.7,791.1,803,793.2,803.1,794.7z"/>
<path class="st5" d="M691.8,648.1l56.6-10.7L710.8,627c-4.1-1.1-8.4,0.7-10.3,4.5L691.8,648.1z"/>
</svg>
