<?xml version="1.0" encoding="utf-8"?>
<!-- Generator: Adobe Illustrator 25.2.0, SVG Export Plug-In . SVG Version: 6.00 Build 0)  -->
<svg version="1.1" id="Layer_3" xmlns="http://www.w3.org/2000/svg" xmlns:xlink="http://www.w3.org/1999/xlink" x="0px" y="0px"
	 viewBox="0 0 998.2 973.2" style="enable-background:new 0 0 998.2 973.2;" xml:space="preserve">
<style type="text/css">
	.st0{fill:#8F6014;}
	.st1{fill:#285BAA;}
	.st2{fill:#76A1A9;}
	.st3{fill:#F18F24;}
	.st4{fill:#26394B;}
	.st5{fill:#FFFFFF;}
	.st6{fill:#00022E;}
</style>
<path class="st0" d="M247.8,683.4c13.1,6.6,28.5,7.2,43,5.2s28.6-6.4,42.9-9.4c6.1-1.3,12.3-2.3,18.2-4.5c5.7-2.1,10.9-5.2,16.1-8.3
	c6.4-3.8,12.8-7.6,19.2-11.4c1.3-0.8,2.7-1.7,3.1-3.2c0.3-1.3-0.2-2.5-0.9-3.7c-4.7-8.8-13.8-14.7-23.3-17.5
	c-9.6-2.8-19.7-2.9-29.7-2.5c-11.5,0.5-22.9,1.8-34.2,3.7c-11.4,1.9-22.7,4.6-33.8,7.9c-11.1,3.3-22,7.3-32.6,12
	c-4.8,2.1-10.3,4-14.4,7.4c-2.5,2.1-6,6-4.3,9.6c2.1,4.1,9.3,3.8,13.1,5.3c5,1.9,9.4,4.9,14,7.6
	C245.4,682.2,246.6,682.8,247.8,683.4z"/>
<path class="st0" d="M811.8,623.2c-2.8,1-5.4,2.6-7.6,4.6c-3,2.7-5.3,6.2-8,9.2c-8.6,9.9-21.1,15.7-33.9,18.5
	c-12.8,2.8-26,2.8-39.1,2.8c-9,0-18,0-27.1,0c-8.5,0-17.2,0-25.3-2.5s-15.8-7.8-19.1-15.6c-0.3-0.7-0.6-1.5-0.4-2.3
	c0.3-1.3,1.6-2.1,2.7-2.7c33.3-17.7,70.4-33.2,107.7-27.2c8.9,1.4,17.5,4.1,26.2,6.7c4.3,1.3,8.7,2.6,13,4c1.9,0.6,4.2,1,5.9,2
	C808.3,621.4,810,622.3,811.8,623.2z"/>
<path class="st1" d="M565.6,340.6c0.9,1,1.9,2,2.5,3.2s0.8,2.6,1.1,3.9c1.6,7.3-0.6,19.5,4.2,25.3c1.9,2.3,4.6,3.6,7.4,4.7
	c6.3,2.4,27.9,13.8,31.1,7.8c2.8-5.2-4.3-32.8-4.7-38.7c-1-14.4-11.7-27-12-41.4c-0.2-6.3,1.7-12.4,2.3-18.7
	c0.8-8.7-0.6-17.3-2.1-25.9c-1-5.9-2.3-12.4-6.8-16.3c-3.1-2.7-10-18.6-14-18.7c-12.6-0.4-21.6,22.9-27.1,34.2
	c-5.5,11.3-5.3,24.7-1.9,36.8c1.8,6.4,4.7,12.8,9.4,17.6c0.9,0.9,2,1.7,2.6,2.8c0.5,1.1,0.4,2.4,0.4,3.5c0.1,3.4,0.8,6.7,2,9.9
	C561.1,334.4,563,337.7,565.6,340.6z"/>
<path class="st2" d="M460,311.7c0,0,3.5,43.3-25.3,57.7s-69,36.6-69,36.6l22.6,62.4l77.3,41.8h141.5l45.4-112.7
	c0,0-49.5-12.1-70.1-24c-27.1-15.5-25.1-56-25.1-56L460,311.7z"/>
<path class="st0" d="M449.2,455.4c8.6,2.4,17.5,3.7,26.4,5s17.7,2.5,26.6,3.8c7.8,1.1,15.7,2.2,23.6,2.2c17.3,0,34.2-5.5,50.2-12.2
	c11-4.6,22-10.2,29.7-19.3c4.9-5.8,8.2-12.8,11.4-19.7c3.8-8.2,7.6-16.3,11.4-24.5c5.3,8.8,2.6,20.2-1.6,29.6
	c-12,27.4-35.4,49.7-63.5,60.3c-25.3,9.6-53.2,9.9-80.3,8.4c-12.4-0.7-25-1.7-36.7-5.7c-9.3-3.2-17.9-8.3-26.1-13.8
	c-8.9-6-17.6-12.8-22.5-22.3c-2.8-5.4-4.2-11.4-7.3-16.6c-4.9-8.1-14.9-14.3-16.5-24.1c-1.1-6.7,8.8-7.3,12.1-3.4
	c3,3.5,4.9,8.1,7.5,11.9c2.5,3.7,5.2,7.2,8.2,10.5c5.9,6.6,12.7,12.4,20.1,17.3s15.5,8.8,23.9,11.5
	C447,454.8,448.1,455.1,449.2,455.4z"/>
<path class="st1" d="M504.3,357.8c34.8,4.4,51-18.6,55.2-30c-2.8-3.7-8.5-2.9-13.1-1.9c-5.7,1.3-11.4,2.2-17.1,2.7
	c-5.8,0.5-11.6,0.7-17.5,0.4c-5.8-0.3-11.6-1-17.3-2.1c-5.7-1.2-24-20.3-29.3-22.4c-5.4-2.1-5.2,6.7-5.1,7.1
	C460.3,312.7,461.9,352.4,504.3,357.8z"/>
<path class="st3" d="M386.3,653.5c0,0,8.2,20.4,7.5,38.2S370.2,794.1,373,804.4c2.7,10.3,65.7,8.2,99.7,8.2s125.8-13.7,167-7.5
	s59.6,2.1,63.1,0.7c3.4-1.4-49.7-112.5-49.7-131.4s3.8-38.7,3.8-38.7L386.3,653.5z"/>
<g>
	<path class="st2" d="M775.5,611.1c0,0,38.1,123.2,31.6,155.7s12.8,48.3-74.5,50.4s-262.1-36.3-282.4-31.7
		c-20.2,4.6-30.1,18.3-87.8,20.8c0,0-55.3,17.7-58.2,9.1c-2.4-7.2,5.1-8.8,5.1-8.8s-35.4,8.4-38.7,1.3c-3.6-7.8,4.9-10.8,4.9-10.8
		s-12.9,4.3-14.7-1.1c-2.7-8.2,14.4-14.3,14.4-14.3s1.1-12.2,23.3-23.6c22.2-11.5,26.3-14.5,26.3-14.5s-5-10.4,1.9-11.3
		c2.8-0.3,11.4,3.5,24.9,2.5c0,0,43.8-13.9,87.9-15.9c0,0,165.4-13,236.3-11c0,0-6.7-79.6-9-107.8L775.5,611.1z"/>
	<path class="st4" d="M746.9,726.4c3.7,1.3,7.9,3.2,9.1,6.9c-4.9,2.9-11.2,1.2-16.6-0.7c-22-7.3-44-14.7-65.9-22
		c-0.3-0.1,1.5-2.4,1.7-2.6c0.8-0.5,1.4-0.2,2.2-0.1c2.6,0.5,5.1,0.9,7.7,1.4c5.1,1,10.1,2.1,15.2,3.2c10.1,2.4,20.1,5.1,30.1,8.2
		C735.9,722.6,741.4,724.4,746.9,726.4z"/>
	<path class="st4" d="M488.7,791.8c-13.5-2.4-37.5-4.3-42.2-3.2c-4.8,1.2-9.1,3.5-13.5,5.6c-14.3,6.9-29.6,11.5-45.3,13.8
		c-9.7,1.4-19.8,1.8-29-1.7c12.9-2.5,25.7-5.1,38.6-7.6c8.4-1.7,17-3.4,24.6-7.2c5.4-2.7,10.3-6.5,15.9-8.8
		c9.6-3.9,45.6,3.8,55.9,4.6L488.7,791.8z"/>
	<path class="st4" d="M345.7,793.3c1.1-0.6,2.3-1.2,3.1-2.1c0.9-0.9,1.3-2.3,0.9-3.5c-2.9,0-5.3,1.9-7.6,3.6
		c-5.1,3.6-10.9,6.3-17,7.9c-3.3,0.9-6.7,1.5-9.8,2.7c-1.5,0.6-3,1.3-4.3,2.3c-0.5,0.3-1.6,1.1-1.8,1.6c-0.2,0.5,0.5,0.5,0.9,0.4
		c1.8-0.1,3.7-0.8,5.5-1.3c2-0.5,4-1.1,5.9-1.7c3.9-1.2,7.8-2.6,11.6-4.1c3.8-1.5,7.6-3.2,11.3-5
		C344.8,793.7,345.3,793.5,345.7,793.3z"/>
	<path class="st4" d="M276,797c2.5-3.2,6.8-4.5,10.7-5.7c15.8-4.8,31.4-10.4,46.6-16.9c2.9-1.2,5.8-2.5,8.9-3.4
		c1.1-0.3,2.2-0.5,3.3,0c0.7,0.3,1.4,0.9,0.7,1.6c-0.5,0.5-1.3,0.7-1.9,1c-0.7,0.3-1.4,0.6-2.1,0.9c-1.4,0.6-2.8,1.2-4.2,1.8
		c-2.8,1.1-5.6,2.2-8.5,3.2c-5.7,2-11.5,3.7-17.3,5.4s-11.6,3.3-17.4,5.1c-5.7,1.8-11.4,3.8-17,6.2C277.5,796.4,276.3,796.7,276,797
		z"/>
	<path class="st4" d="M340.2,752.3c-0.5,0.8-1.3,1.3-2.1,1.8c-3.7,2.4-7.4,4.7-11.3,6.6c-4.8,2.3-10,4-15,5.7
		c-12.2,4.2-24.2,9.3-35.8,15c0.4-2.1,2.4-3.4,4.2-4.5c17.5-10.1,37.5-15.2,55-25.3c1.2-0.7,2.7-2,4.1-2S340.7,751.4,340.2,752.3z"
		/>
	<path class="st4" d="M332.6,740.1c2.6-0.9,5.2-1.9,7.9-2.4c3.8-0.7,7.9-0.7,11-2.9c-6.5,0.6-12.8,2.1-19.2,3.6
		c-1.5,0.4-3,0.7-4.3,1.6c-0.8,0.5-1.6,1.3-2.2,2.1c-0.6,0.9,0.6,0.8,1.1,0.5C328.8,741.5,330.7,740.8,332.6,740.1z"/>
	<path class="st4" d="M371.6,734.6c-4.4,1.2-8.7,2.5-13.2,2.9c-2.5,0.2-5.6-0.2-6.7-2.5c0.9-1.1,2.3-1.5,3.7-1.8
		c8.8-2.2,17.7-4.4,26.5-6.6c4.6-1.1,9.2-2.3,13.8-3.1c6.2-1.1,12.5-1.7,18.8-2.3c2.8-0.3,5.5-0.5,8.3-0.8c2.3-0.2,4.9-0.8,7.3-0.5
		c0.3,0,1.7,0.1,1.8,0.5c0.1,0.4-1.8,0.6-2.1,0.7c-2.7,0.5-5.4,1.1-8.1,1.7c-5.4,1.1-10.8,2.3-16.2,3.5c-5.4,1.2-10.7,2.4-16.1,3.7
		c-5.3,1.3-10.7,2.7-16,4.1C372.9,734.2,372.2,734.5,371.6,734.6z"/>
	<path class="st1" d="M507.2,796.4c-6.7-1-13.6-2-19.6-5.1c-0.7-0.4-1.3-0.7-1.6-1.4c-0.4-1,0.3-2.3,1.3-2.8
		c1.1-0.5,2.3-0.4,3.3-0.2c7.4,0.8,14.6,2.8,21.8,4.4c4.4,0.9,8.8,1.7,13.2,2.3s8.9,1.2,13.4,1.8s9,1.1,13.5,1.8s8.9,1.4,13.3,2.4
		c2.2,0.4,4.3,1,6.6,1.5c1.1,0.3,2.1,0.6,3.2,0.9c0.5,0.2,2.3,0.3,2.3,1c0.1,0.6-0.9,1.1-1.3,1.3c-0.9,0.3-2.2,0.2-3.2,0.2
		c-2.3,0-4.6,0.1-7,0c-4.7-0.1-9.3-0.4-14-0.9s-9.3-1.1-14-1.8s-9.3-1.5-14-2.2c-4.6-0.8-9.3-1.6-13.9-2.3
		C509.5,796.7,508.3,796.6,507.2,796.4z"/>
	<path class="st1" d="M722.4,713.9c14.4,3,29.1,7,40.6,16.2c2.1,1.6,4.2,3.7,4.4,6.3c-3.1,0.6-6.4-0.4-9.4-1.4
		c-20.4-6.9-40.5-14.9-61.4-20.3c-4.1-1.1-8.2-2-12.3-3.4c-2-0.7-4-1.4-5.9-2.3c-0.5-0.2-1-0.5-1.5-0.7c-0.3-0.2-0.8-0.3-0.4-0.6
		c0.3-0.2,1-0.1,1.4,0c0.6,0,1.1,0.1,1.7,0.1c4.6,0.3,9.2,0.7,13.8,1.3c4.6,0.5,9.1,1.2,13.7,2c4.5,0.8,9.1,1.6,13.6,2.5
		C721.3,713.6,721.8,713.8,722.4,713.9z"/>
	<path class="st4" d="M271,807c-1.6-0.6-3.3-2-3.4-3.8c-0.2-2.2,2.1-3.6,3.7-4.7c4-2.4,8.9-3.3,13.6-3.2c0.7,0.1,1.3,0.1,1.9,0.4
		c1.2,0.5,1.8,1.8,1.8,3s-0.5,2.3-1.2,3.3c-1.9,2.5-5.1,3.6-8.1,4.3C276.7,807.1,273.6,808,271,807z"/>
	<path class="st4" d="M303.6,813.8c-1.3-0.5-2.7-1.6-2.8-3.1c-0.1-1.8,1.7-3,3.1-3.8c3.3-2,7.3-2.7,11.2-2.6c0.5,0.1,1.1,0,1.6,0.3
		c0.9,0.4,1.5,1.5,1.5,2.4c0,1-0.4,1.9-1,2.7c-1.5,2-4.2,2.9-6.7,3.6C308.3,813.8,305.8,814.6,303.6,813.8z"/>
	<path class="st4" d="M323.1,733.5c-1-0.8-1.7-1.9-1.2-2.8c0.7-1,2.9-1,4.5-0.9c3.9,0.2,8,1.3,11.5,2.9c0.5,0.2,1,0.4,1.3,0.8
		c0.7,0.6,0.7,1.4,0.3,1.9c-0.4,0.5-1.3,0.9-2.2,1.1c-2.3,0.5-5.2,0-7.7-0.6C327.4,735.3,324.7,734.7,323.1,733.5z"/>
	<path class="st4" d="M261.5,794.8c-1.6-0.5-3.4-1.8-3.6-3.5c-0.3-2.2,1.9-3.8,3.4-4.9c3.9-2.7,8.7-3.9,13.4-4c0.7,0,1.3,0,2,0.2
		c1.2,0.5,1.9,1.7,2,2.8c0.1,1.2-0.4,2.4-1,3.4c-1.7,2.6-4.9,3.9-7.8,4.8C267.2,794.6,264.2,795.6,261.5,794.8z"/>
	<path class="st4" d="M268.6,784.9c-1.4-0.3-3.1-1.2-3.4-2.7c-0.5-1.8,1.2-3.4,2.4-4.5c3-2.7,7-4.2,11.1-4.8c0.6,0,1.1-0.1,1.7,0
		c1.1,0.3,1.8,1.2,2,2.2s-0.1,2-0.5,3c-1.2,2.4-3.8,3.8-6.2,4.9C273.4,784.1,270.9,785.3,268.6,784.9z"/>
</g>
<path class="st1" d="M508.9,792.3c16.2,4.3,33.3-0.9,49.1-6.8c20.5-7.7,40.8-16.6,62.4-20.4c7.6-1.3,15.4-2,23-3.4
	c18.3-3.3,35.6-10.7,53.5-15.8c21.3-6.1,43.4-9,65.5-11.8c-10-7.9-24.1-7.3-35.9-12.1c-4.1-1.7-7.9-4-12.1-5.5
	c-13.9-4.9-29,0.7-43.5,3.5c-13.7,2.7-27.7,2.9-41.3,5.6c-18.8,3.8-36.3,12.3-53.5,20.8c-12.6,6.2-25.8,12.9-33,24.9
	c-3.3,5.4-5.5,12-10.9,15.1c-2.9,1.7-6.4,2-9.8,2.2c-3.9,0.3-7.9,0.4-11.8,0.3c-1.2,0-3.9-0.6-4.4,0.9
	C505.7,791.1,507.9,792.1,508.9,792.3z"/>
<path class="st4" d="M582.4,332.8c5.2-3.2,9.3-8.2,11.4-14c0.2,6.1-1.3,12.2-4.2,17.5c2.2-1.5,4-3.7,4.8-6.2
	c1.1,5.1,0.8,10.4-1,15.3c6.7-9.2,8.4-21.9,4.5-32.6c-0.6-1.7-1.4-3.4-1.8-5.3c-0.8-3.9,0.2-7.8,0.6-11.6c0.4-3.6-2.3,0.2-2.8,1.5
	c-1.5,3.5-2,7.5-3.1,11.1c-1.1,3.9-2.4,7.7-3.7,11.5C585.8,324.3,584.2,328.6,582.4,332.8z"/>
<path class="st1" d="M546.1,399.3c2.6-11.4,5.1-22.8,7.7-34.2c1.7-7.7,3.5-15.5,4.2-23.4c0.2-2,0.3-4,0.3-6c0-1.2,0.3-3-0.2-4.2
	c-0.7-1.4-1.8,0.4-2.3,1.1c-3.1,4.8-4.2,10.5-5.3,15.9c-1.5,7.8-2.7,15.8-3.4,23.7c-0.7,8-1.1,16-1,24
	C546.1,397.4,546.1,398.4,546.1,399.3z"/>
<path class="st1" d="M667.8,734.5c-11.2-1.5,27.8-29,16.5-29.1c-60.2-0.7-160.2,11.5-221.2,16.6c-13.3,1.1-30.7,5.6-45,6.6
	c-10,0.7-30.2,9.2-40.1,10.2c-15.8,1.5-29.3,11.7-41.9,21.5c2.9-0.2,5.7-0.4,8.6-0.7c113.2-8.8,229.3-17.4,342.9-16.5
	c2.8,0,5.6,0,8.3-0.6c0.8-0.2,2-0.5,1.8-1.6s-1.9-1-2.8-1.1c-5.8-1.1-11.6-2.5-17.4-3.7C674.3,735.6,671.1,735,667.8,734.5z"/>
<path class="st1" d="M533.4,416.5c1,0.5,1.8-0.8,2.1-1.9c2.2-8.7,2.3-17.8,2.2-26.7c0-1,0.6-4.3-1-3.9s-1.9,2.6-2.1,3.8
	c-0.8,4.5-1.3,9-1.5,13.6c-0.1,2.6-0.2,5.1-0.1,7.7c0,1.2,0.1,2.5,0.2,3.7C533.2,413.2,533.1,416.3,533.4,416.5z"/>
<g>
	<path class="st2" d="M556.7,696.2c-102,25.9-135.1,34-183.1,46.6c0,0-2.7-79.9-3.8-108.1l-106.6,23.8c0,0-23.4,126.8-13,158.3
		c10.3,31.5-7.1,49.4,79.9,41.3c86.9-8.2,261.4-104.2,282-102C612.1,756.1,613.2,695.7,556.7,696.2z"/>
	<path class="st4" d="M257.3,844.2c0.6,2.1,1.2,4.3,2.5,6.1c1.6,2.1,4.2,3.3,6.7,4.3c21.5,8.3,45.5,4.4,68.2,0.4
		c-6.6-4.9-14.9-6.6-23.1-7s-16.3,0.5-24.5,0.4c-3.4-0.1-6.8-0.3-9.9-1.7s-5.5-3.9-7.8-6.3c-4.4-4.6-8.8-9.2-13.2-13.7
		c-1.1-1.1-2.1-2.5-3.4-3.5c-1.7-1.3-1.1,1-0.8,2c0.8,3,1.7,6.1,2.5,9.1c0.5,1.7,0.9,3.4,1.4,5.1
		C256.4,840.7,257.3,842.7,257.3,844.2z"/>
	<path class="st4" d="M305.1,769.7c-3.5,1.8-7.4,4.1-8.2,7.9c5.2,2.3,11.3-0.2,16.4-2.6c21-9.9,41.9-19.8,62.9-29.6
		c0.3-0.1-1.7-2.2-2-2.3c-0.8-0.4-1.4-0.1-2.2,0.2c-2.5,0.8-5,1.5-7.4,2.3c-4.9,1.6-9.8,3.3-14.7,5c-9.8,3.5-19.4,7.4-28.9,11.6
		C315.6,764.6,310.3,767.1,305.1,769.7z"/>
	<path class="st1" d="M328,754.4c-13.9,4.7-28,10.4-38.4,20.8c-1.9,1.9-3.7,4.2-3.6,6.8c3.2,0.2,6.3-1.2,9.2-2.5
		c19.4-9.3,38.5-19.6,58.5-27.4c3.9-1.5,7.9-3,11.8-4.8c1.9-0.9,3.8-1.9,5.6-3c0.5-0.3,0.9-0.6,1.4-0.9c0.3-0.2,0.8-0.4,0.3-0.6
		c-0.4-0.2-1,0.1-1.4,0.1c-0.6,0.1-1.1,0.2-1.7,0.3c-4.5,0.8-9.1,1.8-13.6,2.9c-4.5,1.1-8.9,2.3-13.4,3.6c-4.4,1.3-8.8,2.7-13.2,4.1
		C329.1,754,328.5,754.2,328,754.4z"/>
</g>
<path class="st3" d="M376.8,398.2c0,0-22.7,6.4-57.6,46.1s-54.2,117.3-64.5,144S217,665.1,217,665.1s6.2-8.9,17.1-6.5
	c11,2.4,25.8,12.8,61.7,8c24.7-3.3,37-14.7,52.7-15.6s37.7,2.6,37.7,2.6s8.2,20.4,7.5,38.2s259.1,1.5,259.1-17.4s3.8-38.7,3.8-38.7
	s37.3,12.2,56.5,4s47.3-1.3,58.3-7.2s30.8-13.4,39.1-10.7c0,0-89.1-178.4-126.1-205.1s-54.8-26-54.8-26s3.1,82.6-105,82.6
	C391.8,473.1,376.8,398.2,376.8,398.2z"/>
<path class="st0" d="M657.2,640c0.3-2.5,0.7-5.1,1.8-7.4c1.2-2.2,3-4,4.8-5.8c20.9-20.2,39.2-43,54.4-67.8
	c-13.4,9.4-25.9,19.9-37.5,31.4c9.6-17.3,19.2-34.6,28.8-51.9c6-10.8,12.2-22.2,12.1-34.6c-21.3,24.4-39.6,51.4-54.5,80.2
	c0.1-4.5,0.2-8.9,0.3-13.4c-4.7,12.6-9.4,25.2-14.1,37.8c1.9-19.4,3.7-38.8,5.6-58.2c-3.1,0.2-4.6,3.7-5.5,6.7
	c-2.3,8.3-4.1,16.7-5.3,25.2c-1.7,12.5-2.1,25.1-2.4,37.6c-0.5,15.9-0.9,31.8-1.4,47.7c-0.1,4.4-4.3,9.7-4,14.1
	c4-1.3,11.6-5,12.5-9.2c1.4-6.5,1.8-13.3,2.7-19.8C656.1,648.4,656.6,644.2,657.2,640z"/>
<path class="st0" d="M363.2,588.6c9.2,10.7,18.3,21.5,27.5,32.2c-11.4-33.5-22.9-67.6-23.6-102.9c8.1,20.5,16.1,41,24.2,61.5
	c0-3.3-0.1-6.6-0.1-9.9c10.5,40.7,15.8,82.7,15.5,124.7c0,3.2-0.1,6.5-1.2,9.6c-1.5,4-4.7,7-6.6,10.8c-2,4.1-0.1,8.3-0.1,8.3
	s-6.5,0.7-10.9,2c0-9.7,6.4-24.4,4.8-43.4c-0.6-7.7-3.9-14.3-5.6-21.7c-1.2-4.8-0.2-9.7-1.2-14.5c-2.6-13-11.1-24.2-16.8-36
	C366,603,363.5,596,363.2,588.6z"/>
<path class="st0" d="M411.7,680c18.6,4.3,38.1,2.4,57.1,0.4c37.6-3.9,75.3-7.8,112.9-11.7c22.3-2.3,44.8-4.7,65.9-12.1
	c1,8.7,1.3,19-5.8,24.2c-3.2,2.3-7.2,3-11.2,3.6c-35.1,5.2-70.5,8.3-105.8,11.5c-10.4,0.9-20.9,1.8-31.3,2.5
	c-32.8,2-65.8,1.2-98.5-2.3c-1.3-6.9-1.7-15.4,0.5-22.2C401.6,673.5,405.5,680,411.7,680z"/>
<path class="st0" d="M261.8,639.5c9.9,0.7,19.8,2.9,29.7,2.4c13-0.6,25.3-5.6,37.7-9.5c12.4-3.9,25.9-6.7,38.3-2.7
	c-13.9-6.5-30-5.7-45.1-3s-30,7-45.4,7.1c-7.7,0-15.4-1-23-0.1c-5.2,0.6-13.1,2.5-16.5,7c-0.3,0.5-1.2,1.9-0.4,2.4
	c0.5,0.3,3.2-1.2,3.8-1.4c3.1-1.1,6.4-1.7,9.6-2C254.2,639.2,258,639.2,261.8,639.5z"/>
<path class="st0" d="M684.2,612.4c8.6,1.8,17,4.9,25.7,4.8c13.7,0,26.3-7.6,39.9-8.9c4.5-0.4,9-0.1,13.4-1
	c8.2-1.7,15.3-7.7,23.6-8.2c-14.5-5.8-30.6,1-46.2,2.6c-5.2,0.5-10.4,0.5-15.5,1.6c-4.8,1.1-9.4,3.2-14.3,4.1
	c-8.7,1.7-17.5-0.6-26.3-1.4c-5.9-0.5-12.2-0.1-17.6,2.4c-0.8,0.4-4.2,2.8-2.4,3.9c0.6,0.4,3.3-0.7,4.1-0.8c1.6-0.2,3.2-0.3,4.8-0.4
	C677.1,611.2,680.7,611.6,684.2,612.4z"/>
<g>
	<path class="st4" d="M585.1,347.2c-7-2.7-13.6-5.8-19.7-10.3c-2.6-1.9-3.8-4.7-4.9-7.7c1.7,0.4,3.3,0.9,5,1.5
		c-0.3-3.7-0.6-7.2-0.6-11c0-1.9,0.5-3.5,0.8-5.6c0.2-1.3,0-8.8,3.1-6.8c2.4,1.5,0.3,7.1,0.1,9.3c-0.2,2.1,0,3.9,0.5,5.6
		c2,6.6,4.5,12.1,8,17.9c1,1.6,2.6,2.7,3.9,4.3C582.2,345.3,583.8,346.6,585.1,347.2z"/>
	<path class="st4" d="M471.9,334.2c7.1,7.6,14.7,14.1,24.2,18.1c6.3,2.6,12.6,2.3,19,2.6c5.2,0.2,10.2,0.5,15.1-1.2
		c11.3-3.9,20.5-9.8,28.9-18.2c3.9-3.8,4.5-9.1,6-14.1c-3.3,1.3-5.2,4.1-8.1,6c-11.7,7.6-22.9,13.7-37,15.6
		c-9,1.2-17.6-0.6-26.1-3.7c-5-1.8-8.6-6.5-12.8-9.6c-0.7-0.5-1.5-1.4-2-1.9c-0.9-0.8-1.7-1.7-2.4-2.4c-1.6-1.6-3-3.3-4.5-4.8
		c-1.5-1.6-3.1-3.3-4.5-4.6c-1.4-1.4-2.8-2.8-4.2-3.9c-1.4-1.1-3.7-2.3-3,0.6c0.8,3.5,3,7.1,4.8,10.6S469.1,331.2,471.9,334.2z"/>
	<path class="st2" d="M458.9,304.7c13.3,30.6,32.3,42.9,65.3,44.6c33,1.7,43.3-26,46.1-49.9c2.8-23.9,1.2-36.8,3.7-56.8
		c2.5-20,2.5-35.2,3.7-54.6c-18.9-8.2-35.3-20-55.3-26.2c-20-6.2-43.8-11.6-62,1.5c-18.2,13.1-22.3,35.1-36.6,51.1
		C437.3,244.5,445.6,274.1,458.9,304.7z"/>
	<path class="st5" d="M472.3,251.7c7,1.4,14.8,4.2,21.6,4.4c6.9,0.2,11.5-2.6,17.9-3.8c-4.3-3.6-6.9-8-12.4-10.1
		c-5.5-2.1-13.5-1.1-18.5,1C476,245.3,475.7,248.4,472.3,251.7z"/>
	<path class="st4" d="M472.2,251.5c3.2-3.7,3.7-7.9,8.8-10c6.5-2.6,14.1-3,20.9-0.5c5.2,2,6.9,6.8,9.8,11.1
		c-4.1-2.9-7.5-6.4-12.2-8.2C488.7,243.5,481.5,246.3,472.2,251.5z"/>
	<path class="st5" d="M536.5,252.9c6.1,1.9,13.3,5.2,19.3,5.7c6,0.6,9.1-2.2,14.5-2.9c-3.3-3.5-4.6-7.5-9.1-9.8
		c-4.6-2.3-11.7-1.9-16.3-0.3C540.5,247.2,539.6,250,536.5,252.9z"/>
	<path class="st4" d="M536.3,252.7c2.9-3.2,3.3-6.8,7.8-8.5c5.7-2.2,12.3-3.2,18.3-0.4c4.6,2.2,5.8,7.1,7.7,11.5
		c-3.7-3.4-6.5-7.3-11.2-9.3C550.2,245.8,544.1,248.8,536.3,252.7z"/>
	<path class="st4" d="M537,229c-0.9,1.9-0.8,3.5-0.3,5.4c0.3,1,0.8,0.3,1.3,0.2c2.7-0.7,5-2.2,7.8-2.4c5.3-0.5,10.4-0.3,15.5,1.3
		s9.5,4.6,14.3,6.9c-8.9-8.7-17.6-13.8-29.9-16.1c-1.8-0.3-3.4,0.7-5.1,1.3C538.9,226.1,537.7,227.6,537,229z"/>
	<path class="st4" d="M513.9,223.1c1.3,2,1.3,3.4,0.5,5.5c-0.3,0.8-1,0.1-1.5,0c-3-0.6-6.1-2.1-9.2-2.2c-6.3-0.3-12.4,0.1-18.3,1.9
		c-5.9,1.8-11,5-16.6,7.4c10.5-9.1,20.8-14.5,34.5-17.2c2-0.4,4.2,0.5,6.1,1.1C511.4,220.1,513,221.6,513.9,223.1z"/>
	<path class="st1" d="M538.8,281.4c-0.9-10-1.7-19.9-2.7-29.9c-0.2-1.6-0.5-3.3-0.8-5c-0.2-1-0.7-2.5-1.9-2.5s-1.4,1.4-1.3,2.4
		c0,1.7,0.2,3.5,0.4,5.1c0.3,3.3,0.7,6.7,1.2,9.9c0.5,3.3,1,6.4,1.8,9.6c0.7,3.2,1.8,6.1,2.8,9.2C538.3,280.6,538.7,281,538.8,281.4
		z"/>
	<path class="st1" d="M418.3,275.2c-3.1,4.3-7.1,7.7-8.9,12.8c-1.8,5.1-1.6,10.1-1.7,15.5c0,3.1,0.6,6.9,0.7,10
		c-5.5,16.1-6.7,30.2-2.4,46.8c1.2,4.7,4.6,8.5,6.4,13.2c1.4,3.7,2.4,7.7,4,11.5c4,9.6,9.2,18.9,14.5,27.9
		c1.7,14.4,5.8,27.9,11.4,41.2c0.7,1.8,1.8,3.4,2.1,5.1s-0.4,2.8-0.7,4.3c-1.9,9.9-1.9,19.2-0.6,29.1c-1,2.7-1.7,5.5-2.1,8.4
		c-0.3,2.4-0.4,4.7-0.6,7.2c-0.1,2.5-0.2,5.6,0.2,7.9c0.4,2.3,1.2,4.1,2,6.2c1.4,3.7,3.4,7,3.2,11c-0.1,2.8-2.3,4.5-3.2,6.9
		c-1.1,2.8-1.8,5.7-1.8,8.6c-0.1,2.9-0.1,5.5,0.4,8.3c1.2,6.6,3.9,12.9,6.6,19.1c-2.1,17.5-2.6,33.1,5.2,49.1c1.6,3.3,4.9,5,6.6,8
		c4.3,7.4,7.2,15,10.1,22.9c-1.2-11.8,0.7-22.9,0.6-34.8c-0.2-13.6-4.3-27.4-6.8-40.9c1.6-2.4,2.8-4.8,2.9-7.7s-1.2-5.2-1.6-8
		c3.4-9.5,8.3-18.9,9.8-28.9c1.2-8.3-1.6-14.9-4.4-22.5c4.3-8.5,6.4-16.5,5.7-26.1c0,0-0.3,0.6-0.2,0.3c1.7-5,4.3-9.7,5.2-14.9
		c1-5.7-0.3-10.6-2.4-16c-1-2.6-2.5-5.2-3.4-7.8c1.1-10.8,3.6-20.5-0.2-31.2c-3.1-8.8-10.8-15.3-16.8-22.3c-0.1-1.8,0.4-3.2,0.4-5.1
		c-0.2-6.9-0.6-13.9-2.1-20.8c-0.8-3.7-1.6-7.1-3.5-10.4c-2-3.3-5.3-5.5-8.6-7.5c2.4-8.8,2.9-16.9,1.4-25.9
		c3.8-6,7.9-10.8,10.2-17.9c1.3-4.2,0.8-9.4,1.2-14.1c0.4-4.7-0.7-9.9-0.2-14.9c0.8-8.6,1.7-17.2,7.4-24.2
		c18.6-22.8,42.8-38.5,67.9-53.3c5.8,2.4,11.7,4,17.9,5.1c5,2.7,9.8,4.1,15.6,4.3c2.2,10.6,5.4,20.7,9.6,30.7
		c-1,5.2-3.1,10.1-2.2,15.4c0.9,5.3,4.1,8.4,9.3,9.6c2.6,0.6,5.1-0.6,6.7-2.5c4.9-5.8,9.7-11.4,11.6-19c3.2-12.8,3.5-24.7,0.2-37.6
		c-1.4-5.4-6.6-8.9-9.6-13.4c-0.3-7.6,0.8-15-1.5-22.4s-6.4-12.9-12.5-17.9c-3.4-2.8-8.4-3.7-12.3-5.8c-2.2-5.3-5-10.2-10-13.1
		c-5-2.9-10.5-4.3-15.7-6.2c-7.5-2.8-14-8.4-21.9-9.6c-15.2-2.3-27.4,2.2-41.2,7.9c-13,1.1-26.2,0.7-37.1,8.6
		c-10.9,7.9-13.2,19.5-17.7,31.3c-5.7,6.9-12.5,12.2-14.8,21.3c-5.1,19.7-4.9,39.3-3.8,59.6C406.6,257.6,411.6,266.6,418.3,275.2z"
		/>
	<path class="st1" d="M505.4,285.7c0.2,1.4,0.4,2.2,1.3,3.3c0.9,1,2.1,1.5,3.5,1.7c1.3,0.2,2.6-0.3,3.9-0.5
		c-0.2-0.6-0.3-0.9-0.9-1.2c-0.6-0.3-1.3-0.6-1.9-0.9c-0.6-0.3-1.4-0.6-1.7-1.2c-0.7-1-0.8-2.1-0.7-3.2c0.1-0.7,0.5-1.3,0.6-2
		c0.1-0.3,0.1-0.6,0-0.8c-0.3-0.6-1-0.8-1.6-0.7c-0.9,0.1-1.4,0.7-1.8,1.4C505.4,282.9,505.2,284.4,505.4,285.7z"/>
	<path class="st1" d="M532.2,289.9c1.6-0.4,3.3-1.2,4.9-1.8c0.7-0.3,1.3-0.2,1.7,0.4c0.3,0.6-0.1,1-0.5,1.3c-1.3,1.1-2.6,2.1-4,3.1
		c-0.8,0.6-1.5,1.2-2.4,1.5c-1.4,0.5-2.8,0.6-4.3,0.5c-2.6-0.3-5.1-0.9-7.6-1.7c-0.5-0.2-1-0.5-1.4-0.9c-0.4-0.4-0.7-0.9-1.2-1.2
		c-0.5-0.3-1.2-0.4-1.5-0.8c-0.3-0.4-0.2-0.7,0.3-0.8c1.2-0.2,2.4-0.4,3.6-0.3c2.7,0.2,5.3,0.7,8,0.9
		C529.2,290.2,530.6,290.2,532.2,289.9z"/>
	<g>
		<path class="st4" d="M521.6,309.9c2.3,0.1,4.5,0.5,6.8,0.2c1.4-0.2,2.1-1.4,3.6-1.7c1.5-0.3,3-0.4,4.6,0c3.2,0.7,6.5,1.7,9.8,2.5
			c0-0.5-0.1-1.1-0.4-1.4c-4-3.8-8.2-7.3-12.8-10.2c-0.8-0.5-1.5-0.5-2.3-0.3c-1.6,0.5-2.6,1.8-4.3,1.9c-0.9,0.1-1.5-1.2-2.3-1.4
			c-1.8-0.5-3.1-0.5-4.7,0.5c-2.7,1.6-5.3,3.6-7.6,5.7c-2.3,2.1-4.3,4.5-6.5,6.6c-0.5,0.5-0.8,0.9-1.2,1.3c-0.4,0.4-0.6,0.7-0.7,1.2
			c0,0.5,0.1,0.9,0.6,1.1s0.9,0,1.3-0.2c2.6-0.9,4.9-2.1,7.4-3.1c2.5-1,5.3-1.7,8.1-2.2C521.1,310,521.3,309.9,521.6,309.9z"/>
	</g>
	<path class="st1" d="M520.2,319.6c0.6,0.4,1.1,0.8,1.8,0.8c4.3,0.1,7.9-0.2,12-1.9c1.7-0.7,2.9-2.4,4.1-3.8
		c0.3-0.4,0.5-1.1,0.5-1.6c0-0.5-0.2-1.1-0.6-1.3c-0.3-0.3-0.5-0.1-0.7,0.1c-1,0.6-1.8,1.5-2.8,2.1c-2.2,1.3-4.3,2.4-6.7,2.9
		s-4.8,0.2-7.4,0.2c-0.4,0-1.1-0.1-1.1,0.7S519.6,319.2,520.2,319.6z"/>
	<path class="st1" d="M562.5,308.1c0.3-1.4,0.8-2.7,1.8-3.8c0.2-0.3,0.6-0.4,1-0.1c0.3,0.3,0.6,0.8,0.4,1.4c-0.5,1.7-1.2,3.3-1.6,5
		c-0.2,0.6-0.2,1.4-0.3,1.9c-0.1,0.6-0.1,1-0.8,1.1c-0.6,0.1-0.6-0.3-0.6-0.9c0-0.6-0.2-1.5-0.1-2.2
		C562.3,309.6,562.3,308.9,562.5,308.1z"/>
	<path class="st1" d="M476.6,302.5c-0.3-1-0.8-1.8-1.6-2.5c-0.3-0.3-0.5-0.3-0.8-0.1s-0.5,0.4-0.6,0.8c-0.2,0.8-0.3,1.9-0.2,2.7
		c0.2,0.8,0.5,1.3,0.8,1.9c0.7,1.7,1.3,3.2,1.7,4.9c0.2,0.8,0.2,1.7,0.5,2.5c0.1,0.4,0.2,1.1,0.8,1.1s0.9-0.9,0.9-1.4
		c0.1-1.3,0.1-2.6-0.1-3.8C477.6,306.5,477.1,304.5,476.6,302.5z"/>
	<path class="st4" d="M442,247.1c6.8-9.1,13.7-17.9,19.4-27.8c2.6-4.5,3-9.5,3.4-14.5c0.3,1.5,0.7,3.1,1,4.7
		c4.1-5,7.8-10.2,11.1-15.8c0,1.8,0.1,3.6,0.2,5.4c3.8-6.1,6.5-12.4,8.4-19.3c1.7,6.9,2.4,13.5,2.1,20.6c3.1-3.1,4.8-6.2,5.7-10.5
		c0.6,8.6,0.3,16.9-0.8,25.4c9.5-12.5,15.1-24.9,18.1-40.3c0.7,6.4,0.8,12.6,0.3,19c5.5-5.2,9.2-10.8,12-17.9
		c0.6,3.1,1.1,6.1,1.5,9.2c3.4-2.9,6.5-6,9.4-9.3c-1.2,6.8-2.6,13.5-4.5,20.1c3.4-2.8,6.3-6,8.8-9.6c-2,4.7-4.5,9-7.5,13.1
		c7.4-1.2,13.3-3.6,19.2-8.2c-4.3,4.5-8.9,8.1-14.2,11.4c5.8,0,11.3-0.1,16.5-3s8.6-7.6,12.9-11.5c-4.6,6.1-9.5,12-14.7,17.7
		c6.2,2.6,11.4,2.9,17.9,1.2c-1.7,1.7-3.4,3.4-5.1,5c8.3-3.1,14.3-7.8,20.1-14.4c-7.8,2.8-15.6,4.5-23.8,5.3
		c6.8-12.1,11.6-24.2,14.3-37.8c-5.3,8.4-11.1,16.3-17.5,24c-0.1-1.7-0.1-3.3-0.1-5c-2.2,1.1-4.3,2.3-6.5,3.4
		c5.9-9.7,10.2-19.5,12.7-30.6c-1.7,3.4-3.6,6.6-5.8,9.7c-0.5-8.8-2.5-16.4-6.4-24.3c-0.2,13.5-2.4,25.6-7.6,38.1
		c0.4-6.1,1.1-12,0.5-18.2c-0.3-3.4-2.3-6.1-4.7-8.6c-1.8,6-3.5,11.8-6.3,17.4c-0.9,1.7-2.5,2.2-4.4,1.7c-0.7-0.2-1-1.2-1.6-1.6
		c-0.7-0.3-1.1-0.2-1.3,0.5c-4.2-7.1-9.1-13.3-14.8-19.2c0,1,0,2,0,3c-3.2-6.7-7.1-12.8-11.8-18.5c1.2,15.6,1,30.9-1.2,46.4
		c-0.8-3.9-2-7.5-3.5-11.2c-0.3,1.4-0.8,2.6-1.5,3.8c-3.2-0.6-6.4-1.2-9.7-1.8c-3.2,6.6-7,12.4-11.8,18c0.2-10.9,0-21.8-1-32.7
		c0,1.2,0,2.5,0,3.7c-1.2-3.7-2.3-7.5-3.3-11.3c-0.5-1.9-1-3.7-1.6-5.6c-0.3-1.1-0.8-2.4-1.4-3.4c-0.2,1.7-0.2,3.3-0.2,5
		c-0.1,1.7-0.3,3.6-0.5,5.3c-0.3,3.6-0.5,7.3-0.7,10.8c-0.4,7.1-0.7,14.3-1.4,21.4c-0.7,7-1.3,14-2.7,20.8s-3.4,13.3-5.8,19.9
		c-2.3,6.5-5.5,12.7-8.3,19C442.7,245.6,442.3,246.3,442,247.1z"/>
	<path class="st4" d="M419.5,202.4c-0.5-9.7-0.7-19,0.2-28.8c0.2-2.5,1-5.5,3-7.6c0.5-0.5,1.6-0.9,2.1,0.1c0.5,1-0.3,2.3-0.5,3.2
		c-1.7,7-3,13.9-3.8,21C420,194.4,419.9,198.4,419.5,202.4z"/>
	<path class="st4" d="M425.7,251.8c2.4,5.8,6.4,11.6,8.4,17.4c7.4,21.7,6.8,41.5-1,62.9c1.6-10.7,2.5-21.3,2.6-32.1
		c-1.2,9.1-3,17.9-5.8,26.7c1-7.4,1.7-14.9,2.1-22.4c-1.3,4-2.9,7.8-4.8,11.5c0.1-2.5,0.3-4.9,0.9-7.3c-0.3,0.8-0.6,1.6-0.9,2.5
		c-0.3-10-1.5-18.7-5.8-27.8c-1.7-3.5-5.4-5.8-7.5-9.2c-5.7-9.5-9.5-19.6-12.9-30c3.6,7.3,7.3,14.3,12.7,20.5
		c4.1,4.7,8.6,9,12.1,14.2c-4.2-10.1-9.3-19.5-15.2-28.7c6.2,5.2,11.9,10.7,17.1,16.8c-2.1-6.4-5.7-12.4-7.8-18.8
		c-3.4-10-4-19.8-4-30.3c0-1.5,0.5-2.8,0.8-4.2c0.3-1.3,0.7-2.4,0.9-3.8c0.8,11.2,2,22,4.7,32.9
		C422.9,245.8,424.5,248.8,425.7,251.8z"/>
	<path class="st4" d="M427.8,343.8c-4.5-2.2-7.5-4.9-10.1-9.3c5,8,10.3,15.8,15.9,23.4c-6.6-4.2-12.8-8.7-17-15.3
		c-3.6-5.7-5.9-11.8-7.7-18.2s-1.8-12.9-2.3-19.5c-0.1-1.5,0.1-3.1,0.5-4.7c0.1-0.7,0.8-1.6,1.5-0.6c0.4,0.5,0.1,1.4,0.2,2.2
		c0,0.7,0.1,1.6,0.2,2.4c0.2,1.5,0.2,3.2,0.6,4.7c1.6,6.1,3,12,5.8,17.7c2.8,5.7,6.8,10.7,10.7,15.8
		C426.5,342.7,427.3,343.2,427.8,343.8z"/>
	<path class="st4" d="M401.6,359.9c4.8,9.6,12.6,16.6,20.2,24.1c-2.6-3.5-4.9-7.2-6.9-11.2c0.5,2.2,1.1,4.1,2.9,5.7
		c5.7,4.9,11.8,9.3,17.9,13.7c-3.3-4.3-6.6-8.6-10-12.7c3.9,2.7,7.9,4.6,12.5,5.8c-8.2-6.3-17.1-12.4-24.4-19.6
		c-5.3-5.2-8.4-10.9-11.6-17.3c-0.9-1.8-0.8-3.7-1.7-5.6C400.7,348.8,398.9,354.4,401.6,359.9z"/>
	<path class="st4" d="M453.1,306.1c-3.8,8.7-8.8,16.3-14.3,24c0.9-2.2,1.7-4.5,2.4-6.8c-2.5,6.8-5.2,13.5-8.3,20
		c4.5-4.3,8.7-8.7,12.9-13.4c-1.9,11.3-4.6,21-9.6,31.5c-2.4,5-5.5,10.6-6,16.5c4.3-8.1,12.7-15,16.1-23.3
		c4.5-10.9,2.7-21.3,5.6-32.4c1.2-4.6,5.3-7.2,6.6-12.3c1.6-6.4,2.1-13.5,1.4-20.6c-0.7-7.1-2.6-14.9-3.5-22.3
		c-0.5-3.5-0.8-7.4-0.9-11.1c0-0.7,0.2-1.8,0-2.4c-0.2-0.6-0.3-0.8-0.7-0.3c-0.9,1-1.4,2.5-1.5,3.9c-0.5,7.8-0.6,15.6-0.2,23.3
		c0.4,7.7,0.7,15.3,0.5,23C453.5,304.4,453.4,305.4,453.1,306.1z"/>
	<path class="st4" d="M452.7,424.5c2.8-6.2,5.9-11.4,7-18.2c1.2-6.9,0.7-14,0.4-21.4c0-0.9,0.2-4.2-1.2-4.9c-1.4-0.7-1.8,1.3-1.9,2
		c-1.2,5.5-1.8,10.8-2.2,16.2c-0.5,8-1.2,15.9-2,23.8C452.9,422.9,452.9,423.6,452.7,424.5z"/>
	<path class="st4" d="M475.7,435.2c-2.7-6.4-5.5-12.8-8.3-19.2c4.1,15.2,5,29.5,2.8,45.1c2.5-3.7,4.7-7.5,6.6-11.6
		c-0.2,0.4,0.1,0.8,0.5,0.6c0.4-0.1,0.7-0.3,0.8-0.8c1.4-11.8,1.6-21.7-1.7-33.7c-0.6-2.3-5.3-11.3-9-6.2c-1.4,2,2.2,5.6,3.3,7.5
		c1.4,2.6,2,5.7,2.8,8.6c0.4,1.6,0.7,3.2,1,4.8C475,432,475.3,433.7,475.7,435.2z"/>
	<path class="st4" d="M421.8,406.6c8.7,9.6,18.3,18.3,27.8,27.1c-4-7.2-8.5-13.9-13.5-20.4c6.7,4.3,13.1,8.9,19.1,14.1
		c-11.4-14.2-24.1-27.4-35.1-41.8c-2.2-2.8-2.3-6.4-4-9.4c-0.5-1-1.1-1.8-2.2-1.2c-1.1,0.6-1.6,2-1.5,3.3c0.5,6.4,1.4,12.5,3.8,18.6
		C417.5,400.4,419.2,403.8,421.8,406.6z"/>
	<path class="st4" d="M437.9,453.9c3,3.8,6.8,6.9,10.1,10.4c4,4.2,7.8,8.3,11.7,12.6c-2.5-5.4-5.4-10.8-9.1-15.4
		c3.9,2.5,7,5.9,10.3,9.1c-1.5-4.6-4-7.9-7.4-11.1c-6.6-6.3-11.8-13.4-17.1-20.7c-0.7-1-1.3-2.1-1.9-3.1s-1.1-2.1-1.7-3.1
		c-0.2,1-0.2,2.1,0,3.1c0.3,1.6,0.5,3.2,0.8,4.7c0.6,3.1,1.4,6,2.4,9C436.7,450.8,436.8,452.5,437.9,453.9z"/>
	<path class="st4" d="M461.8,498.1c5.5-3.6,11.7-6.6,15.8-11.9c3.2-4,3.7-8.6,5.1-13.3c0.4-1.3,0.2-2.4,0.2-3.8c0-1-0.3-2.4-0.8-3.1
		c-0.5-0.8-0.9-0.4-1.2,0.3c-1.2,3-1.4,6.1-2.6,9.3c-1.6,4.1-3.8,8.1-6.1,11.9c-1.3,2.1-3,3.9-4.7,5.7
		C465.7,495,463.7,496.5,461.8,498.1z"/>
	<path class="st4" d="M443,496.3c3.2,6.1,5.8,12.3,8,18.8c-0.4-4.6-0.8-9.2-1.7-13.7c3.1,1.9,6.2,3.9,9.1,6
		c-1.4-4.6-4.5-8.5-6.7-12.7c-4-7.6-5.8-14.9-6.5-23.4c-0.1-1.1,0.6-2.4,0.8-3.5c0.2-1.1,1.1-2.2,0.8-3.4s-1.6-1.2-2.5-0.7
		c-1.6,1-2.9,2.2-3.7,4c-1,2.1-1.7,4.2-2,6.6c-0.5,5.2-0.1,9.8,1.1,14.9c0.5,2.2,2,4.4,2.2,6.9c0.1,1.1-0.6,2.2-0.8,3.3
		c-0.8,4.1-2.1,8.2-2.4,12.6s-2,9.2,0.1,13.2c6,11.5,14.4,19.8,22.5,29.6c-4.7-12.8-12.2-24.3-16.6-37.3c-2.2-6.6-0.9-14.1-3.7-20.6
		"/>
	<path class="st4" d="M456.3,523.2c5.2-1.7,10-3.6,14.2-7.2c2.1-1.7,2.7-4.1,3.8-6.4c0.6-1.2,0.9-2.5,0.7-3.7
		c-0.2-1.2-0.9-0.7-1.5,0.1c-1.5,1.8-3,4-4.6,5.9s-3.6,3.8-5.4,5.5C461.2,519.6,458.7,521.2,456.3,523.2z"/>
	<path class="st4" d="M466.7,567.7c0.6,0.8-0.1,1.5-0.9,1.9c-0.8,0.4-1.7,0.6-2.6,0.8c-3.7,0.5-7.5,1.3-11.2,2
		c1.2,2.3,2.5,3.8,5.1,4.1s5-1.1,7.7-0.9c0.5,1.6,0.5,3.1-0.9,4.2c-1.5,1-3.3,1.3-5,1.5c-2.9,0.4-5.9-0.4-8.4-1.6
		c-2.5-1.2-4.7-3.7-3.6-6.4c2-5.3,6.1-4.7,10.6-5.5c2.3-0.4,3.6-0.7,5.7-0.9C464.5,566.8,465.7,566.5,466.7,567.7z"/>
	<path class="st4" d="M591.3,240c-1.5,3.3-4.1,5.6-6.7,8c2.9-1.3,5.5-2.9,7.9-5c-0.7,3.1-1.9,5.9-3.6,8.6c1.6-0.7,2.9-1.7,4.1-2.9
		c-2.9,8.5-7,15.3-13.2,21.9c3.1-1.2,6.4-2.1,9.1-4.1c2.3-1.7,3.5-4.2,5.4-6.2c1.2,1.8,2.6,4.2,1.9,6.3
		c-4.4,14.2-11.7,23.9-22.8,33.5c2.6-2.7,5.6-4.7,7.7-7.9c3.4-4.8,5.9-10,8.2-15.5c1.1-2.7,1.6-5.7,2.4-8.6c0.3-1.2,0.3-2.6,0.6-3.9
		c0.1-0.5,0.2-0.9,0.5-1.4c1.2-2.1,2.8-4,3.7-6.4c1.1-2.9,1.7-5.9,2.2-9c0.6-3.5,1.2-6.9,1.6-10.6c0.7-6.3,1.4-12.6,1.1-19.1
		c-0.2-3.6-1.4-6.9-2.5-10.5c-0.2-0.7-0.9-3.1-2.2-3.1c-1.3,0-0.9,1.7-0.9,2.3c0.2,7.5,0.3,14.6-0.8,22
		C594.4,232.6,593,236.4,591.3,240z"/>
	<path class="st1" d="M493.4,248.6c0.4,3.6-2,6.3-5.6,6.4c-3.6,0.1-6.4-2.3-6.8-5.9s2-6.2,5.6-6.4C490.2,242.5,493,245,493.4,248.6z
		"/>
	<path class="st1" d="M556.7,250.8c0.3,3.6-2,6.5-5.7,6.7s-6.4-2.3-6.7-6c-0.3-3.6,2-6.4,5.6-6.6
		C553.7,244.7,556.4,247.2,556.7,250.8z"/>
</g>
<image style="display:none;overflow:visible;enable-background:new    ;" width="1680" height="900" xlink:href="IMG_0631.PNG"  transform="matrix(0.6603 0.1064 -0.1064 0.6603 166.6979 454.6288)">
</image>
<path class="st4" d="M803.1,794.7c-0.3,2.2-0.7,4.4-1.8,6.3c-1.4,2.3-3.8,3.8-6.1,5c-20.4,10.7-44.7,9.7-67.6,8.4
	c5.9-5.6,14.1-8.4,22.1-9.7c8.1-1.3,16.3-1.4,24.4-2.5c3.3-0.5,6.7-1.1,9.6-2.9c2.9-1.8,5-4.5,7-7.2c3.8-5.1,7.7-10.1,11.5-15.2
	c0.9-1.2,1.8-2.8,2.9-3.9c1.5-1.5,1.2,0.9,1,1.9c-0.5,3.1-0.9,6.2-1.4,9.3c-0.3,1.7-0.5,3.5-0.8,5.2
	C803.7,791.1,803,793.2,803.1,794.7z"/>
<path class="st5" d="M749.1,623.2l-7.7-7.2l-52.5-14.6c-4.1-1.1-8.4,0.7-10.3,4.5l-17.7,33.5l3.1-0.9c0,2.5,0,5.9,0,6.2
	c-0.1,0.5,25.7,12.2,31.3,11.9c5.6-0.2,37.6-20.3,37.6-20.3l7.2-0.6l6.4,3.7l4.1-7.6C752,628.9,751.4,625.4,749.1,623.2z"/>
<path class="st5" d="M750.6,631l-48,96.3c-3.2,6.5-10.4,9.9-17.5,8.2l-49.8-11.6l-11.6-13.7l54.9-104.5c1.9-3.7,6.1-5.5,10.1-4.4
	l50.5,13.8c2.1,0.6,3.9,1.8,5.3,3.4l5.3,6.3C751.3,626.6,751.6,629,750.6,631z"/>
<circle class="st6" cx="726.5" cy="663.2" r="4.5"/>
<path class="st6" d="M739.1,647.3c-3.3,6.8-6.9,9.2-9.2,8.1c-2.4-1.2-2.6-5.5,0.7-12.2c3.3-6.8,6.3-8.1,8.7-7
	C741.7,637.3,742.4,640.5,739.1,647.3z"/>
<path class="st2" d="M569.2,761.9c38.7-1,59.2-2.5,75.8-4.7c11.3-1.5,23.8-4.8,30.4-14.1c10.1-1.2,19.9-5.1,28-11.2
	c5-3.8,9.5-8.4,14.9-11.6c1.5-0.9,3.2-1.8,4.2-3.3c1.8-2.9,0.4-7.5-3-7.4c3.7-2,7.1-4.6,9.9-7.8c0.6-0.7,1.2-1.4,1.4-2.2
	c0.7-2.1-0.7-4.3-2.5-5.5c-3.6-2.3-8.2-1.3-12.4-0.3c-4.6,1.2-9.3,2.3-13.9,3.5c-5.3,1.3-10.7,2.6-16,4c-2.6,0.6-5.2,1.1-7.7,2
	c-1.4,0.5-3,0.5-4.5,0.5c-3,0.1-6.1,0.1-9.1-0.2c-3.3-0.3-6.6-0.8-9.8-1.6c-1.5-0.3-3-0.7-4.4-1.1c-0.7-0.2-1.5-0.4-2.2-0.6
	c0,0-1.3-0.5-1.4-0.4c6.1-2.4,12.4-4.3,18.9-5.6c4.4-0.9,8.8-1.4,13.1-2.2c13.1-2.4,25.9-6.6,37.8-12.6c0.5-0.2,1-0.5,1.4-0.8
	c1.5-1.3,1.5-3.8,0.5-5.6c-1.1-1.7-2.9-2.8-4.8-3.5c-8.3-3.4-17.6-2.3-26.4-0.9c-14.9,2.3-29.4,3.6-44.2,6.9
	c3.8-5.7,7.2-11.7,10-17.9c1.1-2.4,2.1-5.4,0.6-7.5c-6.6-0.4-11.6,5.8-17.6,8.6c-4.3,2-9.3,2.4-13.6,4.5c-2,1-3.9,2.3-5.8,3.4
	c-3.4,1.9-7.2,3-10.7,4.6c-8,3.8-41.6,9.3-52.4,29.4c-5.4,10,0,19.1,0,30.5C553.8,742.8,569.7,761.7,569.2,761.9z"/>
<path class="st4" d="M628.6,684.9c3.6-2,6.6-5.1,10.5-6.4c1.1-0.4,2.2-0.6,3.2-1.2c1-0.6,1.8-1.6,1.7-2.7c-3.1,1.2-6.2,2.5-9.3,3.7
	c-2.1,0.8-4.2,1.7-6.4,2.2c-2.8,0.7-5.8,0.8-8.6,1.4c-2.9,0.6-5.6,1.7-8.1,3.2c-1.3,0.8-2.5,1.6-3.6,2.6c-0.9,0.8-1.8,1.5-2.3,2.7
	c-0.2,0.7-0.4,1.6,0.6,1.3c1.4-0.5,2.7-1,4.1-1.4c2.9-0.8,5.8-1.3,8.7-2C622.4,687.4,625.7,686.5,628.6,684.9z"/>
<path class="st4" d="M637.9,702.9c-0.5,0.3-1.1,0.6-1.4,1.1c-0.3,0.5-0.2,1.3,0.3,1.6c0.2,0.1,0.5,0.1,0.7,0.1c4.5,0,9,0,13.5-0.1
	c6.1,0,12.2-0.1,18.1-1.2c-0.9-0.8-2.2-0.8-3.4-0.8c-4.3,0-8.6-0.6-12.8-2c-1-0.3-2.1-0.7-3.1-1.2c-0.7-0.3-1.3-0.4-1.1-1.3
	c0.1-0.5,0.4-0.8-0.4-0.6c-1.1,0.3-2.2,0.7-3.3,1.2C642.7,700.7,640.3,701.7,637.9,702.9z"/>
<path class="st4" d="M681.1,723.3c12-3.7,23-10.3,35.2-13.1c1.5-0.3,3.3-0.8,3.8-2.3c-14.1,0.3-26.2,10-40,12.9
	c-6.1,1.3-12.4,1.1-18.6,2.1c-4.2,0.7-8.4,1.9-12.3,3.7c-1.6,0.8-3.6,1.6-4.9,2.9c-0.6,0.5-0.2,0.7,0.4,0.7c2.6,0,5.3-0.9,7.8-1.3
	c4.4-0.8,8.8-1.4,13.2-2.1c4.6-0.8,9.2-1.7,13.7-2.9C680,723.7,680.6,723.5,681.1,723.3z"/>
<path class="st4" d="M664,747.1c2.4-0.3,4.8-0.6,6.8-2c0.9-0.7,1.7-1.6,2.8-1.8c1-0.2,2.2,0.1,2.7-0.8c-1.2-0.5-2.5-0.7-3.8-0.8
	c-7.6-0.6-15.1,1.8-22.4,4.3c-1.4,0.5-2.8,0.9-4,1.7c-0.4,0.3-1.3,0.7-0.6,1.1c0.6,0.3,1.7,0,2.4-0.1c3.4-0.3,6.9-0.6,10.3-1
	C660.1,747.5,662,747.3,664,747.1z"/>
<path class="st4" d="M647.6,654.8c-2.1,1.7-4.3,3.4-6.7,4c-0.9,0.2-1.8,0.2-2.4,0c-0.6-0.3-0.9-1-0.5-1.8c0.1-0.5,0.6-0.8,0.8-1.2
	c2.4-3,5.6-5.8,9.1-7.7c1.4-0.8,3.4-1.8,4.5-1.2c0.9,0.5,0.8,1.9,0.2,3C651.6,651.6,649.5,653.3,647.6,654.8z"/>
<path class="st4" d="M720.5,719.3c-2.3,1.3-4.8,2.6-7.4,2.2c-1-0.2-2-0.6-2.7-1.3s-1-1.9-0.6-2.8c0.2-0.6,0.6-0.9,1-1.4
	c2.8-2.9,6.2-5.2,10.1-6.2c1.6-0.4,3.8-0.8,5,0.6c1,1.2,0.8,3,0.2,4.2C725,716.8,722.5,718.1,720.5,719.3z"/>
<path class="st4" d="M724.7,707.9c-2.8,1-5.8,1.8-8.5,0.9c-1.1-0.4-2.1-1-2.7-1.9s-0.8-2.2-0.1-3.3c0.3-0.5,0.8-0.9,1.3-1.3
	c3.5-2.7,7.9-4.5,12.2-4.7c1.8-0.1,4.3-0.1,5.3,1.6c0.9,1.4,0.3,3.4-0.6,4.7C730,706.1,727.2,707,724.7,707.9z"/>
<path class="st4" d="M712.7,680.7c-2.7,0.7-5.9,1.3-8.4,0c-1-0.5-2-1.2-2.5-2.1c-0.5-1-0.5-2.2,0.2-3.1c0.4-0.5,0.9-0.8,1.4-1.1
	c3.8-2.2,8.1-3.6,12.4-3.4c1.8,0.1,4.2,0.3,5.1,2.1c0.7,1.5-0.1,3.3-1.1,4.6C718.1,679.4,715.2,680.1,712.7,680.7z"/>
</svg>
