<?xml version="1.0" encoding="utf-8"?>
<!-- Generator: Adobe Illustrator 25.2.0, SVG Export Plug-In . SVG Version: 6.00 Build 0)  -->
<svg version="1.1" id="Layer_3" xmlns="http://www.w3.org/2000/svg" xmlns:xlink="http://www.w3.org/1999/xlink" x="0px" y="0px"
	 viewBox="0 0 998.2 973.2" style="enable-background:new 0 0 998.2 973.2;" xml:space="preserve">
<style type="text/css">
	.st0{fill:#8F6014;}
	.st1{fill:#285BAA;}
	.st2{fill:#76A1A9;}
	.st3{fill:#F18F24;}
	.st4{fill:#26394B;}
	.st5{fill:#FFFFFF;}
	.st6{fill:#00022E;}
</style>
<path class="st0" d="M247.8,683.4c13.1,6.6,28.5,7.2,43,5.2s28.6-6.4,42.9-9.4c6.1-1.3,12.3-2.3,18.2-4.5c5.7-2.1,10.9-5.2,16.1-8.3
	c6.4-3.8,12.8-7.6,19.2-11.4c1.3-0.8,2.7-1.7,3.1-3.2c0.3-1.3-0.2-2.5-0.9-3.7c-4.7-8.8-13.8-14.7-23.3-17.5
	c-9.6-2.8-19.7-2.9-29.7-2.5c-11.5,0.5-22.9,1.8-34.2,3.7c-11.4,1.9-22.7,4.6-33.8,7.9c-11.1,3.3-22,7.3-32.6,12
	c-4.8,2.1-10.3,4-14.4,7.4c-2.5,2.1-6,6-4.3,9.6c2.1,4.1,9.3,3.8,13.1,5.3c5,1.9,9.4,4.9,14,7.6
	C245.4,682.2,246.6,682.8,247.8,683.4z"/>
<path class="st0" d="M811.8,623.2c-2.8,1-5.4,2.6-7.6,4.6c-3,2.7-5.3,6.2-8,9.2c-8.6,9.9-21.1,15.7-33.9,18.5
	c-12.8,2.8-26,2.8-39.1,2.8c-9,0-18,0-27.1,0c-8.5,0-17.2,0-25.3-2.5s-15.8-7.8-19.1-15.6c-0.3-0.7-0.6-1.5-0.4-2.3
	c0.3-1.3,1.6-2.1,2.7-2.7c33.3-17.7,70.4-33.2,107.7-27.2c8.9,1.4,17.5,4.1,26.2,6.7c4.3,1.3,8.7,2.6,13,4c1.9,0.6,4.2,1,5.9,2
	C808.3,621.4,810,622.3,811.8,623.2z"/>
<path class="st1" d="M565.6,340.6c0.9,1,1.9,2,2.5,3.2s0.8,2.6,1.1,3.9c1.6,7.3-0.6,19.5,4.2,25.3c1.9,2.3,4.6,3.6,7.4,4.7
	c6.3,2.4,27.9,13.8,31.1,7.8c2.8-5.2-4.3-32.8-4.7-38.7c-1-14.4-11.7-27-12-41.4c-0.2-6.3,1.7-12.4,2.3-18.7
	c0.8-8.7-0.6-17.3-2.1-25.9c-1-5.9-2.3-12.4-6.8-16.3c-3.1-2.7-10-18.6-14-18.7c-12.6-0.4-21.6,22.9-27.1,34.2
	c-5.5,11.3-5.3,24.7-1.9,36.8c1.8,6.4,4.7,12.8,9.4,17.6c0.9,0.9,2,1.7,2.6,2.8c0.5,1.1,0.4,2.4,0.4,3.5c0.1,3.4,0.8,6.7,2,9.9
	C561.1,334.4,563,337.7,565.6,340.6z"/>
<path class="st2" d="M460,311.7c0,0,3.5,43.3-25.3,57.7s-69,36.6-69,36.6l22.6,62.4l77.3,41.8h141.5l45.4-112.7
	c0,0-49.5-12.1-70.1-24c-27.1-15.5-25.1-56-25.1-56L460,311.7z"/>
<path class="st0" d="M449.2,455.4c8.6,2.4,17.5,3.7,26.4,5s17.7,2.5,26.6,3.8c7.8,1.1,15.7,2.2,23.6,2.2c17.3,0,34.2-5.5,50.2-12.2
	c11-4.6,22-10.2,29.7-19.3c4.9-5.8,8.2-12.8,11.4-19.7c3.8-8.2,7.6-16.3,11.4-24.5c5.3,8.8,2.6,20.2-1.6,29.6
	c-12,27.4-35.4,49.7-63.5,60.3c-25.3,9.6-53.2,9.9-80.3,8.4c-12.4-0.7-25-1.7-36.7-5.7c-9.3-3.2-17.9-8.3-26.1-13.8
	c-8.9-6-17.6-12.8-22.5-22.3c-2.8-5.4-4.2-11.4-7.3-16.6c-4.9-8.1-14.9-14.3-16.5-24.1c-1.1-6.7,8.8-7.3,12.1-3.4
	c3,3.5,4.9,8.1,7.5,11.9c2.5,3.7,5.2,7.2,8.2,10.5c5.9,6.6,12.7,12.4,20.1,17.3s15.5,8.8,23.9,11.5
	C447,454.8,448.1,455.1,449.2,455.4z"/>
<path class="st1" d="M504.3,357.8c34.8,4.4,51-18.6,55.2-30c-2.8-3.7-8.5-2.9-13.1-1.9c-5.7,1.3-11.4,2.2-17.1,2.7
	c-5.8,0.5-11.6,0.7-17.5,0.4c-5.8-0.3-11.6-1-17.3-2.1c-5.7-1.2-24-20.3-29.3-22.4c-5.4-2.1-5.2,6.7-5.1,7.1
	C460.3,312.7,461.9,352.4,504.3,357.8z"/>
<path class="st3" d="M386.3,653.5c0,0,8.2,20.4,7.5,38.2S370.2,794.1,373,804.4c2.7,10.3,65.7,8.2,99.7,8.2s125.8-13.7,167-7.5
	s59.6,2.1,63.1,0.7c3.4-1.4-49.7-112.5-49.7-131.4s3.8-38.7,3.8-38.7L386.3,653.5z"/>
<g>
	<path class="st2" d="M775.5,611.1c0,0,38.1,123.2,31.6,155.7s12.8,48.3-74.5,50.4s-262.1-36.3-282.4-31.7
		c-20.2,4.6-30.1,18.3-87.8,20.8c0,0-55.3,17.7-58.2,9.1c-2.4-7.2,5.1-8.8,5.1-8.8s-35.4,8.4-38.7,1.3c-3.6-7.8,4.9-10.8,4.9-10.8
		s-12.9,4.3-14.7-1.1c-2.7-8.2,14.4-14.3,14.4-14.3s1.1-12.2,23.3-23.6c22.2-11.5,26.3-14.5,26.3-14.5s-5-10.4,1.9-11.3
		c2.8-0.3,11.4,3.5,24.9,2.5c0,0,43.8-13.9,87.9-15.9c0,0,165.4-13,236.3-11c0,0-6.7-79.6-9-107.8L775.5,611.1z"/>
	<path class="st4" d="M746.9,726.4c3.7,1.3,7.9,3.2,9.1,6.9c-4.9,2.9-11.2,1.2-16.6-0.7c-22-7.3-44-14.7-65.9-22
		c-0.3-0.1,1.5-2.4,1.7-2.6c0.8-0.5,1.4-0.2,2.2-0.1c2.6,0.5,5.1,0.9,7.7,1.4c5.1,1,10.1,2.1,15.2,3.2c10.1,2.4,20.1,5.1,30.1,8.2
		C735.9,722.6,741.4,724.4,746.9,726.4z"/>
	<path class="st4" d="M532,817.1c-7.8-0.6-15.5-1.7-23.2-2.7c-31.5-4-15.8-25.8-47.6-26.7c-4.9-0.1-9.9-0.2-14.6,0.9
		c-4.8,1.2-9.1,3.5-13.5,5.6c-14.3,6.9-29.6,11.5-45.3,13.8c-9.7,1.4-19.8,1.8-29-1.7c12.9-2.5,25.7-5.1,38.6-7.6
		c8.4-1.7,17-3.4,24.6-7.2c5.4-2.7,10.3-6.5,15.9-8.8c9.6-3.9,20.4-3.2,30.7-2.4c35.6,2.8,23.7,25,59.3,27.9
		c8.5,0.7,16.9,1.3,25.3,2.5c4.8,0.7,9.5,1.5,14.3,2c2.2,0.2,4.9-0.1,7,0.4c0.9,0.2,2.2,1.5,1.3,2.5c-0.5,0.6-2,0.5-2.7,0.5
		c-1.2,0.2-2.5,0.3-3.7,0.4c-2.4,0.3-4.8,0.5-7.2,0.7c-4.8,0.4-9.6,0.5-14.4,0.5C542.7,817.7,537.3,817.5,532,817.1z"/>
	<path class="st4" d="M345.7,793.3c1.1-0.6,2.3-1.2,3.1-2.1c0.9-0.9,1.3-2.3,0.9-3.5c-2.9,0-5.3,1.9-7.6,3.6
		c-5.1,3.6-10.9,6.3-17,7.9c-3.3,0.9-6.7,1.5-9.8,2.7c-1.5,0.6-3,1.3-4.3,2.3c-0.5,0.3-1.6,1.1-1.8,1.6c-0.2,0.5,0.5,0.5,0.9,0.4
		c1.8-0.1,3.7-0.8,5.5-1.3c2-0.5,4-1.1,5.9-1.7c3.9-1.2,7.8-2.6,11.6-4.1c3.8-1.5,7.6-3.2,11.3-5
		C344.8,793.7,345.3,793.5,345.7,793.3z"/>
	<path class="st4" d="M276,797c2.5-3.2,6.8-4.5,10.7-5.7c15.8-4.8,31.4-10.4,46.6-16.9c2.9-1.2,5.8-2.5,8.9-3.4
		c1.1-0.3,2.2-0.5,3.3,0c0.7,0.3,1.4,0.9,0.7,1.6c-0.5,0.5-1.3,0.7-1.9,1c-0.7,0.3-1.4,0.6-2.1,0.9c-1.4,0.6-2.8,1.2-4.2,1.8
		c-2.8,1.1-5.6,2.2-8.5,3.2c-5.7,2-11.5,3.7-17.3,5.4s-11.6,3.3-17.4,5.1c-5.7,1.8-11.4,3.8-17,6.2C277.5,796.4,276.3,796.7,276,797
		z"/>
	<path class="st4" d="M340.2,752.3c-0.5,0.8-1.3,1.3-2.1,1.8c-3.7,2.4-7.4,4.7-11.3,6.6c-4.8,2.3-10,4-15,5.7
		c-12.2,4.2-24.2,9.3-35.8,15c0.4-2.1,2.4-3.4,4.2-4.5c17.5-10.1,37.5-15.2,55-25.3c1.2-0.7,2.7-2,4.1-2S340.7,751.4,340.2,752.3z"
		/>
	<path class="st4" d="M332.6,740.1c2.6-0.9,5.2-1.9,7.9-2.4c3.8-0.7,7.9-0.7,11-2.9c-6.5,0.6-12.8,2.1-19.2,3.6
		c-1.5,0.4-3,0.7-4.3,1.6c-0.8,0.5-1.6,1.3-2.2,2.1c-0.6,0.9,0.6,0.8,1.1,0.5C328.8,741.5,330.7,740.8,332.6,740.1z"/>
	<path class="st4" d="M371.6,734.6c-4.4,1.2-8.7,2.5-13.2,2.9c-2.5,0.2-5.6-0.2-6.7-2.5c0.9-1.1,2.3-1.5,3.7-1.8
		c8.8-2.2,17.7-4.4,26.5-6.6c4.6-1.1,9.2-2.3,13.8-3.1c6.2-1.1,12.5-1.7,18.8-2.3c2.8-0.3,5.5-0.5,8.3-0.8c2.3-0.2,4.9-0.8,7.3-0.5
		c0.3,0,1.7,0.1,1.8,0.5c0.1,0.4-1.8,0.6-2.1,0.7c-2.7,0.5-5.4,1.1-8.1,1.7c-5.4,1.1-10.8,2.3-16.2,3.5c-5.4,1.2-10.7,2.4-16.1,3.7
		c-5.3,1.3-10.7,2.7-16,4.1C372.9,734.2,372.2,734.5,371.6,734.6z"/>
	<path class="st1" d="M470.8,816.3c-6.8-0.3-13.7-0.5-20-3c-0.7-0.3-1.4-0.6-1.7-1.2c-0.5-1,0.1-2.3,1-2.9c1-0.6,2.2-0.6,3.3-0.6
		c7.4,0,14.8,1.2,22.1,2c4.5,0.4,8.9,0.7,13.4,0.9s9,0.2,13.5,0.3s9.1,0.1,13.6,0.3c4.5,0.2,9,0.4,13.5,0.9c2.2,0.2,4.4,0.5,6.7,0.8
		c1.1,0.2,2.2,0.4,3.3,0.5c0.5,0.1,2.3,0.1,2.4,0.7c0.2,0.6-0.8,1.2-1.2,1.4c-0.9,0.4-2.2,0.4-3.2,0.5c-2.3,0.3-4.6,0.6-7,0.8
		c-4.7,0.4-9.3,0.6-14,0.6s-9.4-0.1-14.1-0.3s-9.4-0.5-14.2-0.7c-4.7-0.3-9.4-0.6-14.1-0.8C473.1,816.4,471.9,816.4,470.8,816.3z"/>
	<path class="st1" d="M722.4,713.9c14.4,3,29.1,7,40.6,16.2c2.1,1.6,4.2,3.7,4.4,6.3c-3.1,0.6-6.4-0.4-9.4-1.4
		c-20.4-6.9-40.5-14.9-61.4-20.3c-4.1-1.1-8.2-2-12.3-3.4c-2-0.7-4-1.4-5.9-2.3c-0.5-0.2-1-0.5-1.5-0.7c-0.3-0.2-0.8-0.3-0.4-0.6
		c0.3-0.2,1-0.1,1.4,0c0.6,0,1.1,0.1,1.7,0.1c4.6,0.3,9.2,0.7,13.8,1.3c4.6,0.5,9.1,1.2,13.7,2c4.5,0.8,9.1,1.6,13.6,2.5
		C721.3,713.6,721.8,713.8,722.4,713.9z"/>
	<path class="st4" d="M271,807c-1.6-0.6-3.3-2-3.4-3.8c-0.2-2.2,2.1-3.6,3.7-4.7c4-2.4,8.9-3.3,13.6-3.2c0.7,0.1,1.3,0.1,1.9,0.4
		c1.2,0.5,1.8,1.8,1.8,3s-0.5,2.3-1.2,3.3c-1.9,2.5-5.1,3.6-8.1,4.3C276.7,807.1,273.6,808,271,807z"/>
	<path class="st4" d="M303.6,813.8c-1.3-0.5-2.7-1.6-2.8-3.1c-0.1-1.8,1.7-3,3.1-3.8c3.3-2,7.3-2.7,11.2-2.6c0.5,0.1,1.1,0,1.6,0.3
		c0.9,0.4,1.5,1.5,1.5,2.4c0,1-0.4,1.9-1,2.7c-1.5,2-4.2,2.9-6.7,3.6C308.3,813.8,305.8,814.6,303.6,813.8z"/>
	<path class="st4" d="M323.1,733.5c-1-0.8-1.7-1.9-1.2-2.8c0.7-1,2.9-1,4.5-0.9c3.9,0.2,8,1.3,11.5,2.9c0.5,0.2,1,0.4,1.3,0.8
		c0.7,0.6,0.7,1.4,0.3,1.9c-0.4,0.5-1.3,0.9-2.2,1.1c-2.3,0.5-5.2,0-7.7-0.6C327.4,735.3,324.7,734.7,323.1,733.5z"/>
	<path class="st4" d="M261.5,794.8c-1.6-0.5-3.4-1.8-3.6-3.5c-0.3-2.2,1.9-3.8,3.4-4.9c3.9-2.7,8.7-3.9,13.4-4c0.7,0,1.3,0,2,0.2
		c1.2,0.5,1.9,1.7,2,2.8c0.1,1.2-0.4,2.4-1,3.4c-1.7,2.6-4.9,3.9-7.8,4.8C267.2,794.6,264.2,795.6,261.5,794.8z"/>
	<path class="st4" d="M268.6,784.9c-1.4-0.3-3.1-1.2-3.4-2.7c-0.5-1.8,1.2-3.4,2.4-4.5c3-2.7,7-4.2,11.1-4.8c0.6,0,1.1-0.1,1.7,0
		c1.1,0.3,1.8,1.2,2,2.2c0.2,1-0.1,2-0.5,3c-1.2,2.4-3.8,3.8-6.2,4.9C273.4,784.1,270.9,785.3,268.6,784.9z"/>
</g>
<path class="st4" d="M582.4,332.8c5.2-3.2,9.3-8.2,11.4-14c0.2,6.1-1.3,12.2-4.2,17.5c2.2-1.5,4-3.7,4.8-6.2
	c1.1,5.1,0.8,10.4-1,15.3c6.7-9.2,8.4-21.9,4.5-32.6c-0.6-1.7-1.4-3.4-1.8-5.3c-0.8-3.9,0.2-7.8,0.6-11.6c0.4-3.6-2.3,0.2-2.8,1.5
	c-1.5,3.5-2,7.5-3.1,11.1c-1.1,3.9-2.4,7.7-3.7,11.5C585.8,324.3,584.2,328.6,582.4,332.8z"/>
<path class="st1" d="M546.1,399.3c2.6-11.4,5.1-22.8,7.7-34.2c1.7-7.7,3.5-15.5,4.2-23.4c0.2-2,0.3-4,0.3-6c0-1.2,0.3-3-0.2-4.2
	c-0.7-1.4-1.8,0.4-2.3,1.1c-3.1,4.8-4.2,10.5-5.3,15.9c-1.5,7.8-2.7,15.8-3.4,23.7c-0.7,8-1.1,16-1,24
	C546.1,397.4,546.1,398.4,546.1,399.3z"/>
<path class="st1" d="M667.8,734.5c-11.2-1.5,27.8-29,16.5-29.1c-60.2-0.7-157,21.4-218,26.5c-13.3,1.1-33.1,2.9-47.4,3.9
	c-10,0.7-31.1,2-41,3c-15.8,1.5-29.3,11.7-41.9,21.5c2.9-0.2,5.7-0.4,8.6-0.7c113.2-8.8,229.3-17.4,342.9-16.5c2.8,0,5.6,0,8.3-0.6
	c0.8-0.2,2-0.5,1.8-1.6s-1.9-1-2.8-1.1c-5.8-1.1-11.6-2.5-17.4-3.7C674.3,735.6,671.1,735,667.8,734.5z"/>
<path class="st1" d="M643.9,734.4c0,0,73.7,6.2,92.9,2.6c19.2-3.6,29.1-12.1,44.2-6.5c15.1,5.6,26.2,33.2,26.2,33.2l-4.7,35.4
	l-69.9,18.1l-140.5-4.9L643.9,734.4z"/>
<path class="st1" d="M533.4,416.5c1,0.5,1.8-0.8,2.1-1.9c2.2-8.7,2.3-17.8,2.2-26.7c0-1,0.6-4.3-1-3.9s-1.9,2.6-2.1,3.8
	c-0.8,4.5-1.3,9-1.5,13.6c-0.1,2.6-0.2,5.1-0.1,7.7c0,1.2,0.1,2.5,0.2,3.7C533.2,413.2,533.1,416.3,533.4,416.5z"/>
<g>
	<path class="st5" d="M793.9,677.7l-48,96.3c-3.2,6.5-10.4,9.9-17.5,8.2l-49.8-11.6L667,756.9L722,652.4c1.9-3.7,6.1-5.5,10.1-4.4
		l50.5,13.8c2.1,0.6,3.9,1.8,5.3,3.4l5.3,6.3C794.6,673.3,794.9,675.7,793.9,677.7z"/>
	<circle class="st6" cx="769.8" cy="710" r="4.5"/>
	<path class="st6" d="M782.5,694c-3.3,6.8-6.9,9.2-9.2,8.1c-2.4-1.2-2.6-5.5,0.7-12.2s6.3-8.1,8.7-7C785,684,785.7,687.2,782.5,694z
		"/>
	<path class="st2" d="M600,742.9c-145.2,1.3-156.3-10.4-226.4-0.1c0,0-2.7-79.9-3.8-108.1l-106.6,23.8c0,0-23.4,126.8-13,158.3
		c10.3,31.5-7.1,49.4,79.9,41.3c86.9-8.2,304.7-57.5,325.3-55.3C655.4,802.8,656.5,742.4,600,742.9z"/>
	<path class="st4" d="M257.3,844.2c0.6,2.1,1.2,4.3,2.5,6.1c1.6,2.1,4.2,3.3,6.7,4.3c21.5,8.3,45.5,4.4,68.2,0.4
		c-6.6-4.9-14.9-6.6-23.1-7s-16.3,0.5-24.5,0.4c-3.4-0.1-6.8-0.3-9.9-1.7s-5.5-3.9-7.8-6.3c-4.4-4.6-8.8-9.2-13.2-13.7
		c-1.1-1.1-2.1-2.5-3.4-3.5c-1.7-1.3-1.1,1-0.8,2c0.8,3,1.7,6.1,2.5,9.1c0.5,1.7,0.9,3.4,1.4,5.1
		C256.4,840.7,257.3,842.7,257.3,844.2z"/>
	<path class="st4" d="M305.1,769.7c-3.5,1.8-7.4,4.1-8.2,7.9c5.2,2.3,11.3-0.2,16.4-2.6c21-9.9,41.9-19.8,62.9-29.6
		c0.3-0.1-1.7-2.2-2-2.3c-0.8-0.4-1.4-0.1-2.2,0.2c-2.5,0.8-5,1.5-7.4,2.3c-4.9,1.6-9.8,3.3-14.7,5c-9.8,3.5-19.4,7.4-28.9,11.6
		C315.6,764.6,310.3,767.1,305.1,769.7z"/>
	<path class="st1" d="M328,754.4c-13.9,4.7-28,10.4-38.4,20.8c-1.9,1.9-3.7,4.2-3.6,6.8c3.2,0.2,6.3-1.2,9.2-2.5
		c19.4-9.3,38.5-19.6,58.5-27.4c3.9-1.5,7.9-3,11.8-4.8c1.9-0.9,3.8-1.9,5.6-3c0.5-0.3,0.9-0.6,1.4-0.9c0.3-0.2,0.8-0.4,0.3-0.6
		c-0.4-0.2-1,0.1-1.4,0.1c-0.6,0.1-1.1,0.2-1.7,0.3c-4.5,0.8-9.1,1.8-13.6,2.9c-4.5,1.1-8.9,2.3-13.4,3.6c-4.4,1.3-8.8,2.7-13.2,4.1
		C329.1,754,328.5,754.2,328,754.4z"/>
	<path class="st2" d="M612.5,808.6c38.7-1,59.2-2.5,75.8-4.7c11.3-1.5,23.8-4.8,30.4-14.1c10.1-1.2,19.9-5.1,28-11.2
		c5-3.8,9.5-8.4,14.9-11.6c1.5-0.9,3.2-1.8,4.2-3.3c1.8-2.9,0.4-7.5-3-7.4c3.7-2,7.1-4.6,9.9-7.8c0.6-0.7,1.2-1.4,1.4-2.2
		c0.7-2.1-0.7-4.3-2.5-5.5c-3.6-2.3-8.2-1.3-12.4-0.3c-4.6,1.2-9.3,2.3-13.9,3.5c-5.3,1.3-10.7,2.6-16,4c-2.6,0.6-5.2,1.1-7.7,2
		c-1.4,0.5-3,0.5-4.5,0.5c-3,0.1-6.1,0.1-9.1-0.2c-3.3-0.3-6.6-0.8-9.8-1.6c-1.5-0.3-3-0.7-4.4-1.1c-0.7-0.2-1.5-0.4-2.2-0.6
		c0,0-1.3-0.5-1.4-0.4c6.1-2.4,12.4-4.3,18.9-5.6c4.4-0.9,8.8-1.4,13.1-2.2c13.1-2.4,25.9-6.6,37.8-12.6c0.5-0.2,1-0.5,1.4-0.8
		c1.5-1.3,1.5-3.8,0.5-5.6c-1.1-1.7-2.9-2.8-4.8-3.5c-8.3-3.4-17.6-2.3-26.4-0.9c-14.9,2.3-29.4,3.6-44.2,6.9
		c3.8-5.7,7.2-11.7,10-17.9c1.1-2.4,2.1-5.4,0.6-7.5c-6.6-0.4-11.6,5.8-17.6,8.6c-4.3,2-9.3,2.4-13.6,4.5c-2,1-3.9,2.3-5.8,3.4
		c-3.4,1.9-7.2,3-10.7,4.6c-8,3.8-41.6,9.3-52.4,29.4c-5.4,10,0,19.1,0,30.5C597.1,789.5,613,808.4,612.5,808.6z"/>
	<path class="st4" d="M671.9,731.6c3.6-2,6.6-5.1,10.5-6.4c1.1-0.4,2.2-0.6,3.2-1.2c1-0.6,1.8-1.6,1.7-2.7c-3.1,1.2-6.2,2.5-9.3,3.7
		c-2.1,0.8-4.2,1.7-6.4,2.2c-2.8,0.7-5.8,0.8-8.6,1.4c-2.9,0.6-5.6,1.7-8.1,3.2c-1.3,0.8-2.5,1.6-3.6,2.6c-0.9,0.8-1.8,1.5-2.3,2.7
		c-0.2,0.7-0.4,1.6,0.6,1.3c1.4-0.5,2.7-1,4.1-1.4c2.9-0.8,5.8-1.3,8.7-2C665.7,734.1,669,733.2,671.9,731.6z"/>
	<path class="st4" d="M681.2,749.6c-0.5,0.3-1.1,0.6-1.4,1.1c-0.3,0.5-0.2,1.3,0.3,1.6c0.2,0.1,0.5,0.1,0.7,0.1c4.5,0,9,0,13.5-0.1
		c6.1,0,12.2-0.1,18.1-1.2c-0.9-0.8-2.2-0.8-3.4-0.8c-4.3,0-8.6-0.6-12.8-2c-1-0.3-2.1-0.7-3.1-1.2c-0.7-0.3-1.3-0.4-1.1-1.3
		c0.1-0.5,0.4-0.8-0.4-0.6c-1.1,0.3-2.2,0.7-3.3,1.2C686,747.4,683.6,748.4,681.2,749.6z"/>
	<path class="st4" d="M724.4,770c12-3.7,23-10.3,35.2-13.1c1.5-0.3,3.3-0.8,3.8-2.3c-14.1,0.3-26.2,10-40,12.9
		c-6.1,1.3-12.4,1.1-18.6,2.1c-4.2,0.7-8.4,1.9-12.3,3.7c-1.6,0.8-3.6,1.6-4.9,2.9c-0.6,0.5-0.2,0.7,0.4,0.7c2.6,0,5.3-0.9,7.8-1.3
		c4.4-0.8,8.8-1.4,13.2-2.1c4.6-0.8,9.2-1.7,13.7-2.9C723.3,770.4,723.9,770.2,724.4,770z"/>
	<path class="st4" d="M707.3,793.8c2.4-0.3,4.8-0.6,6.8-2c0.9-0.7,1.7-1.6,2.8-1.8c1-0.2,2.2,0.1,2.7-0.8c-1.2-0.5-2.5-0.7-3.8-0.8
		c-7.6-0.6-15.1,1.8-22.4,4.3c-1.4,0.5-2.8,0.9-4,1.7c-0.4,0.3-1.3,0.7-0.6,1.1c0.6,0.3,1.7,0,2.4-0.1c3.4-0.3,6.9-0.6,10.3-1
		C703.4,794.2,705.3,794,707.3,793.8z"/>
	<path class="st4" d="M691,701.5c-2.1,1.7-4.3,3.4-6.7,4c-0.9,0.2-1.8,0.2-2.4,0c-0.6-0.3-0.9-1-0.5-1.8c0.1-0.5,0.6-0.8,0.8-1.2
		c2.4-3,5.6-5.8,9.1-7.7c1.4-0.8,3.4-1.8,4.5-1.2c0.9,0.5,0.8,1.9,0.2,3C694.9,698.3,692.8,700,691,701.5z"/>
	<path class="st4" d="M763.8,766c-2.3,1.3-4.8,2.6-7.4,2.2c-1-0.2-2-0.6-2.7-1.3c-0.7-0.7-1-1.9-0.6-2.8c0.2-0.6,0.6-0.9,1-1.4
		c2.8-2.9,6.2-5.2,10.1-6.2c1.6-0.4,3.8-0.8,5,0.6c1,1.2,0.8,3,0.2,4.2C768.3,763.5,765.8,764.8,763.8,766z"/>
	<path class="st4" d="M768,754.6c-2.8,1-5.8,1.8-8.5,0.9c-1.1-0.4-2.1-1-2.7-1.9c-0.5-0.9-0.8-2.2-0.1-3.3c0.3-0.5,0.8-0.9,1.3-1.3
		c3.5-2.7,7.9-4.5,12.2-4.7c1.8-0.1,4.3-0.1,5.3,1.6c0.9,1.4,0.3,3.4-0.6,4.7C773.4,752.8,770.5,753.7,768,754.6z"/>
	<path class="st4" d="M756.1,727.4c-2.7,0.7-5.9,1.3-8.4,0c-1-0.5-2-1.2-2.5-2.1c-0.5-1-0.5-2.2,0.2-3.1c0.4-0.5,0.9-0.8,1.4-1.1
		c3.8-2.2,8.1-3.6,12.4-3.4c1.8,0.1,4.2,0.3,5.1,2.1c0.7,1.5-0.1,3.3-1.1,4.6C761.4,726.1,758.5,726.8,756.1,727.4z"/>
</g>
<path class="st3" d="M376.8,398.2c0,0-22.7,6.4-57.6,46.1s-54.2,117.3-64.5,144S217,665.1,217,665.1s6.2-8.9,17.1-6.5
	c11,2.4,25.8,12.8,61.7,8c24.7-3.3,37-14.7,52.7-15.6s37.7,2.6,37.7,2.6s8.2,20.4,7.5,38.2s259.1,1.5,259.1-17.4s3.8-38.7,3.8-38.7
	s37.3,12.2,56.5,4s47.3-1.3,58.3-7.2s30.8-13.4,39.1-10.7c0,0-89.1-178.4-126.1-205.1s-54.8-26-54.8-26s3.1,82.6-105,82.6
	C391.8,473.1,376.8,398.2,376.8,398.2z"/>
<path class="st0" d="M657.2,640c0.3-2.5,0.7-5.1,1.8-7.4c1.2-2.2,3-4,4.8-5.8c20.9-20.2,39.2-43,54.4-67.8
	c-13.4,9.4-25.9,19.9-37.5,31.4c9.6-17.3,19.2-34.6,28.8-51.9c6-10.8,12.2-22.2,12.1-34.6c-21.3,24.4-39.6,51.4-54.5,80.2
	c0.1-4.5,0.2-8.9,0.3-13.4c-4.7,12.6-9.4,25.2-14.1,37.8c1.9-19.4,3.7-38.8,5.6-58.2c-3.1,0.2-4.6,3.7-5.5,6.7
	c-2.3,8.3-4.1,16.7-5.3,25.2c-1.7,12.5-2.1,25.1-2.4,37.6c-0.5,15.9-0.9,31.8-1.4,47.7c-0.1,4.4-4.3,9.7-4,14.1
	c4-1.3,11.6-5,12.5-9.2c1.4-6.5,1.8-13.3,2.7-19.8C656.1,648.4,656.6,644.2,657.2,640z"/>
<path class="st0" d="M363.2,588.6c9.2,10.7,18.3,21.5,27.5,32.2c-11.4-33.5-22.9-67.6-23.6-102.9c8.1,20.5,16.1,41,24.2,61.5
	c0-3.3-0.1-6.6-0.1-9.9c10.5,40.7,15.8,82.7,15.5,124.7c0,3.2-0.1,6.5-1.2,9.6c-1.5,4-4.7,7-6.6,10.8c-2,4.1-0.1,8.3-0.1,8.3
	s-6.5,0.7-10.9,2c0-9.7,6.4-24.4,4.8-43.4c-0.6-7.7-3.9-14.3-5.6-21.7c-1.2-4.8-0.2-9.7-1.2-14.5c-2.6-13-11.1-24.2-16.8-36
	C366,603,363.5,596,363.2,588.6z"/>
<path class="st0" d="M411.7,680c18.6,4.3,38.1,2.4,57.1,0.4c37.6-3.9,75.3-7.8,112.9-11.7c22.3-2.3,44.8-4.7,65.9-12.1
	c1,8.7,1.3,19-5.8,24.2c-3.2,2.3-7.2,3-11.2,3.6c-35.1,5.2-70.5,8.3-105.8,11.5c-10.4,0.9-20.9,1.8-31.3,2.5
	c-32.8,2-65.8,1.2-98.5-2.3c-1.3-6.9-1.7-15.4,0.5-22.2C401.6,673.5,405.5,680,411.7,680z"/>
<path class="st0" d="M261.8,639.5c9.9,0.7,19.8,2.9,29.7,2.4c13-0.6,25.3-5.6,37.7-9.5c12.4-3.9,25.9-6.7,38.3-2.7
	c-13.9-6.5-30-5.7-45.1-3s-30,7-45.4,7.1c-7.7,0-15.4-1-23-0.1c-5.2,0.6-13.1,2.5-16.5,7c-0.3,0.5-1.2,1.9-0.4,2.4
	c0.5,0.3,3.2-1.2,3.8-1.4c3.1-1.1,6.4-1.7,9.6-2C254.2,639.2,258,639.2,261.8,639.5z"/>
<path class="st0" d="M684.2,612.4c8.6,1.8,17,4.9,25.7,4.8c13.7,0,26.3-7.6,39.9-8.9c4.5-0.4,9-0.1,13.4-1
	c8.2-1.7,15.3-7.7,23.6-8.2c-14.5-5.8-30.6,1-46.2,2.6c-5.2,0.5-10.4,0.5-15.5,1.6c-4.8,1.1-9.4,3.2-14.3,4.1
	c-8.7,1.7-17.5-0.6-26.3-1.4c-5.9-0.5-12.2-0.1-17.6,2.4c-0.8,0.4-4.2,2.8-2.4,3.9c0.6,0.4,3.3-0.7,4.1-0.8c1.6-0.2,3.2-0.3,4.8-0.4
	C677.1,611.2,680.7,611.6,684.2,612.4z"/>
<g>
	<path class="st4" d="M587.8,352.9c-7.8-1-14-4.7-20.5-9.1c-2.8-1.9-5.2-4-5.4-7.5c1.7,0.3,3.5,0.8,5.1,1.4
		c-0.6-3.5-1.1-7.2-1.2-10.8c-0.1-1.8,0-3.7,0.7-5.3c0.4-1,1.4-10.6,3-8.7c1.2,1.4,0.1,9.3,0.2,11.4c0.1,2.2,0.3,3.2,0.7,4.9
		c1.7,6.6,4.6,11.9,9,17c1.3,1.5,2.5,2.4,4.1,3.8C584.5,350.9,586.2,352.6,587.8,352.9z"/>
	<path class="st4" d="M473.8,339.5c6.7,7.5,14.7,13.2,24.6,15.5c6.5,1.5,12.6,1,19,0.7c5.1-0.3,9.9-0.6,15-2
		c11.8-3.3,21-9.7,28.6-19.4c3.4-4.4,5-9.1,5-14.6c-3.7,1-5.2,3.8-7.7,6.5c-10,10.6-22.3,15.1-36.5,17.5c-9,1.5-17.5,1.7-26.1-1.5
		c-4.9-1.8-8.5-5.4-12.7-8.4c-0.7-0.2-1.6-1.3-2.1-1.7c-0.8-0.7-1.5-1.3-2.2-1.9c-1.5-1.3-2.8-2.7-4.2-4s-2.9-2.8-4.2-4
		c-1.3-1.1-2.4-2.4-3.8-3.2c-1.4-0.8-4.2-1.5-3.2,1.1c1.2,3.2,3,6.1,4.6,9.5S471.2,336.5,473.8,339.5z"/>
	<path class="st2" d="M460.3,311.8c12.8,29.6,32.3,40.8,66.6,38.3s46.4-34.5,44.1-60.4c-2.3-25.9-2.1-31-0.1-50.1
		c2-19.2,1.9-32.5-0.3-51.2c-17.2-5.4-37.5-19.8-54.8-22.1c-17.3-2.3-50.6-6.8-63.5,5.9c-12.9,12.8-18.9,38-30.8,53.2
		C437.4,253.8,447.5,282.1,460.3,311.8z"/>
	<path class="st5" d="M471.4,256.9c6.6,0.7,13.5,1.3,19.9,0.7c6.4-0.6,11.8-2.2,17.8-4.5c-3.7-3.4-5.9-7.2-11.3-8.7
		c-5.4-1.5-15.7,0.9-20,3.6C473.4,250.8,473.3,253.1,471.4,256.9z"/>
	<path class="st1" d="M496.4,241.3c4,0,7.3,3,7.4,7c0.1,4.1-3.2,6.9-7.2,6.9c-4-0.1-7.3-2.9-7.4-7S492.4,241.3,496.4,241.3z"/>
	<path class="st4" d="M471.3,256.9c2-4.3,2.4-8,6.9-10.9c5.6-3.7,13.1-6.3,20.2-4.5c5.5,1.3,8.2,7.1,10.6,11.6
		c-3.7-2.2-7.1-5.1-11.8-5.6c-6.2-0.6-14.5,1.3-19.5,4.1C474.3,253.5,474,254.7,471.3,256.9z"/>
	<path class="st5" d="M534.1,252.5c5.7,1.7,11.7,3.2,17.4,3.4s10.8-0.7,16.3-2.2c-2.7-3.5-4.1-7.4-8.7-9.3c-4.6-2-13.9-1.2-18.1,0.7
		C536.9,247.1,536.3,249.3,534.1,252.5z"/>
	<path class="st1" d="M557.4,240.6c3.8,0,6.6,2.9,6.6,6.6c0,3.7-2.7,6.6-6.5,6.6c-3.7,0-6.4-2.9-6.4-6.6S553.6,240.6,557.4,240.6z"
		/>
	<path class="st4" d="M534,252.5c1.9-3.6,2.1-6.6,6.5-8.7c5.5-2.7,13.2-5,19.5-2.5c4.9,2,6.4,7.8,7.8,12.4c-2.8-2.5-5.4-5.5-9.3-6.4
		c-5.4-1.2-13-0.6-17.7,1.2C537.3,249.8,536.8,250.8,534,252.5z"/>
	<path class="st4" d="M532.6,234.9c-0.3,1.7-0.4,4.5,0.9,5.2c0.6,0.3,0.9-0.1,1.3-0.3c2.4-1.1,4.4-2.7,7-3.6c5-1.8,9.9-2,15.2-1.1
		c5.3,1,10.2,2.9,15.2,4.7c-8.9-9.6-19.2-13.6-32.1-11.1c-1.9,0.4-3.2,1.3-4.7,2.1C533.9,231.6,532.8,233.6,532.6,234.9z"/>
	<path class="st4" d="M509.9,235.4c0.7,1.7,1.3,4.2-0.1,5.1c-0.6,0.4-1,0-1.6-0.2c-2.9-0.7-5.7-2-8.7-2.4c-6.1-0.8-12.2,0.1-18,2.1
		c-5.8,2-10.9,4.9-16.3,7.6c8.8-11.7,20-16.9,34.5-17.1c2.1,0,4.1,0.6,5.9,1.2C507.4,232.3,509.4,234.1,509.9,235.4z"/>
	<path class="st1" d="M537.8,281.2c-1.4-10-2.8-19.9-4.3-29.9c-0.2-1.6-0.5-3.1-1.1-4.7c-0.3-0.9-0.8-3-2.1-2.7
		c-1.3,0.2-1.3,1.7-1.3,2.7c0.1,1.7,0.5,3.3,0.7,5c0.5,3.3,1,6.5,1.6,9.8c0.7,3.2,1.4,6.4,2.4,9.5s2.1,6.1,3.3,9.1
		C537.3,280.4,537.7,280.7,537.8,281.2z"/>
	<path class="st1" d="M420.1,285.2c-3.2,4.2-6.6,7.9-8,13.3c-1.4,5.3-0.6,10.3,0.2,16c0.4,3.1,1.5,7.7,1.9,11.1
		c-9,16.8-7.2,33.1,0.4,50c2.1,4.8,5.1,8.7,7.1,13.5c1.6,3.8,2.3,7.3,3.7,11.2c3.3,9.7,7.6,18.9,13.8,27.2
		c-2.6,14.7,2.2,26.7,9.6,39.2c1,1.7,1.9,3,2.1,4.9c0.1,1.5-0.4,2.6-0.8,3.9c-3,9.2-3.3,17.9-0.6,27.2c-1.4,2.4-2,5.1-2.4,7.8
		c-0.3,2.2-0.6,4.4-0.9,6.6c-0.3,2.5-0.7,4.8-0.4,7.3c0.2,2.1,0.9,4,1.5,6c1.1,3.7,3.1,7.7,1.9,11.6c-0.8,2.7-3.3,3.9-4.9,5.8
		c-1.9,2.3-2.8,4.9-3.6,7.7c-0.7,2.5-1.4,4.7-1.8,7.4c-0.9,6.5-0.8,12.8,0.9,19.2c-11.4,12.8-15.8,25.7-12.1,42.6
		c0.8,3.4,2.5,6.6,3.3,10c1.8,8.5,1,16.5-0.1,25c2.1-12.1,9.7-21.3,14.9-32c5.8-12.1,8.2-23.5,7.5-36.9c2.9-1.1,5-3.3,6-6.2
		c1-2.9,0.8-5.2,0.7-8c7.6-7.5,13.9-15.5,17.4-25.8c2.9-8.6,2.4-16.4-2.1-24.4c7.1-7,9.6-15.6,6.6-25.2c0.1,0.2-0.4,0.6-0.2,0.3
		c2.5-4.7,3.4-9.2,5.5-14.3c2.2-5.5,0.1-11.1-2.2-16.4c-1.1-2.6-2.2-5.2-3.3-7.8c3.2-10.1,6.3-19.4,2.9-30
		c-2.9-8.7-10.1-15.2-16.8-21.3c0.4-1.7,0.5-2.5,0.8-4.4c1.1-6.8,0.1-13.3-1.5-20.2c-0.9-3.7-1.6-7.2-3.6-10.8c-2-3.6-6-6.6-9.7-8.5
		c3.7-10.5,2.2-19.8-1.9-29.9c3.6-6.8,6.3-13.2,7.4-21.1c0.7-4.7,0.1-10-0.2-15.1s-0.4-10.1-1.5-15.4c-1.8-9.1,0.8-18.2,5.6-26
		c15.6-25,39.7-41.4,64.3-56.5c5.8,2.5,11.3,3.8,17.6,3.5c4.9,3.4,9.7,4.5,15.5,3.1c2,10.8,5.3,20.1,11.5,29.2
		c-1.2,5.1-2.9,10.1-1.9,15.4s5,9.4,10.4,9.5c2.7,0,4.9-1.3,6.7-3.2c5.6-5.4,8.6-11.8,10.6-19.4c3.4-12.8,3.9-25.2-2.2-37.4
		c-2.5-5.1-7.1-8.6-11.3-12.1c0.8-7.6,0.1-14.5-2.5-21.8s-7.2-13.3-14.2-17.1c-3.9-2.1-8.4-2.8-12.6-4.3c-1.1-5.8-5.7-10.5-11-12.7
		c-5.2-2.2-10.5-2.8-15.8-4.3c-7.6-2.1-13.9-6.7-21.7-8.3c-15.2-3.1-27.8,2.3-39.4,12.3c-13.5-0.9-26.4,0.9-36.9,9.8
		c-10.5,8.9-13.8,19.7-14.3,32.9c-7.8,5.1-12.1,12-14.6,21c-5.3,19.5-4.7,39.1,0.7,58.6C406,269.5,411.1,278,420.1,285.2z"/>
	<path class="st1" d="M504.6,288c0.2,1.2,0.4,2.2,1.3,3.2s2.2,1.4,3.6,1.4c1.3,0,2.6-0.4,3.8-0.9c0.1-0.6-0.3-1-0.9-1.2
		c-0.6-0.2-1.3-0.5-1.9-0.7c-0.7-0.2-1.3-0.5-1.8-1c-0.9-0.9-1-2.1-0.8-3.3c0.1-0.8,0.4-1.3,0.6-2c0.1-0.3,0.2-0.6,0-0.9
		c-0.3-0.6-1.1-0.7-1.7-0.6c-1,0.2-1.4,0.8-1.7,1.7C504.5,285,504.3,286.5,504.6,288z"/>
	<path class="st1" d="M531.5,290.2c1.6-0.5,3.5-1.5,5-2.2c0.6-0.3,1.7-0.3,1.9,0.3c0.2,0.6-0.2,0.9-0.7,1.3
		c-1.2,1.1-2.6,2.2-3.9,3.3c-0.8,0.6-1.4,1.3-2.4,1.7c-1.4,0.6-2.8,0.8-4.4,0.9c-2.6,0-5.2-0.4-7.7-1.2c-0.5-0.2-1.1-0.4-1.5-0.8
		c-0.4-0.4-0.7-0.9-1.2-1.2c-0.5-0.3-1.3-0.1-1.7-0.6c-0.4-0.5-0.1-0.8,0.4-0.9c1.2-0.3,2.4-0.6,3.6-0.6c2.7-0.1,5.3,0.4,8.1,0.4
		C528.5,290.7,529.9,290.6,531.5,290.2z"/>
	<path class="st4" d="M518.4,313.7c3,0.8,6.1,1.9,9.3,1.1c1.8-0.5,3.2-1.8,5-2.5c2.1-0.8,4.3-1,6.5-1.1c4.4-0.2,8.8-0.3,13.2-0.5
		c0.2-0.7-0.4-1.1-0.9-1.4c-5.7-3.1-11.6-5.3-18-6.5c-1-0.2-2-0.3-2.9,0.1c-1.8,0.8-2.8,3.2-5,3.1c-1.2,0-1.9-1.2-2.9-1.7
		c-1.9-1-4-0.7-5.9-0.2c-3.2,0.8-6.1,1.7-9.1,2.9c-3,1.2-5.9,2.4-8.8,3.8c-0.7,0.3-1.5,0.7-2.1,1c-0.6,0.3-1.2,0.5-1.3,1
		c-0.1,0.5-0.1,0.8,0.3,1.1s1.3,0.1,1.9,0c3.3-0.3,6.4-0.8,9.7-0.9c3.3-0.2,6.5-0.1,9.8,0.6C517.6,313.6,518,313.6,518.4,313.7z"/>
	<path class="st1" d="M513.2,324.5c0.7,0.5,1.6,0.8,2.5,1c5.9,1.3,11.4,1.3,17.3,0c2.5-0.6,4.6-1.6,6.6-3.2c0.5-0.4,0.8-0.9,1-1.5
		c0.1-0.6-0.2-1.3-0.7-1.5c-0.5-0.2-0.6-0.1-1,0c-1.6,0.4-3,1.2-4.5,1.8c-3.2,1.2-6.4,1.8-9.9,1.9c-3.5,0.1-7-0.4-10.5-0.9
		c-0.6-0.1-1.7-0.4-1.9,0.4C511.8,323.3,512.6,324,513.2,324.5z"/>
	<path class="st1" d="M563,306.7c0.2-1.4,0.4-3,1.6-4c0.3-0.2,0.5-0.4,1-0.3s0.8,0.9,0.6,1.5c-0.4,1.7-1.2,3.3-1.6,5.1
		c-0.1,0.7-0.1,1.5-0.3,2.1s-0.2,1-0.7,1.2c-0.6,0.2-0.6-0.2-0.6-0.8c0-0.6-0.1-1.6-0.1-2.4C562.8,308.4,562.9,307.6,563,306.7z"/>
	<path class="st1" d="M477.8,308c-0.3-1-0.7-2-1.6-2.4c-0.3-0.2-0.5-0.2-0.8,0c-0.3,0.1-0.4,0.5-0.5,0.9c-0.2,0.9-0.4,1.9,0,2.9
		c0.2,0.6,0.6,1.1,0.9,1.8c0.8,1.4,1.4,3,1.7,4.6c0.2,0.8,0.2,1.6,0.5,2.4c0.1,0.4,0.1,1.1,0.7,1.2c0.6,0.1,0.9-1.2,0.9-1.7
		c0.2-1.3,0.1-2.5-0.2-3.7C479,311.9,478.4,309.9,477.8,308z"/>
	<path class="st4" d="M441.2,255.3c6.7-9.2,12.8-18.4,17.9-28.6c2.3-4.6,3.8-9.2,2.5-14.3c0.4,1.5,0.9,2.9,1.2,4.4
		c4.3-4.8,7.6-9.9,10.4-15.7c0.1,1.7,0.2,3.3,0.3,5c4.6-5.5,6.9-11.4,7.1-18.5c3.1,6.1,4.3,12.2,3.1,18.9c3.7-2.5,5.3-5.8,5-10.3
		c2.2,8.1,2.4,15.6,0.3,23.8c12.2-10.8,16.7-23,15.4-39.1c1.7,6,2.3,11.6,1.6,17.8c6.4-4.5,9.5-10.1,10.4-17.9
		c1,2.8,1.8,5.7,2.1,8.7c3.4-2.8,6.2-5.9,8.4-9.7c-0.1,6.7-1.1,13.1-2.9,19.5c3.7-2.6,6.2-5.6,7.8-9.8c-1,5-3.1,9.1-6.4,12.9
		c7.8-0.2,13.5-2.9,18.1-9.3c-3.4,5.3-7.5,9-13.1,11.8c5.9,0.9,11.4-0.4,16.2-3.8c4.8-3.4,7.8-7.8,11.4-12.2
		c-3.6,6.7-7.8,12.6-13.1,18.1c6,3.6,11.8,3.9,17.6-0.1c-1.5,1.7-3.1,3.5-4.6,5.2c9.4-1.1,14.2-7.7,19-15.3
		c-7.3,4.4-14.6,6.4-23.1,6.7c7.5-12.1,12.6-23.4,10.9-37.9c-3.8,9.2-8.5,17.3-15.1,24.8c-0.2-1.6-0.4-3.2-0.5-4.8
		c-2,1.3-4.1,2.5-6.1,3.8c6.3-9.8,10.9-19.1,9.9-31c-1,3.7-2.6,6.9-4.9,10.1c0.5-9.3-2.2-16.4-8.2-23.4c2.1,13.6,3.6,26.1-4.4,38
		c0.5-6,0.5-11.5-0.7-17.6c-0.7-3.3-2.1-6.7-5.5-8.1c-0.6,6.2-1.7,11.9-4.4,17.6c-0.8,1.7-2.5,3.1-4.3,2.1c-0.7-0.4-1-1.3-1.6-1.6
		c-0.6-0.3-1.6,0-1.2,0.7c-4-7.2-9-12.7-15.9-17.3c0.1,1,0.2,2,0.3,3c-3.2-6.8-7.4-12.5-13.2-17.2c3.1,15.3,7.3,29.8,2.9,45.2
		c-0.6-3.8-2.1-7-4.2-10.1c-0.1,1.4-0.4,2.6-1.2,3.8c-3.2-0.3-6.4-0.5-9.6-0.8c-1.6,7.2-4.8,12.6-10.2,17.6
		c0.8-10.7-1.2-20.3-3.5-30.7c0,1.2,0,2.4,0.2,3.6c-1.6-3.6-2.8-7.2-4.2-10.9c-0.7-1.8-1.3-3.5-2.1-5.4c-0.4-1-0.8-2.7-1.7-3.6
		c-0.2,1.7,0.1,3.3,0.2,5c0.1,1.7,0.1,3.7,0.2,5.4c0.1,3.5-0.1,7.3,0,10.7c0.2,6.9,0.8,13.6,0.6,20.4c-0.3,6.8-0.7,13.1-1.8,19.7
		s-2.8,13.1-4.9,19.5s-4.7,13-7.4,19.2C441.6,253.8,441.7,254.8,441.2,255.3z"/>
	<path class="st4" d="M416.1,213.5c-1.9-9.3-2.5-17.9-1.8-27.5c0.2-2.5,0.1-6.2,2.4-8c0.5-0.4,1.7-0.9,2.4-0.2
		c0.7,0.7-0.3,2.7-0.5,3.5c-1.7,6.8-2.3,13.5-2.5,20.5C416,205.6,416.2,209.5,416.1,213.5z"/>
	<path class="st4" d="M425.3,261.1c3,5.6,7.2,11.3,10,16.8c10.6,20.8,13.6,45.9,4.7,67.6c1.6-12,1.1-23.6-0.8-35.6
		c0.7,10.1,0,19.7-2.7,29.5c0.7-8.3,0.5-16.5-0.3-24.7c-0.4,4.5-1.5,8.6-3.5,12.7c-0.4-2.7-0.4-5.3,0.1-8c-0.2,0.9-0.5,1.8-0.7,2.7
		c0.6-11-1.6-20.4-8.3-29.2c-2.5-3.3-5.9-5.8-8.6-8.8c-7.7-8.8-11.5-18.5-15.2-29.4c3.3,7.8,7.6,14.2,14.2,19.7
		c5,4.2,10.3,7.6,13.4,13.6c-4.1-10.8-9.7-19.5-17.5-27.9c7.2,4.3,13.2,9.2,18.5,15.7c-2.3-6.5-6.5-11.9-9.6-18
		c-4.9-9.5-6.5-18.9-5.7-29.4c0.1-1.5,0.4-2.8,0.6-4.1c0.2-1.3,0.7-2.3,0.7-3.6c0.4,11.1,2.6,21.4,6.7,31.7
		C422.4,255.5,423.8,258.3,425.3,261.1z"/>
	<path class="st4" d="M436.1,358.5c-5.5-1.6-9.2-4.8-11-10.3c5.4,9.2,11.5,17.8,18,26.2c-8.3-3.6-14.2-9.8-18.8-17.3
		c-4-6.5-6.6-12.8-9-19.8s-3.4-13.7-4-20.9c-0.1-1.6-0.4-3.3-0.1-4.9c0.1-0.7,0.8-1.9,1.5-1.1c0.4,0.5,0.2,1.8,0.3,2.4
		c0.1,0.9,0.3,1.7,0.4,2.5c0.3,1.7,0.6,3.3,1.1,5c1.9,6.7,4.1,13,7.5,19.1c3.3,6.2,7.5,11.9,12.1,17.2
		C434.7,357.3,435.4,357.9,436.1,358.5z"/>
	<path class="st4" d="M409.5,374.8c4.1,10.5,12.9,17.6,21.4,24.7c-2.9-3.3-5.2-6.9-7-11c-0.3,2.4,1.1,4.1,2.9,5.7
		c5.6,5.1,11.6,9.7,17.9,13.9c-3.2-4.2-6.6-8.4-9.9-12.6c3.6,3.7,7.6,5.6,12.7,6.2c-8.8-6.2-17.6-12.4-25.3-20
		c-5.5-5.4-9.3-11.7-12.3-18.7c-0.8-1.9-1.1-3.9-1.7-5.9C407.7,363.3,407.2,368.8,409.5,374.8z"/>
	<path class="st4" d="M456.2,315c-1.7,10.5-5.3,19.2-10.7,28.2c0.9-2.6,1.5-5.1,1.7-7.8c-1.5,7.7-3.2,15.4-6.1,22.7
		c4.4-4.6,7.9-9.7,11.1-15.2c1.9,13,0.6,23.7-6,35.1c-3.2,5.5-7.2,9.4-6.6,16.1c4-9,13.9-13.7,17.5-22.8c4.7-12-1.8-25.1-0.1-37.7
		c0.7-5.3,3.5-9.4,4.8-15c1.5-6.9,1.1-14.6-0.2-21.8c-1.4-7.5-3.8-15.1-5.1-22.7c-0.6-3.7-1.2-7.3-1.4-11.1c0-0.7,0.3-2,0-2.6
		s-0.2-0.6-0.7-0.2c-1.1,0.9-1.2,3-1.3,4.3c-0.7,8.1,0,15.7,1.2,23.6c1.2,7.9,2.4,15.9,2.2,23.9C456.4,313.1,456.4,314.1,456.2,315z
		"/>
	<path class="st4" d="M460.5,438.8c4.1-5.1,6.9-10.5,8.5-16.9c1.7-6.4,1.8-12.5,1.5-19.4c0-0.8,0.1-5.2-1.1-5.6s-1.8,1.9-2.1,2.5
		c-1.9,4.9-2.4,9.7-2.9,14.8c-0.8,7.5-2,14.8-3.4,22.2C460.9,437.1,461,438.1,460.5,438.8z"/>
	<path class="st4" d="M483.1,449.7c-2.2-6.2-4.4-12.5-6.8-18.7c5.2,15,6.1,28.7,0,43.5c3.1-3.3,5.4-6.8,7.2-11
		c-0.4,0.3,0.1,0.8,0.5,0.7c0.4,0,0.7-0.4,0.9-0.8c4.3-10.6,4.5-20.2,1.1-31.4c-0.7-2.2-7.2-13.6-10.1-8.3c-1.1,2.1,3.5,6,4.1,8.2
		c0.8,2.9,1.3,5.6,1.8,8.5c0.3,1.6,0.6,3,0.7,4.6S482.7,448.2,483.1,449.7z"/>
	<path class="st4" d="M429.8,421.5c7.7,9.9,17.4,17.8,26.9,25.9c-2.9-7.5-7.1-13.5-12.5-19.4c6.9,3.8,13.1,8.1,18.6,13.7
		c-9.1-15.5-25.5-24.5-34-40.3c-1.7-3.1-1.9-6.4-3.5-9.5c-0.6-1.1-1.2-2.1-2.4-1.4s-1.5,2-1.6,3.3c-0.5,6.5,0.9,12.1,3.3,18.1
		C426,415.3,427.5,418.5,429.8,421.5z"/>
	<path class="st4" d="M443.9,466.2c2.9,3.8,6.8,6.9,10.3,10.3c4.2,4,8.1,8.3,11.7,12.9c-2-5.9-5.1-10.7-9.3-15.3
		c4.1,2.5,7.4,5.4,10.3,9.1c-0.1-5-4.1-7.9-7.5-11c-6.6-6-11.5-13.1-16.4-20.5c-0.6-1-1.3-2-1.8-3.1s-0.9-2.1-1.7-3.1
		c-0.7,0.9-0.3,2.1-0.1,3.1c0.2,1.6,0.5,2.9,0.7,4.4c0.6,3,0.9,5.9,2.1,8.7C443,463.2,442.9,464.8,443.9,466.2z"/>
	<path class="st4" d="M467.6,510.2c6.2-2.2,12.5-4.8,16.6-10c3.1-4,3.8-8.5,4.7-13.3c0.2-1.3,0.2-2.3,0.3-3.7c0-1-0.5-2.8-0.9-3.8
		c-0.5-1-0.9-0.4-1.2,0.3c-1.6,3-1.5,6.6-2.6,9.8c-1.5,4.1-3.5,7.5-6.1,11.1c-1.4,1.9-3.1,3.6-4.9,5.4
		C471.8,507.5,469.8,509.4,467.6,510.2z"/>
	<path class="st4" d="M449.2,506.1c3.1,6.1,6.4,11.7,7,18.6c0.5-4.4,0.1-8.6-1-12.9c3,2.2,6.1,4.3,9.1,6.6c-0.9-5-4.2-8.5-6.9-12.6
		c-4.7-7.4-6.6-14.9-5.7-23.6c0.1-1.1,0.4-2,0.7-3c0.2-1,1-1.9,0.9-2.9c-0.1-1.4-1.8-1.1-2.7-0.8c-1.8,0.5-2.7,1.6-3.4,3.2
		c-1,2-1.7,3.8-2,6.1c-0.8,4.9-0.5,9.4,1,14.2c0.7,2.1,2.3,4.3,2.3,6.7c0,1.1-0.7,2.1-1,3.1c-1.2,3.7-2.4,7.3-3.2,11.2
		c-0.9,4.2-2.5,8-1.7,12.5c2.2,12.7,12,22,17.3,33.5c1.8-14.4-8.9-26-10.6-39.8c-0.9-7,2.3-13.2-1.6-19.7"/>
	<path class="st4" d="M460.7,533.7c5.7,0.1,10.9-1.2,15.3-4.6c2.2-1.7,3.2-3.6,4.1-6c0.5-1.2,0.8-2.4,0.8-3.5c0-1.1-0.8-0.9-1.5-0.2
		c-1.7,1.6-3.1,3.7-5,5.3c-1.9,1.6-4,3.2-6.1,4.6C466,531,463.4,532.4,460.7,533.7z"/>
	<path class="st4" d="M461.4,579.8c0.2,0.9-0.7,1.5-1.6,1.6c-0.9,0.2-1.9,0.1-2.9-0.1c-3.9-0.6-8-1-12-1.6c-0.9,2.5,1.2,4.4,3.6,5.2
		c2.3,0.9,5.4,0.9,7.9,1.8c0.7,1.7-0.5,3.1-2.3,3.5c-1.7,0.4-3.7-0.2-5.4-0.7c-2.8-0.9-6.1-1.8-8.1-3.9c-2-2-2.8-4.9-1.6-7.3
		c2.3-4.8,9.1-1.5,13.1-0.9c2,0.3,4,0.1,5.9,0.3C459.3,578.1,461.1,578.4,461.4,579.8z"/>
	<path class="st4" d="M588.2,237.3c-1.4,3.5-3.3,6.2-6.5,8.2c3.2-1,5.6-2.7,7.6-5.4c-0.1,3.3-1,6.1-3,8.7c1.7-0.6,2.9-1.6,3.9-3.1
		c-0.7,9.5-4.3,16.5-11.8,22.4c3.2-1,6.5-2.4,9.2-4.4c2.4-1.8,2.9-4.4,4.6-6.6c2.1,1.4,2.7,4.1,2.6,6.5
		c-0.9,15.6-7.6,26.7-21.1,34.5c2.9-2.5,5.3-4.9,7.4-8.1c3.3-4.9,5.5-10.2,7.2-16c0.8-2.8,1.4-5.8,1.8-8.8c0.2-1.3,0.2-2.6,0.3-3.9
		c0-0.5,0.2-0.9,0.4-1.4c1.1-2.2,2.6-4.1,3.3-6.5c0.9-2.9,1.2-6,1.6-9.1c0.4-3.5,0.7-6.9,1-10.5c0.5-6.3,0.9-12.4,0-18.8
		c-0.5-3.4-1.5-6.5-3.2-9.8c-0.3-0.7-1.5-3.6-2.6-3.7c-1.2,0-0.6,2.3-0.5,2.9c1.3,7.2,1.8,14.2,0.7,21.4
		C590.6,229.8,589.7,233.5,588.2,237.3z"/>
</g>
<image style="display:none;overflow:visible;" width="1680" height="900" xlink:href="IMG_0631.PNG"  transform="matrix(0.6603 0.1064 -0.1064 0.6603 166.6979 454.6288)">
</image>
<path class="st4" d="M803.1,794.7c-0.3,2.2-0.7,4.4-1.8,6.3c-1.4,2.3-3.8,3.8-6.1,5c-20.4,10.7-44.7,9.7-67.6,8.4
	c5.9-5.6,14.1-8.4,22.1-9.7c8.1-1.3,16.3-1.4,24.4-2.5c3.3-0.5,6.7-1.1,9.6-2.9c2.9-1.8,5-4.5,7-7.2c3.8-5.1,7.7-10.1,11.5-15.2
	c0.9-1.2,1.8-2.8,2.9-3.9c1.5-1.5,1.2,0.9,1,1.9c-0.5,3.1-0.9,6.2-1.4,9.3c-0.3,1.7-0.5,3.5-0.8,5.2
	C803.7,791.1,803,793.2,803.1,794.7z"/>
</svg>
