<?xml version="1.0" encoding="utf-8"?>
<!-- Generator: Adobe Illustrator 25.2.0, SVG Export Plug-In . SVG Version: 6.00 Build 0)  -->
<svg version="1.1" id="Layer_5" xmlns="http://www.w3.org/2000/svg" xmlns:xlink="http://www.w3.org/1999/xlink" x="0px" y="0px"
	 viewBox="0 0 2562 1441" style="enable-background:new 0 0 2562 1441;" xml:space="preserve">
<style type="text/css">
	.st0{fill:#7786A5;}
	.st1{fill:#404B62;stroke:#404B62;stroke-width:3;stroke-miterlimit:10;}
	.st2{fill:#677490;}
	.st3{fill:#404B62;}
	.st4{fill:#C8315C;}
	.st5{fill:#1B2334;}
	.st6{fill:#352745;}
	.st7{fill:#282F3D;}
	.st8{fill:#AD3255;}
	.st9{fill:#FFFFFF;}
</style>
<g>
	<g id="тело">
		<path class="st0" d="M1830.6,767.3c-34.5,30.2-21.6,64-43.3,86.5c-12.4,12.9-73.1,105.7-82.6,117.1c-25,29.8-37,85.3-20.7,131.1
			c16.3,45.8,117.1,44.2,158.5,7.7c41.3-36.4,58.1-131.6,70.4-181.9c16.9-68.8,2-85.2-12.2-110.6
			C1886.5,791.7,1830.6,767.3,1830.6,767.3z"/>
		<path class="st0" d="M2239.1,756c35.2,29.3,46.8,49.6,69,71.5c12.8,12.5,53.6,45,72,70.3c13.7,18.8,35.6,53.2,45.4,64.3
			c25.8,29.2,67.7,76.8,68.5,97.1s-11.8,85.7-51,114.4c-52.3,38.3-105.1-21.7-192.8-30.6c-54.8-5.6-69.5,8.3-85.5-30.1
			c-15.9-38.4,42.6-136,29.1-185.9c-18.6-68.3-4.1-85.2,9.5-110.9C2217,790.1,2239.1,756,2239.1,756z"/>
		<path class="st0" d="M1861.9,736.2c-20.3,10-43.5,29.1-46.1,89.1c-1.6,38.6,72.8,57.8,61.5,103s-28.7,72.5-31.1,95.5
			s2,141.3,22,179c24.9,47.1,163.5,14,255.3,23.6c103.5,10.7,133.3,4.5,151.9-28.9c22-39.3-45.6-94.5-45.8-127.8
			c-0.3-38.2-38.2-116.1-31.1-145c6.1-25,122.3-70.4,102.1-105c-27.8-47.8-52.3-74-80.9-90.1c-36.3-20.4-112.3-21.6-183.1-26
			C1965.9,699.2,1894.3,720.3,1861.9,736.2z"/>
		<g>
			<polygon class="st1" points="1883.5,990.1 1925.1,888.9 1929.4,959 1963.8,892.3 1972.4,981.2 1957.6,983 1959.6,914.2 
				1928,983.3 1922.3,984 1920.1,916.3 1900.5,985.8 			"/>
			<polygon class="st1" points="1872.9,1015 2151.7,965.8 1876.2,986.1 			"/>
			<g>
				<path class="st1" d="M2001.3,978.7c-15.9,0-17.7-17.5-16.8-17.6c0.9-0.1,3.5,14.5,18.5,13c3.6-0.4,7-2.1,9.3-5.2
					c6.6-8.6,7.2-24.7,6.4-37.4c-1.3,6.6-2.7,14.9-7.1,19.2c-2.8,2.7-6.8,4.8-10.5,4.7c-3.8-0.1-8.1-2.4-10.3-5.2
					c-7.6-9.6-1-35.3-0.1-35.1s-3,21,3.6,29.4c1.7,2.1,3.8,3.1,6.6,3.2c2.8,0.1,5.2-0.9,7.3-3c8.6-8.3,9.5-30.2,10.3-30.3
					c0.9-0.1,11.7,42.5,0.1,58.4c-5.8,7.9-10.4,5.3-14.9,5.7C2003,978.7,2002.1,978.7,2001.3,978.7z"/>
			</g>
			<path class="st1" d="M2082,912.3c-3.5-2-16.1-1.9-25.8-1.2c-6.5,0.4-21.9,1.8-25.1,5.2c-5,5.4,0.6,15.7,1.2,15.7
				c0.2,0-2.3-7.7,1.1-11.4c1.7-1.8,7.8-3.4,18.3-4.1l4,56.1c0,0.9-9.7,1.6,1.6,1.6c0.9,0,1.6-0.7,1.6-1.6l2-56.4
				c9.7-0.6,16.9-0.3,19.4,1.1c4.2,2.3,1.2,9,2.1,9.4C2083.2,926.9,2087.4,915.3,2082,912.3z"/>
			<g>
				<path class="st1" d="M2096.6,971.2c-0.4,0-0.8-0.1-1.1-0.4c-0.4-0.3-12.3,1.2-6.2,0.4c0,0,4.6-60.6,5.5-60.6s2.7,13.4,2.7,13.4
					c2.2,0.5,7.7,2.2,12.5,4.8c8.8,4.7,13.7,11.3,14.1,19.2c0.4,8-4.2,14.6-13.5,19c-6.7,3.2-13.5,4.2-13.8,4.2
					C2096.8,971.2,2096.7,971.2,2096.6,971.2z M2097.6,927.8l0.7,39.8c5.8-1.2,19.8-6.4,19.1-19.9
					C2116.6,934.2,2103.2,929.3,2097.6,927.8z"/>
			</g>
		</g>
		<path class="st2" d="M1785,978.9c6,11.9,14.6,22.4,25.2,30.6c-34.8-11.3-71.3-22.8-107.4-16.7c13.8,2.5,27.6,4.9,41.4,7.4
			c-19.4,4.1-40,8.8-53.7,23.1c8.9,1.4,17.7-2,26.4-3.9c20.9-4.4,42.6,0.5,62.8,7.2c10.8,3.6,21.5,7.8,32.2,11.4
			c5.5,1.8,11,3.6,16.5,5c2,0.5,10.1,3.8,11.5,1.3c1.2-2-2.4-6.6-3.3-8.1c-2.5-4.2-4.7-8.4-6.8-12.7c-4.5-9-10.8-16.9-18.1-23.8
			C1803.4,992,1794.2,985.4,1785,978.9z"/>
		<path class="st2" d="M2223.7,957.4c2-8.2-13.4-33.3-1.4-62.3c20.7-34.6,46-73.3,31.3-83c-28.2,29.4-33.4,57.4-49.6,94.9
			c6.1-26.1-1.8-39.4,1.2-66.1c-17.9,22.8-18.9,54.1-19.2,83.1c-1.6-14.2,4.3-10.5,0.7-24.3c-12.8,52.8-31.8,24.5-51.3,77.6
			c-16.1,15.4,16.6,92.3-4.6,99.8c-10.3,1-46.7,18.4-17,19.1c-21.2,11.8-67.7,72.9-94.2,67.2c-14.7-4-31.7-0.1-45.2-7.9
			c-24.8-15.8-32.3-36-56-53.6c-12.9-6.4,0-100.3-13.8-104.2c-16.8-6.1-42.9,41.9-61.4,42.3c-0.4,0.1-0.8,0.4-1.2,0.8
			c-1.9,6.1-4.2,13.3-6.8,21.1c-5.8,33.2,15.6,72.4,33,141c40.5,50.1,116.3,25.4,207.7,25.8c104,0.4,180,11.7,198.6-21.6
			c22-39.3-44.6-104.1-44.8-137.4C2229.4,1031.5,2216.7,986.2,2223.7,957.4z"/>
		<path class="st3" d="M2219,852.9c-7.4,24.5-10.2,50.3-8.4,75.8c-4.1-18.9-4.3-25.2-8.4-44c-0.1-3.3-3.1-20.5-6.1-17.1
			c-0.2,21,1.8,42.1,9.6,61.6c-2.8-3.7-6.1-7.1-9.9-9.9c1.9,1.4,3.5,4.4,4.9,6.3c1.9,2.5,3.7,5.2,5.4,7.8c3.7,5.7,7,11.7,9.8,17.8
			c5,10.8,7.9,21.9,11.1,33.2c1.6,5.7,3,11.4,4.5,17.1c3,11.5,6,23,9.1,34.5c1,3.7,1.9,7.4,1.9,11.2c0,3.5-0.9,7-1.2,10.5
			c-0.4,7,2.1,14.1,6.7,19.3c4,4.6,8.7,4.3,14.1,2.6c5.1-1.6,11.9-3.8,14.9-8.5c4.6-4.2-9.1-28.8-11.2-34.5
			c-14.6-39.6-18.4-39.7-35.9-79c-4-9.1-9.5-20.2-15.2-28.3C2210.4,904.1,2226.1,878.3,2219,852.9z"/>
	</g>
	<g id="капющон">
		<path class="st2" d="M1914.1,773.7c1.3,3.8,2.2,7.9,5,10.8c1.7,1.7,4,2.7,6,4.2c8.3,5.9,10.2,17.2,14.9,26.3
			c4.6,8.8,12.3,15.9,21.5,19.8c7.6,3.2,16.8,4.7,21.2,11.6c0.9,1.5,1.7,3.2,3.1,4.2s3.2,1.1,5,1.2c23,1,46,2.1,69,3.1
			c1.4,0.1,3,0,3.9-1.1c0.8-1,0.6-2.4,1.3-3.4c0.8-1.3,2.6-1.5,4.1-1.7c8.9-0.7,17.9-1.5,26.8-2.2c2.4-0.2,4.9-0.4,6.9-1.7
			c1.6-1,2.8-2.7,3.9-4.3c6.1-8.8,12.3-17.5,18.4-26.3c2.8-4,5.7-8.1,9.5-11.3c3.9-3.2,8.5-5.2,12.9-7.7
			c18.3-10.1,32-26.7,45.2-42.9c4-4.9,8.1-9.9,10.3-15.9c2.2-5.9,2.4-13-1.3-18.2c-5-7-14.9-8.4-23.4-7c-19.8,3.1-38,16.9-57.8,14
			c-13.9-2-25.2-12-38.1-17.6c-12.1-5.3-25.5-6.7-38.6-8c-22.4-2.3-45.2-4.6-67.4-0.6c-12.2,2.2-24.1,6.2-36.5,6.7
			c-11.6,0.4-23.2-2.4-34.8-0.3c-6.4,1.2-13.4,2.9-18.4,7.4c-4.7,4.2-6.3,10.4-6.6,16.5c-0.2,4.3-0.3,8.9,1.8,12.8
			c2.5,4.8,7.3,6.3,11.8,8.6C1903.2,755.2,1910.7,763.7,1914.1,773.7z"/>
		<path class="st0" d="M1992.5,852.7l56,1.4c0,0,1.7-11.4,10.5-13.9c13-3.6,32.7-1.6,44.5-17.4c7.8-10.4,21.6-47.8,39.9-49.8
			c18.3-2,50.2-25.4,64.7-57.6c8.9-19.7-4.7-38-14.8-51.9c-3.4-4.7-9.4-4.7-13.3-7.9c-3.4-2.8-6.1-9.3-12.7-12.3
			c-17.5-8.1-49.6-22.4-104.6-22.7c-62.5-0.3-106.1,3.7-128.7,15.1c-15.4,7.8-23.9,18-31.6,35.3c-3.6,8-13.2,6.4-16.8,29
			c-3.6,21.9,15.7,48.2,43,68.9c14.3,10.9,12.3,46.5,25.7,56.5c9.2,6.8,23,6.9,31.2,13.3C1989.5,841.8,1992,846,1992.5,852.7z"/>
		<path class="st2" d="M1997.3,834.6c0.9,1.7,1.9,3.5,3.5,4.7c2,1.4,4.6,1.6,7,1.7c3.9,0.2,7.7,0.4,11.6,0.5c1.7,0.1,3.5,0.1,5-0.7
			c1.4-0.8,2.3-2.1,3.1-3.5c8.3-13.1,16.6-26.3,24.9-39.4c4.7-7.4,9.4-14.8,12.4-23c1.9-5.2,3.1-10.6,5.7-15.5
			c4.5-8.3,12.5-13.8,20-19.5c21.9-16.7,41-36.9,59.9-57c5.3-5.6,11-13,8.4-20.3c-1.3-3.7-4.6-6.4-8.1-8.2
			c-4.6-2.4-9.7-3.8-14.9-3.9c-5.4-0.1-10.8,1.1-16.2,1.3c-7.4,0.3-14.7-1.2-22.1-2.3c-38-5.8-76.7-1.4-114.9,2.9
			c-10.3,1.2-20.7,2.3-31,3.5c-6.7,0.8-14.1,1.9-18.4,7.1c-3.7,4.4-3.8,10.3-2.8,15.7c0.6,2.8,1.7,5.5,2.3,8.3c0.5,2.3,1,3.9,2.3,6
			c6.8,10.5-1.4,16.9,3.8,28.3c5.2,11.3,9.9,24.5,14.2,36.2c4.4,11.8,22.6,26.5,27.1,38.3c4.5,11.7,9.3,23.3,14.9,34.6
			C1995.9,831.8,1996.6,833.2,1997.3,834.6z"/>
		<ellipse class="st3" cx="1993.2" cy="858.3" rx="4.4" ry="9.6"/>
		<ellipse class="st3" cx="2046.9" cy="858.3" rx="4.4" ry="9.6"/>
		<g>
			<path class="st3" d="M1993.8,859.2c-5.4,8.5-1.7,18.8,0.4,27.8c1.3,5.3,1.9,10.4,1.1,15.9c-0.8,5.8-2.4,11.4-2.6,17.2
				c-0.2,6,0.8,12,1.4,18s0.9,12,0.8,18.1c-0.1,6-0.5,11.9-1.1,17.9c-0.6,5.4-1.4,10.7-1.6,16.1c-0.2,5.9,0.4,11.9,2.7,17.4
				c0.6,1.3,1.3,2.5,1.9,3.8c0.5,1.1,1,2.6,0.3,3.7c-0.5,0.8-0.8,0.6-1.2,0.1c-0.2-0.2,0-0.2-0.1-0.3c0,0.4-0.3,0.1,0,0.2
				c0.4,0.1,0.9,0,1.2,0.6c0.5-0.6,1-1.3,1.4-1.9c-0.9,0.1-1.3-1.8-0.5-2c1.8-0.5,1.1-3.5-0.8-2.9c-4,1.2-3,8.2,1.3,7.9
				c0.8-0.1,1.8-0.9,1.5-1.9c-0.9-2.1-3.5-3.6-5.7-2.3c-1.9,1.1-1.7,3.7-0.3,5.1c1.7,1.7,4.3,1.1,5.6-0.8c1.7-2.3,0.9-5.1-0.3-7.4
				c-1.3-2.6-2.4-5.1-3.1-7.9c-0.7-2.9-0.9-5.9-0.9-8.9c0-6,0.8-11.9,1.5-17.8c1.6-13.4,1.6-26.8,0.1-40.2
				c-0.8-6.6-1.6-13.2-0.5-19.9c1-6.3,2.8-12.5,2.5-18.9c-0.3-6.2-2.3-12.1-3.7-18.1c-1.3-5.7-1.9-11.8,1.4-17
				C1997.5,859.1,1994.9,857.6,1993.8,859.2L1993.8,859.2z"/>
		</g>
		<g>
			<path class="st3" d="M2044.3,860.8c2,20.5,3.9,41,4.1,61.6c0,5,0,10.1-0.2,15.2c-0.2,5-0.6,10.1-0.7,15.1s0.1,9.9,1,14.8
				c0.8,4.5,2.8,9.2,1.4,13.8c-0.7,2.5-2.3,4.7-2.7,7.4c-0.4,2.6-0.2,5.2,0.1,7.8c0.8,5.6,1.8,11.1,2.6,16.7c0.5-0.6,1-1.3,1.4-1.9
				c-1.1,0-1.5-2.5-0.4-2.8c1.8-0.6,1.1-3.5-0.8-2.9c-4.4,1.4-3.4,8.5,1.2,8.7c1.1,0,1.6-1,1.5-1.9c-0.8-5-1.6-9.9-2.4-14.9
				c-0.4-2.3-0.7-4.6-0.6-6.9c0.2-2.4,1.2-4.5,2.2-6.7c1.9-4.4,1.1-8.9,0.1-13.4c-1.1-4.9-1.7-9.7-1.8-14.7c0-4.9,0.4-9.9,0.6-14.8
				c0.3-5.1,0.4-10.3,0.4-15.4c0-10.2-0.4-20.4-1.1-30.6c-0.8-11.4-1.9-22.8-3-34.2C2047.2,858.9,2044.2,858.9,2044.3,860.8
				L2044.3,860.8z"/>
		</g>
	</g>
	<g id="шея">
		<path class="st4" d="M1965.3,705c-3.7,7,23.1,45.8,26.9,62.2c3.8,16.5,9.2,64.9,19.6,64.9s29.2-62.4,34-71.4
			c4.8-9.1,32.5-58.7,24.8-67.3C2062.8,684.7,1972.5,691.4,1965.3,705z"/>
	</g>
	<g id="волосы_сзади">
		<path class="st5" d="M2120,714.7c-3.4-7.8-8.3-25.2-11.3-35.6c2.8-4.5,5.1-9.6,6.8-15.5c7.7-27.4,0.3-39.9,0.3-39.9
			s25.8-6.1,12-28.9c0,0,17.6-24.1-1.2-39.5c-18.8-15.4-32.4,0-32.4,0s-3.3-6.5-17.2-6.1c-14.3,0.5-17.2,13.7-17.2,13.7
			s-79.1-16.6-98,34.6l0,0c0,0-25.7,33.5-34.4,44.1c-17,20.7-48.2,34.2-50.5,45.9c-2.4,11.7-0.8,18,4.5,24.3
			c5.2,6.3,21.9,6,25.3,2.8c2.8-2.6,36.9-56.9,50.6-88.3c1.1,49.1,47.3,84.3,113.4,80.4c0,0,0.2-0.1,0.6-0.1
			c5.3,29.6,15.5,62.9,16.7,65.6c1.6,3.7,10.7,4.8,18.7,2.1c7.9-2.6,5.8-15.8,5.8-15.8s8.1,5,15.2,1.7c7-3.3,7.7-8.9,8.2-14
			C2136.6,741.4,2125,726.3,2120,714.7z"/>
		<path class="st6" d="M2091.3,586.9c5.4,0.5,10.9,1.9,15,5.4s6.8,9.2,5.4,14.4c-0.5,2-1.3,4.5,0.4,5.7c1.3,0.9,4,0.9,3.5,2.5
			c-0.2-1.8,2.6-2.6,2.8-4.4c0.1-0.8-0.4-1.4-0.6-2.2c-1.6-4.1,3.8-8,3.7-12.4c0-3.1-2.8-5.3-4.6-7.9c-3.3-4.5-4.2-10.6-2.5-16
			c0.4-1.1,0.8-2.1,0.8-3.1c-0.2-3.1-4.9-4.2-7.4-2.3c-2.6,1.9-3.4,5.1-4.2,8.3c-1.2-0.2-2.4-0.3-3.6-0.5c-1.7-3.9-3.8-7.5-6.2-11
			c-0.4-0.5-0.8-1.1-1.4-1.1c-0.7-0.2-1,0.5-1,1c2.2-3.8-4.4-4.1-6.3-3.7c-2.4,0.5-6.6,1.3-6.2,4.6c0.3,3,3.5,4.9,5.8,6.5
			c2.7,1.8,4.8,4.1,6.1,7C2091.1,578.3,2093.1,587,2091.3,586.9z"/>
		<path class="st7" d="M2114.6,649.8c-1.6,3.6-4.4,6.7-7.7,8.8c2.8-8.6,3.8-17.7,2.9-26.6c-1.1,3.1-2.8,6.1-5.1,8.6
			c1-9,0-18.1-2.7-26.6c-2.6,9.9-6.3,19.4-10.9,28.6c-0.5,1.1-1.5,2.3-2.6,1.8c-0.1-1.6-0.1-3.3-0.2-4.9c-1.5,6.3-3.5,12.6-5.9,18.7
			c3.2,1.7,7.2-2.1,10.6-0.9c2.6,0.9,3.5,4.3,4.1,7c0.6,2.4,2.1,5.7,5,5.6c2.4-0.1,4.6-3,5.8-4.8
			C2111.1,660.6,2113.5,654.8,2114.6,649.8z"/>
		<path class="st6" d="M1907,683.4c0.1,2.2,0.2,4.5,0.3,6.8c4.1-0.6,8-2.3,11.1-5.1c1.9-1.6,3.5-3.7,5.2-5.7
			c3.8-4.7,7.5-9.4,11.3-14.1c-1.5-1.7-4.2-1.7-6.2-0.5c-1.9,1.1-3.4,2.9-4.9,4.6c-2.9,3-6.3,5.3-10.1,6.8c-2.1,0.8-4.3,1.4-6.1,2.8
			c-1.7,1.4-2.8,4-1.8,5.9"/>
		<path class="st6" d="M2078.7,727.1c0.5,1.1,1.7,2.1,1.8,3.3c0.1,1.1-0.7,2.2-0.9,3.3c-0.3,1.8,0.7,3.5,1.5,5
			c2.2,4.6,2.5,9.9,2.9,15.1c0.5,5.2,1.5,10.6,5,14.4s10.1,5.1,13.7,1.4c0.3-0.4,0.7-0.7,0.7-1.2c0.1-1.1-1.2-1.7-2-2.3
			c-3.2-2.1-3.6-7.4-0.6-9.9c-2.8-1-4.4-4-5.7-6.7c-3.2-6.7-5.6-13.8-7.3-21c-0.5-2.1-1-4.4-2.7-5.6
			C2082.9,721,2077.4,724.3,2078.7,727.1z"/>
		<path class="st6" d="M2098.8,723.6c0.6,1.3,1.9,2,2.6,3.1c1.1,1.9,0.3,4.4,0.6,6.7c0.3,2.2,1.8,4.1,2.9,6.1
			c2.4,4,3.6,8.8,6.5,12.6c2.9,3.8,8.4,6.2,12.2,3.5c0.7-0.5,1.4-1.2,1.6-2.1c0.2-1.6-1.1-2.8-2.2-3.9c-3.6-3.6-5.8-8.8-5.7-14
			c-2.7,0-4.6-2.6-5.9-4.9c-1.7-2.8-3.2-5.8-4.7-8.7c-1.4-2.9-2.4-6.2-4-9c-3.1,0.2-2.1,2.2-2.8,4.6
			C2099.3,719.3,2097.8,721.6,2098.8,723.6z"/>
	</g>
	<g id="тено_лицо">
		<g>
			<path class="st5" d="M1958.4,809.3c-31.1-9.4-34.7-31.6-36.9-60.7c0-0.6,1.9-10.3,1.8-9.7c-1.3,33.6,3.1,50.9,32.8,61
				c31.4,10.7,59.7-13,80.5-34.5c0.4-0.5,8.2-2.9,8.7-2.6c0.6,0.2-1.9,7.5-2.2,8c0,0-10.8,21.4-31.6,33.5
				C1998.6,811.8,1975.3,814.4,1958.4,809.3z"/>
		</g>
	</g>
	<g id="рукав">
		<g>
			<path class="st2" d="M1789.9,906.9c7.1,5.3,14.2,10.7,21.4,16c-9.5,0.8-19.1-0.4-28.6-0.2c-9.5,0.3-19.5,2.3-26.7,8.7
				c16.3,1.3,32.7,1,48.9-0.8c1.2,1.6-0.9,3.6-2.7,4.4c-12.6,5.9-26.8,7.3-40.3,10.7s-27.4,9.7-34.2,21.9
				c24.8-1.3,48.8-13.4,73.4-10.1c6.9,1,13.6,3.1,20.5,4.3c7.8,1.3,15.8,1.4,23.6,0.2c7-1.1,15-4.1,15.5-12.3
				c0.3-5.7-5.8-9.8-9.3-13.5c-10.3-10.7-23.1-18.9-37.1-23.9C1806.5,909.4,1798.2,907.6,1789.9,906.9z"/>
			<path class="st2" d="M1849,958.9c-13.5-13.5-6.7,35.4-8.9,16.4c-1.8-15,2.3-30.5-1.3-45.1c-1.3-5.2-2.4-12.6,2.7-14.1
				c-10.3-19.2-14.9-41.3-13.2-63c0.3-3.4,0.8-7,3.1-9.4c2.3-2.4,7.1-2.7,8.7,0.2c-0.9-11.2-0.9-22.5,0.1-33.8
				c0.3-3.2,2.5-7.5,5.4-6.1c1.1,0.6,1.6,1.8,2,3c12.2,35.2,12.1,63.7,18.8,99.8C1866.4,906.9,1850.7,960.6,1849,958.9z"/>
			<path class="st0" d="M1709,1140.5c22,23.9,93.6,52.7,140.3,22.1c46.7-30.6,33.5-46.9,38.4-60.8s10.7-39.9,10.4-59.1
				c-0.2-19.2-26.2-81.5-45.1-94.7s-44.7-9.3-57.1,2.2c-14.2,13.1-33.5-7.9-62.8,11.5c-23.2,15.4-42.2,34.6-45.8,58.5
				C1683.6,1044.1,1659.5,1086.7,1709,1140.5z"/>
			<path class="st3" d="M1815,1031.4c-1.4,13.6,16.5,39.9,27,48.7c7.2,6.1,23.3,14.9,28.2,5.3c12.4-17.3,3.6-40.1-2.6-60.4
				c-5.9-19.4-14-38.1-23.4-56.1c-1.7-3.3-3.8-6.8-7.2-8.4c-10-4.5-19.9,9-20.1,15.2c-0.2,9.2-4.7,18.3-4.1,27.5
				C1813.1,1008.3,1815.5,1026.9,1815,1031.4z"/>
			<path class="st2" d="M1784.3,996.7c-3.2,11.6-5.9,24.2-1.7,35.5c5.7,15.1,22.5,24,27.4,39.3c1.5,4.9,1.8,10.1,3.2,15
				s4.6,9.8,9.5,11.1c-9.1,4.8-21.1,9.5-29,2.8c-8.7-7.3-4.8-21.2-7.5-32.2c-2.6-10.1-11-17.7-15.3-27.2c-5.5-12-3.9-26.2,1.3-38.4
				c3.6-8.5,8.9-16.3,14.5-23.6c0.8-1.1,7-9.9,8-8c0.4,0.8-2.3,4.2-2.7,5c-1.1,2-2.1,4.1-2.9,6.3
				C1787.1,987,1785.7,991.9,1784.3,996.7z"/>
			<path class="st3" d="M1884.4,1100.7c-6.5,8.3-15.2,9.6-25.7,9.5c-6.1,0-12.2-0.4-18.3-0.9c-5.7-0.5-11.5-1.3-17,0.3
				c-5.5,1.6-10.6,6.2-10.6,11.9c0,4.8,3.4,9,7.6,11.3c5.9,3.3,13.1,3.5,19.7,2s12.7-4.6,18.7-7.7c6.3-3.2,12.6-6.5,18.9-9.7
				c1.7-0.8,3.3-1.7,4.7-2.9c2.3-2,3.6-4.9,4.7-7.7c1.3-3.2,2.5-4.2,3.3-7.6c0.5-2.2,5.9-20.4,4.9-23.7
				C1894.8,1079.1,1886.6,1097.8,1884.4,1100.7z"/>
			<path class="st3" d="M1859.8,870.7c-3,15.7,2.7,32.4-1.7,47.8c-0.2-8.3-2-16.5-5.4-24.1c-4.4,12.2,6,25.3,4,38
				c-1.2,7.5-6.4,13.6-10.8,19.7c-2.7,3.7-0.8,5.6,3.1,6.6c2.7,0.7,4.5,0.4,6-2c3.5-5.7,5.7-12.8,7.5-19.2c3.9-13.9,5-28.7,3.2-43
				C1864.6,886.5,1862.7,878.4,1859.8,870.7z"/>
		</g>
	</g>
	<g id="рукав_1_">
		<g>
			<path class="st3" d="M2217.3,954.1c23.8-7.2,48.8,3.6,73.2,8.5c40.8,8.2,68.6-10.9,106.6,6c3.7,1.6,7.9,5,6.6,8.8
				c-6,0.6-11.9,1.2-17.9,1.7c6.1,3.7,12.2,7.3,18.3,11c5.2,3.1,11,9.5,7.1,14.1c-1.5,1.8-4,2.4-6.3,2.8
				c-58.6,10.9-104.4,11.4-156.3-17.9c-10.8-6.1-21.4-13.1-33.6-15.8c-10-2.2-20.4-1.4-30.6-0.6c-5.5,0.4-13.1-1-13.1-6.5
				c0.1-7,9.6-4.2,13.4-3.6c7.2,1.2,14.3-1.5,20.8-4C2209.5,957,2213.3,955.4,2217.3,954.1z"/>
			<path class="st3" d="M2250.3,1125.2c-10.5-3.2-21-7-31.9-6.3c-9.7,0.6-39.9-7.8-45-12.9c-7.6-7.7-17.2-12.9-27.3-16.7
				c-5.1-1.9-10.4-3.5-15.7-4.9c-3.2-0.8-10.8-4-13.5-0.9c-3,3.4,1.5,11.7,3.6,14.6c3.9,5.7,9.6,9.8,15.2,13.8
				c23.9,17.2,32.3,38.1,56.2,55.3c8.7,6.3,33,8.8,42.1,14.4c3.3,2,6.4,4.2,10.2,5l31.2,10.9
				C2291.9,1151.1,2250.3,1145.8,2250.3,1125.2z"/>
			<path class="st0" d="M2505.5,1089.3c8,32.8-25.3,91.1-78.5,110.5s-64.9,10.2-79.7,5.7s-44.7-8.3-61.1-20.3
				c-16.4-12-44.9-35.5-57.1-39.5s-24-12.1-29.4-24.3c-5.4-12.2-18.6,0.1-36.7-11.8c-18-11.8-22.9-54.5-23.5-78.2
				c-0.5-23.7,4.2-70.6,24.2-74.2c20-3.6,29.5,7.3,36.2,6.7s32.6-13.2,51.9-6.6s70.5,28.9,87.1,34.9c16.7,6,40.1-12,62.8-0.2
				C2424.6,1003.8,2487.5,1015.6,2505.5,1089.3z"/>
			<path class="st2" d="M2425.6,998.1c37,19,73.2,50.9,77.8,94.4c-12.7-15.3-24.4-31.5-34.8-48.3c3.8,13.6,15.3,24.5,16.8,38.6
				c0,17.6-3.8,35.1-5.3,52.6c-10.4-21.4-17.6-44.3-21.3-67.8c1.4,5.1,1.4,10.6,0.1,15.7c-60.3-51.6,3.8-49.4-87.2-87.8
				C2392.9,994.2,2403.5,984.1,2425.6,998.1z"/>
			<path class="st3" d="M2162.3,976.5c-2,3.4-2.4,7.5-2.8,11.5c-1.2,12.4,1.3,20.6,0.1,33c-1.6,17.1-3.2,34.4,0.3,51.2
				c1.7,8.1,4.9,16.5,11.7,21.3c4.2,2.9,9.6,4.2,14.6,2.9c4.9-1.3,9.2-5.4,10.1-10.5c1-5.3-1.4-10.6-3.4-15.7
				c-5.9-15.4-7.5-32.6-4.3-48.8c0.9-4.8,2.2-9.7,1.4-14.5c-0.4-2.4-1.4-4.7-2.3-7c-3.3-8.1-10.2-12-13.6-20c-0.9-2.1-1.8-6.7-4-7.9
				C2167.2,970.4,2163.6,974.3,2162.3,976.5z"/>
			<path class="st2" d="M2222.9,1013.5c-0.5,4.5-1.7,9.1-0.3,13.4c0.8,2.4,2.3,4.6,2.2,7.1c-0.2,2.6-2.1,4.7-3.4,6.9
				c-5.4,8.8-2,20.2,1.2,30.1s5.7,21.7-0.8,29.8c-1.5,1.9-3.5,3.6-4,5.9c-0.9,4.3,3.5,7.7,6.9,10.6c5.7,5,12.1,12.6,19.1,9.5
				c5.3-2.3,6.2-9.6,4.9-15.2c-1.3-5.7-4-11.3-2.9-17c1-5.5,5.3-9.7,7.8-14.6c5.5-10.8,2.1-23.8-1.3-35.5
				c-5.6-18.9-11.1-37.8-16.7-56.8c-1.3-4.5-2.9-9.7-7.6-11.6c-2.9-1.2-6-0.6-8,1.8c-2,2.4-2.2,5.7-1.3,8.5c1.4,4.2,3.2,8.1,4,12.5
				C2223.3,1003.8,2223.4,1008.7,2222.9,1013.5z"/>
			<path class="st3" d="M2421.1,995.6c11.3,5.4,23.1,9.8,33.8,16.4c10.6,6.6,20.2,16,23.8,28c-11.3-10.4-22.7-20.9-34-31.3
				c9.7,16.9,18.7,34.2,26.9,52c-21.4-16.6-26.9-49.6-51-62c-9.4-4.8-20.3-6-29.5-11.1c-1.7-1-5-2.5-6-4.4c-1.1-2,1.7-2.1,3.2-1.8
				c5.4,1,10.8,3.5,15.7,5.8C2409.7,989.8,2415.4,992.8,2421.1,995.6z"/>
		</g>
	</g>
	<g id="рука_1_">
		<g>
			<path class="st4" d="M1874.3,1074.9c17,1.4,35.1,0.9,49.6-8.1c4.7-3,9.3-7.8,8.6-13.3c-0.5-3.6-3.2-6.5-6.3-8.2
				s-6.8-2.3-10.3-2.9c-16.4-2.5-33-3.5-49.6-3c-8,0.2-17,1.3-22.2,7.5c-2.3,2.7-3.4,6.3-3.4,9.8c0,2.6,0.3,5.8,1.9,8s4.6,3.5,7,4.7
				c3.6,1.7,7.4,2.9,11.2,3.7C1865.2,1074,1869.8,1074.5,1874.3,1074.9z"/>
			<path class="st5" d="M1929.7,952.7c3.7-2.8,7.5-5.7,8.1-8.2c0.3-1,0-1.9-1.1-2.3c-1.1-0.5-3.1-0.4-5.1,0.3
				c-1.1,0.4-2.2,0.9-3.2,1.4c-7,3.7-13.3,8-17.1,12.2c-1.5,1.7-3.6,4.1-1.5,4.9c1.7,0.6,5.2-0.2,8-1.2
				C1922.7,958,1926.4,955.2,1929.7,952.7z"/>
			<path class="st4" d="M1910,1034.1c18.6,0.2,38.2-23.2,15.2-33.8c-20.6-4.8-59.4-4.7-67.8,11.5
				C1844,1037.6,1885.1,1041,1910,1034.1z"/>
			<path class="st4" d="M1910,1052c18.6,0.2,38.2-23.2,15.2-33.8c-20.6-4.8-59.4-4.7-67.8,11.5C1844,1055.5,1885.1,1059,1910,1052z"
				/>
			<path class="st4" d="M1907.5,1009.9c18,4.6,42.9-17.8,23.1-33.4c-18.9-9.5-79.5-15.2-91.5-1.5
				C1820,996.8,1881.6,1010.7,1907.5,1009.9z"/>
			<path class="st4" d="M1845.5,1067.3c0,0-21.8-11.9-25.9-41.9c-4.9-35,5.7-50.4,19.7-60.3c17.1-12,24.1-9.1,54.6-7.9
				c11.8,0.5,5.9,0,18.9-3.4c11.3-3,19.2-12.1,22.7-6.7c6.6,10.1-1,26.3-16.1,31.7l-37.5,31.9L1845.5,1067.3z"/>
			<path class="st8" d="M1916.7,976.4c-11.1-2.2-22.1-4.3-33.2-6.4c-4.8-0.9-9.7-1.9-14-4.4c-0.8-0.5-1.7-1.2-1.8-2.1
				c-0.1-1.8,2.3-2.3,4.1-2.3c16,0.8,32.2,1.5,47.5,6.4c5.8,1.8,11.6,4.5,15.2,9.3c1.6,2,2.6,4.5,2.9,7.1c0.1,1.1,0.7,5.3-1.4,4.4
				c-1.9-0.9-2.8-3.6-4.1-5.1c-1.7-2.1-4-3.6-6.6-4.6C1922.7,977.6,1919.6,977,1916.7,976.4z"/>
			<path class="st8" d="M1876.1,1006.1c-1.9-0.2-3.8-0.4-5.4-1.4c-1.6-1.1-2.5-3.3-1.5-4.9c16.2-5,33.6,3.5,50.4,1
				c2.2-0.3,4.4-0.8,6.6-0.6c1.4,0.2,4.2,1,4.4,2.8c0.3,2.8-6.4,3-8,3.2c-9.9,0.8-19.8,1.1-29.7,0.9
				C1887.3,1006.9,1881.7,1006.6,1876.1,1006.1z"/>
			<path class="st8" d="M1868.9,1032.7c-0.8-0.2-1.7-0.6-2.2-1.3c-0.8-1.2,0-2.9,1.3-3.6s2.8-0.6,4.2-0.5c9.3,0.5,18.7,0.2,28-0.8
				c7-0.8,13.9-2,21-2.4c1.8-0.1,3.5-0.2,5.3-0.1c0.9,0,3.3-0.4,3.9,0.6c1.1,1.6-2.1,3.9-3.2,4.5c-5.6,2.8-12.1,4.5-18.2,5.7
				c-6.3,1.2-12.7,1.7-19.1,1.5C1882.8,1035.9,1875.7,1034.8,1868.9,1032.7z"/>
			<path class="st8" d="M1870.8,1056.7c-1.7-0.2-3.4-0.4-4.7-1.5c-1.3-1.1-1.8-3.2-0.6-4.4c0.9-0.8,2.2-0.8,3.4-0.8
				c16.8,0.5,33.7-0.4,50.3-2.6c1.8-0.2,4.3-0.7,5.9,0.5c1.5,1.2-0.2,2.4-1.4,2.9c-3.7,1.8-8.3,2.5-12.2,3.4
				c-8.5,1.9-17.2,2.9-25.9,3C1880.6,1057.4,1875.7,1057.2,1870.8,1056.7z"/>
			<path class="st8" d="M1849.5,989.8c-1.6-2.4-2.3-5.4-2.3-8.3c0-1.1,0.1-2.2-0.2-3.3s-1.2-2-2.3-2.1c-1.7-0.1-2.8,1.8-3.2,3.5
				c-0.7,2.4-1,5-0.6,7.5s1.8,4.9,4,6.2c1.5,0.9,3.2,1.2,4.9,1.3c1.5,0.1,3.5,0.3,4.9-0.1c-0.3-0.9-1.8-1.3-2.6-1.9
				C1851.1,991.8,1850.2,990.9,1849.5,989.8z"/>
			<path class="st8" d="M1843.8,1046.1c-3.5,6.4-2.6,14.9,2.1,20.4c-3.8,0.2-6.9-3-8.7-6.4c-1.9-3.6-2.9-8-1.2-11.7
				c1.3-2.8,6.6-6.4,9.5-3.7C1844.9,1045,1844.3,1045.4,1843.8,1046.1z"/>
			<path class="st8" d="M1849.6,1020.1c-4.4-3.3-2.7-9.2-5.6-13.9c-4.1,4.1-4.2,11.4-0.4,15.7c1.1,1.2,2.8,2.3,4.4,2
				C1849.8,1023.6,1850.9,1021.2,1849.6,1020.1z"/>
		</g>
	</g>
	<g id="рука">
		<g>
			<path class="st4" d="M2171.7,989.5c4.2,1,8.5,2,12.4,4c6.4,3.3,11.2,9.2,14.3,15.7s4.4,13.7,5.1,20.9c1.3,14.4,0,28.9-1.4,43.2
				c-0.2,1.9-0.4,3.9-1.5,5.5c-1.4,2-3.9,2.9-6.3,2.9c-2.4,0-4.7-0.8-7-1.6c-5.2-1.9-10.4-4.3-16-4.4c-3.1-0.1-6.4,0.5-9.3-0.7
				c-4.6-1.9-6.3-7.4-7.5-12.3c-5.2-22.1-9.4-44.3-12.8-66.8c-0.4-2.7-0.8-5.5-0.5-8.3c0.2-1.6,0.5-4.8,2.7-4.7
				c1.4,0.1,2.8,0.6,4.2,0.9c1.5,0.3,3,0.7,4.5,1c3,0.7,5.9,1.4,8.9,2.1C2164.9,988,2168.3,988.8,2171.7,989.5z"/>
			<path class="st4" d="M2111.2,1112c-17,1.4-35.1,0.9-49.6-8.1c-4.7-3-9.3-7.8-8.6-13.3c0.5-3.6,3.2-6.5,6.4-8.2s6.8-2.3,10.4-2.9
				c16.4-2.5,33-3.5,49.6-3c8,0.2,17,1.3,22.2,7.4c2.3,2.7,3.4,6.3,3.4,9.8c0,2.6-0.3,5.8-1.9,8c-1.6,2.2-4.6,3.5-7,4.7
				c-3.6,1.7-7.4,2.9-11.2,3.7C2120.3,1111.1,2115.8,1111.6,2111.2,1112z"/>
			<path class="st5" d="M2028.1,1008.1c-4.6-0.1-9.4-0.4-11.4-2c-0.8-0.7-1.1-1.5-0.5-2.5s2.3-2.1,4.3-2.7c1.1-0.3,2.3-0.5,3.4-0.6
				c7.8-1,15.5-1.2,21.1,0.1c2.2,0.5,5.3,1.3,4.1,3.1c-1,1.5-4.4,2.9-7.2,3.7C2037,1008.4,2032.2,1008.2,2028.1,1008.1z"/>
			<path class="st4" d="M2075.5,1071.2c-18.6,0.2-38.2-23.2-15.2-33.8c20.6-4.8,59.4-4.7,67.8,11.5
				C2141.5,1074.7,2100.4,1078.2,2075.5,1071.2z"/>
			<path class="st4" d="M2075.5,1089.1c-18.6,0.2-38.2-23.2-15.2-33.8c20.6-4.8,59.4-4.7,67.8,11.5
				C2141.5,1092.7,2100.4,1096.1,2075.5,1089.1z"/>
			<path class="st4" d="M2078,1047c-18,4.6-42.6-13.5-22.8-29.2c18.9-9.5,79.2-19.5,91.2-5.8C2165.5,1034,2103.9,1047.8,2078,1047z"
				/>
			<path class="st4" d="M2140,1104.4c0,0,31.6-17.1,38.1-46.7c7.3-33-0.2-47.8-10.5-61.5c-11.8-15.8-38.4-20.9-68.7-16.8
				s-34.8,14.2-45.9,17.7c-11.1,3.5-30.7,0.4-31.9,6.7c-1.3,6.3,2.5,22.2,28.8,22.8l53.8,21.2L2140,1104.4z"/>
			<path class="st8" d="M2066.4,1009.2c11.1-2.2,22.1-4.3,33.2-6.4c4.8-0.9,9.7-1.9,14-4.4c0.8-0.5,1.7-1.2,1.8-2.1
				c0.1-1.8-2.4-2.3-4.1-2.3c-16,0.8-32.2,1.5-47.5,6.4c-5.8,1.8-11.6,4.5-15.2,9.3c-1.6,2-2.5,4.5-2.9,7.1
				c-0.1,1.1-0.7,5.3,1.4,4.4c1.9-0.9,2.8-3.6,4.1-5.1c1.7-2.1,4-3.6,6.6-4.6C2060.4,1010.4,2063.4,1009.8,2066.4,1009.2z"/>
			<path class="st8" d="M2109.4,1043.2c1.9-0.2,3.8-0.4,5.4-1.4c1.6-1.1,2.5-3.3,1.5-4.9c-16.2-4.9-33.6,3.5-50.4,1
				c-2.2-0.3-4.4-0.8-6.6-0.6c-1.4,0.2-4.2,1-4.4,2.8c-0.3,2.8,6.4,3,8,3.2c9.9,0.8,19.8,1.1,29.7,0.9
				C2098.2,1044,2103.8,1043.7,2109.4,1043.2z"/>
			<path class="st8" d="M2118.7,1066.5c0.8-0.2,1.7-0.6,2.2-1.3c0.8-1.2,0-2.9-1.3-3.6s-2.8-0.6-4.2-0.5c-9.3,0.5-18.7,0.2-28-0.8
				c-7-0.8-13.9-2-21-2.4c-1.8-0.1-3.5-0.2-5.3-0.1c-0.9,0-3.3-0.4-3.9,0.6c-1.1,1.6,2.1,3.9,3.2,4.4c5.6,2.8,12.1,4.5,18.2,5.7
				c6.3,1.2,12.7,1.7,19.1,1.5C2104.8,1069.7,2111.9,1068.6,2118.7,1066.5z"/>
			<path class="st8" d="M2116.9,1091.7c1.7-0.2,3.4-0.4,4.7-1.5s1.8-3.2,0.6-4.4c-0.9-0.8-2.2-0.8-3.4-0.8
				c-16.8,0.5-33.7-0.4-50.3-2.6c-1.8-0.2-4.3-0.7-5.9,0.5c-1.5,1.2,0.2,2.4,1.4,2.9c3.7,1.8,8.3,2.5,12.2,3.4
				c8.5,1.9,17.2,2.9,25.9,3C2107.1,1092.4,2112,1092.2,2116.9,1091.7z"/>
			<path class="st8" d="M2136,1026.9c1.6-2.4,2.3-5.4,2.3-8.3c0-1.1-0.1-2.2,0.2-3.3s1.2-2,2.3-2.1c1.7-0.1,2.8,1.8,3.2,3.5
				c0.7,2.4,1,5,0.6,7.5s-1.8,4.9-4,6.2c-1.5,0.9-3.2,1.2-4.9,1.3c-1.5,0.1-3.5,0.3-4.9-0.1c0.3-0.9,1.8-1.3,2.6-1.9
				C2134.4,1028.9,2135.3,1028,2136,1026.9z"/>
			<path class="st8" d="M2141.7,1083.2c3.5,6.4,2.6,14.9-2.1,20.4c3.8,0.2,6.9-3,8.7-6.4c1.9-3.6,2.9-8,1.2-11.7
				c-1.3-2.8-6.6-6.4-9.5-3.7C2140.6,1082.1,2141.3,1082.5,2141.7,1083.2z"/>
			<path class="st8" d="M2135.5,1058.4c4.4-3.3,3-10.4,5.9-15.1c4.1,4.1,4.2,11.4,0.4,15.7c-1.1,1.2-2.8,2.3-4.4,2s-2.8-2.7-1.5-3.8
				"/>
		</g>
		<path class="st0" d="M2198.9,1086.8c0,0-11.1-35.1-9.6-51.8c1.5-16.6-11.7-59.4-11.7-59.4l28.2,10l13.8,68.9l-6.3,39
			L2198.9,1086.8z"/>
	</g>
	<g id="лицо">
		<path class="st4" d="M1931.5,681.2c0,0-12.7,30.1-13.5,52.6c-0.5,14.9-2.4,58.2,36.4,70c34.5,10.4,69.9-8.6,84.2-39.1
			c7.7-16.4,12.3-43.2,12.3-43.2s46.1-3.5,46.7-38.1c0.5-27.4-33.7-19.2-33.7-19.2s12.1-53.8-40.2-68.6
			c-46.9-13.3-68.1,34.4-68.1,34.4s-16.9-25-33.9-13C1902.3,630.5,1907.9,664.2,1931.5,681.2z"/>
		<path class="st5" d="M2074.9,683.3c-5.3,1.6-11.4,5.9-18.1,16.5l0,0l0,0.1c-0.7,1.1-1.4,2.3-2.1,3.5c-0.2,0.5-0.1,1.2,0.5,1.4
			c0.1,0,0.1,0,0.2,0.1c0.5,0.1,1-0.1,1.2-0.5c0.6-1.2,1.3-2.3,1.9-3.4c7.5-8.9,17.5-2.5,17.8-2.9c0.3-0.5-4.5-7.4-11.4-4.5
			c11.6-13.5,23.5-8.7,23.7-9.3C2088.8,684.1,2081.5,681.6,2074.9,683.3z"/>
		<path class="st5" d="M1939.9,661.1c5.7-25-17.8-31-17.9-30.4s13.6,4.5,15.6,22.2c-5.8-8.6-14.6-4.2-14.5-3.6
			c0,0.6,13.4,0.4,14.6,12.1c0.2,2.6,0,4.8,0.5,5.1C1938.4,666.3,1938.8,665.9,1939.9,661.1z"/>
	</g>
	<g>
		<path class="st9" d="M1966.8,665.4c-11.2-6.5-20.1,1.3-20.1,1.3s-2.9,8.4,9.6,15.4c12.5,7,18.9,2.6,18.9,2.6
			S1978,672,1966.8,665.4z"/>
		<path class="st9" d="M2041.4,696.3c0,0-3-12.2-16-13.3c-12.9-1.1-17.7,11.8-17.7,11.8s2.8,7.2,17,8.7
			C2039,704.9,2041.4,696.3,2041.4,696.3z"/>
		<circle class="st5" cx="2025" cy="693.3" r="7.5"/>
		<circle class="st5" cx="1961.4" cy="674.2" r="7.5"/>
		<path class="st8" d="M2007.9,694.7c0,0,3.2,8.9,18,10c13.6,0.9,15.6-8.5,15.6-8.5s-2.7,3-16.2,2.5
			C2011.9,698.3,2007.9,694.7,2007.9,694.7z"/>
		<path class="st8" d="M1975.1,685c0,0-7,5.3-19.6-1.9c-12.1-7-8.8-16-8.8-16s1.3,5.9,13.1,12.4C1971.3,685.8,1975.1,685,1975.1,685
			z"/>
		<path class="st5" d="M2024.7,681.1c-15.4-0.8-18.8,16.1-18.8,16.1s3.5-10,20.1-8.9c11.4,0.8,16.2,8.1,16.2,8.1
			S2041.8,682.1,2024.7,681.1z"/>
		<path class="st5" d="M1969.3,664.3c-12.9-8.8-23.1,2-23.1,2s10.6-3.5,19.8,3.4c8.9,6.8,9.4,18.2,9.4,18.2
			S1982.7,673.5,1969.3,664.3z"/>
		<path class="st8" d="M2014,676.6c0.3,2.5,11,1.8,17.3,3.2c6.2,1.5,13.8,12,17.3,11.1c3.6-0.8-3.9-14.9-13.8-17.8
			C2024.8,670.2,2013.6,672.2,2014,676.6z"/>
		<path class="st8" d="M1964.3,652.4c-10-2.4-23.6,6-20.9,8.5c2.6,2.5,14.4-2.8,20.5-1c6.1,1.9,15.1,7.9,16.6,5.9
			C1983.1,662.2,1974.4,654.9,1964.3,652.4z"/>
		<path class="st5" d="M2013.6,663.4c1.7,5.1,14.7,2.2,22,5.6c9.6,4.4,17.2,16.3,20,15.2c1.9-0.8-2.2-15.8-17.5-22.1
			C2023,655.7,2011.8,657.9,2013.6,663.4z"/>
		<path class="st5" d="M1990.1,655.5c-4.3,3.2-13.4-6.5-21.4-7.8c-10.4-1.8-23.4,3.8-25,1.4c-1.2-1.7,10.7-11.9,26.8-8.6
			C1986.8,643.9,1994.8,652,1990.1,655.5z"/>
	</g>
	<g>
		<g id="рот_7_">
			<path class="st8" d="M1945.9,731.1c0,0,10.6,12.1,13.4,15.1c2.7,3.1,7.9,7.5,11,8.4c3.1,0.9,12.1-1.4,14.9-1.6
				c2.7-0.2,20.7-3.6,20.7-3.6l-21.4-7c-2.4-1-5.1-1.2-7.6-0.5l-5,1.5l-3-4c-2-2.7-5.2-4.2-8.6-4.4L1945.9,731.1z"/>
		</g>
		<path class="st9" d="M1945.6,734.8c0,0,4.2,5.1,6,9.6c2.8,7.1,9.3,13.3,16.7,14.4c8.4,1.2,16.1-0.4,23.9-3.7
			c4.9-2.1,10.3-2.9,10.3-2.9l-11.7,0.4l-21.8,0.6L1945.6,734.8z"/>
		<g id="рот_6_">
			<path class="st5" d="M1986.5,767.9c-0.3-0.8-1.2-1.1-1.8-0.8c-0.1,0.1-11.4,4.9-20.4,2.1c-9.2-2.8-15.5-11.9-15.6-11.9
				c-0.4-0.7-1.2-1-1.9-0.6c-0.3,0.2-0.6,0.6-0.7,1c-0.1,0.4,0,0.8,0.2,1.2c0.7,1.2,6.4,11.9,17.1,14.7c2.7,0.7,5.1,1,7.4,1
				c6.9,0,12-2.5,14.8-4.4c0.1-0.1,0.2-0.1,0.3-0.1c0.3-0.2,0.6-0.5,0.8-0.9C1986.7,768.7,1986.6,768.3,1986.5,767.9z"/>
		</g>
		<g id="рот_5_">
			<path class="st5" d="M2003.6,744.5L2003.6,744.5c-0.7-0.5-1.9-0.5-2.5,0.1c-0.3,0.3-0.5,0.6-0.4,1.1c0.1,0.4,0.3,0.8,0.6,1.1
				c0,0,0.7,0.6,1.3,2.2c-0.7,0-1.5,0-2.6,0.1c-5.3,0-13.9,1.8-16,1.8c-0.2,0-0.8,0-1.8,0.2c-3.3,0.4-10.9,0-13.3-0.6
				c-2.6-0.8-7-2.5-10.3-5.8c-2.4-2.4-7.7-10.2-11.1-12.4c1.5-0.8,2.7-1.4,2.8-1.5c0.6-0.2,1-0.8,1.2-1.3c0.1-0.4,0.1-0.7-0.1-1
				c-0.5-0.7-1.5-1-2.4-0.7c-0.3,0.2-8.1,3.5-10.3,7.6c-0.1,0.4-0.2,0.7,0,1.1c0.2,0.4,0.5,0.7,1,0.9c0.1,0,0.2,0.1,0.4,0.1
				c0.9,0.2,1.6-0.1,1.9-0.8c0.5-0.9,1.3-1.9,2.6-2.8c3.6,2.4,9,10.3,11.3,12.6l0.2,0.2c2.9,2.8,7.6,6.3,11.5,7.5c0,0,1,0.2,1.4,0.2
				c3.3,0.3,9.8,0.4,13.3-0.2c0.9-0.1,1.8-0.3,1.9-0.3c1.6-0.1,6.9-1.7,11.8-1.8c3.1,0,5.8-0.1,7.1-0.1c0.1,1,0,2.1-0.1,3.2
				c-0.1,0.7,0.4,1.4,1.3,1.6c0.1,0,0.2,0,0.3,0c0.5,0,1-0.1,1.3-0.4c0.3-0.3,0.6-0.6,0.6-1C2007.6,747.7,2003.8,744.7,2003.6,744.5
				z"/>
		</g>
		<g id="рот_4_">
			<g>
				<path class="st5" d="M1971.7,743.8c-4.5-1.4-7.2-6.8-7.2-7c-0.3-0.5,0-1.2,0.6-1.5c0.6-0.2,1.3,0,1.6,0.6c0,0,2.3,4.7,5.7,5.8
					s7.5-1.7,7.6-1.7c0.5-0.4,1.2-0.2,1.6,0.2c0.4,0.5,0.3,1.2-0.2,1.5C1981.1,742,1976.3,745.2,1971.7,743.8z"/>
			</g>
		</g>
	</g>
	<g id="ноздри">
		<path class="st5" d="M2003.6,716.1c0-0.8-0.7-1.4-1.4-1.3c-0.8,0-1.4,0.7-1.3,1.4c0,0.1,3.5,10.4-1.1,12.8
			c-3.6,1.8-7.5,0.4-9.7-0.6c0.7-0.7,1-1.3,1-1.3c0.4-0.7,0.2-1.5-0.4-1.8s-1.5-0.2-1.8,0.4c-0.1,0.1-0.7,1-1.8,2.1l0,0
			c-2,1.8-5.3,3.4-10.6,1.6c-8-2.6-6-11-6-11.4c0.2-0.7-0.3-1.5-1-1.7c-0.7-0.2-1.4,0.3-1.7,1c-0.4,1.5-0.6,3.6-0.4,5.7
			c-2.2,0-5.6-0.4-7.1-4.7c-2.1-5.8,6.6-10,6.9-10.2c0.6-0.3,2.1-2,1.7-2.7c-0.3-0.6-2.2-0.3-2.8,0.1c-3.2,1.7-11.3,7.1-9.1,13.5
			c1.6,4.7,5.7,6.3,9,6.7c0.8,0.1,1.5,0.1,2.2,0.1c1,2.9,3,5.6,7.1,6.9c1.1,0.3,2.1,0.6,3.1,0.7c4.2,0.5,7.4-1.1,9.6-2.8
			c1.3,0.7,4.1,1.9,7.1,2.3c1.9,0.2,4,0.1,5.9-0.7C2007.6,729.3,2003.6,716.5,2003.6,716.1z"/>
	</g>
	<g id="нос">
		<g>
			<path class="st5" d="M1972.6,705.1c-0.3,0-0.6-0.1-0.8-0.3c-0.7-0.5-0.8-1.5-0.3-2.1c0.1-0.1,6.1-8,8.4-13.6
				c3.8-9.2,3.9-18.4,3.9-18.5c0-0.8,0.7-1.4,1.5-1.5c0.8,0,1.4,0.7,1.5,1.5c0,0.5,0,9.8-4.1,19.6c-2.5,6-8.5,14-8.8,14.3
				C1973.6,705,1973.1,705.1,1972.6,705.1z"/>
		</g>
	</g>
	<g id="пряд_справа">
		<path class="st5" d="M2054.6,649.7c0,0-5.2,26.9-8.8,41.5c-3.6,14.7-16.4,50.9-12.3,73.9s17.8,38.4,35.7,34.2
			c17.9-4.2,25.5-21.7,20.7-39.2c-4.8-17.5-17.7-34.8-18.6-58.5s9.1-54.6,9.1-54.6L2054.6,649.7z"/>
		<path class="st6" d="M2049.2,697.6c-1.9,6.9-3.8,13.7-5,20.8c-2.3,13.9-1.5,28.1-0.8,42.1c0.5,9,1.4,19.1,8.4,24.8
			c4.5,3.7,11.1,4.7,16.5,2.5c5.4-2.3,9.4-7.6,10-13.5c-3.6-0.2-7.3-0.5-10.9-0.7c1.4-2.5,2.7-5,4.1-7.5c-3.4,0.3-6.7-2-8.6-4.8
			c-1.9-2.9-2.6-6.3-3.3-9.8c-2.4-11.2-4.7-22.8-2.8-34c0.8-4.9,2.5-9.8,3.6-14.7c1.4-6.1,1.8-12.3,2.4-18.6
			c0.4-4.4,0.7-8.9,1.1-13.3c0.1-1.5,1-5.2-0.1-6.2c-0.8-0.7-3.1-0.5-3.9,0c-2.2,1-2.7,3.8-3.3,5.8c-1.1,4-2.2,8-3.3,12.1
			C2052,687.5,2050.7,692.6,2049.2,697.6z"/>
	</g>
	<g id="прядь_слева">
		<path class="st5" d="M1943.6,604.6c0,0-16.5,42.2-26.1,53.9c-9.6,11.8-44.3,41.1-49.2,55.1c-5,14-4.8,25.5,3,32.6
			c10.5,9.4,32.7,4.7,40.2-5.9c19.8-27.9,24-76.1,51.6-125.2L1943.6,604.6z"/>
		<path class="st6" d="M1904.5,711.6c-4.6,7.9-10.1,16.5-19,18.6c-2.3,0.5-5.1,0.2-6-1.9c-0.2-0.6-0.2-1.3-0.2-2
			c0.4-8.3,4.2-16.4,10.4-22c2.6-2.4,5.6-4.3,8.4-6.5c8.7-6.8,15.4-15.7,21.1-25c5.8-9.6,10.8-19.9,16.5-29.6
			c2.8-4.9,5.8-9.6,9.2-14.1c0.8-1.1,3.3-5.4,4.6-2.6c0.9,1.9-2.3,6.3-3.2,8.1c-6.3,12.3-12.6,24.6-19.1,36.8s-13.2,24.2-20,36.2
			C1906.3,708.7,1905.5,710.1,1904.5,711.6z"/>
	</g>
	<g id="челка">
		<path class="st5" d="M2064.2,561.9c0,0-29.1-11.3-50.8-7.7c-21.8,3.5-33,18.4-33,18.4s-40.6-2.6-41.6,27.9
			c-1.1,33.9,37.7,25.4,37.7,25.4s-1.7,17.5,22.4,24.9c21.7,6.5,32.8-5.7,32.8-5.7s10.7,22.6,35.5,18.3
			c28.1-4.7,29.1-28.2,28.3-32.9c-0.7-4.8-2.6-26.4-36-29.6C2059.5,601,2087.2,577.4,2064.2,561.9z"/>
		<path class="st6" d="M1950.3,585.2c-7.4,6.2-11.3,16.4-9.8,26c1.3-5.2,6.2-9.2,11.4-9.7c-3.9,2.5-6.4,7.1-6.4,11.7
			c2.8-2.2,5.6-4.2,8.4-6.4c-1.4,2.9-1.3,6.4,0.3,9.3c1.9-0.8,3.8-1.7,5.6-2.5c4.7,4.2,12.5,4.4,17.3,0.3
			c1.4,9.4,6.3,18.1,13.5,24.1c-1.4-5.1-0.3-10.8,2.7-15.1c-2.2,2.6-1.7,7.1,1,9.2c2.7,2.1,7.2,1.5,9.2-1.2c-0.4,1.4-0.8,2.7-1.2,4
			c1.9,0.8,4.4,0.4,6-1.1c0.5,3.2,5,3.3,8.2,2.6c9.4-2.1,18.7-4.3,28.1-6.4c-5.5,4.1-5.7,13.6-0.3,17.8c2.5-3.1,5.5-5.8,8.9-8
			c-1.5,2-2.4,4.4-2.6,6.8c2.4-1.3,5.8-0.7,7.5,1.4c4.2-3,10.3-3,14.4,0c2.1-2.7,4.4-5.5,6.5-8.2c-3.2,2.4-8.5,1.3-10.5-2.3
			c-1.9-3.6,0-8.7,3.8-10c-4,1.5-8.1,3-12.1,4.5c1.8-1.8-0.3-5.5-2.8-4.9c3.5-9.7,11.5-17.8,21.3-21.3c-13.3-3.7-28.6,0.8-37.7,11.3
			c0.2-1.3-1.6-2.1-2.8-1.7c-1.2,0.5-2,1.7-2.6,2.9c-0.4-4.5-7.6-6.2-9.9-2.3c-0.6-1.5-1.2-2.9-1.8-4.3c-1.4,0-2.8,0.6-3.6,1.6
			c0.1-3.7,0.8-7.4,2.2-10.8c-4.1,1.6-8.2,3.5-12.1,5.9c0.9-1.8,1.6-3.6,2.5-5.4c-5.2-1.4-11-0.2-15.1,3.1c0.6-1.1,1.3-2.3,1-3.4
			c-0.3-1.2-2.2-1.9-2.7-0.8c7.9-6.7,18-10.5,28.3-10.9c-7.8-3-16.2-4.9-24.3-3.1c-8.1,1.8-15.6,8-16.8,16.3
			c1.6-2.2,3.1-4.8,2.3-7.3c-0.8-2.6-5.1-3.4-5.9-0.9c1.3-1.8-1.7-3.6-3.9-3.5c-2.2,0-5.3-0.7-4.9-2.8c0.2-0.7,6.8-1.8,7.6-2
			c2.7-0.6,5.4-0.9,8.1-1.5c-2.5-2.6-6.3-3.8-9.5-5.4c-2.5-1.3-4.8-1.9-7.7-1.9C1962.5,578.6,1955.5,580.8,1950.3,585.2z"/>
	</g>
</g>
</svg>
