<?xml version="1.0" encoding="utf-8"?>
<!-- Generator: Adobe Illustrator 25.2.1, SVG Export Plug-In . SVG Version: 6.00 Build 0)  -->
<svg version="1.1" xmlns="http://www.w3.org/2000/svg" xmlns:xlink="http://www.w3.org/1999/xlink" x="0px" y="0px"
	 viewBox="0 0 998.21 973.21" style="enable-background:new 0 0 998.21 973.21;" xml:space="preserve">
<style type="text/css">
	.st0{fill:#7786A5;}
	.st1{fill:#404B62;stroke:#404B62;stroke-width:3;stroke-miterlimit:10;}
	.st2{fill:#677490;}
	.st3{fill:#404B62;}
	.st4{fill:#C8315C;}
	.st5{fill:#1B2334;}
	.st6{fill:#352745;}
	.st7{fill:#282F3D;}
	.st8{fill:#AD3255;}
	.st9{fill:#FFFFFF;}
</style>
<g id="тело">
	<path class="st0" d="M276.14,316c-34.47,30.15-21.62,64.03-43.31,86.46c-12.43,12.86-73.07,105.72-82.61,117.07
		c-25.03,29.8-37.02,85.27-20.69,131.09s117.14,44.15,158.49,7.73c41.35-36.41,58.08-131.6,70.41-181.86
		c16.86-68.75,2.03-85.24-12.21-110.65C331.99,340.43,276.14,316,276.14,316z"/>
	<path class="st0" d="M684.65,304.71c35.2,29.29,46.81,49.59,69.04,71.47c12.75,12.55,53.61,44.96,72.03,70.29
		c13.7,18.85,35.59,53.16,45.4,64.27c25.76,29.17,67.73,76.78,68.53,97.06s-11.79,85.68-51.02,114.43
		c-52.26,38.3-105.14-21.66-192.78-30.64c-54.81-5.62-69.52,8.31-85.47-30.14c-15.95-38.45,42.64-135.99,29.08-185.93
		c-18.56-68.31-4.13-85.16,9.47-110.91C662.53,338.85,684.65,304.71,684.65,304.71z"/>
	<path class="st0" d="M307.41,284.94c-20.29,9.98-43.52,29.07-46.08,89.12c-1.64,38.59,72.85,57.84,61.46,102.96
		s-28.66,72.55-31.08,95.55c-2.42,23,2.04,141.28,22.01,179.02c24.92,47.11,163.45,14.03,255.31,23.56
		c103.47,10.74,133.34,4.47,151.95-28.87c21.96-39.34-45.56-94.53-45.78-127.83c-0.26-38.22-38.21-116.09-31.13-144.96
		c6.14-25.05,122.31-70.37,102.11-105.04c-27.84-47.76-52.31-74.04-80.95-90.12c-36.27-20.38-112.29-21.6-183.07-26.02
		S339.78,269.01,307.41,284.94z"/>
	<g>
		<polygon class="st1" points="329.05,538.84 370.57,437.67 374.87,507.78 409.31,441.05 417.92,529.92 403.16,531.77 
			405.08,462.91 373.49,532.07 367.8,532.69 365.65,465.04 345.97,534.53 		"/>
		<polygon class="st1" points="318.46,563.77 597.19,514.55 321.67,534.84 		"/>
		<g>
			<path class="st1" d="M446.79,527.46c-15.87,0-17.71-17.52-16.81-17.64c0.9-0.12,3.49,14.54,18.55,13.05
				c3.63-0.36,6.95-2.09,9.31-5.18c6.62-8.64,7.16-24.69,6.41-37.36c-1.34,6.61-2.72,14.9-7.11,19.15c-2.75,2.67-6.8,4.79-10.45,4.7
				c-3.78-0.09-8.07-2.39-10.33-5.23c-7.62-9.58-1-35.27-0.12-35.09c0.89,0.18-3.04,21.04,3.63,29.43c1.65,2.08,3.82,3.12,6.62,3.19
				c2.85,0.06,5.2-0.9,7.32-2.96c8.61-8.35,9.49-30.23,10.34-30.3c0.86-0.07,11.71,42.46,0.12,58.36
				c-5.75,7.88-10.38,5.3-14.89,5.74C448.47,527.42,447.61,527.46,446.79,527.46z"/>
		</g>
		<path class="st1" d="M527.54,461.01c-3.51-1.95-16.1-1.88-25.81-1.24c-6.47,0.43-21.86,1.8-25.07,5.24
			c-5.03,5.4,0.61,15.67,1.2,15.67c0.25,0-2.34-7.68,1.12-11.38c1.66-1.78,7.83-3.35,18.28-4.13l3.98,56.06
			c0,0.9-9.67,1.64,1.64,1.64c0.9,0,1.64-0.73,1.64-1.64l1.99-56.39c9.69-0.56,16.91-0.29,19.37,1.08c4.15,2.31,1.23,9.03,2.05,9.39
			C528.75,475.68,532.95,464.02,527.54,461.01z"/>
		<g>
			<path class="st1" d="M542.12,519.98c-0.39,0-0.78-0.14-1.08-0.4c-0.35-0.31-12.34,1.24-6.25,0.4c0,0,4.58-60.61,5.48-60.61
				c0.9,0,2.68,13.44,2.68,13.44c2.23,0.53,7.72,2.22,12.51,4.76c8.84,4.68,13.72,11.33,14.13,19.23
				c0.41,8.01-4.25,14.57-13.5,18.98c-6.73,3.21-13.46,4.15-13.75,4.19C542.27,519.97,542.19,519.98,542.12,519.98z M543.09,476.58
				l0.66,39.8c5.82-1.19,19.78-6.4,19.08-19.9C562.14,482.96,548.76,478.05,543.09,476.58z"/>
		</g>
	</g>
	<path class="st2" d="M230.49,527.61c5.98,11.9,14.64,22.43,25.16,30.6c-34.81-11.3-71.29-22.75-107.38-16.69
		c13.79,2.46,27.58,4.93,41.37,7.39c-19.38,4.07-39.99,8.79-53.71,23.06c8.85,1.42,17.65-2.03,26.43-3.87
		c20.89-4.37,42.6,0.49,62.84,7.25c10.82,3.61,21.45,7.76,32.25,11.42c5.46,1.85,10.97,3.57,16.54,5.03
		c2.02,0.53,10.06,3.8,11.48,1.33c1.16-2.01-2.41-6.59-3.35-8.13c-2.51-4.16-4.68-8.39-6.85-12.73
		c-4.53-9.03-10.76-16.86-18.09-23.79C248.95,540.72,239.71,534.13,230.49,527.61z"/>
	<path class="st2" d="M669.26,506.09c2-8.16-13.41-33.26-1.41-62.29c20.68-34.61,46.04-73.3,31.28-83
		c-28.17,29.38-33.35,57.37-49.62,94.85c6.06-26.13-1.76-39.41,1.17-66.07c-17.89,22.8-18.94,54.12-19.22,83.11
		c-1.64-14.16,4.26-10.51,0.74-24.32c-12.76,52.76-31.82,24.53-51.34,77.62c-16.14,15.4,16.58,92.35-4.55,99.8
		c-10.28,0.98-46.72,18.41-17,19.08c-21.24,11.85-67.7,72.89-94.21,67.21c-14.71-3.97-31.72-0.14-45.23-7.9
		c-24.83-15.84-32.33-36.04-55.98-53.56c-12.92-6.4,0.01-100.34-13.8-104.23c-16.84-6.13-42.92,41.91-61.36,42.28
		c-0.42,0.14-0.83,0.42-1.23,0.81c-1.88,6.13-4.24,13.3-6.8,21.14c-5.78,33.18,15.56,72.42,33,140.97
		c40.51,50.1,116.27,25.44,207.74,25.83c104.02,0.45,179.96,11.73,198.57-21.61c21.96-39.34-44.61-104.07-44.83-137.37
		C674.93,580.23,662.18,534.96,669.26,506.09z"/>
	<path class="st3" d="M664.51,401.62c-7.37,24.47-10.23,50.29-8.39,75.78c-4.09-18.9-4.35-25.15-8.44-44.04
		c-0.1-3.28-3.11-20.49-6.07-17.07c-0.2,21.04,1.75,42.13,9.61,61.62c-2.8-3.73-6.13-7.07-9.86-9.87c1.9,1.43,3.48,4.38,4.89,6.3
		c1.87,2.54,3.67,5.15,5.38,7.8c3.67,5.7,6.95,11.65,9.81,17.79c5,10.75,7.93,21.86,11.08,33.2c1.58,5.68,3.02,11.41,4.52,17.11
		c3.02,11.5,6.04,22.99,9.06,34.49c0.97,3.69,1.95,7.43,1.91,11.25c-0.04,3.53-0.94,7-1.15,10.52c-0.42,6.99,2.05,14.11,6.69,19.34
		c4.04,4.55,8.69,4.3,14.11,2.64c5.08-1.56,11.91-3.75,14.94-8.52c4.58-4.19-9.12-28.78-11.22-34.48
		c-14.56-39.64-18.45-39.66-35.87-78.98c-4.04-9.13-9.49-20.2-15.15-28.3C655.95,452.79,671.62,427.06,664.51,401.62z"/>
</g>
<g id="капющон">
	<path class="st2" d="M359.66,322.41c1.32,3.78,2.2,7.94,5.04,10.76c1.73,1.72,4.02,2.74,6.01,4.16c8.32,5.9,10.22,17.2,14.91,26.26
		c4.57,8.81,12.32,15.94,21.48,19.75c7.59,3.16,16.8,4.65,21.24,11.56c0.94,1.46,1.65,3.16,3.07,4.16c1.41,1,3.24,1.11,4.96,1.18
		c23.01,1.03,46.03,2.06,69.04,3.09c1.4,0.06,3.04,0.03,3.9-1.08c0.75-0.95,0.63-2.35,1.28-3.36c0.83-1.28,2.57-1.53,4.09-1.66
		c8.92-0.74,17.85-1.48,26.77-2.22c2.39-0.2,4.89-0.43,6.92-1.72c1.65-1.05,2.82-2.69,3.94-4.3c6.15-8.77,12.29-17.53,18.44-26.3
		c2.84-4.05,5.72-8.15,9.54-11.29c3.86-3.18,8.49-5.23,12.86-7.66c18.27-10.13,31.95-26.7,45.17-42.88
		c4.01-4.91,8.09-9.93,10.32-15.86c2.24-5.93,2.35-13.03-1.3-18.21c-4.95-7.04-14.94-8.35-23.43-7.01c-19.76,3.12-38,16.92-57.79,14
		c-13.9-2.05-25.18-11.98-38.05-17.61c-12.09-5.28-25.47-6.7-38.59-8.04c-22.44-2.31-45.24-4.6-67.45-0.64
		c-12.2,2.18-24.14,6.23-36.52,6.65c-11.61,0.4-23.19-2.35-34.75-0.28c-6.42,1.15-13.44,2.87-18.4,7.39
		c-4.66,4.24-6.26,10.41-6.59,16.5c-0.23,4.28-0.26,8.9,1.76,12.8c2.5,4.84,7.27,6.33,11.83,8.64
		C348.74,303.97,356.19,312.45,359.66,322.41z"/>
	<path class="st0" d="M438.02,401.47l56.01,1.42c0,0,1.67-11.43,10.53-13.89c12.96-3.6,32.72-1.65,44.55-17.4
		c7.82-10.41,21.62-47.77,39.9-49.75s50.21-25.37,64.72-57.58c8.89-19.74-4.65-38.05-14.76-51.89c-3.4-4.65-9.42-4.69-13.32-7.88
		c-3.43-2.8-6.14-9.29-12.67-12.31c-17.52-8.09-49.59-22.41-104.57-22.7c-62.54-0.33-106.08,3.71-128.66,15.08
		c-15.44,7.77-23.88,18.04-31.58,35.35c-3.57,8.02-13.16,6.39-16.85,29.02c-3.58,21.93,15.72,48.18,43.04,68.89
		c14.35,10.88,12.33,46.54,25.71,56.46c9.2,6.82,23.01,6.9,31.21,13.31C434.99,390.51,437.56,394.72,438.02,401.47z"/>
	<path class="st2" d="M442.79,383.33c0.9,1.74,1.87,3.53,3.46,4.67c1.99,1.43,4.59,1.6,7.04,1.71c3.87,0.18,7.74,0.36,11.61,0.54
		c1.71,0.08,3.51,0.14,5.01-0.69c1.37-0.75,2.26-2.13,3.09-3.45c8.31-13.13,16.62-26.27,24.93-39.4
		c4.67-7.38,9.37-14.83,12.37-23.03c1.89-5.18,3.09-10.65,5.72-15.5c4.47-8.26,12.52-13.82,19.98-19.51
		c21.95-16.73,41.01-36.9,59.95-56.97c5.3-5.62,11.02-12.99,8.42-20.26c-1.32-3.7-4.6-6.37-8.06-8.22
		c-4.56-2.43-9.69-3.77-14.86-3.88c-5.42-0.11-10.78,1.11-16.19,1.35c-7.4,0.33-14.74-1.16-22.06-2.27
		c-37.99-5.76-76.7-1.43-114.88,2.9c-10.34,1.18-20.69,2.35-31.03,3.53c-6.7,0.76-14.1,1.88-18.4,7.07
		c-3.65,4.39-3.84,10.34-2.79,15.71c0.56,2.83,1.69,5.5,2.26,8.32c0.46,2.3,0.97,3.94,2.27,5.96c6.79,10.47-1.36,16.93,3.84,28.27
		c5.2,11.33,9.87,24.49,14.23,36.16c4.41,11.79,22.62,26.53,27.14,38.28c4.51,11.71,9.31,23.33,14.87,34.58
		C441.39,380.58,442.08,381.96,442.79,383.33z"/>
	<ellipse class="st3" cx="438.69" cy="407.02" rx="4.37" ry="9.64"/>
	<ellipse class="st3" cx="492.43" cy="407.02" rx="4.37" ry="9.64"/>
	<g>
		<path class="st3" d="M439.35,407.94c-5.44,8.54-1.72,18.83,0.42,27.8c1.26,5.29,1.88,10.43,1.1,15.85
			c-0.83,5.75-2.42,11.38-2.61,17.21c-0.19,6.04,0.81,12.02,1.4,18.01c0.59,6,0.86,12.03,0.8,18.06
			c-0.06,5.98-0.46,11.94-1.14,17.87c-0.62,5.36-1.39,10.7-1.57,16.1c-0.19,5.91,0.38,11.93,2.71,17.42
			c0.56,1.31,1.28,2.54,1.88,3.83c0.53,1.14,1.05,2.59,0.26,3.74c-0.54,0.78-0.75,0.6-1.22,0.12c-0.23-0.23-0.03-0.17-0.05-0.3
			c0.03,0.37-0.28,0.07,0.04,0.17c0.43,0.14,0.94,0,1.17,0.56c0.48-0.63,0.96-1.27,1.45-1.9c-0.87,0.06-1.31-1.75-0.51-1.99
			c1.84-0.55,1.06-3.45-0.8-2.89c-4.04,1.22-2.99,8.19,1.3,7.88c0.85-0.06,1.85-0.93,1.45-1.9c-0.89-2.14-3.47-3.59-5.69-2.32
			c-1.9,1.08-1.69,3.69-0.3,5.1c1.69,1.72,4.26,1.07,5.57-0.76c1.66-2.32,0.91-5.07-0.27-7.41c-1.3-2.57-2.42-5.08-3.08-7.9
			c-0.68-2.91-0.93-5.88-0.95-8.86c-0.04-5.97,0.81-11.91,1.51-17.83c1.59-13.38,1.61-26.82,0.08-40.2
			c-0.76-6.63-1.56-13.25-0.54-19.89c0.97-6.28,2.81-12.51,2.48-18.92c-0.32-6.19-2.33-12.13-3.66-18.14
			c-1.28-5.73-1.94-11.83,1.36-17.01C442.98,407.82,440.39,406.31,439.35,407.94L439.35,407.94z"/>
	</g>
	<g>
		<path class="st3" d="M489.86,409.51c1.96,20.47,3.92,40.99,4.08,61.57c0.04,5.05-0.03,10.11-0.24,15.16
			c-0.21,5.03-0.61,10.06-0.74,15.09c-0.12,4.96,0.06,9.94,0.99,14.82c0.84,4.45,2.75,9.21,1.44,13.75
			c-0.74,2.54-2.26,4.74-2.72,7.38c-0.45,2.61-0.23,5.21,0.14,7.82c0.79,5.58,1.75,11.14,2.62,16.71c0.48-0.63,0.96-1.27,1.45-1.9
			c-1.14-0.04-1.48-2.47-0.38-2.82c1.83-0.58,1.05-3.48-0.8-2.89c-4.36,1.38-3.39,8.55,1.18,8.71c1.07,0.04,1.59-0.98,1.45-1.9
			c-0.78-4.97-1.57-9.94-2.35-14.9c-0.36-2.27-0.7-4.56-0.55-6.87c0.16-2.43,1.22-4.47,2.15-6.68c1.86-4.4,1.15-8.86,0.1-13.37
			c-1.13-4.88-1.74-9.7-1.76-14.71c-0.02-4.93,0.35-9.86,0.61-14.78c0.27-5.13,0.4-10.26,0.41-15.39
			c0.02-10.2-0.43-20.39-1.12-30.57c-0.78-11.43-1.87-22.83-2.96-34.24C492.68,407.6,489.68,407.59,489.86,409.51L489.86,409.51z"/>
	</g>
</g>
<g id="шея">
	<path class="st4" d="M410.77,253.69c-3.73,7,23.06,45.75,26.9,62.23c3.84,16.48,9.15,64.87,19.58,64.93
		c10.44,0.05,29.15-62.38,33.99-71.44c4.84-9.07,32.45-58.68,24.75-67.31C508.31,233.46,418.03,240.09,410.77,253.69z"/>
</g>
<g id="волосы_сзади">
	<path class="st5" d="M562.51,261.76c-3.99-7.52-10.43-24.42-14.15-34.51c2.38-4.66,4.29-9.95,5.45-15.95
		c5.36-27.87-2.97-39.82-2.97-39.82s25.19-8.23,9.49-29.79c0,0,15.48-25.55-4.51-39.35c-19.99-13.8-32.29,2.67-32.29,2.67
		s-3.78-6.22-17.58-4.56c-14.19,1.7-16.02,15.07-16.02,15.07s-80.23-9.92-94.79,42.7c0,0-0.01-0.01-0.01-0.01
		s-22.77,35.5-30.58,46.82c-15.17,21.99-45.16,38.09-46.51,49.96c-1.35,11.87,0.73,18.01,6.47,23.8c5.74,5.8,22.3,4.19,25.45,0.71
		c2.56-2.82,32.01-59.76,43.14-92.21c5.22,48.82,54.25,80.07,119.66,70.74c0,0,0.23-0.07,0.61-0.21c7.8,29.14,20.68,61.41,22.07,64
		c1.94,3.62,11.1,3.88,18.83,0.52c7.73-3.35,4.53-16.17,4.53-16.17s8.54,4.31,15.27,0.43c6.73-3.89,6.89-9.49,7.03-14.58
		S568.39,272.83,562.51,261.76z"/>
	<path class="st6" d="M523.23,136.74c5.41-0.01,11,1.05,15.43,4.15c4.43,3.11,7.46,8.57,6.61,13.91c-0.32,2.01-0.89,4.63,0.89,5.62
		c1.4,0.77,4.12,0.65,3.7,2.2c-0.36-1.76,2.43-2.8,2.42-4.6c0-0.76-0.52-1.4-0.83-2.09c-1.86-4.03,3.11-8.3,2.61-12.72
		c-0.35-3.07-3.17-5.14-5.21-7.46c-3.69-4.2-5.15-10.25-3.78-15.67c0.27-1.06,0.64-2.15,0.48-3.23c-0.48-3.11-5.17-3.79-7.55-1.74
		c-2.39,2.05-3.01,5.44-3.49,8.55c-1.2-0.06-2.4-0.13-3.61-0.19c-1.97-3.72-4.36-7.22-7.11-10.41c-0.41-0.48-0.9-0.99-1.53-1.04
		c-0.73-0.06-1.04,0.58-0.92,1.14c1.91-3.99-4.72-3.7-6.62-3.16c-2.44,0.7-6.48,1.84-5.84,5.1c0.58,2.97,3.95,4.64,6.29,5.96
		c2.77,1.56,5.14,3.67,6.72,6.46C522.3,128.25,525.06,136.74,523.23,136.74z"/>
	<path class="st7" d="M551.71,197.52c-1.29,3.73-3.75,7.05-6.93,9.38c2.06-8.78,2.29-17.98,0.66-26.85c-0.83,3.25-2.32,6.33-4.36,9
		c0.17-8.96-1.5-17.95-4.88-26.26c-1.84,10.06-4.7,19.93-8.51,29.42c-0.43,1.06-1.32,2.35-2.4,1.95c-0.19-1.64-0.38-3.28-0.57-4.92
		c-0.99,6.44-2.44,12.82-4.32,19.06c3.34,1.45,6.96-2.73,10.49-1.82c2.74,0.71,3.77,3.96,4.68,6.64c0.78,2.29,2.64,5.53,5.49,5.17
		c2.38-0.3,4.27-3.41,5.4-5.3C549.12,208.53,551,202.58,551.71,197.52z"/>
	<path class="st6" d="M347.62,248.38c0.29,2.23,0.57,4.47,0.86,6.7c4.02-0.91,7.77-3.01,10.65-5.98c1.79-1.84,3.23-3.99,4.66-6.12
		c3.36-5.01,6.72-10.02,10.08-15.03c-1.57-1.6-4.33-1.29-6.19-0.04c-1.85,1.26-3.08,3.22-4.48,4.97c-2.55,3.19-5.81,5.81-9.48,7.61
		c-2.01,0.98-4.18,1.76-5.8,3.29s-2.51,4.17-1.28,6.03"/>
	<path class="st6" d="M522.31,277.52c0.61,1.12,1.88,1.87,2.14,3.12c0.23,1.13-0.46,2.23-0.58,3.37c-0.19,1.79,1.01,3.39,1.94,4.93
		c2.64,4.42,3.27,9.71,4.21,14.77c0.94,5.06,2.42,10.36,6.2,13.86c3.78,3.5,10.52,4.23,13.78,0.24c0.31-0.38,0.59-0.82,0.58-1.31
		c-0.02-1.08-1.29-1.57-2.25-2.07c-3.41-1.78-4.18-7.13-1.41-9.8c-2.88-0.85-4.73-3.59-6.23-6.2c-3.69-6.44-6.71-13.27-9-20.33
		c-0.66-2.05-1.39-4.29-3.22-5.43C526.06,271.17,520.85,274.83,522.31,277.52z"/>
	<path class="st6" d="M542.07,272.3c0.67,1.2,2.07,1.82,2.88,2.93c1.32,1.83,0.7,4.38,1.2,6.58c0.5,2.19,2.1,3.94,3.39,5.77
		c2.71,3.84,4.31,8.45,7.46,11.95c3.15,3.49,8.86,5.5,12.53,2.55c0.7-0.56,1.3-1.33,1.37-2.23c0.12-1.57-1.34-2.73-2.54-3.74
		c-3.94-3.34-6.47-8.3-6.87-13.45c-2.69,0.17-4.79-2.2-6.35-4.39c-1.91-2.68-3.71-5.45-5.39-8.28c-1.65-2.78-2.89-6-4.71-8.63
		c-3.1,0.54-1.89,2.4-2.43,4.81C542.2,268.02,540.89,270.48,542.07,272.3z"/>
</g>
<g id="тено_лицо">
	<g>
		<path class="st5" d="M409.28,369.46c-31.83-6.81-37.19-28.61-41.84-57.44c-0.1-0.6,1-10.37,1.03-9.76
			c1.49,33.62,7.26,50.51,37.82,58.05c32.25,7.98,58.38-17.86,77.3-41.1c0.38-0.47,7.92-3.56,8.49-3.33
			c0.56,0.22-1.27,7.64-1.49,8.2c0,0-9.05,22.23-28.73,36.02C449.6,368.67,426.64,373.17,409.28,369.46z"/>
	</g>
</g>
<g id="рукав">
	<g>
		<path class="st2" d="M235.37,455.65c7.12,5.33,14.25,10.66,21.37,15.99c-9.5,0.81-19.06-0.43-28.6-0.16
			c-9.53,0.28-19.52,2.32-26.66,8.65c16.29,1.3,32.71,1.01,48.94-0.84c1.15,1.61-0.9,3.56-2.69,4.4
			c-12.62,5.9-26.81,7.27-40.32,10.68c-13.51,3.41-27.41,9.74-34.24,21.89c24.78-1.29,48.82-13.44,73.4-10.09
			c6.93,0.95,13.63,3.11,20.52,4.29c7.8,1.34,15.81,1.41,23.63,0.22c7-1.07,15.05-4.08,15.55-12.29c0.34-5.66-5.77-9.78-9.35-13.47
			c-10.31-10.67-23.13-18.9-37.08-23.93C251.97,458.15,243.72,456.32,235.37,455.65z"/>
		<path class="st2" d="M294.52,507.63c-13.54-13.51-6.66,35.43-8.91,16.43c-1.78-14.99,2.3-30.47-1.3-45.13
			c-1.27-5.18-2.38-12.56,2.72-14.12c-10.27-19.16-14.91-41.3-13.2-62.98c0.27-3.37,0.8-6.98,3.14-9.42
			c2.34-2.44,7.08-2.73,8.7,0.24c-0.92-11.23-0.9-22.53,0.08-33.75c0.28-3.21,2.52-7.55,5.39-6.07c1.1,0.57,1.61,1.83,2.02,3
			c12.19,35.25,12.13,63.66,18.77,99.82C311.92,455.65,296.26,509.37,294.52,507.63z"/>
		<path class="st0" d="M154.5,689.23c22.03,23.94,93.63,52.69,140.33,22.1c46.7-30.59,33.46-46.95,38.39-60.85
			s10.7-39.94,10.44-59.09c-0.25-19.15-26.17-81.51-45.1-94.74s-44.69-9.34-57.15,2.15c-14.23,13.12-33.53-7.88-62.79,11.53
			c-23.18,15.38-42.2,34.6-45.83,58.55C129.16,592.83,105.02,635.47,154.5,689.23z"/>
		<path class="st3" d="M260.56,580.15c-1.37,13.56,16.53,39.9,26.96,48.68c7.25,6.1,23.34,14.87,28.21,5.32
			c12.37-17.28,3.56-40.11-2.64-60.44c-5.92-19.4-13.99-38.11-23.4-56.08c-1.74-3.32-3.76-6.85-7.18-8.38
			c-9.96-4.46-19.93,9.05-20.09,15.2c-0.25,9.18-4.72,18.34-4.1,27.46C258.66,557,261.01,575.65,260.56,580.15z"/>
		<path class="st2" d="M229.84,545.43c-3.23,11.6-5.94,24.19-1.66,35.45c5.72,15.05,22.54,23.96,27.42,39.3
			c1.55,4.87,1.77,10.07,3.22,14.96c1.45,4.89,4.62,9.78,9.55,11.12c-9.15,4.85-21.09,9.49-29.03,2.84
			c-8.67-7.27-4.76-21.19-7.53-32.16c-2.56-10.12-10.99-17.66-15.33-27.16c-5.46-11.98-3.87-26.22,1.26-38.35
			c3.62-8.55,8.86-16.29,14.47-23.64c0.83-1.09,7-9.91,7.98-7.98c0.4,0.79-2.27,4.2-2.72,5.04c-1.09,2.03-2.05,4.13-2.92,6.26
			C232.66,535.76,231.19,540.59,229.84,545.43z"/>
		<path class="st3" d="M329.9,649.43c-6.46,8.33-15.19,9.64-25.73,9.55c-6.12-0.05-12.24-0.37-18.34-0.94
			c-5.69-0.54-11.53-1.29-17.02,0.29c-5.49,1.58-10.58,6.21-10.63,11.92c-0.05,4.76,3.41,8.98,7.57,11.31
			c5.9,3.3,13.13,3.5,19.72,1.97c6.58-1.53,12.67-4.64,18.68-7.73c6.3-3.24,12.6-6.47,18.9-9.71c1.65-0.85,3.33-1.71,4.72-2.94
			c2.28-2.02,3.63-4.87,4.74-7.71c1.27-3.22,2.5-4.23,3.3-7.6c0.53-2.21,5.86-20.41,4.92-23.66
			C340.33,627.87,332.16,646.51,329.9,649.43z"/>
		<path class="st3" d="M305.27,419.48c-3.01,15.74,2.74,32.43-1.67,47.83c-0.16-8.28-2-16.52-5.38-24.08
			c-4.38,12.17,6.01,25.27,4.01,38.05c-1.17,7.48-6.36,13.56-10.79,19.7c-2.65,3.68-0.79,5.64,3.07,6.63c2.66,0.68,4.53,0.44,6-2.01
			c3.45-5.74,5.65-12.79,7.45-19.2c3.92-13.94,5.01-28.67,3.2-43.04C310.15,435.22,308.18,427.18,305.27,419.48z"/>
	</g>
</g>
<g id="рукав_1_">
	<g>
		<path class="st3" d="M662.85,502.88c23.79-7.22,48.78,3.58,73.16,8.48c40.81,8.2,68.61-10.94,106.61,6.03
			c3.68,1.64,7.91,4.95,6.59,8.76c-5.96,0.58-11.92,1.15-17.89,1.73c6.09,3.66,12.18,7.32,18.27,10.98
			c5.17,3.11,11.04,9.49,7.14,14.11c-1.51,1.8-4,2.36-6.31,2.79C791.83,566.64,746,567.2,694.1,537.88
			c-10.81-6.11-21.44-13.11-33.56-15.83c-10-2.24-20.4-1.42-30.62-0.63c-5.5,0.42-13.14-1.03-13.05-6.54
			c0.11-7.02,9.55-4.23,13.37-3.6c7.16,1.18,14.28-1.47,20.84-4.03C654.98,505.73,658.84,504.1,662.85,502.88z"/>
		<path class="st3" d="M695.85,673.97c-10.5-3.17-20.99-7.05-31.87-6.35c-9.71,0.62-39.94-7.76-45.04-12.91
			c-7.61-7.68-17.25-12.89-27.3-16.66c-5.13-1.93-10.38-3.5-15.67-4.92c-3.18-0.85-10.76-4.04-13.51-0.9
			c-3.02,3.45,1.48,11.66,3.55,14.63c3.93,5.65,9.63,9.79,15.22,13.81c23.92,17.21,32.29,38.13,56.21,55.33
			c8.7,6.26,32.99,8.77,42.14,14.36c3.33,2.04,6.38,4.24,10.16,5.01c0.02,0,31.22,10.9,31.24,10.9
			C737.44,699.79,695.79,694.5,695.85,673.97z"/>
		<path class="st0" d="M951.03,638c8.01,32.79-25.31,91.11-78.5,110.54c-53.19,19.44-64.87,10.2-79.69,5.68
			c-14.82-4.52-44.72-8.27-61.09-20.26c-16.38-11.99-44.85-35.54-57.08-39.46s-24.01-12.12-29.4-24.3
			c-5.39-12.19-18.62,0.07-36.67-11.76c-18.05-11.83-22.95-54.55-23.5-78.2s4.22-70.57,24.24-74.21
			c20.02-3.64,29.53,7.31,36.24,6.68c6.71-0.64,32.61-13.25,51.86-6.61c19.25,6.64,70.47,28.88,87.12,34.92s40.06-12,62.81-0.23
			C870.11,552.54,933.04,564.35,951.03,638z"/>
		<path class="st2" d="M871.16,546.81c37.02,19.03,73.19,50.89,77.78,94.44c-12.71-15.29-24.36-31.46-34.84-48.35
			c3.79,13.58,15.34,24.53,16.78,38.56c0.03,17.58-3.81,35.08-5.35,52.6c-10.38-21.39-17.58-44.32-21.29-67.81
			c1.39,5.1,1.41,10.56,0.06,15.67c-60.32-51.63,3.76-49.42-87.24-87.84C838.43,542.93,848.98,532.86,871.16,546.81z"/>
		<path class="st3" d="M607.81,525.19c-2.01,3.43-2.43,7.53-2.8,11.49c-1.16,12.4,1.26,20.63,0.1,33.03
			c-1.6,17.05-3.18,34.4,0.27,51.17c1.67,8.11,4.88,16.5,11.66,21.26c4.19,2.94,9.64,4.2,14.58,2.86
			c4.94-1.34,9.16-5.44,10.14-10.46c1.04-5.32-1.42-10.62-3.37-15.68c-5.95-15.44-7.47-32.56-4.35-48.81
			c0.92-4.81,2.25-9.7,1.42-14.53c-0.42-2.41-1.36-4.7-2.3-6.96c-3.33-8.06-10.25-11.95-13.58-20.01c-0.88-2.12-1.78-6.74-4.04-7.91
			C612.69,519.17,609.07,523.04,607.81,525.19z"/>
		<path class="st2" d="M668.38,562.28c-0.53,4.47-1.66,9.09-0.27,13.37c0.77,2.38,2.31,4.61,2.17,7.11
			c-0.15,2.6-2.07,4.69-3.43,6.91c-5.41,8.85-2.03,20.2,1.17,30.07s5.74,21.71-0.78,29.78c-1.52,1.88-3.53,3.56-4.04,5.92
			c-0.92,4.34,3.51,7.68,6.86,10.59c5.71,4.96,12.13,12.58,19.06,9.54c5.31-2.33,6.21-9.59,4.92-15.24c-1.29-5.66-3.96-11.3-2.88-17
			c1.03-5.45,5.26-9.65,7.76-14.6c5.47-10.84,2.14-23.85-1.29-35.49c-5.57-18.92-11.13-37.84-16.7-56.76
			c-1.31-4.46-2.95-9.66-7.64-11.61c-2.87-1.2-6.01-0.59-8.03,1.83c-2.01,2.41-2.24,5.65-1.28,8.53c1.41,4.22,3.16,8.1,3.95,12.54
			C668.79,552.53,668.95,557.44,668.38,562.28z"/>
		<path class="st3" d="M866.65,544.35c11.28,5.43,23.14,9.76,33.77,16.38c10.63,6.62,20.19,16.02,23.75,28.02
			c-11.33-10.45-22.66-20.9-33.98-31.35c9.74,16.9,18.71,34.24,26.88,51.95c-21.37-16.63-26.94-49.64-51.01-62.04
			c-9.39-4.84-20.27-5.98-29.53-11.09c-1.74-0.96-5-2.55-5.99-4.37c-1.08-1.97,1.71-2.07,3.16-1.82c5.41,0.95,10.79,3.46,15.74,5.76
			C855.24,538.5,860.87,541.57,866.65,544.35z"/>
	</g>
</g>
<g id="рука_1_">
	<g>
		<path class="st4" d="M319.79,623.6c16.99,1.39,35.13,0.92,49.58-8.12c4.73-2.96,9.31-7.75,8.57-13.27
			c-0.48-3.57-3.18-6.53-6.35-8.23c-3.17-1.7-6.79-2.34-10.35-2.88c-16.39-2.49-33-3.49-49.56-2.99
			c-8.03,0.24-16.99,1.29-22.15,7.45c-2.29,2.73-3.42,6.31-3.4,9.85c0.02,2.61,0.3,5.84,1.91,8.02c1.64,2.22,4.59,3.51,7,4.66
			c3.57,1.7,7.39,2.86,11.25,3.68C310.74,622.71,315.27,623.23,319.79,623.6z"/>
		<path class="st5" d="M375.26,501.47c3.73-2.75,7.46-5.73,8.12-8.25c0.26-0.98,0-1.86-1.09-2.31s-3.09-0.4-5.11,0.28
			c-1.12,0.38-2.16,0.91-3.16,1.44c-6.97,3.72-13.33,8-17.13,12.25c-1.52,1.71-3.6,4.11-1.54,4.86c1.71,0.63,5.23-0.16,8.03-1.2
			C368.17,506.77,371.96,503.89,375.26,501.47z"/>
		<path class="st4" d="M355.5,582.86c18.6,0.16,38.16-23.25,15.24-33.75c-20.59-4.76-59.43-4.66-67.79,11.45
			C289.54,586.37,330.6,589.78,355.5,582.86z"/>
		<path class="st4" d="M355.5,600.77c18.6,0.16,38.16-23.25,15.24-33.75c-20.59-4.76-59.43-4.66-67.79,11.45
			C289.54,604.28,330.6,607.69,355.5,600.77z"/>
		<path class="st4" d="M352.99,558.66c18.03,4.59,42.87-17.75,23.12-33.4c-18.87-9.52-79.49-15.2-91.45-1.55
			C265.48,545.58,327.15,559.46,352.99,558.66z"/>
		<path class="st4" d="M291,615.99c0,0-21.76-11.95-25.94-41.91c-4.9-35.02,5.66-50.42,19.71-60.28
			c17.08-11.98,24.07-9.11,54.62-7.87c11.75,0.48,5.94,0.01,18.92-3.43c11.28-2.99,19.24-12.1,22.71-6.72
			c6.55,10.15-1.01,26.26-16.08,31.7l-37.55,31.9L291,615.99z"/>
		<path class="st8" d="M362.18,525.16c-11.06-2.15-22.11-4.29-33.17-6.44c-4.81-0.93-9.73-1.91-13.96-4.38
			c-0.83-0.48-1.71-1.16-1.78-2.11c-0.13-1.78,2.35-2.35,4.14-2.26c16,0.76,32.21,1.55,47.46,6.44c5.75,1.84,11.58,4.45,15.23,9.26
			c1.56,2.05,2.55,4.55,2.87,7.1c0.14,1.09,0.69,5.34-1.37,4.41c-1.88-0.86-2.83-3.64-4.06-5.14c-1.73-2.1-4.04-3.56-6.55-4.57
			C368.17,526.33,365.16,525.74,362.18,525.16z"/>
		<path class="st8" d="M321.64,554.83c-1.87-0.16-3.82-0.37-5.37-1.43c-1.55-1.06-2.48-3.26-1.53-4.87
			c16.16-4.95,33.64,3.48,50.36,1c2.17-0.32,4.38-0.84,6.58-0.58c1.41,0.17,4.21,1.01,4.4,2.79c0.3,2.81-6.36,3.01-8.01,3.15
			c-9.87,0.83-19.79,1.12-29.7,0.87C332.8,555.62,327.21,555.31,321.64,554.83z"/>
		<path class="st8" d="M314.42,581.43c-0.83-0.25-1.72-0.57-2.2-1.29c-0.78-1.19,0.04-2.9,1.3-3.57c1.26-0.67,2.77-0.59,4.2-0.52
			c9.33,0.49,18.71,0.22,28-0.8c7-0.77,13.95-1.96,20.98-2.37c1.75-0.1,3.51-0.16,5.26-0.14c0.93,0.01,3.28-0.36,3.92,0.59
			c1.07,1.59-2.09,3.89-3.19,4.45c-5.57,2.84-12.06,4.52-18.17,5.69c-6.27,1.2-12.67,1.7-19.05,1.47
			C328.35,584.67,321.25,583.51,314.42,581.43z"/>
		<path class="st8" d="M316.28,605.41c-1.66-0.17-3.42-0.4-4.71-1.46c-1.29-1.06-1.8-3.23-0.61-4.39c0.86-0.84,2.21-0.84,3.41-0.81
			c16.81,0.51,33.66-0.37,50.33-2.64c1.8-0.24,4.31-0.68,5.87,0.55c1.49,1.16-0.25,2.37-1.39,2.93c-3.69,1.79-8.27,2.54-12.25,3.42
			c-8.51,1.87-17.2,2.88-25.91,3.02C326.11,606.1,321.18,605.9,316.28,605.41z"/>
		<path class="st8" d="M295.06,538.53c-1.59-2.43-2.26-5.38-2.26-8.28c0-1.1,0.08-2.23-0.24-3.29c-0.32-1.06-1.18-2.05-2.28-2.12
			c-1.72-0.12-2.76,1.84-3.21,3.5c-0.66,2.44-1.04,5.02-0.6,7.51c0.44,2.49,1.79,4.91,3.96,6.21c1.48,0.89,3.19,1.19,4.89,1.27
			c1.48,0.07,3.51,0.28,4.92-0.12c-0.33-0.89-1.83-1.34-2.56-1.89C296.65,540.55,295.76,539.6,295.06,538.53z"/>
		<path class="st8" d="M289.36,594.84c-3.5,6.37-2.62,14.88,2.12,20.4c-3.79,0.21-6.9-3.03-8.66-6.39
			c-1.88-3.58-2.86-7.97-1.18-11.66c1.27-2.78,6.62-6.43,9.5-3.69C290.4,593.76,289.77,594.1,289.36,594.84z"/>
		<path class="st8" d="M295.14,568.82c-4.42-3.28-2.65-9.21-5.57-13.88c-4.07,4.1-4.24,11.43-0.36,15.71
			c1.13,1.25,2.76,2.29,4.41,1.96C295.27,572.29,296.38,569.96,295.14,568.82z"/>
	</g>
</g>
<g id="рука">
	<g>
		<path class="st4" d="M617.2,538.27c4.24,0.99,8.52,2,12.39,3.99c6.4,3.3,11.25,9.16,14.3,15.69c3.05,6.53,4.41,13.73,5.08,20.9
			c1.34,14.38-0.02,28.86-1.37,43.24c-0.18,1.92-0.39,3.92-1.48,5.51c-1.36,1.98-3.89,2.91-6.29,2.92c-2.4,0.01-4.73-0.78-6.99-1.62
			c-5.21-1.94-10.44-4.26-16-4.41c-3.13-0.08-6.41,0.52-9.31-0.68c-4.6-1.91-6.33-7.41-7.47-12.26
			c-5.18-22.06-9.44-44.34-12.78-66.75c-0.41-2.73-0.78-5.52-0.46-8.29c0.18-1.59,0.54-4.77,2.72-4.67
			c1.36,0.06,2.83,0.63,4.16,0.94c1.5,0.35,3,0.7,4.5,1.05c2.97,0.69,5.94,1.39,8.91,2.08C610.46,536.7,613.83,537.49,617.2,538.27z
			"/>
		<path class="st4" d="M556.75,660.71c-16.99,1.39-35.13,0.92-49.58-8.12c-4.73-2.96-9.31-7.75-8.57-13.27
			c0.48-3.57,3.18-6.53,6.35-8.23c3.17-1.7,6.79-2.34,10.35-2.88c16.39-2.49,33-3.49,49.56-2.99c8.03,0.24,16.99,1.29,22.15,7.45
			c2.29,2.73,3.42,6.31,3.4,9.85c-0.02,2.61-0.3,5.84-1.91,8.02c-1.64,2.22-4.59,3.51-7,4.66c-3.57,1.7-7.39,2.86-11.25,3.68
			C565.8,659.82,561.27,660.34,556.75,660.71z"/>
		<path class="st5" d="M473.66,556.88c-4.63-0.09-9.4-0.37-11.4-2.04c-0.77-0.65-1.07-1.52-0.45-2.51c0.62-0.99,2.29-2.11,4.34-2.72
			c1.13-0.34,2.29-0.5,3.41-0.64c7.84-0.99,15.5-1.17,21.06,0.11c2.23,0.51,5.31,1.27,4.06,3.08c-1.03,1.5-4.36,2.89-7.25,3.66
			C482.5,557.12,477.75,556.96,473.66,556.88z"/>
		<path class="st4" d="M521.03,619.97c-18.6,0.16-38.16-23.25-15.24-33.75c20.59-4.76,59.43-4.66,67.79,11.45
			C586.99,623.48,545.94,626.89,521.03,619.97z"/>
		<path class="st4" d="M521.03,637.88c-18.6,0.16-38.16-23.25-15.24-33.75c20.59-4.76,59.43-4.66,67.79,11.45
			C586.99,641.39,545.94,644.8,521.03,637.88z"/>
		<path class="st4" d="M523.55,595.77c-18.03,4.59-42.6-13.49-22.84-29.15c18.87-9.52,79.22-19.46,91.18-5.81
			C611.06,582.69,549.39,596.57,523.55,595.77z"/>
		<path class="st4" d="M585.54,653.1c0,0,31.57-17.12,38.1-46.65c7.31-33.04-0.24-47.75-10.53-61.49
			c-11.84-15.81-38.38-20.93-68.66-16.77s-34.81,14.19-45.94,17.69c-11.13,3.5-30.67,0.39-31.93,6.67
			c-1.26,6.28,2.51,22.23,28.84,22.77l53.75,21.19L585.54,653.1z"/>
		<path class="st8" d="M511.9,557.97c11.06-2.15,22.11-4.29,33.17-6.44c4.81-0.93,9.73-1.91,13.96-4.38
			c0.83-0.48,1.71-1.16,1.78-2.11c0.13-1.78-2.35-2.35-4.14-2.26c-16,0.76-32.21,1.55-47.46,6.44c-5.75,1.84-11.58,4.45-15.23,9.26
			c-1.56,2.05-2.55,4.55-2.87,7.1c-0.14,1.09-0.69,5.34,1.37,4.41c1.88-0.86,2.83-3.64,4.06-5.14c1.73-2.1,4.04-3.56,6.55-4.57
			C505.91,559.14,508.92,558.55,511.9,557.97z"/>
		<path class="st8" d="M554.9,591.94c1.87-0.16,3.82-0.37,5.37-1.43c1.55-1.06,2.48-3.26,1.53-4.87c-16.16-4.95-33.64,3.48-50.36,1
			c-2.17-0.32-4.38-0.84-6.58-0.58c-1.41,0.17-4.21,1.01-4.4,2.79c-0.3,2.81,6.36,3.01,8.01,3.15c9.87,0.83,19.79,1.12,29.7,0.87
			C543.74,592.73,549.33,592.42,554.9,591.94z"/>
		<path class="st8" d="M564.21,615.2c0.83-0.25,1.72-0.57,2.2-1.29c0.78-1.19-0.04-2.9-1.3-3.57s-2.77-0.59-4.2-0.52
			c-9.33,0.49-18.71,0.22-28-0.8c-7-0.77-13.95-1.96-20.98-2.37c-1.75-0.1-3.51-0.16-5.26-0.14c-0.93,0.01-3.28-0.36-3.92,0.59
			c-1.07,1.59,2.09,3.89,3.19,4.45c5.57,2.84,12.06,4.52,18.17,5.69c6.27,1.2,12.67,1.7,19.05,1.47
			C550.29,618.45,557.39,617.29,564.21,615.2z"/>
		<path class="st8" d="M562.43,640.45c1.66-0.17,3.42-0.4,4.71-1.46c1.29-1.06,1.8-3.23,0.61-4.39c-0.86-0.84-2.21-0.84-3.41-0.81
			c-16.81,0.51-33.66-0.37-50.33-2.64c-1.8-0.24-4.31-0.68-5.87,0.55c-1.49,1.16,0.25,2.37,1.39,2.93
			c3.69,1.79,8.27,2.54,12.25,3.42c8.51,1.87,17.2,2.88,25.91,3.02C552.6,641.14,557.53,640.93,562.43,640.45z"/>
		<path class="st8" d="M581.48,575.64c1.59-2.43,2.26-5.38,2.26-8.28c0-1.1-0.08-2.23,0.24-3.29c0.32-1.06,1.18-2.05,2.28-2.12
			c1.72-0.12,2.76,1.84,3.21,3.5c0.66,2.44,1.04,5.02,0.6,7.51c-0.44,2.49-1.79,4.91-3.96,6.21c-1.48,0.89-3.19,1.19-4.89,1.27
			c-1.48,0.07-3.51,0.28-4.92-0.12c0.33-0.89,1.83-1.34,2.56-1.89C579.89,577.66,580.78,576.71,581.48,575.64z"/>
		<path class="st8" d="M587.18,631.95c3.5,6.37,2.62,14.88-2.12,20.4c3.79,0.21,6.9-3.03,8.66-6.39c1.88-3.58,2.86-7.97,1.18-11.66
			c-1.27-2.78-6.62-6.43-9.5-3.69C586.14,630.87,586.77,631.21,587.18,631.95z"/>
		<path class="st8" d="M581.06,607.14c4.42-3.28,2.99-10.41,5.91-15.08c4.07,4.1,4.24,11.43,0.36,15.71
			c-1.13,1.25-2.76,2.29-4.41,1.96s-2.76-2.65-1.52-3.79"/>
	</g>
	<path class="st0" d="M644.41,635.51c0,0-11.09-35.12-9.56-51.77c1.53-16.64-11.7-59.37-11.7-59.37l28.24,9.96l13.83,68.9
		l-6.34,38.96L644.41,635.51z"/>
</g>
<g id="Layer_32">
</g>
<g id="лицо">
	<path class="st4" d="M371.78,244.01c0,0-10.11,31.1-9.11,53.53c0.66,14.85,2.47,58.23,42.11,66.67
		c35.17,7.49,68.9-14.39,80.59-46.01c6.28-17.01,8.62-44.06,8.62-44.06s45.73-7.35,43.45-41.9c-1.81-27.3-35.2-16.26-35.2-16.26
		s7.63-54.57-45.83-64.97c-47.77-9.3-65.03,39.98-65.03,39.98s-18.87-23.59-34.87-10.14C338.56,195.93,346.95,229.13,371.78,244.01z
		"/>
	<path class="st5" d="M514.94,234.28c-5.23,1.96-10.92,6.82-16.66,18.04c-0.01,0.01-0.01,0.02-0.02,0.03
		c-0.02,0.03-0.02,0.06-0.04,0.09c-0.6,1.17-1.18,2.39-1.75,3.71c-0.24,0.55,0.02,1.2,0.58,1.43c0.07,0.03,0.13,0.05,0.2,0.06
		c0.5,0.11,1.02-0.15,1.23-0.64c0.53-1.24,1.08-2.4,1.64-3.51c6.71-9.53,17.2-3.9,17.51-4.42c0.32-0.51-5.1-6.96-11.74-3.48
		c10.36-14.37,22.71-10.63,22.83-11.21C528.85,233.79,521.3,231.9,514.94,234.28z"/>
	<path class="st5" d="M378.54,223.31c3.57-25.36-20.32-29.43-20.45-28.84c-0.13,0.59,13.87,3.44,17.45,20.79
		c-6.5-8.1-14.86-3.02-14.78-2.42c0.08,0.6,13.38-0.72,15.62,10.78c0.4,2.65,0.42,4.85,0.92,4.96
		C377.37,228.59,377.86,228.19,378.54,223.31z"/>
</g>
<g id="рот_3_">
	<path class="st8" d="M390.2,305.71c0,0,0.79,0.93,13.24-0.17c4.13-0.36,10.07,7.11,13.29,7.72c3.22,0.61,12.83-2.15,15.55-2.53
		c2.73-0.38,15.84,7.06,15.84,7.06l-12.92-15.43c-3.32-3.45-8.68-3.3-12.09-2.01c-0.02,0.01-4.94,1.9-4.94,1.9s-4.27-3.33-4.29-3.35
		c-2.95-3.22-7.72-4.02-11.62-2.07L390.2,305.71z"/>
</g>
<g id="рот_2_">
	<path class="st5" d="M432.32,332.14c-9.65-0.2-19.22-2.21-27.88-5.84c-1.25-0.52-2.52-1.09-3.9-1.17c-1.39-0.08-2.93,0.47-3.45,1.6
		c-0.46,1,0.03,2.17,0.87,2.95c0.85,0.78,2,1.24,3.12,1.68c2.13,0.84,4.26,1.69,6.5,2.28c4.73,1.25,9.73,1.31,14.64,1.14
		c2.48-0.08,4.96-0.23,7.45-0.31c1.25-0.04,2.5-0.07,3.74-0.07c0.97,0,2.02,0.12,2.95-0.2c1.17-0.41,0.52-1.11-0.32-1.51
		C434.92,332.16,433.56,332.17,432.32,332.14z"/>
</g>
<g id="рот">
	<path class="st9" d="M388.63,310.21c0,0,5.25-0.4,12.35,1.92c6.56,2.14,7.4,5.7,15.08,7.15c8.23,1.56,11.79-1.82,19.1-1.09
		c9.96,0.99,13.36,5.7,13.36,5.7l-0.89-4.98l-14-9.97l-15.77,3.76l-14.05-8.56l-10.24,0.64L388.63,310.21z"/>
	<path class="st5" d="M447.13,317.12c0,0-12.04-9.76-13.93-9.5c-0.21,0.03-12.98,3.84-15.21,3.36c-2.51-0.54-8.76-4.36-12.07-7.49
		c-2.45-2.32-5.73-0.54-13.19,0.72c-1.39,0.63-2.51,0.89-1.75,2.43c2.61,1.38,10.36-3.04,12.64-0.89c0,0,9.13,8.43,13.52,9.34
		c4.39,0.91,16.44-4.29,16.59-4.31c1.48-0.21,13.15,9.88,14.37,9.74C448.27,321.59,447.13,317.12,447.13,317.12z"/>
	<path class="st5" d="M449.33,323.9c-0.56-6.63-2.2-6.78-2.2-6.78c-0.57-0.69-2.16-1.56-2.7-0.88c-0.81,1.04,2.03,4.82,1.7,6.78
		C445.71,325.61,449.46,325.49,449.33,323.9z"/>
	<path class="st5" d="M388.61,312.45c-0.1-0.01-0.21-0.04-0.31-0.07c-0.44-0.13-0.78-0.44-0.98-0.84c-0.19-0.38-0.23-0.81-0.08-1.19
		c2.24-5.62,5.49-6.14,5.49-6.14c0.86-0.26,2.02,0.15,2.08,1.01c0.1,1.31-1.3,1.41-2.46,2.7c0,0-1.57,2.33-1.97,3.47
		C390.14,312.11,389.39,312.55,388.61,312.45z"/>
</g>
<g id="рот_1_">
	<g>
		<path class="st5" d="M417.94,303.32c-4.62-0.99-7.67-6.17-7.8-6.39c-0.31-0.53-0.11-1.2,0.45-1.48c0.55-0.28,1.26-0.08,1.57,0.46
			c0.03,0.05,2.66,4.51,6.23,5.28c3.52,0.75,7.34-2.34,7.38-2.37c0.48-0.39,1.2-0.34,1.63,0.12c0.43,0.46,0.39,1.15-0.09,1.54
			C427.12,300.64,422.6,304.32,417.94,303.32z"/>
	</g>
</g>
<g id="ноздри">
	<path class="st8" d="M413.17,260.06c-1.29-1.66-3.9-1.72-5.73-0.7c-1.84,1.02-3.07,2.83-4.22,4.59c-2.34,3.59-4.6,7.22-6.79,10.9
		c-0.91,1.54-6.17,8.67-4.95,10.09c1.92-1.77,3.45-4.27,5.38-6.16c2.04-1.99,4.22-3.84,6.33-5.76c2.08-1.88,4.13-3.82,5.9-5.99
		C409.73,266.26,413.89,260.99,413.17,260.06z"/>
	<path class="st8" d="M450.65,273.83c-0.64-2.55-2.22-5.63-4.84-5.32c-1.72,2.12-1.91,5.14-1.27,7.79c0.64,2.65,1.99,5.07,3.11,7.55
		c1.08,2.4,1.95,4.89,2.6,7.44c0.48,1.87,0.41,4.63,1.31,6.25c1.78-1.99,1.22-6.89,1.13-9.3
		C452.52,283.38,451.84,278.54,450.65,273.83z"/>
	<path class="st5" d="M446.57,272.79c-0.1-0.75-0.79-1.27-1.53-1.17c-0.75,0.1-1.27,0.78-1.18,1.53c0.01,0.09,4.38,10.11,0.05,12.82
		c-3.37,2.11-7.38,1.03-9.67,0.21c0.61-0.82,0.92-1.41,0.93-1.44c0.34-0.67,0.06-1.49-0.61-1.83c-0.67-0.34-1.49-0.07-1.83,0.6
		c-0.05,0.11-0.57,1.08-1.59,2.19c0,0-0.01,0.01-0.01,0.01c-1.82,1.99-5,3.75-10.36,2.5c-8.19-1.9-6.92-10.51-6.86-10.9
		c0.13-0.74-0.36-1.45-1.1-1.58c-0.74-0.13-1.45,0.36-1.58,1.1c-0.27,1.52-0.32,3.6,0.11,5.73c-2.21,0.19-5.64,0.06-7.54-4.12
		c-2.56-5.64,5.67-10.47,5.95-10.66c0.62-0.42,1.9-2.17,1.48-2.79c-0.42-0.62-2.18-0.1-2.8,0.32c-2.96,2.02-10.74,7.95-7.93,14.15
		c2.03,4.47,6.17,5.79,9.52,5.88c0.78,0.02,1.5-0.03,2.16-0.11c1.22,2.81,3.55,5.33,7.73,6.3c1.09,0.25,2.12,0.38,3.09,0.41
		c4.25,0.12,7.31-1.73,9.31-3.58c1.38,0.58,4.19,1.57,7.29,1.66c1.92,0.05,3.96-0.24,5.83-1.21
		C451.68,285.59,446.62,273.22,446.57,272.79z"/>
	<path class="st8" d="M426.92,229.34c3.46-2.31,7-4.68,9.44-8.06s3.57-8,1.77-11.75c-5.43,5.73-6.26,15-12.43,19.91"/>
	<path class="st5" d="M443.63,240.45c-1.88-3.71-3.8-7.52-4.26-11.65c-0.46-4.13,0.82-8.73,4.23-11.11
		c1.91,7.65-1.92,16.14,1.04,23.45"/>
</g>
<g id="нос">
	<g>
		<path class="st5" d="M414.84,264.48c-0.28,0-0.56-0.07-0.81-0.23c-0.7-0.44-0.91-1.37-0.46-2.07c0.05-0.08,5.37-8.48,7.24-14.33
			c3.04-9.51,2.29-18.66,2.28-18.78c-0.05-0.83,0.57-1.54,1.4-1.59c0.83-0.05,1.54,0.57,1.59,1.4c0.03,0.5,0.79,9.82-2.42,19.88
			c-1.99,6.22-7.34,14.67-7.56,15.03C415.82,264.23,415.34,264.47,414.84,264.48z"/>
	</g>
</g>
<g id="яблоко_1_">
	<path class="st9" d="M406.94,224.64c-11.71-5.59-19.9,2.98-19.9,2.98s-2.23,8.69,10.77,14.58c13,5.89,19.04,1.05,19.04,1.05
		S418.65,230.22,406.94,224.64z"/>
</g>
<g id="яблоко">
	<path class="st9" d="M483.88,249.21c0,0-4-11.94-16.98-11.95c-12.98-0.01-16.66,13.2-16.66,13.2s3.36,6.98,17.63,7.26
		C482.14,258,483.88,249.21,483.88,249.21z"/>
</g>
<g id="зрачрк">
	<circle class="st5" cx="465.3" cy="246.25" r="7.48"/>
</g>
<g id="зрачок">
	<circle class="st5" cx="399.89" cy="232" r="7.48"/>
</g>
<g id="ни_веко">
	<path class="st8" d="M450.24,250.46c0,0,1.71,10.9,17.98,9.6c14.97-1.2,15.65-10.85,15.65-10.85s-1.35,1.41-14.77,2.03
		C455.69,251.86,450.24,250.46,450.24,250.46z"/>
</g>
<g id="н_веко">
	<path class="st8" d="M416.83,243.43c0,0-5.68,9.66-20.57,1.17c-13.04-7.44-9.24-16.8-9.24-16.8s1.58,1.55,13.42,7.89
		C412.27,242.04,416.83,243.43,416.83,243.43z"/>
</g>
<g id="веко">
	<path class="st5" d="M466.53,236.34c-15.81,2.17-18.02,16.75-18.02,16.75s3.46-8.22,19.97-9.94c11.46-1.19,16.07,6.18,16.07,6.18
		S483.55,234,466.53,236.34z"/>
</g>
<g id="веко_1_">
	<path class="st5" d="M407.37,222.74c-14.61-9.39-20.9,4.52-20.9,4.52s7.71-4.06,17.48,2.15c9.42,5.99,13.39,16.98,13.39,16.98
		S422.28,232.33,407.37,222.74z"/>
</g>
<g id="тень">
	<path class="st8" d="M448.54,242.71c1.43,2.07,3.95-2.54,16.34-4.77c15.25-2.74,18.18,3.34,20.89,0.92
		c2.72-2.42-10.53-11.26-20.66-9.12C454.99,231.88,446,239.03,448.54,242.71z"/>
</g>
<g id="тень_1_">
	<path class="st8" d="M420.72,236.2c-2.11,1.37-5.37-6.16-13.4-11.35c-14.91-9.64-17.98-3.1-19.56-6.38
		c-1.59-3.27,14.02-6.41,22.57-0.57C418.88,223.73,424.48,233.77,420.72,236.2z"/>
</g>
<g id="бровь_1_">
	<path class="st5" d="M447.09,234.16c3.52,3.28,3.49,3.77,11.4,2.46c6.63-1.1,14.81-5.13,24-5.83c4.18-0.32,16.22,5.16,16.83,4.25
		c0.57-0.84-10.94-10.37-16.63-10.71c-7.38-0.44-11.29,1.93-19.58,3.57C446.91,231.1,442.83,230.18,447.09,234.16z"/>
</g>
<g id="бровь">
	<path class="st5" d="M422.28,227.33c-2.51,4.35-4.03,1.16-10.91-2.96c-5.37-3.21-7.91-5.33-15.51-13.09
		c-4.09-4.18-13.5,0.75-13.76-0.45c-0.26-1.16,9.88-8.63,18.11-4.46c6.1,3.09,9.2,8.7,15.42,11.96
		C429.94,225.84,425.2,222.28,422.28,227.33z"/>
</g>
<g id="пряд_справа">
	<path class="st5" d="M491.91,202.44c0,0-2.91,27.15-5.31,42.13c-2.4,14.98-12.09,52.13-6.1,74.71s20.88,36.75,38.36,31.12
		c17.48-5.63,23.59-23.79,17.44-40.77s-20.47-33.17-23.38-56.68c-2.91-23.51,4.46-55.2,4.46-55.2L491.91,202.44z"/>
	<path class="st6" d="M490.54,250.53c-1.3,6.99-2.61,14.01-3.16,21.1c-1.09,14.01,0.79,28.06,2.66,41.99
		c1.2,8.92,3.02,18.9,10.42,24.03c4.82,3.34,11.5,3.77,16.71,1.07s8.72-8.4,8.77-14.26c-3.64,0.07-7.28,0.14-10.92,0.21
		c1.15-2.59,2.3-5.17,3.46-7.76c-3.41,0.6-6.85-1.39-8.96-4.13c-2.11-2.74-3.14-6.14-4.13-9.45c-3.28-10.99-6.61-22.31-5.61-33.73
		c0.44-5.05,1.71-9.98,2.41-15c0.86-6.17,0.84-12.42,0.82-18.65c-0.01-4.44-0.03-8.87-0.04-13.31c-0.01-1.54,0.62-5.34-0.6-6.17
		c-0.88-0.6-3.05-0.21-3.92,0.27c-2.08,1.16-2.38,4.03-2.77,6.14c-0.75,4.1-1.51,8.21-2.27,12.31
		C492.45,240.3,491.49,245.41,490.54,250.53z"/>
</g>
<g id="прядь_слева">
	<path class="st5" d="M377.48,166.75c0,0-12.89,43.35-21.53,55.92c-8.64,12.57-40.68,44.69-44.45,59.05
		c-3.77,14.36-2.66,25.85,5.69,32.19c11.18,8.5,32.95,2.01,39.58-9.23c17.36-29.46,17.56-77.85,40.99-129.12L377.48,166.75z"/>
	<path class="st6" d="M347.54,276.63c-3.87,8.26-8.71,17.3-17.41,20.06c-2.17,0.69-5.1,0.62-6.08-1.44
		c-0.3-0.63-0.35-1.35-0.38-2.05c-0.29-8.31,2.82-16.7,8.45-22.82c2.4-2.61,5.22-4.8,7.82-7.21c8.09-7.48,13.98-16.92,18.86-26.72
		c5.04-10.13,9.12-20.7,13.98-30.92c2.42-5.08,5.03-10.08,8.04-14.85c0.74-1.16,2.78-5.69,4.39-3.03c1.1,1.82-1.82,6.46-2.54,8.27
		c-5.17,12.85-10.51,25.63-16.02,38.34c-5.48,12.65-11.13,25.22-16.94,37.72C348.99,273.54,348.27,275.08,347.54,276.63z"/>
</g>
<g id="челка">
	<path class="st5" d="M494.15,114.18c0,0-29.86-8.76-51.29-3.44c-21.43,5.33-31.3,21.07-31.3,21.07s-40.66,0.78-39.1,31.28
		c1.74,33.92,39.65,22.24,39.65,22.24s-0.15,17.61,24.36,22.85c22.16,4.74,32.21-8.42,32.21-8.42s12.54,21.55,36.9,15.34
		c27.55-7.03,26.55-30.46,25.48-35.17c-1.07-4.7-4.82-26.14-38.31-26.51C492.76,153.42,518.28,127.67,494.15,114.18z"/>
	<path class="st6" d="M382.55,146.79c-6.91,6.78-9.9,17.32-7.58,26.72c0.87-5.27,5.36-9.74,10.64-10.57
		c-3.67,2.83-5.76,7.58-5.36,12.2c2.61-2.36,5.21-4.71,7.82-7.07c-1.24,2.96-0.83,6.55,1.05,9.15c1.81-0.98,3.61-1.97,5.42-2.95
		c4.99,3.84,12.8,3.35,17.28-1.09c2.2,9.17,7.82,17.48,15.51,22.93c-1.77-4.98-1.24-10.73,1.41-15.3c-1.99,2.83-1.14,7.23,1.75,9.13
		c2.89,1.89,7.27,0.91,9.07-2.04c-0.31,1.38-0.62,2.77-0.93,4.15c2.04,0.63,4.42-0.02,5.86-1.59c0.79,3.15,5.32,2.9,8.42,1.92
		c9.16-2.91,18.31-5.81,27.47-8.72c-5.14,4.54-4.52,13.96,1.17,17.79c2.23-3.3,5-6.24,8.15-8.67c-1.33,2.09-2.04,4.57-2.03,7.05
		c2.28-1.55,5.65-1.21,7.58,0.76c3.94-3.29,9.97-3.8,14.4-1.22c1.94-2.89,3.88-5.78,5.82-8.67c-3.02,2.74-8.45,2.05-10.68-1.37
		c-2.24-3.41-0.7-8.67,3.02-10.34c-3.89,1.84-7.78,3.67-11.68,5.51c1.64-1.93-0.79-5.47-3.18-4.63c2.7-10,9.98-18.66,19.36-23.04
		c-13.59-2.58-28.41,3.24-36.62,14.36c0.09-1.32-1.75-2.04-2.92-1.45s-1.78,1.9-2.3,3.11c-0.78-4.42-8.06-5.52-10.13-1.54
		c-0.73-1.38-1.45-2.76-2.18-4.14c-1.36,0.13-2.66,0.83-3.51,1.89c-0.2-3.67,0.24-7.37,1.31-10.88c-4.04,1.94-7.92,4.24-11.57,6.85
		c0.67-1.87,1.35-3.74,2.02-5.61c-5.27-1.04-11,0.68-14.83,4.44c0.53-1.11,1.06-2.37,0.65-3.53s-2.29-1.68-2.83-0.58
		c7.28-7.3,17.09-12.03,27.33-13.19c-7.96-2.33-16.59-3.53-24.51-1.06c-7.92,2.46-14.89,9.33-15.41,17.61
		c1.42-2.26,2.7-5.04,1.7-7.52c-1-2.48-5.42-3.03-6.03-0.43c1.08-1.88-2.02-3.35-4.19-3.17c-2.16,0.18-5.3-0.28-5.1-2.44
		c0.06-0.66,6.62-2.35,7.44-2.6c2.6-0.81,5.34-1.33,7.91-2.19c-2.65-2.44-6.61-3.28-9.88-4.62c-2.6-1.06-4.92-1.45-7.75-1.29
		C394.07,139.25,387.41,142.02,382.55,146.79z"/>
</g>
</svg>
