<?xml version="1.0" encoding="utf-8"?>
<!-- Generator: Adobe Illustrator 25.2.1, SVG Export Plug-In . SVG Version: 6.00 Build 0)  -->
<svg version="1.1" xmlns="http://www.w3.org/2000/svg" xmlns:xlink="http://www.w3.org/1999/xlink" x="0px" y="0px"
	 viewBox="0 0 998.2 973.2" style="enable-background:new 0 0 998.2 973.2;" xml:space="preserve">
<style type="text/css">
	.st0{fill:#7786A5;}
	.st1{fill:#677490;}
	.st2{fill:#404B62;stroke:#404B62;stroke-width:3;stroke-miterlimit:10;}
	.st3{fill:#404B62;}
	.st4{fill:#C8315C;}
	.st5{fill:#1B2334;}
	.st6{fill:#352745;}
	.st7{fill:#282F3D;}
	.st8{fill:#AD3255;}
	.st9{fill:#FFFFFF;}
</style>
<g id="тело">
	<path class="st0" d="M299.3,290.6c-34.5,30.1-34.2,62.3-55.9,84.8c-12.4,12.9-31,39.9-48.8,65.7c-13.2,19.2-26,37.6-35.6,49
		c-25,29.8-59.6,84.9-59.9,105.2c-0.3,20.3-33.7,74.3-17.4,120.1c16.3,45.8,93.7,68.7,135,32.3s43.6-95,58.6-133.8
		c15-38.8,61.1-103.3,73.4-153.5c16.9-68.7,2-85.2-12.2-110.6C322.3,324.2,299.3,290.6,299.3,290.6z"/>
	<path class="st0" d="M684.6,304.7c35.2,29.3,35.8,61.5,58,83.4c12.7,12.5,32,39.2,50.4,64.5c13.7,18.8,27,37,36.8,48.1
		c25.8,29.2,61.7,83.4,62.5,103.7s35.5,73.4,20.4,119.6c-15.2,46.2-92,71-134.2,35.6s-45.9-93.9-61.8-132.3
		c-16-38.5-63.6-101.7-77.2-151.7c-18.6-68.3-4.1-85.2,9.5-110.9C662.5,338.9,684.6,304.7,684.6,304.7z"/>
	<path class="st0" d="M314.1,278.8c-20.3,10-39.8,39.8-53.1,76.1s73.2,77,61.8,122.1s-28.7,72.5-31.1,95.6
		c-2.4,23-48.6,124.9-28.6,162.6c24.9,47.1,112,5,203.9,14.5c103.5,10.7,197.8,41.9,216.4,8.5c22-39.3-8-106.5-8.2-139.8
		c-0.3-38.2-38.2-116.1-31.1-145c6.1-25.1,85.8-69,76.1-107.9c-9.7-38.9-35.1-68.8-63.7-84.9c-36.3-20.4-103.5-23.9-174.3-28.3
		S346.4,262.9,314.1,278.8z"/>
	<path class="st1" d="M300.2,402.6c-0.9,1.8-1.7,3.6-2.6,5.4c-11.4-14.3-26.7-25.5-43.9-31.8c11.4,21,22.8,42,34.2,63.1
		c6.3,11.6,12.6,23.4,14.9,36.3c-6.4-1.8-13.8,2.7-15,9.2c-0.7,3.5,0.2,7,0.5,10.5c0.4,5.1-0.5,10.3-1.4,15.3
		c-3.5,19.6-6.9,39.2-10.4,58.7c-1.2,6.9-2.4,14.3,0.5,20.6c0.6,1.3,2.1,6.2,3.5,6.7c3.5,1.4,6.4-3.1,7.6-6.7
		c8.4-26.4,16.1-56.3,24.5-82.7c2.1-6.6,4.2-13.2,6.2-19.8c1.5-4.9,3.3-9.9,3.5-15.1c0.2-3.9-0.7-7.6-1.7-11.3
		c-1.6-5.8-3.3-11.5-5-17.3c-2.1-7.1-4.5-14.1-7.1-21c-1.3-3.5-2.6-6.9-4-10.3C304,411.6,299.8,403,300.2,402.6z"/>
	<g>
		<polygon class="st2" points="343.2,546 384.7,444.8 389,514.9 423.5,448.2 432.1,537.1 417.3,538.9 419.3,470.1 387.7,539.2 
			382,539.8 379.8,472.2 360.1,541.7 		"/>
		<polygon class="st2" points="332.6,570.9 611.4,521.7 335.8,542 		"/>
		<g>
			<path class="st2" d="M461,534.6c-15.9,0-17.7-17.5-16.8-17.6c0.9-0.1,3.5,14.5,18.5,13.1c3.6-0.4,6.9-2.1,9.3-5.2
				c6.6-8.6,7.2-24.7,6.4-37.4c-1.3,6.6-2.7,14.9-7.1,19.2c-2.7,2.7-6.8,4.8-10.4,4.7c-3.8-0.1-8.1-2.4-10.3-5.2
				c-7.6-9.6-1-35.3-0.1-35.1c0.9,0.2-3,21,3.6,29.4c1.7,2.1,3.8,3.1,6.6,3.2c2.8,0.1,5.2-0.9,7.3-3c8.6-8.4,9.5-30.2,10.3-30.3
				c0.9-0.1,11.7,42.5,0.1,58.4c-5.7,7.9-10.4,5.3-14.9,5.7C462.6,534.6,461.8,534.6,461,534.6z"/>
		</g>
		<path class="st2" d="M541.7,468.2c-3.5-1.9-16.1-1.9-25.8-1.2c-6.5,0.4-21.9,1.8-25.1,5.2c-5,5.4,0.6,15.7,1.2,15.7
			c0.3,0-2.3-7.7,1.1-11.4c1.7-1.8,7.8-3.4,18.3-4.1l4,56.1c0,0.9-9.7,1.6,1.6,1.6c0.9,0,1.6-0.7,1.6-1.6l2-56.4
			c9.7-0.6,16.9-0.3,19.4,1.1c4.2,2.3,1.2,9,2.1,9.4C542.9,482.8,547.1,471.2,541.7,468.2z"/>
		<g>
			<path class="st2" d="M556.3,527.1c-0.4,0-0.8-0.1-1.1-0.4c-0.4-0.3-12.3,1.2-6.3,0.4c0,0,4.6-60.6,5.5-60.6s2.7,13.4,2.7,13.4
				c2.2,0.5,7.7,2.2,12.5,4.8c8.8,4.7,13.7,11.3,14.1,19.2c0.4,8-4.3,14.6-13.5,19c-6.7,3.2-13.5,4.1-13.7,4.2
				C556.4,527.1,556.4,527.1,556.3,527.1z M557.3,483.7l0.7,39.8c5.8-1.2,19.8-6.4,19.1-19.9C576.3,490.1,562.9,485.2,557.3,483.7z"
				/>
		</g>
	</g>
	<path class="st1" d="M230.5,527.6c6,11.9,14.6,22.4,25.2,30.6c-34.8-11.3-71.3-22.8-107.4-16.7c13.8,2.5,27.6,4.9,41.4,7.4
		c-19.4,4.1-40,8.8-53.7,23.1c8.9,1.4,17.7-2,26.4-3.9c20.9-4.4,42.6,0.5,62.8,7.2c10.8,3.6,21.4,7.8,32.2,11.4
		c5.5,1.8,11,3.6,16.5,5c2,0.5,10.1,3.8,11.5,1.3c1.2-2-2.4-6.6-3.3-8.1c-2.5-4.2-4.7-8.4-6.9-12.7c-4.5-9-10.8-16.9-18.1-23.8
		C249,540.7,239.7,534.1,230.5,527.6z"/>
	<path class="st1" d="M699.1,360.8c-28.2,29.4-45.7,70.6-61.9,108c6.1-26.1,10.6-52.6,13.5-79.3c-17.9,22.8-18.9,54.1-19.2,83.1
		c-1.6-14.2-4.2-28.2-7.8-42c-12.8,52.8,32.1,109.5,12.6,162.6c-16.1,15.4-38.8,25.1-60,32.5c-10.3,1-46.7,18.4-17,19.1
		c-21.2,11.9-35.5,37-62,31.3c-14.7-4-31.7-0.1-45.2-7.9c-24.8-15.8-45.3-36.8-69-54.3c-12.9-6.4-27.6-8.4-41.4-12.3
		c-16.8-6.1-34.6-13.4-53-13c-15.6,5.3,5.5,34.2,8.6,44.2c16.5,31.7,40.7,59.5,70.4,79.5c15.2,13.3,34.8,7,51.7,15.1
		c34.3,0.9,100,26.2,114.6-18.2c24.7,4.7,39.6-25.1,61.3-33c14.6-4.4,16-19.9,27.6-27.1c0,0,32.4-16.2,32.4-16.2
		c5.6-3.4,15.1-1.9,18.7-7.3c9.9-31.9-18.3-97.8-28.7-130.8C642.9,466.9,722.8,376.4,699.1,360.8z"/>
	<path class="st3" d="M661,410.2c-11.1,23-18.1,48-20.3,73.5c-1-19.3-0.3-25.5-1.4-44.8c0.4-3.3,0.2-20.7-3.3-17.8
		c-3.5,20.7-4.9,41.9-0.3,62.4c-2.2-4.1-4.9-7.9-8.2-11.3c1.7,1.7,2.7,4.9,3.8,7c1.4,2.8,2.8,5.7,4.1,8.6c2.7,6.2,5,12.6,6.9,19.1
		c3.2,11.4,4.4,22.8,5.7,34.5c0.7,5.9,1.2,11.7,1.8,17.6c1.2,11.8,2.3,23.7,3.5,35.5c0.4,3.8,0.7,7.6,0.1,11.4
		c-0.6,3.5-2,6.8-2.8,10.2c-1.5,6.8-0.2,14.3,3.5,20.2c3.3,5.1,7.9,5.6,13.5,4.8c5.3-0.7,12.4-1.8,16.1-6.1
		c5.2-3.4-4.5-29.9-5.6-35.8c-8.1-41.4-11.9-42.1-22.9-83.7c-2.5-9.7-6.2-21.5-10.5-30.3C644.5,459.4,664,436.5,661,410.2z"/>
	<path class="st3" d="M311.4,511.9c4.9-14,9.9-28.1,11.9-42.8c2.1-14.7-14.5-59.4-21.4-72.5c-0.2,18.9,15,66.9,14.8,85.8
		c-5.2-6.1-10.3-12.2-15.5-18.4c1.5,10.2,2.9,20.4,4.2,30.6c0.4,3.3,0.8,6.9-1.2,9.6s-7.1,2.9-8-0.3c-0.6,14.2-3,28.2-7,41.8
		c-4.1,13.9-10,27.8-9,42.2c1.3,0.5,2.8,1.3,4.2,1.6c1.4,0.3,1.4,0.2,1.9-1.2c1-2.7,1.7-5.6,2.6-8.3c1.7-5.6,3.5-11.1,5.3-16.6
		c3.6-11.1,7.2-22.3,11-33.3c1-3.1,2.1-6.2,3.1-9.2c0.5-1.5,1-3,1.6-4.5C310.2,515.1,311.4,513.2,311.4,511.9z"/>
</g>
<g id="капющон">
	<path class="st1" d="M350.6,340.1c1.3,3.8,2.2,7.9,5,10.8c1.7,1.7,4,2.7,6,4.2c8.3,5.9,10.2,17.2,14.9,26.3
		c4.6,8.8,12.3,15.9,21.5,19.7c7.6,3.2,16.8,4.6,21.2,11.6c0.9,1.5,1.6,3.2,3.1,4.2c1.4,1,3.2,1.1,5,1.2c23,1,46,2.1,69,3.1
		c1.4,0.1,3,0,3.9-1.1c0.7-0.9,0.6-2.3,1.3-3.4c0.8-1.3,2.6-1.5,4.1-1.7c8.9-0.7,17.8-1.5,26.8-2.2c2.4-0.2,4.9-0.4,6.9-1.7
		c1.7-1,2.8-2.7,3.9-4.3c6.1-8.8,12.3-17.5,18.4-26.3c2.8-4,5.7-8.1,9.5-11.3c3.9-3.2,8.5-5.2,12.9-7.7c18.3-10.1,32-26.7,45.2-42.9
		c4-4.9,8.1-9.9,10.3-15.9c2.2-5.9,2.3-13-1.3-18.2c-4.9-7-14.9-8.3-23.4-7c-19.8,3.1-38,16.9-57.8,14c-13.9-2-25.2-12-38.1-17.6
		c-12.1-5.3-25.5-6.7-38.6-8c-22.4-2.3-45.2-4.6-67.4-0.6c-12.2,2.2-24.1,6.2-36.5,6.7c-11.6,0.4-23.2-2.3-34.7-0.3
		c-6.4,1.2-13.4,2.9-18.4,7.4c-4.7,4.2-6.3,10.4-6.6,16.5c-0.2,4.3-0.3,8.9,1.8,12.8c2.5,4.8,7.3,6.3,11.8,8.6
		C339.7,321.7,347.2,330.2,350.6,340.1z"/>
	<path class="st0" d="M429,419.2l56,1.4c0,0,1.7-11.4,10.5-13.9c13-3.6,32.7-1.6,44.5-17.4c7.8-10.4,21.6-47.8,39.9-49.8
		s50.2-25.4,64.7-57.6c8.9-19.7,2.8-39.2-7.3-53c-3.4-4.7-9.4-4.7-13.3-7.9c-3.4-2.8-6.1-9.3-12.7-12.3
		c-17.5-8.1-57.1-21.3-112-21.6c-62.5-0.3-106.1,3.7-128.7,15.1c-15.4,7.8-23.9,18-31.6,35.3c-3.6,8-13.2,6.4-16.9,29
		c-3.6,21.9,15.7,48.2,43,68.9c14.3,10.9,12.3,46.5,25.7,56.5c9.2,6.8,23,6.9,31.2,13.3C426,408.2,428.5,412.4,429,419.2z"/>
	<path class="st1" d="M440.7,403.8c0.9,1.7,1.9,3.5,3.5,4.7c2,1.4,4.6,1.6,7,1.7c3.9,0.2,7.7,0.4,11.6,0.5c1.7,0.1,3.5,0.1,5-0.7
		c1.4-0.8,2.3-2.1,3.1-3.4c8.3-13.1,16.6-26.3,24.9-39.4c4.7-7.4,9.4-14.8,12.4-23c1.9-5.2,3.1-10.6,5.7-15.5
		c4.5-8.3,12.5-13.8,20-19.5c22-16.7,41-36.9,59.9-57c5.3-5.6,11-13,8.4-20.3c-1.3-3.7-4.6-6.4-8.1-8.2c-4.6-2.4-9.7-3.8-14.9-3.9
		c-5.4-0.1-10.8,1.1-16.2,1.3c-7.4,0.3-14.7-1.2-22.1-2.3c-38-5.8-76.7-1.4-114.9,2.9c-10.3,1.2-20.7,2.4-31,3.5
		c-6.7,0.8-14.1,1.9-18.4,7.1c-3.6,4.4-3.8,10.3-2.8,15.7c0.6,2.8,1.7,5.5,2.3,8.3c0.5,2.3,1,3.9,2.3,6c6.8,10.5-1.4,16.9,3.8,28.3
		c5.2,11.3,9.9,24.5,14.2,36.2c4.4,11.8,22.6,26.5,27.1,38.3c4.5,11.7,9.3,23.3,14.9,34.6C439.3,401,440,402.4,440.7,403.8z"/>
	<ellipse class="st3" cx="431.7" cy="427.6" rx="4.4" ry="9.6"/>
	<ellipse class="st3" cx="485.4" cy="427.6" rx="4.4" ry="9.6"/>
	<g>
		<path class="st3" d="M432.4,428.5c-5.4,8.5-1.7,18.8,0.4,27.8c1.3,5.3,1.9,10.4,1.1,15.9c-0.8,5.7-2.4,11.4-2.6,17.2
			c-0.2,6,0.8,12,1.4,18c0.6,6,0.9,12,0.8,18.1c-0.1,6-0.5,11.9-1.1,17.9c-0.6,5.4-1.4,10.7-1.6,16.1c-0.2,5.9,0.4,11.9,2.7,17.4
			c0.6,1.3,1.3,2.5,1.9,3.8c0.5,1.1,1.1,2.6,0.3,3.7c-0.5,0.8-0.7,0.6-1.2,0.1c-0.2-0.2,0-0.2,0-0.3c0,0.4-0.3,0.1,0,0.2
			c0.4,0.1,0.9,0,1.2,0.6c0.5-0.6,1-1.3,1.4-1.9c-0.9,0.1-1.3-1.7-0.5-2c1.8-0.6,1.1-3.5-0.8-2.9c-4,1.2-3,8.2,1.3,7.9
			c0.9-0.1,1.9-0.9,1.4-1.9c-0.9-2.1-3.5-3.6-5.7-2.3c-1.9,1.1-1.7,3.7-0.3,5.1c1.7,1.7,4.3,1.1,5.6-0.8c1.7-2.3,0.9-5.1-0.3-7.4
			c-1.3-2.6-2.4-5.1-3.1-7.9c-0.7-2.9-0.9-5.9-0.9-8.9c0-6,0.8-11.9,1.5-17.8c1.6-13.4,1.6-26.8,0.1-40.2
			c-0.8-6.6-1.6-13.2-0.5-19.9c1-6.3,2.8-12.5,2.5-18.9c-0.3-6.2-2.3-12.1-3.7-18.1c-1.3-5.7-1.9-11.8,1.4-17
			C436,428.4,433.4,426.9,432.4,428.5L432.4,428.5z"/>
	</g>
	<g>
		<path class="st3" d="M482.9,430.1c2,20.5,3.9,41,4.1,61.6c0,5.1,0,10.1-0.2,15.2c-0.2,5-0.6,10.1-0.7,15.1c-0.1,5,0.1,9.9,1,14.8
			c0.8,4.4,2.8,9.2,1.4,13.7c-0.7,2.5-2.3,4.7-2.7,7.4c-0.4,2.6-0.2,5.2,0.1,7.8c0.8,5.6,1.7,11.1,2.6,16.7c0.5-0.6,1-1.3,1.4-1.9
			c-1.1,0-1.5-2.5-0.4-2.8c1.8-0.6,1.1-3.5-0.8-2.9c-4.4,1.4-3.4,8.5,1.2,8.7c1.1,0,1.6-1,1.4-1.9c-0.8-5-1.6-9.9-2.3-14.9
			c-0.4-2.3-0.7-4.6-0.5-6.9c0.2-2.4,1.2-4.5,2.2-6.7c1.9-4.4,1.1-8.9,0.1-13.4c-1.1-4.9-1.7-9.7-1.8-14.7c0-4.9,0.3-9.9,0.6-14.8
			c0.3-5.1,0.4-10.3,0.4-15.4c0-10.2-0.4-20.4-1.1-30.6c-0.8-11.4-1.9-22.8-3-34.2C485.7,428.2,482.7,428.2,482.9,430.1L482.9,430.1
			z"/>
	</g>
</g>
<g id="шея">
	<path class="st4" d="M408.1,280.7c-3.7,7,23.1,45.8,26.9,62.2c3.8,16.5,9.1,64.9,19.6,64.9c10.4,0.1,29.2-62.4,34-71.4
		c4.8-9.1,32.4-58.7,24.8-67.3C505.7,260.5,415.4,267.1,408.1,280.7z"/>
</g>
<g id="волосы_сзади">
	<path class="st5" d="M590.1,241.8c-4-7.5-10.4-24.4-14.1-34.5c2.4-4.7,4.3-9.9,5.5-15.9c5.4-27.9-2.9-39.8-2.9-39.8
		s25.2-8.2,9.6-29.8c0,0,15.6-25.5-4.4-39.4c-20-13.9-32.3,2.6-32.3,2.6s-3.8-6.2-17.6-4.6c-14.2,1.7-16.1,15-16.1,15
		s-80.2-10.1-94.9,42.4c0,0,0,0,0,0s-22.9,35.4-30.7,46.7c-15.2,21.9-45.3,38-46.7,49.8s0.7,18,6.4,23.8c5.7,5.8,22.3,4.2,25.4,0.8
		c2.6-2.8,32.2-59.7,43.4-92.1c5.1,48.8,54,80.2,119.5,71.1c0,0,0.2-0.1,0.6-0.2c7.7,29.2,20.5,61.5,21.9,64.1
		c1.9,3.6,11.1,3.9,18.8,0.6s4.6-16.2,4.6-16.2s8.5,4.3,15.3,0.5c6.7-3.9,6.9-9.5,7.1-14.6S596,252.9,590.1,241.8z"/>
	<path class="st6" d="M551.2,116.7c5.4,0,11,1.1,15.4,4.2s7.4,8.6,6.6,13.9c-0.3,2-0.9,4.6,0.9,5.6c1.4,0.8,4.1,0.7,3.7,2.2
		c-0.4-1.8,2.4-2.8,2.4-4.6c0-0.8-0.5-1.4-0.8-2.1c-1.9-4,3.1-8.3,2.6-12.7c-0.3-3.1-3.2-5.2-5.2-7.5c-3.7-4.2-5.1-10.3-3.7-15.7
		c0.3-1.1,0.6-2.1,0.5-3.2c-0.5-3.1-5.2-3.8-7.5-1.8c-2.4,2-3,5.4-3.5,8.5c-1.2-0.1-2.4-0.1-3.6-0.2c-2-3.7-4.3-7.2-7.1-10.4
		c-0.4-0.5-0.9-1-1.5-1c-0.7-0.1-1,0.6-0.9,1.1c1.9-4-4.7-3.7-6.6-3.2c-2.4,0.7-6.5,1.8-5.9,5.1c0.6,3,3.9,4.7,6.3,6
		c2.8,1.6,5.1,3.7,6.7,6.5C550.3,108.2,553,116.7,551.2,116.7z"/>
	<path class="st7" d="M579.5,177.5c-1.3,3.7-3.8,7-7,9.4c2.1-8.8,2.3-18,0.7-26.8c-0.8,3.2-2.3,6.3-4.4,9c0.2-9-1.5-18-4.8-26.3
		c-1.9,10.1-4.8,19.9-8.6,29.4c-0.4,1.1-1.3,2.3-2.4,1.9c-0.2-1.6-0.4-3.3-0.6-4.9c-1,6.4-2.5,12.8-4.4,19c3.3,1.5,7-2.7,10.5-1.8
		c2.7,0.7,3.8,4,4.7,6.7c0.8,2.3,2.6,5.5,5.5,5.2c2.4-0.3,4.3-3.4,5.4-5.3C576.9,188.5,578.8,182.6,579.5,177.5z"/>
	<path class="st6" d="M349.8,233c0.3,2.2,0.6,4.5,0.8,6.7c4-0.9,7.8-3,10.7-5.9c1.8-1.8,3.2-4,4.7-6.1c3.4-5,6.7-10,10.1-15
		c-1.6-1.6-4.3-1.3-6.2-0.1c-1.9,1.3-3.1,3.2-4.5,5c-2.6,3.2-5.8,5.8-9.5,7.6c-2,1-4.2,1.7-5.8,3.3s-2.5,4.2-1.3,6"/>
	<path class="st6" d="M549.9,257.4c0.6,1.1,1.9,1.9,2.1,3.1c0.2,1.1-0.5,2.2-0.6,3.4c-0.2,1.8,1,3.4,1.9,4.9
		c2.6,4.4,3.2,9.7,4.2,14.8s2.4,10.4,6.2,13.9c3.8,3.5,10.5,4.3,13.8,0.3c0.3-0.4,0.6-0.8,0.6-1.3c0-1.1-1.3-1.6-2.2-2.1
		c-3.4-1.8-4.2-7.1-1.4-9.8c-2.9-0.9-4.7-3.6-6.2-6.2c-3.7-6.5-6.7-13.3-8.9-20.4c-0.7-2-1.4-4.3-3.2-5.4
		C553.6,251.1,548.4,254.8,549.9,257.4z"/>
	<path class="st6" d="M569.6,252.3c0.7,1.2,2.1,1.8,2.9,2.9c1.3,1.8,0.7,4.4,1.2,6.6c0.5,2.2,2.1,3.9,3.4,5.8
		c2.7,3.9,4.3,8.5,7.4,12c3.1,3.5,8.8,5.5,12.5,2.6c0.7-0.6,1.3-1.3,1.4-2.2c0.1-1.6-1.3-2.7-2.5-3.8c-3.9-3.4-6.4-8.3-6.8-13.5
		c-2.7,0.2-4.8-2.2-6.3-4.4c-1.9-2.7-3.7-5.5-5.4-8.3c-1.6-2.8-2.9-6-4.7-8.6c-3.1,0.5-1.9,2.4-2.4,4.8
		C569.8,248,568.5,250.5,569.6,252.3z"/>
</g>
<g id="тено_лицо">
	<g>
		<path class="st5" d="M446.7,345.1c-31.8-6.9-47.2-27.7-51.8-56.5c-0.1-0.6,1-10.4,1.1-9.8c1.4,33.6,17.2,49.5,47.7,57.1
			c32.2,8.1,48.3-16.7,67.3-39.9c0.4-0.5,7.9-3.5,8.5-3.3c0.6,0.2-1.3,7.6-1.5,8.2c0,0-9.1,22.2-28.8,35.9
			C476.9,345.5,464,348.9,446.7,345.1z"/>
	</g>
</g>
<g id="рукав">
	<path class="st0" d="M104.2,591.1c-23.3,22.7-49.8,95.2-17.8,140.9c32,45.8,49.4,46.6,63.5,51.1c14,4.5,47.9,9,67,8.2
		c19.1-0.8,53.8-4.5,65.5-0.9c11.7,3.6,25.2,3.3,35.8-3.8c10.6-7.1,14.7,10.4,35.1,10.7s46.3-32.5,59-51.8s33.1-60.9,19.2-75.1
		c-13.9-14.2-27.1-10.4-32.1-14.6s-18.9-29.2-37.6-34.4c-18.6-5.2-40.8-13.6-57.1-17.9c-16.3-4.3-44.1-32.4-68.2-35.3
		C212.3,565.3,156.5,540,104.2,591.1z"/>
	<path class="st3" d="M372,708.3c-4.1,1.9-8.6,3-12.5,5.3c-11.6,7.2-13.4,23-14,36.6c-0.4,9.5-0.8,18.9-1.2,28.4
		c21.2-0.8,38.1-17.9,50.4-35.2c11.8-16.5,21.6-34.3,30.1-52.8c1.6-3.4,3.1-7.2,2.3-10.8c-2.5-10.6-17.4-2.4-22.3,1.2
		c-7.4,5.4-13.3,12.5-20.2,18.6C380.8,703,376.7,706.1,372,708.3z"/>
	<path class="st1" d="M348.3,675.9c-10.5,6-21.3,13-26.1,24c-6.5,14.7-0.9,32.9-8.2,47.2c-2.3,4.5-5.8,8.4-8.2,12.9
		c-2.4,4.5-3.6,10.2-1.1,14.6c-9.9-3-21.7-8.1-22.6-18.4c-1-11.3,11.5-18.4,17.3-28.1c5.3-9,4.6-20.3,8.2-30.1
		c4.6-12.3,15.7-21.3,27.9-26.3c8.6-3.5,17.8-5.3,26.9-6.6c1.4-0.2,11.9-2.1,11.3,0c-0.3,0.8-4.6,1.4-5.5,1.7
		c-2.2,0.7-4.4,1.5-6.5,2.4C357.1,671,352.7,673.4,348.3,675.9z"/>
	<path class="st3" d="M248.2,563.8c-1.8-1.5-3.7-3-6-3.4c-2.5-0.4-5,0.7-7.5,1c-5.3,0.7-10.4-2.1-15.6-3.5
		c-8.6-2.4-17.8-1.1-26.6,0.4c-13.4,2.4-26.6,5.4-39.7,9.1c-15,4.3-31,10.4-39.2,23.7c28.8-11.4,59.1-19.1,89.8-22.7
		c1.9-0.2,4-0.3,5.3,1c1.3,1.3,1.1,3.5,2,5c1.2,2.1,3.9,2.7,6.3,3.2c15.2,2.7,30.4,5.2,45.7,7.5c4.2,0.6,8.6,1.6,12.8,1.9
		c0.2-1.3-4.9-4.5-6-5.5c-2.4-2-4.8-4-7.2-6C257.8,571.8,253,567.8,248.2,563.8z"/>
</g>
<g id="рука">
	<path class="st4" d="M524.2,734.3c1.6-3.6,3.9-24.6,0.9-27.2c-5.2-4.3-45.2-6.4-63.6-10.2c-23.1-4.6-50.8-4-69.5,11.5
		c-17.5,16.2-29.9,43.5-5.4,59.7c32.9,18.2,72.6,28.3,109.8,20.1C517.8,782.8,527.1,754.7,524.2,734.3z"/>
	<path class="st4" d="M510.8,800.1c4.4,1.5,8.9,2.8,13.5,2.3c4.6-0.6,9.2-3.6,10.1-8.1c0.7-3-0.4-6.2-2.2-8.7s-4.3-4.4-6.9-6.2
		c-4.7-3.3-9.8-6.1-15-8.5c-7-3.2-15.6-5.6-22.1-1.3c-2.7,1.8-4.6,4.6-5.6,7.6c-1.2,3.5-1.1,7.6,0.7,10.8
		C486.6,793.4,502.3,797.3,510.8,800.1z"/>
	<path class="st4" d="M515.6,794.4c1.1,4,4.3,7.5,8.4,8.3c2,0.4,4,0.2,5.9-0.2c1.3-0.3,2.7-0.7,3.9-1.4c3.3-1.9,5.4-5.8,5.3-9.6
		c-0.1-3.8-2.2-7.5-5.3-9.7c-3.4-2.4-8.3-3.5-12.3-2.2c-1.6,0.5-3.4,1.5-4.5,2.8c-0.9,1.2-1.2,2.8-1.5,4.2
		C514.9,789.2,514.9,791.9,515.6,794.4z"/>
	<path class="st4" d="M535.8,808.9c10.1,5,21.4,9.2,32.6,7.2c3.6-0.7,7.6-2.5,8.6-6.1c0.6-2.3-0.3-4.8-1.9-6.6s-3.6-3.1-5.7-4.3
		c-9.5-5.6-19.5-10.3-29.8-14.1c-5-1.8-10.8-3.4-15.5-0.9c-2.1,1.1-3.7,3-4.5,5.2c-0.6,1.6-1.3,3.7-0.8,5.4c0.5,1.8,2,3.3,3.2,4.6
		c1.8,1.9,3.8,3.6,6,5C530.5,806.2,533.1,807.6,535.8,808.9z"/>
	<path class="st5" d="M565,810.5c3.1,1.6,6.6,3,10,2.3c1.3-0.3,2.6-0.9,3.5-1.9c0.9-1,1.2-2.6,0.6-3.8c-0.3-0.7-0.9-1.2-1.4-1.7
		c-3.8-3.6-8.6-6.5-13.8-7.3c-2.1-0.4-5.1-0.8-6.5,1.1c-1.2,1.6-0.8,3.9,0.1,5.6C559,807.5,562.3,809.1,565,810.5z"/>
	<path class="st4" d="M557.5,787.4c11.4,4.7,29.2-4.9,17.7-17c-11.5-8-35.5-17.5-44.6-9.6C516,773.3,540.5,785.5,557.5,787.4z"/>
	<path class="st4" d="M577.9,770.5c11.4,4.7,29.2-4.9,17.7-17c-11.5-8-35.5-17.5-44.6-9.6C536.4,756.4,560.9,768.7,577.9,770.5z"/>
	<path class="st4" d="M560,781.2c2.9,12.9,23.9,10.2,23.4-2.9C582.6,760.9,553.7,762.4,560,781.2z"/>
	<path class="st4" d="M527.4,771.1c1.1,4,4.3,7.5,8.4,8.3c2,0.4,4,0.2,5.9-0.2c1.3-0.3,2.7-0.7,3.9-1.4c3.3-1.9,5.4-5.8,5.3-9.6
		c-0.1-3.8-2.2-7.5-5.3-9.7c-3.4-2.4-8.3-3.5-12.3-2.2c-1.6,0.5-3.4,1.5-4.5,2.8c-0.9,1.2-1.2,2.8-1.5,4.2
		C526.7,765.9,526.7,768.6,527.4,771.1z"/>
	<path class="st4" d="M528.8,778.2c11.4,4.7,29.2-4.9,17.7-17c-11.5-8-35.5-17.5-44.6-9.6C487.3,764.1,511.7,776.3,528.8,778.2z"/>
	<path class="st4" d="M576,791.1c10.1,5,22.2,10.6,33.1,7.4c27.1-7.8-29.9-34.5-40.5-28.3C554.9,779.2,566.5,787.1,576,791.1z"/>
	<path class="st5" d="M605.7,792.8c3.1,1.6,6.6,3,10,2.3c1.3-0.3,2.6-0.9,3.5-1.9c0.9-1,1.2-2.6,0.6-3.8c-0.3-0.7-0.9-1.2-1.4-1.7
		c-3.8-3.6-8.6-6.5-13.8-7.3c-2.1-0.4-5.1-0.8-6.5,1.1c-1.2,1.6-0.8,3.9,0.1,5.6C599.6,789.9,602.9,791.4,605.7,792.8z"/>
	<path class="st4" d="M559,743.1c11.4,4.7,29.2-4.9,17.7-17c-11.5-8-35.5-17.5-44.6-9.6C517.4,729,541.9,741.2,559,743.1z"/>
	<path class="st4" d="M561.4,736.9c2.9,12.9,23.9,10.2,23.4-2.9C584,716.6,555.1,718.1,561.4,736.9z"/>
	<path class="st4" d="M530.3,733.9c11.4,4.7,29.2-4.9,17.7-17c-11.5-8-35.5-17.5-44.6-9.6C488.7,719.8,513.2,732,530.3,733.9z"/>
	<path class="st4" d="M577.4,746.7c10.1,5,22.2,10.6,33.1,7.4c27.1-7.8-29.9-34.5-40.5-28.3C556.4,734.9,568,742.8,577.4,746.7z"/>
	<path class="st5" d="M607.1,748.5c3.1,1.6,6.6,3,10,2.3c1.3-0.3,2.6-0.9,3.5-1.9c0.9-1,1.2-2.6,0.6-3.8c-0.3-0.7-0.9-1.2-1.4-1.7
		c-3.8-3.6-8.6-6.5-13.8-7.3c-2.1-0.4-5.1-0.8-6.5,1.1c-1.2,1.6-0.8,3.9,0.1,5.6C601.1,745.6,604.4,747.1,607.1,748.5z"/>
	<path class="st4" d="M549.2,761.3c11.4,4.7,29.2-4.9,17.7-17c-11.5-8-50.3-20.1-59.4-12.3C492.9,744.6,532.2,759.5,549.2,761.3z"/>
	<path class="st4" d="M580.4,764.4c2.9,12.9,23.9,10.2,23.4-2.9C603,744,574.1,745.5,580.4,764.4z"/>
	<path class="st4" d="M547.8,754.3c1.1,4,4.3,7.5,8.4,8.3c2,0.4,4,0.2,5.9-0.2c1.3-0.3,2.7-0.7,3.9-1.4c3.3-1.9,5.4-5.8,5.3-9.6
		c-0.1-3.8-2.2-7.5-5.3-9.7c-3.4-2.4-8.3-3.5-12.3-2.2c-1.6,0.5-3.4,1.5-4.5,2.8c-0.9,1.2-1.2,2.8-1.5,4.2
		C547.1,749,547.1,751.7,547.8,754.3z"/>
	<path class="st4" d="M596.4,774.2c10.1,5,22.2,10.6,33.1,7.4c27.1-7.8-29.9-34.5-40.5-28.3C575.3,762.4,586.9,770.2,596.4,774.2z"
		/>
	<path class="st5" d="M626.1,775.9c3.1,1.6,6.6,3,10,2.3c1.3-0.3,2.6-0.9,3.5-1.9c0.9-1,1.2-2.6,0.6-3.8c-0.3-0.7-0.9-1.2-1.4-1.7
		c-3.8-3.6-8.6-6.5-13.8-7.3c-2.1-0.4-5.1-0.8-6.5,1.1c-1.2,1.6-0.8,3.9,0.1,5.6C620,773,623.3,774.6,626.1,775.9z"/>
	<path class="st8" d="M405.4,757.6c4.5-26.4,46.9-19.9,67.2-29.8c39.6-13.4,48.1,10.5,33.6,43.5c-26.3,19.5-60.8,18.1-89.3,10.5
		C402.2,777.9,408,763.1,405.4,757.6z"/>
</g>
<g id="рукав_1_">
	<path class="st0" d="M863.4,592.3c27.8,19.1,66.5,87,39.7,136.9c-26.8,49.9-61.2,53.6-75.3,60.1c-14.1,6.5-63.6,21.5-83.8,23.4
		c-20.2,1.9-57.1,3.3-68.9,8.5s-26,6.9-38.1,1.4c-12.1-5.5-13.8,12.4-35.2,15.6c-21.4,3.2-53.4-25.4-69.6-42.7S488.4,740.1,501,724
		c12.5-16,26.9-14.2,31.5-19.1c4.6-4.9,15.5-31.6,34.3-39.4c18.8-7.9,71.8-25.3,88.3-31.9s41.5-38.4,66.3-44.8
		S801,549.3,863.4,592.3z"/>
	<path class="st1" d="M743.1,577.4c40.3-10.4,88.5-10.7,120.9,18.7c-19.7-3-39.1-7.3-58.2-12.9c11.9,7.6,27.8,8.1,38.2,17.6
		c11.7,13.1,20.5,28.7,31,42.8c-22-9.1-42.6-21.4-61-36.4c4.4,2.9,8.1,6.9,10.5,11.7c-79.4,1.6-49.7-36.6-143.2-4.7
		C696.5,599.1,717.3,581.8,743.1,577.4z"/>
	<path class="st3" d="M512.5,733.8c0.8,3.9,3.2,7.2,5.6,10.4c7.4,10,14.8,20.1,22.2,30.1c10.2,13.8,20.5,27.8,34.3,38
		c6.6,4.9,14.6,9.1,22.8,8.1c5.1-0.6,10-3.3,12.8-7.6c2.8-4.3,3.2-10.2,0.6-14.6c-2.8-4.7-8.1-7-12.9-9.5
		c-14.7-7.6-27.2-19.3-35.7-33.5c-2.5-4.2-4.8-8.7-8.6-11.8c-1.9-1.5-4.1-2.6-6.3-3.7c-7.9-3.8-15.7-7.6-23.6-11.4
		c-2.1-1-5.8-3.8-8.3-3.2C512.1,726.1,512,731.4,512.5,733.8z"/>
	<path class="st1" d="M582.5,726.7c2.6,3.7,4.8,7.9,8.7,10.2c2.2,1.3,4.8,1.9,6.3,3.9c1.6,2,1.6,4.9,2,7.4
		c1.8,10.2,11.9,16.4,20.9,21.7c9,5.2,18.7,12.4,19.2,22.7c0.1,2.4-0.3,5,0.9,7.1c2.2,3.9,7.7,3.4,12.2,3.3
		c7.6-0.1,17.4,1.3,20.6-5.6c2.4-5.3-1.7-11.3-6.5-14.7c-4.7-3.4-10.5-5.8-13.5-10.8c-2.9-4.8-2.5-10.7-3.9-16.1
		c-3.1-11.7-14.3-19.2-24.6-25.6c-16.7-10.4-33.5-20.8-50.2-31.3c-3.9-2.5-8.6-5.2-13.4-3.6c-2.9,1-4.9,3.6-4.8,6.7
		c0.1,3.1,2.1,5.7,4.7,7.2c3.9,2.2,7.7,3.9,11.3,6.7C576.3,719.2,579.7,722.7,582.5,726.7z"/>
	<path class="st3" d="M743.1,582.7c12.2-2.8,24.2-6.8,36.6-8.2c12.4-1.4,25.8-0.1,36,7.1c-15.4-1.1-30.7-2.2-46.1-3.3
		c18.1,7.1,36,15.1,53.4,23.9c-27.1,0.3-52-22-78.6-16.7c-10.4,2.1-19.6,8-30,9.7c-2,0.3-5.5,1.1-7.4,0.3c-2.1-0.9,0-2.7,1.3-3.4
		c4.8-2.6,10.6-4,15.9-5.3C730.6,585.2,736.9,584.1,743.1,582.7z"/>
</g>
<g id="рука_1_">
	<path class="st4" d="M428.5,806.2c-2.3-3.2-8.4-23.5-5.9-26.5c4.3-5.2,43.2-14.6,60.7-21.8c21.8-8.8,44.7-8.4,65.9,3.4
		c20.2,12.6,42,32.3,20.8,52.7c-29,24-66.1,41.2-104.2,40.1C443.8,852.6,429.4,826.7,428.5,806.2z"/>
	<path class="st4" d="M453.8,868.3c-4,2.2-8.3,4.4-12.9,4.7s-9.7-1.8-11.4-6.1c-1.2-2.9-0.8-6.2,0.6-9c1.3-2.8,3.4-5.1,5.6-7.3
		c4.1-4.1,8.5-7.8,13.1-11.2c6.3-4.5,14.3-8.4,21.4-5.4c3,1.3,5.4,3.6,7,6.5c1.8,3.3,2.5,7.3,1.3,10.8
		C476.4,857.3,461.7,864,453.8,868.3z"/>
	<path class="st4" d="M475.6,774.1c-11.8-3.8-24.9-18.3-8.6-24.4c14.1-1.8,47.5-3,49.6,12.8C519.1,781,490.8,779,475.6,774.1z"/>
	<path class="st4" d="M448.1,863.7c-0.4,4.1-2.9,8.1-6.7,9.7c-1.8,0.8-3.9,0.9-5.9,0.9c-1.4-0.1-2.8-0.2-4.1-0.7
		c-3.6-1.2-6.3-4.7-6.9-8.5c-0.6-3.8,0.8-7.8,3.4-10.5c2.9-3,7.5-4.9,11.7-4.4c1.6,0.2,3.6,0.8,4.9,1.9c1.1,1,1.7,2.5,2.2,3.9
		C447.8,858.4,448.3,861,448.1,863.7z"/>
	<path class="st4" d="M430.9,881.7c-9,6.8-19.4,13-30.7,13.1c-3.7,0-8-1-9.5-4.4c-1-2.2-0.5-4.8,0.6-6.9s3-3.7,4.8-5.3
		c8.3-7.2,17.2-13.7,26.7-19.3c4.6-2.7,10-5.3,15.1-3.7c2.3,0.7,4.2,2.3,5.4,4.3c0.9,1.5,1.9,3.4,1.8,5.2c-0.1,1.8-1.3,3.6-2.3,5.1
		c-1.4,2.2-3.1,4.2-5,6.1C435.6,878,433.3,879.9,430.9,881.7z"/>
	<path class="st4" d="M452.1,771.1c-9.5,0.3-19.7-0.5-28.4-6.1c-2.8-1.8-5.6-4.7-5.5-7.8c0.1-2,1.5-3.6,3.2-4.5
		c1.7-0.9,3.7-1.1,5.7-1.3c9.1-1,18.4-1.1,27.8-0.3c4.5,0.4,9.6,1.2,12.9,4.9c1.4,1.6,2.3,3.7,2.4,5.7c0.1,1.5,0.1,3.3-0.7,4.5
		c-0.8,1.2-2.4,1.9-3.7,2.5c-1.9,0.9-4,1.4-6.1,1.8C457.2,770.9,454.7,771,452.1,771.1z"/>
	<path class="st5" d="M402.5,888.6c-2.8,2.1-5.9,4.2-9.4,4.1c-1.4,0-2.7-0.4-3.8-1.3c-1-0.9-1.6-2.3-1.3-3.6c0.2-0.7,0.6-1.4,1.1-2
		c3.1-4.2,7.2-7.9,12.2-9.8c2-0.7,4.8-1.7,6.6-0.1c1.5,1.4,1.5,3.7,1,5.5C407.9,884.6,404.9,886.7,402.5,888.6z"/>
	<path class="st5" d="M422.1,757.1c-3.1,0.1-6.2,0.1-7.6-1c-0.5-0.4-0.8-1-0.4-1.6c0.4-0.7,1.4-1.5,2.8-2c0.7-0.3,1.5-0.4,2.2-0.5
		c5.2-0.9,10.2-1.3,14-0.7c1.5,0.3,3.6,0.7,2.8,1.9c-0.6,1-2.8,2.1-4.7,2.7C427.9,756.9,424.8,757,422.1,757.1z"/>
	<path class="st4" d="M405.6,864.5c-10.4,6.7-29.7,0.6-20.6-13.5c9.8-10,31.6-23.8,42.1-17.7C443.8,843,422,859.5,405.6,864.5z"/>
	<path class="st4" d="M382.4,851.7c-10.4,6.7-29.7,0.6-20.6-13.5c9.8-10,31.6-23.8,42.1-17.7C420.6,830.2,398.8,846.7,382.4,851.7z"
		/>
	<path class="st4" d="M402,858.9c-0.5,13.2-21.6,14.4-23.6,1.4C376.1,843.1,404.8,839.2,402,858.9z"/>
	<path class="st4" d="M432.2,842.9c-0.4,4.1-2.9,8.1-6.7,9.7c-1.8,0.8-3.9,0.9-5.9,0.9c-1.4-0.1-2.8-0.2-4.1-0.7
		c-3.6-1.2-6.3-4.7-6.9-8.5c-0.6-3.8,0.8-7.8,3.4-10.5c2.9-3,7.5-4.9,11.7-4.4c1.6,0.2,3.6,0.8,4.9,1.9c1.1,1,1.7,2.5,2.2,3.9
		C431.9,837.7,432.4,840.3,432.2,842.9z"/>
	<path class="st4" d="M432.1,850.1c-10.4,6.7-29.7,0.6-20.6-13.5c9.8-10,31.6-23.8,42.1-17.7C470.3,828.6,448.5,845.2,432.1,850.1z"
		/>
	<path class="st4" d="M388.1,871.5c-9,6.8-19.9,14.5-31.1,13.4c-28.1-2.7,23.1-39.4,34.6-35.3C406.6,856,396.7,865.9,388.1,871.5z"
		/>
	<path class="st5" d="M359.3,878.7c-2.8,2.1-5.9,4.2-9.4,4.1c-1.4,0-2.7-0.4-3.8-1.3c-1-0.9-1.6-2.3-1.3-3.6c0.2-0.7,0.6-1.4,1.1-2
		c3.1-4.2,7.2-7.9,12.2-9.8c2-0.7,4.8-1.7,6.6-0.1c1.5,1.4,1.5,3.7,1,5.5C364.7,874.7,361.7,876.8,359.3,878.7z"/>
	<path class="st4" d="M396,821.2c-10.4,6.7-29.7,0.6-20.6-13.5c9.8-10,31.6-23.8,42.1-17.7C434.2,799.7,412.4,816.2,396,821.2z"/>
	<path class="st4" d="M392.4,815.6c-0.5,13.2-21.6,14.4-23.6,1.4C366.5,799.8,395.2,795.9,392.4,815.6z"/>
	<path class="st4" d="M474.3,762.1c-0.5,13.2-21.6,14.4-23.6,1.4C448.3,746.3,477,742.5,474.3,762.1z"/>
	<path class="st4" d="M422.5,806.9c-10.4,6.7-29.7,0.6-20.6-13.5c9.8-10,31.6-23.8,42.1-17.7C460.7,785.3,438.9,801.9,422.5,806.9z"
		/>
	<path class="st4" d="M378.5,828.2c-9,6.8-19.9,14.5-31.1,13.4c-28.1-2.7,23.1-39.4,34.6-35.3C397,812.7,387.1,822.6,378.5,828.2z"
		/>
	<path class="st5" d="M349.7,835.4c-2.8,2.1-5.9,4.2-9.4,4.1c-1.4,0-2.7-0.4-3.8-1.3c-1-0.9-1.6-2.3-1.3-3.6c0.2-0.7,0.6-1.4,1.1-2
		c3.1-4.2,7.2-7.9,12.2-9.8c2-0.7,4.8-1.7,6.6-0.1c1.5,1.4,1.5,3.7,1,5.5C355.1,831.4,352.1,833.5,349.7,835.4z"/>
	<path class="st4" d="M408.9,837.3c-10.4,6.7-29.7,0.6-20.6-13.5c9.8-10,45.7-29,56.1-23C461.2,810.5,425.3,832.4,408.9,837.3z"/>
	<path class="st4" d="M378.9,846.1c-0.5,13.2-21.6,14.4-23.6,1.4C352.9,830.3,381.6,826.4,378.9,846.1z"/>
	<path class="st4" d="M409,830.1c-0.4,4.1-2.9,8.1-6.7,9.7c-1.8,0.8-3.9,0.9-5.9,0.9c-1.4-0.1-2.8-0.2-4.1-0.7
		c-3.6-1.2-6.3-4.7-6.9-8.5c-0.6-3.8,0.8-7.8,3.4-10.5c2.9-3,7.5-4.9,11.7-4.4c1.6,0.2,3.6,0.8,4.9,1.9c1.1,1,1.7,2.5,2.2,3.9
		C408.7,824.9,409.3,827.5,409,830.1z"/>
	<path class="st4" d="M364.9,858.7c-9,6.8-19.9,14.5-31.1,13.4c-28.1-2.7,23.1-39.4,34.6-35.3C383.5,843.2,373.5,853.1,364.9,858.7z
		"/>
	<path class="st5" d="M336.1,865.9c-2.8,2.1-5.9,4.2-9.4,4.1c-1.4,0-2.7-0.4-3.8-1.3s-1.6-2.3-1.3-3.6c0.2-0.7,0.6-1.4,1.1-2
		c3.1-4.2,7.2-7.9,12.2-9.8c2-0.7,4.8-1.7,6.6-0.1c1.5,1.4,1.5,3.7,1,5.5C341.5,861.9,338.5,864,336.1,865.9z"/>
	<path class="st8" d="M438.2,846.6c-1-1.1,0.1-2.9,1.2-3.9c4.9-4.6,10.8-8.3,17.2-10.6c0.9-0.3,4.5-1.1,3.9,1c-0.4,1.2-4,2-5.1,2.6
		c-4,1.8-7.8,4-11.4,6.5C443.4,842.5,438.1,846.5,438.2,846.6z"/>
	<path class="st8" d="M411.5,833c11.9-5.4,23.7-11.9,31.8-22.1c-1.7-1.4-4.3-0.2-6.2,0.9c-11.5,7.1-23.6,13.3-36.1,18.5
		c-3.6,1.5-7.2,3-10.6,4.8c-1.7,0.9-3.4,1.9-5,3c-1.1,0.8-3.4,2-3.9,3.4c-1,2.5,3.5,3.4,5.1,2.9c1.9-0.5,3.7-1.8,5.5-2.7
		c1.9-0.9,3.9-1.8,5.9-2.7C402.6,836.9,407.1,835,411.5,833z"/>
	<path class="st8" d="M425.9,798.3c3.3-2.3,6.9-6.1,5.5-10c-13.3,12.5-74,29-68.5,41.2C387.4,814.3,401.2,814.4,425.9,798.3z"/>
</g>
<g id="лицо">
	<path class="st4" d="M399.4,223.5c0,0-8,28.8-7,51.2c0.6,14.8,6.8,58.6,46.5,67.2c35.1,7.6,62.2-15.3,74-46.9c6.3-17,8.8-41,8.8-41
		s45.8-7.2,43.6-41.8c-1.7-27.3-35.2-16.4-35.2-16.4s7.8-54.5-45.6-65.1c-47.7-9.4-65.1,39.8-65.1,39.8s-18.8-23.6-34.8-10.2
		C366.3,175.3,374.6,208.6,399.4,223.5z"/>
	<path class="st5" d="M542.6,214.2c-5.2,1.9-10.9,6.8-16.7,18c0,0,0,0,0,0c0,0,0,0.1,0,0.1c-0.6,1.2-1.2,2.4-1.8,3.7
		c-0.2,0.6,0,1.2,0.6,1.4c0.1,0,0.1,0,0.2,0.1c0.5,0.1,1-0.1,1.2-0.6c0.5-1.2,1.1-2.4,1.7-3.5c6.7-9.5,17.2-3.9,17.5-4.4
		c0.3-0.5-5.1-7-11.7-3.5c10.4-14.3,22.7-10.6,22.9-11.2C556.5,213.7,549,211.8,542.6,214.2z"/>
	<path class="st5" d="M406.2,202.8c3.6-25.3-20.2-29.5-20.4-28.9c-0.1,0.6,13.9,3.5,17.4,20.8c-6.5-8.1-14.8-3.1-14.8-2.5
		c0.1,0.6,13.4-0.7,15.6,10.8c0.4,2.7,0.4,4.9,0.9,5C405.1,208.1,405.5,207.7,406.2,202.8z"/>
</g>
<g id="рот_3_">
	<path class="st8" d="M418.8,278.4c0,0,10.6,7.7,13.6,10.5c3,2.9,8.5,6.8,11.7,7.4c3.2,0.6,11.9-2.4,14.7-2.8
		c2.7-0.4,19.1-3.6,19.1-3.6l-20.7-6.9c-2.5-0.8-5.2-0.8-7.6,0.1l-4.9,1.9l-3.3-3.7c-2.2-2.5-5.5-3.8-8.9-3.7L418.8,278.4z"/>
</g>
<g id="рот_2_">
	<path class="st5" d="M468.5,305.1c-0.4-0.8-1.4-1.1-2.2-0.8c-0.1,0.1-13.6,5-24.5,2.2c-11.1-2.8-18.7-11.8-18.8-11.8
		c-0.5-0.7-1.5-1-2.3-0.6c-0.4,0.2-0.7,0.6-0.8,1c-0.1,0.4,0,0.8,0.2,1.2c0.8,1.2,7.8,11.9,20.6,14.6c3.2,0.7,6.1,1,8.9,1
		c8.3,0,14.4-2.6,17.8-4.5c0.1-0.1,0.2-0.1,0.3-0.1c0.4-0.2,0.7-0.5,0.9-0.9C468.8,305.9,468.7,305.5,468.5,305.1z"/>
</g>
<g id="рот">
	<path class="st5" d="M476.3,285L476.3,285c-0.7-0.5-1.8-0.4-2.3,0.3c-0.3,0.3-0.4,0.7-0.3,1.2c0.1,0.4,0.3,0.8,0.6,1.1
		c0,0,0.7,0.6,1.4,2.2c-0.6,0.1-1.4,0.1-2.4,0.3c-4.9,0.5-13.1,1.4-15,1.6c-0.2,0-0.7,0.1-1.6,0.4c-3,0.7-9.9,2.2-12.1,1.8
		c-2.5-0.6-6.9-3.3-10.2-6.5c-2.4-2.3-9.8-7.1-13.1-9.2c1.3-1,2.4-1.7,2.5-1.8c0.5-0.3,0.9-0.9,1-1.5c0.1-0.4,0-0.7-0.2-1
		c-0.5-0.7-1.5-0.9-2.3-0.5c-0.3,0.2-7.2,4.4-8.9,9c-0.1,0.4-0.1,0.8,0.1,1.2c0.2,0.4,0.5,0.7,1,0.9c0.1,0,0.2,0.1,0.4,0.1
		c0.8,0.1,1.5-0.3,1.7-1c0.4-1,1.1-2.1,2.2-3.2c3.5,2.2,11,7.1,13.3,9.3l0.2,0.2c2.9,2.7,7.7,7.3,11.4,8.2l0.1-0.5l0.1,0.5
		c0.3,0.1,0.7,0.1,1.1,0.1c3.1,0,8.9-1.7,12.1-2.7c0.8-0.2,1.6-0.5,1.7-0.5c1.5-0.2,6.6-0.7,11.2-1.2c2.9-0.3,5.4-0.6,6.6-0.7
		c0.2,1.1,0.2,2.2,0.2,3.4c0,0.8,0.5,1.4,1.3,1.6c0.1,0,0.2,0,0.3,0c0.5,0,0.9-0.2,1.2-0.5c0.3-0.3,0.5-0.7,0.5-1.1
		C480.2,288,476.5,285.2,476.3,285z"/>
</g>
<g id="рот_1_">
	<g>
		<path class="st5" d="M444.4,286.1c-4.6-1-7.7-6.2-7.8-6.4c-0.3-0.5-0.1-1.2,0.5-1.5c0.6-0.3,1.3-0.1,1.6,0.5c0,0,2.7,4.5,6.2,5.3
			c3.5,0.8,7.3-2.3,7.4-2.3c0.5-0.4,1.2-0.3,1.6,0.1c0.4,0.5,0.4,1.2-0.1,1.5C453.6,283.5,449.1,287.1,444.4,286.1z"/>
	</g>
</g>
<g id="ноздри">
	<path class="st5" d="M474.9,256c-0.1-0.7-0.8-1.3-1.5-1.2c-0.7,0.1-1.3,0.8-1.2,1.5c0,0.1,2.1,7.4-2.2,10.1c-3.4,2.1-7.4,1-9.7,0.2
		c0.6-0.8,0.9-1.4,0.9-1.4c0.3-0.7,0.1-1.5-0.6-1.8c-0.7-0.3-1.5-0.1-1.8,0.6c-0.1,0.1-0.6,1.1-1.6,2.2c0,0,0,0,0,0
		c-1.8,2-5,3.7-10.4,2.5c-8.2-1.9-6.9-10.5-6.8-10.9c0.1-0.7-0.4-1.4-1.1-1.6c-0.7-0.1-1.5,0.4-1.6,1.1c-0.3,1.5-0.3,3.6,0.1,5.7
		c-2.2,0.2-5.6,0-7.5-4.1c-2.5-5.6,1.9-9.3,2.1-9.5c0.6-0.4,1.9-2.2,1.5-2.8c-0.4-0.6-2.2-0.1-2.8,0.3c-3,2-6.9,6.8-4.1,13
		c2,4.5,6.1,5.8,9.5,5.9c0.8,0,1.5,0,2.2-0.1c1.2,2.8,3.5,5.3,7.7,6.3c1.1,0.3,2.1,0.4,3.1,0.4c4.3,0.1,7.3-1.7,9.3-3.6
		c1.4,0.6,4.2,1.6,7.3,1.7c1.9,0.1,4-0.2,5.8-1.2C477.8,266.1,475,256.4,474.9,256z"/>
</g>
<g id="нос">
	<g>
		<path class="st5" d="M442.4,244.1c-0.3,0-0.6-0.1-0.8-0.2c-0.7-0.4-0.9-1.4-0.5-2.1c0.1-0.1,5.4-8.5,7.3-14.3
			c3.1-9.5,2.4-21.2,2.4-21.3c-0.1-0.8,0.6-1.5,1.4-1.6c0.8,0,1.5,0.6,1.6,1.4c0,0.5,0.7,12.3-2.5,22.4c-2,6.2-7.4,14.6-7.6,15
			C443.4,243.9,442.9,244.1,442.4,244.1z"/>
	</g>
</g>
<g id="яблоко_1_">
	<path class="st9" d="M434.6,204.2c-11.7-5.6-19.9,2.9-19.9,2.9s-2.3,8.7,10.7,14.6c13,5.9,19,1.1,19,1.1S446.3,209.9,434.6,204.2z"
		/>
</g>
<g id="яблоко">
	<path class="st9" d="M511.5,229c0,0-4-12-16.9-12s-16.7,13.2-16.7,13.2s3.3,7,17.6,7.3C509.7,237.8,511.5,229,511.5,229z"/>
</g>
<g id="зрачрк">
	<circle class="st5" cx="495.2" cy="226" r="7.5"/>
</g>
<g id="зрачок">
	<circle class="st5" cx="430.8" cy="211.6" r="7.5"/>
</g>
<g id="ни_веко">
	<path class="st8" d="M477.9,230.2c0,0,3.6,8.6,17.7,8.2c15-0.4,16-9.4,16-9.4s-1.9,7.9-15.3,8.5
		C482.8,238.1,477.9,230.2,477.9,230.2z"/>
</g>
<g id="н_веко">
	<path class="st8" d="M444.5,223.1c0,0-7,6.1-19.5-0.3c-13.3-6.9-10.3-15.4-10.3-15.4s-1.7,7.8,10.1,14.1S444.5,223.1,444.5,223.1z"
		/>
</g>
<g id="веко">
	<path class="st5" d="M511.4,226.9c0-0.1-3.3-9.9-16.8-9.9c0,0,0,0-0.1,0c-13.4,0-17.6,12.9-17.6,13l-0.9,2.9l2.3-2
		c0.1-0.1,9.6-8.1,17.7-7.4c8.2,0.7,14,4.3,14.1,4.4l2,1.3L511.4,226.9z"/>
</g>
<g id="веко_1_">
	<path class="st5" d="M434.7,204.2c-12.1-5.8-18.9,0.9-19.2,1.2l-1.4,1.4l1.9,0.1c0.1,0,7.5,0.4,15.3,3.3c7.6,2.9,12.2,12.9,12.3,13
		l1.3,2.8l0.4-3C445.4,222.9,446.9,210,434.7,204.2z"/>
</g>
<g id="тень">
	<path class="st8" d="M479,215.2c1,2.3,11.1-1.4,17.5-1.8c6.4-0.3,16.6,7.6,19.7,5.8s-7.9-13.2-18.3-13.2
		C487.6,206,477.3,211.1,479,215.2z"/>
</g>
<g id="тень_1_">
	<path class="st8" d="M449.9,209c-1.9,1.7-9.4-6-15.1-9s-18.2-0.2-20.3-3.1c-2.1-3,12.8-8.6,22.2-4.2S453.2,206,449.9,209z"/>
</g>
<g id="бровь_1_">
	<path class="st5" d="M476.1,205.1c3.7,3.9,14.3-4.2,22.3-4.2c10.6-0.1,22.5,7.6,24.5,5.4c1.4-1.5-8.6-13.4-25.1-12.7
		C481.3,194.1,472.1,200.9,476.1,205.1z"/>
</g>
<g id="бровь">
	<path class="st5" d="M452.7,199.9c-4.9,2-11.3-9.7-18.5-13.1c-9.6-4.5-23.6-2.4-24.5-5.3c-0.7-2,13.4-8.6,28.2-1.2
		C452.6,187.7,458.1,197.7,452.7,199.9z"/>
</g>
<g id="пряд_справа">
	<path class="st5" d="M519.7,182.3c0,0-3,27.1-5.4,42.1c-2.4,15-12.2,52.1-6.3,74.7c5.9,22.6,20.8,36.8,38.3,31.2
		c17.5-5.6,23.7-23.7,17.6-40.7c-6.1-17-20.4-33.2-23.2-56.7c-2.8-23.5,4.6-55.2,4.6-55.2L519.7,182.3z"/>
	<path class="st6" d="M518.2,230.4c-1.3,7-2.6,14-3.2,21.1c-1.1,14,0.7,28.1,2.5,42c1.2,8.9,3,18.9,10.4,24.1
		c4.8,3.4,11.5,3.8,16.7,1.1c5.2-2.7,8.7-8.4,8.8-14.2c-3.6,0.1-7.3,0.1-10.9,0.2c1.2-2.6,2.3-5.2,3.5-7.8c-3.4,0.6-6.8-1.4-8.9-4.2
		c-2.1-2.8-3.1-6.1-4.1-9.5c-3.3-11-6.5-22.3-5.5-33.7c0.5-5,1.7-10,2.5-15c0.9-6.2,0.9-12.4,0.9-18.6c0-4.4,0-8.9,0-13.3
		c0-1.5,0.6-5.3-0.6-6.2c-0.9-0.6-3-0.2-3.9,0.3c-2.1,1.2-2.4,4-2.8,6.1c-0.8,4.1-1.5,8.2-2.3,12.3
		C520.1,220.1,519.1,225.3,518.2,230.4z"/>
</g>
<g id="прядь_слева">
	<path class="st5" d="M405.3,146.3c0,0-13,43.3-21.7,55.9s-40.8,44.6-44.6,58.9c-3.8,14.3-2.7,25.8,5.6,32.2
		c11.2,8.5,32.9,2.1,39.6-9.1c17.4-29.4,17.8-77.8,41.3-129L405.3,146.3z"/>
	<path class="st6" d="M375.1,256.1c-3.9,8.3-8.8,17.3-17.5,20c-2.2,0.7-5.1,0.6-6.1-1.5c-0.3-0.6-0.4-1.4-0.4-2.1
		c-0.3-8.3,2.9-16.7,8.5-22.8c2.4-2.6,5.2-4.8,7.8-7.2c8.1-7.5,14-16.9,18.9-26.7c5.1-10.1,9.2-20.7,14.1-30.9
		c2.4-5.1,5.1-10.1,8.1-14.8c0.7-1.2,2.8-5.7,4.4-3c1.1,1.8-1.8,6.5-2.6,8.3c-5.2,12.8-10.6,25.6-16.1,38.3
		c-5.5,12.6-11.2,25.2-17,37.7C376.6,253,375.8,254.5,375.1,256.1z"/>
</g>
<g id="челка">
	<path class="st5" d="M522.2,94c0,0-29.8-8.8-51.3-3.6c-21.4,5.3-31.4,21-31.4,21s-40.7,0.7-39.2,31.2c1.6,33.9,39.6,22.3,39.6,22.3
		s-0.2,17.6,24.3,22.9c22.1,4.8,32.2-8.3,32.2-8.3s12.5,21.6,36.9,15.4c27.6-6.9,26.6-30.4,25.6-35.1c-1.1-4.7-4.8-26.2-38.2-26.6
		C520.7,133.3,546.2,107.6,522.2,94z"/>
	<path class="st6" d="M410.5,126.3c-6.9,6.8-9.9,17.3-7.7,26.7c0.9-5.3,5.4-9.7,10.7-10.5c-3.7,2.8-5.8,7.6-5.4,12.2
		c2.6-2.3,5.2-4.7,7.8-7c-1.2,3-0.8,6.5,1,9.2c1.8-1,3.6-2,5.4-2.9c5,3.9,12.8,3.4,17.3-1c2.2,9.2,7.8,17.5,15.4,23
		c-1.8-5-1.2-10.7,1.5-15.3c-2,2.8-1.2,7.2,1.7,9.1c2.9,1.9,7.3,0.9,9.1-2c-0.3,1.4-0.6,2.8-0.9,4.1c2,0.6,4.4,0,5.9-1.6
		c0.8,3.2,5.3,2.9,8.4,1.9c9.2-2.9,18.3-5.8,27.5-8.6c-5.2,4.5-4.6,14,1.1,17.8c2.2-3.3,5-6.2,8.2-8.6c-1.3,2.1-2.1,4.6-2.1,7
		c2.3-1.5,5.7-1.2,7.6,0.8c4-3.3,10-3.8,14.4-1.2c1.9-2.9,3.9-5.8,5.8-8.7c-3,2.7-8.5,2-10.7-1.4c-2.2-3.4-0.7-8.7,3-10.3
		c-3.9,1.8-7.8,3.7-11.7,5.5c1.6-1.9-0.8-5.5-3.2-4.6c2.7-10,10-18.6,19.4-23c-13.6-2.6-28.4,3.2-36.7,14.3c0.1-1.3-1.7-2-2.9-1.5
		c-1.2,0.6-1.8,1.9-2.3,3.1c-0.8-4.4-8-5.5-10.1-1.6c-0.7-1.4-1.4-2.8-2.2-4.1c-1.4,0.1-2.7,0.8-3.5,1.9c-0.2-3.7,0.3-7.4,1.3-10.9
		c-4,1.9-7.9,4.2-11.6,6.8c0.7-1.9,1.4-3.7,2-5.6c-5.3-1.1-11,0.6-14.8,4.4c0.5-1.1,1.1-2.4,0.7-3.5c-0.4-1.2-2.3-1.7-2.8-0.6
		c7.3-7.3,17.1-12,27.4-13.1c-8-2.3-16.6-3.6-24.5-1.1c-7.9,2.4-14.9,9.3-15.5,17.6c1.4-2.3,2.7-5,1.7-7.5c-1-2.5-5.4-3-6-0.4
		c1.1-1.9-2-3.4-4.2-3.2c-2.2,0.2-5.3-0.3-5.1-2.5c0.1-0.7,6.6-2.3,7.4-2.6c2.6-0.8,5.3-1.3,7.9-2.2c-2.6-2.4-6.6-3.3-9.9-4.6
		c-2.6-1.1-4.9-1.5-7.8-1.3C422,118.8,415.3,121.6,410.5,126.3z"/>
</g>
</svg>
