<?xml version="1.0" encoding="utf-8"?>
<!-- Generator: Adobe Illustrator 25.2.1, SVG Export Plug-In . SVG Version: 6.00 Build 0)  -->
<svg version="1.1" xmlns="http://www.w3.org/2000/svg" xmlns:xlink="http://www.w3.org/1999/xlink" x="0px" y="0px"
	 viewBox="0 0 998.21 973.21" style="enable-background:new 0 0 998.21 973.21;" xml:space="preserve">
<style type="text/css">
	.st0{fill:#7786A5;}
	.st1{fill:#677490;}
	.st2{fill:#404B62;}
	.st3{fill:#404B62;stroke:#404B62;stroke-width:3;stroke-miterlimit:10;}
	.st4{fill:#C8315C;}
	.st5{fill:#1B2334;}
	.st6{fill:#352745;}
	.st7{fill:#282F3D;}
	.st8{fill:#AD3255;}
	.st9{fill:#FFFFFF;}
</style>
<g id="тело">
	<path class="st0" d="M299.34,290.64c-34.47,30.15-34.25,62.35-55.93,84.78c-12.43,12.86-30.99,39.93-48.78,65.71
		c-13.24,19.18-26.04,37.64-35.58,48.99c-25.03,29.8-59.6,84.89-59.9,105.19c-0.3,20.3-33.73,74.26-17.4,120.07
		c16.33,45.81,93.69,68.67,135.04,32.25s43.56-94.97,58.55-133.81c15-38.84,61.06-103.28,73.39-153.54
		c16.86-68.75,2.03-85.24-12.21-110.65C322.29,324.23,299.34,290.64,299.34,290.64z"/>
	<path class="st0" d="M678.38,345.54c24.35,38.78,38.46,36.56,48.82,64.66c6.19,16.78,5.49,40.08,15.11,69.88
		c7.16,22.17,14.12,43.54,19.99,57.15c15.41,35.74,32.68,98.44,27.13,117.97c-5.54,19.53-8.89,57.48-37.7,96.67
		c-28.81,39.19-114.46,60.52-143.6,13.76s10.42-101.84,7.22-143.35c-3.2-41.51-28.8-116.47-26.16-168.16
		c3.61-70.69,22.56-82.23,43.5-102.47C653.64,331.42,678.38,345.54,678.38,345.54z"/>
	<path class="st0" d="M327.89,261.43c-40.4,25.11-53.64,57.22-66.91,93.49s73.2,76.97,61.82,122.09s-28.66,72.55-31.08,95.55
		c-2.42,23-48.57,124.87-28.61,162.61c24.92,47.11,112.04,5.01,203.9,14.55c103.47,10.74,188.68,26.83,207.29-6.51
		c21.96-39.34,1.12-91.47,0.9-124.77c-0.26-38.22-38.21-116.09-31.13-144.96c6.14-25.05,92.1-30.37,82.37-69.3
		c-9.73-38.93-35.07-68.85-63.7-84.93c-36.27-20.38-93.17-76.74-163.95-81.17C428,233.66,373.76,232.92,327.89,261.43z"/>
	<path class="st1" d="M300.2,402.63c-0.85,1.79-1.7,3.58-2.55,5.37c-11.35-14.35-26.71-25.49-43.88-31.82
		c11.39,21.02,22.77,42.04,34.16,63.05c6.26,11.56,12.61,23.37,14.89,36.31c-6.36-1.81-13.77,2.74-15.03,9.23
		c-0.67,3.47,0.21,7.02,0.48,10.54c0.4,5.13-0.5,10.26-1.4,15.33c-3.47,19.58-6.93,39.17-10.4,58.75
		c-1.22,6.88-2.38,14.26,0.47,20.63c0.6,1.34,2.15,6.18,3.51,6.74c3.53,1.45,6.41-3.08,7.57-6.71c8.42-26.39,16.11-56.29,24.46-82.7
		c2.08-6.59,4.16-13.17,6.24-19.76c1.54-4.88,3.25-9.9,3.53-15.06c0.21-3.87-0.66-7.58-1.71-11.27c-1.63-5.77-3.29-11.54-5.03-17.28
		c-2.15-7.07-4.51-14.08-7.07-21c-1.28-3.46-2.62-6.91-4.01-10.33C304.02,411.63,299.8,403.04,300.2,402.63z"/>
	<path class="st1" d="M230.49,527.61c5.98,11.9,14.64,22.43,25.16,30.6c-34.81-11.3-71.29-22.75-107.38-16.69
		c13.79,2.46,27.58,4.93,41.37,7.39c-19.38,4.07-39.99,8.79-53.71,23.06c8.85,1.42,17.65-2.03,26.43-3.87
		c20.89-4.37,42.6,0.49,62.84,7.25c10.82,3.61,21.45,7.76,32.25,11.42c5.46,1.85,10.97,3.57,16.54,5.03
		c2.02,0.53,10.06,3.8,11.48,1.33c1.16-2.01-2.41-6.59-3.35-8.13c-2.51-4.16-4.68-8.39-6.85-12.73
		c-4.53-9.03-10.76-16.86-18.09-23.79C248.95,540.72,239.71,534.13,230.49,527.61z"/>
	<path class="st1" d="M661.02,410.2c-28.17,29.38-11.92-99.15-28.19-61.67c6.06-26.13-149.28,84.12-146.34,57.47
		c-17.89,22.8-2.11,66.67-21.62,119.76c-16.14,15.4,67.83,81.66,46.7,89.11c-10.28,0.98-22.51,25.78,7.22,26.45
		c-21.24,11.85,10.47,28.41-16.04,22.73c-14.71-3.97-37.1,11.96-50.61,4.2c-24.83-15.84-45.31-36.76-68.96-54.28
		c-12.92-6.4-27.58-8.4-41.38-12.29c-16.84-6.13-34.59-13.38-53.03-13.01c-15.56,5.3,5.52,34.16,8.61,44.2
		c16.49,31.71,40.7,59.52,70.36,79.53c15.16,13.25,177.75,44.86,196.32,47.29c114.34,14.92,106.64-11,110.26-16.47
		c9.92-31.88-70.81-165.3-81.15-198.27C590.68,516.87,684.74,425.78,661.02,410.2z"/>
	<path class="st2" d="M661.02,410.2c-11.15,22.99-18.06,48.04-20.27,73.49c-1.05-19.31-0.31-25.52-1.36-44.82
		c0.42-3.26,0.17-20.73-3.29-17.82c-3.53,20.74-4.94,41.88-0.27,62.36c-2.18-4.13-4.94-7.95-8.18-11.31
		c1.65,1.72,2.74,4.87,3.83,6.99c1.45,2.81,2.81,5.66,4.07,8.55c2.72,6.21,5.02,12.6,6.87,19.12c3.24,11.41,4.37,22.84,5.69,34.54
		c0.66,5.86,1.18,11.74,1.75,17.61c1.16,11.83,2.33,23.66,3.49,35.49c0.37,3.8,0.74,7.65,0.1,11.41c-0.59,3.48-2.04,6.76-2.8,10.2
		c-1.52,6.84-0.21,14.25,3.55,20.16c3.27,5.13,7.9,5.63,13.52,4.84c5.26-0.74,12.35-1.82,16.1-6.05c5.18-3.41-4.45-29.86-5.62-35.82
		c-8.1-41.44-11.94-42.08-22.92-83.67c-2.55-9.65-6.17-21.45-10.48-30.34C644.46,459.37,664.01,436.45,661.02,410.2z"/>
	<path class="st2" d="M311.38,511.86c4.85-14.01,9.87-28.09,11.93-42.77c2.05-14.68-14.54-59.4-21.44-72.52
		c-0.23,18.88,15.03,66.92,14.8,85.8c-5.17-6.12-10.35-12.23-15.52-18.35c1.48,10.18,2.88,20.37,4.19,30.58
		c0.42,3.29,0.75,6.94-1.18,9.64s-7.06,2.92-7.99-0.27c-0.64,14.15-2.99,28.23-6.99,41.82c-4.09,13.89-9.96,27.79-8.97,42.23
		c1.35,0.53,2.78,1.3,4.18,1.63c1.37,0.33,1.42,0.17,1.92-1.16c1.01-2.71,1.72-5.58,2.58-8.34c1.73-5.56,3.49-11.11,5.26-16.65
		c3.57-11.14,7.22-22.25,10.96-33.34c1.04-3.08,2.08-6.16,3.14-9.24c0.52-1.51,1.04-3.02,1.56-4.53
		C310.24,515.14,311.38,513.18,311.38,511.86z"/>
	<g id="муть">
		<polygon class="st3" points="343.22,545.99 384.74,444.82 389.04,514.93 423.48,448.21 432.09,537.07 417.33,538.92 
			419.25,470.07 387.66,539.23 381.97,539.84 379.82,472.19 360.14,541.69 		"/>
		<polygon class="st3" points="332.63,570.92 611.37,521.7 335.84,541.99 		"/>
		<g>
			<path class="st3" d="M460.96,534.61c-15.87,0-17.71-17.52-16.81-17.64c0.9-0.12,3.49,14.54,18.55,13.05
				c3.63-0.36,6.95-2.09,9.31-5.18c6.62-8.64,7.16-24.69,6.41-37.36c-1.34,6.61-2.72,14.9-7.11,19.15c-2.75,2.67-6.8,4.79-10.45,4.7
				c-3.78-0.09-8.07-2.39-10.33-5.23c-7.62-9.58-1-35.27-0.12-35.09c0.89,0.18-3.04,21.04,3.63,29.43c1.65,2.08,3.82,3.12,6.62,3.19
				c2.85,0.06,5.2-0.9,7.32-2.96c8.61-8.35,9.49-30.23,10.34-30.3c0.86-0.07,11.71,42.46,0.12,58.36
				c-5.75,7.88-10.38,5.3-14.89,5.74C462.64,534.57,461.78,534.61,460.96,534.61z"/>
		</g>
		<path class="st3" d="M541.71,468.16c-3.51-1.95-16.1-1.88-25.81-1.24c-6.47,0.43-21.86,1.8-25.07,5.24
			c-5.03,5.4,0.61,15.67,1.2,15.67c0.25,0-2.34-7.68,1.12-11.38c1.66-1.78,7.83-3.35,18.28-4.13l3.98,56.06
			c0,0.9-9.67,1.64,1.64,1.64c0.9,0,1.64-0.73,1.64-1.64l1.99-56.39c9.69-0.56,16.91-0.29,19.37,1.08c4.15,2.31,1.23,9.03,2.05,9.39
			C542.92,482.83,547.12,471.17,541.71,468.16z"/>
		<g>
			<path class="st3" d="M556.29,527.13c-0.39,0-0.78-0.14-1.08-0.4c-0.35-0.31-12.34,1.24-6.25,0.4c0,0,4.58-60.61,5.48-60.61
				s2.68,13.44,2.68,13.44c2.23,0.53,7.72,2.22,12.51,4.76c8.84,4.68,13.72,11.33,14.13,19.23c0.41,8.01-4.25,14.57-13.5,18.98
				c-6.73,3.21-13.46,4.15-13.75,4.19C556.44,527.12,556.36,527.13,556.29,527.13z M557.27,483.73l0.66,39.8
				c5.82-1.19,19.78-6.4,19.08-19.9C576.31,490.11,562.93,485.21,557.27,483.73z"/>
		</g>
	</g>
</g>
<g id="капющон">
	<path class="st1" d="M368.76,346.59c1.32,3.78,2.2,7.94,5.04,10.76c1.73,1.72,4.02,2.74,6.01,4.16c8.32,5.9,10.22,17.2,14.91,26.26
		c4.57,8.81,12.32,15.94,21.48,19.75c7.59,3.16,16.8,4.65,21.24,11.56c0.94,1.46,1.65,3.16,3.07,4.16c1.41,1,3.24,1.11,4.96,1.18
		c23.01,1.03,46.03,2.06,69.04,3.09c1.4,0.06,3.04,0.03,3.9-1.08c0.75-0.95,0.63-2.35,1.28-3.36c0.83-1.28,2.57-1.53,4.09-1.66
		c8.92-0.74,17.85-1.48,26.77-2.22c2.39-0.2,4.89-0.43,6.92-1.72c1.65-1.05,2.82-2.69,3.94-4.3c6.15-8.77,12.29-17.53,18.44-26.3
		c2.84-4.05,5.72-8.15,9.54-11.29c3.86-3.18,8.49-5.23,12.86-7.66c18.27-10.13,23.76-10.16,36.98-26.34
		c4.01-4.91,8.09-9.93,10.32-15.86c2.24-5.93,2.35-13.03-1.3-18.21c-4.95-7.04-6.74-24.89-15.24-23.54
		c-19.76,3.12-38,16.92-57.79,14c-13.9-2.05-25.18-11.98-38.05-17.61c-12.09-5.28-25.47-6.7-38.59-8.04
		c-22.44-2.31-45.24-4.6-67.45-0.64c-12.2,2.18-24.14,6.23-36.52,6.65c-11.61,0.4-23.19-2.35-34.75-0.28
		c-6.42,1.15-13.44,2.87-18.4,7.39c-4.66,4.24-6.26,10.41-6.59,16.5c-0.23,4.28-0.26,8.9,1.76,12.8c2.5,4.84,7.27,6.33,11.83,8.64
		C357.84,328.15,365.29,336.64,368.76,346.59z"/>
	<path class="st0" d="M447.11,425.65l56.01,1.42c0,0,1.67-11.43,10.53-13.89c12.96-3.6,32.72-1.65,44.55-17.4
		c7.82-10.41,21.62-47.77,39.9-49.75s50.21-25.37,64.72-57.58c8.89-19.74,2.83-39.19-7.28-53.03c-3.4-4.65-9.42-4.69-13.32-7.88
		c-3.43-2.8-6.14-9.29-12.67-12.31c-17.52-8.09-57.06-21.27-112.04-21.56c-62.54-0.33-106.08,3.71-128.66,15.08
		c-15.44,7.77-23.88,18.04-31.58,35.35c-3.57,8.02-13.16,6.39-16.85,29.02c-3.58,21.93,15.72,48.18,43.04,68.89
		c14.35,10.88,12.33,46.54,25.71,56.46c9.2,6.82,23.01,6.9,31.21,13.31C444.08,414.69,446.65,418.91,447.11,425.65z"/>
	<path class="st1" d="M458.86,410.26c0.9,1.74,1.87,3.53,3.46,4.67c1.99,1.43,4.59,1.6,7.05,1.71c3.87,0.18,7.74,0.36,11.61,0.54
		c1.71,0.08,3.51,0.14,5.01-0.69c1.37-0.75,2.26-2.13,3.09-3.45c8.31-13.13,16.62-26.27,24.93-39.4
		c4.67-7.38,9.37-14.83,12.37-23.03c1.89-5.18,3.09-10.65,5.72-15.5c4.47-8.26,12.52-13.82,19.99-19.51
		c21.95-16.73,41.01-36.9,59.95-56.97c5.3-5.62,11.02-12.99,8.42-20.26c-1.32-3.7-4.6-6.37-8.06-8.22
		c-4.56-2.43-9.69-3.77-14.86-3.88c-5.42-0.11-10.78,1.11-16.19,1.35c-7.4,0.33-14.74-1.16-22.06-2.27
		c-37.99-5.76-76.7-1.43-114.88,2.9c-10.34,1.18-20.69,2.35-31.03,3.53c-6.7,0.76-14.1,1.88-18.4,7.07
		c-3.65,4.39-3.84,10.34-2.79,15.71c0.56,2.83,1.69,5.5,2.26,8.32c0.46,2.3,0.97,3.94,2.27,5.96c6.79,10.47-1.36,16.93,3.84,28.27
		c5.2,11.33,9.87,24.49,14.23,36.16c4.41,11.79,22.62,26.53,27.14,38.28c4.51,11.71,9.31,23.33,14.87,34.58
		C457.46,407.51,458.16,408.89,458.86,410.26z"/>
	<ellipse class="st2" cx="451.58" cy="436.6" rx="4.37" ry="9.64"/>
	<ellipse class="st2" cx="505.31" cy="436.6" rx="4.37" ry="9.64"/>
	<g>
		<path class="st2" d="M452.24,437.52c-5.44,8.54-1.72,18.83,0.42,27.8c1.26,5.29,1.88,10.43,1.1,15.85
			c-0.83,5.75-2.42,11.38-2.61,17.21c-0.19,6.04,0.81,12.02,1.4,18.01c0.59,6,0.86,12.03,0.8,18.06
			c-0.06,5.98-0.46,11.94-1.14,17.87c-0.62,5.35-1.39,10.7-1.57,16.1c-0.19,5.91,0.38,11.93,2.71,17.42
			c0.56,1.31,1.28,2.54,1.88,3.83c0.53,1.14,1.05,2.59,0.26,3.74c-0.54,0.78-0.75,0.6-1.22,0.12c-0.23-0.23-0.03-0.17-0.05-0.3
			c0.03,0.37-0.28,0.07,0.04,0.17c0.43,0.14,0.94,0,1.17,0.56c0.48-0.63,0.96-1.27,1.45-1.9c-0.87,0.06-1.31-1.75-0.51-1.99
			c1.84-0.55,1.06-3.45-0.8-2.89c-4.04,1.22-2.99,8.19,1.3,7.88c0.85-0.06,1.85-0.93,1.45-1.9c-0.89-2.14-3.47-3.59-5.69-2.32
			c-1.9,1.08-1.69,3.69-0.3,5.1c1.69,1.72,4.26,1.07,5.57-0.76c1.66-2.32,0.91-5.07-0.27-7.41c-1.3-2.57-2.42-5.08-3.08-7.9
			c-0.68-2.91-0.93-5.88-0.95-8.86c-0.04-5.97,0.81-11.91,1.51-17.83c1.59-13.38,1.61-26.82,0.08-40.2
			c-0.76-6.63-1.56-13.25-0.54-19.89c0.97-6.28,2.81-12.51,2.48-18.92c-0.32-6.19-2.33-12.13-3.66-18.14
			c-1.28-5.73-1.94-11.83,1.36-17.01C455.87,437.4,453.27,435.89,452.24,437.52L452.24,437.52z"/>
	</g>
	<g>
		<path class="st2" d="M502.75,439.09c1.96,20.47,3.92,40.99,4.08,61.57c0.04,5.05-0.03,10.11-0.24,15.16
			c-0.21,5.03-0.61,10.06-0.74,15.09c-0.12,4.96,0.06,9.94,0.99,14.82c0.84,4.45,2.75,9.21,1.44,13.75
			c-0.74,2.54-2.26,4.74-2.72,7.38c-0.45,2.61-0.23,5.21,0.14,7.82c0.79,5.58,1.75,11.14,2.62,16.71c0.48-0.63,0.96-1.27,1.45-1.9
			c-1.14-0.04-1.48-2.47-0.38-2.82c1.83-0.58,1.05-3.48-0.8-2.89c-4.36,1.38-3.39,8.55,1.18,8.71c1.07,0.04,1.59-0.98,1.45-1.9
			c-0.78-4.97-1.57-9.94-2.35-14.9c-0.36-2.27-0.7-4.56-0.55-6.87c0.16-2.43,1.22-4.47,2.15-6.68c1.86-4.4,1.15-8.86,0.1-13.37
			c-1.13-4.88-1.74-9.7-1.76-14.71c-0.02-4.93,0.35-9.86,0.61-14.78c0.27-5.13,0.4-10.26,0.41-15.39
			c0.02-10.2-0.43-20.39-1.12-30.57c-0.78-11.43-1.87-22.83-2.96-34.24C505.56,437.18,502.56,437.17,502.75,439.09L502.75,439.09z"
			/>
	</g>
</g>
<g id="шея">
	<path class="st4" d="M428.02,289.7c-3.73,7,23.06,45.75,26.9,62.23c3.84,16.48,9.15,64.87,19.58,64.93
		c10.44,0.05,29.15-62.38,33.99-71.44c4.84-9.07,32.45-58.68,24.75-67.31C525.56,269.47,435.28,276.1,428.02,289.7z"/>
</g>
<g id="волосы_сзади">
	<path class="st5" d="M618.74,336.24c0.88-8.47,4.95-26.08,7.49-36.54c4.57-2.55,9.11-5.87,13.42-10.21
		c19.99-20.15,19.73-34.71,19.73-34.71s25.5,7.21,24.49-19.44c0,0,27.1-12.58,18.19-35.18c-8.9-22.6-28.29-15.79-28.29-15.79
		s0.33-7.27-12.05-13.59c-12.73-6.5-21.7,3.58-21.7,3.58s-61.08-52.96-102.5-17.39c0,0,0-0.01,0-0.01s-38.69,16.78-51.49,21.83
		c-24.85,9.8-58.73,6.45-66.47,15.55c-7.74,9.1-9.44,15.35-7.9,23.37c1.54,8.01,16.18,15.91,20.73,14.78
		c3.7-0.92,59.89-31.77,87.22-52.5c-22.88,43.44,0.41,96.72,59.91,125.43c0,0,0.23,0.07,0.62,0.17
		c-9.77,28.55-17.06,62.51-17.36,65.44c-0.41,4.08,7.05,9.4,15.34,10.93c8.29,1.53,12.77-10.91,12.77-10.91s4.68,8.34,12.44,8.87
		c7.75,0.52,11.01-4.04,13.96-8.18S617.45,348.72,618.74,336.24z"/>
	<path class="st6" d="M648.48,212.22c4.5,3.01,8.55,7,10.49,12.05s1.42,11.27-2.27,15.23c-1.39,1.49-3.33,3.35-2.39,5.16
		c0.73,1.43,3.06,2.84,1.85,3.89c0.68-1.66,3.58-0.97,4.58-2.47c0.42-0.63,0.35-1.45,0.47-2.2c0.7-4.39,7.21-5.16,9.25-9.1
		c1.42-2.74,0.24-6.03-0.16-9.1c-0.72-5.54,1.44-11.38,5.59-15.11c0.82-0.73,1.73-1.42,2.2-2.42c1.34-2.85-2.17-6.03-5.3-5.66
		c-3.13,0.37-5.53,2.84-7.66,5.16c-0.96-0.72-1.93-1.45-2.89-2.17c0.44-4.19,0.41-8.43-0.1-12.61c-0.08-0.63-0.2-1.32-0.69-1.71
		c-0.57-0.45-1.19-0.1-1.39,0.43c3.81-2.25-1.85-5.7-3.74-6.31c-2.41-0.78-6.4-2.09-7.69,0.98c-1.17,2.79,0.69,6.05,1.9,8.46
		c1.43,2.84,2.22,5.91,1.98,9.11C652.44,204.65,650,213.23,648.48,212.22z"/>
	<path class="st7" d="M645.58,276.89c-3.15,2.38-7.04,3.76-10.99,3.92c6.61-6.14,11.93-13.65,15.52-21.92
		c-2.5,2.24-5.46,3.96-8.63,5.04c5.14-7.35,8.76-15.74,10.59-24.52c-7.14,7.32-15.01,13.93-23.46,19.68
		c-0.95,0.65-2.41,1.21-3.08,0.28c0.76-1.47,1.51-2.93,2.27-4.4c-4.42,4.8-9.17,9.28-14.21,13.41c1.97,3.07,7.31,1.61,9.73,4.34
		c1.88,2.12,0.92,5.39,0.18,8.12c-0.63,2.33-0.89,6.06,1.68,7.35c2.14,1.08,5.45-0.45,7.44-1.39
		C637.3,284.59,642.18,280.7,645.58,276.89z"/>
	<path class="st6" d="M423.73,195.5c-1.01,2.01-2.01,4.03-3.02,6.04c3.85,1.49,8.13,1.83,12.17,0.97c2.51-0.53,4.9-1.51,7.27-2.48
		c5.58-2.29,11.17-4.57,16.75-6.86c-0.41-2.2-2.88-3.49-5.12-3.48c-2.24,0.01-4.35,0.95-6.49,1.63c-3.9,1.23-8.07,1.58-12.12,1.03
		c-2.21-0.3-4.45-0.87-6.65-0.5c-2.2,0.37-4.4,2.06-4.42,4.3"/>
	<path class="st6" d="M576.58,326.92c-0.12,1.27,0.52,2.6,0.03,3.78c-0.44,1.06-1.63,1.59-2.36,2.47c-1.16,1.38-1.05,3.38-1.14,5.18
		c-0.28,5.14-2.7,9.88-4.74,14.61c-2.04,4.73-3.77,9.95-2.58,14.96c1.19,5.01,6.38,9.38,11.31,7.88c0.47-0.14,0.95-0.35,1.21-0.76
		c0.58-0.91-0.2-2.03-0.71-2.97c-1.84-3.38,0.5-8.24,4.29-8.92c-1.92-2.31-1.93-5.62-1.71-8.62c0.53-7.41,1.82-14.76,3.87-21.9
		c0.59-2.07,1.24-4.34,0.36-6.3C583.23,323.74,576.87,323.87,576.58,326.92z"/>
	<path class="st6" d="M595.89,333.6c-0.11,1.37,0.71,2.66,0.75,4.04c0.07,2.26-1.86,4.02-2.67,6.13c-0.81,2.1-0.46,4.44-0.4,6.69
		c0.11,4.7-1.14,9.42-0.47,14.08s4.29,9.5,8.98,9.1c0.89-0.08,1.83-0.38,2.38-1.09c0.97-1.23,0.41-3.01-0.02-4.52
		c-1.4-4.97-0.74-10.49,1.8-14.99c-2.33-1.36-2.75-4.49-2.82-7.19c-0.09-3.29-0.04-6.59,0.14-9.88c0.18-3.22,0.94-6.59,0.9-9.79
		c-2.87-1.27-2.91,0.94-4.7,2.64C598.39,330.12,595.93,331.43,595.89,333.6z"/>
</g>
<g id="тено_лицо">
	<g>
		<path class="st5" d="M442.07,342.58c-22.63-23.39-23.88-49.24-11.68-75.76c0.25-0.55,6.61-8.05,6.3-7.53
			c-17.5,28.74-13.17,50.72,7.99,74.02c22.32,24.6,49.46,12.97,78.13,4.22c0.58-0.18,8.56,1.46,8.91,1.97
			c0.34,0.5-5.31,5.63-5.81,5.97c0,0-19.9,13.41-43.93,13.89C467.01,359.65,454.4,355.34,442.07,342.58z"/>
	</g>
</g>
<g id="рукав">
	<path class="st0" d="M104.2,591.13c-23.26,22.75-49.84,95.18-17.85,140.93c31.99,45.75,49.41,46.56,63.46,51.07
		c14.05,4.5,47.89,9.02,67.02,8.19c19.13-0.83,53.79-4.5,65.48-0.95c11.68,3.56,25.23,3.32,35.78-3.79
		c10.55-7.11,14.67,10.43,35.05,10.67s46.31-32.48,58.96-51.8s33.12-60.91,19.18-75.08c-13.94-14.17-27.11-10.38-32.08-14.65
		s-18.92-29.16-37.56-34.37c-18.64-5.22-40.85-13.62-57.13-17.89c-16.28-4.27-44.13-32.36-68.19-35.26
		C212.27,565.29,156.45,540.04,104.2,591.13z"/>
	<path class="st2" d="M372.01,708.25c-4.12,1.87-8.61,2.96-12.46,5.35c-11.58,7.2-13.38,23.01-13.97,36.63
		c-0.41,9.47-0.82,18.94-1.23,28.4c21.24-0.76,38.08-17.87,50.4-35.19c11.76-16.53,21.64-34.35,30.13-52.77
		c1.57-3.41,3.13-7.15,2.25-10.8c-2.54-10.61-17.37-2.41-22.34,1.2c-7.42,5.4-13.35,12.53-20.2,18.6
		C380.79,703.04,376.67,706.13,372.01,708.25z"/>
	<path class="st1" d="M348.33,675.89c-10.46,5.95-21.25,12.99-26.14,23.99c-6.54,14.71-0.88,32.89-8.21,47.22
		c-2.33,4.55-5.83,8.39-8.25,12.89c-2.41,4.5-3.61,10.2-1.05,14.62c-9.91-3-21.66-8.12-22.6-18.43
		c-1.03-11.26,11.55-18.4,17.31-28.13c5.32-8.99,4.63-20.28,8.25-30.08c4.56-12.35,15.72-21.34,27.9-26.34
		c8.59-3.52,17.76-5.32,26.92-6.6c1.36-0.19,11.95-2.11,11.29-0.05c-0.27,0.84-4.57,1.39-5.48,1.67c-2.2,0.68-4.36,1.49-6.48,2.39
		C357.14,671.01,352.7,673.41,348.33,675.89z"/>
	<path class="st2" d="M248.23,563.83c-1.79-1.49-3.71-3.04-6.01-3.4c-2.49-0.39-4.95,0.66-7.45,0.97
		c-5.32,0.66-10.4-2.06-15.57-3.48c-8.63-2.37-17.8-1.12-26.61,0.44c-13.38,2.37-26.64,5.42-39.71,9.14
		c-15.04,4.28-31.02,10.36-39.19,23.69c28.78-11.45,59.08-19.09,89.85-22.65c1.87-0.22,4.03-0.32,5.33,1.04
		c1.26,1.32,1.13,3.46,2.04,5.04c1.22,2.11,3.92,2.74,6.32,3.16c15.19,2.68,30.41,5.19,45.66,7.5c4.21,0.64,8.57,1.65,12.82,1.86
		c0.21-1.35-4.85-4.54-5.96-5.46c-2.39-1.98-4.78-3.97-7.17-5.95C257.79,571.77,253.01,567.8,248.23,563.83z"/>
</g>
<g id="рукав_1_">
	<g>
		<path class="st2" d="M510.78,562.52c12.82,17.01,18.75,38.24,22.02,59.28s4.17,42.44,8.29,63.34c1.45,7.39,3.38,14.87,7.55,21.14
			c4.17,6.27,10.99,11.21,18.52,11.37c2.05,0.04,4.25-0.33,5.76-1.71c1.88-1.72,2.23-4.51,2.43-7.05
			c2.77-34.64-0.82-70.87-17.84-101.17c-8.28-14.75-19.45-27.57-30.72-40.09c-5.71-6.34-11.47-12.63-16.99-19.13
			c-2.74-3.23-5.41-6.5-7.99-9.86c-0.68-0.89-2.18-3.82-3.67-3.51c-1.45,0.3-0.86,3.09-0.72,4.2
			C498.55,548.32,505.56,555.59,510.78,562.52z"/>
		<path class="st2" d="M660.77,408c1.3,7.79,1.76,15.72,1.38,23.62c-0.08,1.63,2.12,2.2,2.82,0.73l8.33-17.47
			c0.65-1.37,2.7-1,2.82,0.51c0.86,10.54-1.72,29.92,2.26,39.68c5.33,13.09,19.04,15.08,24.89,27.95
			c2.86,6.28,4.85,13.19,9.57,18.22c2.93,3.13,6.71,5.3,10.22,7.75c5.83,4.07,11.04,9.04,15.37,14.67
			c16.36,21.29,18.87,49.72,20.47,76.6c0.06,0.96-0.8,1.72-1.74,1.56c-5.31-0.91-10.23-3.53-15-6.11
			c-31.88-17.22-63.91-34.55-92.55-56.74c-6.51-5.04-13.03-10.58-16.52-18.05c-3.98-8.51-3.48-18.35-2.9-27.73
			c0.93-15,2.52-31.5,13.39-41.88c0.46-0.44,1.09-0.8,1.71-0.96c0.69-0.18,1.41,0.24,1.95,0.12c1.22-0.26,1.13-2.6,1.38-3.93
			c0.69-3.64,1.42-7.28,2.21-10.9c1.58-7.3,3.36-14.55,5.33-21.75c0.56-2.03,1.13-4.06,1.72-6.08c0-0.01,0.01-0.03,0.01-0.04
			C658.35,406.3,660.52,406.47,660.77,408z"/>
		<path class="st0" d="M761.88,756c-20.89,29.06-91.89,66.92-141.37,34.72c-49.47-32.2-51.49-69.91-57.39-85.61
			s-32.13-51.05-33.1-73.15c-0.97-22.1-26.2-58.04-30.91-71.12c-4.72-13.09-12.62-20.04-9.44-39.22
			c2.34-14.09-10.99-26.51-13.16-49.93c-2.17-23.42,27.59-45.87,46.01-62.37c18.41-16.5,56.45-37.77,72.15-23.16
			s7.89,29.02,12.69,34.31c4.8,5.3,35.29,3.16,47.21,21.75c39.8,62.1,58.22,74.59,64.1,92.9c5.87,18.3,35.03,37.78,40.25,65.17
			S808.78,690.74,761.88,756z"/>
		<path class="st1" d="M777.93,640.91c8.6,44.48,0.48,97.2-31.13,130.64c4-21.2,15.37-42.37,22.06-62.76
			c-8.35,12.44-9.64,29.71-19.85,40.45c-13.93,11.94-30.27,20.52-45.15,31.08c10.32-23.35,23.9-45.04,40.17-64.12
			c-3.16,4.64-7.48,8.36-12.4,10.67c2.34-86.46,39.76-51.77,11.98-155.44C758.19,588.87,774.79,612.53,777.93,640.91z"/>
		<path class="st2" d="M581.24,392.7c-4.01,0.61-7.53,3.04-10.91,5.4c-10.58,7.42-21.17,14.83-31.75,22.25
			c-14.55,10.19-29.32,20.6-40.42,34.91c-5.37,6.92-9.97,15.34-9.4,24.35c0.35,5.56,2.84,11.07,7.07,14.38
			c4.22,3.31,10.18,4.13,14.79,1.57c4.89-2.72,7.51-8.41,10.28-13.5c8.44-15.54,21.05-28.45,35.94-36.8
			c4.41-2.47,9.14-4.66,12.43-8.64c1.65-1.99,2.86-4.35,4.06-6.68c4.26-8.31,8.52-16.62,12.78-24.92c1.12-2.19,4.2-6.09,3.69-8.8
			C589.13,392.78,583.75,392.32,581.24,392.7z"/>
		<path class="st1" d="M591.39,461.07c-3.88,2.57-8.27,4.75-10.78,8.83c-1.39,2.27-2.18,5.1-4.25,6.67
			c-2.16,1.64-5.05,1.41-7.68,1.76c-10.49,1.38-17.33,11.96-23.11,21.38c-5.78,9.42-13.55,19.62-24.12,19.52
			c-2.46-0.02-5.08-0.6-7.28,0.57c-4.03,2.15-3.84,8.2-4.01,13.03c-0.28,8.23-2.21,18.88,4.64,22.72c5.25,2.95,11.58-1.2,15.25-6.13
			c3.66-4.93,6.43-11.04,11.64-13.98c4.98-2.81,11.03-2.05,16.55-3.28c12.1-2.69,20.29-14.34,27.33-25.16
			c11.45-17.57,22.89-35.14,34.34-52.72c2.7-4.14,5.77-9.06,4.32-14.38c-0.89-3.26-3.38-5.52-6.6-5.61
			c-3.2-0.09-5.91,1.92-7.59,4.69c-2.45,4.07-4.4,8.18-7.42,11.87C599.38,454.82,595.59,458.29,591.39,461.07z"/>
		<path class="st2" d="M767.44,618.87c2.22,13.45,5.7,26.72,6.55,40.34c0.85,13.62-1.24,28.04-9.05,38.76
			c1.9-16.65,3.81-33.31,5.71-49.96c-8.18,19.3-17.19,38.2-26.99,56.61c1.03-29.47,25.03-55.21,20.97-84.42
			c-1.59-11.4-7.12-21.79-8.4-33.25c-0.24-2.16-0.86-6.05,0.05-8.08c0.99-2.2,2.73,0.21,3.39,1.67c2.43,5.41,3.56,11.78,4.6,17.62
			C765.48,605.05,766.3,611.99,767.44,618.87z"/>
	</g>
</g>
<g id="рука_1_">
	<g>
		<path class="st4" d="M502.17,733.9c2.2-3.28,7.88-23.66,5.31-26.66c-4.4-5.13-43.52-13.68-61.12-20.49
			c-22.03-8.35-44.82-7.41-65.83,4.85c-19.95,13.07-41.25,33.24-19.69,53.18c29.52,23.34,67.02,39.79,105.08,37.83
			C487.91,780.62,501.71,754.43,502.17,733.9z"/>
		<path class="st4" d="M478.19,796.55c4.07,2.15,8.36,4.24,12.96,4.43c4.6,0.19,9.61-2.02,11.31-6.3c1.14-2.88,0.62-6.21-0.77-8.98
			c-1.39-2.77-3.55-5.06-5.78-7.2c-4.15-3.99-8.63-7.63-13.38-10.87c-6.36-4.35-14.51-8.06-21.54-4.9
			c-2.94,1.32-5.31,3.76-6.82,6.61c-1.75,3.29-2.38,7.32-1.04,10.8C455.39,786,470.29,792.38,478.19,796.55z"/>
		<path class="st4" d="M454.42,702.84c11.69-4.03,24.5-18.84,8.07-24.6c-14.13-1.5-47.57-1.99-49.34,13.9
			C411.09,710.68,439.29,708.06,454.42,702.84z"/>
		<path class="st4" d="M483.86,791.76c0.47,4.11,3.06,8.07,6.91,9.57c1.86,0.72,3.91,0.85,5.9,0.73c1.37-0.08,2.75-0.29,4.04-0.76
			c3.59-1.32,6.22-4.81,6.75-8.6c0.53-3.79-0.94-7.75-3.65-10.47c-2.93-2.94-7.62-4.76-11.79-4.18c-1.61,0.23-3.62,0.91-4.87,2.03
			c-1.12,1.01-1.63,2.58-2.16,3.94C484.05,786.48,483.56,789.12,483.86,791.76z"/>
		<path class="st4" d="M501.45,809.39c9.17,6.63,19.63,12.6,30.94,12.43c3.7-0.05,7.95-1.2,9.43-4.59c0.95-2.19,0.44-4.8-0.78-6.85
			c-1.22-2.06-3.05-3.66-4.89-5.19c-8.45-7.05-17.53-13.33-27.11-18.74c-4.65-2.62-10.09-5.11-15.14-3.39
			c-2.24,0.76-4.11,2.4-5.31,4.42c-0.89,1.49-1.84,3.42-1.67,5.21c0.17,1.82,1.4,3.57,2.38,5.05c1.44,2.19,3.21,4.16,5.12,5.96
			C496.62,805.77,499.01,807.62,501.45,809.39z"/>
		<path class="st4" d="M477.82,699.31c9.5,0.1,19.73-0.91,28.22-6.68c2.78-1.89,5.55-4.82,5.35-7.96c-0.13-2.02-1.53-3.61-3.25-4.46
			c-1.72-0.85-3.73-1.06-5.71-1.23c-9.12-0.76-18.43-0.66-27.77,0.31c-4.53,0.47-9.61,1.43-12.76,5.17c-1.4,1.66-2.18,3.76-2.3,5.78
			c-0.09,1.5-0.06,3.34,0.76,4.52c0.83,1.21,2.44,1.82,3.76,2.38c1.94,0.83,4.04,1.34,6.19,1.65
			C472.76,699.17,475.29,699.28,477.82,699.31z"/>
		<path class="st5" d="M529.97,815.67c2.82,2.05,6,4.05,9.48,3.92c1.35-0.05,2.73-0.45,3.75-1.34c1.01-0.9,1.6-2.34,1.25-3.65
			c-0.19-0.72-0.64-1.35-1.09-1.95c-3.19-4.17-7.41-7.77-12.42-9.51c-2.01-0.7-4.86-1.63-6.64,0.05c-1.48,1.39-1.46,3.76-0.85,5.55
			C524.48,811.79,527.48,813.85,529.97,815.67z"/>
		<path class="st5" d="M507.58,684.62c3.07,0.04,6.25-0.05,7.6-1.12c0.53-0.41,0.74-0.98,0.35-1.66c-0.39-0.67-1.47-1.45-2.82-1.9
			c-0.75-0.25-1.51-0.38-2.25-0.5c-5.18-0.82-10.26-1.1-13.97-0.37c-1.49,0.29-3.55,0.73-2.76,1.96c0.65,1.02,2.83,2.01,4.73,2.58
			C501.71,684.59,504.87,684.59,507.58,684.62z"/>
		<path class="st4" d="M526.35,791.66c10.5,6.49,29.66-0.08,20.26-13.92c-10.06-9.78-32.14-23.07-42.42-16.81
			C487.7,770.98,509.83,787.03,526.35,791.66z"/>
		<path class="st4" d="M549.24,778.36c10.5,6.49,29.66-0.08,20.26-13.92c-10.06-9.78-32.14-23.07-42.42-16.81
			C510.59,757.68,532.72,773.73,549.24,778.36z"/>
		<path class="st4" d="M529.78,785.98c0.78,13.19,21.93,13.97,23.61,0.93C555.41,769.6,526.63,766.38,529.78,785.98z"/>
		<path class="st4" d="M499.29,770.69c0.47,4.11,3.06,8.07,6.91,9.57c1.86,0.72,3.91,0.85,5.9,0.73c1.37-0.08,2.75-0.29,4.04-0.76
			c3.59-1.32,6.22-4.81,6.75-8.6s-0.94-7.75-3.65-10.47c-2.93-2.94-7.62-4.76-11.79-4.18c-1.61,0.23-3.62,0.91-4.87,2.03
			c-1.12,1.01-1.63,2.58-2.16,3.94C499.48,765.41,498.99,768.06,499.29,770.69z"/>
		<path class="st4" d="M499.53,777.89c10.5,6.49,29.66-0.08,20.26-13.92c-10.06-9.78-32.14-23.07-42.42-16.81
			C460.88,757.21,483.01,773.26,499.53,777.89z"/>
		<path class="st4" d="M543.99,798.3c9.17,6.63,20.16,14.05,31.4,12.73c28-3.3-23.92-38.88-35.32-34.5
			C525.13,783.19,535.28,792.86,543.99,798.3z"/>
		<path class="st5" d="M572.97,804.87c2.82,2.05,6,4.05,9.48,3.92c1.35-0.05,2.73-0.45,3.75-1.34c1.01-0.9,1.6-2.34,1.25-3.65
			c-0.19-0.72-0.64-1.35-1.09-1.95c-3.19-4.17-7.41-7.77-12.42-9.51c-2.01-0.7-4.86-1.63-6.64,0.05c-1.48,1.39-1.46,3.76-0.85,5.55
			C567.48,801,570.47,803.06,572.97,804.87z"/>
		<path class="st4" d="M535.02,748.17c10.5,6.49,29.66-0.08,20.26-13.92c-10.06-9.78-32.14-23.07-42.42-16.81
			C496.37,727.49,518.5,743.54,535.02,748.17z"/>
		<path class="st4" d="M538.45,742.49c0.78,13.19,21.93,13.97,23.61,0.93C564.08,726.11,535.3,722.89,538.45,742.49z"/>
		<path class="st4" d="M455.44,690.81c0.78,13.19,21.93,13.97,23.61,0.93C481.08,674.44,452.3,671.21,455.44,690.81z"/>
		<path class="st4" d="M508.2,734.4c10.5,6.49,29.66-0.08,20.26-13.92c-10.06-9.78-32.14-23.07-42.42-16.81
			C469.55,713.72,491.68,729.77,508.2,734.4z"/>
		<path class="st4" d="M552.66,754.82c9.17,6.63,20.16,14.05,31.4,12.73c28-3.3-23.92-38.89-35.32-34.5
			C533.8,739.71,543.95,749.38,552.66,754.82z"/>
		<path class="st5" d="M581.64,761.39c2.82,2.05,6,4.05,9.48,3.92c1.35-0.05,2.73-0.45,3.75-1.34c1.01-0.9,1.6-2.34,1.25-3.65
			c-0.19-0.72-0.64-1.35-1.09-1.95c-3.19-4.17-7.41-7.77-12.42-9.51c-2.01-0.7-4.86-1.63-6.64,0.05c-1.48,1.39-1.46,3.76-0.85,5.55
			C576.15,757.51,579.14,759.57,581.64,761.39z"/>
		<path class="st4" d="M522.43,764.59c10.5,6.49,29.66-0.08,20.26-13.92c-10.06-9.78-46.3-28.06-56.59-21.79
			C469.61,738.92,505.91,759.96,522.43,764.59z"/>
		<path class="st4" d="M552.67,772.67c0.78,13.19,21.93,13.97,23.61,0.93C578.31,756.3,549.52,753.08,552.67,772.67z"/>
		<path class="st4" d="M522.19,757.39c0.47,4.11,3.06,8.07,6.91,9.57c1.86,0.72,3.91,0.85,5.9,0.73c1.37-0.08,2.75-0.29,4.04-0.76
			c3.59-1.32,6.22-4.81,6.75-8.6s-0.94-7.75-3.65-10.47c-2.93-2.94-7.62-4.76-11.79-4.18c-1.61,0.23-3.62,0.91-4.87,2.03
			c-1.12,1.01-1.63,2.58-2.16,3.94C522.37,752.11,521.88,754.75,522.19,757.39z"/>
		<path class="st4" d="M566.89,785c9.17,6.63,20.16,14.05,31.4,12.73c28-3.3-23.92-38.88-35.32-34.5
			C548.03,769.89,558.18,779.56,566.89,785z"/>
		<path class="st5" d="M595.86,791.57c2.82,2.05,6,4.05,9.48,3.92c1.35-0.05,2.73-0.45,3.75-1.34c1.01-0.9,1.6-2.34,1.25-3.65
			c-0.19-0.72-0.64-1.35-1.09-1.95c-3.19-4.17-7.41-7.77-12.42-9.51c-2.01-0.7-4.86-1.63-6.64,0.05c-1.48,1.39-1.46,3.76-0.85,5.55
			C590.38,787.7,593.37,789.76,595.86,791.57z"/>
		<path class="st8" d="M493.36,774.45c1.02-1.15-0.13-2.9-1.27-3.92c-5.04-4.52-10.99-8.02-17.4-10.22
			c-0.91-0.31-4.55-1.04-3.84,1.06c0.41,1.23,4.05,1.95,5.2,2.45c4.01,1.74,7.87,3.84,11.5,6.28
			C488.05,770.44,493.43,774.38,493.36,774.45z"/>
		<path class="st8" d="M370.02,690.39c13.92-22.9,31.62-5.85,54.2-7.59c41.73,2.04,40.9,27.41,15.24,52.75
			c-31.6,8.5-63.21-5.49-86.92-23.05C340.37,703.5,370.46,696.47,370.02,690.39z"/>
		<path class="st8" d="M519.74,760.31c-11.98-5.13-23.96-11.35-32.29-21.37c1.7-1.45,4.27-0.33,6.19,0.79
			c11.69,6.84,23.92,12.75,36.53,17.68c3.6,1.41,7.22,2.81,10.68,4.53c1.73,0.86,3.42,1.8,5.02,2.88c1.14,0.76,3.4,1.96,3.96,3.28
			c1.06,2.5-3.48,3.45-5.08,3.03c-1.88-0.49-3.75-1.76-5.53-2.57c-1.97-0.9-3.96-1.76-5.95-2.61
			C528.77,764.04,524.23,762.23,519.74,760.31z"/>
		<path class="st8" d="M504.59,725.95c-3.4-2.28-7-5.96-5.72-9.84c13.59,12.17,74.6,27.43,69.32,39.74
			C543.42,741.11,529.68,741.52,504.59,725.95z"/>
		<path class="st0" d="M346.95,735.98c0,0,36.09-47.31,61.62-57.32l-24.36-8.32l-40.99,38.77L346.95,735.98z"/>
		<path class="st8" d="M475.59,763.83c0.05-1.79-0.18-3.57-0.68-5.29c-0.85-2.95-2.45-5.69-4.62-7.87
			c-0.74-0.75-3.46-3.67-4.77-2.56c-1.01,0.86-0.3,3.22-0.02,4.24c0.59,2.17,1.54,4.29,2.76,6.18
			C469.88,761.02,472.45,763.68,475.59,763.83z"/>
		<path class="st8" d="M480.38,728.96c2.31,4.18,5.12,8.08,8.35,11.59c0.86,0.94,1.95,1.93,3.22,1.78c1.11-0.12,1.97-1.15,2.21-2.24
			c0.24-1.1-0.03-2.24-0.39-3.3c-1.45-4.16-4.61-7.69-8.58-9.6c-1.17-0.56-2.73-0.93-3.65-0.02c-0.7,0.69-0.7,1.84-0.37,2.77
			c0.33,0.93,0.94,1.73,1.34,2.63"/>
	</g>
</g>
<g id="лицо">
	<path class="st4" d="M470.29,215.18c0,0-22.6,19.51-34.28,38.69c-7.73,12.69-26.85,52.54,1.36,81.64
		c25.02,25.82,60.21,21.81,87.53,2.07c14.7-10.62,30.05-29.27,30.05-29.27s42.06,19.4,59.43-10.56
		c13.72-23.68-20.16-33.13-20.16-33.13s36.76-41.05-1.83-79.49c-34.48-34.35-76.27-3.06-76.27-3.06s-2.52-30.11-23.29-27.85
		C469.51,156.75,457.97,188.99,470.29,215.18z"/>
	<path class="st5" d="M594.56,286.91c-5.44-1.29-12.87-0.43-23.89,5.69c-0.01,0-0.02,0.01-0.03,0.01c-0.03,0.01-0.05,0.04-0.08,0.05
		c-1.15,0.64-2.32,1.33-3.52,2.11c-0.51,0.33-0.65,1-0.32,1.51c0.04,0.06,0.08,0.12,0.13,0.17c0.36,0.37,0.93,0.44,1.38,0.16
		c1.13-0.74,2.24-1.39,3.32-2c10.89-4.17,16.45,6.35,17,6.1c0.55-0.25-0.35-8.62-7.8-9.44c16.61-6.15,24.78,3.84,25.21,3.42
		C606.39,294.26,601.17,288.48,594.56,286.91z"/>
	<path class="st5" d="M487.44,201.77c17.1-19.06-0.46-35.76-0.9-35.35c-0.43,0.42,9.6,10.59,2.9,26.98
		c-0.88-10.35-10.65-10.79-10.92-10.25c-0.27,0.54,11.51,6.86,6.96,17.66c-1.15,2.42-2.35,4.27-2,4.63
		C483.52,205.5,484.15,205.44,487.44,201.77z"/>
</g>
<g id="рот_3_">
	<path class="st8" d="M455.93,271.6c0,0,4.52,12.24,5.42,16.29c0.91,4.04,3.33,10.38,5.66,12.68c2.33,2.3,11.27,4.63,13.75,5.83
		s17.87,7.64,17.87,7.64l-13.38-17.29c-1.6-2.07-3.88-3.53-6.39-4.1l-5.09-1.16l-0.72-4.87c-0.49-3.29-2.48-6.24-5.37-7.98
		L455.93,271.6z"/>
</g>
<g id="рот_2_">
	<path class="st5" d="M482.48,321.42c0.12-0.87-0.5-1.71-1.36-1.87c-0.14-0.03-14.03-3.4-21.61-11.77
		c-7.67-8.48-9.02-20.2-9.03-20.27c0.02-0.88-0.68-1.65-1.55-1.73c-0.44-0.04-0.86,0.1-1.18,0.39c-0.32,0.29-0.5,0.68-0.51,1.14
		c-0.04,1.42-0.13,14.17,8.98,23.59c2.26,2.34,4.57,4.22,6.84,5.74c6.91,4.61,13.46,5.82,17.29,6.09c0.15,0.01,0.24,0.02,0.29,0.02
		c0.44,0.08,0.87-0.01,1.22-0.27C482.2,322.23,482.42,321.85,482.48,321.42z"/>
</g>
<g id="рот">
	<path class="st5" d="M497.82,310.01L497.82,310.01c-0.3-0.85-1.23-1.32-2.06-1.07c-0.41,0.12-0.73,0.4-0.93,0.78
		c-0.2,0.39-0.22,0.84-0.08,1.25c0,0.01,0.27,0.94-0.07,2.65c-0.53-0.28-1.28-0.67-2.17-1.14c-4.37-2.31-9.43-7.12-11.14-7.96
		c-0.19-0.09-0.67-0.27-1.56-0.62c-2.83-1.08-9.47-3.62-11.05-5.27c-1.78-1.85-3.87-6.59-4.87-11.03c-0.74-3.3-5.57-10.8-7.13-14.39
		c1.69-0.13,2.97-0.09,3.03-0.08c0.57,0.02,1.28-0.26,1.7-0.66c0.28-0.27,0.42-0.59,0.41-0.92c-0.02-0.88-0.75-1.62-1.62-1.66
		c-0.34-0.01-8.46-0.32-12.42,2.56c-0.34,0.24-0.56,0.61-0.62,1.03c-0.07,0.44,0.05,0.88,0.32,1.24c0.08,0.1,0.17,0.2,0.27,0.28
		c0.58,0.5,1.41,0.54,2.01,0.11c0.84-0.61,2.07-1.1,3.65-1.44c1.66,3.79,6.55,11.47,7.23,14.52l0.05,0.24
		c0.87,3.88,2.33,10.39,4.99,13.14l0.36-0.35l-0.24,0.47c0.22,0.23,0.52,0.47,0.87,0.7c2.61,1.74,8.32,3.49,11.58,4.49
		c0.81,0.25,1.58,0.48,1.71,0.55c1.35,0.66,3.67,4.03,7.72,6.17c2.54,1.34,4.78,2.52,5.87,3.08c-0.46,0.99-1.03,1.99-1.71,2.99
		c-0.42,0.63-0.33,1.49,0.21,2.05c0.07,0.08,0.16,0.15,0.24,0.21c0.37,0.28,0.82,0.36,1.26,0.28c0.41-0.08,0.77-0.31,1-0.65
		C499.36,314.6,497.88,310.19,497.82,310.01z"/>
</g>
<g id="рот_1_">
	<g>
		<path class="st5" d="M472.98,292.25c-3.28-3.4-2.93-9.4-2.91-9.65c0.04-0.62,0.58-1.05,1.19-0.98c0.62,0.08,1.09,0.64,1.05,1.25
			c0,0.05-0.3,5.23,2.23,7.86c2.51,2.59,7.4,2.15,7.45,2.15c0.61-0.06,1.19,0.39,1.28,1.01c0.1,0.62-0.32,1.17-0.93,1.23
			C482.1,295.14,476.3,295.68,472.98,292.25z"/>
	</g>
</g>
<g id="ноздри">
	<path class="st5" d="M515.06,284.1c0.33-0.68,0.06-1.5-0.61-1.83c-0.67-0.34-1.49-0.06-1.83,0.61c-0.04,0.08-2.36,7.34-7.46,7.18
		c-3.98-0.13-6.7-3.26-8.14-5.22c0.96-0.35,1.55-0.66,1.57-0.68c0.65-0.37,0.88-1.2,0.52-1.85c-0.37-0.66-1.2-0.89-1.86-0.52
		c-0.11,0.06-1.08,0.58-2.54,0.93c0,0-0.01,0-0.01,0c-2.62,0.63-6.24,0.33-10-3.7c-5.74-6.14,0.11-12.59,0.38-12.87
		c0.52-0.54,0.5-1.4-0.04-1.93c-0.54-0.52-1.41-0.51-1.93,0.03c-1.07,1.11-2.28,2.81-3.1,4.82c-1.94-1.08-4.72-3.09-3.97-7.62
		c1.02-6.11,6.71-6.7,7.05-6.7c0.75-0.01,2.79-0.74,2.78-1.5c0-0.75-1.75-1.3-2.5-1.3c-3.58,0.02-9.52,1.78-10.64,8.49
		c-0.81,4.84,1.89,8.24,4.63,10.19c0.63,0.45,1.26,0.81,1.85,1.11c-0.55,3.01-0.02,6.4,2.91,9.54c0.76,0.82,1.55,1.5,2.33,2.06
		c3.46,2.47,7.04,2.64,9.73,2.21c0.82,1.24,2.6,3.64,5.13,5.44c1.57,1.12,3.42,2,5.51,2.25
		C511.81,294.09,514.87,284.49,515.06,284.1z"/>
</g>
<g id="нос">
	<g>
		<path class="st5" d="M494.63,256.18c-0.23-0.15-0.42-0.37-0.54-0.64c-0.33-0.76,0.01-1.64,0.77-1.98
			c0.09-0.04,9.18-4.05,13.99-7.86c7.82-6.2,13.74-16.27,13.79-16.37c0.42-0.72,1.34-0.96,2.05-0.54c0.72,0.42,0.96,1.34,0.54,2.05
			c-0.25,0.43-6.25,10.65-14.52,17.21c-5.12,4.06-14.27,8.09-14.65,8.26C495.58,256.52,495.04,256.46,494.63,256.18z"/>
	</g>
</g>
<g id="яблоко_1_">
	<path class="st9" d="M510.28,218.7c-6.61-11.17-18.18-8.63-18.18-8.63s-6.69,5.97,0.81,18.11c7.51,12.14,15.22,11.48,15.22,11.48
		S516.88,229.87,510.28,218.7z"/>
</g>
<g id="яблоко">
	<path class="st9" d="M560.45,281.99c0,0,3.33-12.14-7.44-19.38s-21.19,1.67-21.19,1.67s-1.1,7.67,10.59,15.86
		C554.11,288.32,560.45,281.99,560.45,281.99z"/>
</g>
<g id="зрачрк">
	<circle class="st5" cx="541.87" cy="269.43" r="7.48"/>
</g>
<g id="зрачок">
	<circle class="st5" cx="497.63" cy="220.62" r="7.48"/>
</g>
<g id="ни_веко">
	<path class="st8" d="M531.83,264.28c0,0-2.62,10.71,9.26,18.19c12.71,7.99,19.36-0.47,19.36-0.47s-5.95,5.55-17.43-1.42
		C531.53,273.6,531.83,264.28,531.83,264.28z"/>
</g>
<g id="н_веко">
	<path class="st8" d="M508.01,239.81c0,0-9.73,2.35-16.5-9.94c-7.25-13.15,0.47-19.65,0.47-19.65s-5.71,5.51,0.58,17.38
		C498.85,239.47,508.01,239.81,508.01,239.81z"/>
</g>
<g id="веко">
	<path class="st5" d="M561.61,280.15c0.03-0.1,2.75-10.06-8.42-17.57c-0.02-0.01-0.04-0.03-0.06-0.04
		c-11.16-7.45-21.75,0.97-21.86,1.06l-2.34,1.9c0,0,8.07-0.7,14.42,4.38c6.44,5.17,17.59,12.58,17.59,12.58L561.61,280.15z"/>
</g>
<g id="веко_1_">
	<path class="st5" d="M510.38,218.72c-6.85-11.58-16.26-9.74-16.66-9.66l-1.91,0.4c0,0-1.66,3.92,3.92,10.12
		c9.38,10.43,11.05,22.96,11.05,22.96l2.01-2.31C508.88,240.14,517.23,230.3,510.38,218.72z"/>
</g>
<g id="тень">
	<path class="st8" d="M541.11,252.45c-0.48,2.46,10.02,4.95,15.53,8.21c5.51,3.26,9.58,15.53,13.21,15.78
		c3.63,0.26,0.72-15.4-7.88-21.16C553.36,249.51,541.97,248.06,541.11,252.45z"/>
</g>
<g id="тень_1_">
	<path class="st8" d="M520.31,231.12c-2.48,0.37-4.49-10.23-7.5-15.88c-3.01-5.65-15.08-10.26-15.17-13.9
		c-0.09-3.64,15.41-0.03,20.79,8.82C523.79,219.01,524.73,230.46,520.31,231.12z"/>
</g>
<g id="бровь_1_">
	<path class="st5" d="M544.32,242.48c0.92,5.25,14.19,4.44,20.9,8.84c8.89,5.83,14.51,18.77,17.41,18.08
		c2.02-0.48,0.25-15.92-13.83-24.55S543.32,236.73,544.32,242.48z"/>
</g>
<g id="бровь">
	<path class="st5" d="M527.74,225.11c-5.21-1.09-3.97-14.33-8.14-21.18c-5.53-9.07-18.28-15.12-17.5-18
		c0.55-2,15.92,0.28,24.08,14.64C534.34,214.93,533.45,226.3,527.74,225.11z"/>
</g>
<g id="пряд_справа">
	<g>
		<path class="st5" d="M594.76,243.47c0,0-14.31,23.26-22.93,35.74c-8.61,12.49-33.36,41.85-37.67,64.81
			c-4.31,22.96,3.03,42.16,21.22,44.6s31.53-11.32,33.29-29.3s-4.2-38.75,3.3-61.23c7.5-22.48,27.78-47.9,27.78-47.9L594.76,243.47z
			"/>
		<path class="st6" d="M572.82,286.29c-4.19,5.75-8.39,11.52-11.94,17.68c-7.01,12.18-11.37,25.67-15.68,39.05
			c-2.76,8.57-5.41,18.36-0.94,26.17c2.91,5.09,8.76,8.35,14.62,8.16c5.86-0.19,11.48-3.83,14.06-9.1c-3.31-1.5-6.63-3.01-9.94-4.51
			c2.15-1.84,4.31-3.68,6.46-5.52c-3.33-0.92-5.59-4.2-6.31-7.59c-0.72-3.38-0.19-6.89,0.34-10.31c1.77-11.33,3.64-22.98,9.46-32.87
			c2.57-4.37,5.84-8.27,8.63-12.5c3.43-5.2,6.1-10.85,8.76-16.48c1.9-4.01,3.79-8.02,5.69-12.03c0.66-1.4,2.86-4.55,2.11-5.82
			c-0.54-0.92-2.66-1.5-3.66-1.44c-2.38,0.15-3.89,2.62-5.14,4.35c-2.44,3.38-4.89,6.76-7.35,10.13
			C578.95,277.87,575.89,282.08,572.82,286.29z"/>
	</g>
</g>
<g id="прядь_слева">
	<path class="st5" d="M518.09,154.22c0,0-34.87,28.8-49.05,34.42c-14.19,5.62-58.68,14.42-69.81,24.24s-16.62,19.98-13.22,29.9
		c4.55,13.29,26.23,20.04,38,14.4c30.84-14.78,57.97-54.85,106.01-84.35L518.09,154.22z"/>
	<path class="st6" d="M431.99,228.75c-7.82,4.7-16.88,9.51-25.64,6.95c-2.19-0.64-4.58-2.33-4.25-4.59c0.1-0.69,0.46-1.32,0.83-1.91
		c4.4-7.06,11.65-12.29,19.73-14.23c3.45-0.83,7.01-1.08,10.51-1.62c10.89-1.7,21.04-6.26,30.55-11.67
		c9.83-5.6,19.11-12.11,28.84-17.88c4.84-2.87,9.8-5.57,14.95-7.85c1.26-0.56,5.48-3.18,5.34-0.07c-0.1,2.13-5.11,4.35-6.72,5.45
		c-11.46,7.79-23.02,15.42-34.67,22.9c-11.6,7.45-23.3,14.74-35.09,21.88C434.91,226.99,433.45,227.87,431.99,228.75z"/>
</g>
<g id="челка">
	<path class="st5" d="M644.26,175.61c0,0-19.91-23.92-40.66-31.44c-20.76-7.52-37.73,0.04-37.73,0.04s-34.2-22.02-49.9,4.17
		c-17.46,29.13,20.52,40.56,20.52,40.56s-9.94,14.54,7.48,32.55c15.75,16.29,31.44,10.97,31.44,10.97s-1.6,24.89,22.08,33.31
		c26.79,9.52,39.02-10.49,40.76-14.99c1.74-4.5,10.57-24.39-17.02-43.37C621.22,207.42,656.77,200.27,644.26,175.61z"/>
	<path class="st6" d="M533.42,140.48c-9.52,1.78-17.87,8.86-21.19,17.96c3.66-3.89,9.88-5.1,14.73-2.85
		c-4.62,0.3-9.01,3.09-11.25,7.14c3.48-0.5,6.95-1.01,10.43-1.51c-2.68,1.77-4.34,4.98-4.23,8.18c2.05,0.19,4.09,0.38,6.14,0.57
		c2,5.97,8.76,9.92,14.95,8.73c-3.29,8.84-3.25,18.87,0.1,27.68c1.3-5.12,4.95-9.6,9.7-11.91c-3.23,1.24-4.98,5.37-3.64,8.55
		c1.34,3.18,5.53,4.8,8.66,3.36c-1.03,0.98-2.06,1.95-3.09,2.93c1.34,1.66,3.67,2.45,5.75,1.95c-1.1,3.05,2.8,5.37,5.92,6.28
		c9.22,2.69,18.44,5.38,27.67,8.08c-6.8,0.9-11.54,9.07-8.95,15.42c3.69-1.5,7.63-2.4,11.6-2.66c-2.27,1-4.25,2.66-5.62,4.72
		c2.76-0.02,5.37,2.14,5.87,4.85c5.1-0.53,10.39,2.41,12.64,7.02c3.22-1.32,6.44-2.64,9.66-3.95c-4.04,0.59-8.16-3.01-8.11-7.09
		s4.25-7.59,8.27-6.9c-4.26-0.64-8.51-1.29-12.77-1.93c2.44-0.69,2.39-4.98-0.06-5.62c7.81-6.8,18.68-9.93,28.92-8.33
		c-9.84-9.71-25.39-13.15-38.41-8.49c0.81-1.04-0.31-2.67-1.62-2.83c-1.31-0.16-2.54,0.59-3.64,1.31c1.81-4.1-3.62-9.08-7.55-6.92
		c0.17-1.55,0.33-3.1,0.5-4.65c-1.2-0.65-2.67-0.79-3.97-0.39c1.87-3.16,4.31-5.98,7.15-8.31c-4.44-0.64-8.94-0.9-13.42-0.77
		c1.6-1.18,3.2-2.36,4.8-3.53c-3.79-3.8-9.51-5.57-14.78-4.58c1.06-0.63,2.2-1.37,2.51-2.56c0.31-1.19-0.97-2.68-2.03-2.06
		c10.11-2,20.89-0.46,30.04,4.29c-5.32-6.37-11.8-12.17-19.75-14.54c-7.95-2.37-17.57-0.56-22.61,6.03c2.44-1.09,5.05-2.68,5.6-5.3
		c0.55-2.62-2.81-5.54-4.76-3.72c1.94-0.96,0.19-3.91-1.71-4.97c-1.89-1.06-4.25-3.19-2.88-4.87c0.42-0.52,6.81,1.74,7.63,1.99
		c2.61,0.78,5.17,1.88,7.79,2.59c-0.84-3.5-3.66-6.41-5.63-9.34c-1.57-2.33-3.27-3.94-5.72-5.39
		C547.2,140.64,540.12,139.22,533.42,140.48z"/>
</g>
<g id="рука">
	<g>
		<path class="st5" d="M548.93,321.42c1.34-7.28,1.01-14.78,2.01-22.11c0.65-4.75,1.97-9.62,5.19-13.17s8.77-5.33,12.98-3.04
			c0.85,6.67,0.72,13.47-0.37,20.11c5.04,0,8.91-4.26,12.09-8.17c3.78-4.66,7.74-9.75,8.07-15.75c0.09-1.58-0.08-3.23,0.47-4.71
			c1.6-4.25,7.65-4.51,10.88-7.7c1.16-1.14,1.97-2.69,3.4-3.46c2.39-1.29,5.4,0.16,7.24,2.16c1.84,2,3.08,4.53,5.16,6.28
			c1.2,1.01,2.67,1.74,3.63,2.98c0.81,1.04,1.18,2.35,1.47,3.63c3.07,13.69-1.72,28.3-10.23,39.46c-8.51,11.16-20.38,19.28-32.7,26
			c-5.25,2.87-10.68,5.53-16.48,7c-4.96,1.26-10.38,1.58-15.07-0.47c-4.56-2-10-7.88-6-12.6
			C544.91,332.84,547.72,327.97,548.93,321.42z"/>
		<path class="st5" d="M516.8,307.63c-3.03,10.12,1.93,22.28-4.03,31c-6.22,9.09-19.65,8.17-29.91,12.18
			c-8.26,3.24-14.92,10.33-17.62,18.78c-2.71,8.45-1.41,18.09,3.43,25.52c6.06,9.3,16.63,14.45,26.7,19.1
			c11.17,5.15,23.61,10.35,35.4,6.84c2.27-0.67,4.54-1.73,6-3.6c1.61-2.05,2.03-4.77,2.37-7.35c1.32-9.79,2.46-19.84,0.24-29.47
			c-1.96-8.53-6.47-16.31-8.33-24.86c-1.49-6.81-1.25-13.87-1-20.83c0.35-9.95,0.7-19.91,1.05-29.86c0.09-2.61,0.47-4.99,1.42-7.42
			c0.54-1.39,1.42-3.64-0.7-3.82c-1.91-0.16-4.81,1.67-6.35,2.65c-1.92,1.21-3.66,2.73-5.1,4.49
			C518.77,302.94,517.53,305.2,516.8,307.63z"/>
		<path class="st4" d="M619.17,321.11c1.11-19.83-5.01-48.08-17.09-31.65c-0.8,1.09-1.49,2.25-2.08,3.45
			c-0.48-18.64-6.5-39.09-17.18-24.55c-6.7,9.12-5.67,22.34-4.43,33.59c0.05,1.18,0.14,2.41,0.28,3.65c-0.49,0.99-0.86,2.03-1.1,3.1
			c-0.72-18.27-6.71-37.44-17.14-23.24c-6.7,9.12-5.67,22.34-4.43,33.59c0.05,1.18,0.14,2.41,0.28,3.65
			c-0.93,1.89-1.44,3.98-1.42,6.04c-3.52,1.6-6.91,4.26-10.31,6.81c0.01-0.15,0.02-0.31,0.03-0.46c0.75-10.97,0.51-22.02-0.73-32.95
			c-0.27-2.37-0.6-4.79-1.65-6.93s-2.94-4.01-5.3-4.42c-3.65-0.63-6.94,2.29-9.02,5.35c-6.36,9.36-7.13,21.37-6.64,32.68
			c0.13,3.01,0.36,6.02,0.88,8.99c0.13,0.77,0.29,1.53,0.47,2.29c-2.85,2.88-6.22,5.03-10.29,6.76c-6.17,2.61-12.8,4.22-18.6,7.57
			c-9.25,5.34-21.84,14.19-22.24,24.86c-0.28,7.52,2.74,15.12,7.97,20.46c3.23,4.05,45.81,62.18,55.61,66.76
			c15.72,7.96,12.92-10.23,28.75-17.29c9.45-1.27,26.04-24.35,20-24.58c-7.62-5.26-20.71-38.31-24.89-47.29
			c6.38-3.52,24.3-7.93,30.3-12.14c8.31-2.43,16.84-4.15,24.87-7.38c4.32-1.74,8.87-4.38,10.2-8.85c0.87-2.94,0.16-6.09-0.56-9.07
			C622.19,333.64,620.68,327.38,619.17,321.11z"/>
		<path class="st5" d="M531.69,301.54c-0.16-3.48-0.08-7.23,1.94-10.08c0.78-1.1,1.88-2.04,3.18-2.39s2.83-0.05,3.73,0.96
			c0.5,0.56,0.78,1.28,1.02,1.98c1.73,4.96,2.41,10.46,1.1,15.6c-0.53,2.06-1.31,4.96-3.7,5.52c-1.97,0.47-3.94-0.85-5.1-2.34
			C531.91,308.26,531.83,304.63,531.69,301.54z"/>
		<path class="st5" d="M564.58,290.6c-0.39-3.47-0.56-7.21,1.27-10.18c0.71-1.15,1.74-2.16,3.02-2.6c1.28-0.44,2.82-0.23,3.79,0.71
			c0.54,0.52,0.86,1.22,1.15,1.91c2.06,4.83,3.1,10.28,2.13,15.5c-0.39,2.09-0.98,5.03-3.32,5.75c-1.94,0.6-3.99-0.58-5.25-2
			C565.24,297.29,564.93,293.67,564.58,290.6z"/>
		<path class="st5" d="M606.24,294.6c-0.39-3.47-0.56-7.21,1.27-10.18c0.71-1.15,1.74-2.16,3.02-2.6c1.28-0.44,2.82-0.23,3.79,0.71
			c0.54,0.52,0.86,1.22,1.15,1.91c2.06,4.83,3.1,10.28,2.13,15.5c-0.39,2.09-0.98,5.03-3.32,5.75c-1.94,0.6-3.99-0.58-5.25-2
			C606.9,301.29,606.59,297.67,606.24,294.6z"/>
		<path class="st5" d="M586.97,273.5c-0.39-3.47-0.56-7.21,1.27-10.18c0.71-1.15,1.74-2.16,3.02-2.6c1.28-0.44,2.82-0.23,3.79,0.71
			c0.54,0.52,0.86,1.22,1.15,1.91c2.06,4.83,3.1,10.28,2.13,15.5c-0.39,2.09-0.98,5.03-3.32,5.75c-1.94,0.6-3.99-0.58-5.25-2
			C587.63,280.19,587.32,276.57,586.97,273.5z"/>
		<path class="st8" d="M500.75,357.8c-0.46,0.05-0.95,0.08-1.34-0.16c-1.28-0.81,0.31-2.65,1.71-3.22c3.35-1.36,6.7-2.72,10.05-4.08
			c2.29-0.93,4.63-1.75,7.14-1.11c5.92,1.52-5.99,6.54-7.72,7C507.43,357.07,504.01,357.64,500.75,357.8z"/>
		<path class="st8" d="M581.68,340.23c0.12,2.88,0.14,6.07-1.77,8.23c-2.82,3.18-9.09,3.24-9.83,7.43
			c5.7,1.14,11.96-1.28,15.42-5.95c5.13-6.94,3.62-16.57,1.87-25.03c-0.66-3.2-1.2-6.46-2.03-9.62c-0.44-1.69-1.05-3.46-2.64-1.63
			c-3.36,3.86-1.68,10.94-1.49,15.48C581.36,332.83,581.52,336.53,581.68,340.23z"/>
		<path class="st8" d="M606.2,326.07c1.25,5.4,2.78,10.9,2.01,16.39c-0.77,5.48-4.59,11.01-10.08,11.72
			c-0.76-2.09,0.51-4.31,1.56-6.28c3.69-6.93,5.04-15.07,3.77-22.82c-0.43-2.6-1.14-5.17-1.1-7.8c0.02-1.55,0.31-3.7,1.34-4.95
			c1.68-2.03,1.35,0.27,1.22,1.61C604.51,318.02,605.28,322.12,606.2,326.07z"/>
		<path class="st8" d="M536.35,357.43c-0.61-1.82,0.27-3.83,1.47-5.33s2.73-2.74,3.75-4.38c1.23-1.97,1.6-4.34,2.12-6.6
			c0.69-2.98,1.99-6.53,5.36-7.24c2.7-0.57,4.67,1.02,4.43,3.78c-0.5,5.62-4.37,11.33-8.52,14.93
			C542.46,354.76,539.53,356.45,536.35,357.43z"/>
		<path class="st8" d="M600.71,361.45c1.13,1.14-0.42,2.93-1.82,3.73c-9.44,5.44-19.33,10.11-29.53,13.95
			c-10.29,3.88-20.91,6.92-31.69,9.08c-1.77,0.35-11.27,3.18-11.84,0.95c-0.62-2.4,4.39-5.88,6.03-6.75
			c4.85-2.55,10.32-4.34,15.45-6.25c5.31-1.98,10.67-3.81,16.07-5.5c10.86-3.39,21.91-6.21,33.07-8.41
			C597.88,361.98,599.29,361.71,600.71,361.45z"/>
		<path class="st0" d="M586.1,405.02c0,0-9.81,21.19-17.39,29.27c-7.59,8.08-29.55,20.15-38.68,33.96l18.55,2.13l44.34-27.65
			l2.18-33.78L586.1,405.02z"/>
	</g>
</g>
</svg>
