<?xml version="1.0" encoding="utf-8"?>
<!-- Generator: Adobe Illustrator 25.2.1, SVG Export Plug-In . SVG Version: 6.00 Build 0)  -->
<svg version="1.1" xmlns="http://www.w3.org/2000/svg" xmlns:xlink="http://www.w3.org/1999/xlink" x="0px" y="0px"
	 viewBox="0 0 998.2 973.2" style="enable-background:new 0 0 998.2 973.2;" xml:space="preserve">
<style type="text/css">
	.st0{fill:#7786A5;}
	.st1{fill:#677490;}
	.st2{fill:#404B62;stroke:#404B62;stroke-width:3;stroke-miterlimit:10;}
	.st3{fill:#404B62;}
	.st4{fill:#C8315C;}
	.st5{fill:#1B2334;}
	.st6{fill:#AD3255;}
	.st7{fill:#FFFEFF;}
	.st8{fill:#EC4848;}
	.st9{fill:#CB5050;}
	.st10{fill:#364B63;}
	.st11{fill:#352745;}
	.st12{fill:#282F3D;}
	.st13{fill:#FFFFFF;}
</style>
<g id="тело">
	<path class="st0" d="M299.3,290.6c-34.5,30.1-34.2,62.3-55.9,84.8c-12.4,12.9-31,39.9-48.8,65.7c-13.2,19.2-26,37.6-35.6,49
		c-25,29.8-59.6,84.9-59.9,105.2c-0.3,20.3-33.7,74.3-17.4,120.1c16.3,45.8,93.7,68.7,135,32.3s43.6-95,58.6-133.8
		c15-38.8,61.1-103.3,73.4-153.5c16.9-68.7,2-85.2-12.2-110.6C322.3,324.2,299.3,290.6,299.3,290.6z"/>
	<path class="st0" d="M692.6,315.1c32.4,32.4,30,64.5,50.2,88.3c11.5,13.7,28.3,41.9,44.3,68.8c11.9,20,23.5,39.3,32.2,51.3
		c23,31.4,53.8,88.7,52.8,108.9c-1,20.3,28.7,76.3,9.4,121c-19.3,44.6-98,62.3-136.9,23.2c-38.8-39.1-53.1-87.5-65.5-127.2
		C666.7,609.6,641,532,632,481c-12.3-69.7,3.6-85.2,19.5-109.6C667.4,347,692.6,315.1,692.6,315.1z"/>
	<path class="st0" d="M314.1,278.8c-20.3,10-39.8,39.8-53.1,76.1s73.2,77,61.8,122.1s-28.7,72.5-31.1,95.6
		c-2.4,23-48.6,124.9-28.6,162.6c24.9,47.1,112,5,203.9,14.5c103.5,10.7,197.8,41.9,216.4,8.5c22-39.3-8-106.5-8.2-139.8
		c-0.3-38.2-38.2-116.1-31.1-145c6.1-25.1,85.8-69,76.1-107.9c-9.7-38.9-35.1-68.8-63.7-84.9c-36.3-20.4-103.5-23.9-174.3-28.3
		S346.4,262.9,314.1,278.8z"/>
	<path class="st1" d="M300.2,402.6c-0.9,1.8-1.7,3.6-2.6,5.4c-11.4-14.3-26.7-25.5-43.9-31.8c11.4,21,22.8,42,34.2,63.1
		c6.3,11.6,12.6,23.4,14.9,36.3c-6.4-1.8-13.8,2.7-15,9.2c-0.7,3.5,0.2,7,0.5,10.5c0.4,5.1-0.5,10.3-1.4,15.3
		c-3.5,19.6-6.9,39.2-10.4,58.7c-1.2,6.9-2.4,14.3,0.5,20.6c0.6,1.3,2.1,6.2,3.5,6.7c3.5,1.4,6.4-3.1,7.6-6.7
		c8.4-26.4,16.1-56.3,24.5-82.7c2.1-6.6,4.2-13.2,6.2-19.8c1.5-4.9,3.3-9.9,3.5-15.1c0.2-3.9-0.7-7.6-1.7-11.3
		c-1.6-5.8-3.3-11.5-5-17.3c-2.1-7.1-4.5-14.1-7.1-21c-1.3-3.5-2.6-6.9-4-10.3C304,411.6,299.8,403,300.2,402.6z"/>
	<g>
		<polygon class="st2" points="324.2,546 365.7,444.8 370,514.9 404.4,448.2 413,537.1 398.3,538.9 400.2,470.1 368.6,539.2 
			362.9,539.8 360.8,472.2 341.1,541.7 		"/>
		<polygon class="st2" points="313.6,570.9 592.3,521.7 316.8,542 		"/>
		<g>
			<path class="st2" d="M441.9,534.6c-15.9,0-17.7-17.5-16.8-17.6c0.9-0.1,3.5,14.5,18.5,13.1c3.6-0.4,6.9-2.1,9.3-5.2
				c6.6-8.6,7.2-24.7,6.4-37.4c-1.3,6.6-2.7,14.9-7.1,19.2c-2.7,2.7-6.8,4.8-10.4,4.7c-3.8-0.1-8.1-2.4-10.3-5.2
				c-7.6-9.6-1-35.3-0.1-35.1c0.9,0.2-3,21,3.6,29.4c1.7,2.1,3.8,3.1,6.6,3.2c2.8,0.1,5.2-0.9,7.3-3c8.6-8.4,9.5-30.2,10.3-30.3
				c0.9-0.1,11.7,42.5,0.1,58.4c-5.7,7.9-10.4,5.3-14.9,5.7C443.6,534.6,442.7,534.6,441.9,534.6z"/>
		</g>
		<path class="st2" d="M522.7,468.2c-3.5-1.9-16.1-1.9-25.8-1.2c-6.5,0.4-21.9,1.8-25.1,5.2c-5,5.4,0.6,15.7,1.2,15.7
			c0.3,0-2.3-7.7,1.1-11.4c1.7-1.8,7.8-3.4,18.3-4.1l4,56.1c0,0.9-9.7,1.6,1.6,1.6c0.9,0,1.6-0.7,1.6-1.6l2-56.4
			c9.7-0.6,16.9-0.3,19.4,1.1c4.2,2.3,1.2,9,2.1,9.4C523.9,482.8,528.1,471.2,522.7,468.2z"/>
		<g>
			<path class="st2" d="M537.2,527.1c-0.4,0-0.8-0.1-1.1-0.4c-0.4-0.3-12.3,1.2-6.3,0.4c0,0,4.6-60.6,5.5-60.6s2.7,13.4,2.7,13.4
				c2.2,0.5,7.7,2.2,12.5,4.8c8.8,4.7,13.7,11.3,14.1,19.2c0.4,8-4.3,14.6-13.5,19c-6.7,3.2-13.5,4.1-13.7,4.2
				C537.4,527.1,537.3,527.1,537.2,527.1z M538.2,483.7l0.7,39.8c5.8-1.2,19.8-6.4,19.1-19.9C557.3,490.1,543.9,485.2,538.2,483.7z"
				/>
		</g>
	</g>
	<path class="st1" d="M230.5,527.6c6,11.9,14.6,22.4,25.2,30.6c-34.8-11.3-71.3-22.8-107.4-16.7c13.8,2.5,27.6,4.9,41.4,7.4
		c-19.4,4.1-40,8.8-53.7,23.1c8.9,1.4,17.7-2,26.4-3.9c20.9-4.4,42.6,0.5,62.8,7.2c10.8,3.6,21.4,7.8,32.2,11.4
		c5.5,1.8,11,3.6,16.5,5c2,0.5,10.1,3.8,11.5,1.3c1.2-2-2.4-6.6-3.3-8.1c-2.5-4.2-4.7-8.4-6.9-12.7c-4.5-9-10.8-16.9-18.1-23.8
		C249,540.7,239.7,534.1,230.5,527.6z"/>
	<path class="st1" d="M699.1,360.8c-28.2,29.4-45.7,70.6-61.9,108c6.1-26.1,10.6-52.6,13.5-79.3c-17.9,22.8-18.9,54.1-19.2,83.1
		c-1.6-14.2-4.2-28.2-7.8-42c-12.8,52.8,32.1,109.5,12.6,162.6c-16.1,15.4-38.8,25.1-60,32.5c-10.3,1-46.7,18.4-17,19.1
		c-21.2,11.9-35.5,37-62,31.3c-14.7-4-31.7-0.1-45.2-7.9c-24.8-15.8-45.3-36.8-69-54.3c-12.9-6.4-27.6-8.4-41.4-12.3
		c-16.8-6.1-34.6-13.4-53-13c-15.6,5.3,5.5,34.2,8.6,44.2c16.5,31.7,40.7,59.5,70.4,79.5c15.2,13.3,34.8,7,51.7,15.1
		c34.3,0.9,100,26.2,114.6-18.2c24.7,4.7,39.6-25.1,61.3-33c14.6-4.4,16-19.9,27.6-27.1c0,0,32.4-16.2,32.4-16.2
		c5.6-3.4,15.1-1.9,18.7-7.3c9.9-31.9-18.3-97.8-28.7-130.8C642.9,466.9,722.8,376.4,699.1,360.8z"/>
	<path class="st3" d="M661,410.2c-11.1,23-18.1,48-20.3,73.5c-1-19.3-0.3-25.5-1.4-44.8c0.4-3.3,0.2-20.7-3.3-17.8
		c-3.5,20.7-4.9,41.9-0.3,62.4c-2.2-4.1-4.9-7.9-8.2-11.3c1.7,1.7,2.7,4.9,3.8,7c1.4,2.8,2.8,5.7,4.1,8.6c2.7,6.2,5,12.6,6.9,19.1
		c3.2,11.4,4.4,22.8,5.7,34.5c0.7,5.9,1.2,11.7,1.8,17.6c1.2,11.8,2.3,23.7,3.5,35.5c0.4,3.8,0.7,7.6,0.1,11.4
		c-0.6,3.5-2,6.8-2.8,10.2c-1.5,6.8-0.2,14.3,3.5,20.2c3.3,5.1,7.9,5.6,13.5,4.8c5.3-0.7,12.4-1.8,16.1-6.1
		c5.2-3.4-4.5-29.9-5.6-35.8c-8.1-41.4-11.9-42.1-22.9-83.7c-2.5-9.7-6.2-21.5-10.5-30.3C644.5,459.4,664,436.5,661,410.2z"/>
	<path class="st3" d="M311.4,511.9c4.9-14,9.9-28.1,11.9-42.8c2.1-14.7-14.5-59.4-21.4-72.5c-0.2,18.9,15,66.9,14.8,85.8
		c-5.2-6.1-10.3-12.2-15.5-18.4c1.5,10.2,2.9,20.4,4.2,30.6c0.4,3.3,0.8,6.9-1.2,9.6s-7.1,2.9-8-0.3c-0.6,14.2-3,28.2-7,41.8
		c-4.1,13.9-10,27.8-9,42.2c1.3,0.5,2.8,1.3,4.2,1.6c1.4,0.3,1.4,0.2,1.9-1.2c1-2.7,1.7-5.6,2.6-8.3c1.7-5.6,3.5-11.1,5.3-16.6
		c3.6-11.1,7.2-22.3,11-33.3c1-3.1,2.1-6.2,3.1-9.2c0.5-1.5,1-3,1.6-4.5C310.2,515.1,311.4,513.2,311.4,511.9z"/>
</g>
<g id="рукав">
	<path class="st0" d="M104.2,591.1c-23.3,22.7-49.8,95.2-17.8,140.9c32,45.8,49.4,46.6,63.5,51.1c14,4.5,47.9,9,67,8.2
		c19.1-0.8,53.8-4.5,65.5-0.9c11.7,3.6,19.6,10,30.2,2.9c10.6-7.1-0.3,15.4,20.1,15.7c20.4,0.2,46.3-32.5,59-51.8
		s33.1-60.9,19.2-75.1c-13.9-14.2-27.1-10.4-32.1-14.6c-5-4.3-18.9-29.2-37.6-34.4c-18.6-5.2-20.3-25.3-36.6-29.5
		c-16.3-4.3-44.1-32.4-68.2-35.3C212.3,565.3,156.5,540,104.2,591.1z"/>
	<path class="st3" d="M372,708.3c-4.1,1.9-8.6,3-12.5,5.3c-11.6,7.2-13.4,23-14,36.6c-0.4,9.5-0.8,18.9-1.2,28.4
		c21.2-0.8,38.1-17.9,50.4-35.2c11.8-16.5,21.6-34.3,30.1-52.8c1.6-3.4,3.1-7.2,2.3-10.8c-2.5-10.6-17.4-2.4-22.3,1.2
		c-7.4,5.4-13.3,12.5-20.2,18.6C380.8,703,376.7,706.1,372,708.3z"/>
	<path class="st1" d="M348.3,675.9c-10.5,6-21.3,13-26.1,24c-6.5,14.7-0.9,32.9-8.2,47.2c-2.3,4.5-5.8,8.4-8.2,12.9
		c-2.4,4.5-3.6,10.2-1.1,14.6c-9.9-3-21.7-8.1-22.6-18.4c-1-11.3,11.5-18.4,17.3-28.1c5.3-9,4.6-20.3,8.2-30.1
		c4.6-12.3,15.7-21.3,27.9-26.3c8.6-3.5,17.8-5.3,26.9-6.6c1.4-0.2,11.9-2.1,11.3,0c-0.3,0.8-4.6,1.4-5.5,1.7
		c-2.2,0.7-4.4,1.5-6.5,2.4C357.1,671,352.7,673.4,348.3,675.9z"/>
	<path class="st3" d="M248.2,563.8c-1.8-1.5-3.7-3-6-3.4c-2.5-0.4-5,0.7-7.5,1c-5.3,0.7-10.4-2.1-15.6-3.5
		c-8.6-2.4-17.8-1.1-26.6,0.4c-13.4,2.4-26.6,5.4-39.7,9.1c-15,4.3-31,10.4-39.2,23.7c28.8-11.4,59.1-19.1,89.8-22.7
		c1.9-0.2,4-0.3,5.3,1c1.3,1.3,1.1,3.5,2,5c1.2,2.1,3.9,2.7,6.3,3.2c15.2,2.7,30.4,5.2,45.7,7.5c4.2,0.6,8.6,1.6,12.8,1.9
		c0.2-1.3-4.9-4.5-6-5.5c-2.4-2-4.8-4-7.2-6C257.8,571.8,253,567.8,248.2,563.8z"/>
</g>
<g id="рука">
	<path class="st4" d="M489.2,731.5c1.9-3.5,5.8-24.2,3-27c-4.8-4.7-44.5-9.9-62.6-15.2c-22.7-6.4-50.3-8-70.2,6
		c-18.8,14.7-33.2,41.1-10,59.1c31.4,20.7,70.2,33.9,107.9,28.7C479,779.2,490.5,752,489.2,731.5z"/>
	<path class="st4" d="M470.7,795.9c4.2,1.8,8.7,3.5,13.3,3.3c4.6-0.2,9.4-2.8,10.7-7.2c0.9-3,0.1-6.2-1.5-8.9s-4-4.7-6.4-6.7
		c-4.5-3.6-9.2-6.9-14.3-9.7c-6.7-3.8-15.1-6.8-21.9-3c-2.8,1.6-5,4.2-6.2,7.2c-1.5,3.4-1.7,7.5-0.1,10.8
		C447.1,787.4,462.5,792.5,470.7,795.9z"/>
	<path class="st4" d="M475.9,790.7c0.8,4.1,3.7,7.8,7.7,8.9c1.9,0.6,4,0.5,5.9,0.2c1.4-0.2,2.7-0.5,4-1.1c3.5-1.6,5.8-5.3,6-9.2
		s-1.6-7.6-4.5-10.1c-3.2-2.7-8-4.1-12.1-3.2c-1.6,0.4-3.5,1.2-4.7,2.4c-1,1.1-1.4,2.7-1.8,4.1C475.7,785.4,475.4,788.1,475.9,790.7
		z"/>
	<path class="st4" d="M495,806.7c9.7,5.8,20.6,10.9,31.9,9.7c3.7-0.4,7.8-1.9,9-5.4c0.8-2.3,0-4.8-1.4-6.8c-1.4-1.9-3.4-3.4-5.3-4.8
		c-9-6.3-18.6-11.8-28.6-16.3c-4.9-2.2-10.5-4.2-15.4-2.1c-2.2,1-3.9,2.7-4.9,4.9c-0.8,1.6-1.5,3.6-1.2,5.3c0.3,1.8,1.7,3.4,2.8,4.8
		c1.6,2.1,3.6,3.9,5.6,5.5C489.8,803.6,492.4,805.2,495,806.7z"/>
	<path class="st5" d="M523.9,810.6c3,1.8,6.3,3.5,9.8,3.1c1.3-0.2,2.7-0.7,3.6-1.7c0.9-1,1.4-2.5,0.9-3.7c-0.3-0.7-0.8-1.3-1.3-1.8
		c-3.5-3.9-8-7.1-13.2-8.4c-2.1-0.5-5-1.2-6.6,0.6c-1.4,1.5-1.1,3.9-0.4,5.6C518.1,807.2,521.3,809,523.9,810.6z"/>
	<path class="st4" d="M518.3,787c11,5.6,29.5-2.6,19-15.6c-10.9-8.9-34-20.2-43.7-13.1C478,769.7,501.4,783.8,518.3,787z"/>
	<path class="st4" d="M539.9,771.7c11,5.6,29.5-2.6,19-15.6c-10.9-8.9-34-20.2-43.7-13.1C499.7,754.4,523.1,768.5,539.9,771.7z"/>
	<path class="st4" d="M521.2,781c1.9,13.1,23,12,23.6-1.1C545.3,762.5,516.4,761.7,521.2,781z"/>
	<path class="st4" d="M489.5,768.4c0.8,4.1,3.7,7.8,7.7,8.9c1.9,0.6,4,0.5,5.9,0.2c1.4-0.2,2.7-0.5,4-1.1c3.5-1.6,5.8-5.3,6-9.2
		c0.2-3.8-1.6-7.6-4.5-10.1c-3.2-2.7-8-4.1-12.1-3.2c-1.6,0.4-3.5,1.2-4.7,2.4c-1,1.1-1.4,2.7-1.8,4.1
		C489.2,763.1,489,765.8,489.5,768.4z"/>
	<path class="st4" d="M490.4,775.5c11,5.6,29.5-2.6,19-15.6c-10.9-8.9-34-20.2-43.7-13.1C450.1,758.2,473.5,772.3,490.4,775.5z"/>
	<path class="st4" d="M536.4,792.1c9.7,5.8,21.3,12.3,32.4,10c27.6-5.7-27.2-36.7-38.1-31.4C516.3,778.6,527.3,787.4,536.4,792.1z"
		/>
	<path class="st5" d="M565.8,796.1c3,1.8,6.3,3.5,9.8,3.1c1.3-0.2,2.7-0.7,3.6-1.7c0.9-1,1.4-2.5,0.9-3.7c-0.3-0.7-0.8-1.3-1.3-1.8
		c-3.5-3.9-8-7.1-13.2-8.4c-2.1-0.5-5-1.2-6.6,0.6c-1.4,1.5-1.1,3.9-0.4,5.6C560,792.7,563.2,794.5,565.8,796.1z"/>
	<path class="st4" d="M523.2,742.9c11,5.6,29.5-2.6,19-15.6c-10.9-8.9-34-20.2-43.7-13.1C482.9,725.6,506.3,739.7,523.2,742.9z"/>
	<path class="st4" d="M526.1,736.9c1.9,13.1,23,12,23.6-1.1C550.2,718.4,521.3,717.7,526.1,736.9z"/>
	<path class="st4" d="M495.3,731.5c11,5.6,29.5-2.6,19-15.6c-10.9-8.9-34-20.2-43.7-13.1C455,714.2,478.4,728.3,495.3,731.5z"/>
	<path class="st4" d="M541.3,748c9.7,5.8,21.3,12.3,32.4,10c27.6-5.7-27.2-36.7-38.1-31.4C521.2,734.6,532.2,743.3,541.3,748z"/>
	<path class="st5" d="M570.8,752.1c3,1.8,6.3,3.5,9.8,3.1c1.3-0.2,2.7-0.7,3.6-1.7c0.9-1,1.4-2.5,0.9-3.7c-0.3-0.7-0.8-1.3-1.3-1.8
		c-3.5-3.9-8-7.1-13.2-8.4c-2.1-0.5-5-1.2-6.6,0.6c-1.4,1.5-1.1,3.9-0.4,5.6C565,748.7,568.1,750.5,570.8,752.1z"/>
	<path class="st4" d="M512,760.3c11,5.6,29.5-2.6,19-15.6c-10.9-8.9-48.5-24-58.2-16.9C457.2,739.3,495.2,757.1,512,760.3z"/>
	<path class="st4" d="M542.9,765.8c1.9,13.1,23,12,23.6-1.1C567,747.3,538,746.5,542.9,765.8z"/>
	<path class="st4" d="M511.2,753.2c0.8,4.1,3.7,7.8,7.7,8.9c1.9,0.6,4,0.5,5.9,0.2c1.4-0.2,2.7-0.5,4-1.1c3.5-1.6,5.8-5.3,6-9.2
		c0.2-3.8-1.6-7.6-4.5-10.1c-3.2-2.7-8-4.1-12.1-3.2c-1.6,0.4-3.5,1.2-4.7,2.4c-1,1.1-1.4,2.7-1.8,4.1
		C510.9,747.9,510.7,750.6,511.2,753.2z"/>
	<path class="st4" d="M558.1,776.9c9.7,5.8,21.3,12.3,32.4,10c27.6-5.7-27.2-36.7-38.1-31.4C538,763.4,548.9,772.2,558.1,776.9z"/>
	<path class="st5" d="M587.5,780.9c3,1.8,6.3,3.5,9.8,3.1c1.3-0.2,2.7-0.7,3.6-1.7s1.4-2.5,0.9-3.7c-0.3-0.7-0.8-1.3-1.3-1.8
		c-3.5-3.9-8-7.1-13.2-8.4c-2.1-0.5-5-1.2-6.6,0.6c-1.4,1.5-1.1,3.9-0.4,5.6C581.7,777.5,584.9,779.3,587.5,780.9z"/>
	<path class="st6" d="M368.9,745.3c6.6-26,48.3-16.2,69.4-24.4c40.5-10.3,47.1,14.2,30,46c-27.7,17.4-62,13.3-89.9,3.5
		C364.2,765.3,371.1,751,368.9,745.3z"/>
</g>
<g id="рукав_1_">
	<path class="st0" d="M830.7,600.3c27,19.8,66.1,91.9,42.8,146.8c-23.3,54.9-55.7,60.1-68.8,67.6c-13,7.5-59.2,25.4-78.2,28.2
		c-19,2.8-53.8,5.5-64.7,11.6c-10.9,6-24.3,8.4-35.9,2.8c-11.7-5.6-12.6,13.9-32.6,18.1c-20,4.2-51.4-25.7-67.4-43.9
		c-15.9-18.2-43.5-58.6-32.3-76.4c11.2-17.8,24.9-16.3,29-21.8s13.4-34.7,30.9-43.9c17.4-9.1,66.8-29.9,82.1-37.5
		c15.3-7.7,37.7-43,60.9-50.7C719.6,593.5,770.1,555.8,830.7,600.3z"/>
	<path class="st1" d="M716.6,588.2c37.7-12.6,83.2-14.6,114.9,16.2c-18.7-2.5-37.2-6.5-55.4-12c11.5,7.8,26.5,7.8,36.7,17.8
		c11.6,13.8,20.5,30.4,30.9,45.3c-21.1-9.1-41.1-21.7-59-37.4c4.3,3,7.9,7.2,10.3,12.3c-74.9,4.4-48.3-37.9-135.4-0.3
		C673.4,613.2,692.3,593.8,716.6,588.2z"/>
	<path class="st3" d="M498.9,768.2c0.9,4.1,3.6,7.6,6.2,10.9c8.2,10.4,16.3,20.9,24.5,31.3c11.2,14.3,22.7,28.9,37.7,39.3
		c7.3,5,16,9.2,24.8,7.9c5.5-0.8,10.7-3.8,13.7-8.5c2.9-4.6,4.6-14.6,1.7-19.2c-3.1-4.9-11.4-16.1-16.6-18.6
		c-16-7.6-18-13-27.4-27.9c-2.8-4.4-5.3-9.1-9.5-12.3c-2.1-1.6-4.5-2.6-6.9-3.7c-8.6-3.8-17.1-7.6-25.7-11.4
		c-2.3-1-17.1,2.1-19.7,2.8C498.4,759.9,498.3,765.6,498.9,768.2z"/>
	<path class="st1" d="M570.6,755.2c2.6,3.9,4.9,8.4,8.6,10.7c2.1,1.3,4.6,1.9,6.1,4c1.6,2.2,1.7,5.2,2.2,8
		c2.1,11,11.9,17.4,20.6,22.7c8.7,5.4,18.2,12.8,19,24c0.2,2.6-0.1,5.4,1.2,7.7c2.2,4.1,7.4,3.4,11.6,3.2c7.1-0.4,16.5,0.8,19.2-6.7
		c2.1-5.8-2.1-12.2-6.7-15.6s-10.1-5.9-13.1-11.2c-2.9-5-2.8-11.5-4.3-17.3c-3.4-12.6-14.2-20.3-24.2-26.9
		c-16.2-10.7-32.4-21.4-48.7-32.1c-3.8-2.5-8.4-5.4-12.8-3.4c-2.7,1.2-4.5,4-4.3,7.4c0.2,3.4,2.2,6.1,4.7,7.7
		c3.7,2.3,7.5,4,10.9,6.9C564.5,747.2,567.8,751,570.6,755.2z"/>
	<path class="st3" d="M716.7,593.9c11.4-3.4,22.6-8.2,34.3-10.2c11.7-2,24.3-0.9,34.3,6.5c-14.6-0.7-29.1-1.4-43.7-2.1
		c17.4,7.1,34.6,15.1,51.4,24c-25.6,1.3-50-22.1-74.8-15.5c-9.7,2.6-18.2,9.3-28,11.5c-1.8,0.4-5.2,1.4-7,0.6
		c-2-0.9-0.1-2.9,1.1-3.7c4.5-3,9.9-4.7,14.8-6.3C705,597.1,710.9,595.6,716.7,593.9z"/>
</g>
<g id="книжка">
	<g>
		<g>
			<path class="st4" d="M494.5,797.3c-11.8-3.8-21.5-21.9-4.8-27c14.2-0.9,71.8-10.7,72.9,5.3C563.9,794.2,532.5,809.5,494.5,797.3z
				"/>
			<path class="st4" d="M487.8,793.6c-11,2.2-23,3.3-34.2-1.6c-3.6-1.6-7.5-4.4-8-8c-0.3-2.4,1-4.5,2.8-5.9c1.8-1.4,4.1-2,6.3-2.7
				c10.4-2.9,21.2-4.8,32.2-5.7c5.3-0.4,11.4-0.4,15.9,3.2c2,1.6,3.4,3.9,4,6.2c0.4,1.7,0.8,3.8,0.1,5.4c-0.7,1.6-2.4,2.6-3.8,3.6
				c-2.1,1.4-4.4,2.4-6.8,3.3C493.6,792.3,490.7,793,487.8,793.6z"/>
			<path class="st5" d="M445.9,781.3c-3.5,0.2-7.2,0.2-8.6-0.6c-0.6-0.3-0.7-0.8-0.2-1.4c0.5-0.6,1.9-1.3,3.5-1.8
				c0.9-0.3,1.8-0.4,2.6-0.5c6.1-0.9,11.9-1.4,16.1-0.9c1.7,0.2,4,0.5,2.9,1.6c-0.9,0.9-3.5,1.9-5.8,2.5
				C452.6,781.1,449,781.2,445.9,781.3z"/>
			<path class="st4" d="M501.2,787.1c-1.3,13.1-22.5,13.1-23.6-0.1C476.2,769.7,505.1,767.6,501.2,787.1z"/>
		</g>
		<path class="st7" d="M289.1,711.1c45.8-24.9,97.9-38.2,150-38.3c-7.3,1.4-14.4,3.6-21.1,6.7c14.2-4.8,30.7-5.6,45.6-5.7
			c-5.6,0.4-21.5,3.6-26.1,6.8c9.7-1.9,28.4-5.1,38.2-3.9c-9.5,11.9-16,26-26,37.5c-15.4,17.6-37.5,27.7-59.1,36.7
			c-18.3,7.6-37,14.9-56.6,17.7s-40.6,0.7-57.6-9.5c-8.5-5.1-16.1-12.4-19.8-21.7c-0.6-1.5-1.7-3.6-0.5-5.1c0.9-1.1,2.9-1.3,4.2-1.8
			c4.6-1.7,8.2-6.3,12.2-9.2C277.7,717.5,283.4,714.2,289.1,711.1z"/>
		<path class="st7" d="M142.7,625.5c5.8,0.2,11.6,2.7,15.8,6.7c-4.7-5.4-9.4-10.8-14.1-16.1c8.3,2.5,16.2,6.5,23.2,11.7
			c-3-2-5.5-4.6-7.3-7.6c44.8,34.1,86.8,71.7,125.6,112.6c1.1,1.2,2.3,2.5,2.8,4c0.5,1.8,0.1,3.7-0.6,5.4
			c-3,7.2-10.7,11.6-18.4,12.4c-7.7,0.8-15.5-1.4-22.7-4.3c-38.1-15.5-64.7-50-88.3-83.8c-3.6-5.2-7.2-10.4-9.5-16.3
			c-1-2.6-2.1-5.6-1.7-8.4c0.4-2.3,0.9-3.5-0.2-5.7C145.6,632.7,143.9,629.2,142.7,625.5z"/>
		<path class="st8" d="M139.6,620.7l118.5,102.7c0,0,12.2,15.9,37,6.4l182.3-55.4c2.5-0.8,5,1.1,5,3.7l-3,207.3c0,3.2-2.3,6-5.4,6.8
			l-176.7,45c0,0-22.7,14.8-46.1-8l-106-88.9c-2.4-2-3.8-4.9-3.8-8L137,621.9C137,620.6,138.6,619.8,139.6,620.7z"/>
		<path class="st9" d="M280.6,737.4c2.4,0,6.2-0.3,8.3-1.5s5.3-3.3,4.8-5.7c-5.2-0.1-13.3-0.5-18.5-1.2c-4.5-0.6-10.3-0.9-14.1-3.7
			c-1.1-0.8-5.2-3.9-6.5-2.9c-0.9,0.7,2.2,4.2,2.2,5.2c0,3.9,4.7,5.6,7.8,6.7C269.6,736.3,275.1,737.3,280.6,737.4z"/>
		<path class="st9" d="M258.1,723.4L202.2,675c-0.9,6.4-1.1,12.8,0.3,19.1c1.9,8.7,6.7,16.4,8.9,25c1.5,5.8,1.8,11.8,1.7,17.8
			c-0.2,16.1-2.7,32.2-7.6,47.5c-4,12.8-9.7,25.5-9,38.8c0.5,9.6,4.2,18.6,7.9,27.4c3.5,8.4,7,16.7,10.5,25.1c0.9,2,2.2,4.4,4.4,4.5
			c3.2,0.1,4.1-4.4,3.9-7.7c3.7,12.4,5.3,25.1,5.7,38l22.3,18.7c2.9,2.8,5.7,5,8.5,6.8l1.9-208.5c0.1-0.2,0.2-0.4,0.3-0.6
			C259.3,725,258.1,723.4,258.1,723.4z"/>
		<path class="st9" d="M296.3,756.5l-1.5,160.9c2.3,0,2.7,2,4.9,2.9c2.7-15.1,3.1-30.6,0.9-45.8c-1.8,7.5-0.5,15.7,3.5,22.4
			c8.4-23,4.6-48.4,0.8-72.6c-0.7-4.2-1.3-8.5-1.4-12.8c-0.2-5.2,0.4-10.5,0.6-15.7C304.5,782.2,301.4,768.9,296.3,756.5z"/>
		<g>
			<path class="st10" d="M317.5,759.7c-0.1,0.6-0.1,1.3,0.3,1.7c0.5,0.4,1.3,0.1,1.8-0.4c0.5-0.5,0.8-1.2,1.1-1.8
				c1.2-2.8,2.4-5.6,3.6-8.5c0.2-0.6,0.6-1.2,1.2-1.4c0.5-0.1,0.9,0.2,1,0.7c0.3,0.8,0.2,1.8,0.3,2.7s0.5,1.9,1.4,2
				c1.1,0.1,2.2-1.1,2.6-2.2c0.4-1.2,0.4-2.3,0.8-3.5c0.1-0.2,0.2-0.5,0.4-0.7c0.5-0.5,1.2,0,1.5,0.6c1.1,2.4,0.6,5.7,2.5,7.4
				c0.2,0.2,0.5,0.4,0.8,0.3c0.7-0.1,1-1.1,1.1-1.9c0.4-4.6-0.7-8.9-1.8-13c-0.2-0.8-0.5-1.7-1.4-1.9c-1.2-0.3-2.5,1.2-3.1,2.5
				c-0.9,1.8-1.5,3.6-1.7,5.4c0,0.2-1,0.1-1.1,0.1c-0.4-0.1-0.7-0.3-0.9-0.5c-0.6-0.6-0.8-1.4-1.1-2.2c-0.3-1-1-3-2.5-2.1
				c-1.3,0.7-2.2,2.5-2.8,3.8c-0.9,1.9-1.5,4-2.1,6C318.6,754.9,317.9,757.3,317.5,759.7z"/>
			<path class="st10" d="M355.6,774.3c-0.1,0.6-0.1,1.3,0.3,1.7c0.5,0.4,1.3,0.1,1.8-0.4c0.5-0.5,0.8-1.2,1.1-1.8
				c1.2-2.8,2.4-5.6,3.6-8.5c0.2-0.6,0.6-1.2,1.2-1.4c0.5-0.1,0.9,0.2,1,0.7c0.3,0.8,0.2,1.8,0.3,2.7s0.5,1.9,1.4,2
				c1.1,0.1,2.2-1.1,2.6-2.2s0.4-2.3,0.8-3.5c0.1-0.2,0.2-0.5,0.4-0.7c0.5-0.5,1.2,0,1.5,0.6c1.1,2.4,0.6,5.7,2.5,7.4
				c0.2,0.2,0.5,0.4,0.8,0.3c0.7-0.1,1-1.1,1.1-1.9c0.4-4.6-0.7-8.9-1.8-13c-0.2-0.8-0.5-1.7-1.4-1.9c-1.2-0.3-2.5,1.2-3.1,2.5
				c-0.9,1.8-1.5,3.6-1.7,5.4c0,0.2-1,0.1-1.1,0.1c-0.4-0.1-0.7-0.3-0.9-0.5c-0.6-0.6-0.8-1.4-1.1-2.2c-0.3-1-1-3-2.5-2.1
				c-1.3,0.7-2.2,2.5-2.8,3.8c-0.9,1.9-1.5,4-2.1,6C356.7,769.6,356,772,355.6,774.3z"/>
			<path class="st10" d="M313.4,813.2c-0.1,0.6-0.1,1.3,0.3,1.7c0.5,0.4,1.3,0.1,1.8-0.4c0.5-0.5,0.8-1.2,1.1-1.8
				c1.2-2.8,2.4-5.6,3.6-8.5c0.2-0.6,0.6-1.2,1.2-1.4c0.5-0.1,0.9,0.2,1,0.7c0.3,0.8,0.2,1.8,0.3,2.7s0.5,1.9,1.4,2
				c1.1,0.1,2.2-1.1,2.6-2.2c0.4-1.2,0.4-2.3,0.8-3.5c0.1-0.2,0.2-0.5,0.4-0.7c0.5-0.5,1.2,0,1.5,0.6c1.1,2.4,0.6,5.7,2.5,7.4
				c0.2,0.2,0.5,0.4,0.8,0.3c0.7-0.1,1-1.1,1.1-1.9c0.4-4.6-0.7-8.9-1.8-13c-0.2-0.8-0.5-1.7-1.4-1.9c-1.2-0.3-2.5,1.2-3.1,2.5
				c-0.9,1.8-1.5,3.6-1.7,5.4c0,0.2-1,0.1-1.1,0.1c-0.4-0.1-0.7-0.3-0.9-0.5c-0.6-0.6-0.8-1.4-1.1-2.2c-0.3-1-1-3-2.5-2.1
				c-1.3,0.7-2.2,2.5-2.8,3.8c-0.9,1.9-1.5,4-2.1,6C314.5,808.5,313.8,810.8,313.4,813.2z"/>
			<path class="st10" d="M348.5,735.8c-1,0.2-1.9,0.9-2.8,1.6c-0.8,0.6-1.7,1.2-2.3,2c-1.1,1.3-1.5,3-1.9,4.5
				c-0.5,2.1-0.8,4.3-0.4,6.3c0.4,1.9,1.7,3.6,3.7,3.8c2.2,0.2,4.6-1.4,6-3.5s2-4.5,2.2-6.8c0.1-2.1,0-4.1-0.5-6
				c-0.2-0.9-0.6-1.9-1.5-2.2c-0.6-0.2-1.5-0.1-2.2,0.2L348.5,735.8z"/>
			<path class="st10" d="M368.6,735.4c-0.2-1.3-0.6-2.5-1.5-3.3c-1.2-1.1-3.2-1.1-4.9-0.5c-1.4,0.5-2.8,1.3-3.9,2.5
				s-1.6,2.8-1.4,4.2c0.2,1.4,1.4,2.3,2.9,2.1c-0.1,0.9-0.8,1.8-1.4,2.6c-1,1.3-1.8,2.7-2.5,4.2c-0.5,1-0.8,2.3-0.2,3
				c0.8,0.8,2.4,0.2,3.4-0.7c1.7-1.5,2.9-3.6,3.9-5.6c0.2-0.3,0.4-0.7,0.6-1c0.3-0.3,0.7-0.4,1-0.2c0.1,0.1,0.2,0.4,0.2,0.6
				c0,1.5-0.8,3.3,0.2,4.2c0.3,0.2,0.6,0.3,1,0.4c0.8,0.1,1.8,0,2.3-0.9c0.4-0.6,0.1-1.3,0.2-1.9c0.2-2.1,0.4-4.2,0.4-6.3
				C368.9,737.6,368.8,736.5,368.6,735.4z"/>
			<path class="st10" d="M466.1,735.2c-0.2-1.3-0.6-2.5-1.5-3.3c-1.2-1.1-3.2-1.1-4.9-0.5c-1.4,0.5-2.8,1.3-3.9,2.5
				c-1,1.2-1.6,2.8-1.4,4.2c0.2,1.4,1.4,2.3,2.9,2.1c-0.1,0.9-0.8,1.8-1.4,2.6c-1,1.3-1.8,2.7-2.5,4.2c-0.5,1-0.8,2.3-0.2,3
				c0.8,0.8,2.4,0.2,3.4-0.7c1.7-1.5,2.9-3.6,3.9-5.6c0.2-0.3,0.4-0.7,0.6-1c0.3-0.3,0.7-0.4,1-0.2c0.1,0.1,0.2,0.4,0.2,0.6
				c0,1.5-0.8,3.3,0.2,4.2c0.3,0.2,0.6,0.3,1,0.4c0.8,0.1,1.8,0,2.3-0.9c0.4-0.6,0.1-1.3,0.2-1.9c0.2-2.1,0.4-4.2,0.4-6.3
				C466.3,737.4,466.2,736.3,466.1,735.2z"/>
			<path class="st10" d="M317,783.5c-0.1,1.3,0,2.9,1.2,3c0.7,0.1,1.4-0.5,1.9-1.1c0.8-0.9,1.3-2,1.4-3c0.1-0.9,0.2-2,1-2.4
				c0.5-0.3,1,0,1.3,0.4c0.3,0.4,0.3,0.9,0.4,1.4c0.2,1,0.5,1.9,1.3,2.4s2,0.5,2.8-0.2c0.7-0.6,1-1.6,0.9-2.4s-0.5-1.5-0.9-2.1
				c-0.7-0.9-1.6-1.7-2.6-2.3c-0.5-0.3-1.2-0.7-1.1-1.4c0-0.7,0.7-1.2,1.2-1.7c1.5-1.6,2.5-3.7,2.6-5.7c0-0.2,0-0.5-0.1-0.6
				c-0.1-0.2-0.3-0.2-0.5-0.3c-1.2-0.2-2.7,0.5-3.8,1.6c-1.1,1.1-1.8,2.4-2.5,3.7c-0.1,0.1-0.4-0.3-0.5-0.4
				c-0.1-0.2-0.1-0.5-0.1-0.8c0-0.6,0.4-1.3,0.2-1.8c-0.3-0.9-1.9-0.5-2.4,0.4c-0.5,0.8-0.4,1.9-0.5,2.8c-0.1,1.5-0.3,3-0.5,4.6
				C317.4,779.6,317.2,781.6,317,783.5z"/>
			<path class="st10" d="M426.5,753.4c-0.1,1.3,0,2.9,1.2,3c0.7,0.1,1.4-0.5,1.9-1.1c0.8-0.9,1.3-2,1.4-3c0.1-0.9,0.2-2,1-2.4
				c0.5-0.3,1,0,1.3,0.4c0.3,0.4,0.3,0.9,0.4,1.4c0.2,1,0.5,1.9,1.3,2.4s2,0.5,2.8-0.2c0.7-0.6,1-1.6,0.9-2.4s-0.5-1.5-0.9-2.1
				c-0.7-0.9-1.6-1.7-2.6-2.3c-0.5-0.3-1.2-0.7-1.1-1.4c0-0.7,0.7-1.2,1.2-1.7c1.5-1.6,2.5-3.7,2.6-5.7c0-0.2,0-0.5-0.1-0.6
				c-0.1-0.2-0.3-0.2-0.5-0.3c-1.2-0.2-2.7,0.5-3.8,1.6c-1.1,1.1-1.8,2.4-2.5,3.7c-0.1,0.1-0.4-0.3-0.5-0.4
				c-0.1-0.2-0.1-0.5-0.1-0.8c0-0.6,0.4-1.3,0.2-1.8c-0.3-0.9-1.9-0.5-2.4,0.4c-0.5,0.8-0.4,1.9-0.5,2.8c-0.1,1.5-0.3,3-0.5,4.6
				C427,749.5,426.8,751.5,426.5,753.4z"/>
			<path class="st10" d="M332.5,779.9c0.6-2.7,0.6-2.7,0.5-5.3c-0.1-2.1-0.4-4.1,0-6.3c0.1-0.6,0.3-1.3,0.6-1.8
				c0.4-0.5,0.9-1,1.4-1.3c1.9-1.2,4.2-1.5,5.9-0.9c1.7,0.7,2.9,2.4,2.9,4.4s-1.3,4.3-3.2,5.4c-1.1,0.6-2.2,0.9-3.3,1.3
				c-0.2,0.1-0.5,0.2-0.7,0.4c-0.1,0.1-0.2,0.3-0.2,0.5c-0.2,1.1-0.2,2.1-0.2,3.2c0,1.1-0.2,2.2-0.9,3.1c-0.7,0.9-2,1.6-2.8,1.1
				C331.5,783.1,332,781.3,332.5,779.9z"/>
			<path class="st10" d="M368.5,787.5c0.7,2.4,0.7,2.4,0.7,5c0,2.1-0.2,4.3,0.2,6.2c0.1,0.6,0.3,1.1,0.7,1.5
				c0.4,0.4,0.9,0.5,1.5,0.6c1.9,0.3,4.2-0.5,5.9-2.1c1.7-1.5,2.8-3.7,2.7-5.7c-0.1-2-1.5-3.6-3.4-3.8c-1.1-0.1-2.2,0.2-3.3,0.4
				c-0.2,0-0.5,0.1-0.7-0.1c-0.1-0.1-0.2-0.2-0.2-0.4c-0.3-0.9-0.2-2-0.3-3c-0.1-1-0.3-2.1-1-2.7c-0.7-0.6-2-0.6-2.8,0.3
				C367.4,784.9,367.9,786.4,368.5,787.5z"/>
			<path class="st10" d="M345.1,775.2c-0.1,1-0.1,2.2,0.7,2.5c0.4,0.1,0.9,0,1.3-0.1c1.7-0.4,3.3-1,4.9-1.6c0.4-0.2,0.8-0.3,1.2-0.6
				c0.6-0.5,1-1.3,0.8-2s-0.7-1.1-1.4-1.1c-1,0-2,0.9-2.9,0.8c-0.5-0.1-0.8-0.4-1.1-0.7c-0.1-0.1-0.2-0.3-0.2-0.5
				c0-0.6,0.8-1,1.4-1.2c1-0.3,2-0.6,3-0.9c1-0.3,2.3-0.8,2.5-1.9c0.2-0.8-0.3-1.4-1-1.6c-0.7-0.1-1.5,0.1-2.3,0.4
				c-0.6,0.2-1.3,0.5-1.9,0.5c-1,0-1.6-0.9-1.5-1.9c0.9-0.8,2-0.9,3.1-1.1c1.1-0.2,2.3-0.9,2.5-2c0.2-0.9-0.5-1.6-1.3-1.7
				c-0.8-0.1-1.7,0.2-2.6,0.5c-0.7,0.3-1.4,0.5-2.1,0.8c-0.6,0.2-1.6,0.6-1.8,1.3c-0.1,0.3-0.1,0.7-0.1,1.1c-0.1,0.5-0.1,1-0.2,1.6
				c-0.3,2.1-0.5,4.1-0.8,6.2C345.3,772.8,345.2,774,345.1,775.2z"/>
			<path class="st10" d="M389.8,764.1c-0.1,1-0.1,2.2,0.7,2.5c0.4,0.1,0.9,0,1.3-0.1c1.7-0.4,3.3-1,4.9-1.6c0.4-0.2,0.8-0.3,1.2-0.6
				c0.6-0.5,1-1.3,0.8-2s-0.7-1.1-1.4-1.1c-1,0-2,0.9-2.9,0.8c-0.5-0.1-0.8-0.4-1.1-0.7c-0.1-0.1-0.2-0.3-0.2-0.5
				c0-0.6,0.8-1,1.4-1.2c1-0.3,2-0.6,3-0.9c1-0.3,2.3-0.8,2.5-1.9c0.2-0.8-0.3-1.4-1-1.6c-0.7-0.1-1.5,0.1-2.3,0.4
				c-0.6,0.2-1.3,0.5-1.9,0.5c-1,0-1.6-0.9-1.5-1.9c0.9-0.8,2-0.9,3.1-1.1c1.1-0.2,2.3-0.9,2.5-2c0.2-0.9-0.5-1.6-1.3-1.7
				c-0.8-0.1-1.7,0.2-2.6,0.5c-0.7,0.3-1.4,0.5-2.1,0.8c-0.6,0.2-1.6,0.6-1.8,1.3c-0.1,0.3-0.1,0.7-0.1,1.1c-0.1,0.5-0.1,1-0.2,1.6
				c-0.3,2.1-0.5,4.1-0.8,6.2C390.1,761.7,389.9,762.9,389.8,764.1z"/>
			<path class="st10" d="M378.9,757.7c0.3-1.6,0.8-3.4,2.1-4.4c1-0.8,2.2-0.9,3.3-0.9c0.3,0,0.7,0,1,0.2c0.5,0.2,0.7,0.7,0.9,1.2
				c1.4,3.3,2.3,6.9,3,10.6c0.1,0.8,0.2,1.8-0.6,2.4c-0.8,0.7-1.8,0.3-2.3-0.3c-1.5-1.8-1-4.8-1.8-7.1c-0.2-0.5-0.6-1.1-1.2-1
				c-0.6,0.2-0.9,0.9-1.1,1.4c-0.4,1.3-0.8,2.6-1,3.9c-0.2,1.3-0.4,2.8-1.2,4c-0.6,0.9-1.7,2-2.7,1.6c-0.8-0.3-1-1.5-0.9-2.3
				c0.2-1.4,0.8-2.9,1.1-4.3C378.1,761.1,378.5,759.4,378.9,757.7z"/>
			<path class="st10" d="M402.5,749.6c0.1-0.5,0.3-1,0.6-1.5c0.4-0.6,1-1.1,1.6-1.4c2-1.2,4.4-1.3,5.8,0c1.4,1.3,1.3,4-0.3,5.7
				c-0.5,0.5-0.9,0.8-1.5,1.2c-0.7,0.4-1.7,1-2.4,0.9c1.3-0.6,2.6-1.3,3.8-1.2c1.3,0.1,2.4,1.1,2.5,2.4c0.2,1.6-0.8,3.4-2.3,4.3
				c-0.9,0.5-1.9,0.8-2.8,1.1c-0.8,0.2-1.7,0.5-2.4,0.5c-2.5,0-2.3-3.3-2.5-5.3C402.3,754.2,402,752,402.5,749.6z"/>
			<path class="st10" d="M417.6,755.1c1.9,0.3,4-2.7,5.8-2.1c1,0.3,1.3,1.6,1.3,2.8c0,0.7-0.1,1.5-0.6,2.1c-0.3,0.4-0.8,0.7-1.3,0.9
				c-2.9,1.3-6.2,1.5-8-0.4c-1.2-1.2-1.6-3-1.5-4.8c0.1-1.8,0.6-3.8,1.3-5.6c0.3-1,0.7-2,1.5-2.8c0.5-0.5,1.1-0.8,1.7-1
				c1.8-0.9,3.8-1.4,5-0.1c0.4,0.5,1.2,1.7,0.1,2.3c-0.9,0.4-2,0.4-2.9,0.6c-1.5,0.4-2.4,1.4-3.1,2.8
				C416.1,751.6,415.4,754.8,417.6,755.1z"/>
			<path class="st10" d="M442.9,740.9c0.4-1.3,0.7-2.6,1.5-3.7c0.8-1.1,2.1-2,3.3-1.9c1.4,0.2,2,1.6,2.4,3c1.1,3.6,2.3,7.3,1.9,11.5
				c0,0.4-0.1,0.8-0.4,1.1c-0.2,0.2-0.5,0.3-0.8,0.4c-1,0.2-1.9-0.3-2.3-1.1c-0.4-0.8-0.2-1.8-0.3-2.7c-0.1-0.9-0.7-1.8-1.6-1.7
				c-0.9,0.1-1.6,1.1-1.9,2s-0.2,1.8-0.4,2.7c-0.2,0.9-0.8,2-1.7,2.3c-0.7,0.2-2.2,0.3-2.5-0.4c-0.4-0.7,0.1-1.8,0.3-2.6
				c0.4-1.4,0.8-2.8,1.2-4.1C442,744,442.5,742.4,442.9,740.9z"/>
			<path class="st10" d="M339.7,796.5c0.4-1.3,0.7-2.6,1.5-3.7c0.8-1.1,2.1-2,3.3-1.9c1.4,0.2,2,1.6,2.4,3c1.1,3.6,2.3,7.3,1.9,11.5
				c0,0.4-0.1,0.8-0.4,1.1c-0.2,0.2-0.5,0.3-0.8,0.4c-1,0.2-1.9-0.3-2.3-1.1c-0.4-0.8-0.2-1.8-0.3-2.7c-0.1-0.9-0.7-1.8-1.6-1.7
				c-0.9,0.1-1.6,1.1-1.9,2s-0.2,1.8-0.4,2.7c-0.2,0.9-0.8,2-1.7,2.3c-0.7,0.2-2.2,0.3-2.5-0.4c-0.4-0.7,0.1-1.8,0.3-2.6
				c0.4-1.4,0.8-2.8,1.2-4.1C338.8,799.6,339.3,798.1,339.7,796.5z"/>
			<path class="st10" d="M354.7,791.4c0.2,0,0.4,0,0.6,0.1c0.1,0.1,0.2,0.3,0.2,0.5c0.8,3.4-0.2,7.4,0.6,10.8
				c0.2,0.7,0.5,1.5,1.2,1.7c1,0.3,2.2-0.7,2.7-1.8c0.5-1.1,0.4-2.2,0.3-3.3c-0.2-2-0.4-4-0.6-6c-0.1-0.6-0.1-1.4,0.4-2
				c0.6-0.7,1.5-0.7,2.4-0.8c1-0.1,2.1-0.6,3.1-1.3c0.4-0.3,0.8-0.7,1-1.1c0.3-0.7,0-1.4-0.3-1.9c-0.1-0.2-0.2-0.4-0.5-0.5
				c-0.3-0.1-0.6,0-0.9,0c-1.7,0.4-3.3,0.8-5,1.2c-1.7,0.4-3.3,0.8-5,1.2c-0.8,0.2-1.6,0.4-2.5,0.6c-0.5,0.1-1,0.3-1.4,0.6
				c-0.4,0.3-0.6,0.7-0.7,1.1c-0.1,0.3-0.1,0.5-0.1,0.8c0,0.4-0.1,0.8,0,1.2c0.1,0.3,0.3,0.3,0.6,0.2c0.4-0.1,0.7-0.3,1.1-0.5
				c0.8-0.3,1.6-0.5,2.4-0.7C354.3,791.4,354.5,791.4,354.7,791.4z"/>
		</g>
	</g>
</g>
<g id="рука_1_">
	<g>
		<path class="st4" d="M486.4,882.9c1.2,3.8,13.6,20.9,17.5,20.8c6.8-0.2,41.7-20.8,54.1-35c20.5-23.4,26-31.6,29.5-55.7
			c2.2-23.7-12-50.5-41-46.1c-36.7,8.5-53.4,26.3-75.6,57.3C458.8,842.6,470.7,869.7,486.4,882.9z"/>
		<g>
			<path class="st4" d="M464.7,895.7c-4.2,1.9-8.5,3.9-10.8,6.9s-2.2,7.1,1.8,9.9c2.7,1.8,6.6,2.8,10.3,2.9
				c3.7,0.1,7.2-0.4,10.6-1.1c6.3-1.2,12.4-2.8,18.2-4.7c7.7-2.6,15.6-6.5,15.3-12.4c-0.1-2.4-1.8-4.9-4.2-7
				c-2.9-2.4-7-4.4-11.5-4.8C486.8,884.6,473,892.1,464.7,895.7z"/>
			<path class="st4" d="M471.3,900.2c-1.9-3.7-5.7-6.5-9.8-6.5c-2,0-4,0.6-5.8,1.4c-1.3,0.6-2.5,1.2-3.5,2.1
				c-2.9,2.5-4.1,6.7-3.3,10.4c0.8,3.7,3.6,6.9,7.1,8.5c3.8,1.7,8.8,1.8,12.5-0.2c1.4-0.8,3.1-2.1,3.8-3.6c0.7-1.3,0.6-3,0.6-4.4
				C472.9,905.2,472.5,902.6,471.3,900.2z"/>
			<path class="st4" d="M444.3,890.5c-10.9-3-22.8-4.9-33.3-0.8c-3.4,1.3-7,3.9-7.2,7.6c-0.1,2.4,1.3,4.7,3.1,6.2s4.1,2.4,6.4,3.2
				c10.4,3.7,21.1,6.4,31.9,8.1c5.3,0.8,11.2,1.3,15.4-2.1c1.8-1.5,3-3.7,3.4-6c0.3-1.7,0.5-3.8-0.3-5.5c-0.8-1.7-2.6-2.9-4-3.9
				c-2.1-1.6-4.5-2.8-6.9-3.8C450.1,892.2,447.3,891.3,444.3,890.5z"/>
			<path class="st5" d="M415.4,894.6c-3.4-0.9-7-1.7-10.3-0.4c-1.3,0.5-2.4,1.4-3,2.6c-0.6,1.2-0.7,2.7,0.1,3.9
				c0.4,0.6,1.1,1,1.7,1.4c4.4,2.8,9.7,4.7,15,4.6c2.1-0.1,5.1-0.2,6.2-2.4c0.9-1.8,0.1-4-1.1-5.5
				C421.9,896.3,418.4,895.4,415.4,894.6z"/>
		</g>
		<g>
			<path class="st4" d="M439.5,866.4c-12.1-2.4-27.8,10.4-14.1,20.1c12.8,5.6,38.2,10.4,45.6,0.9C483,872.2,456.6,864.9,439.5,866.4
				z"/>
			<path class="st4" d="M438.3,872.9c-5.3-12.1-25.4-5.4-22.4,7.4C420,897.2,448.1,890.1,438.3,872.9z"/>
			<path class="st4" d="M476.5,878.2c-1.9-3.7-5.7-6.5-9.8-6.5c-2,0-4,0.6-5.8,1.4c-1.3,0.6-2.5,1.2-3.5,2.1
				c-2.9,2.5-4.1,6.7-3.3,10.4c0.8,3.7,3.6,6.9,7.1,8.5c3.8,1.7,8.8,1.8,12.5-0.2c1.4-0.8,3.1-2.1,3.8-3.6c0.7-1.3,0.6-3,0.6-4.4
				C478.2,883.2,477.7,880.6,476.5,878.2z"/>
			<path class="st4" d="M464.6,868.3c-11.9,3.4-19.9,22-3.3,24.4c14-0.9,38.7-8.3,40.9-20.1C505.9,853.5,479.2,859.2,464.6,868.3z"
				/>
			<path class="st4" d="M420.7,866.3c-10.9-3-23.8-6.1-33.9-1c-25.1,12.9,36,28.1,45.2,20C443.6,873.9,430.7,868.4,420.7,866.3z"/>
			<path class="st5" d="M391.2,870.3c-3.4-0.9-7-1.7-10.3-0.4c-1.3,0.5-2.4,1.4-3,2.6s-0.7,2.7,0.1,3.9c0.4,0.6,1.1,1,1.7,1.4
				c4.4,2.8,9.7,4.7,15,4.6c2.1-0.1,5.1-0.2,6.2-2.4c0.9-1.8,0.1-4-1.1-5.5C397.7,872,394.2,871.1,391.2,870.3z"/>
		</g>
		<g>
			<path class="st4" d="M443.2,821.7c-12.3-1.4-26.8,12.8-12.4,21.2c13.3,4.5,38.9,7.1,45.5-3C487,823.8,460.1,818.8,443.2,821.7z"
				/>
			<path class="st4" d="M443.9,826.4c-5.3-12.1-25.4-5.4-22.4,7.4C425.6,850.7,453.7,843.6,443.9,826.4z"/>
			<path class="st4" d="M467.2,822.4c-11.7,3.9-19,22.7-2.4,24.5c14-1.4,38.3-9.7,40.2-21.6C507.9,806.2,481.3,812.8,467.2,822.4z"
				/>
			<path class="st4" d="M426.2,819.8c-10.9-3-23.8-6.1-33.9-1c-25.1,12.9,36,28.1,45.2,20C449.2,827.4,436.3,821.9,426.2,819.8z"/>
			<path class="st5" d="M396.8,823.8c-3.4-0.9-7-1.7-10.3-0.4c-1.3,0.5-2.4,1.4-3,2.6c-0.6,1.2-0.7,2.7,0.1,3.9
				c0.4,0.6,1.1,1,1.7,1.4c4.4,2.8,9.7,4.7,15,4.6c2.1-0.1,5.1-0.2,6.2-2.4c0.9-1.8,0.1-4-1.1-5.5
				C403.3,825.5,399.8,824.6,396.8,823.8z"/>
		</g>
		<g>
			<path class="st4" d="M434.4,847.7c-11.4-2.3-25.9,9.6-13.1,18.7c12.1,5.4,35.8,10,42.7,1.1C475.1,853.4,450.4,846.4,434.4,847.7z
				"/>
			<path class="st4" d="M461.9,848c-12.1,2.7-21.2,20.7-4.9,24.1c14,0,52.8-12.1,55.8-23.7C517.7,829.7,477,839.8,461.9,848z"/>
			<path class="st4" d="M432.8,851.5c-5.3-12.1-25.4-5.4-22.4,7.4C414.5,875.8,442.6,868.7,432.8,851.5z"/>
			<path class="st4" d="M465.1,858.3c-1.9-3.7-5.7-6.5-9.8-6.5c-2,0-4,0.6-5.8,1.4c-1.3,0.6-2.5,1.2-3.5,2.1
				c-2.9,2.5-4.1,6.7-3.3,10.4c0.8,3.7,3.6,6.9,7.1,8.5c3.8,1.7,8.8,1.8,12.5-0.2c1.4-0.8,3.1-2.1,3.8-3.6c0.7-1.3,0.6-3,0.6-4.4
				C466.8,863.3,466.3,860.7,465.1,858.3z"/>
			<path class="st4" d="M415.1,844.9c-10.9-3-23.8-6.1-33.9-1c-25.1,12.9,36,28.1,45.2,20C438.1,852.5,425.2,847,415.1,844.9z"/>
			<path class="st5" d="M385.7,848.9c-3.4-0.9-7-1.7-10.3-0.4c-1.3,0.5-2.4,1.4-3,2.6c-0.6,1.2-0.7,2.7,0.1,3.9
				c0.4,0.6,1.1,1,1.7,1.4c4.4,2.8,9.7,4.7,15,4.6c2.1-0.1,5.1-0.2,6.2-2.4c0.9-1.8,0.1-4-1.1-5.5
				C392.2,850.6,388.7,849.7,385.7,848.9z"/>
		</g>
		<path class="st6" d="M462.5,845.9c0.1,1.5,2.2,1.9,3.7,1.8c6.8-0.5,13.4-2.3,19.5-5.4c0.9-0.4,3.9-2.5,1.9-3.5
			c-1.2-0.6-4.2,1.5-5.4,2c-4,1.7-8.2,3-12.5,3.9C469.1,844.9,462.5,846,462.5,845.9z"/>
		<path class="st6" d="M463.7,873.8c0.1,1.5,2.2,1.9,3.7,1.8c6.8-0.5,13.4-2.3,19.5-5.4c0.9-0.4,3.9-2.5,1.9-3.5
			c-1.2-0.6-4.2,1.5-5.4,2c-4,1.7-8.2,3-12.5,3.9C470.3,872.8,463.7,873.9,463.7,873.8z"/>
		<path class="st6" d="M476.6,890.1c0.1,1.5,2.2,1.9,3.7,1.8c6.8-0.5,13.4-2.3,19.5-5.4c0.9-0.4,3.9-2.5,1.9-3.5
			c-1.2-0.6-4.2,1.5-5.4,2c-4,1.7-8.2,3-12.5,3.9C483.2,889.1,476.6,890.2,476.6,890.1z"/>
		<path class="st6" d="M433.7,875.4c-12.5-1.4-25.2-3.7-34.8-9.5c1.4-1.4,4.1-1.1,6.2-0.7c12.5,2.8,25.3,4.7,38.4,5.9
			c3.7,0.3,7.5,0.6,11.1,1.2c1.8,0.3,3.6,0.7,5.3,1.1c1.2,0.3,3.6,0.8,4.4,1.7c1.4,1.7-2.9,3.3-4.5,3.4c-1.9,0-3.9-0.6-5.8-0.8
			c-2.1-0.3-4.1-0.5-6.2-0.7C443.1,876.4,438.3,875.9,433.7,875.4z"/>
		<path class="st6" d="M443.8,894.3c-9.3-0.9-18.7-2.4-25.8-6.5c1.1-1,3.1-0.8,4.6-0.5c9.3,1.9,18.8,3.2,28.5,3.9
			c2.8,0.2,5.6,0.4,8.3,0.8c1.3,0.2,2.7,0.4,4,0.8c0.9,0.2,2.7,0.5,3.2,1.2c1,1.2-2.2,2.4-3.4,2.4c-1.4,0-2.9-0.4-4.3-0.5
			c-1.5-0.2-3.1-0.3-4.6-0.5C450.7,894.9,447.2,894.7,443.8,894.3z"/>
		<path class="st6" d="M443.6,846.9c-9.3-0.9-18.7-2.4-25.8-6.5c1.1-1,3.1-0.8,4.6-0.5c9.3,1.9,18.8,3.2,28.5,3.9
			c2.8,0.2,5.6,0.4,8.3,0.8c1.3,0.2,2.7,0.4,4,0.8c0.9,0.2,2.7,0.5,3.2,1.2c1,1.2-2.2,2.4-3.4,2.4c-1.4,0-2.9-0.4-4.3-0.5
			c-1.5-0.2-3.1-0.3-4.6-0.5C450.6,847.5,447.1,847.3,443.6,846.9z"/>
		<path class="st0" d="M542.8,765.6c0,0,9.8,14.5,17.2,19.9s30.9,25.8,30.9,25.8l3.8-18.4l-19.5-23.2L557,756L542.8,765.6z"/>
	</g>
</g>
<g id="капющон">
	<path class="st1" d="M347.5,341.4c1.3,3.8,2.2,7.9,5,10.8c1.7,1.7,4,2.7,6,4.2c8.3,5.9,10.2,17.2,14.9,26.3
		c4.6,8.8,12.3,15.9,21.5,19.7c7.6,3.2,16.8,4.6,21.2,11.6c0.9,1.5,1.6,3.2,3.1,4.2c1.4,1,3.2,1.1,5,1.2c23,1,46,2.1,69,3.1
		c1.4,0.1,3,0,3.9-1.1c0.7-0.9,0.6-2.3,1.3-3.4c0.8-1.3,2.6-1.5,4.1-1.7c8.9-0.7,17.8-1.5,26.8-2.2c2.4-0.2,4.9-0.4,6.9-1.7
		c1.7-1,2.8-2.7,3.9-4.3c6.1-8.8,12.3-17.5,18.4-26.3c2.8-4,5.7-8.1,9.5-11.3c3.9-3.2,8.5-5.2,12.9-7.7c18.3-10.1,32-26.7,45.2-42.9
		c4-4.9,8.1-9.9,10.3-15.9c2.2-5.9,2.3-13-1.3-18.2c-4.9-7-14.9-8.3-23.4-7c-19.8,3.1-38,16.9-57.8,14c-13.9-2-25.2-12-38.1-17.6
		c-12.1-5.3-25.5-6.7-38.6-8c-22.4-2.3-45.2-4.6-67.4-0.6c-12.2,2.2-24.1,6.2-36.5,6.7c-11.6,0.4-23.2-2.3-34.7-0.3
		c-6.4,1.2-13.4,2.9-18.4,7.4c-4.7,4.2-6.3,10.4-6.6,16.5c-0.2,4.3-0.3,8.9,1.8,12.8c2.5,4.8,7.3,6.3,11.8,8.6
		C336.5,323,344,331.5,347.5,341.4z"/>
	<path class="st0" d="M422.2,423l56,1.4c0,0,8.4-15.2,17.3-17.7c13-3.6,32.7-1.6,44.5-17.4c7.8-10.4,21.6-47.8,39.9-49.8
		s50.2-25.4,64.7-57.6c8.9-19.7,2.8-39.2-7.3-53c-3.4-4.7-9.4-4.7-13.3-7.9c-3.4-2.8-6.1-9.3-12.7-12.3
		c-17.5-8.1-57.1-21.3-112-21.6c-62.5-0.3-106.1,3.7-128.7,15.1c-15.4,7.8-23.9,18-31.6,35.3c-3.6,8-13.2,6.4-16.9,29
		c-3.6,21.9,15.7,48.2,43,68.9c14.3,10.9,12.3,46.5,25.7,56.5c9.2,6.8,23,6.9,31.2,13.3C426,408.2,421.8,416.2,422.2,423z"/>
	<path class="st1" d="M440.7,403.8c0.9,1.7,1.9,3.5,3.5,4.7c2,1.4,4.6,1.6,7,1.7c3.9,0.2,7.7,0.4,11.6,0.5c1.7,0.1,3.5,0.1,5-0.7
		c1.4-0.8,2.3-2.1,3.1-3.4c8.3-13.1,16.6-26.3,24.9-39.4c4.7-7.4,9.4-14.8,12.4-23c1.9-5.2,3.1-10.6,5.7-15.5
		c4.5-8.3,12.5-13.8,20-19.5c22-16.7,41-36.9,59.9-57c5.3-5.6,11-13,8.4-20.3c-1.3-3.7-4.6-6.4-8.1-8.2c-4.6-2.4-9.7-3.8-14.9-3.9
		c-5.4-0.1-10.8,1.1-16.2,1.3c-7.4,0.3-14.7-1.2-22.1-2.3c-38-5.8-76.7-1.4-114.9,2.9c-10.3,1.2-20.7,2.4-31,3.5
		c-6.7,0.8-14.1,1.9-18.4,7.1c-3.6,4.4-3.8,10.3-2.8,15.7c0.6,2.8,1.7,5.5,2.3,8.3c0.5,2.3,1,3.9,2.3,6c6.8,10.5-1.4,16.9,3.8,28.3
		c5.2,11.3,9.9,24.5,14.2,36.2c4.4,11.8,22.6,26.5,27.1,38.3c4.5,11.7,9.3,23.3,14.9,34.6C439.3,401,440,402.4,440.7,403.8z"/>
	<ellipse class="st3" cx="425.1" cy="426.1" rx="4.4" ry="9.6"/>
	<ellipse class="st3" cx="478.8" cy="426.1" rx="4.4" ry="9.6"/>
	<g>
		<path class="st3" d="M425.8,427c-5.4,8.5-1.7,18.8,0.4,27.8c1.3,5.3,1.9,10.4,1.1,15.9c-0.8,5.7-2.4,11.4-2.6,17.2
			c-0.2,6,0.8,12,1.4,18c0.6,6,0.9,12,0.8,18.1c-0.1,6-0.5,11.9-1.1,17.9c-0.6,5.4-1.4,10.7-1.6,16.1c-0.2,5.9,0.4,11.9,2.7,17.4
			c0.6,1.3,1.3,2.5,1.9,3.8c0.5,1.1,1.1,2.6,0.3,3.7c-0.5,0.8-0.7,0.6-1.2,0.1c-0.2-0.2,0-0.2,0-0.3c0,0.4-0.3,0.1,0,0.2
			c0.4,0.1,0.9,0,1.2,0.6c0.5-0.6,1-1.3,1.4-1.9c-0.9,0.1-1.3-1.7-0.5-2c1.8-0.6,1.1-3.5-0.8-2.9c-4,1.2-3,8.2,1.3,7.9
			c0.9-0.1,1.9-0.9,1.4-1.9c-0.9-2.1-3.5-3.6-5.7-2.3c-1.9,1.1-1.7,3.7-0.3,5.1c1.7,1.7,4.3,1.1,5.6-0.8c1.7-2.3,0.9-5.1-0.3-7.4
			c-1.3-2.6-2.4-5.1-3.1-7.9c-0.7-2.9-0.9-5.9-0.9-8.9c0-6,0.8-11.9,1.5-17.8c1.6-13.4,1.6-26.8,0.1-40.2
			c-0.8-6.6-1.6-13.2-0.5-19.9c1-6.3,2.8-12.5,2.5-18.9c-0.3-6.2-2.3-12.1-3.7-18.1c-1.3-5.7-1.9-11.8,1.4-17
			C429.4,426.9,426.8,425.4,425.8,427L425.8,427z"/>
	</g>
	<g>
		<path class="st3" d="M476.3,428.6c2,20.5,3.9,41,4.1,61.6c0,5.1,0,10.1-0.2,15.2c-0.2,5-0.6,10.1-0.7,15.1c-0.1,5,0.1,9.9,1,14.8
			c0.8,4.4,2.8,9.2,1.4,13.7c-0.7,2.5-2.3,4.7-2.7,7.4c-0.4,2.6-0.2,5.2,0.1,7.8c0.8,5.6,1.7,11.1,2.6,16.7c0.5-0.6,1-1.3,1.4-1.9
			c-1.1,0-1.5-2.5-0.4-2.8c1.8-0.6,1.1-3.5-0.8-2.9c-4.4,1.4-3.4,8.5,1.2,8.7c1.1,0,1.6-1,1.4-1.9c-0.8-5-1.6-9.9-2.3-14.9
			c-0.4-2.3-0.7-4.6-0.5-6.9c0.2-2.4,1.2-4.5,2.2-6.7c1.9-4.4,1.1-8.9,0.1-13.4c-1.1-4.9-1.7-9.7-1.8-14.7c0-4.9,0.3-9.9,0.6-14.8
			c0.3-5.1,0.4-10.3,0.4-15.4c0-10.2-0.4-20.4-1.1-30.6c-0.8-11.4-1.9-22.8-3-34.2C479.1,426.7,476.1,426.7,476.3,428.6L476.3,428.6
			z"/>
	</g>
</g>
<g id="шея">
	<path class="st4" d="M408.1,280.7c-3.7,7,23.1,45.8,26.9,62.2c3.8,16.5,9.1,64.9,19.6,64.9c10.4,0.1,29.2-62.4,34-71.4
		c4.8-9.1,32.4-58.7,24.8-67.3C505.7,260.5,415.4,267.1,408.1,280.7z"/>
</g>
<g id="волосы_сзади">
	<path class="st5" d="M548.9,259.7c-5.5-6.5-15.5-21.5-21.4-30.6c1.3-5.1,2-10.6,1.8-16.8c-0.9-28.4-11.6-38.2-11.6-38.2
		s22.8-13.6,2.7-31.1c0,0,9.5-28.3-13-37.4c-22.5-9.1-30.9,9.7-30.9,9.7s-5.1-5.2-18.2-0.6c-13.5,4.8-12.3,18.2-12.3,18.2
		s-80.5,7.9-83.1,62.4c0,0,0,0,0,0s-14.4,39.6-19.6,52.4c-10,24.8-35.7,47.1-34.4,58.9c1.3,11.9,4.7,17.4,11.5,21.8
		c6.9,4.4,22.7-0.8,25-4.9c1.9-3.3,18.1-65.3,21.9-99.4c15.8,46.5,70.5,66.2,132.3,42.8c0,0,0.2-0.1,0.5-0.3
		c14,26.7,33.6,55.4,35.6,57.6c2.7,3.1,11.7,1.3,18.5-3.6s0.9-16.8,0.9-16.8s9.3,2.3,15-2.9c5.7-5.3,4.6-10.8,3.7-15.8
		S557.1,269.2,548.9,259.7z"/>
	<path class="st11" d="M483.2,146.3c5.3-1.2,11-1.4,16,0.7s9.2,6.7,9.5,12.1c0.1,2,0.1,4.7,2.1,5.3c1.5,0.4,4.2-0.3,4.1,1.3
		c-0.7-1.6,1.8-3.3,1.4-5c-0.2-0.7-0.8-1.3-1.3-1.9c-2.7-3.5,1.2-8.8-0.2-13c-1-2.9-4.2-4.3-6.7-6.1c-4.5-3.3-7.3-8.9-7.1-14.5
		c0-1.1,0.2-2.2-0.2-3.3c-1.1-2.9-5.9-2.6-7.8,0c-1.9,2.5-1.7,6-1.5,9.1c-1.2,0.2-2.4,0.4-3.6,0.6c-2.7-3.2-5.8-6.1-9.2-8.6
		c-0.5-0.4-1.1-0.8-1.7-0.7c-0.7,0.1-0.9,0.8-0.6,1.3c1-4.3-5.4-2.6-7.2-1.6c-2.2,1.2-5.9,3.2-4.6,6.3c1.2,2.8,4.9,3.7,7.4,4.4
		c3,0.9,5.8,2.5,8,4.8C480.4,138.2,485,145.9,483.2,146.3z"/>
	<path class="st12" d="M524.3,199.4c-0.4,3.9-2.1,7.7-4.7,10.7c0.1-9-1.7-18-5.2-26.3c-0.1,3.4-0.9,6.7-2.3,9.7
		c-1.8-8.8-5.4-17.2-10.5-24.6c0.4,10.2-0.2,20.5-1.9,30.6c-0.2,1.1-0.8,2.6-1.9,2.4c-0.5-1.6-1.1-3.1-1.6-4.7
		c0.4,6.5,0.4,13,0,19.5c3.6,0.7,6.2-4.2,9.8-4.1c2.8,0.1,4.5,3,6,5.5c1.3,2.1,3.8,4.8,6.5,3.8c2.3-0.8,3.4-4.3,4.1-6.4
		C524.2,210.7,524.7,204.5,524.3,199.4z"/>
	<path class="st11" d="M312.6,304.4c0.8,2.1,1.5,4.2,2.3,6.3c3.7-1.8,6.9-4.6,9.1-8.2c1.3-2.2,2.3-4.6,3.2-7
		c2.2-5.6,4.4-11.3,6.5-16.9c-1.9-1.2-4.5-0.3-6,1.3s-2.3,3.8-3.3,5.8c-1.8,3.7-4.4,6.9-7.6,9.5c-1.7,1.4-3.7,2.6-4.9,4.5
		s-1.5,4.6,0.1,6.2"/>
	<path class="st11" d="M513.1,283.9c0.8,1,2.2,1.4,2.8,2.6c0.5,1,0,2.3,0.2,3.4c0.2,1.8,1.7,3.1,3,4.4c3.5,3.7,5.3,8.8,7.3,13.5
		c2,4.7,4.6,9.6,9.1,12.2s11.2,1.8,13.5-2.8c0.2-0.4,0.4-0.9,0.3-1.4c-0.3-1-1.6-1.3-2.6-1.5c-3.7-1-5.6-6-3.5-9.3
		c-3-0.2-5.4-2.5-7.4-4.7c-5-5.5-9.5-11.5-13.2-17.9c-1.1-1.9-2.3-3.9-4.3-4.6C515.4,276.9,511.1,281.6,513.1,283.9z"/>
	<path class="st11" d="M531.3,274.4c0.9,1,2.4,1.3,3.4,2.2c1.7,1.5,1.6,4.1,2.6,6.2c1,2,2.9,3.4,4.6,4.9c3.5,3.2,6.1,7.3,9.9,10
		c3.8,2.7,9.9,3.4,12.8-0.3c0.6-0.7,1-1.6,0.9-2.5c-0.2-1.6-1.9-2.4-3.3-3.1c-4.6-2.4-8.1-6.7-9.6-11.6c-2.6,0.8-5.2-1.1-7.2-2.9
		c-2.5-2.2-4.8-4.5-7.1-6.9c-2.2-2.3-4.1-5.2-6.5-7.4c-2.9,1.2-1.3,2.8-1.3,5.2C530.5,270.2,529.7,272.9,531.3,274.4z"/>
</g>
<g id="тено_лицо">
	<g>
		<path class="st5" d="M432,392.3c-32.5,0.3-52.2-16.5-63-43.6c-0.2-0.6-1.3-10.3-1.1-9.8c8.8,32.5,27.8,44.5,59.2,45.1
			c33.2,0.7,43.4-27,56.8-53.8c0.3-0.5,6.9-5.2,7.6-5.1c0.6,0.1,0.4,7.7,0.3,8.3c0,0-4,23.7-20.1,41.4
			C461.5,385.9,449.7,392.1,432,392.3z"/>
	</g>
</g>
<g id="лицо">
	<path class="st4" d="M358.9,284.2c0,0-1.4,29.8,4.5,51.5c3.9,14.3,19.7,55.6,60.2,55.2c36-0.4,57.2-28.7,61.7-62.1
		c2.4-18-0.6-41.9-0.6-41.9s43-17.2,33.2-50.4c-7.7-26.2-37.9-8.2-37.9-8.2s-4.5-54.9-59-53.3c-48.7,1.4-54.7,53.3-54.7,53.3
		s-23.6-18.9-36.2-2.3C316,244.5,331.4,275.1,358.9,284.2z"/>
	<path class="st5" d="M496.5,243.3c-4.7,3.1-9.2,9-12.3,21.3c0,0,0,0,0,0c0,0,0,0.1,0,0.1c-0.3,1.3-0.6,2.6-0.9,4
		c-0.1,0.6,0.3,1.2,0.9,1.3c0.1,0,0.1,0,0.2,0c0.5,0,1-0.4,1.1-0.9c0.2-1.3,0.5-2.6,0.8-3.8c4.5-10.8,15.9-7.6,16.1-8.1
		c0.2-0.6-6.5-5.7-12.2-0.8c7-16.3,19.8-15.3,19.8-15.9C509.9,239.8,502.1,239.6,496.5,243.3z"/>
	<path class="st5" d="M361,262.5c-2.1-25.5-26.3-24.3-26.3-23.7c0,0.6,14.3,0.3,21.6,16.5c-8.1-6.5-15.2,0.3-15,0.9
		c0.2,0.6,12.9-3.6,17.6,7.1c1,2.5,1.5,4.6,2,4.6C361,267.9,361.4,267.4,361,262.5z"/>
</g>
<g id="рот_3_">
	<path class="st6" d="M390,333.4c0,0,12,5.1,15.6,7.3c3.6,2.1,9.8,4.7,13.1,4.6c3.3-0.1,11.1-5,13.7-6c2.6-1,17.8-7.7,17.8-7.7
		l-21.8-2.2c-2.6-0.3-5.2,0.4-7.4,1.8l-4.3,2.9l-4-2.8c-2.7-1.9-6.2-2.5-9.5-1.6L390,333.4z"/>
</g>
<g id="рот_2_">
	<path class="st5" d="M444.4,348.4c-0.6-0.7-1.6-0.8-2.3-0.3c-0.1,0.1-12.1,7.8-23.4,7.6c-11.4-0.3-20.9-7.3-20.9-7.4
		c-0.6-0.6-1.7-0.6-2.3-0.1c-0.3,0.3-0.5,0.7-0.5,1.1c0,0.4,0.2,0.8,0.5,1.2c1,1,10.2,9.8,23.3,9.7c3.3,0,6.2-0.4,8.9-1
		c8.1-1.8,13.5-5.8,16.3-8.4c0.1-0.1,0.2-0.2,0.2-0.2c0.4-0.3,0.6-0.6,0.6-1.1C444.8,349.1,444.7,348.7,444.4,348.4z"/>
</g>
<g id="рот">
	<path class="st5" d="M447.5,327.9L447.5,327.9c-0.8-0.4-1.8,0-2.2,0.8c-0.2,0.4-0.2,0.8-0.1,1.2c0.1,0.4,0.5,0.7,0.9,0.9
		c0,0,0.9,0.5,1.9,1.9c-0.6,0.2-1.4,0.5-2.3,0.8c-4.7,1.6-12.5,1.1-14.3,1.8c-0.2,0.1-0.7,0.3-1.5,0.7c-2.7,1.3-9.1,4.4-11.4,4.4
		c-2.6,0-7.5-1.7-11.4-4.1c-2.9-1.7-11.2-1.6-14.8-2.9c1.1-1.3,2-2.2,2-2.3c0.4-0.4,0.7-1.1,0.7-1.7c0-0.4-0.1-0.7-0.4-0.9
		c-0.7-0.6-1.7-0.6-2.3,0c-0.2,0.2-6.1,5.9-6.7,10.8c-0.1,0.4,0.1,0.8,0.3,1.2c0.3,0.3,0.7,0.6,1.1,0.6c0.1,0,0.3,0,0.4,0
		c0.8-0.1,1.4-0.7,1.5-1.4c0.1-1,0.6-2.3,1.5-3.6c3.9,1.4,12.3,1.3,15,2.9l0.2,0.1c3.4,2,9.1,5.5,13,5.4l0-0.5l0.2,0.5
		c0.3,0,0.7-0.1,1.1-0.2c3.1-0.7,8.3-3.6,11.2-5.3c0.7-0.4,1.4-0.8,1.6-0.9c1.4-0.5,6.3,0.2,10.7-1.3c2.7-0.9,5.1-0.9,6.3-1.3
		c0.4,1,0.7,2.1,1,3.3c0.2,0.7,0.9,1.3,1.6,1.3c0.1,0,0.2,0,0.3,0c0.5-0.1,0.8-0.3,1.1-0.7c0.2-0.4,0.3-0.8,0.2-1.2
		C451.9,330,447.7,328,447.5,327.9z"/>
</g>
<g id="рот_1_">
	<g>
		<path class="st5" d="M416.7,335.2c-4.7,0-8.8-4.3-9-4.5c-0.4-0.5-0.4-1.1,0.1-1.5c0.5-0.4,1.2-0.4,1.6,0.1c0,0,3.6,3.8,7.2,3.8
			c3.6,0,6.6-3.9,6.7-3.9c0.4-0.5,1.1-0.6,1.6-0.2c0.5,0.4,0.6,1,0.3,1.5C425.1,330.6,421.5,335.2,416.7,335.2z"/>
	</g>
</g>
<g id="ноздри">
	<path class="st5" d="M439.7,299.1c-0.3-0.7-1-1.1-1.7-0.8c-0.7,0.3-1.1,1-0.8,1.7c0,0.1,3.7,6.8,0.1,10.4c-2.8,2.8-7,2.6-9.4,2.3
		c0.4-0.9,0.6-1.6,0.6-1.6c0.2-0.7-0.3-1.5-1-1.6c-0.7-0.2-1.5,0.3-1.7,1c0,0.1-0.3,1.2-1.1,2.5c0,0,0,0,0,0
		c-1.3,2.3-4.1,4.8-9.6,4.7c-8.4-0.1-9.1-8.7-9.1-9.1c0-0.8-0.7-1.3-1.4-1.3c-0.7,0-1.3,0.7-1.3,1.4c0.1,1.5,0.5,3.6,1.4,5.6
		c-2.1,0.7-5.5,1.3-8.3-2.4c-3.7-4.9-0.2-9.5,0-9.7c0.5-0.6,1.4-2.5,0.8-3c-0.6-0.5-2.1,0.4-2.7,0.9c-2.4,2.6-5.3,8.1-1.2,13.6
		c3,3.9,7.3,4.3,10.6,3.7c0.8-0.1,1.5-0.4,2.1-0.6c1.8,2.5,4.6,4.4,8.9,4.5c1.1,0,2.2-0.1,3.1-0.3c4.2-0.8,6.8-3.3,8.3-5.5
		c1.5,0.3,4.4,0.6,7.5,0c1.9-0.4,3.8-1.1,5.4-2.5C444.8,308.3,439.9,299.5,439.7,299.1z"/>
</g>
<g id="нос">
	<g>
		<path class="st5" d="M405.4,294.7c-0.3,0.1-0.6,0-0.8-0.1c-0.8-0.3-1.2-1.1-0.9-1.9c0-0.1,3.4-9.4,3.9-15.6
			c0.9-9.9-2.4-21.2-2.4-21.3c-0.2-0.8,0.2-1.6,1-1.9c0.8-0.2,1.6,0.2,1.9,1c0.1,0.5,3.4,11.9,2.5,22.4c-0.6,6.5-3.9,15.9-4.1,16.3
			C406.3,294.2,405.9,294.6,405.4,294.7z"/>
	</g>
</g>
<g id="яблоко_1_">
	<path class="st13" d="M389,257.6c-12.7-2.9-18.8,7.3-18.8,7.3s-0.3,9,13.7,11.9c14,2.9,18.8-3.1,18.8-3.1S401.6,260.4,389,257.6z"
		/>
</g>
<g id="яблоко">
	<path class="st13" d="M469.4,264.7c0,0-6.5-10.8-19.2-7.9c-12.7,2.8-13.4,16.5-13.4,16.5s4.8,6.1,18.8,3.2
		C469.7,273.6,469.4,264.7,469.4,264.7z"/>
</g>
<g id="зрачрк">
	<circle class="st5" cx="450.8" cy="273.6" r="7.5"/>
</g>
<g id="зрачок">
	<circle class="st5" cx="380.5" cy="271.8" r="7.5"/>
</g>
<g id="ни_веко">
	<path class="st6" d="M436.9,273.3c0,0,5,10.8,18.6,7.3c14.5-3.7,13.9-15.9,13.9-15.9s-0.1,8.1-13,11.7
		C443.5,279.9,436.9,273.3,436.9,273.3z"/>
</g>
<g id="н_веко">
	<path class="st6" d="M402.7,273.7c0,0-7.5,11-21.1,7.5c-14.5-3.8-11.4-16.2-11.4-16.2s0.1,7.9,13,11.5
		C396.2,280.1,402.7,273.7,402.7,273.7z"/>
</g>
<g id="веко">
	<path class="st5" d="M468.9,262.6c-0.1-0.1-5.4-8.9-18.5-6c0,0,0,0-0.1,0c-13.1,3-14.3,16.5-14.3,16.6l-0.2,3c0,0,6.9-1.5,17.2-4.4
		c8-2.2,17.2-7.2,17.2-7.2L468.9,262.6z"/>
</g>
<g id="веко_1_">
	<path class="st5" d="M389.1,257.5c-13.1-3-18.3,5.1-18.5,5.5l-1,1.7c0,0,3.9,3.9,12.6,6.3c8.4,2.3,21.7,5.6,21.7,5.6l-0.3-3.1
		C403.6,273.3,402.2,260.5,389.1,257.5z"/>
</g>
<g id="тень">
	<path class="st6" d="M435,260.6c1.5,2,10.5-3.9,16.6-5.6s17.9,3.7,20.5,1.3c2.7-2.5-10.7-11.1-20.8-8.8
		C441.3,249.7,432.4,257,435,260.6z"/>
</g>
<g id="тень_1_">
	<path class="st6" d="M405.2,261c-1.4,2.1-10.5-3.8-16.7-5.5c-6.2-1.7-17.8,3.9-20.5,1.5c-2.7-2.4,10.6-11.2,20.7-9
		C398.8,250.2,407.8,257.4,405.2,261z"/>
</g>
<g id="бровь_1_">
	<path class="st5" d="M430.4,253.7c4.4,2.9,13-7.2,20.8-9.1c10.3-2.4,23.6,2.4,25.1-0.2c1-1.8-11.4-11.1-27.3-6.8
		S425.5,250.5,430.4,253.7z"/>
</g>
<g id="бровь">
	<path class="st5" d="M406.4,253.8c-4.4,3-13.1-7-21-8.7c-10.4-2.2-23.6,2.9-25.1,0.3c-1.1-1.8,11.2-11.4,27.2-7.4
		S411.2,250.5,406.4,253.8z"/>
</g>
<g id="пряд_справа">
	<path class="st5" d="M467,217.3c0,0,3.1,27.1,4.1,42.3c0.9,15.1-0.4,53.5,10.4,74.2c10.8,20.7,28.4,31.3,44.2,22
		c15.8-9.3,17.8-28.4,8.1-43.6c-9.7-15.2-27.2-27.9-35.2-50.2s-7.8-54.8-7.8-54.8L467,217.3z"/>
	<path class="st11" d="M476.2,264.5c0.3,7.1,0.5,14.2,1.5,21.3c2,13.9,6.9,27.2,11.8,40.4c3.1,8.4,7.1,17.8,15.4,21.2
		c5.4,2.2,12.1,1.2,16.5-2.6c4.5-3.8,6.7-10.1,5.4-15.8c-3.5,0.9-7.1,1.7-10.6,2.6c0.6-2.8,1.1-5.6,1.7-8.3c-3.2,1.3-7,0.1-9.6-2.1
		c-2.7-2.2-4.4-5.3-6.1-8.3c-5.6-10-11.3-20.3-12.9-31.7c-0.7-5-0.5-10.1-0.9-15.2c-0.5-6.2-1.9-12.3-3.3-18.4c-1-4.3-2-8.7-3-13
		c-0.3-1.5-0.6-5.3-1.9-5.9c-1-0.4-3,0.5-3.8,1.1c-1.8,1.6-1.4,4.5-1.4,6.6c0.2,4.2,0.3,8.3,0.5,12.5
		C475.8,254.1,476,259.3,476.2,264.5z"/>
</g>
<g id="прядь_слева">
	<path class="st5" d="M347.6,207.5c0,0-3.1,45.1-8.8,59.3c-5.7,14.2-29.9,52.5-30.4,67.4c-0.5,14.8,3.1,25.8,12.6,30.2
		c12.8,5.8,32.6-5.3,36.6-17.7c10.5-32.6,0.1-79.8,11.7-135L347.6,207.5z"/>
	<path class="st11" d="M342.4,321.3c-2,8.9-4.7,18.8-12.6,23.4c-2,1.1-4.8,1.7-6.3-0.1c-0.4-0.6-0.6-1.2-0.8-1.9
		c-2.1-8-0.9-16.9,3.2-24.1c1.8-3.1,4-5.8,6-8.7c6.3-9.1,9.9-19.6,12.5-30.2c2.7-11,4.4-22.2,6.9-33.2c1.2-5.5,2.7-10.9,4.6-16.2
		c0.5-1.3,1.5-6.2,3.6-3.9c1.5,1.5-0.4,6.7-0.7,8.6c-2.2,13.7-4.6,27.3-7.2,40.9c-2.6,13.5-5.3,27-8.3,40.5
		C343.2,318,342.8,319.6,342.4,321.3z"/>
</g>
<g id="челка">
	<path class="st5" d="M449.9,130.7c0,0-31.1-2-50.8,7.9c-19.7,9.9-25.9,27.4-25.9,27.4s-39.5,9.7-31.3,39.1
		c9.1,32.7,43.6,13,43.6,13s3.7,17.2,28.8,17c22.7-0.2,29.6-15.3,29.6-15.3s17,18.3,39.4,6.9c25.3-12.9,19.2-35.5,17.2-39.9
		s-10.4-24.4-43.2-17.5C457.1,169.3,476.4,138.5,449.9,130.7z"/>
	<path class="st11" d="M348.1,187c-5.3,8.1-5.9,19.1-1.5,27.7c-0.3-5.3,3.1-10.7,8.1-12.6c-3,3.6-4,8.7-2.6,13.1
		c2-2.9,4.1-5.7,6.1-8.6c-0.6,3.2,0.6,6.6,3,8.7c1.5-1.4,3.1-2.7,4.6-4.1c5.7,2.7,13.2,0.5,16.6-4.8c4.2,8.5,11.5,15.3,20.2,19
		c-2.8-4.5-3.6-10.2-2-15.2c-1.3,3.2,0.5,7.3,3.7,8.5c3.2,1.2,7.3-0.7,8.4-4c0,1.4,0,2.8,0,4.3c2.1,0.2,4.3-1,5.4-2.8
		c1.5,2.9,5.8,1.7,8.6,0c8.3-4.8,16.6-9.7,24.9-14.5c-4,5.6-1.4,14.6,5,17.1c1.5-3.7,3.5-7.2,6.1-10.2c-0.8,2.3-1,4.9-0.4,7.3
		c1.9-2,5.2-2.4,7.6-0.9c3.1-4.1,8.9-5.9,13.8-4.3c1.3-3.2,2.5-6.5,3.8-9.7c-2.3,3.3-7.8,3.8-10.7,1c-2.9-2.8-2.6-8.3,0.7-10.8
		c-3.4,2.6-6.8,5.3-10.2,7.9c1.2-2.2-2-5.2-4.1-3.8c0.4-10.3,5.6-20.4,13.8-26.7c-13.8,0.5-27,9.4-32.6,22c-0.2-1.3-2.1-1.6-3.2-0.8
		c-1,0.8-1.3,2.2-1.6,3.5c-1.7-4.1-9.1-3.6-10.2,0.7c-1-1.2-2-2.4-3-3.6c-1.3,0.4-2.4,1.4-3,2.6c-1-3.5-1.4-7.2-1.1-10.9
		c-3.5,2.8-6.8,5.9-9.8,9.2c0.2-2,0.5-3.9,0.7-5.9c-5.4,0.1-10.6,3.1-13.5,7.6c0.3-1.2,0.5-2.5-0.1-3.6c-0.7-1-2.6-1.1-2.9,0.1
		c5.5-8.7,14-15.5,23.8-18.9c-8.3-0.5-17,0.2-24.1,4.3c-7.2,4.1-12.5,12.4-11.2,20.6c0.9-2.5,1.5-5.5,0-7.7s-5.9-1.8-6,0.9
		c0.6-2.1-2.7-2.8-4.8-2.2c-2.1,0.6-5.2,0.9-5.5-1.3c-0.1-0.7,5.9-3.7,6.7-4.2c2.4-1.4,4.9-2.5,7.2-3.9c-3.1-1.8-7.2-1.8-10.7-2.3
		c-2.8-0.5-5.1-0.3-7.8,0.4C357.7,177.1,351.8,181.2,348.1,187z"/>
</g>
</svg>
