<?xml version="1.0" encoding="utf-8"?>
<!-- Generator: Adobe Illustrator 25.2.0, SVG Export Plug-In . SVG Version: 6.00 Build 0)  -->
<svg version="1.1" id="Layer_5" xmlns="http://www.w3.org/2000/svg" xmlns:xlink="http://www.w3.org/1999/xlink" x="0px" y="0px"
	 viewBox="0 0 2562 1441" style="enable-background:new 0 0 2562 1441;" xml:space="preserve">
<style type="text/css">
	.st0{fill:#7786A5;}
	.st1{fill:#677490;}
	.st2{fill:#404B62;stroke:#404B62;stroke-width:3;stroke-miterlimit:10;}
	.st3{fill:#404B62;}
	.st4{fill:#C8315C;}
	.st5{fill:#1B2334;}
	.st6{fill:#AD3255;}
	.st7{fill:#352745;}
	.st8{fill:#FFFFFF;}
</style>
<g>
	<g id="тело_4_">
		<path class="st0" d="M1853.8,741.2c-34.5,30.2-34.2,62.4-55.9,84.8c-12.4,12.9-31,39.9-48.8,65.7c-13.2,19.2-26,37.6-35.6,49
			c-25,29.8-59.6,84.9-59.9,105.2s-2.5,99.1,13.9,144.9c16.3,45.8,152.2,54,193.5,17.6s-46.2-105.1-31.2-143.9
			s61.1-103.3,73.4-153.5c16.9-68.8,2-85.2-12.2-110.6C1876.8,774.8,1853.8,741.2,1853.8,741.2z"/>
		<path class="st0" d="M2239.1,755.3c35.2,29.3,35.8,61.5,58,83.4c12.8,12.5,32,39.1,50.4,64.5c13.7,18.9,27,37,36.8,48.1
			c25.8,29.2,61.7,83.4,62.5,103.7s13.1,69.3-2.1,115.5c-15.2,46.2-171.2,81.2-213.4,45.8s-33.1-1-49.1-39.4
			c-15.9-38.5,25.4-200.7,11.8-250.7c-18.6-68.3-4.1-85.2,9.5-110.9C2217,789.4,2239.1,755.3,2239.1,755.3z"/>
		<path class="st0" d="M1868.5,729.4c-20.3,10-39.8,39.8-53.1,76.1c-13.3,36.3,73.2,77,61.8,122.1s-28.7,72.5-31.1,95.5
			s-48.6,124.9-28.6,162.6c24.9,47.1,112,5,203.9,14.5c103.5,10.7,197.8,41.9,216.4,8.5c22-39.3-8-106.5-8.2-139.8
			c-0.3-38.2-38.2-116.1-31.1-145c6.1-25,85.8-69,76.1-107.9s-35.1-68.8-63.7-84.9c-36.3-20.4-103.5-23.9-174.3-28.3
			S1900.9,713.5,1868.5,729.4z"/>
		<path class="st1" d="M1854.7,853.2c-0.8,1.8-1.7,3.6-2.5,5.4c-11.4-14.3-26.7-25.5-43.9-31.8c11.4,21,22.8,42,34.2,63
			c6.3,11.6,12.6,23.4,14.9,36.3c-6.4-1.8-13.8,2.7-15,9.2c-0.7,3.5,0.2,7,0.5,10.5c0.4,5.1-0.5,10.3-1.4,15.3
			c-3.5,19.6-6.9,39.2-10.4,58.8c-1.2,6.9-2.4,14.3,0.5,20.6c0.6,1.3,2.1,6.2,3.5,6.7c3.5,1.5,6.4-3.1,7.6-6.7
			c8.4-26.4,16.1-56.3,24.5-82.7c2.1-6.6,4.2-13.2,6.2-19.8c1.5-4.9,3.2-9.9,3.5-15.1c0.2-3.9-0.7-7.6-1.7-11.3
			c-1.6-5.8-3.3-11.5-5-17.3c-2.2-7.1-4.5-14.1-7.1-21c-1.3-3.5-2.6-6.9-4-10.3C1858.5,862.2,1854.3,853.6,1854.7,853.2z"/>
		<g>
			<polygon class="st2" points="1897.7,996.6 1939.2,895.4 1943.5,965.5 1978,898.8 1986.6,987.6 1971.8,989.5 1973.7,920.6 
				1942.1,989.8 1936.5,990.4 1934.3,922.8 1914.6,992.3 			"/>
			<polygon class="st2" points="1887.1,1021.5 2165.9,972.3 1890.3,992.6 			"/>
			<g>
				<path class="st2" d="M2015.4,985.2c-15.9,0-17.7-17.5-16.8-17.6c0.9-0.1,3.5,14.5,18.6,13c3.6-0.4,6.9-2.1,9.3-5.2
					c6.6-8.6,7.2-24.7,6.4-37.4c-1.3,6.6-2.7,14.9-7.1,19.2c-2.8,2.7-6.8,4.8-10.4,4.7c-3.8-0.1-8.1-2.4-10.3-5.2
					c-7.6-9.6-1-35.3-0.1-35.1s-3,21,3.6,29.4c1.7,2.1,3.8,3.1,6.6,3.2c2.9,0.1,5.2-0.9,7.3-3c8.6-8.3,9.5-30.2,10.3-30.3
					c0.9-0.1,11.7,42.5,0.1,58.4c-5.8,7.9-10.4,5.3-14.9,5.7C2017.1,985.1,2016.3,985.2,2015.4,985.2z"/>
			</g>
			<path class="st2" d="M2096.2,918.7c-3.5-2-16.1-1.9-25.8-1.2c-6.5,0.4-21.9,1.8-25.1,5.2c-5,5.4,0.6,15.7,1.2,15.7
				c0.2,0-2.3-7.7,1.1-11.4c1.7-1.8,7.8-3.3,18.3-4.1l4,56.1c0,0.9-9.7,1.6,1.6,1.6c0.9,0,1.6-0.7,1.6-1.6l2-56.4
				c9.7-0.6,16.9-0.3,19.4,1.1c4.1,2.3,1.2,9,2.1,9.4C2097.4,933.4,2101.6,921.7,2096.2,918.7z"/>
			<g>
				<path class="st2" d="M2110.8,977.7c-0.4,0-0.8-0.1-1.1-0.4c-0.4-0.3-12.3,1.2-6.2,0.4c0,0,4.6-60.6,5.5-60.6s2.7,13.4,2.7,13.4
					c2.2,0.5,7.7,2.2,12.5,4.8c8.8,4.7,13.7,11.3,14.1,19.2c0.4,8-4.2,14.6-13.5,19c-6.7,3.2-13.5,4.2-13.8,4.2
					C2110.9,977.7,2110.8,977.7,2110.8,977.7z M2111.8,934.3l0.7,39.8c5.8-1.2,19.8-6.4,19.1-19.9
					C2130.8,940.7,2117.4,935.8,2111.8,934.3z"/>
			</g>
		</g>
		<path class="st1" d="M1785,978.2c6,11.9,14.6,22.4,25.2,30.6c-34.8-11.3-71.3-22.8-107.4-16.7c13.8,2.5,27.6,4.9,41.4,7.4
			c-19.4,4.1-40,8.8-53.7,23.1c8.9,1.4,17.7-2,26.4-3.9c20.9-4.4,42.6,0.5,62.8,7.2c10.8,3.6,21.5,7.8,32.2,11.4
			c5.5,1.8,11,3.6,16.5,5c2,0.5,10.1,3.8,11.5,1.3c1.2-2-2.4-6.6-3.3-8.1c-2.5-4.2-4.7-8.4-6.8-12.7c-4.5-9-10.8-16.9-18.1-23.8
			C1803.4,991.3,1794.2,984.7,1785,978.2z"/>
		<path class="st3" d="M1865.9,962.4c4.8-14,9.9-28.1,11.9-42.8c2.1-14.7-14.5-59.4-21.4-72.5c-0.2,18.9,15,66.9,14.8,85.8
			c-5.2-6.1-10.3-12.2-15.5-18.3c1.5,10.2,2.9,20.4,4.2,30.6c0.4,3.3,0.8,6.9-1.2,9.6c-1.9,2.7-7.1,2.9-8-0.3
			c-0.6,14.1-3,28.2-7,41.8c-4.1,13.9-10,27.8-9,42.2c1.3,0.5,2.8,1.3,4.2,1.6c1.4,0.3,1.4,0.2,1.9-1.2c1-2.7,1.7-5.6,2.6-8.3
			c1.7-5.6,3.5-11.1,5.3-16.7c3.6-11.1,7.2-22.2,11-33.3c1-3.1,2.1-6.2,3.1-9.2c0.5-1.5,1-3,1.6-4.5
			C1864.7,965.7,1865.9,963.7,1865.9,962.4z"/>
		<path class="st1" d="M2198.5,924c2-8.2,11.8-18.3,23.8-29.7c20.7-34.6,46-73.3,31.3-83c-28.2,29.4-45.7,70.6-62,108
			c6.1-26.1,10.6-52.6,13.5-79.3c-17.9,22.8-18.9,54.1-19.2,83.1c-1.6-14.2,4.3-10.5,0.7-24.3c-12.8,52.8,4.4,82-15.2,135.1
			c-16.1,15.4-19.6,34.8-40.7,42.3c-10.3,1-46.7,18.4-17,19.1c-21.2,11.8-35.5,37-62,31.3c-14.7-4-31.7-0.1-45.2-7.9
			c-24.8-15.8-45.3-36.8-69-54.3c-12.9-6.4-27.6-8.4-41.4-12.3c-16.8-6.1-34.6-13.4-53-13c-0.4,0.1-0.8,0.4-1.2,0.8
			c-1.9,6.1-4.2,13.3-6.8,21.1c-5.8,33.2-8.3,96.2-8.6,135.9c33,28,92,17.3,174.8,25.9c103.5,10.7,217.8,19.2,236.4-14.2
			c22-39.3-8-106.5-8.2-139.8C2229.4,1030.8,2191.5,952.9,2198.5,924z"/>
		<path class="st3" d="M2215.5,860.8c-11.2,23-18.1,48-20.3,73.5c-1.1-19.3-0.3-25.5-1.4-44.8c0.4-3.3,0.2-20.7-3.3-17.8
			c-3.5,20.7-4.9,41.9-0.3,62.4c-2.2-4.1-4.9-8-8.2-11.3c1.7,1.7,2.7,4.9,3.8,7c1.4,2.8,2.8,5.7,4.1,8.5c2.7,6.2,5,12.6,6.9,19.1
			c3.2,11.4,4.4,22.8,5.7,34.5c0.7,5.9,1.2,11.7,1.8,17.6c1.2,11.8,2.3,23.7,3.5,35.5c0.4,3.8,0.7,7.7,0.1,11.4
			c-0.6,3.5,1,21.8,0.2,25.2c-1.5,6.8-1,19.3,2.8,25.3c3.3,5.1,19.3,1.6,24.9,0.8c5.3-0.7-1.2-17.9,2.5-22.1
			c5.2-3.4-4.5-29.9-5.6-35.8c-8.1-41.4-11.9-42.1-22.9-83.7c-2.6-9.6-6.2-21.5-10.5-30.3C2198.9,909.9,2218.5,887,2215.5,860.8z"/>
	</g>
	<g id="капющон_4_">
		<path class="st1" d="M1905.1,790.7c1.3,3.8,2.2,7.9,5,10.8c1.7,1.7,4,2.7,6,4.2c8.3,5.9,10.2,17.2,14.9,26.3
			c4.6,8.8,12.3,15.9,21.5,19.8c7.6,3.2,16.8,4.6,21.2,11.6c0.9,1.5,1.7,3.2,3.1,4.2s3.2,1.1,5,1.2c23,1,46,2.1,69,3.1
			c1.4,0.1,3,0,3.9-1.1c0.8-1,0.6-2.3,1.3-3.4c0.8-1.3,2.6-1.5,4.1-1.7c8.9-0.7,17.9-1.5,26.8-2.2c2.4-0.2,4.9-0.4,6.9-1.7
			c1.6-1,2.8-2.7,3.9-4.3c6.1-8.8,12.3-17.5,18.4-26.3c2.8-4,5.7-8.2,9.5-11.3c3.9-3.2,8.5-5.2,12.9-7.7
			c18.3-10.1,32-26.7,45.2-42.9c4-4.9,8.1-9.9,10.3-15.9c2.2-5.9,2.4-13-1.3-18.2c-5-7-14.9-8.3-23.4-7c-19.8,3.1-38,16.9-57.8,14
			c-13.9-2-25.2-12-38.1-17.6c-12.1-5.3-25.5-6.7-38.6-8c-22.4-2.3-45.2-4.6-67.4-0.6c-12.2,2.2-24.1,6.2-36.5,6.6
			c-11.6,0.4-23.2-2.3-34.8-0.3c-6.4,1.1-13.4,2.9-18.4,7.4c-4.7,4.2-6.3,10.4-6.6,16.5c-0.2,4.3-0.3,8.9,1.8,12.8
			c2.5,4.8,7.3,6.3,11.8,8.6C1894.2,772.2,1901.6,780.7,1905.1,790.7z"/>
		<path class="st0" d="M1983.5,869.7l56,1.4c0,0,1.7-11.4,10.5-13.9c13-3.6,32.7-1.7,44.6-17.4c7.8-10.4,21.6-47.8,39.9-49.8
			c18.3-2,50.2-25.4,64.7-57.6c8.9-19.7,2.8-39.2-7.3-53c-3.4-4.7-9.4-4.7-13.3-7.9c-3.4-2.8-6.1-9.3-12.7-12.3
			c-17.5-8.1-57.1-21.3-112-21.6c-62.5-0.3-106.1,3.7-128.7,15.1c-15.4,7.8-23.9,18-31.6,35.3c-3.6,8-13.2,6.4-16.8,29
			c-3.6,21.9,15.7,48.2,43,68.9c14.4,10.9,12.3,46.5,25.7,56.5c9.2,6.8,23,6.9,31.2,13.3C1980.4,858.8,1983,863,1983.5,869.7z"/>
		<path class="st1" d="M1995.2,854.4c0.9,1.7,1.9,3.5,3.5,4.7c2,1.4,4.6,1.6,7,1.7c3.9,0.2,7.7,0.4,11.6,0.5c1.7,0.1,3.5,0.1,5-0.7
			c1.4-0.8,2.3-2.1,3.1-3.5c8.3-13.1,16.6-26.3,24.9-39.4c4.7-7.4,9.4-14.8,12.4-23c1.9-5.2,3.1-10.6,5.7-15.5
			c4.5-8.3,12.5-13.8,20-19.5c21.9-16.7,41-36.9,59.9-57c5.3-5.6,11-13,8.4-20.3c-1.3-3.7-4.6-6.4-8.1-8.2
			c-4.6-2.4-9.7-3.8-14.9-3.9c-5.4-0.1-10.8,1.1-16.2,1.3c-7.4,0.3-14.7-1.2-22.1-2.3c-38-5.8-76.7-1.4-114.9,2.9
			c-10.3,1.2-20.7,2.3-31,3.5c-6.7,0.8-14.1,1.9-18.4,7.1c-3.7,4.4-3.8,10.3-2.8,15.7c0.6,2.8,1.7,5.5,2.3,8.3c0.5,2.3,1,3.9,2.3,6
			c6.8,10.5-1.4,16.9,3.8,28.3c5.2,11.3,9.9,24.5,14.2,36.2c4.4,11.8,22.6,26.5,27.1,38.3c4.5,11.7,9.3,23.3,14.9,34.6
			C1993.8,851.6,1994.5,853,1995.2,854.4z"/>
		<ellipse class="st3" cx="1986.2" cy="878.2" rx="4.4" ry="9.6"/>
		<ellipse class="st3" cx="2039.9" cy="878.2" rx="4.4" ry="9.6"/>
		<g>
			<path class="st3" d="M1986.8,879.1c-5.4,8.5-1.7,18.8,0.4,27.8c1.3,5.3,1.9,10.4,1.1,15.9c-0.8,5.8-2.4,11.4-2.6,17.2
				c-0.2,6,0.8,12,1.4,18s0.9,12,0.8,18.1c-0.1,6-0.5,11.9-1.1,17.9c-0.6,5.3-1.4,10.7-1.6,16.1c-0.2,5.9,0.4,11.9,2.7,17.4
				c0.6,1.3,1.3,2.5,1.9,3.8c0.5,1.1,1,2.6,0.3,3.7c-0.5,0.8-0.8,0.6-1.2,0.1c-0.2-0.2,0-0.2-0.1-0.3c0,0.4-0.3,0.1,0,0.2
				c0.4,0.1,0.9,0,1.2,0.6c0.5-0.6,1-1.3,1.4-1.9c-0.9,0.1-1.3-1.8-0.5-2c1.8-0.5,1.1-3.4-0.8-2.9c-4,1.2-3,8.2,1.3,7.9
				c0.8-0.1,1.8-0.9,1.5-1.9c-0.9-2.1-3.5-3.6-5.7-2.3c-1.9,1.1-1.7,3.7-0.3,5.1c1.7,1.7,4.3,1.1,5.6-0.8c1.7-2.3,0.9-5.1-0.3-7.4
				c-1.3-2.6-2.4-5.1-3.1-7.9c-0.7-2.9-0.9-5.9-0.9-8.9c0-6,0.8-11.9,1.5-17.8c1.6-13.4,1.6-26.8,0.1-40.2
				c-0.8-6.6-1.6-13.2-0.5-19.9c1-6.3,2.8-12.5,2.5-18.9c-0.3-6.2-2.3-12.1-3.7-18.1c-1.3-5.7-1.9-11.8,1.4-17
				C1990.5,879,1987.9,877.4,1986.8,879.1L1986.8,879.1z"/>
		</g>
		<g>
			<path class="st3" d="M2037.3,880.6c2,20.5,3.9,41,4.1,61.6c0,5,0,10.1-0.2,15.2c-0.2,5-0.6,10.1-0.7,15.1s0.1,9.9,1,14.8
				c0.8,4.5,2.8,9.2,1.4,13.8c-0.7,2.5-2.3,4.7-2.7,7.4c-0.4,2.6-0.2,5.2,0.1,7.8c0.8,5.6,1.8,11.1,2.6,16.7c0.5-0.6,1-1.3,1.5-1.9
				c-1.1,0-1.5-2.5-0.4-2.8c1.8-0.6,1-3.5-0.8-2.9c-4.4,1.4-3.4,8.6,1.2,8.7c1.1,0,1.6-1,1.4-1.9c-0.8-5-1.6-9.9-2.3-14.9
				c-0.4-2.3-0.7-4.6-0.6-6.9c0.2-2.4,1.2-4.5,2.2-6.7c1.9-4.4,1.2-8.9,0.1-13.4c-1.1-4.9-1.7-9.7-1.8-14.7c0-4.9,0.4-9.9,0.6-14.8
				c0.3-5.1,0.4-10.3,0.4-15.4c0-10.2-0.4-20.4-1.1-30.6c-0.8-11.4-1.9-22.8-3-34.2C2040.2,878.7,2037.2,878.7,2037.3,880.6
				L2037.3,880.6z"/>
		</g>
	</g>
	<g id="рукав_8_">
		<g>
			<path class="st0" d="M2431.1,1072.4c25.2,22.6,30.7,89.4-2.2,135.6c-32.9,46.1-67.6,45.4-82.3,50.1
				c-14.8,4.6-41.5,18.5-61.8,17.8c-20.3-0.6-57.1-3.9-69.4-0.2c-12.3,3.6-26.7,3.6-38-3.5c-11.3-7-15.3,10.6-36.8,11
				c-21.5,0.4-49.8-32-63.6-51.2s-36.4-60.6-22-74.9c14.5-14.3,28.5-10.7,33.6-15c5.2-4.4,19.4-29.3,39-34.8
				c19.7-5.4,74.4-16.1,91.6-20.5c17.1-4.4,46-32.8,71.5-36C2316,1047.8,2374.6,1021.9,2431.1,1072.4z"/>
			<path class="st1" d="M2313.6,1042.4c41.3-5.2,89.2,0.6,117.6,33.9c-19.2-5.4-37.8-12.2-56.1-20.1c10.8,9.1,26.5,11.5,35.6,22.3
				c10,14.5,16.7,31,25.3,46.4c-20.6-11.8-39.6-26.6-55.9-43.8c4,3.4,7.1,7.9,8.9,12.9c-79-8.5-44.6-42.6-141.4-22.8
				C2264.6,1058,2287.4,1043.4,2313.6,1042.4z"/>
			<path class="st3" d="M2065,1168.4c0.3,4,2.2,7.6,4.2,11c6,10.9,12.1,21.8,18.2,32.6c8.3,15,16.8,30.1,29.2,42
				c6,5.7,13.3,10.8,21.7,10.9c5.1,0.1,10.3-2,13.7-5.9c3.3-3.9,4.5-9.7,2.5-14.4c-2.2-5-7.2-7.9-11.7-11
				c-13.6-9.3-24.6-22.6-31.2-37.8c-1.9-4.5-3.6-9.2-7.1-12.8c-1.7-1.7-3.7-3.1-5.9-4.4c-7.3-4.8-14.6-9.6-21.9-14.3
				c-2-1.3-5.3-4.5-7.8-4.2C2065.7,1160.7,2064.8,1165.9,2065,1168.4z"/>
			<path class="st1" d="M2135.3,1170.2c2.1,4,3.7,8.5,7.3,11.1c2,1.5,4.5,2.5,5.9,4.6c1.3,2.2,1,5.1,1.1,7.6
				c0.6,10.4,9.8,17.8,18,24.1c8.2,6.3,17,14.6,16.2,25c-0.2,2.4-0.8,4.9,0.1,7.2c1.7,4.2,7.2,4.4,11.7,4.9
				c7.5,0.9,17.1,3.5,21.2-2.9c3.1-4.9-0.3-11.4-4.6-15.3c-4.2-4-9.7-7.1-12-12.4c-2.3-5-1.1-10.9-1.9-16.5
				c-1.7-12-11.7-20.9-21.2-28.6c-15.3-12.5-30.6-24.9-45.8-37.4c-3.7-2.9-7.9-6.3-12.8-5.2c-3,0.6-5.3,2.9-5.6,6
				c-0.3,3.1,1.3,5.9,3.8,7.8c3.6,2.7,7.2,4.9,10.3,8.1C2130.1,1162,2133,1165.9,2135.3,1170.2z"/>
			<path class="st3" d="M2312.9,1047.7c12.5-1.2,24.9-3.7,37.4-3.5s25.6,3.2,34.9,11.6c-15.1-3.1-30.3-6.1-45.3-9.2
				c17.1,9.4,33.8,19.5,50,30.4c-26.9-3.1-48.8-28.5-75.8-26.6c-10.6,0.7-20.4,5.4-31,5.8c-2,0-5.6,0.4-7.4-0.7
				c-2-1.2,0.4-2.7,1.7-3.2c5.1-2,11-2.7,16.5-3.3C2300.2,1048.6,2306.6,1048.3,2312.9,1047.7z"/>
		</g>
	</g>
	<g id="рука_8_">
		<g>
			<path class="st4" d="M1986.6,1195.9c-0.9-3.8,1-24.9,4.4-26.8c5.9-3.3,45.5,2.4,64.4,2.3c23.6-0.1,44.6,8.8,59.9,27.7
				c14,19.3,26.9,45.6-0.2,56.7c-35.9,11.4-76.7,13.7-111.7-1.5C1983.4,1244.6,1979.7,1215.3,1986.6,1195.9z"/>
			<path class="st4" d="M1986.9,1263c-4.6,0.6-9.3,1-13.7-0.4c-4.4-1.5-8.3-5.3-8.4-9.8c0-3.1,1.6-6,3.8-8.1
				c2.2-2.1,5.1-3.5,7.9-4.7c5.3-2.3,10.8-4.1,16.3-5.4c7.5-1.8,16.5-2.4,21.9,3c2.3,2.2,3.7,5.4,4,8.6c0.5,3.7-0.3,7.7-2.8,10.5
				C2012.1,1261.1,1995.8,1261.8,1986.9,1263z"/>
			<path class="st4" d="M2042.1,1183.5c-9.5-7.9-16.3-26.2,1.1-25.8c13.8,3.6,45.2,14.8,41.4,30.3
				C2080,1206.1,2054.5,1193.8,2042.1,1183.5z"/>
			<path class="st4" d="M1983.3,1256.5c-1.9,3.7-5.7,6.5-9.8,6.5c-2,0-3.9-0.6-5.8-1.4c-1.3-0.5-2.5-1.3-3.5-2.2
				c-2.9-2.5-4.2-6.7-3.3-10.4c0.8-3.7,3.6-6.9,7-8.5c3.8-1.7,8.8-1.8,12.5,0.2c1.4,0.8,3.1,2.1,3.8,3.6c0.7,1.3,0.6,3,0.6,4.5
				C1984.9,1251.4,1984.5,1254.1,1983.3,1256.5z"/>
			<path class="st4" d="M1960.7,1266.7c-10.9,3-22.8,4.9-33.3,0.8c-3.5-1.4-7-4-7.2-7.6c-0.1-2.4,1.3-4.6,3.1-6.1
				c1.8-1.5,4.2-2.4,6.4-3.1c10.4-3.6,21.1-6.3,32-8c5.3-0.9,11.2-1.2,15.4,2.2c1.8,1.5,2.9,3.7,3.5,6c0.3,1.7,0.5,3.8-0.2,5.5
				c-0.8,1.7-2.6,2.8-4,3.9c-2.1,1.6-4.5,2.8-6.8,3.8C1966.5,1265.1,1963.6,1266,1960.7,1266.7z"/>
			<path class="st4" d="M2021.4,1172c-8.9-3.2-18.1-7.8-24.1-16.2c-1.9-2.7-3.5-6.4-2.3-9.3c0.8-1.8,2.7-2.9,4.6-3s3.9,0.3,5.8,0.8
				c8.8,2.5,17.5,5.8,25.9,10c4.1,2,8.4,4.7,10.1,9.3c0.7,2,0.7,4.3,0.1,6.2c-0.4,1.4-1.1,3.2-2.3,4c-1.2,0.9-2.9,0.8-4.4,0.9
				c-2.1,0.1-4.2-0.1-6.3-0.6C2026.3,1173.7,2023.8,1172.9,2021.4,1172z"/>
			<path class="st5" d="M1931.7,1262.6c-3.3,0.9-7,1.6-10.2,0.3c-1.3-0.5-2.4-1.3-3.1-2.6c-0.6-1.2-0.7-2.8,0.1-3.9
				c0.4-0.6,1.1-1.1,1.7-1.4c4.4-2.8,9.7-4.7,15-4.6c2.2,0,5.1,0.2,6.2,2.3c0.9,1.8,0.1,4-1.1,5.5
				C1938.3,1261,1934.7,1261.8,1931.7,1262.6z"/>
			<path class="st5" d="M1998.8,1147.8c-2.9-1-5.8-2.2-6.8-3.8c-0.4-0.6-0.4-1.2,0.2-1.7s1.8-0.8,3.3-0.8c0.8,0,1.5,0.2,2.3,0.3
				c5.1,1,9.9,2.6,13.2,4.5c1.3,0.8,3,2,1.9,2.8c-1,0.7-3.4,0.8-5.3,0.8C2004.2,1149.9,2001.2,1148.7,1998.8,1147.8z"/>
			<path class="st4" d="M1943.6,1241.4c-12.1,2.4-27.7-10.4-14.1-20.2c12.9-5.6,38.2-10.3,45.6-0.8
				C1987,1235.7,1960.7,1242.9,1943.6,1241.4z"/>
			<path class="st4" d="M1926.8,1221c-12.1,2.4-27.7-10.4-14.1-20.1c12.9-5.7,38.2-10.3,45.6-0.8
				C1970.3,1215.1,1943.9,1222.4,1926.8,1221z"/>
			<path class="st4" d="M1942.3,1234.9c-5.4,12.1-25.4,5.4-22.4-7.4C1924.1,1210.6,1952.2,1217.6,1942.3,1234.9z"/>
			<path class="st4" d="M1976.3,1231.3c-1.9,3.7-5.7,6.5-9.8,6.5c-2,0-3.9-0.6-5.8-1.4c-1.3-0.5-2.5-1.3-3.5-2.2
				c-2.9-2.5-4.2-6.7-3.3-10.4c0.8-3.7,3.6-6.9,7-8.5c3.8-1.7,8.8-1.8,12.5,0.2c1.4,0.8,3.1,2.1,3.8,3.6c0.7,1.3,0.6,3,0.6,4.5
				C1978,1226.3,1977.5,1228.9,1976.3,1231.3z"/>
			<path class="st4" d="M1973.5,1237.9c-12.1,2.4-27.7-10.4-14.1-20.2c12.9-5.7,38.2-10.3,45.6-0.8
				C2017,1232.2,1990.6,1239.4,1973.5,1237.9z"/>
			<path class="st4" d="M1924.8,1241.5c-10.9,3-23.8,6-33.8,0.9c-25.1-13,36.1-28.1,45.2-19.9
				C1947.7,1234,1934.8,1239.5,1924.8,1241.5z"/>
			<path class="st5" d="M1895.3,1237.4c-3.3,0.9-7,1.6-10.2,0.3c-1.3-0.5-2.4-1.3-3.1-2.6c-0.7-1.2-0.7-2.8,0.1-3.9
				c0.4-0.6,1.1-1.1,1.7-1.4c4.4-2.8,9.7-4.7,15-4.6c2.2,0,5.1,0.2,6.2,2.3c0.9,1.8,0.1,4-1.1,5.5
				C1901.8,1235.7,1898.3,1236.6,1895.3,1237.4z"/>
			<path class="st4" d="M1950.7,1197.7c-12.1,2.4-27.7-10.4-14.1-20.1c12.9-5.7,38.2-10.3,45.6-0.8
				C1994.2,1191.8,1967.8,1199.2,1950.7,1197.7z"/>
			<path class="st4" d="M1949.5,1191.1c-5.4,12.1-25.4,5.4-22.4-7.4C1931.2,1166.8,1959.3,1174,1949.5,1191.1z"/>
			<path class="st4" d="M2045.4,1171.9c-5.4,12.1-25.4,5.4-22.4-7.4C2027.2,1147.5,2055.2,1154.7,2045.4,1171.9z"/>
			<path class="st4" d="M1980.6,1194.2c-12.1,2.4-27.7-10.4-14.1-20.2c12.9-5.6,38.2-10.3,45.6-0.8
				C2024.1,1188.4,1997.8,1195.7,1980.6,1194.2z"/>
			<path class="st4" d="M1931.9,1197.7c-10.9,3-23.9,6.1-33.8,0.9c-25.1-13,36-28,45.2-19.9
				C1954.9,1190.2,1942,1195.7,1931.9,1197.7z"/>
			<path class="st5" d="M1902.4,1193.7c-3.3,0.9-7,1.6-10.2,0.3c-1.3-0.5-2.4-1.4-3.1-2.6c-0.7-1.2-0.7-2.8,0.1-3.9
				c0.4-0.6,1.1-1.1,1.7-1.4c4.4-2.8,9.7-4.7,15-4.6c2.2,0,5.1,0.2,6.2,2.3c0.9,1.8,0.1,4-1.1,5.5
				C1908.9,1191.9,1905.5,1192.8,1902.4,1193.7z"/>
			<path class="st4" d="M1956.8,1217.4c-12.1,2.4-27.7-10.4-14.1-20.2c12.9-5.7,53.2-10,60.6-0.5
				C2015.2,1212,1973.8,1218.9,1956.8,1217.4z"/>
			<path class="st4" d="M1925.6,1214.4c-5.4,12.1-25.4,5.4-22.4-7.4C1907.4,1190.1,1935.5,1197.2,1925.6,1214.4z"/>
			<path class="st4" d="M1959.6,1210.8c-1.9,3.7-5.7,6.5-9.8,6.5c-2,0-3.9-0.6-5.8-1.4c-1.3-0.5-2.5-1.3-3.5-2.2
				c-2.9-2.5-4.2-6.7-3.3-10.4c0.8-3.7,3.6-6.9,7-8.5c3.8-1.7,8.8-1.8,12.5,0.2c1.4,0.8,3.1,2.1,3.8,3.6c0.7,1.3,0.6,3,0.6,4.5
				C1961.2,1205.8,1960.7,1208.4,1959.6,1210.8z"/>
			<path class="st4" d="M1908,1221c-10.9,3-23.9,6.1-33.9,0.9c-25.1-13,36.1-28.1,45.2-19.9C1930.9,1213.5,1918,1219,1908,1221z"/>
			<path class="st5" d="M1878.5,1217c-3.3,0.9-7,1.6-10.2,0.3c-1.3-0.5-2.4-1.3-3.1-2.6c-0.7-1.2-0.7-2.8,0.1-3.9
				c0.4-0.6,1.1-1.1,1.7-1.4c4.4-2.8,9.7-4.7,15-4.6c2.2,0,5.1,0.2,6.2,2.3c0.9,1.8,0.1,4-1.1,5.5
				C1885,1215.2,1881.5,1216.1,1878.5,1217z"/>
			<path class="st6" d="M1980.6,1236.9c-0.6-1.4,1.2-2.6,2.6-3.2c6.3-2.4,13.1-3.6,19.9-3.4c0.9,0,4.6,0.6,3.3,2.3
				c-0.8,1-4.5,0.4-5.8,0.5c-4.4,0.2-8.7,0.8-12.9,1.8C1986.9,1235,1980.5,1236.8,1980.6,1236.9z"/>
			<path class="st6" d="M1960.8,1214.4c13-0.6,26.4-2.2,37.8-8.6c-1.1-1.9-3.9-1.8-6.1-1.4c-13.3,2.3-26.9,3.6-40.4,3.7
				c-3.9,0.1-7.8,0.1-11.6,0.5c-1.9,0.2-3.8,0.5-5.7,0.9c-1.3,0.4-3.8,0.7-4.9,1.7c-1.8,2,2,4.4,3.7,4.7c1.9,0.2,4.1-0.4,6.1-0.5
				c2.1-0.2,4.3-0.3,6.5-0.4C1951,1214.7,1956,1214.6,1960.8,1214.4z"/>
			<path class="st6" d="M1987,1187.5c4-1,8.7-3.1,8.8-7.2c-17,6.7-79.5-0.5-78.8,12.8C1945.3,1188.1,1958.1,1193.4,1987,1187.5z"/>
			<path class="st4" d="M2078.8,1263.7c6-0.5,11.8-1.7,17.7-3c12.2-2.7,24.2-5.8,36.1-9.2c4.4-1.2,21-9.2,23.8-12.6
				c0.5-0.6-42-59.6-56.9-63.9c-4.1-1.2-17.7,2.7-21.6,4.5c-2.9,1.3-5.1,3.8-7,6.3c-9.5,12.9-11.8,30-10,46c0.8,7.4,1.8,14.5,1,21.8
				c-0.6,4.3-0.2,9,4.8,10C2070.6,1264.4,2075,1264,2078.8,1263.7z"/>
		</g>
		<path class="st0" d="M2160.1,1247.1c0,0-29.5-22.1-37.9-36.5c-8.4-14.4-35.8-39.9-35.8-39.9l20.5-9.9l51.4,48l17.6,35.4
			L2160.1,1247.1z"/>
	</g>
	<g id="Layer_33">
		<g>
			<path class="st4" d="M1964.4,725.4c-3.7,7,23.1,45.8,26.9,62.2c3.8,16.5,9.2,64.9,19.6,64.9s29.2-62.4,34-71.4
				c4.8-9.1,32.4-58.7,24.8-67.3C2061.9,705.1,1971.7,711.8,1964.4,725.4z"/>
			<path class="st5" d="M2135.4,700.2c-5.4-6.6-14.9-21.9-20.6-31.1c1.4-5,2.3-10.6,2.3-16.7c-0.1-28.4-10.6-38.5-10.6-38.5
				s23.1-12.9,3.6-31.1c0,0,10.3-28.1-12-37.7c-22.3-9.7-31.2,8.8-31.2,8.8s-4.9-5.4-18.1-1.1c-13.6,4.4-12.8,17.9-12.8,17.9
				s-80.6,5.8-84.8,60.2l0,0c0,0-15.5,39.2-20.9,51.8c-10.6,24.5-37,46.1-36,58s4.2,17.5,11,22.1s22.7-0.2,25.1-4.2
				c2-3.3,19.9-64.8,24.5-98.8c14.6,46.9,68.7,68.1,131.1,46.3c0,0,0.2-0.1,0.6-0.3c13.3,27.1,32.2,56.2,34,58.5
				c2.6,3.2,11.6,1.7,18.6-3.1c6.9-4.8,1.3-16.7,1.3-16.7s9.2,2.6,15.1-2.5c5.9-5.1,4.9-10.6,4.1-15.7
				C2158.7,721.3,2143.3,709.9,2135.4,700.2z"/>
			<path class="st7" d="M2072.7,585.1c5.3-1,11-1.1,15.9,1.1c4.9,2.2,9,7,9.2,12.4c0.1,2,0,4.7,2,5.3c1.5,0.5,4.2-0.1,4.1,1.5
				c-0.7-1.7,1.8-3.2,1.5-5c-0.1-0.7-0.8-1.3-1.2-1.9c-2.6-3.6,1.5-8.7,0.1-13c-0.9-3-4.1-4.4-6.6-6.3c-4.4-3.4-7-9.1-6.7-14.6
				c0.1-1.1,0.2-2.2-0.2-3.3c-1.1-3-5.8-2.7-7.8-0.2c-1.9,2.5-1.9,5.9-1.8,9.1c-1.2,0.2-2.4,0.3-3.6,0.5c-2.6-3.3-5.7-6.2-9-8.8
				c-0.5-0.4-1.1-0.8-1.7-0.7c-0.7,0.1-0.9,0.8-0.7,1.3c1.1-4.3-5.3-2.7-7.1-1.8c-2.3,1.2-6,3.1-4.7,6.1c1.1,2.8,4.8,3.8,7.3,4.6
				c3,1,5.8,2.6,7.8,5C2070.2,577,2074.5,584.8,2072.7,585.1z"/>
			<path class="st7" d="M1922,728.6c0.7,2.1,1.4,4.3,2.1,6.4c3.8-1.7,7-4.5,9.3-7.9c1.4-2.2,2.4-4.5,3.4-6.9
				c2.3-5.6,4.7-11.1,7-16.7c-1.9-1.3-4.5-0.4-6.1,1.2c-1.6,1.6-2.4,3.8-3.4,5.7c-1.9,3.6-4.6,6.8-7.8,9.3c-1.8,1.4-3.8,2.5-5.1,4.4
				s-1.7,4.6-0.1,6.2"/>
			<g>
				<path class="st5" d="M2005.9,835.5c-32.5-0.5-42-20.9-52.1-48.3c-0.2-0.6-1-10.4-0.9-9.8c8,32.7,16.9,48.1,48.3,49.6
					c33.2,1.6,53.8-28.8,67.9-55.3c0.3-0.5,7.1-5,7.7-4.9c0.6,0.1,0.2,7.7,0.1,8.3c0,0-4.6,23.6-21.2,40.9
					C2045.3,826.9,2023.6,835.8,2005.9,835.5z"/>
			</g>
			<path class="st4" d="M1944.8,719.6c0,0-3.9,32.5,1.4,54.3c3.5,14.4,13.7,56.7,54.2,57.3c35.9,0.5,64.8-27.4,70.2-60.7
				c2.9-17.9-0.1-44.9-0.1-44.9s43.4-16,34.5-49.5c-7-26.4-37.7-9.2-37.7-9.2s-3.1-55-57.5-54.9c-48.7,0.1-56.1,51.8-56.1,51.8
				s-23.1-19.5-36.2-3.2C1903,678.9,1917.6,709.8,1944.8,719.6z"/>
			<path class="st5" d="M2083.4,682.4c-4.8,2.9-9.4,8.8-12.9,20.9l0,0v0.1c-0.4,1.3-0.7,2.6-1,4c-0.1,0.6,0.2,1.2,0.8,1.3
				c0.1,0,0.1,0,0.2,0c0.5,0,1-0.4,1.1-0.9c0.3-1.3,0.6-2.6,0.9-3.8c4.8-10.6,16.1-7.1,16.3-7.7c0.2-0.6-6.3-5.8-12.2-1.2
				c7.4-16.1,20.2-14.8,20.2-15.4C2097,679.3,2089.2,678.9,2083.4,682.4z"/>
			<path class="st5" d="M1947.5,698c-1.4-25.6-25.6-25-25.6-24.3c0,0.6,14.3,0.7,21.1,17c-7.9-6.7-15.2-0.1-15,0.5s13-3.3,17.4,7.6
				c0.9,2.5,1.3,4.7,1.9,4.7C1947.3,703.4,1947.7,703,1947.5,698z"/>
			<path class="st6" d="M1974.8,776.6c0,0,0.9,0.8,12.9-2.7c4-1.2,11.3,5,14.5,5c3.3,0,13.7-6.4,16.3-7.3c2.6-0.9,15.4,5.6,15.4,5.6
				l-15.7-12.6c-3.9-2.7-9.2-1.6-12.2,0.4l-4.5,2.8c0,0-4.8-2.4-4.9-2.5c-3.5-2.6-8.3-2.5-11.8,0.2L1974.8,776.6z"/>
			<path class="st5" d="M2020.5,788.8c-9.5,1.7-19.3,1.5-28.5-0.3c-1.3-0.3-2.7-0.6-4.1-0.4c-1.4,0.2-2.8,1-3.1,2.2
				c-0.3,1.1,0.5,2.1,1.4,2.7c1,0.6,2.2,0.8,3.4,1c2.2,0.4,4.5,0.8,6.8,1c4.9,0.3,9.8-0.6,14.6-1.7c2.4-0.6,4.8-1.2,7.2-1.7
				c1.2-0.3,2.4-0.5,3.7-0.8c1-0.2,2-0.3,2.9-0.8c1.1-0.6,0.3-1.2-0.6-1.4C2023.1,788.3,2021.8,788.5,2020.5,788.8z"/>
			<path class="st5" d="M2032.9,776.8c0,0-13.6-8.8-15.4-8.2c-1.3,0.5-12.1,7.8-14.4,7.8c-2.6,0-9.5-1.3-13.3-3.7
				c-2.8-1.8-5.7-0.7-12.8,1.9c-1.2,0.9-2.3,1.4-1.2,2.7c2.8,0.8,9.6-3.7,12.2-2c0,0,10.6,5.2,15.1,5.2s14.4-8.6,15.6-9
				c1.7-0.6,14.7,8.7,15.9,8.3C2034.9,781,2032.9,776.8,2032.9,776.8z"/>
			<path class="st5" d="M2036.4,783c-1.8-6.4-3.5-6.2-3.5-6.2c-0.7-0.6-2.4-1.1-2.8-0.3c-0.6,1.2,2.9,4.3,3,6.3
				C2033.1,785.4,2036.8,784.6,2036.4,783z"/>
			<path class="st5" d="M1974.6,783.5c-0.1,0-0.2,0-0.3,0c-0.5,0-0.8-0.3-1.1-0.6c-0.3-0.3-0.4-0.8-0.3-1.2c1.1-6,4.2-7.1,4.2-7.1
				c0.8-0.4,2-0.2,2.2,0.6c0.4,1.3-1,1.6-1.9,3.1c0,0-1.1,2.6-1.3,3.8C1976,782.9,1975.4,783.5,1974.6,783.5z"/>
			<g>
				<path class="st5" d="M2001.6,768.9c-4.7-0.1-8.7-4.6-8.9-4.8c-0.4-0.5-0.3-1.2,0.1-1.5c0.5-0.4,1.2-0.3,1.6,0.2
					c0,0,3.5,3.9,7.1,4s6.8-3.7,6.8-3.8c0.4-0.5,1.1-0.6,1.6-0.2c0.5,0.4,0.6,1,0.2,1.5C2010.1,764.5,2006.4,769,2001.6,768.9z"/>
			</g>
			<path class="st5" d="M2023.8,733.4c-0.2-0.7-1-1.1-1.7-0.9s-1.1,1-0.9,1.7c0,0.1,6.2,9.1,2.5,12.6c-2.9,2.7-7,2.4-9.4,2.1
				c0.4-0.9,0.6-1.6,0.6-1.6c0.2-0.7-0.2-1.5-0.9-1.7c-0.7-0.2-1.5,0.2-1.7,0.9c0,0.1-0.3,1.2-1.1,2.5l0,0c-1.4,2.3-4.2,4.6-9.7,4.5
				c-8.4-0.3-8.8-9-8.8-9.4c0-0.8-0.6-1.3-1.4-1.3s-1.3,0.6-1.3,1.4c0,1.5,0.4,3.6,1.2,5.6c-2.1,0.6-5.5,1.2-8.2-2.6
				c-3.6-5,3.5-11.4,3.8-11.6c0.5-0.5,1.4-2.5,0.9-3s-2.2,0.3-2.7,0.9c-2.5,2.5-9,9.9-5.1,15.4c2.9,4,7.2,4.5,10.5,3.9
				c0.8-0.1,1.5-0.3,2.1-0.5c1.7,2.5,4.5,4.5,8.8,4.7c1.1,0,2.2,0,3.1-0.2c4.2-0.7,6.8-3.1,8.4-5.3c1.5,0.3,4.4,0.7,7.5,0.2
				c1.9-0.3,3.8-1,5.5-2.3C2031.3,745,2023.9,733.8,2023.8,733.4z"/>
			<g>
				<path class="st5" d="M1991,731.4c-0.3,0-0.6,0-0.8-0.1c-0.8-0.3-1.2-1.2-0.8-1.9c0-0.1,3.6-9.4,4.3-15.5
					c1.1-9.9-1.4-18.8-1.4-18.9c-0.2-0.8,0.3-1.6,1.1-1.8c0.8-0.2,1.6,0.3,1.8,1.1c0.1,0.5,2.7,9.5,1.5,20
					c-0.8,6.5-4.4,15.8-4.5,16.2C1992,731,1991.5,731.3,1991,731.4z"/>
			</g>
			<path class="st8" d="M1975.6,693.8c-12.6-3.2-19,6.8-19,6.8s-0.5,8.9,13.4,12.2s18.9-2.7,18.9-2.7S1988.2,697.1,1975.6,693.8z"/>
			<path class="st8" d="M2055.8,703.1c0,0-6.2-10.9-19-8.4c-12.7,2.5-13.8,16.2-13.8,16.2s4.7,6.2,18.7,3.7
				C2055.8,712.1,2055.8,703.1,2055.8,703.1z"/>
			<circle class="st5" cx="2042.2" cy="710.1" r="7.5"/>
			<circle class="st5" cx="1975.8" cy="709.2" r="7.5"/>
			<path class="st6" d="M2023.1,710.8c0,0,4.6,10.9,19.1,7.9c13.3-2.8,13.6-15.6,13.6-15.6s0.1,8.1-13,11.3
				C2029.8,717.6,2023.1,710.8,2023.1,710.8z"/>
			<path class="st6" d="M1988.9,710.4c0,0-6.5,9.8-20.6,6.3c-13.5-3.4-11.6-15.8-11.6-15.8s0.3,9,13.4,12
				C1982.9,715.9,1988.9,710.4,1988.9,710.4z"/>
			<path class="st5" d="M2035.6,693.1c-15,3.4-13.7,20.6-13.7,20.6s3.4-5.6,19.7-9.1c11.2-2.4,15-1.6,15-1.6
				S2052.3,689.3,2035.6,693.1z"/>
			<path class="st5" d="M1977.7,692.1c-14.8-4.9-21.7,8.3-21.7,8.3s8-0.5,18.8,3.7c10.4,4.1,15.2,9.1,15.2,9.1
				S1993.1,697.2,1977.7,692.1z"/>
			<path class="st6" d="M2025.3,692.6c0.8,2.4,11.2-0.5,17.6-0.4c6.4,0.2,15.9,8.9,19.2,7.4c3.3-1.5-6.9-13.8-17.2-14.6
				C2034.5,684.1,2024,688.4,2025.3,692.6z"/>
			<path class="st6" d="M1968.7,684c-10.3,0.3-21.2,12-17.9,13.7c3.1,1.7,13.1-6.5,19.5-6.3c6.4,0.2,16.6,3.6,17.5,1.3
				C1989.4,688.6,1979.1,683.8,1968.7,684z"/>
			<path class="st5" d="M2022.2,680.3c2.3,4.8,14.8,0.4,22.5,2.8c10.1,3.2,19.1,14.1,21.7,12.6c1.8-1-4.1-15.4-20-19.8
				S2019.7,675,2022.2,680.3z"/>
			<path class="st5" d="M1992.4,679.4c-2.4,4.8-14.9,0.1-22.6,2.4c-10.1,2.9-19.4,13.7-21.9,12.2c-1.8-1,4.4-15.4,20.3-19.5
				C1984.3,670.4,1995,674.2,1992.4,679.4z"/>
			<path class="st5" d="M2054.7,655.7c0,0,2.4,27.2,2.9,42.4s-1.8,53.5,8.5,74.5c10.2,21,27.6,32,43.6,23.1
				c16.1-8.9,18.5-27.9,9.2-43.4s-26.5-28.6-33.9-51.1s-6.3-55-6.3-55L2054.7,655.7z"/>
			<path class="st6" d="M1959.9,731.8c2.4,3.7,2.7,8.3,3,12.7c0.4,7,0.9,14,1.3,20.9c0.2,3.5,0.4,7.1-0.4,10.5
				c-0.8,3.4-2.8,6.7-6,8.2c-1.1,0.5-2.4,0.8-3.5,0.4c-0.8-0.3-1.4-0.9-1.9-1.4c-6-6.2-9.3-14.8-10-23.4c-0.3-4.1-0.1-8.2,0.6-12.3
				c0.5-3.4,1.5-6.8,2-10.2c0.6-4.1,0.8-9.3,5.9-10C1954.6,726.8,1957.9,728.6,1959.9,731.8z"/>
			<path class="st7" d="M2062.6,703.1c0.1,7.1,0.2,14.2,1,21.3c1.6,14,6.2,27.4,10.7,40.7c2.9,8.5,6.6,18,14.9,21.6
				c5.4,2.3,12,1.5,16.6-2.2s6.9-9.9,5.8-15.7c-3.6,0.8-7.1,1.5-10.7,2.3c0.6-2.8,1.3-5.5,1.9-8.3c-3.2,1.2-7,0-9.6-2.3
				s-4.3-5.4-5.9-8.5c-5.3-10.1-10.8-20.6-12-32c-0.6-5-0.2-10.1-0.5-15.2c-0.3-6.2-1.6-12.3-2.8-18.4c-0.9-4.4-1.7-8.7-2.6-13.1
				c-0.3-1.5-0.4-5.4-1.8-5.9c-1-0.4-3,0.4-3.8,1c-1.8,1.5-1.6,4.4-1.5,6.6c0.1,4.2,0.1,8.3,0.2,12.5
				C2062.5,692.7,2062.6,697.9,2062.6,703.1z"/>
			<path class="st5" d="M1935.5,642.7c0,0-4.3,45-10.3,59s-31.3,51.7-32.2,66.5c-0.9,14.8,2.4,25.9,11.8,30.5
				c12.6,6.2,32.7-4.4,37-16.7c11.3-32.3,2.2-79.8,15.3-134.6L1935.5,642.7z"/>
			<path class="st7" d="M1927.4,756.3c-2.2,8.9-5.2,18.7-13.2,23c-2,1.1-4.9,1.6-6.2-0.2c-0.4-0.6-0.6-1.3-0.8-1.9
				c-1.9-8.1-0.5-16.9,3.9-24c1.9-3,4.2-5.7,6.3-8.6c6.5-8.9,10.5-19.3,13.3-29.9c3-10.9,5-22.1,7.7-33c1.4-5.5,3-10.9,5-16.1
				c0.5-1.3,1.6-6.1,3.7-3.8c1.4,1.6-0.5,6.7-0.9,8.6c-2.6,13.6-5.4,27.2-8.3,40.7s-6,26.9-9.3,40.3
				C1928.2,753,1927.8,754.7,1927.4,756.3z"/>
			<path class="st5" d="M2039.8,568.6c0,0-31-2.8-51,6.5c-20,9.4-26.6,26.7-26.6,26.7s-39.8,8.6-32.3,38.2
				c8.3,32.9,43.2,14.2,43.2,14.2s3.3,17.3,28.3,17.7c22.7,0.4,30-14.5,30-14.5s16.5,18.7,39.2,7.9c25.7-12.2,20.2-35,18.2-39.4
				s-9.8-24.7-42.7-18.6C2046,607.4,2066.1,577.2,2039.8,568.6z"/>
			<path class="st7" d="M1936.6,622.2c-5.5,8-6.4,18.9-2.3,27.7c-0.2-5.3,3.4-10.6,8.4-12.4c-3.1,3.5-4.2,8.6-2.9,13
				c2.1-2.8,4.2-5.6,6.3-8.4c-0.6,3.1,0.5,6.6,2.8,8.8c1.6-1.3,3.2-2.6,4.7-3.9c5.6,2.8,13.2,0.8,16.7-4.4
				c3.9,8.6,11,15.6,19.7,19.5c-2.7-4.5-3.3-10.3-1.6-15.3c-1.4,3.2,0.3,7.3,3.5,8.6s7.3-0.5,8.5-3.8c0,1.4-0.1,2.8-0.1,4.2
				c2.1,0.2,4.3-0.9,5.4-2.7c1.4,2.9,5.8,1.8,8.6,0.2c8.4-4.6,16.8-9.2,25.3-13.9c-4.2,5.4-1.7,14.6,4.6,17.2
				c1.5-3.7,3.7-7.1,6.3-10.1c-0.9,2.3-1.1,4.9-0.6,7.3c1.9-2,5.3-2.3,7.6-0.7c3.2-4,9.1-5.7,13.9-4c1.3-3.2,2.7-6.4,4-9.6
				c-2.4,3.3-7.9,3.6-10.8,0.7c-2.9-2.9-2.4-8.4,1-10.7c-3.5,2.5-6.9,5.1-10.4,7.7c1.2-2.2-1.8-5.2-4-3.9
				c0.7-10.3,6.2-20.2,14.5-26.3c-13.8,0.1-27.2,8.7-33.2,21.2c-0.2-1.3-2.1-1.7-3.2-0.9c-1,0.8-1.4,2.2-1.6,3.5
				c-1.6-4.2-9-3.9-10.2,0.4c-1-1.2-2-2.4-2.9-3.6c-1.3,0.4-2.5,1.3-3.1,2.5c-0.9-3.6-1.2-7.3-0.8-10.9c-3.6,2.7-6.9,5.7-10,9
				c0.3-2,0.6-3.9,0.9-5.9c-5.4,0-10.7,2.8-13.7,7.2c0.3-1.2,0.6-2.5,0-3.6s-2.6-1.2-2.9,0c5.7-8.6,14.4-15.1,24.3-18.2
				c-8.3-0.7-17-0.3-24.2,3.7c-7.3,4-12.8,12-11.7,20.3c1-2.5,1.7-5.5,0.2-7.7s-5.9-1.9-6,0.7c0.7-2-2.6-2.9-4.7-2.3
				c-2.1,0.6-5.3,0.8-5.5-1.4c-0.1-0.7,6-3.6,6.8-4c2.4-1.3,5-2.3,7.3-3.7c-3.1-1.9-7.1-1.9-10.6-2.6c-2.8-0.5-5.1-0.5-7.9,0.2
				C1946.5,612.6,1940.5,616.6,1936.6,622.2z"/>
			<path class="st6" d="M1999.6,688.8c0,0.3,0,0.7-0.2,1c-0.2,0.2-0.4,0.2-0.6,0.3c-1.6,0.4-3.3,0.4-4.8,0c-0.4-0.1-0.9-0.2-1.1-0.6
				c-0.2-0.3-0.3-0.7-0.3-1c-0.1-1.1,0.2-2.3,0.6-3.4c0.3-0.7,0.8-1.4,1.2-2.1c0.8-1.2,1.6-2.4,2.4-3.6c0.4-0.6,0.8-1.2,1.2-1.8
				c0.2-0.3,0.4-0.6,0.6-0.9c0.1-0.2,0.3-0.7,0.6-0.8c0.3-0.1,0.2,0.2,0.2,0.5c0,0.4,0,0.7,0,1.1c0,0.7,0,1.5,0.1,2.2
				c0,1.4,0.1,2.9,0.1,4.3C1999.5,685.6,1999.6,687.2,1999.6,688.8z"/>
		</g>
	</g>
	<g id="рукав_9_">
		<g>
			<path class="st3" d="M1851.7,1067.8c-2.3,17.4-3.1,35.8-11.8,51.2c-3.6,6.4-8.5,12-13.2,17.5c-24.7,28.5-51,58-86.3,71.2
				c-9.8,3.6-71.1-12.9-71.1-12.9s14.9,21.3,47.7,29.4c48,11.8,83.2,6.1,87.7,5.1c7.2-1.6,22.4-2.4,29.2-5.4
				c12-5.3,17.7-1.8,24.9-12.8c-8,1.7-15.4-9.2-21.6-14.4c10-6.9,21.2-15.9,20.9-28.1c0-3.5-1.2-7-1.9-10.5
				c-4.6-22,10.6-43.6,15.5-65.5c3.1-13.8,2.8-29.6,3.9-43.8c0.8-9.1,11.7-39.7,12.4-44.2c1.8-12.3,2-128.6-16.5-20.8
				c-0.4,1.9-0.7,17.4-1.5,18.4c-2.4,2.8-3.4,6.4-4.7,9.9c-3.1,8.5-5.7,17.2-7.9,26C1855,1047.7,1853,1057.6,1851.7,1067.8z"/>
			<path class="st0" d="M1642.2,1170.3c18.6,26.6,85.8,64.7,136.1,40.5c50.3-24.1,53.9-41.2,60.8-54.3c6.7-13.1,16.7-45.8,19-64.9
				c2.3-19.1,4.3-53.8,9.7-64.8c5.4-11,18.5-46.9,13.2-58.5s12.7-12.7,16.2-32.8c3.6-20.1-24.5-51-41.5-66.6
				c-17-15.6-54.7-42.5-71-31.1c-16.3,11.4-14.7,25.1-19.7,29.2c-5,4.2-36.4,26.4-44.6,43.9c-8.2,17.6-26.6,48.2-33.4,63.5
				s-39.1,38.2-45.9,61.6C1634.2,1059.5,1600.3,1110.5,1642.2,1170.3z"/>
			<path class="st3" d="M1817.9,908.6c1.6,4.2,2.4,8.8,4.5,12.8c6.4,12.1,22,14.9,35.6,16.4c9.4,1.1,15.8-3.4,25.1-2.4
				c0.6-21.3-12.2-33.7-28.6-47.1c-15.7-12.8-32.8-23.9-50.6-33.6c-3.3-1.8-6.9-3.5-10.6-2.9c-10.7,1.8-3.6,17.2-0.3,22.4
				c4.9,7.7,11.6,14.2,17.2,21.4C1813.3,899.5,1816.1,903.8,1817.9,908.6z"/>
			<path class="st1" d="M1769.6,908c3.7,11.4,8.5,23.4,18.3,30.4c13.1,9.3,32.1,7.4,44.7,17.5c4,3.2,7.1,7.4,11,10.7
				c3.9,3.2,9.2,5.6,14.1,3.9c-4.9,9.1-12.2,19.7-22.6,18.5c-11.2-1.2-15.7-15-24.1-22.5c-7.7-7-18.9-8.6-27.9-14
				c-11.2-6.9-17.8-19.6-20.3-32.6c-1.7-9.1-1.7-18.5-1.1-27.7c0.1-1.4,0.3-12.2,2.2-11.1c0.8,0.4,0.5,4.7,0.5,5.7
				c0.2,2.2,0.6,4.6,1.1,6.8C1766.6,898.4,1768,903.3,1769.6,908z"/>
		</g>
	</g>
	<g id="рука_9_">
		<g>
			<path class="st4" d="M1870,777.4c-3.3-2.2-23.6-8-26.6-5.5c-5.2,4.4-13.8,43.5-20.7,61.1c-8.4,22-7.6,44.8,4.6,65.9
				c13,20,33.1,41.3,53.1,19.9c23.4-29.4,40.1-66.9,38.3-104.9C1916.7,791.9,1890.6,778,1870,777.4z"/>
			<path class="st4" d="M1932.5,801.7c2.1-4,4.3-8.3,4.5-12.9c0.2-4.6-1.9-9.6-6.3-11.3c-2.9-1.1-6.2-0.7-9,0.7
				c-2.8,1.4-5.1,3.6-7.2,5.7c-4,4.1-7.7,8.6-10.9,13.4c-4.4,6.4-8.1,14.5-5,21.5c1.3,3,3.7,5.4,6.6,6.8c3.3,1.8,7.3,2.4,10.8,1.1
				C1922,824.4,1928.4,809.6,1932.5,801.7z"/>
			<path class="st4" d="M1838.8,825.1c-4-11.7-18.7-24.6-24.5-8.2c-1.6,14.1-2.2,47.6,13.7,49.4
				C1846.5,868.5,1844,840.3,1838.8,825.1z"/>
			<path class="st4" d="M1927.8,796c4.1-0.5,8.1-3,9.6-6.9c0.8-1.8,0.9-3.9,0.7-5.9c-0.1-1.3-0.2-2.8-0.8-4.1
				c-1.3-3.6-4.8-6.2-8.6-6.8c-3.8-0.6-7.7,0.9-10.5,3.6c-2.9,2.9-4.8,7.6-4.2,11.8c0.2,1.6,0.9,3.7,2,4.8c1,1.1,2.6,1.6,4,2.2
				C1922.6,795.8,1925.2,796.3,1927.8,796z"/>
			<path class="st4" d="M1945.5,778.5c6.7-9.1,12.6-19.6,12.6-30.9c-0.1-3.7-1.2-7.9-4.5-9.4c-2.2-0.9-4.8-0.4-6.9,0.8
				c-2.1,1.2-3.6,3.1-5.2,4.9c-7.1,8.5-13.4,17.5-18.8,27c-2.6,4.7-5.1,10.1-3.4,15.1c0.7,2.2,2.4,4.1,4.4,5.3
				c1.4,0.9,3.4,1.8,5.2,1.7c1.9-0.2,3.6-1.4,5.1-2.4c2.2-1.4,4.2-3.2,5.9-5.1C1941.9,783.3,1943.7,780.9,1945.5,778.5z"/>
			<path class="st4" d="M1835.4,801.7c0.1-9.5-0.8-19.7-6.6-28.2c-1.9-2.8-4.8-5.6-7.9-5.4c-2,0.1-3.6,1.5-4.5,3.2
				c-0.9,1.7-1,3.7-1.3,5.7c-0.8,9.2-0.8,18.4,0.2,27.8c0.4,4.5,1.4,9.6,5.2,12.7c1.7,1.5,3.7,2.2,5.8,2.3c1.4,0.1,3.3,0.1,4.5-0.8
				c1.2-0.8,1.8-2.5,2.4-3.7c0.9-1.9,1.3-4,1.7-6.2C1835.2,806.7,1835.3,804.2,1835.4,801.7z"/>
			<path class="st5" d="M1951.9,750c2.1-2.8,4-6,3.9-9.5c-0.1-1.3-0.5-2.7-1.3-3.8c-0.9-1-2.4-1.6-3.6-1.2c-0.7,0.2-1.3,0.7-1.9,1
				c-4.2,3.2-7.8,7.4-9.5,12.4c-0.7,2-1.7,4.8,0,6.6c1.4,1.5,3.8,1.5,5.5,0.9C1947.9,755.5,1950,752.5,1951.9,750z"/>
			<path class="st5" d="M1820.8,771.9c0.1-3.1-0.1-6.2-1.1-7.6c-0.4-0.6-1-0.7-1.6-0.3c-0.7,0.4-1.5,1.4-1.9,2.9
				c-0.3,0.7-0.4,1.5-0.5,2.3c-0.8,5.1-1.1,10.3-0.4,13.9c0.3,1.5,0.7,3.5,2,2.8c1-0.6,2.1-2.8,2.5-4.7
				C1820.7,777.7,1820.7,774.6,1820.8,771.9z"/>
			<path class="st4" d="M1927.9,753.5c6.5-10.4,0-29.7-13.9-20.3c-9.8,10-23.2,32-17,42.3C1907.1,792.1,1923.2,770,1927.9,753.5z"/>
			<path class="st4" d="M1914.7,730.6c6.5-10.4,0-29.7-13.9-20.3c-9.8,10-23.2,32-17,42.3C1893.8,769.1,1909.9,747,1914.7,730.6z"/>
			<path class="st4" d="M1922.2,750.1c13.2-0.8,14-21.9,1-23.6C1905.9,724.4,1902.6,753.1,1922.2,750.1z"/>
			<path class="st4" d="M1906.9,780.5c4.1-0.5,8.1-3,9.6-6.9c0.8-1.8,0.9-3.9,0.7-5.9c-0.1-1.3-0.2-2.8-0.8-4.1
				c-1.3-3.6-4.8-6.2-8.6-6.8c-3.8-0.6-7.7,0.9-10.5,3.6c-2.9,2.9-4.8,7.6-4.2,11.8c0.2,1.6,0.9,3.7,2,4.8c1,1.1,2.6,1.6,4,2.2
				C1901.5,780.3,1904.2,780.8,1906.9,780.5z"/>
			<path class="st4" d="M1914,780.2c6.5-10.4,0-29.7-13.9-20.3c-9.8,10-23.2,32-17,42.3C1893.2,818.8,1909.4,796.8,1914,780.2z"/>
			<path class="st4" d="M1934.6,735.9c6.7-9.1,14.2-20.1,12.8-31.3c-3.2-28-38.9,23.8-34.7,35.2
				C1919.4,754.7,1929.1,744.6,1934.6,735.9z"/>
			<path class="st5" d="M1941.3,707c2.1-2.8,4-6,3.9-9.5c-0.1-1.3-0.5-2.7-1.3-3.8c-0.9-1-2.4-1.6-3.6-1.2c-0.7,0.2-1.3,0.7-1.9,1
				c-4.2,3.2-7.8,7.4-9.5,12.4c-0.7,2-1.7,4.8,0,6.6c1.4,1.5,3.8,1.5,5.5,0.9C1937.4,712.4,1939.5,709.4,1941.3,707z"/>
			<path class="st4" d="M1884.4,744.6c6.5-10.4,0-29.7-13.9-20.3c-9.8,10-23.2,32-17,42.3C1863.6,783.3,1879.7,761.2,1884.4,744.6z"
				/>
			<path class="st4" d="M1878.7,741.3c13.2-0.8,14-21.9,1-23.6C1862.5,715.5,1859.2,744.3,1878.7,741.3z"/>
			<path class="st4" d="M1826.8,824c13.3-0.7,14-21.9,1-23.6C1810.4,798.4,1807.1,827.1,1826.8,824z"/>
			<path class="st4" d="M1870.6,771.4c6.5-10.4,0-29.7-13.9-20.3c-9.8,10-23.2,32-17,42.3C1849.7,810,1865.9,788,1870.6,771.4z"/>
			<path class="st4" d="M1891.1,727c6.7-9.1,14.2-20.1,12.8-31.3c-3.2-28-38.9,23.8-34.7,35.2C1876,745.9,1885.7,735.8,1891.1,727z"
				/>
			<path class="st5" d="M1897.8,698.1c2.1-2.8,4-6,3.9-9.5c-0.1-1.3-0.5-2.7-1.3-3.8c-0.8-1-2.4-1.6-3.6-1.2c-0.7,0.2-1.3,0.7-1.9,1
				c-4.2,3.2-7.8,7.4-9.6,12.3c-0.7,2-1.6,4.9,0,6.6c1.4,1.5,3.8,1.5,5.5,0.9C1893.9,703.6,1896,700.6,1897.8,698.1z"/>
			<path class="st4" d="M1900.8,757.3c6.5-10.4,0-29.7-13.9-20.3c-9.8,10-28.2,46.1-22,56.5C1874.9,810,1896.1,773.8,1900.8,757.3z"
				/>
			<path class="st4" d="M1909,727.1c13.3-0.7,14-21.9,1-23.6C1892.7,701.4,1889.4,730.2,1909,727.1z"/>
			<path class="st4" d="M1893.6,757.6c4.1-0.5,8.1-3,9.6-6.9c0.8-1.8,0.9-3.9,0.7-5.9c-0.1-1.3-0.3-2.7-0.8-4.1
				c-1.3-3.6-4.8-6.2-8.6-6.8c-3.8-0.6-7.8,1-10.5,3.6c-2.9,2.9-4.8,7.6-4.2,11.8c0.2,1.6,0.9,3.7,2,4.8c1,1.1,2.6,1.6,4,2.2
				C1888.3,757.3,1890.9,757.9,1893.6,757.6z"/>
			<path class="st4" d="M1921.4,713c6.7-9.1,14.2-20.1,12.9-31.3c-3.2-28-38.9,23.8-34.7,35.2C1906.2,731.7,1915.9,721.6,1921.4,713
				z"/>
			<path class="st5" d="M1928,684c2.1-2.8,4-6,3.9-9.5c0-1.4-0.5-2.7-1.3-3.8c-0.8-1-2.4-1.6-3.6-1.2c-0.7,0.2-1.3,0.7-1.9,1
				c-4.2,3.2-7.8,7.4-9.6,12.3c-0.7,2-1.6,4.9,0,6.6c1.4,1.5,3.8,1.5,5.5,0.9C1924.1,689.4,1926.2,686.5,1928,684z"/>
			<path class="st6" d="M1910.6,786.4c-1.2-1-3,0.1-3.9,1.2c-4.6,5-8,11-10.3,17.4c-0.3,0.9-1,4.6,1.1,3.8c1.3-0.4,2-4.1,2.5-5.2
				c1.7-4,3.9-7.8,6.4-11.5C1906.5,791.7,1910.4,786.4,1910.6,786.4z"/>
			<path class="st6" d="M1896.5,760c-5.2,12-11.5,23.9-21.5,32.2c-1.5-1.7-0.3-4.2,0.8-6.1c6.8-11.7,12.9-23.9,17.8-36.4
				c1.4-3.6,2.8-7.2,4.5-10.7c0.8-1.8,1.8-3.4,2.8-5c0.7-1.1,2-3.4,3.3-3.9c2.5-1,3.5,3.5,3,5.1c-0.5,1.9-1.8,3.7-2.6,5.5
				c-0.9,1.9-1.8,3.9-2.6,6C1900.2,751,1898.5,755.5,1896.5,760z"/>
			<path class="st6" d="M1862.1,775c-2.3,3.4-6,7-9.9,5.7c12.2-13.6,27.7-74.5,40-69.2C1877.4,736.2,1877.7,750,1862.1,775z"/>
			<path class="st4" d="M1884.4,899.6c-2.7,5.4-6,10.3-9.4,15.4c-7.1,10.3-14.3,20.3-21.9,30.1c-2.7,3.6-18.6,6.6-23,8.1
				c-0.7,0.3-24.7-3.7-31.6-13.9c-8.8-12.8-17.9-27-16.4-42.5c0.4-4.2,21.2-26.1,24.2-29c2.3-2.1,5.3-3.3,8.4-4.2
				c15.5-4.1,32.2,0.1,46.5,7.6c6.5,3.4,12.7,7,19.9,9c4.2,1,8.4,3.2,7.5,8.2C1888.1,892.2,1886.1,896.2,1884.4,899.6z"/>
			<path class="st6" d="M1857.6,903.1c1.7,9.6-12.3-2.5-13.5-6.6c1.4,5.2,1.6,10.6,0.8,15.9c-0.3,2-3.1,2.5-4.1,0.7
				c-17-29.3-25.7-50.7-21.7-52.9C1822.8,858.1,1837.6,872.1,1857.6,903.1z"/>
		</g>
	</g>
	<g id="Layer_32_2_">
		<path class="st0" d="M1792.1,874.6c0,0,24.7,21.9,29.8,32.9c4.9,10.8,26.8,32.1,48.1,29.1l-5.3,24.5c0,0-8,10.1-27.8-1.1
			s-22-4.1-39.9-16.8c-18-12.7-20.3-28.8-20.3-28.8l5.9-24.8L1792.1,874.6z"/>
	</g>
</g>
</svg>
