<?xml version="1.0" encoding="utf-8"?>
<!-- Generator: Adobe Illustrator 25.2.1, SVG Export Plug-In . SVG Version: 6.00 Build 0)  -->
<svg version="1.1" id="Layer_33" xmlns="http://www.w3.org/2000/svg" xmlns:xlink="http://www.w3.org/1999/xlink" x="0px" y="0px"
	 viewBox="0 0 998.2 973.2" style="enable-background:new 0 0 998.2 973.2;" xml:space="preserve">
<style type="text/css">
	.st0{fill:#7786A5;}
	.st1{fill:#677490;}
	.st2{fill:#404B62;stroke:#404B62;stroke-width:3;stroke-miterlimit:10;}
	.st3{fill:#404B62;}
	.st4{fill:#C8315C;}
	.st5{fill:#1B2334;}
	.st6{fill:#352745;}
	.st7{fill:#282F3D;}
	.st8{fill:#AD3255;}
	.st9{fill:#FFFFFF;}
</style>
<g id="тело_1_">
	<path class="st0" d="M270.8,327.9c-34.5,30.1-34.2,62.4-55.9,84.8c-12.4,12.9-31,39.9-48.8,65.7c-13.2,19.2-26,37.6-35.6,49
		c-25,29.8-59.6,84.9-59.9,105.2s-2.4,99,13.9,144.9s152.2,54,193.5,17.6S231.8,690,246.8,651.1s61.1-103.3,73.4-153.5
		c16.9-68.7,2-85.2-12.2-110.6S270.8,327.9,270.8,327.9z"/>
	<path class="st0" d="M656.1,342c35.2,29.3,35.8,61.5,58,83.4c12.7,12.5,32,39.1,50.4,64.5c13.7,18.9,27,37,36.8,48.1
		c25.8,29.2,61.7,83.4,62.5,103.7s13,69.3-2.1,115.5S690.5,838.3,648.2,803s-33.1-1-49.1-39.5s25.4-200.7,11.8-250.7
		c-18.5-68.3-4.1-85.2,9.5-110.9S656.1,342,656.1,342z"/>
	<path class="st0" d="M285.5,316.1c-20.3,10-39.8,39.8-53.1,76.1s73.2,77,61.8,122.1s-28.7,72.5-31.1,95.5s-48.6,124.9-28.6,162.6
		c24.9,47.1,112,5,203.9,14.5c103.5,10.7,197.8,41.9,216.4,8.5c22-39.3-8-106.5-8.2-139.8c-0.3-38.2-38.2-116.1-31.1-145
		c6.1-25,85.8-69,76.1-107.9s-35.1-68.8-63.7-84.9c-36.3-20.4-103.5-23.9-174.3-28.3S317.9,300.2,285.5,316.1z"/>
	<path class="st1" d="M271.7,439.9l-2.6,5.4c-11.4-14.4-26.6-25.4-43.9-31.8l34.2,63c6.3,11.6,12.6,23.4,14.9,36.3
		c-6.4-1.8-13.8,2.7-15,9.2c-0.7,3.5,0.2,7,0.5,10.5c0.4,5.1-0.5,10.3-1.4,15.3l-10.4,58.8c-1.2,6.9-2.4,14.2,0.5,20.6
		c0.6,1.3,2.1,6.2,3.5,6.7c3.5,1.5,6.4-3.1,7.6-6.7c8.4-26.4,16.1-56.3,24.5-82.7c2.1-6.6,4.2-13.2,6.2-19.8
		c1.5-4.9,3.2-9.9,3.5-15.1c0.1-3.8-0.5-7.6-1.7-11.3c-1.6-5.8-3.3-11.5-5-17.3c-2.1-7.1-4.5-14.1-7.1-21c-1.3-3.5-2.6-6.9-4-10.3
		C275.5,448.9,271.3,440.3,271.7,439.9z"/>
	<polygon class="st2" points="314.7,583.3 356.2,482.1 360.5,552.2 394.9,485.5 403.6,574.4 388.8,576.2 390.7,507.4 359.1,576.5 
		353.4,577.1 351.3,509.5 331.6,579 	"/>
	<polygon class="st2" points="304.1,608.2 582.8,559 307.3,579.3 	"/>
	<path class="st2" d="M432.5,571.9c-15.9,0-17.7-17.5-16.8-17.6s3.5,14.5,18.5,13c3.7-0.3,7.1-2.2,9.3-5.2
		c6.6-8.6,7.2-24.7,6.4-37.4c-1.4,6.6-2.7,14.9-7.1,19.2c-2.8,2.7-6.8,4.8-10.5,4.7c-4-0.3-7.7-2.2-10.3-5.2
		c-7.6-9.6-1-35.3-0.1-35.1s-3,21,3.6,29.4c1.6,2,4,3.2,6.6,3.2c2.8,0.1,5.4-1,7.3-3c8.6-8.4,9.5-30.2,10.3-30.3s11.7,42.5,0.1,58.4
		c-5.8,7.9-10.4,5.3-14.9,5.7C434.2,571.8,433.3,571.9,432.5,571.9z"/>
	<path class="st2" d="M513.2,505.5c-3.5-2-16.1-1.9-25.8-1.2c-6.5,0.4-21.9,1.8-25.1,5.2c-5,5.4,0.6,15.7,1.2,15.7
		c0.2,0-2.3-7.7,1.1-11.4c1.7-1.8,7.8-3.3,18.3-4.1l4,56.1c0,0.9-9.7,1.6,1.6,1.6c0.9,0,1.6-0.7,1.6-1.6c0,0,0,0,0,0l2-56.4
		c9.7-0.6,16.9-0.3,19.4,1.1c4.2,2.3,1.2,9,2.1,9.4S518.6,508.5,513.2,505.5z"/>
	<path class="st2" d="M527.7,564.4c-0.4,0-0.8-0.1-1.1-0.4c-0.3-0.3-12.3,1.2-6.2,0.4c0,0,4.6-60.6,5.5-60.6s2.7,13.5,2.7,13.5
		c4.3,1.1,8.5,2.7,12.5,4.8c8.8,4.7,13.7,11.3,14.1,19.2s-4.3,14.6-13.5,19c-4.4,2-9,3.4-13.8,4.2L527.7,564.4z M528.7,521l0.7,39.8
		c5.8-1.2,19.8-6.4,19.1-19.9C547.8,527.4,534.4,522.5,528.7,521L528.7,521z"/>
	<path class="st1" d="M201.9,564.9c6,11.9,14.6,22.4,25.1,30.6c-34.8-11.3-71.3-22.8-107.4-16.7l41.4,7.4
		c-19.4,4.1-40,8.8-53.7,23.1c8.9,1.4,17.6-2,26.4-3.9c20.9-4.4,42.6,0.5,62.8,7.2c10.8,3.6,21.4,7.8,32.2,11.4
		c5.5,1.8,11,3.6,16.5,5c2,0.5,10.1,3.8,11.5,1.3c1.2-2-2.4-6.6-3.3-8.1c-2.5-4.2-4.7-8.4-6.9-12.7c-4.6-8.9-10.7-17-18.1-23.8
		C220.5,578,211.2,571.4,201.9,564.9z"/>
	<path class="st3" d="M632.5,447.5c-11.2,23.1-18,48-20.3,73.5c-1-19.3-0.3-25.5-1.4-44.8c0.4-3.3,0.2-20.7-3.3-17.8
		c-3.5,20.7-4.9,41.9-0.3,62.4c-2.2-4.1-4.9-7.9-8.2-11.3c1.7,1.7,2.7,4.9,3.8,7c1.4,2.8,2.8,5.7,4.1,8.6c2.7,6.2,5,12.6,6.9,19.1
		c3.2,11.4,4.4,22.8,5.7,34.5c0.7,5.9,1.2,11.7,1.8,17.6l3.5,35.5c0.5,3.8,0.6,7.6,0.1,11.4c-0.6,3.5-2,6.8-2.8,10.2
		c-1.5,6.9-0.2,14.2,3.5,20.2c3.3,5.1,7.9,5.6,13.5,4.8c5.3-0.7,12.4-1.8,16.1-6c5.2-3.4-4.5-29.9-5.6-35.8
		c-8.1-41.4-11.9-42.1-22.9-83.7c-2.5-9.6-6.2-21.5-10.5-30.3C615.9,496.7,635.5,473.8,632.5,447.5z"/>
	<path class="st3" d="M282.8,549.2c4.9-14,9.9-28.1,11.9-42.8s-14.5-59.4-21.4-72.5c-0.2,18.9,15,66.9,14.8,85.8l-15.5-18.4
		c1.5,10.2,2.9,20.4,4.2,30.6c0.4,3.3,0.8,6.9-1.2,9.6s-7.1,2.9-8-0.3c-0.6,14.2-3,28.2-7,41.8c-4.1,13.9-10,27.8-9,42.2
		c1.4,0.6,2.8,1.2,4.2,1.6c1.4,0.3,1.4,0.2,1.9-1.2c1-2.7,1.7-5.6,2.6-8.3c1.7-5.5,3.5-11.1,5.3-16.7c3.6-11.1,7.2-22.3,11-33.3
		c1-3.1,2.1-6.2,3.1-9.2l1.5-4.5C281.7,552.4,282.8,550.5,282.8,549.2z"/>
	<path class="st1" d="M615.5,510.8c2-8.2,11.8-18.3,23.8-29.7c20.7-34.6,46-73.3,31.3-83c-28.2,29.4-45.7,70.6-62,108.1
		c6.1-26.1,10.6-52.6,13.5-79.3c-17.9,22.8-18.9,54.1-19.2,83.1c-1.7-14.2,4.3-10.5,0.7-24.3c-12.8,52.8,4.3,82-15.2,135.1
		c-16.1,15.4-19.6,34.9-40.7,42.3c-10.3,1-46.7,18.4-17,19.1c-21.2,11.8-35.5,37-62,31.3c-14.7-4-31.7-0.1-45.2-7.9
		c-24.8-15.8-45.3-36.8-69-54.3c-12.9-6.4-27.6-8.4-41.4-12.3c-16.8-6.1-34.6-13.4-53-13c-0.5,0.2-0.9,0.4-1.2,0.8
		c-1.9,6.1-4.2,13.3-6.8,21.2c-5.8,33.2-8.3,96.2-8.6,135.9c33,28,112-5.4,194.9,3.2c103.5,10.7,197.8,41.9,216.4,8.5
		c22-39.3-8-106.5-8.2-139.8C646.4,617.5,608.5,539.7,615.5,510.8z"/>
</g>
<g id="капющон_1_">
	<path class="st1" d="M322.1,377.4c1.3,3.8,2.2,7.9,5,10.8c1.7,1.7,4,2.7,6,4.1c8.3,5.9,10.2,17.2,14.9,26.3
		c4.7,8.9,12.3,15.8,21.5,19.7c7.6,3.2,16.8,4.6,21.2,11.6c0.9,1.5,1.6,3.1,3.1,4.1s3.2,1.1,5,1.2l69,3.1c1.4,0.1,3,0,3.9-1.1
		c0.8-1,0.6-2.4,1.3-3.4c0.8-1.3,2.6-1.5,4.1-1.7l26.8-2.2c2.4-0.2,4.9-0.4,6.9-1.7c1.6-1.2,2.9-2.6,3.9-4.3l18.4-26.3
		c2.8-4,5.7-8.1,9.5-11.3s8.5-5.2,12.9-7.6c18.3-10.1,32-26.7,45.2-42.9c4-4.9,8.1-9.9,10.3-15.9s2.3-13-1.3-18.2
		c-5-7-14.9-8.3-23.4-7c-19.8,3.1-38,16.9-57.8,14c-13.9-2-25.2-12-38.1-17.6c-12.1-5.3-25.5-6.7-38.6-8
		c-22.4-2.3-45.2-4.6-67.4-0.6c-12.2,2.2-24.1,6.2-36.5,6.6c-11.6,0.4-23.2-2.4-34.8-0.3c-6.4,1.1-13.4,2.9-18.4,7.4
		c-4.7,4.2-6.3,10.4-6.6,16.5c-0.2,4.3-0.3,8.9,1.8,12.8c2.5,4.8,7.3,6.3,11.8,8.6C311.3,359.1,318.5,367.4,322.1,377.4z"/>
	<path class="st0" d="M400.5,456.5l56,1.4c0,0,1.7-11.4,10.5-13.9c13-3.6,32.7-1.6,44.6-17.4c7.8-10.4,21.6-47.8,39.9-49.8
		s50.2-25.4,64.7-57.6c8.9-19.7,2.8-39.2-7.3-53c-3.4-4.6-9.4-4.7-13.3-7.9c-3.4-2.8-6.1-9.3-12.7-12.3
		c-17.5-8.1-57.1-21.3-112-21.6c-62.5-0.3-106.1,3.7-128.7,15.1c-15.4,7.8-23.9,18.1-31.6,35.4c-3.6,8-13.2,6.4-16.9,29
		c-3.6,21.9,15.7,48.2,43,68.9c14.3,10.9,12.3,46.5,25.7,56.5c9.2,6.8,23,6.9,31.2,13.3C397.5,445.5,400,449.7,400.5,456.5z"/>
	<path class="st1" d="M412.2,441.1c0.8,1.8,2,3.4,3.5,4.7c2,1.4,4.6,1.6,7,1.7l11.6,0.5c3.3,0.8,6.8-0.9,8.1-4.1l24.9-39.4
		c4.7-7.4,9.4-14.8,12.4-23c1.9-5.2,3.1-10.6,5.7-15.5c4.5-8.2,12.5-13.8,20-19.5c22-16.7,41-36.9,60-57c5.3-5.6,11-13,8.4-20.3
		c-1.3-3.7-4.6-6.4-8.1-8.2c-4.6-2.4-9.7-3.8-14.9-3.9c-5.4-0.1-10.8,1.1-16.2,1.4c-7.4,0.3-14.7-1.2-22.1-2.3
		c-38-5.8-76.7-1.4-114.9,2.9l-31,3.5c-6.7,0.8-14.1,1.9-18.4,7.1c-3.6,4.4-3.8,10.3-2.8,15.7c0.6,2.8,1.7,5.5,2.3,8.3
		c0.3,2.1,1.1,4.2,2.3,6c6.8,10.5-1.4,16.9,3.9,28.3s9.9,24.5,14.2,36.2s22.6,26.5,27.1,38.3s9.3,23.3,14.9,34.6
		C410.8,438.3,411.5,439.7,412.2,441.1z"/>
	<ellipse class="st3" cx="403.2" cy="464.9" rx="4.4" ry="9.6"/>
	<ellipse class="st3" cx="456.9" cy="464.9" rx="4.4" ry="9.6"/>
	<path class="st3" d="M403.8,465.8c-5.4,8.5-1.7,18.8,0.4,27.8c1.4,5.2,1.8,10.5,1.1,15.9c-0.8,5.8-2.4,11.4-2.6,17.2
		c-0.2,6,0.8,12,1.4,18c0.6,6,0.9,12,0.8,18.1c-0.1,6-0.5,11.9-1.1,17.9c-0.6,5.3-1.4,10.7-1.6,16.1c-0.2,5.9,0.4,11.9,2.7,17.4
		c0.6,1.3,1.3,2.5,1.9,3.8s1,2.6,0.3,3.7c-0.5,0.8-0.8,0.6-1.2,0.1c-0.2-0.2,0-0.2,0-0.3c0,0.4-0.3,0.1,0,0.2s0.9,0,1.2,0.6l1.5-1.9
		c-0.9,0.1-1.3-1.8-0.5-2c1.9-0.6,1.1-3.5-0.8-2.9c-4,1.2-3,8.2,1.3,7.9c0.9-0.1,1.9-0.9,1.4-1.9c-0.9-2.1-3.5-3.6-5.7-2.3
		c-1.9,1.1-1.7,3.7-0.3,5.1c1.7,1.7,4.3,1.1,5.6-0.8c1.7-2.3,0.9-5.1-0.3-7.4c-1.3-2.5-2.4-5.2-3.1-7.9c-0.7-2.9-1-5.9-1-8.9
		c0.1-6,0.6-11.9,1.5-17.8c1.6-13.3,1.7-26.8,0.2-40.2c-0.8-6.6-1.6-13.2-0.5-19.9c1-6.3,2.8-12.5,2.5-18.9
		c-0.3-6.2-2.3-12.1-3.7-18.1c-1.3-5.7-1.9-11.8,1.4-17C407.4,465.7,404.8,464.2,403.8,465.8L403.8,465.8z"/>
	<path class="st3" d="M454.3,467.4c2,20.5,3.9,41,4.1,61.6c0,5.1,0,10.1-0.2,15.2c-0.2,5.1-0.6,10.1-0.7,15.1c-0.2,5,0.1,9.9,1,14.8
		c0.9,4.4,2.8,9.2,1.4,13.7c-0.7,2.5-2.3,4.7-2.7,7.4c-0.4,2.6-0.3,5.2,0.1,7.8c0.8,5.6,1.8,11.1,2.6,16.7l1.4-1.9
		c-1.1,0-1.5-2.5-0.4-2.8c1.8-0.6,1-3.5-0.8-2.9c-4.4,1.4-3.4,8.5,1.2,8.7c0.8,0,1.5-0.7,1.5-1.5c0-0.1,0-0.2,0-0.4
		c-0.8-5-1.6-9.9-2.4-14.9c-0.4-2.3-0.6-4.6-0.5-6.9c0.1-2.4,1.2-4.5,2.1-6.7c1.9-4.4,1.1-8.9,0.1-13.4c-1.1-4.8-1.7-9.8-1.8-14.7
		c0-4.9,0.4-9.8,0.6-14.8c0.3-5.1,0.4-10.3,0.4-15.4c0-10.2-0.4-20.4-1.1-30.6c-0.8-11.4-1.9-22.8-3-34.2
		C457.1,465.5,454.1,465.5,454.3,467.4L454.3,467.4z"/>
</g>
<g id="шея_1_">
	<path class="st4" d="M379.6,318c-3.7,7,23.1,45.8,26.9,62.2s9.1,64.9,19.6,64.9s29.2-62.4,34-71.4s32.5-58.7,24.8-67.3
		S386.9,304.4,379.6,318z"/>
</g>
<g id="волосы_сзади_1_">
	<path class="st5" d="M561.6,279.1c-4-7.5-10.4-24.4-14-34.6c2.6-5,4.4-10.4,5.5-15.9c5.4-27.9-2.9-39.8-2.9-39.8s25.2-8.2,9.6-29.8
		c0,0,15.5-25.5-4.4-39.4s-32.3,2.6-32.3,2.6s-3.8-6.2-17.6-4.6c-14.2,1.7-16.1,15-16.1,15s-80.2-10.1-94.9,42.5l0,0
		c0,0-22.9,35.4-30.7,46.7c-15.2,21.9-45.3,38-46.7,49.8c-1.4,11.8,0.7,18,6.4,23.8s22.3,4.2,25.4,0.8c2.6-2.8,32.2-59.7,43.4-92.1
		c5.1,48.8,54,80.2,119.5,71.1l0.6-0.2c7.7,29.2,20.5,61.5,21.9,64.1c1.9,3.6,11.1,3.9,18.8,0.6s4.6-16.2,4.6-16.2s8.5,4.3,15.3,0.5
		s6.9-9.5,7.1-14.5S567.5,290.2,561.6,279.1z"/>
	<path class="st6" d="M522.6,154c5.4,0,11,1.1,15.4,4.2c4.4,3.1,7.4,8.6,6.6,13.9c-0.3,2-0.9,4.6,0.9,5.6c1.4,0.8,4.1,0.7,3.7,2.2
		c-0.3-1.8,2.4-2.8,2.4-4.6c-0.1-0.7-0.4-1.5-0.8-2.1c-1.8-4,3.1-8.3,2.7-12.7c-0.3-3.1-3.2-5.1-5.2-7.5c-3.7-4.3-5.1-10.2-3.7-15.7
		c0.4-1,0.5-2.1,0.5-3.2c-0.5-3.1-5.2-3.8-7.5-1.8c-2.4,2.1-3,5.4-3.5,8.5l-3.6-0.2c-2-3.7-4.3-7.2-7.1-10.4c-0.4-0.5-0.9-0.9-1.5-1
		c-0.5-0.1-0.9,0.3-1,0.8c0,0.1,0,0.2,0,0.4c1.9-4-4.7-3.7-6.6-3.2c-2.4,0.7-6.5,1.8-5.9,5.1c0.6,3,3.9,4.7,6.3,6
		c2.8,1.5,5.1,3.7,6.7,6.5C521.7,145.5,524.5,154,522.6,154z"/>
	<path class="st7" d="M550.9,214.8c-1.3,3.8-3.8,7-7,9.4c2.1-8.8,2.3-17.9,0.7-26.9c-0.8,3.3-2.3,6.3-4.4,9c0.2-9-1.4-17.9-4.8-26.3
		c-1.9,10.1-4.8,19.9-8.6,29.4c-0.4,1.1-1.3,2.3-2.4,1.9l-0.5-4.9c-1,6.4-2.5,12.8-4.4,19c3.3,1.5,7-2.7,10.5-1.8
		c2.7,0.7,3.8,4,4.7,6.7c0.8,2.3,2.6,5.5,5.5,5.2c2.4-0.3,4.3-3.4,5.4-5.3C548.3,225.5,550.1,220.3,550.9,214.8z"/>
	<path class="st6" d="M321.2,270.3l0.8,6.7c4.1-0.9,7.8-3,10.7-5.9c1.7-1.9,3.3-3.9,4.7-6.1l10.1-15c-1.6-1.6-4.3-1.3-6.2-0.1
		s-3.1,3.2-4.5,5c-2.6,3.2-5.8,5.8-9.5,7.6c-2,1-4.2,1.8-5.8,3.3s-2.5,4.2-1.3,6"/>
	<path class="st6" d="M521.3,294.8c0.6,1.1,1.9,1.9,2.1,3.1s-0.5,2.2-0.6,3.4c-0.2,1.8,1,3.4,1.9,4.9c2.6,4.4,3.2,9.7,4.2,14.8
		s2.4,10.4,6.2,13.9s10.5,4.3,13.8,0.3c0.3-0.3,0.6-0.8,0.6-1.3c0-1.1-1.3-1.6-2.2-2.1c-3-1.8-4-5.8-2.1-8.8c0.2-0.4,0.5-0.7,0.8-1
		c-2.9-0.9-4.7-3.6-6.2-6.2c-3.7-6.5-6.7-13.3-8.9-20.4c-0.7-2-1.4-4.3-3.2-5.4C525.1,288.4,519.9,292.1,521.3,294.8z"/>
	<path class="st6" d="M541.1,289.6c0.7,1.2,2.1,1.8,2.9,2.9c1.3,1.8,0.7,4.4,1.2,6.6s2.1,3.9,3.4,5.8c2.7,3.9,4.3,8.5,7.4,12
		s8.8,5.5,12.5,2.6c0.7-0.5,1.2-1.3,1.4-2.2c0.1-1.6-1.3-2.7-2.5-3.8c-4-3.4-6.5-8.3-6.9-13.5c-2.7,0.2-4.8-2.2-6.3-4.4
		c-1.9-2.7-3.7-5.4-5.4-8.3c-1.6-2.8-2.9-6-4.7-8.6c-3.1,0.5-1.9,2.4-2.4,4.8C541.2,285.3,539.9,287.8,541.1,289.6z"/>
</g>
<g id="тено_лицо_1_">
	<path class="st5" d="M418.1,382.5c-31.8-6.9-47.2-27.7-51.8-56.5c-0.1-0.6,1-10.4,1-9.8c1.4,33.6,17.2,49.5,47.7,57.1
		c32.2,8.1,48.3-16.7,67.3-39.9c0.4-0.5,7.9-3.5,8.5-3.3s-1.3,7.6-1.5,8.2c0,0-9.1,22.2-28.8,35.9
		C448.4,382.8,435.5,386.2,418.1,382.5z"/>
</g>
<g id="рукав_2_">
	<path class="st3" d="M260.7,647.2c0,17.6,1.7,35.9-4.9,52.3c-2.7,6.8-6.8,13-10.8,19.1c-20.7,31.5-42.9,64.3-76.1,82
		c-9.2,4.9-19.5,8.6-29.9,7.9c27.2,3.8,32.6,8.6,60.1,8.9c4.7,0,32-2.3,36.4-3.9c7-2.5,21.9-5.4,28.2-9.2
		c11.2-6.8,17.3-12.8,23-24.6c-7.8,2.6-16.4,1.6-23.3-2.8c9-8.2,18.9-18.6,17-30.6c-0.5-3.5-2.1-6.8-3.3-10.2
		c-7.5-21.2,4.7-44.6,6.7-67c1.2-14.1-1.2-29.7-1.8-43.9c-0.4-9.1,6.3-40.8,6.4-45.5c0.2-12.4-9.4-113.3-13.4-4
		c-0.1,1.9-4.1,2.9-4.8,4c-2,3.1-2.5,6.8-3.3,10.4C262.7,608.9,260.7,628.1,260.7,647.2L260.7,647.2z"/>
	<path class="st0" d="M66.6,776.7c22,23.9,93.6,52.7,140.3,22.1s48-48,53-61.9s10.5-47.6,10.2-66.8s-2.9-53.9,1-65.5
		s12.1-48.9,5.3-59.7s10.9-14.3,11.7-34.7s-31.1-47.3-50-60.5s-59.9-34.9-74.5-21.5s-11.2,26.8-15.6,31.6s-32.6,31-38.4,49.4
		c-5.8,18.4-20,51.3-24.7,67.5S51.3,620,47.7,644S17.1,722.9,66.6,776.7z"/>
	<path class="st3" d="M206.1,494c2.1,4,3.5,8.4,6.1,12.1c7.9,11.1,23.8,11.8,37.5,11.5c9.5-0.2,15.2-5.5,24.6-5.7
		c-2.1-21.1-16.5-31.8-34.6-42.9c-17.3-10.5-35.6-19.5-54.6-26.6c-3.5-1.4-7.3-2.7-10.9-1.5c-10.4,3.2-1.3,17.5,2.7,22.2
		c5.9,7,13.4,12.5,19.9,18.9C200.4,485.5,203.5,489.5,206.1,494z"/>
	<path class="st1" d="M164.2,495.4c5.2,10.8,11.5,22.1,22.2,27.7c14.2,7.5,32.8,3.1,46.6,11.4c4.4,2.6,8,6.4,12.3,9.1
		c4.3,2.7,9.9,4.3,14.5,2c-3.7,9.7-9.5,21.1-19.9,21.3c-11.3,0.3-17.6-12.8-26.9-19.1c-8.6-5.9-19.9-6-29.5-10.2
		c-12-5.4-20.2-17.1-24.4-29.6c-2.9-8.8-4.1-18.1-4.8-27.3c-0.1-1.4-1.3-12.1,0.7-11.3c0.8,0.3,1.1,4.6,1.3,5.6
		c0.5,2.2,1.2,4.5,1.9,6.6C160,486.2,161.9,490.8,164.2,495.4z"/>
</g>
<g id="рукав-2">
	<path class="st3" d="M610,572.3c-1.6,6.7-0.9,13.7-0.1,20.5c3.2,29.3,6.3,58.6,9.5,87.9c1.2,10.7,2.4,21.3,4.3,31.9
		c0.7,3.8,1.1,7.6,3.1,10.9c1.8,3.4,2.8,7,3.1,10.8c0.9,7.8-0.8,15.7-4.7,22.4c-1.9,3.2-4.4,6.7-3.3,10.3c1.5,4.8,8.9,6.2,9.5,11.2
		c-3.5,3.4-3,9.4-0.2,13.3s21.2,17,25.7,18.9c25.5,11.2,39.9,8.5,67.7,6.9c9.7-0.6,26.6-3.7,30.1-15.4c3.1-10.4-7.6-22.1-13.3-29.7
		c-15.2-20.2-33.5-37.8-48.5-58.1c-5.5-7.3-10.3-15.1-14.5-23.3c-5.5-11-9.6-23.2-18.4-31.8c-7-6.8-16.8-11.5-20.2-20.6
		c-2.5-6.8-0.7-14.3-0.3-21.5c0.6-10.8-1.9-21.5-5.8-31.5c-2-5.1-4.3-10.1-6.8-15c-1.5-2.9-4.2-10.7-8.4-10.7
		C613.9,560,610.8,568.8,610,572.3z"/>
	<path class="st0" d="M844.7,784c-19.1,27.9-84.7,42-134.7,15.4s-53.8-61.1-60.3-75.1s-23.7-38.8-25.7-59s-3.5-57.1-8.7-68.8
		s-7-26-1.5-38.1s-12.5-13.8-15.7-35.1c-3.2-21.3,25.3-53.5,42.5-69.7s55.3-44,71.4-31.5s14.3,26.9,19.2,31.4s31.6,15.4,39.6,34.2
		s25.6,71.7,32.2,88.2s38.5,41.4,45,66.2S887.5,721.4,844.7,784z"/>
	<path class="st1" d="M859.3,663.7c10.5,40.3,11,88.5-18.3,121c2.9-19.7,7.1-39.1,12.7-58.2c-7.6,11.9-8,27.8-17.5,38.2
		c-13.1,11.7-28.7,20.6-42.7,31.1c9-22.1,21.2-42.7,36.2-61.1c-2.9,4.5-6.9,8.1-11.6,10.5c-1.9-79.4,36.5-49.8,4.3-143.2
		C837.5,617.1,854.8,637.8,859.3,663.7z"/>
	<path class="st3" d="M702.1,433.5c-3.9,0.8-7.2,3.2-10.4,5.6l-30,22.3c-13.8,10.2-27.7,20.6-37.9,34.4c-4.9,6.6-9,14.6-8,22.9
		c0.5,5.1,3.3,9.8,7.5,12.7c4.4,2.9,10,3.1,14.6,0.6c4.7-2.8,7-8.1,9.4-13c7.6-14.8,19.2-27.2,33.4-35.8c4.2-2.5,8.7-4.8,11.8-8.6
		c1.4-2,2.7-4.1,3.7-6.4l11.3-23.5c1-2.1,3.8-5.8,3.2-8.3C709.9,433.1,704.6,433,702.1,433.5z"/>
	<path class="st1" d="M709.5,503.5c-3.7,2.6-7.9,4.8-10.1,8.7c-1.2,2.2-1.9,4.8-3.8,6.4s-4.9,1.6-7.4,2.1c-10.2,1.9-16.4,12-21.6,21
		s-12.3,18.7-22.6,19.3c-2.4,0.1-5-0.2-7.1,1c-3.8,2.2-3.4,7.7-3.3,12.2c0.1,7.6-1.3,17.4,5.6,20.5c5.3,2.4,11.3-1.8,14.6-6.5
		s5.8-10.5,10.7-13.5c4.8-2.9,10.7-2.5,16-4c11.7-3.2,19.2-14.3,25.6-24.7l31.1-50.3c2.4-4,5.2-8.6,3.5-13.4
		c-0.9-2.9-3.7-4.9-6.7-4.8c-3.1,0.2-5.8,2-7.2,4.8c-2.2,3.9-3.9,7.8-6.7,11.3C717,497.3,713.4,500.7,709.5,503.5z"/>
	<path class="st3" d="M854,663.7c2.8,12.2,6.9,24.2,8.3,36.6s0.1,25.8-7,36.1l3.2-46.1c-7.1,18.2-15,36-23.7,53.5
		c-0.4-27.1,21.9-52.1,16.5-78.6c-2.1-10.3-8-19.5-9.8-30c-0.3-2-1.1-5.5-0.3-7.4c0.9-2.1,2.7,0,3.4,1.3c2.6,4.8,4,10.6,5.3,15.9
		C851.5,651.1,852.6,657.4,854,663.7z"/>
</g>
<g id="рука_2_">
	<path class="st4" d="M143.8,362.8c-3.6,1.7-18.8,16.3-18.2,20.2c1.2,6.6,30.5,33.9,42.1,48.8c14.7,18.4,34.8,29.2,59.1,29.4
		c23.8-1.1,52.4-7.6,44-35.7c-13.5-35.1-37.4-68.4-71.1-86.1C179.9,329.8,154.7,345.3,143.8,362.8z"/>
	<path class="st4" d="M196.4,321.1c-2.4-3.9-5-7.9-8.9-10.4s-9.3-3.2-12.9-0.3c-2.4,2-3.8,5-3.9,8.1c-0.1,3.1,0.4,6.2,1.3,9.1
		c1.6,5.5,3.6,11,6,16.2c3.3,7,8.4,14.3,16,15.2c3.2,0.3,6.5-0.5,9.2-2.2c3.3-1.9,5.6-5.1,6.4-8.8
		C210.6,341.8,201,328.7,196.4,321.1z"/>
	<path class="st4" d="M169.1,413.8c-12.1-2.5-30.7,3.7-19.5,17.1c11.4,8.5,39.9,26,49.5,13.2C210.3,429.2,184.7,417.1,169.1,413.8z"
		/>
	<path class="st4" d="M189,322.3c1.7-3.8,1.5-8.5-1.1-11.8c-1.3-1.5-2.9-2.8-4.7-3.6c-1.2-0.6-2.5-1.1-3.9-1.4
		c-3.9-0.6-7.8,0.9-10.2,4c-2.4,3.1-3.2,7.1-2.2,10.9c1.1,4.2,4,7.8,8,9.6c1.6,0.7,3.4,1,5.2,0.7c1.4-0.5,2.8-1.2,3.9-2.3
		C186.2,326.8,187.9,324.7,189,322.3z"/>
	<path class="st4" d="M182.9,298.2c-4.5-10.4-10.5-20.8-20.3-26.5c-3.2-1.8-7.4-3-10.4-0.9c-1.9,1.5-2.9,3.9-2.8,6.3
		c0.1,2.4,0.6,4.8,1.6,7c3.7,10.4,8.3,20.4,13.8,29.9c2.7,4.6,6.1,9.5,11.3,10.6c2.3,0.4,4.8,0.1,6.8-1.1c1.5-0.8,3.3-2,4.1-3.6
		s0.6-3.8,0.5-5.5c-0.2-2.6-0.6-5.2-1.4-7.7C185.2,303.8,184.1,301,182.9,298.2z"/>
	<path class="st4" d="M147.1,405c-8.1-4.9-17.4-9.3-27.7-8.6c-3.4,0.2-7.2,1.3-8.7,4.1c-0.8,1.8-0.6,3.9,0.5,5.5
		c1.2,1.6,2.6,2.9,4.3,4c7.6,5.4,15.6,10,24,13.9c4.1,1.9,9,3.7,13.6,2c2-0.7,3.7-2,4.9-3.8c0.8-1.2,1.8-2.8,1.6-4.3s-1.2-2.8-2-4
		c-1.3-1.7-2.8-3.3-4.5-4.6C151.4,407.6,149.3,406.2,147.1,405z"/>
	<path class="st5" d="M161.5,278.3c-1.4-3.2-3.1-6.5-6.2-8.2c-1.2-0.7-2.6-1-3.9-0.8c-1.4,0.2-2.5,1.2-2.9,2.5
		c-0.2,0.7-0.2,1.5-0.1,2.2c0.5,5.3,2.5,10.3,5.8,14.5c1.4,1.6,3.4,3.9,5.7,3.3c2-0.4,3.2-2.5,3.6-4.3
		C164.3,284.4,162.8,281.1,161.5,278.3z"/>
	<path class="st5" d="M114,402.4c-2.6-1.6-5.4-3.1-7.1-2.9c-0.7,0-1.2,0.6-1.2,1.2c0,0,0,0,0,0c0.1,1.1,0.7,2.2,1.5,3.1
		c0.5,0.6,1.1,1.1,1.7,1.6c4,3.4,8.3,6.2,11.8,7.4c1.4,0.5,3.4,1.2,3.4-0.3c0-1.2-1.4-3.2-2.8-4.6
		C119.2,405.8,116.7,403.9,114,402.4z"/>
	<path class="st4" d="M152.5,300.8c-5.7-10.9-25.6-15-24.5,1.6c3.7,13.5,15.9,36.2,27.9,36.1C175.1,338.3,164.3,313.2,152.5,300.8z"
		/>
	<path class="st4" d="M126,300.5c-5.7-10.9-25.6-15-24.5,1.7c3.7,13.5,15.9,36.2,27.9,36.1C148.7,338,137.8,312.9,126,300.5z"/>
	<path class="st4" d="M146.6,303.9c6.1-11.8-11.8-23.2-19.8-12.8C116.2,304.9,139.3,322.4,146.6,303.9z"/>
	<path class="st4" d="M165,332.6c1.7-3.8,1.5-8.5-1.1-11.8c-2.3-2.5-5.3-4.3-8.6-5c-3.9-0.6-7.8,0.9-10.2,4
		c-2.4,3.1-3.2,7.1-2.2,10.9c1.1,4.2,4,7.8,8,9.6c1.6,0.7,3.4,1,5.2,0.7c1.4-0.5,2.8-1.2,3.9-2.3C162.2,337.1,163.9,335,165,332.6z"
		/>
	<path class="st4" d="M168.5,326.3c-5.7-10.9-25.6-15-24.5,1.6c3.7,13.5,15.9,36.2,27.9,36.1C191.2,363.8,180.3,338.7,168.5,326.3z"
		/>
	<path class="st4" d="M140.6,286.1c-4.5-10.4-10.2-22.4-20.5-27c-25.8-11.4,0.8,45.7,12.8,47.7C149.2,308.7,145.4,295.2,140.6,286.1
		z"/>
	<path class="st5" d="M119,265.6c-1.4-3.2-3.1-6.5-6.2-8.2c-1.2-0.7-2.6-1-3.9-0.8c-1.4,0.2-2.5,1.2-2.9,2.5
		c-0.2,0.7-0.2,1.5-0.1,2.2c0.5,5.3,2.5,10.3,5.8,14.5c1.4,1.6,3.4,3.9,5.7,3.3c2-0.5,3.2-2.5,3.6-4.3
		C121.8,271.8,120.3,268.5,119,265.6z"/>
	<path class="st4" d="M122.8,333.8c-5.7-10.9-25.6-15-24.5,1.6c3.7,13.5,15.9,36.2,27.9,36.1C145.5,371.3,134.7,346.2,122.8,333.8z"
		/>
	<path class="st4" d="M117,336.9c6.1-11.8-11.8-23.2-19.8-12.8C86.6,337.9,109.7,355.4,117,336.9z"/>
	<path class="st4" d="M162.1,423.7c6.1-11.8-11.8-23.2-19.8-12.8C131.6,424.7,154.8,442.1,162.1,423.7z"/>
	<path class="st4" d="M138.9,359.3c-5.7-10.9-25.6-15-24.5,1.6c3.7,13.5,15.9,36.2,27.9,36.1C161.6,396.8,150.7,371.7,138.9,359.3z"
		/>
	<path class="st4" d="M111,319.1c-4.5-10.4-10.2-22.4-20.5-27c-25.8-11.4,0.8,45.7,12.8,47.7C119.5,341.7,115.7,328.2,111,319.1z"/>
	<path class="st5" d="M89.5,298.6c-1.4-3.2-3.1-6.5-6.2-8.2c-1.2-0.7-2.6-1-3.9-0.8c-1.4,0.2-2.5,1.2-2.9,2.5
		c-0.1,0.7-0.1,1.5,0,2.2c0.5,5.3,2.5,10.3,5.8,14.5c1.4,1.6,3.3,3.9,5.7,3.3c2-0.5,3.2-2.5,3.6-4.3
		C92.2,304.8,90.7,301.5,89.5,298.6z"/>
	<path class="st4" d="M142,326.1c-5.7-10.9-25.5-15-24.5,1.6c3.7,13.5,25.5,47.7,37.6,47.6C174.4,375,153.9,338.5,142,326.1z"/>
	<path class="st4" d="M120.1,303.7c6-11.8-11.8-23.2-19.8-12.8C89.7,304.7,112.8,322.2,120.1,303.7z"/>
	<path class="st4" d="M138.5,332.4c1.7-3.8,1.5-8.5-1.1-11.8c-1.3-1.5-2.9-2.8-4.7-3.6c-1.2-0.7-2.5-1.1-3.9-1.4
		c-3.9-0.6-7.8,0.9-10.2,4c-2.4,3.1-3.2,7.1-2.2,10.9c1.1,4.2,4,7.8,8,9.6c1.6,0.7,3.4,1,5.2,0.7c1.4-0.5,2.8-1.2,3.9-2.3
		C135.7,336.9,137.4,334.8,138.5,332.4z"/>
	<path class="st4" d="M114.2,285.8c-4.5-10.4-10.2-22.4-20.5-27c-25.8-11.4,0.8,45.7,12.8,47.7C122.7,308.4,118.9,295,114.2,285.8z"
		/>
	<path class="st5" d="M92.6,265.4c-1.4-3.2-3.1-6.5-6.2-8.2c-1.2-0.7-2.6-1-3.9-0.8c-1.4,0.2-2.5,1.2-2.9,2.5
		c-0.1,0.7-0.1,1.5,0,2.2c0.5,5.3,2.5,10.3,5.8,14.5c1.4,1.6,3.3,3.9,5.7,3.3c2-0.4,3.2-2.5,3.6-4.3
		C95.3,271.5,93.8,268.2,92.6,265.4z"/>
	<path class="st8" d="M172,332.4c-1.5,0.5-1.4,2.6-0.9,4c2.1,6.5,5.4,12.5,9.8,17.7c0.6,0.7,3.4,3.2,3.8,1c0.3-1.3-2.5-3.8-3.2-4.8
		c-2.6-3.5-4.8-7.3-6.7-11.3C174.6,338.5,171.9,332.4,172,332.4z"/>
	<path class="st8" d="M142.1,331.1c7.7,10.5,14.8,22,16.9,34.8c-2.2,0.4-3.8-1.9-4.9-3.8c-6.6-11.8-14.1-23.1-22.4-33.8
		c-2.4-3-4.8-6.1-6.9-9.3c-1.1-1.6-2-3.3-2.9-5c-0.6-1.2-1.9-3.4-1.7-4.8c0.4-2.7,4.7-1.2,5.9,0c1.4,1.4,2.3,3.4,3.4,5
		c1.2,1.8,2.5,3.5,3.8,5.3C136.3,323.3,139.3,327.2,142.1,331.1z"/>
	<path class="st8" d="M137.7,368.4c1.8,3.7,3,8.7-0.1,11.4c-5.5-17.4-50.2-61.6-39.4-69.5C112,335.6,124,342.2,137.7,368.4z"/>
	<path class="st4" d="M271.1,450.2c-0.7,6-1.8,11.9-3.4,17.6c-3,12.1-6.3,24-9.9,35.9c-1.3,4.3-12.6,26.1-16.2,29
		c-0.6,0.5-26.9-8.2-37-15.3c-12.7-8.9-26.2-19-30.3-33.9c-1.1-4.1,10.7-31.9,12.5-35.7c1.5-2.8,3.7-5.2,6.4-6.9
		c13.1-9.3,30.2-11.2,46.2-9.2c7.3,0.9,14.4,2.1,21.8,1.4c4.3-0.5,9,0,9.9,5C271.9,442,271.5,446.3,271.1,450.2z"/>
	<path class="st8" d="M245.8,437.2c9.1,3.4-8.4,9.3-12.5,8.3c5.2,1.4,10,3.9,14.1,7.4c0.9,0.8,1,2.2,0.2,3.1c-0.4,0.5-1,0.8-1.7,0.8
		c-34-0.3-56.7-3.5-56.6-8.1C189.5,444.4,209,438.7,245.8,437.2z"/>
</g>
<g id="рука-2">
	<path class="st4" d="M735.6,351.1c3.7,1.3,20.5,14.2,20.3,18.1c-0.4,6.7-26.5,37.1-36.5,53.1c-12.6,19.9-31.3,32.9-55.5,35.7
		c-23.8,1.6-52.9-1.8-47.7-30.6c9.5-36.4,29.6-72.1,61.2-93.4C696.1,322.3,722.9,335,735.6,351.1z"/>
	<path class="st4" d="M678.8,315.5c2-4.2,4.1-8.4,7.7-11.3s8.9-4.2,12.8-1.8c2.6,1.8,4.3,4.5,4.8,7.6c0.4,3.1,0.3,6.2-0.3,9.2
		c-0.9,5.7-2.3,11.3-4.2,16.7c-2.5,7.3-6.8,15.2-14.3,16.9c-3.2,0.7-6.5,0.2-9.4-1.2c-3.5-1.5-6.1-4.4-7.3-8
		C666.9,337.6,675,323.5,678.8,315.5z"/>
	<path class="st4" d="M716.1,404.6c11.8-3.8,30.9,0.3,21.2,14.8c-10.4,9.7-36.8,30.2-47.8,18.6C676.8,424.4,700.9,409.6,716.1,404.6
		z"/>
	<path class="st4" d="M686.2,315.9c-2.1-3.6-2.4-8.3-0.2-11.8c1.1-1.7,2.6-3.1,4.3-4.1c1.1-0.8,2.4-1.4,3.7-1.8
		c3.8-1,7.8,0.1,10.6,2.8c2.7,2.8,3.9,6.7,3.4,10.5c-0.6,4.3-3.2,8.2-6.9,10.4c-1.6,0.9-3.3,1.3-5.1,1.3c-1.5-0.3-2.9-0.9-4.1-1.9
		C689.5,320,687.6,318.1,686.2,315.9z"/>
	<path class="st4" d="M689.6,291.2c3.3-10.8,8.1-21.9,17.2-28.5c3-2.2,7.1-3.8,10.3-2c2,1.3,3.3,3.5,3.5,5.9
		c0.1,2.4-0.1,4.8-0.8,7.1c-2.5,10.7-6,21.2-10.4,31.3c-2.1,4.9-5,10.1-10.1,11.8c-2.3,0.7-4.7,0.6-6.9-0.3
		c-1.6-0.7-3.5-1.6-4.5-3.2s-1-3.7-1.1-5.5c-0.1-2.6,0-5.3,0.5-7.8C688,297,688.7,294.1,689.6,291.2z"/>
	<path class="st4" d="M737,393.4c7.5-5.8,16.3-11.1,26.6-11.6c3.3-0.2,7.3,0.5,9.1,3.1c1,1.7,1,3.8,0.1,5.5c-1,1.7-2.3,3.2-3.8,4.4
		c-6.9,6.2-14.4,11.7-22.4,16.5c-3.9,2.4-8.5,4.6-13.3,3.5c-2.1-0.5-3.9-1.6-5.3-3.2c-1-1.1-2.1-2.6-2.1-4.1s0.8-2.9,1.6-4.2
		c1.1-1.8,2.4-3.5,3.9-5C733,396.6,734.9,394.9,737,393.4z"/>
	<path class="st5" d="M708.7,269.1c1-3.3,2.4-6.8,5.2-8.8c1.1-0.8,2.4-1.2,3.8-1.2c1.4,0.1,2.6,0.9,3.2,2.2c0.2,0.7,0.4,1.5,0.3,2.2
		c0.1,5.3-1.4,10.6-4.2,15.1c-1.2,1.8-2.9,4.2-5.3,4c-2-0.2-3.4-2.1-4-3.9C706.6,275.4,707.8,272,708.7,269.1z"/>
	<path class="st5" d="M769.6,387.2c2.4-1.9,5-3.7,6.8-3.7c0.6-0.1,1.2,0.4,1.3,1.1c0,0,0,0,0,0c0,1.2-0.4,2.3-1.1,3.2
		c-0.5,0.6-1,1.2-1.5,1.8c-3.6,3.8-7.5,7-10.9,8.7c-1.4,0.7-3.3,1.5-3.4,0.1c-0.1-1.2,1.1-3.3,2.2-4.9
		C764.8,391.1,767.1,389,769.6,387.2z"/>
	<path class="st4" d="M720.2,290.4c4.5-11.5,23.7-17.8,24.5-1.1c-2.2,13.9-11.8,37.8-23.8,38.9C701.8,330.2,709.8,304,720.2,290.4z"
		/>
	<path class="st4" d="M746.5,287.3c4.5-11.5,23.7-17.8,24.5-1.1c-2.2,13.9-11.8,37.8-23.8,38.9C728,327,736.1,300.9,746.5,287.3z"/>
	<path class="st4" d="M726.4,292.9c-7.3-11,9.1-24.4,18.3-14.9C756.7,290.6,735.6,310.4,726.4,292.9z"/>
	<path class="st4" d="M711.2,323.4c-2.1-3.6-2.4-8.3-0.2-11.8c2-2.8,4.8-4.9,8-6c3.7-1,7.7,0.1,10.5,2.8c2.7,2.8,3.9,6.7,3.4,10.6
		c-0.6,4.3-3.2,8.2-6.9,10.4c-1.6,0.9-3.3,1.3-5.1,1.3c-1.5-0.3-2.9-0.9-4.1-1.8C714.5,327.6,712.6,325.7,711.2,323.4z"/>
	<path class="st4" d="M707.1,317.5c4.5-11.5,23.7-17.8,24.5-1.1c-2.2,13.9-11.8,37.8-23.8,38.9C688.6,357.3,696.6,331.2,707.1,317.5
		z"/>
	<path class="st4" d="M730.3,274.5c3.3-10.8,7.7-23.4,17.4-29.1c24.4-14.2,4.3,45.5-7.5,48.8C724.3,297.9,726.6,284.1,730.3,274.5z"
		/>
	<path class="st5" d="M749.5,251.8c1-3.3,2.4-6.8,5.2-8.8c1.1-0.8,2.4-1.2,3.8-1.2c1.4,0.1,2.6,0.9,3.2,2.2c0.2,0.7,0.3,1.5,0.3,2.2
		c0.1,5.3-1.4,10.6-4.2,15.1c-1.2,1.8-2.9,4.2-5.3,3.9c-2-0.2-3.4-2.1-4-3.9C747.5,258.2,748.6,254.8,749.5,251.8z"/>
	<path class="st4" d="M753.3,319.9c4.5-11.5,23.7-17.8,24.5-1.1c-2.2,13.9-11.8,37.8-23.8,38.9C734.8,359.7,742.9,333.6,753.3,319.9
		z"/>
	<path class="st4" d="M759.5,322.4c-7.3-11,9.1-24.4,18.3-14.9C789.8,320.1,768.7,340,759.5,322.4z"/>
	<path class="st4" d="M724.2,413.6c-7.3-11,9.1-24.4,18.3-14.9C754.5,411.3,733.5,431.2,724.2,413.6z"/>
	<path class="st4" d="M740.1,347.1c4.5-11.5,23.7-17.8,24.5-1.1c-2.2,13.9-11.8,37.8-23.8,38.9C721.7,386.8,729.7,360.7,740.1,347.1
		z"/>
	<path class="st4" d="M763.4,304c3.3-10.8,7.7-23.4,17.4-29.1c24.4-14.2,4.3,45.5-7.5,48.8C757.4,327.4,759.7,313.6,763.4,304z"/>
	<path class="st5" d="M782.6,281.3c1-3.3,2.4-6.8,5.2-8.8c1.1-0.8,2.4-1.2,3.8-1.2c1.4,0.1,2.6,0.9,3.2,2.2c0.2,0.7,0.3,1.5,0.3,2.2
		c0.1,5.3-1.4,10.6-4.2,15.1c-1.2,1.8-2.9,4.2-5.3,4c-2-0.2-3.4-2.1-4-3.9C780.5,287.7,781.7,284.3,782.6,281.3z"/>
	<path class="st4" d="M733.3,314.4c4.5-11.5,23.8-17.8,24.6-1.1c-2.2,13.9-20.1,50.3-32.1,51.4C706.6,366.7,722.9,328,733.3,314.4z"
		/>
	<path class="st4" d="M752.6,289.7c-7.3-11,9.1-24.4,18.3-14.9C783,287.4,761.9,307.3,752.6,289.7z"/>
	<path class="st4" d="M737.5,320.3c-2.1-3.6-2.4-8.3-0.2-11.8c2-2.8,4.8-4.8,8-6c3.8-1,7.8,0,10.6,2.8c2.7,2.8,3.9,6.7,3.4,10.6
		c-0.6,4.3-3.2,8.2-6.9,10.4c-1.6,0.9-3.3,1.3-5.1,1.3c-1.5-0.3-2.9-0.9-4.1-1.9C740.8,324.5,738.8,322.6,737.5,320.3z"/>
	<path class="st4" d="M756.6,271.4c3.3-10.8,7.7-23.4,17.4-29.1c24.4-14.2,4.3,45.4-7.5,48.8C750.6,294.8,752.9,280.9,756.6,271.4z"
		/>
	<path class="st5" d="M775.8,248.7c1-3.3,2.4-6.8,5.2-8.8c1.1-0.8,2.4-1.2,3.8-1.2c1.4,0.1,2.6,0.9,3.2,2.2c0.2,0.7,0.3,1.5,0.3,2.2
		c0.1,5.3-1.4,10.6-4.2,15.1c-1.2,1.8-2.9,4.2-5.3,3.9c-2-0.2-3.4-2.1-4-3.9C773.7,255.1,774.9,251.6,775.8,248.7z"/>
	<path class="st8" d="M704.2,324c1.5,0.3,1.6,2.4,1.3,3.9c-1.3,6.7-4,13-7.8,18.6c-0.5,0.8-3,3.6-3.7,1.5c-0.4-1.2,2.1-4,2.7-5.1
		c2.2-3.8,4-7.8,5.4-11.9C702.4,330.4,704.3,324,704.2,324z"/>
	<path class="st8" d="M733.8,319.4c-6.5,11.3-12.3,23.5-13,36.5c2.2,0.1,3.6-2.3,4.5-4.4c5.2-12.5,11.4-24.6,18.6-36.1
		c2-3.3,4.1-6.6,5.8-10c0.9-1.7,1.6-3.5,2.3-5.3c0.5-1.3,1.5-3.6,1.2-5c-0.7-2.6-4.8-0.7-5.9,0.6c-1.2,1.5-1.9,3.7-2.9,5.4
		c-1,1.9-2.1,3.8-3.2,5.7C738.7,311,736.2,315.2,733.8,319.4z"/>
	<path class="st8" d="M742.3,356c-1.3,3.9-2,9,1.3,11.3c3.5-17.9,43.1-66.8,31.5-73.5C764.2,320.5,753,328.5,742.3,356z"/>
	<path class="st4" d="M618.8,452c1.4,5.8,3.1,11.6,5.3,17.2c4.3,11.7,8.9,23.2,13.8,34.6c1.8,4.1,11.8,19.6,15.6,22
		c0.7,0.4,53.5-49.4,56-64.7c0.7-4.2-5-17.2-7.3-20.8c-1.8-2.6-4.3-4.7-7.2-6.1c-14-7.8-31.3-7.8-46.9-4c-7.2,1.7-14.1,3.7-21.5,3.8
		c-4.3,0-9,1-9.3,6.1C617,443.9,618,448.2,618.8,452z"/>
	<path class="st8" d="M642.5,436.3c-8.7,4.4,9.4,8.3,13.3,6.8c-5,2-9.5,5-13.2,8.9c-0.8,0.9-0.8,2.3,0.1,3.1
		c0.5,0.4,1.1,0.6,1.7,0.6c33.7-4,56-9.7,55.4-14.3C699.3,437.2,679.2,433.7,642.5,436.3z"/>
	<path class="st0" d="M643.7,525.8c0,0,18.1-32.1,31.3-42.3s34.5-42.5,34.5-42.5l12.9,20.9L681.5,519l-32.8,22L643.7,525.8z"/>
</g>
<g id="Layer_32">
	<path class="st0" d="M174,459.3c0,0,25.7,20.8,31.2,31.5s28.2,30.9,49.4,26.9l-4.2,24.6l-19.6-9.6l-35-11.2l-21.5-21.8l-9.1-25.2
		L174,459.3z"/>
</g>
<g id="лицо_1_">
	<path class="st4" d="M370.9,260.8c0,0-8,28.8-7,51.2c0.6,14.9,6.8,58.6,46.5,67.1c35.1,7.6,62.1-15.3,73.9-46.9
		c6.3-17,8.8-41,8.8-41s45.8-7.2,43.6-41.8c-1.7-27.3-35.1-16.4-35.1-16.4s7.8-54.6-45.6-65.1c-47.8-9.4-65.1,39.8-65.1,39.8
		s-18.8-23.6-34.8-10.2C337.8,212.7,346.1,245.9,370.9,260.8z"/>
	<path class="st5" d="M514.1,251.5c-5.2,1.9-10.9,6.8-16.7,18l0,0c0,0,0,0.1,0,0.1c-0.6,1.2-1.2,2.4-1.8,3.7c-0.2,0.6,0,1.2,0.6,1.4
		l0.2,0.1c0.5,0.1,1-0.2,1.2-0.6c0.5-1.2,1.1-2.4,1.7-3.5c6.7-9.5,17.2-3.9,17.5-4.4c0.3-0.5-5.1-7-11.7-3.5
		c10.4-14.3,22.7-10.6,22.9-11.1S520.5,249.1,514.1,251.5z"/>
	<path class="st5" d="M377.7,240.1c3.6-25.4-20.2-29.5-20.4-28.9s13.9,3.5,17.4,20.8c-6.5-8.1-14.9-3.1-14.8-2.5s13.4-0.7,15.6,10.8
		c0.4,2.7,0.4,4.9,0.9,5C376.5,245.4,377,245,377.7,240.1z"/>
</g>
<g id="рот_4_">
	<path class="st8" d="M390.3,315.7c0,0,10.5,7.7,13.5,10.5s8.5,6.8,11.8,7.4s11.9-2.4,14.7-2.8s19.1-3.6,19.1-3.6l-20.7-7
		c-2.5-0.8-5.2-0.8-7.6,0.1l-4.9,1.9l-3.3-3.6c-2.3-2.5-5.5-3.8-8.9-3.6L390.3,315.7z"/>
</g>
<g id="рот-2">
	<path class="st5" d="M440,342.4c-0.4-0.8-1.3-1.1-2.2-0.8c-0.1,0-13.6,5-24.5,2.2S394.6,332,394.6,332c-0.5-0.7-1.5-1-2.2-0.6
		c-0.4,0.2-0.7,0.6-0.8,1c-0.1,0.4,0,0.9,0.2,1.2c0.8,1.2,7.8,11.9,20.6,14.6c2.9,0.6,5.9,1,8.9,1c6.2,0,12.3-1.5,17.8-4.5l0.2-0.1
		c0.4-0.2,0.7-0.5,0.9-0.9C440.2,343.3,440.2,342.8,440,342.4z"/>
</g>
<g id="рот-3">
	<path class="st5" d="M447.8,322.4L447.8,322.4c-0.7-0.5-1.7-0.4-2.3,0.2c-0.3,0.3-0.4,0.8-0.3,1.2c0.1,0.4,0.3,0.8,0.6,1.1
		c0.6,0.6,1.1,1.4,1.4,2.2l-2.4,0.3c-4.9,0.5-13.1,1.4-15,1.6c-0.2,0-0.7,0.1-1.6,0.4c-3,0.7-9.9,2.2-12.1,1.8
		c-2.5-0.5-6.9-3.3-10.2-6.5c-2.4-2.3-9.8-7.1-13.1-9.2c1.3-1,2.4-1.7,2.5-1.8c0.5-0.4,0.9-0.9,1-1.5c0.1-0.3,0-0.7-0.2-1
		c-0.5-0.7-1.5-0.9-2.3-0.5c-0.3,0.2-7.2,4.4-8.9,9c-0.1,0.4-0.1,0.8,0.1,1.2c0.2,0.4,0.6,0.7,1,0.9c0.1,0,0.2,0.1,0.4,0.1
		c0.7,0.1,1.5-0.3,1.7-1c0.5-1.2,1.3-2.3,2.2-3.2c3.5,2.2,11,7.1,13.3,9.3l0.2,0.2c2.9,2.8,7.7,7.4,11.4,8.2l0.1-0.5l0.1,0.5
		c0.4,0.1,0.7,0.1,1.1,0.1c3.1,0,8.9-1.7,12.1-2.7c0.8-0.2,1.6-0.5,1.7-0.5c1.5-0.2,6.6-0.7,11.2-1.2c2.9-0.3,5.4-0.6,6.6-0.7
		c0.2,1.1,0.2,2.3,0.2,3.4c0,0.8,0.6,1.4,1.3,1.6h0.3c0.4,0,0.9-0.1,1.2-0.5c0.3-0.3,0.5-0.7,0.5-1.1
		C451.6,325.3,447.9,322.5,447.8,322.4z"/>
</g>
<g id="рот-4">
	<path class="st5" d="M415.9,323.4c-4.6-1-7.6-6.2-7.8-6.4c-0.3-0.5-0.2-1.1,0.3-1.4c0.1,0,0.1-0.1,0.2-0.1c0.6-0.3,1.2-0.1,1.6,0.5
		c0,0,2.6,4.5,6.2,5.3s7.4-2.3,7.4-2.4c0.5-0.4,1.2-0.3,1.6,0.1c0.4,0.4,0.4,1,0.1,1.4c0,0-0.1,0.1-0.1,0.1
		C425.1,320.8,420.6,324.4,415.9,323.4z"/>
</g>
<g id="ноздри_1_">
	<path class="st5" d="M446.4,293.3c-0.1-0.7-0.8-1.3-1.5-1.2c-0.7,0.1-1.3,0.8-1.2,1.5c0,0.1,2.1,7.4-2.2,10.1
		c-3.4,2.1-7.4,1-9.7,0.2c0.3-0.5,0.7-0.9,0.9-1.4c0.3-0.7,0-1.5-0.7-1.8c-0.6-0.3-1.3,0-1.7,0.6c-0.4,0.8-1,1.5-1.6,2.2l0,0
		c-1.8,2-5,3.7-10.4,2.5c-8.2-1.9-6.9-10.5-6.8-10.9c0.1-0.7-0.4-1.4-1.1-1.6s-1.4,0.4-1.6,1.1l0,0c-0.3,1.9-0.3,3.8,0.1,5.7
		c-2.2,0.2-5.6,0-7.5-4.1c-1.6-3.3-0.7-7.2,2.1-9.5c0.6-0.4,1.9-2.2,1.5-2.8s-2.2-0.1-2.8,0.3c-3,2-6.9,6.8-4.1,13
		c2,4.5,6.1,5.8,9.5,5.9c0.7,0,1.4,0,2.2-0.1c1.4,3.3,4.2,5.6,7.7,6.3c1,0.2,2,0.4,3.1,0.4c3.5,0.1,6.8-1.2,9.3-3.6
		c2.3,1,4.8,1.6,7.3,1.7c2,0.1,4-0.3,5.8-1.2C449.2,303.4,446.5,293.7,446.4,293.3z"/>
</g>
<g id="нос_1_">
	<path class="st5" d="M413.9,281.4c-0.3,0-0.6-0.1-0.8-0.2c-0.7-0.5-0.9-1.4-0.5-2.1c0-0.1,5.4-8.5,7.3-14.3
		c3.1-9.5,2.4-21.2,2.4-21.3c0-0.8,0.6-1.5,1.4-1.6s1.5,0.6,1.6,1.4c0,0.5,0.7,12.3-2.5,22.4c-2,6.2-7.4,14.6-7.6,15
		C414.9,281.1,414.4,281.4,413.9,281.4z"/>
</g>
<g id="яблоко_2_">
	<path class="st9" d="M406.1,241.5c-6.6-3.3-14.6-2.2-19.9,2.9c0,0-2.2,8.7,10.7,14.6c13,5.9,19,1.1,19,1.1S417.8,247.2,406.1,241.5
		z"/>
</g>
<g id="яблоко-2">
	<path class="st9" d="M483,266.3c0,0-4-12-16.9-12s-16.7,13.2-16.7,13.2s3.4,7,17.6,7.3S483,266.3,483,266.3z"/>
</g>
<g id="зрачрк_1_">
	<circle class="st5" cx="466.7" cy="263.3" r="7.5"/>
</g>
<g id="зрачок_1_">
	<circle class="st5" cx="402.3" cy="248.9" r="7.5"/>
</g>
<g id="ни_веко_1_">
	<path class="st8" d="M449.3,267.5c0,0,3.6,8.6,17.7,8.2c15-0.4,16-9.4,16-9.4s-1.9,7.9-15.3,8.5
		C454.3,275.4,449.3,267.5,449.3,267.5z"/>
</g>
<g id="н_веко_1_">
	<path class="st8" d="M415.9,260.4c0,0-7,6.1-19.5-0.3c-13.3-6.9-10.3-15.4-10.3-15.4s-1.7,7.8,10.1,14.1S415.9,260.4,415.9,260.4z"
		/>
</g>
<g id="веко_2_">
	<path class="st5" d="M482.9,264.2c0-0.1-3.3-9.9-16.8-9.9h-0.1c-13.4,0-17.5,12.9-17.6,13l-0.9,2.9l2.3-2c0.1-0.1,9.6-8.1,17.7-7.4
		c4.9,0.4,9.7,1.9,14.1,4.4l2,1.3L482.9,264.2z"/>
</g>
<g id="веко-2">
	<path class="st5" d="M406.2,241.5c-12.1-5.8-18.9,0.9-19.2,1.2l-1.4,1.4l2,0.1c5.2,0.4,10.4,1.5,15.3,3.3
		c7.6,2.9,12.2,12.9,12.3,13l1.3,2.8l0.4-3C416.8,260.2,418.3,247.3,406.2,241.5z"/>
</g>
<g id="тень_2_">
	<path class="st8" d="M450.5,252.5c1,2.3,11.1-1.4,17.5-1.8s16.6,7.6,19.7,5.8c3.2-1.8-7.9-13.2-18.3-13.2S448.8,248.4,450.5,252.5z
		"/>
</g>
<g id="тень-2">
	<path class="st8" d="M421.3,246.3c-1.9,1.7-9.4-6-15.1-9s-18.2-0.2-20.3-3.1s12.8-8.6,22.2-4.2S424.6,243.3,421.3,246.3z"/>
</g>
<g id="бровь_2_">
	<path class="st5" d="M447.6,242.4c3.7,3.9,14.3-4.2,22.3-4.2c10.6-0.1,22.5,7.6,24.5,5.4c1.4-1.5-8.6-13.4-25.1-12.7
		S443.6,238.2,447.6,242.4z"/>
</g>
<g id="бровь-2">
	<path class="st5" d="M424.2,237.2c-4.9,2-11.3-9.7-18.5-13.1c-9.6-4.5-23.6-2.4-24.5-5.3c-0.7-2,13.4-8.6,28.1-1.2
		S429.6,235,424.2,237.2z"/>
</g>
<g id="пряд_справа_1_">
	<path class="st5" d="M491.1,219.6c0,0-3,27.1-5.4,42.1c-2.4,15-12.2,52.1-6.3,74.7s20.8,36.8,38.3,31.2
		c17.5-5.6,23.7-23.7,17.5-40.7s-20.4-33.2-23.2-56.8c-2.8-23.5,4.6-55.2,4.6-55.2L491.1,219.6z"/>
	<path class="st6" d="M489.6,267.7c-1.4,7-2.5,14-3.2,21.1c-1.1,14,0.7,28.1,2.5,42c1.2,8.9,3,18.9,10.3,24.1
		c7.4,5.1,17.5,3.3,22.6-4c1.9-2.7,2.9-5.8,2.9-9.1l-10.9,0.2l3.5-7.8c-3.4,0.6-6.9-1.4-8.9-4.2s-3.1-6.1-4.1-9.5
		c-3.2-11-6.5-22.3-5.5-33.8c0.5-5,1.7-10,2.5-15c0.7-6.2,1-12.4,0.9-18.6v-13.3c0-1.6,0.6-5.3-0.6-6.2c-0.9-0.6-3-0.2-3.9,0.3
		c-2.1,1.2-2.4,4-2.8,6.1l-2.3,12.3L489.6,267.7z"/>
</g>
<g id="прядь_слева_1_">
	<path class="st5" d="M376.8,183.6c0,0-13,43.3-21.7,55.9s-40.8,44.6-44.6,58.9c-3.8,14.3-2.7,25.8,5.6,32.2
		c11.2,8.5,32.9,2.1,39.6-9.1c17.4-29.4,17.8-77.8,41.4-129L376.8,183.6z"/>
	<path class="st6" d="M346.6,293.4c-3.9,8.2-8.8,17.3-17.5,20c-2.2,0.7-5.1,0.6-6.1-1.5c-0.3-0.7-0.4-1.4-0.4-2.1
		c-0.2-8.4,2.8-16.6,8.5-22.8c2.4-2.6,5.2-4.8,7.8-7.2c8.1-7.5,14-16.9,18.9-26.7c5.1-10.1,9.2-20.7,14.1-30.9
		c2.4-5.1,5.1-10,8.1-14.8c0.7-1.2,2.8-5.7,4.4-3c1.1,1.8-1.8,6.4-2.6,8.3c-5.2,12.8-10.6,25.6-16.1,38.3
		c-5.5,12.7-11.2,25.3-17,37.7L346.6,293.4z"/>
</g>
<g id="челка_1_">
	<path class="st5" d="M493.6,131.3c0,0-29.8-8.8-51.3-3.6c-12.6,3-23.8,10.5-31.4,21c0,0-40.7,0.7-39.2,31.2
		c1.7,33.9,39.6,22.4,39.6,22.4s-0.2,17.6,24.3,22.9c22.1,4.8,32.2-8.3,32.2-8.3s12.5,21.6,36.9,15.4c27.6-6.9,26.6-30.4,25.6-35.1
		s-4.8-26.1-38.2-26.6C492.1,170.6,517.7,144.9,493.6,131.3z"/>
	<path class="st6" d="M381.9,163.6c-7,7-9.9,17.1-7.6,26.7c1-5.4,5.3-9.6,10.7-10.5c-3.7,2.9-5.7,7.5-5.4,12.2l7.8-7
		c-1.2,3-0.9,6.5,1,9.1l5.4-2.9c5.3,3.8,12.5,3.4,17.3-1c2.2,9.3,7.7,17.4,15.5,23c-1.7-5.1-1.2-10.6,1.5-15.3
		c-2.1,2.9-1.4,6.9,1.5,9c2.9,2.1,6.9,1.4,9-1.5c0.1-0.1,0.2-0.3,0.3-0.4l-1,4.1c2.1,0.6,4.4,0,5.9-1.6c0.8,3.1,5.3,2.9,8.4,1.9
		l27.5-8.6c-5.2,4.5-4.6,13.9,1.1,17.8c2.2-3.3,5-6.2,8.2-8.6c-1.3,2.1-2,4.5-2.1,7c2.4-1.5,5.5-1.2,7.6,0.8
		c4.1-3.3,9.8-3.8,14.4-1.2l5.8-8.7c-2.9,2.6-7.4,2.4-10-0.5s-2.4-7.4,0.5-10c0.5-0.5,1.2-0.9,1.8-1.2l-11.7,5.5
		c1.6-1.9-0.8-5.5-3.2-4.6c2.8-10.1,9.9-18.5,19.4-23c-13.9-2.5-28,3-36.6,14.2c0.1-1.3-1.7-2-2.9-1.4c-1.1,0.7-1.9,1.8-2.3,3.1
		c-0.8-4.4-8-5.5-10.1-1.6l-2.1-4.1c-1.4,0.1-2.6,0.8-3.5,1.9c-0.2-3.7,0.3-7.4,1.3-10.9c-4.1,1.9-7.9,4.2-11.6,6.8l2-5.6
		c-5.4-1-10.9,0.6-14.8,4.4c0.5-1.1,1.1-2.4,0.7-3.5s-2.3-1.7-2.8-0.6c7.4-7.3,17-11.9,27.4-13.1c-8-2.3-16.6-3.6-24.5-1.1
		s-14.9,9.3-15.5,17.6c1.4-2.3,2.7-5,1.7-7.5s-5.4-3.1-6-0.4c1.1-1.9-2-3.4-4.2-3.2s-5.3-0.3-5.1-2.4c0.1-0.7,6.6-2.3,7.5-2.6
		c2.6-0.8,5.3-1.3,7.9-2.2c-2.6-2.4-6.6-3.3-9.9-4.6c-2.4-1-5.1-1.5-7.8-1.3C393.4,156.1,386.9,158.9,381.9,163.6z"/>
</g>
</svg>
