<?xml version="1.0" encoding="utf-8"?>
<!-- Generator: Adobe Illustrator 25.2.0, SVG Export Plug-In . SVG Version: 6.00 Build 0)  -->
<svg version="1.1" id="Layer_1" xmlns="http://www.w3.org/2000/svg" xmlns:xlink="http://www.w3.org/1999/xlink" x="0px" y="0px"
	 viewBox="0 0 998.2 973.2" style="enable-background:new 0 0 998.2 973.2;" xml:space="preserve">
<style type="text/css">
	.st0{fill:#146C8A;}
	.st1{fill:#264A56;}
	.st2{fill:#15272D;}
	.st3{fill:#4B7887;}
	.st4{fill:#5B99AE;}
	.st5{fill:#FF8580;}
	.st6{fill:#FF9F78;}
	.st7{fill:#FFD5B3;}
	.st8{fill:#FF9461;}
	.st9{fill:#FF706E;}
	.st10{fill:#16272D;}
	.st11{fill:#FF7472;}
	.st12{fill:#17272D;}
	.st13{fill:#FFFFFF;}
</style>
<g id="тело_1_">
	<g id="наушники_сзади">
		<path class="st0" d="M414.3,317.4c0,0,10.2-25.9,67.9-20.6s83.6,70.9,83.6,70.9l21.7-25l-62.9-65.4l-43.6-7.6l-50.6,4.1l-20,11.2
			L414.3,317.4z"/>
		<path class="st1" d="M435.8,267.8c-10.2,1.9-27.7,7.3-29.7,19.4c-2,12.1-5.4,26.3-5.4,26.3l35.6,24.9l6.8-9.4
			c0,0-36.1-20.2-28.9-41.8c7.3-21.6,77.2-17.4,93.5-12.2c19.4,6.1,51,31,69.8,65.4l12.4,2.8c0,0-40.6-64-79.4-73.4
			C486,263.8,446,265.8,435.8,267.8z"/>
	</g>
	<g id="предплечье_1_">
		<path class="st2" d="M678.7,394.7c37.2-3.3,67.9,115.4,84.8,159s55.5,159.7,41.4,214.1c-14.1,54.4-80.6,51.5-120.3,6
			s-25.2-91.8-41.1-152.8S599.8,401.7,678.7,394.7z"/>
		<path class="st2" d="M665.6,714c10.4-9.6,25.1-12.6,39.2-14.3c30.8-3.7,62.8-3.1,92,7.3c7.7,2.7,16,7,18.5,14.8
			c1.2,3.8,0.8,7.9,1.3,11.8c0.8,6.7,8.3,11.2,11,17.3c3.7,8.3,3,16.1,5.1,25c3.2,13.6,3.2,31.7-6,42.2
			c-6.6,7.6-16.8,10.7-26.6,13.1c-9.7,2.4-19.8,4.5-29.7,2.8c-22.2-3.8-36.8-24.9-56.5-35.8c-9.7-5.3-20.6-8.2-30-13.9
			c-5.1-3.1-9.7-6.9-13.6-11.4c-2-2.2-3.9-4.6-5.4-7.2c-1.7-2.9-1.8-5.7-2.5-8.9c-0.9-4.2-3.3-7.7-4.8-11.6
			c-1.9-5.1-2.2-10.4-0.9-15.7C658.1,723.6,661.2,718.1,665.6,714z"/>
		<path class="st1" d="M682.9,709.7c13.8-13.8,33.5-20.7,53-21.7c19.5-1,38.9,3.6,57.2,10.2c1.8-1.7,1.5-4.9,0-6.9s-4-3.1-6.3-4
			c-32-12.9-69.3-11.9-100.5,2.7c1.9-0.2,3.3-2.3,2.8-4.1c-11.8-1.1-22.8,8.5-26,20c-2.5,9.3-0.7,19.2,3.1,27.9c0.3,0.7,2,5.2,2.8,5
			s0.7-3.8,0.8-4.3c0.5-4.4,1.9-8.6,4-12.5C676.2,717.4,679.3,713.3,682.9,709.7z"/>
		<path class="st1" d="M781.3,726.3c5.3,3.4,9.6,8.1,15.2,11.1c4.4,2.3,9.3,3.5,14.1,4.4c0.6-6.6,0.8-14.3-4.3-18.4
			c-2.1-1.7-4.7-2.4-7.2-3.1c-15.8-4.1-32.2-6-48.5-5.6c-2.2,0-8.3-0.2-8.7,2.8c-0.4,3.2,5.3,1.6,7.1,1.6c7.3-0.2,14.7,0.2,21.7,2.3
			C774.3,722.6,778,724.2,781.3,726.3z"/>
	</g>
	<g id="предплечье">
		<path class="st2" d="M304.5,407.1c-58.5-17.3-91,119-104.8,163.7s-44.4,163.2-26.5,216.5s83.9,45.8,120.5-2.3s22.6-27.2,34.2-89.2
			C339.4,633.8,399.4,435.2,304.5,407.1z"/>
	</g>
	<g>
		<path id="тело_2_" class="st2" d="M435.2,253.6c-9,6.6-2.8,17.5-3.6,28.6s-22.2,43.3-21.1,49.4c0,0-101.2,23.4-120.8,43
			c-19.7,19.6-39.9,48.6-53.5,89.4c-13.6,40.7,81.7,42.1,83.2,61.7c1.5,19.6,5.1,39.2,20.2,64.8c0,0-40.7,228.5,1.5,243.6
			c42.2,15.1,249,31.9,314.2-8.6c29.3-18.2-10.1-192.7-5.6-198.8s33.2-33.2,21.1-108.6c0,0,60.3-49.8,51.3-75.4
			c-9-25.6-27.2-65.8-54.3-77.9c-27.2-12.1-103.2-33.8-109.8-38.3c2.8-3.5-5.6-10.9-7.1-36.7C550.3,281.6,435.2,253.6,435.2,253.6z"
			/>
		<path class="st1" d="M475.4,348.2c9,3,18.4,4,27.8,4.7c2.1,0.2,4.2,0.3,6.2-0.1c2.1-0.4,4-1.4,6-2.2c6-2.6,12.4-4.4,18-7.7
			c6.1-3.6,11.6-9.3,18.7-9.9c0.3,0,0.7,0,1,0.1c1.1,0.4,1,2.1,0.5,3.1c-1.8,3.6-5.9,5.6-8.5,8.7c-1.8,2.1-2.9,4.8-4.6,7
			c-2.9,3.7-7.4,5.8-11.7,7.8c-3.8,1.7-7.6,3.4-11.7,4.3c-4.5,0.9-9.2,0.7-13.9,0.5c-5-0.2-10.1-0.5-15.1-0.7c-3.4-0.1-6.7-0.3-10-1
			c-7.2-1.4-13.7-5-20-8.6c-14.2-8-28.7-16.1-39.5-28.4c-1-1.1-3.7-4.2-1.5-5.4c1-0.5,2.1,0,3,0.3c1.1,0.3,2.2,0.7,3.3,1.1
			c4.4,1.5,8.7,3.5,12.8,5.7c4.2,2.2,8.2,4.7,12.3,7.1c4.1,2.5,8.2,4.9,12.4,7.1c4.1,2.2,8.4,4.2,12.9,5.8
			C474.4,347.9,474.9,348,475.4,348.2z"/>
		<path class="st1" d="M339.2,569c16.8,40.1,66.2,64,95.8,70.9c-38.8,0.9-85.9-16.4-102.1-53.5C315.5,538.2,296.7,457.3,339.2,569z"
			/>
		<path class="st1" d="M662.1,466.9c-0.6,4.6-0.3,9.2,0,13.8c1.3,20.7,2.6,41.4,3.9,62.1c0.6,9.9,1.2,19.8,0.1,29.6
			s-4.1,19.7-10,27.6c-3.1,4.1-6.8,7.6-10.6,11.1c-6,5.5-11.9,11-17.8,16.5c3.2,1.5,7,0.8,10.3-0.4c16.6-6,27.7-22.4,31.9-39.5
			c2.2-9.1,2.8-18.4,3.3-27.7c1-15.6,1.9-31.2,2.9-46.8c-1.1,2.9-2.2,5.8-3.4,8.7c-1.6-4.9-0.3-10.2,1-15.2
			c3.1-12.3,5.8-24.8,5.4-37.5c-2.5,0.3-3.8,3.1-4.8,5.5s-2.8,5-5.3,4.6c1.5-9.4,3-18.8,4.5-28.2c0.3-1.7,0.4-3.6-0.2-5.3
			c-0.3-0.7-0.7-1.5-1.4-1.9c-1-0.5-1.4,1.2-1.8,1.9c-2.2,4.3-4.4,8.7-5.9,13.3C663.1,461.5,662.5,464.2,662.1,466.9z"/>
		<path class="st1" d="M653.4,685.4c3.1,15,6.3,30.1,9.4,45.1c0.5,2.5,1.2,5.2,3.4,6.5c2.9,1.7,6.8-0.6,8-3.6c1.3-3.1,0.7-6.6,0-9.8
			c-3.7-17.3-10.2-34.2-11.6-51.8c-0.7-9.3,0-18.8-2.5-27.7c-1.5-5.5-4.2-10.7-7.3-15.5c-1.4-2.2-3-5.4-5-7.1
			c-2.8-2.4-2.2,2.9-2.2,4.5c-0.3,12.9,1.3,25.7,3.6,38.3C650.5,671.3,651.9,678.4,653.4,685.4z"/>
		<path class="st1" d="M337,563.3c3.9,12.6,3.5,26.4,1.1,39.4c-7.1,38.6-10.6,61.5-16.1,122.5c3.4,5.6,17.5,13.1,20.5,7.2
			s-0.2-22.4-0.1-29c0.1-7.9,2-15.6,3.6-23.3c5.3-26.4,5.9-53.7,1.9-80.2c-1.3-8.3-3.4-17.2-9.8-22.7"/>
		<path class="st1" d="M329.7,467.5c-1.2-6.2-4.4-14-10.7-13.6c2.2,19.6,4.4,39.1,6.7,58.7c-1.5-6.5-3.9-12.7-7.1-18.5
			c-1.1-2-3.8-4.2-5.3-2.5c-0.4,0.5-0.6,1.2-0.7,1.8c-2,12,5.3,23.3,8.1,35c2.5,10.5,1.3,21.5,3.7,32c0.7,3.3,2.2,10.6,5.4,12.4
			c2.9,1.6,7.1,6.7,8.2,4.4c2-4.2-0.1-18.3-0.1-22.9c0-5.6-0.1-11.2-0.2-16.8c-0.4-11.2-1.2-22.3-2.4-33.5
			C333.9,491.9,332.1,479.6,329.7,467.5z"/>
	</g>
	<g id="наушники">
		<g>
			<path class="st1" d="M414.3,287.2c0.1-0.2,0.2-0.5,0.3-0.7c-2-1.7-4.1-3.4-6.1-5.1c-1.2,1.7-2,3.6-2.4,5.8
				c-2,12.1-5.4,26.3-5.4,26.3l46.7,32.6l6.8-9.4C454.3,336.7,407.6,313.8,414.3,287.2z"/>
			<path class="st1" d="M564.3,309.2l-4,5.7c6.4,7.7,12.4,16.2,17.5,25.5l12.4,2.8C590.1,343.1,579.6,326.7,564.3,309.2z"/>
		</g>
		<path class="st0" d="M423,367.7l17.9-30.3c0,0-42.9-23.9-34.8-50.2l-14.2,36.4C391.9,323.6,383.2,341.8,423,367.7z"/>
		<path class="st0" d="M557.6,318.4c0,0-9.7,3.6-10.4,3.9l-0.1,0v0c-19.1,8.7-27,35.3-17.6,60.8c9.4,25.5,32.8,40.6,53,34.7L593,414
			c20.7-7.6,29.5-35.3,19.8-61.7C603,325.9,578.3,310.7,557.6,318.4z"/>
		<path class="st0" d="M508.9,362.6c-12.6-27.3-39.1-39.8-56.5-32.4l-10.4,4.4c-17.5,7.4-21.4,35.5-8.8,62.8
			c12.3,26.6,35.7,42.7,53.1,36.6l-6.4,1.6l6.7-1.7c0.3-0.1,0.7-0.2,1-0.4c0.3-0.1,0.5-0.3,0.8-0.4l9.6-4
			C515.4,421.8,521.5,389.9,508.9,362.6z"/>
		<path class="st3" d="M557.7,372.9c4.6,12.4,14.3,20.6,23.2,20.4c3.8-7.5,4.2-18.4,0.2-29.2c-3.9-10.6-11.2-18.6-18.8-21.9
			C555.2,347.6,553,360.4,557.7,372.9z"/>
		
			<ellipse transform="matrix(0.8981 -0.4399 0.4399 0.8981 -125.1836 238.7991)" class="st0" cx="452.6" cy="389.5" rx="28.3" ry="43.8"/>
		<path class="st1" d="M428.1,350.4c-0.7,1.2-1.2,2.6-2,3.8c-0.5,0.7-1,1.3-1.4,2c-1.4,2.2-1.9,5.2-4.2,6.2
			c-1.7-2.7-1.8-6.4-0.1-9.1c0.6-1,1.4-1.9,2.2-2.8c1.3-1.4,2.6-2.9,3.9-4.3c1.4-1.5,4.1-5.1,6.5-4.6c0.8,0.2,1.8,0.8,1.3,1.7
			c-0.3,0.5-1.1,1-1.5,1.5c-0.5,0.5-1.1,1-1.5,1.6C429.9,347.6,428.9,348.9,428.1,350.4z"/>
		<path class="st1" d="M538.3,354.2c-0.8,2.7-1.1,5.6-1.1,8.4c0.1,12.4,5,24.6,13.6,33.5c3.7,3.9,8.3,7.2,13.7,8
			c7.3,1,15.2-3.9,16.9-11.1c-3.5-2.7-7.7-4.5-12.1-5.2c-1.5-0.3-3.1-0.4-4.4-1.3c-2.5-1.6-2.8-5.1-3.6-8c-1.2-4.4-4.2-8.1-6.3-12.2
			s-3.2-9.3-0.7-13.1c1.8-2.8,5-4.3,6.5-7.3c1.2-2.4,0.4-5-2.4-5.4c-5.5-0.8-11.5,2-15.3,5.8C540.9,348.6,539.2,351.3,538.3,354.2z"
			/>
		<path class="st1" d="M470.3,372.2c2.5,5.4,3.7,11.3,6,16.8c1.9,4.5,4.5,8.9,5.5,13.7c1.6,8-1.6,16.1-4.7,23.7
			c4.8-1.6,7.9-6.3,9.7-11c2.8-7.7,2.9-16.3,1.2-24.3c-1.7-8-5-15.6-8.9-22.9c-3.9-7.3-8.6-14.6-15.7-18.8c-6.1-3.6-13.4-4.6-20.4-4
			c-1.4,0.1-3,0.4-4.1,1.3c-0.4,0.3-1.2,1-1.2,1.5c0,0.8,0.9,0.7,1.6,0.8c3.2,0.5,6.4,1.4,9.4,2.6c6.1,2.5,11.5,6.5,15.8,11.4
			C466.8,365.7,468.8,368.9,470.3,372.2z"/>
	</g>
	<g>
		<path class="st2" d="M313,866.3c-31.4,9.9-32.8-4.3-67.2-2.8c-19.6-2-45.9-21.1-57.5-36.8c-3.7-5.7-5.9-12.3-9.6-18
			c-6-9-10.5-15.6-13.5-26c-4.9-18.9,7.1-33.4,21.8-42.2c30.2-21.8,65.9-32.6,102.7-37.1c18.7-3.3,29.9-0.7,41.4,13.9
			c27.9,7.8,59.3,17.9,72.6,45.7c12.9,21.7-13.5,37.9-25.2,53.3c-11.1,15.2-27.9,22.3-42.9,32.5C325.3,855.4,326.3,862.1,313,866.3z
			"/>
		<path class="st1" d="M336.8,758.3c-8,2.8-15.5,6.7-23,10.6c-14.3,7.5-28.6,15-42.9,22.5c-8.5,4.5-17.3,9.2-22.7,17.2
			c-4.2,6.2-5.9,13.8-7,21.2c-0.8,5.2-1.3,10.8,1.2,15.4c4.2,7.8,15.2,9.4,23.7,6.8c4-1.2,8.2-3.2,12.2-1.9c2,0.7,3.7,2.1,5.5,3.2
			c11.2,7.2,26.3,3.8,38.1-2.5c15.6-8.3,28.5-20.9,42.2-32c11.1-8.9,23-17,35.4-24.1c3.9-2.2,8-4.4,11-7.7c2.1-2.3,3.7-5.2,4.2-8.3
			c0.5-3.7-1.1-6.7-3-9.7c-2.2-3.7-3.3-7.9-7.6-9.6c-6.5-2.6-14-3.8-21-4.8c-7.3-1-14.6-1.5-22-1
			C352.9,754.1,344.7,755.6,336.8,758.3z"/>
		<path class="st1" d="M316.7,729.6c-21.7,8.6-43.9,17.7-60.4,34.2c-8,8-14.6,17.7-24.4,23.5c-2.6,1.5-5.5,2.8-8.5,2.5
			s-5.9-2.7-6-5.7c0-2.5,1.8-4.6,3.6-6.4c17.1-17.4,36.7-32.5,58.8-43c11.9-5.7,24.5-9.9,37.5-12.4c6.5-1.2,13-2,19.6-2.3
			c1.7-0.1,3.3-0.1,5-0.1c1.1,0,2.8-0.3,3.5,0.8c0.8,1.3-0.4,1.2-1.5,1.2c-1.7,0.1-3.4,0.3-5.1,0.6
			C331.2,724,323.9,726.8,316.7,729.6z"/>
		<path class="st1" d="M264.4,711.8c-20.7,7.3-40.4,17.7-61.8,22.5c-1.6,0.3-3.4,0.6-4.8-0.2c-1.7-1.1-1.9-3.7-1-5.5
			c0.9-1.8,2.7-3,4.4-4.2c6.9-4.5,14.2-8.3,21.7-11.6c7.6-3.2,15.4-5.8,23.5-7.8c8-2,16.2-3.2,24.4-3.9c8.3-0.6,16.6-0.6,24.8,0.2
			c7.6,0.7,16.1,1.5,23.3,4.2c0.4,0.1,0.8,0.3,1.1,0.5c-3.3-0.4-6.6-1.2-10-1.5c-3.7-0.3-7.5-0.3-11.2-0.1c-7.5,0.4-15,1.8-22.2,3.7
			C272.6,709,268.5,710.3,264.4,711.8z"/>
		<path class="st1" d="M374.3,737.3c3.6,2.2,7,4.7,10.4,7.3c7.6,5.7,15.2,11.4,22.7,17.2c-8.5-20.4-29-33.3-49.9-40.4
			c-3.9-1.3-8-2.5-12.1-2.8c-4.4-0.2-8.8,0.6-13.2,1.5c-6,1.2-12,2.3-18,3.5c-2,0.4-4.7,1-5.6,3c-0.8,1.8,0.6,4.3,2.5,4.6
			c2,0.3,4.4-0.8,6.3-1.2c2.7-0.6,5.3-1,8-1.4c10.7-1.4,21.7-1,32.2,1.8C363.5,731.8,369.1,734.2,374.3,737.3z"/>
	</g>
	<g id="рука_3_">
		<g>
			<path class="st4" d="M625.8,817.6c-36.9-11.7-83.3-18.3-120.6-30.3c-37.2-12-93.5-37.1-147.8-23.9c-43,10.4-100.1,51.2-79.7,82.9
				s121.2,29.8,185.5,27s124.3,9.6,139.6,11.8S652.2,826,625.8,817.6z"/>
			<path class="st1" d="M379.9,799.3c-2.2-2.3-5-3.9-8-5.1c-3.2-1.3-6.5-2.4-9.9-2.5c-11.3-0.5-21.4,9.2-24.1,20.2
				c-0.8,3.4-1,7.1,0.6,10.2s5.5,5.2,8.7,3.9c2.5-1,4-3.8,4.3-6.5c0.3-2.7-0.2-5.5-0.5-8.2c-0.1-1.1-0.2-2.3,0.2-3.4
				c0.6-1.2,1.8-2,3-2.7c3.7-2.2,7.8-4.1,12.1-4.1s8.9,2.2,10.3,6.3c1.7,4.6-1,9.3-1.2,14c-0.1,1.9,0.3,7.9,3.5,7.2
				c2.4-0.5,3.8-4,4.6-5.9c1.3-3.3,1.9-6.8,1.7-10.3C384.8,807.6,383.2,802.8,379.9,799.3z"/>
			<path class="st1" d="M377.6,781.8c-4.6,3.9-7.4,9.5-8.9,15.3c-4.3,0.7-8.5-3-9.3-7.4c-0.8-4.3,1.3-8.8,4.3-11.9s7.1-5.2,11-7
				c3.3-1.5,6.9-3,10.5-2.5c2.9,0.4,7.4,2.9,6.9,6.3c-0.2,1.4-1.2,2.3-2.6,2.5c-2,0.3-4,0.4-6,1.2
				C381.4,779.2,379.4,780.3,377.6,781.8z"/>
			<path class="st1" d="M391,795.3c1.7-0.5,3.6-0.6,5.2,0.3s2.5,2.9,1.7,4.5c-0.5,0.8-1.3,1.4-2.1,1.9c-2.3,1.5-4.6,3-7,4.3
				c-1.5,0.9-3.9,2.1-5.5,1c-2.8-1.9-0.4-6.4,1.3-8.1C386.3,797.3,388.5,795.9,391,795.3z"/>
			<path class="st1" d="M501.2,872.8c1.1-2.6,1.4-5.8,1.8-8.6c0.9-6.1,0.8-12.4-0.4-18.4c-0.7-3.3-1.8-6.6-3.3-9.7
				c-5.5-11.4-17.4-20.1-30-19.6c-4.9,0.2-9.7,1.7-14.1,3.9c-7.5,3.8-14,9.6-18.5,16.6c-1.7-5.2-5.7-9.4-10.4-12.4
				c-11.3-7.3-26.5-7.8-38.6-2c-12.1,5.8-21,17.7-24,30.8c-1.2,5.3-1.5,11.1,0.6,16.2c0.6,1.4,1.4,2.7,2.3,3.9
				c5.2,0.3,10.5,0.5,15.8,0.7c4.4-7.2,7.9-14.9,13.7-21c6.5-6.8,17-11,25.3-6.5c5.3,2.9,9.6,9.2,15.7,8.3c5.3-0.8,8-6.7,11.5-10.7
				c5.5-6.4,15.2-8.7,23.1-5.6c7.9,3.1,13.3,11.5,12.9,20c-0.2,4.8-1.8,10.2,0.7,14c5.4,0,10.6,0.2,15.8,0.3
				C501,873.1,501.1,873,501.2,872.8z"/>
			<path class="st1" d="M586.6,812.6c-2.4,4.9-8.7,6.2-14.1,6.8c-2.7,0.3-5.5,0.6-8.1-0.5c-2.5-1.1-4.5-3.9-3.6-6.5
				c0.3-0.9,1-1.8,1.2-2.7c0.4-1.8-0.9-3.5-2.5-4.5c-3.8-2.4-9.3-1.2-11.8,2.5c-2.8,4.1-1.5,10.1,2,13.7c3.4,3.6,8.4,5.3,13.3,6.1
				c5.3,0.9,10.8,1,15.8-0.7c5.1-1.6,9.7-5,12.1-9.8c1.2-2.5,1.8-5.5,1.5-8.3c-1.7-0.4-3.4-0.8-5.1-1.2
				C587.4,809.2,587.4,810.9,586.6,812.6z"/>
			<path class="st1" d="M629.2,840.6c-11.9-1.5-24,0-36,0.1c-18.5,0.1-37-3.1-54.3-9.6c-4.6-1.7-9.2-3.7-13.3-6.3
				c-0.6-0.4-1.2-0.8-1.8-1.2c-4.7-3.2-8.7-7.2-12-11.8c-3.3-4.6-5.8-9.7-7.5-15.1c-0.8-2.7-1.4-5.5-1.8-8.3c-0.1-0.7-0.2-1.3-0.2-2
				c-1.8-0.6-3.7-1.2-5.6-1.9c0.1,1.5,0.1,3,0.2,4.5c0.4,7,1,14.2,3,21c1.8,6.2,4.8,12.1,8.6,17.3c2.4,3.2,5.2,6.2,8.6,8.3
				c2.9,1.8,6.2,2.9,9.4,3.9c9.9,3.3,19.8,6.5,30.1,8.5c19.3,3.7,39.1,2.8,58.7,1.9c5.8-0.3,11.5-0.5,17.2-1.1
				c0.8-2.2,1.4-4.5,1.9-6.7C632.8,841.3,630.9,840.8,629.2,840.6z"/>
			<path class="st1" d="M483,790.5c1.5-2.9,2.4-6.3,1.5-9.5c-0.1-0.3-0.2-0.6-0.4-0.9c-2.8-1-5.7-2-8.6-3c-2.1,1.5-3.1,4.5-4.2,7.1
				c-5.7,14.5-21.2,24.6-36.9,23.8c-5.1-0.2-10.2-1.6-15-3.4c-3.9-1.5-7.8-3.4-11-6.1c-5.5-4.7-8.6-11.8-9.9-18.9
				c-0.5-2.7-0.8-5.5-0.9-8.2c-0.1-2.5-0.1-4.9,0-7.3c0-1.6-0.1-3.1-1.7-4c-4.1-2.2-5,4.4-5.1,6.9c-0.3,9.6,0.7,19.5,4.4,28.4
				c3.7,8.9,10.3,16.8,19.1,20.8c7.4,3.3,15.9,3.7,23.8,2.1c8-1.5,15.5-4.9,22.6-8.6C469.7,805.1,478.5,799.4,483,790.5z"/>
			<path class="st1" d="M466.7,774.3c-3.2-1-6.5-2.1-9.8-3.1c-5.6,1.4-11.1,3-16.8,3.6c-4.6,0.4-9.3,0.1-13.7-1.4
				c-4.7-1.7-8-4.7-10.8-8.6c-0.6-0.9-1.4-2.3-2.3-3.3c-1.6-0.2-3.2-0.4-4.8-0.6c-0.4,0.4-0.8,0.9-1.1,1.3c-2.5,3.9-0.4,8.7,2.3,12
				c3.3,4,8.1,6.5,13,8.1c12.3,4,26.2,3.1,37.9-2.4C463,778.6,465.7,776.7,466.7,774.3z"/>
		</g>
		<g>
			<path class="st4" d="M709.4,852.4c1.8-3,5.1-20.8,2.2-23c-4.9-3.7-44.7-5.5-62.9-8.8c-22.8-4-45.2-0.1-64.7,12.9
				c-18.3,13.6-37.1,33.3-13.5,47c31.9,15.5,70.9,24.2,108.4,17.4C700.5,893.3,711.2,869.6,709.4,852.4z"/>
			<path class="st4" d="M692.7,907.9c4.3,1.2,8.8,2.4,13.3,2c4.6-0.5,9.3-3,10.5-6.8c0.8-2.5-0.1-5.3-1.8-7.4s-4.1-3.7-6.5-5.2
				c-4.6-2.8-9.4-5.2-14.5-7.3c-6.8-2.8-15.3-4.8-21.9-1.2c-2.8,1.5-4.8,3.9-6,6.4c-1.4,3-1.5,6.4,0.2,9.2
				C668.9,902.2,684.4,905.5,692.7,907.9z"/>
			<path class="st4" d="M662.1,838.7c11.1-4.9,22.1-19,5.2-21.6c-14.2,0.7-47.4,4.8-47.3,18.2C620.1,851.1,647.7,845.1,662.1,838.7z
				"/>
			<path class="st4" d="M697.8,903.2c0.9,3.4,4,6.3,7.9,7c1.9,0.3,4,0.2,5.9-0.2c1.3-0.3,2.7-0.6,3.9-1.2c3.4-1.6,5.6-4.8,5.7-8.1
				c0.1-3.2-1.8-6.3-4.8-8.2c-3.2-2.1-8.1-2.9-12.2-1.9c-1.6,0.4-3.5,1.2-4.6,2.3c-1,1-1.3,2.4-1.7,3.6
				C697.4,898.8,697.2,901,697.8,903.2z"/>
			<path class="st4" d="M717.2,915.5c9.8,4.3,20.9,7.9,32.1,6.2c3.7-0.5,7.7-2.1,8.8-5.1c0.7-2-0.1-4.1-1.5-5.6s-3.4-2.6-5.4-3.7
				c-9.2-4.7-18.9-8.8-29-12c-4.9-1.6-10.6-2.9-15.4-0.8c-2.1,0.9-3.8,2.6-4.8,4.4c-0.7,1.4-1.4,3.1-1.1,4.6
				c0.4,1.5,1.8,2.8,2.9,3.9c1.7,1.6,3.7,3,5.8,4.3C712,913.2,714.6,914.4,717.2,915.5z"/>
			<path class="st4" d="M684.9,832.6c9.4-1.2,19.4-3.4,27.2-9.4c2.5-2,5-4.8,4.4-7.4c-0.4-1.7-1.9-2.8-3.7-3.3s-3.8-0.4-5.8-0.2
				c-9.1,0.6-18.3,1.9-27.5,4c-4.4,1-9.4,2.5-12,6c-1.2,1.6-1.7,3.4-1.6,5.1c0.1,1.3,0.3,2.8,1.3,3.7c1,0.9,2.6,1.2,4,1.5
				c2,0.4,4.2,0.6,6.3,0.5C679.9,833.1,682.4,832.9,684.9,832.6z"/>
			<path class="st1" d="M746.2,916.9c3,1.3,6.4,2.6,9.8,2c1.3-0.2,2.7-0.7,3.6-1.6c0.9-0.9,1.3-2.2,0.8-3.2c-0.3-0.6-0.8-1-1.3-1.5
				c-3.6-3-8.2-5.5-13.4-6.2c-2.1-0.3-5-0.7-6.6,0.9c-1.3,1.4-1,3.3-0.2,4.7C740.3,914.4,743.5,915.7,746.2,916.9z"/>
			<path class="st1" d="M712.7,816.3c3-0.4,6.2-0.9,7.4-2c0.5-0.4,0.6-0.9,0.2-1.4c-0.5-0.5-1.6-1-3-1.2c-0.8-0.1-1.5-0.1-2.3-0.1
				c-5.2,0-10.3,0.5-13.9,1.6c-1.4,0.5-3.4,1.1-2.5,2c0.8,0.8,3,1.3,5,1.5C706.9,817.1,710,816.6,712.7,816.3z"/>
			<path class="st4" d="M761.1,883.2c11.2,4,29.4-4.1,18.5-14.3c-11.1-6.8-34.5-14.9-43.9-8.3C720.4,871.1,744.2,881.5,761.1,883.2z
				"/>
			<path class="st4" d="M710.7,883.5c0.9,3.4,4,6.3,7.9,7c1.9,0.3,4,0.2,5.9-0.2c1.3-0.3,2.7-0.6,3.9-1.2c3.4-1.6,5.6-4.8,5.7-8.1
				c0.1-3.2-1.8-6.3-4.8-8.2c-3.2-2.1-8.1-2.9-12.2-1.9c-1.6,0.4-3.5,1.2-4.6,2.3c-1,1-1.3,2.4-1.7,3.6
				C710.3,879.1,710.1,881.4,710.7,883.5z"/>
			<path class="st4" d="M742.7,859.8c10.8,4.8,29.6-1.9,19.5-13c-10.5-7.6-33.3-17.4-43.2-11.5C703,844.8,726,856.9,742.7,859.8z"/>
			<path class="st4" d="M745.8,854.8c1.5,11,22.6,10.4,23.6-0.7C770.5,839.4,741.6,838.5,745.8,854.8z"/>
			<path class="st4" d="M661.8,828.5c2.3,10.9,23.3,8.7,23.5-2.4C685.3,811.4,656.4,812.6,661.8,828.5z"/>
			<path class="st4" d="M715.2,849.9c10.8,4.8,29.6-1.9,19.5-13c-10.5-7.6-33.3-17.4-43.2-11.5C675.5,834.9,698.5,847,715.2,849.9z"
				/>
			<path class="st4" d="M760.7,864.2c9.5,5,20.9,10.5,32,8.7c27.8-4.5-25.9-31.2-37.1-26.8C741,852.7,751.7,860.2,760.7,864.2z"/>
			<path class="st1" d="M789.9,867.9c2.9,1.5,6.2,3,9.7,2.7c1.3-0.1,2.7-0.5,3.7-1.4c1-0.8,1.5-2.1,1-3.1c-0.2-0.6-0.7-1.1-1.2-1.6
				c-3.4-3.3-7.8-6.1-12.9-7.2c-2-0.5-4.9-1.1-6.6,0.5c-1.4,1.3-1.3,3.2-0.6,4.7C784.2,865,787.3,866.6,789.9,867.9z"/>
			<path class="st4" d="M732.9,875.3c11.2,4,29.4-4.1,18.5-14.3c-11.1-6.8-49.1-17.2-58.5-10.5C677.7,861,716,873.7,732.9,875.3z"/>
			<path class="st4" d="M763.8,878c2.3,10.9,23.3,8.7,23.5-2.4C787.3,860.8,758.5,862,763.8,878z"/>
			<path class="st4" d="M740.8,896.5c11.4,3.1,29-6.4,17.3-15.8c-11.6-5.9-35.5-12.1-44.5-4.8C699.4,887.7,723.9,896.2,740.8,896.5z
				"/>
			<path class="st4" d="M731.9,869.3c0.9,3.4,4,6.3,7.9,7c1.9,0.3,4,0.2,5.9-0.2c1.3-0.3,2.7-0.6,3.9-1.2c3.4-1.6,5.6-4.8,5.7-8.1
				c0.1-3.2-1.8-6.3-4.8-8.2c-3.2-2.1-8.1-2.9-12.2-1.9c-1.6,0.4-3.5,1.2-4.6,2.3c-1,1-1.3,2.4-1.7,3.6
				C731.5,864.9,731.3,867.2,731.9,869.3z"/>
			<path class="st4" d="M743.2,891.1c3.1,10.7,23.9,6.8,23.2-4.3C765.3,872.1,736.6,875.6,743.2,891.1z"/>
			<path class="st4" d="M779.3,886.3c9.8,4.3,21.6,9,32.6,6.4c27.4-6.5-28.1-29.2-38.9-24C758.9,876.3,770,883,779.3,886.3z"/>
			<path class="st4" d="M712.2,890.9c11.4,3.1,29-6.4,17.3-15.8c-11.6-5.9-35.5-12.1-44.5-4.8C670.7,882.1,695.2,890.6,712.2,890.9z
				"/>
			<path class="st4" d="M759.3,898.2c10.2,3.5,22.2,7.3,33,3.8c26.8-8.7-30.3-26.9-40.7-20.8C738.1,889.8,749.8,895.6,759.3,898.2z"
				/>
			<path class="st1" d="M788.8,897.4c3.1,1.1,6.6,2,10,1.2c1.3-0.3,2.6-1,3.4-1.9c0.8-1,1.1-2.3,0.6-3.3c-0.3-0.5-0.9-1-1.4-1.4
				c-3.9-2.8-8.6-4.8-13.8-5.2c-2.1-0.1-5-0.3-6.5,1.5c-1.2,1.5-0.8,3.4,0.2,4.8C782.7,895.4,786,896.5,788.8,897.4z"/>
			<path class="st1" d="M808.8,887.9c3,1.3,6.4,2.6,9.8,2c1.3-0.2,2.7-0.7,3.6-1.6c0.9-0.9,1.3-2.2,0.8-3.2c-0.3-0.6-0.8-1-1.3-1.5
				c-3.6-3-8.2-5.5-13.4-6.2c-2.1-0.3-5-0.7-6.6,0.9c-1.3,1.4-1,3.3-0.2,4.7C802.9,885.4,806.1,886.7,808.8,887.9z"/>
			<path class="st1" d="M705.2,887.5c0.9-1.1-0.5-2.4-1.7-3.1c-5.5-3.1-11.8-5.2-18.4-6.2c-0.9-0.1-4.6-0.2-3.7,1.4
				c0.5,1,4.2,1.1,5.4,1.3c4.2,0.9,8.2,2.1,12.1,3.7C699.5,884.8,705.3,887.4,705.2,887.5z"/>
			<path class="st1" d="M729.4,869.3c-12.5-2.7-25-6.2-34.4-13.5c14-0.8,29.4,8.6,44.4,9.6c6.9,1.5,30,5.6,35.9,9.6
				C774.8,883,735.5,869,729.4,869.3z"/>
			<path class="st1" d="M710.8,845.5c-3.6-1.4-7.6-4-6.8-7.4c14.8,8.3,77,12.8,73.2,23.8C751,852.9,737.5,855.1,710.8,845.5z"/>
			<path class="st1" d="M686.4,881c-0.2-1.5-0.6-3-1.3-4.3c-1.2-2.3-3.1-4.4-5.5-5.9c-0.8-0.5-3.8-2.6-5-1.5
				c-0.9,0.9,0.1,2.7,0.5,3.5c0.8,1.7,2,3.4,3.4,4.8C680.4,879.4,683.3,881.3,686.4,881z"/>
			<path class="st1" d="M687.2,851.3c2.8,3.2,6,6,9.6,8.5c1,0.7,2.2,1.3,3.4,1c1.1-0.2,1.8-1.2,1.9-2.2s-0.3-1.9-0.8-2.7
				c-1.9-3.3-5.4-5.8-9.6-6.8c-1.2-0.3-2.8-0.4-3.6,0.5c-0.6,0.7-0.5,1.6,0,2.4s1.1,1.3,1.6,2"/>
			<path class="st5" d="M782.6,868.8c-3.5,3.7-7.5,11.7-12,8.7c-7.1-4.8,0.2-17.7,9.1-18.8C785.2,860.1,787.8,864.8,782.6,868.8z"/>
			<path class="st5" d="M722.5,916.9c-12.2,7.1,6-30,9.8-17.6C728.2,904.5,726.1,911.2,722.5,916.9z"/>
			<path class="st1" d="M710.6,825.7c-1.7-2.7-5.3-3.2-8.4-3.4c-8.1-0.5-16.2-0.7-24.2-0.6c-12.1,0.2-24.6,1.1-36.1-2.6
				c13.7,0.1,27.5,0.2,41.2,0.3c8.4,0,17.2,0.2,24.7,4.1"/>
		</g>
	</g>
	<g id="значки">
		<path class="st6" d="M619.1,511.3l-41.8,24.1c-3.1,1.8-7.2,0.7-9-2.4l-10-17.4c-1.8-3.1-0.7-7.2,2.4-9l41.8-24.1
			c3.1-1.8,7.2-0.7,9,2.4l10,17.4C623.3,505.4,622.2,509.5,619.1,511.3z"/>
		<circle class="st7" cx="624.7" cy="453.6" r="30.5"/>
		<path class="st5" d="M639.2,531l4.3,25.8c1,6.4-3.3,12.4-9.6,13.5l-19.8,3.3c-6.4,1-12.4-3.3-13.5-9.6l-4.3-25.8
			c-1-6.4,3.3-12.4,9.6-13.5l19.8-3.3C632.2,520.3,638.2,524.6,639.2,531z"/>
		<path class="st8" d="M646.8,443.1c-0.2-0.1-0.4-0.1-0.6-0.1c-4.4,0.3-8.7,1.4-12.8,3.2c-0.8-1.5-1.6-3.1-2.4-4.7
			c-1.7-3.4-3.4-7-5.7-10c-0.7-0.9-1.6-1.9-2.7-2c-1.1-0.2-2.3,0.5-3,1.4c-0.7,0.9-1.1,2-1.4,3.1c-0.1,0.4-0.2,0.8-0.3,1.1
			c-0.4,1.5-0.8,3.1-1.1,4.7c-0.3,1.6-0.5,3.1-0.8,4.7c-0.2,1.6-0.4,3.2-0.5,4.8c-0.1,1.5-0.2,2.9-0.2,4.4c-2.5,1.2-5,2.5-7.5,3.7
			c-2.1,1-4.2,2.1-5.7,3.9c-0.4,0.5-0.7,1.2-0.3,1.6c0.2,0.2,0.5,0.3,0.7,0.3c2.4,0.4,4.8-0.7,7-1.7c1.9-0.8,3.7-1.7,5.6-2.5
			c0,1.6,0,3.2,0.1,4.9c0,1.6,0.1,3.2,0.2,4.8c0.1,1.6,0.2,3.2,0.3,4.9c0.1,1-0.1,2.1,0.3,3c0.2,0.5,0.5,1.2,1.1,1.4
			c0.6,0.2,1.2-0.2,1.5-0.7c0.3-0.5,0.3-1.1,0.4-1.7c0.4-5.1,0.8-10.2,1.2-15.2c0.1-0.9,0.2-1.9,0.8-2.6c0.3-0.3,0.8-0.5,1.2-0.8
			c2.4-1.1,4.8-2.3,7.2-3.4c0.3-0.1,0.6-0.3,0.9-0.2c0.3,0.1,0.5,0.4,0.7,0.6c3,4.5,5.9,9,8.8,13.5c0.4,0.6,0.8,1.2,1.4,1.6
			s1.5,0.4,2-0.1c0.6-0.6,0.4-1.7,0-2.5c-1.9-5-4.3-9.7-6.8-14.4c3.5-2.2,6.8-4.7,9.8-7.4c0.2-0.2,0.5-0.5,0.6-0.8
			C647.2,443.7,647.1,443.3,646.8,443.1z M628,448.3c-0.1,0.3-0.3,0.5-0.6,0.6c-1,0.5-2,1-3,1.5c-0.5,0.2-1,0.5-1.5,0.7
			c-0.3,0.1-0.9,0.3-1.2,0c-0.2-0.2-0.2-0.5-0.2-0.8c0-0.4,0.1-0.9,0.2-1.3c0.1-1.2,0.2-2.3,0.3-3.5c0.1-1.3,0.1-2.6,0-3.9
			c0-0.5,0-1.1,0.1-1.6c0.2-0.5,0.6-1,1.2-1.1c0.1,0,0.2,0,0.3,0c0.1,0,0.1,0.1,0.2,0.2c1.6,2.7,3,5.5,4.3,8.4
			C627.9,447.9,628,448.1,628,448.3z"/>
		<circle class="st8" cx="652.9" cy="502.4" r="18.3"/>
	</g>
	<g id="рука_2_">
		<g>
			<path class="st4" d="M386,835.9c-2.6-2.4-11-18.4-8.8-21.3c3.7-5,41.1-18.3,57.6-26.8c20.6-10.5,43.3-13.3,65.6-6.5
				c21.4,7.7,45.2,21,26.6,41.1c-26,24.1-60.8,43.8-98.7,48.2C406.4,872.4,389.3,852.9,386,835.9z"/>
			<path class="st4" d="M418.1,884.1c-3.7,2.4-7.7,4.9-12.2,5.8c-4.5,0.9-9.8-0.1-12-3.4c-1.5-2.2-1.4-5.1-0.5-7.6
				c1-2.5,2.8-4.8,4.7-6.9c3.6-4,7.5-7.7,11.7-11.2c5.7-4.6,13.2-9,20.6-7.5c3.1,0.6,5.7,2.3,7.6,4.4c2.2,2.5,3.3,5.7,2.5,8.8
				C439.2,871.7,425.4,879.4,418.1,884.1z"/>
			<path class="st4" d="M427.2,808.9c-12.1-1.5-26.7-11.7-11.3-19.2c13.8-3.5,46.7-9.2,50.6,3.7
				C471.1,808.5,442.9,810.9,427.2,808.9z"/>
			<path class="st4" d="M411.9,881c0.1,3.5-1.9,7.2-5.5,9.1c-1.7,0.9-3.7,1.3-5.7,1.5c-1.4,0.2-2.8,0.2-4.1,0
				c-3.7-0.5-6.8-3-7.8-6.1c-1-3.1-0.1-6.6,2.2-9.3c2.5-2.9,6.9-5.2,11.1-5.3c1.6-0.1,3.7,0.2,5.1,0.9c1.2,0.7,2,1.9,2.7,2.9
				C411,876.7,411.8,878.8,411.9,881z"/>
			<path class="st4" d="M396.9,898.5c-8.2,7-17.7,13.6-28.9,15.3c-3.7,0.6-8,0.3-9.9-2.3c-1.2-1.7-1.1-3.9-0.2-5.8
				c0.9-1.9,2.5-3.5,4.1-5.1c7.4-7.2,15.5-13.9,24.2-19.9c4.2-2.9,9.3-5.9,14.5-5.2c2.3,0.3,4.4,1.3,5.8,2.8
				c1.1,1.1,2.3,2.6,2.4,4.1c0.1,1.5-0.9,3.2-1.7,4.6c-1.1,2.1-2.6,4-4.3,5.8C401.2,894.7,399.1,896.6,396.9,898.5z"/>
			<path class="st4" d="M403.7,809.7c-9.4,1.6-19.6,2.4-28.8-1.1c-3-1.1-6.1-3.1-6.3-5.8c-0.2-1.7,1-3.2,2.6-4.2
				c1.6-1,3.5-1.5,5.5-1.9c8.9-2.1,18.1-3.5,27.5-4.2c4.5-0.3,9.7-0.3,13.3,2.3c1.6,1.2,2.7,2.8,3.1,4.4c0.3,1.2,0.5,2.8-0.1,3.9
				c-0.7,1.1-2.2,1.9-3.4,2.6c-1.8,1-3.8,1.8-5.9,2.4C408.6,808.8,406.2,809.3,403.7,809.7z"/>
			<path class="st1" d="M369.6,908.3c-2.5,2.2-5.4,4.3-8.8,4.8c-1.3,0.2-2.8,0.1-3.9-0.5c-1.1-0.6-1.9-1.7-1.7-2.8
				c0.1-0.6,0.4-1.2,0.8-1.8c2.6-4,6.3-7.6,11-9.9c1.9-0.9,4.6-2.1,6.6-1c1.6,0.9,1.9,2.9,1.6,4.5
				C374.5,904.2,371.8,906.4,369.6,908.3z"/>
			<path class="st1" d="M372.3,802.3c-3,0.5-6.2,1-7.7,0.3c-0.6-0.3-0.9-0.7-0.6-1.3c0.3-0.6,1.3-1.4,2.5-2c0.7-0.3,1.4-0.6,2.2-0.8
				c5-1.5,10-2.6,13.7-2.5c1.5,0,3.6,0,3,1.2c-0.5,0.9-2.5,2.1-4.3,2.9C378.1,801.3,375,801.8,372.3,802.3z"/>
			<path class="st4" d="M345.5,880.3c-9.5,7.1-29.3,4.7-21.9-8.3c8.6-9.7,28.6-24.3,39.6-20.7C380.9,857,361.2,873.8,345.5,880.3z"
				/>
			<path class="st4" d="M393.8,866c0.1,3.5-1.9,7.2-5.5,9.1c-1.7,0.9-3.7,1.3-5.7,1.5c-1.4,0.2-2.8,0.2-4.1,0
				c-3.7-0.5-6.8-3-7.8-6.1c-1-3.1-0.1-6.6,2.2-9.3c2.5-2.9,6.9-5.2,11.1-5.3c1.6-0.1,3.7,0.2,5.1,0.9c1.2,0.7,2,1.9,2.7,2.9
				C392.9,861.6,393.8,863.8,393.8,866z"/>
			<path class="st4" d="M356.3,852.6c-9,7.7-28.9,6.8-22.4-6.7c7.9-10.3,26.8-26.3,38-23.6C389.9,826.7,371.5,845,356.3,852.6z"/>
			<path class="st4" d="M351.8,848.7c1.8,11-18.6,16.5-22.8,6.2C323.7,841.2,351.1,831.9,351.8,848.7z"/>
			<path class="st4" d="M424.6,799.1c1,11.1-19.8,15.1-23.2,4.5C397.1,789.6,425.1,782.3,424.6,799.1z"/>
			<path class="st4" d="M379.7,835.1c-9,7.7-28.9,6.8-22.4-6.7c7.9-10.3,26.8-26.3,38-23.6C413.3,809.2,394.9,827.5,379.7,835.1z"/>
			<path class="st4" d="M340.4,862.1c-7.6,7.6-16.9,16.2-28.1,17.7c-27.9,3.8,15.7-37.4,27.7-36.4
				C355.8,845.4,347.8,855.6,340.4,862.1z"/>
			<path class="st1" d="M313.5,874.2c-2.3,2.3-5.1,4.7-8.5,5.4c-1.3,0.3-2.7,0.3-3.9-0.2c-1.2-0.5-2-1.6-1.9-2.7
				c0-0.6,0.4-1.3,0.7-1.8c2.3-4.2,5.7-8.1,10.2-10.7c1.8-1,4.4-2.5,6.5-1.5c1.7,0.8,2.2,2.7,1.9,4.3
				C318.1,869.7,315.6,872.1,313.5,874.2z"/>
			<path class="st4" d="M370.2,864.6c-9.5,7.1-29.3,4.7-21.9-8.3c8.6-9.7,41.9-30.7,52.9-27.1C418.9,834.9,385.9,858.1,370.2,864.6z
				"/>
			<path class="st4" d="M341.4,876.2c1,11.1-19.8,15.1-23.2,4.5C313.9,866.6,341.9,859.4,341.4,876.2z"/>
			<path class="st4" d="M368.8,887.2c-10,6.3-29.6,2.3-21.1-10c9.4-9,30.5-22,41.1-17.5C405.9,866.7,384.9,882,368.8,887.2z"/>
			<path class="st4" d="M369.4,858.6c0.1,3.5-1.9,7.2-5.5,9.1c-1.7,0.9-3.7,1.3-5.7,1.5c-1.4,0.2-2.8,0.2-4.1,0
				c-3.7-0.5-6.8-3-7.8-6.1c-1-3.1-0.1-6.6,2.2-9.3c2.5-2.9,6.9-5.2,11.1-5.3c1.6-0.1,3.7,0.2,5.1,0.9c1.2,0.7,2,1.9,2.7,2.9
				C368.5,854.2,369.4,856.4,369.4,858.6z"/>
			<path class="st4" d="M365,882.7c0.1,11.1-20.9,13.5-23.5,2.7C338.3,871,366.8,866,365,882.7z"/>
			<path class="st4" d="M329,888.7c-8.2,7-18,14.9-29.3,15.6c-28.1,1.7,18.4-36.1,30.2-34.3C345.6,873.1,336.9,882.8,329,888.7z"/>
			<path class="st4" d="M394.6,873.5c-10,6.3-29.6,2.3-21.1-10c9.4-9,30.5-22,41.1-17.5C431.7,853,410.7,868.2,394.6,873.5z"/>
			<path class="st4" d="M351.6,894.2c-8.7,6.3-19.1,13.4-30.4,13.2c-28.1-0.5,21.2-34.6,32.9-31.8
				C369.4,880,359.9,888.9,351.6,894.2z"/>
			<path class="st1" d="M323.2,902c-2.7,2-5.7,3.9-9.2,4.1c-1.3,0.1-2.8-0.2-3.8-0.8c-1.1-0.7-1.7-1.8-1.5-3c0.1-0.6,0.5-1.2,1-1.7
				c2.9-3.8,6.9-7.1,11.7-9c2-0.7,4.7-1.8,6.6-0.5c1.6,1.1,1.7,3,1.2,4.6C328.4,898.3,325.6,900.3,323.2,902z"/>
			<path class="st1" d="M301.3,898.7c-2.5,2.2-5.4,4.3-8.8,4.8c-1.3,0.2-2.8,0.1-3.9-0.5c-1.1-0.6-1.9-1.7-1.7-2.8
				c0.1-0.6,0.4-1.2,0.8-1.8c2.6-4,6.3-7.6,11-9.9c1.9-0.9,4.6-2.1,6.6-1c1.6,0.9,1.9,2.9,1.6,4.5
				C306.2,894.7,303.5,896.8,301.3,898.7z"/>
			<path class="st1" d="M400.2,868.2c-1.2-0.8-0.3-2.4,0.7-3.5c4.4-4.6,9.8-8.4,15.8-11.3c0.9-0.4,4.4-1.6,3.9,0.3
				c-0.2,1.1-3.7,2.3-4.8,2.9c-3.7,2.1-7.2,4.4-10.5,7.1C404.9,864,400.1,868.1,400.2,868.2z"/>
			<path class="st1" d="M371.8,857.9c11.1-6.2,22.1-13.3,29-22.9c-13.6,3.3-25.7,16.8-39.7,22.2c-6.2,3.4-27,14.1-31.5,19.6
				C332.3,884.2,365.9,859.3,371.8,857.9z"/>
			<path class="st1" d="M382.6,829.6c3-2.4,6.1-6.1,4.3-9.1c-11.8,12.3-70,34.7-63.1,44.1C346.3,848.4,359.9,846.6,382.6,829.6z"/>
			<path class="st1" d="M416.3,856.5c-0.3-1.5-0.3-3,0-4.5c0.4-2.6,1.6-5.1,3.5-7.3c0.6-0.7,2.9-3.6,4.4-2.9
				c1.1,0.6,0.7,2.6,0.6,3.5c-0.3,1.9-0.9,3.8-1.9,5.6C421.6,853.3,419.4,855.9,416.3,856.5z"/>
			<path class="st1" d="M406.9,828.3c-1.7,3.8-4,7.5-6.7,11c-0.7,0.9-1.7,1.9-2.9,2c-1.1,0.1-2.1-0.6-2.5-1.5
				c-0.4-0.9-0.3-1.9-0.1-2.8c0.9-3.7,3.5-7.1,7.2-9.3c1.1-0.7,2.6-1.2,3.6-0.6c0.8,0.5,0.9,1.4,0.7,2.2c-0.2,0.8-0.7,1.6-1,2.4"/>
			<path class="st5" d="M357.3,831.1c-2.3-3-4-7-2.9-10.6c0.7-2.3,2.6-4.2,4.7-5.4c2.1-1.2,4.6-1.7,7-2c0.6-0.1,1.3-0.2,1.9,0
				c0.8,0.2,1.5,0.7,2.2,1.1c3.3,2.4,6.4,4.9,9.5,7.6c0.9,0.8,1.8,1.7,1.9,2.8c0.2,1.8-1.7,3.1-3.3,4c-3.1,1.8-6.1,3.9-8.8,6.3
				c-0.7,0.6-1.3,1.2-2,1.8c-0.5,0.5-1.1,1.4-1.9,1.4c-1.3,0-3.1-1.9-4-2.7C359.9,834.1,358.5,832.7,357.3,831.1z"/>
			<path class="st5" d="M388.1,850.6c4.2,2.9,7.1,7.4,11.3,10.3c1.1,0.7,2.2,1.4,3.5,1.5c1.3,0.1,2.7-0.4,3.3-1.5
				c0.6-1,0.5-2.3,0.3-3.5c-0.4-3.1-1.1-6.3-2.9-8.9c-1.5-2.2-3.7-3.9-5.9-5.5c-2.5-1.8-5.8-4.1-9-2.9c-1.6,0.6-2.7,2-3.7,3.3
				c-0.7,1-1.3,2.1-0.9,3.4C384.7,848.6,386.6,849.6,388.1,850.6z"/>
			<path class="st5" d="M434,871.2c16.3,3.9-17.2-32.1-17.2-16.6C423.2,859.2,427.9,866.1,434,871.2z"/>
			<path class="st5" d="M379.9,883.4c-1.9,3.9,18,18.1,19.8,13.7C402.9,889.3,381.7,879.5,379.9,883.4z"/>
			<path class="st1" d="M377,810.6c0.9-3,4.1-4.6,7.1-5.7c7.6-2.9,15.2-5.4,23-7.6c11.7-3.3,23.8-6.1,33.8-13
				c-13.1,4.1-26.2,8.2-39.3,12.3c-8.1,2.5-16.4,5.2-22.4,11.2"/>
		</g>
		<g>
			<path class="st4" d="M470.3,779.2c37.5-9.6,84.2-13.6,122-23.6s95.4-31.8,148.9-15.7c42.3,12.7,97.1,56.6,75,87.2
				c-22.1,30.6-122.6,23-186.7,16.7c-64.1-6.3-124.6,2.7-140,4.1C474.2,849.2,443.5,786.1,470.3,779.2z"/>
			<path class="st1" d="M756.4,827.2c0.1,0.9,0.4,2,1.3,2.1c0.6,0,1.1-0.5,1.4-1c1.5-2.3,2.3-5,2.8-7.8c0.2-1.3,0.4-2.9-0.5-4
				c-0.6-0.8-1.9-1.2-2.9-0.8c-1.8,0.8-1.9,4.2-2,5.8C756.4,823.4,756.3,825.3,756.4,827.2z"/>
			<path class="st1" d="M767.9,815.5c0.1,0.5,0.1,1.1,0.4,1.6s0.9,0.8,1.4,0.6c0.4-0.1,0.7-0.5,0.9-0.8c1.3-1.9,2-4.3,2.6-6.6
				c0.4-1.4,0.8-2.9,0-4.2c-0.7-1.1-2-1.3-3.1-0.9c-1.9,0.6-2,2.9-2.2,4.6C767.7,811.7,767.7,813.6,767.9,815.5z"/>
			<path class="st1" d="M764.1,830.1c-1.2,1.8-2,3.7-2.6,5.8c-0.3,1.1-0.2,2.7,0.9,3.1c1,0.4,2-0.7,2.6-1.6c1.6-2.8,2.3-6,2.2-9.2
				C765.9,828.1,764.7,828.9,764.1,830.1"/>
			<path class="st1" d="M710.8,781.9c-0.6,2.1-0.6,4.3-0.2,6.5c0.2,0.8,0.4,1.6,1,2.3c0.5,0.7,1.4,1.1,2.2,0.9
				c1.5-0.3,2-2.2,2.2-3.7c0.3-2.3,0.5-4.7-0.6-6.7c-0.5-0.8-1.3-1.6-2.3-1.6c-1.3,0-2.1,1.4-2.7,2.5"/>
			<path class="st1" d="M717.3,768.9c-0.4,1.6-0.6,3.3-0.1,4.8s1.8,2.9,3.4,3.1c0.6,0.1,1.3,0,1.8-0.4c0.3-0.3,0.5-0.6,0.6-1
				c1.1-2.7,0.6-6.1-1.4-8.3c-0.8-0.9-2.2-1.7-3.3-1.2c-1.1,0.5-1.4,1.7-1.7,2.9"/>
			<path class="st5" d="M552.3,839.9c-2.4,15.7,22,13.8,32.5,12.7c28.8-6,11.8-49.7-2.4-63.8C529.9,780.5,564,810.3,552.3,839.9z"/>
			
				<ellipse transform="matrix(0.124 -0.9923 0.9923 0.124 -279.5179 1231.2903)" class="st5" cx="557.6" cy="774" rx="28.5" ry="32.3"/>
			<path class="st9" d="M557.2,801.7c-0.1,0.4-0.2,1,0,1.4c0.3,0.5,1,0.6,1.6,0.7c6.4,0.3,12.8-1,18.5-3.8c1.7-0.8,3.4-1.8,4.7-3.2
				c1.3-1.4,2.2-3.2,2.1-5.1c0-0.2,0-0.4-0.2-0.6c-0.1-0.2-0.4-0.3-0.6-0.3c-2.2-0.5-4.5,0.2-6.7,0.9c-2.9,1-5.9,2.1-8.8,3.2
				c-1.5,0.6-3,1.2-4.4,1.8c-1.4,0.6-2.9,1.1-4.1,1.8C558.2,799.2,557.5,800.6,557.2,801.7z"/>
			<path class="st1" d="M714,844.3c6-0.4,12-0.8,17.7-2.5c5.7-1.7,11.2-4.9,14.6-9.8c2.2-3.2,3.4-7,4.1-10.7
				c0.6-3.2,0.8-6.6,0.3-9.8c-0.1-0.8-0.3-1.5-0.1-2.3c0.3-0.9,1.1-1.4,1.8-1.9c6.2-4.5,11.3-10.4,14.8-17.3
				c-16.9,3.2-34.2,6.5-49,15.4c-0.5,0.3-0.9,0.6-1.4,0.9c-4.1,2.6-7.9,5.7-11.4,9c-3.5,3.4-6.6,7.1-9.4,11.1s-5.1,8.3-7,12.7
				c-1.3,3-2.3,6-3.2,9.2c2,0.1,3.9,0.2,5.9,0.3c1.3-5.5,2.3-11.1,5.6-15.6c1.7-2.4,4-4.4,6.2-6.2c12.2-10.1,25.7-18.6,40.1-25.1
				c2.4-1.1,5.1-2.2,7.6-1.4c-0.1,4.2-5.7,5.8-7.9,9.4c-2.2,3.6-0.6,8.5-1.8,12.5c-1.3,4.3-5.5,6.9-9.4,9.2
				c-4.6,2.7-9.5,5.4-14.8,5.6c-3.9,0.2-8.3-0.9-11.4,1.5c-2.3,1.8-3,4.9-3,7.7c0,1,0.1,1.9,0.2,2.9c3.6,0.1,7.2,0.2,10.8,0.3
				C713.7,847.6,713.5,845.9,714,844.3z"/>
			<path class="st1" d="M672.7,847.5c2.4,0.2,4.9,0.3,7.4,0.5c4.2-10.3,9.4-20.2,13.6-30.4c6-14.4,10.2-30.3,6.8-45.6
				c-0.1-0.2-0.1-0.5-0.4-0.6c-0.2-0.1-0.5,0.1-0.7,0.2c-5.4,3.6-10.6,7.6-15.3,12.1c-2.6,2.4-5.2,5-7.1,8c-2.1,3.1-3.5,6.6-5,10.1
				c-3.7,9-7.3,18.2-9.1,27.8c-0.5,2.6-0.9,5.3-1.1,8c-0.3,3-0.5,6.1-0.6,9.1c1.8,0.1,3.6,0.3,5.4,0.4c0.9-7.8,1.4-15.7,3-23.4
				c2.3-11.6,7.3-23.4,17-30.3c0.9-0.7,2.1-1.3,3.1-0.8c-2.3,13.9-6.2,27.5-11.6,40.5C676,837.7,673.8,842.5,672.7,847.5z"/>
			<path class="st1" d="M632.6,812.4c0.9,2.1,2.1,4.1,3.4,6.1c5.3,8.4,10.5,17.3,12.3,27c2.9,0.3,5.8,0.5,8.8,0.8
				c-0.4-9.9-3.2-19.8-8-28.5c-3.8-6.9-8.9-13.4-10.2-21.2c-0.8-5.4,0.4-11,3.3-15.6c-6.5,0.8-13,2-18.8,4.8
				c-5.9,2.8-11.1,7.4-13.5,13.5c-1.2,2.9-1.6,6.1-1.8,9.3c-0.6,10.8,2.6,22.5,11,29.2c2.6,2.1,5.7,3.7,8.7,5.1
				c0.6,0.3,1.3,0.6,2,0.9c3.5,0.3,7,0.7,10.7,1c-1.6-3.6-4.4-6.8-7.5-8.9c-2.7-1.8-5.7-3-8.3-4.9c-4.5-3.4-7.2-8.8-7.6-14.4
				c-0.5-5.6,1.1-11.2,3.9-16.1c2.5-4.3,6.4-8.3,11.4-8.9C631.2,798.5,630,805.9,632.6,812.4z"/>
			<path class="st1" d="M617.5,749.6c-0.6,3.1-0.7,6.4-1,9.5c-0.3,2.7-0.7,5.8-2.9,7.4c-2.8,2.2-6.8,1-10.2-0.3
				c-1.3-0.5-2.6-1-3.9-1.5c-1.1-0.4-2.2-0.9-2.9-1.7c-1.1-1.4-0.7-3.5,0.4-4.9s3-1.9,4.8-2c0.9-0.1,2.1,0.3,2.1,1.2
				c0,0.4-0.2,0.8-0.5,1.1c-0.8,1.1-1.6,2.1-2.4,3.2c3.2,0.4,6.3,0.9,9.5,1.3c0.4,0,0.8,0.1,1.1-0.1c0.3-0.2,0.5-0.6,0.6-1
				c1.1-4,1.9-8.2,2.3-12.4c-7.9,2.3-15.3,4.4-22.1,6.2c-0.6,0.2-1.1,0.3-1.7,0.4c-0.4,1.3-0.8,2.7-1.1,4c-0.3,1.1-0.4,2.4,0.1,3.4
				c0.4,0.8,1.2,1.3,1.9,1.7c4.1,2.6,8.3,5.1,12.4,7.7c3.4,2.1,7,4.3,11,4.3c0.7,0,1.4-0.1,1.9-0.4c0.9-0.6,1.2-1.8,1.4-2.8
				c0.7-3.6,1.3-7.2,1.9-10.8c0.5-3.3,0.9-6.5,1.3-9.8c0.2-1.4,0.7-3.1,0.5-4.4c-0.1-0.7-0.6-1-1.2-1.2c-0.1,0-0.1,0-0.2,0
				c-0.8,0.2-1.7,0.5-2.5,0.7C617.8,748.7,617.6,749.1,617.5,749.6z"/>
			<path class="st1" d="M643.4,754.2c0.8,1.6,0.5,3.4,0.6,5.2c0.3,5,4,9.4,8.4,11.7c4.5,2.3,9.7,2.8,14.7,2.8
				c23.3-0.3,46.1-13,58.5-32.6c0.9-1.4,1.8-2.9,2.3-4.6c-4.2-0.8-8.5-1.4-12.7-1.8c-0.5,0.9-1,1.7-1.6,2.6
				c-1.5,2.3-3.5,4.2-5.4,6.2c-6.2,6.2-12.4,12.5-19.8,17.2c-7.4,4.7-16.3,7.6-25,6.5c-2.1-0.3-4.2-0.8-5.9-2.1
				c-1.7-1.2-2.9-3.3-2.6-5.4c0.4-2.5,2.7-5.1,1.3-7.2c-0.7-1-2-1.3-3.2-1.7c-3.5-1.2-6.6-3.7-8.5-6.8c-0.4-0.8-0.8-1.6-1.2-2.4
				c-3.6,0.8-7.1,1.7-10.5,2.6c0.6,1.1,1.5,2.1,2.4,2.9c1.8,1.7,4,3,6,4.6C642.1,752.5,642.9,753.2,643.4,754.2z"/>
			<path class="st1" d="M666.5,749.5c0.3,2-0.5,4.2,0.5,6c0.6,1.1,1.8,1.8,2.9,2.2c3.3,1.1,7,0.4,10-1.2c3.1-1.6,5.6-4,8.1-6.4
				c5-4.8,10-9.7,13.2-15.8c-2.9,0-5.9,0-8.8,0.2c-0.5,0.7-0.9,1.4-1.3,2.1c-2.5,4-5.4,7.7-8.7,11c-2.3,2.4-5.3,4.7-8.6,4.4
				c-0.7-0.1-1.4-0.3-1.9-0.7c-1.5-1.2-1-3.5-0.9-5.4c0.2-3.2-0.9-6.3-2.6-9c-3.4,0.5-6.7,1.1-10.1,1.7
				C660.4,742.5,665.8,744.7,666.5,749.5z"/>
			<path class="st1" d="M734.5,775.7c0,0.8,0.1,1.7,0.6,2.3c0.9,1.4,3.1,1.4,4.5,0.5c1.4-0.9,2.2-2.5,2.8-4
				c4.5-10.2,7.1-21.6,5.1-32.5c-2.1-0.8-4.2-1.4-6.2-2.1c-1.4-0.4-2.7-0.8-4.1-1.1c1.1,4.2,1.5,8.6,1.4,13c-0.1,3-0.5,6-1.1,9
				C736.3,765.7,734.4,770.6,734.5,775.7z"/>
			<path class="st1" d="M750.3,780.3c0.3,0,0.5-0.2,0.8-0.4c9.3-6.6,15.8-16.9,17.8-28.1c0,0,0-0.1,0-0.2c-3.3-1.8-6.6-3.5-10-5
				c0,1.1,0.1,2.1,0,3.2c-0.1,2.7-0.4,5.4-1.1,8.1c-0.7,3-1.7,5.9-3,8.7c-1.8,3.7-4.1,7.1-5.5,10.9
				C748.9,778.7,749.1,780.5,750.3,780.3z"/>
			<path class="st1" d="M767.6,778.8c1.5-0.8,3-1.6,4.6-2.4c3-1.6,6-3.1,8.6-5.3c2-1.7,3.7-3.9,4.6-6.3c0.3-0.7,0.5-1.5,0.6-2.3
				c-2.4-1.7-4.9-3.4-7.5-5.1c-0.4,0.5-0.8,1.2-1.1,1.9c-1.4,2.8-3.2,5.3-5.5,7.4c-2.3,2-5,3.6-7.3,5.5c-2.4,1.9-4.5,4.5-4.9,7.5
				C761.8,781.4,765,780.1,767.6,778.8z"/>
			<path class="st1" d="M538.5,840.7c-0.4-5.6,1-11.1,2.8-16.3c1.8-5.4,4.1-10.7,5.6-16.3c0.2-0.7,0.4-1.3,0.5-2
				c0.4-1.4,0.4-3.4-1.1-3.9c-0.6-0.2-1.2,0-1.8,0.2c-3.1,1.3-5.6,3.7-8.1,6c-8.7,7.7-19.7,13.5-31.3,13.8c-2.8,0.1-6.1-0.6-7.1-3.1
				c-0.8-2,0.2-4.3,1.9-5.7c1.6-1.4,3.7-2.1,5.6-2.9c6.9-2.9,13-7.5,17.7-13.3c1.7-2.1,3.3-4.5,3.4-7.2c0.1-2.7-1.9-5.6-4.6-5.6
				c-1.6,0-2.9,0.9-4.3,1.7c-6,3.6-13.1,5.3-20.1,4.9c-1.9-0.1-3.9-0.4-5.5-1.6c-2.4-1.8-3-5.4-2.2-8.3c0.7-2.6,2.2-4.9,3.7-7.2
				c-4,0.8-8,1.6-12,2.5c-0.4,1-0.8,2-1.1,3c-1.3,4.2-1.6,9.1,0.9,12.8c2,2.9,5.5,4.5,8.9,5.4c5.8,1.5,12,1.5,17.8-0.1
				c0.5,0.7,0.3,1.8-0.4,2.5c-0.6,0.6-1.5,1-2.4,1.3c-8.3,3.2-16.1,9.1-19.2,17.4c-0.9,2.6-1.4,5.6-0.2,8.1c0.7,1.6,2.1,2.9,3.5,4
				c3.5,2.8,7.8,4.9,12.3,5c5.3,0.1,10.3-2.5,14.8-5.4c4.4-3,8.6-6.4,13.6-8.4c-0.3,0.1-0.7,1.2-0.9,1.5c-0.3,0.5-0.5,1.1-0.8,1.6
				c-0.5,1.1-0.9,2.3-1.2,3.5c-0.6,2.4-0.8,4.9-0.5,7.3c0.2,2.5,0.9,5.2,2.1,7.7c3.1-0.3,6.4-0.5,9.7-0.7
				C538.7,842.2,538.5,841.5,538.5,840.7z"/>
		</g>
	</g>
</g>
<g id="голова_1_">
	<path class="st8" d="M422,113.2c0,0-29.1,7.2-38,43.4c-6.6,27,6.8,62.1,30.7,71.8c23.9,9.7,139.4,16.3,145.1,32.2
		s19.7,34.5,33.4,40.5c0,0-8.5-32.1-1-53.2c7.5-21.1,10.7-57.1,0.5-69.7c-10.3-12.6,15.2-91.5-64.4-108.4S425.6,89.6,422,113.2z"/>
	<path class="st4" d="M417.1,206.1c0,0-16.1-12.8-21.3,4.5c-5.2,17.2,18.5,56.9,40.6,46.4c0,0,10.3,32.5,24.1,49.6
		c13.8,17.2,31.4,26.2,54.2,25.8c22.8-0.4,37.5-17,43.4-32.9s19.9-48.7,18.8-67.2c-1.1-18.5,26.7-99.5-78.6-95.4
		C418.5,139.9,417.1,206.1,417.1,206.1z"/>
	<path class="st3" d="M442.2,258.3c1,1.7,2.2,3.6,4.1,4c1-3.6-0.3-7.3-1.6-10.8c-1.3-3.6-2.7-7.1-4-10.7c-0.6-1.5-1.4-3.3-3.4-3
		c-1.4,0.2-1.8,1.5-1.9,2.8c-0.1,3.9,1.7,8.1,3.4,11.5C439.9,254.2,441,256.3,442.2,258.3z"/>
	<path class="st8" d="M462.4,155.9c0,0-1.2,29.5-9.6,43.8c-8.4,14.3-20.5,23.1-11.2,46c0,0-17.6-10-17.9-23.2
		c0,0-17.8-16.1-12.9-47.1c6.5-41.8,41.1-46.5,41.1-46.5L462.4,155.9z"/>
	<path class="st10" d="M415.2,219.4c5,2.5,10.2,7.9,14.7,19.7c0,0,0,0,0,0c0,0,0,0.1,0,0.1c0.5,1.2,0.9,2.5,1.4,3.9
		c0.2,0.6-0.1,1.2-0.7,1.4c-0.1,0-0.1,0-0.2,0c-0.5,0.1-1-0.3-1.2-0.8c-0.4-1.3-0.8-2.5-1.3-3.7c-5.7-10.2-16.7-5.7-17-6.2
		c-0.3-0.5,5.8-6.4,12-2.3c-8.8-15.4-21.5-12.9-21.6-13.5C401.4,217.5,409.1,216.4,415.2,219.4z"/>
	<path class="st10" d="M503.4,198.6c-3.6,3.9-17.2-2.6-25.2-2.6c-10.6,0-23.4,10.1-25.5,8c-1.4-1.5,12.4-17.2,28.9-16.7
		C498.1,187.7,507.3,194.3,503.4,198.6z"/>
	
		<ellipse transform="matrix(8.784025e-02 -0.9961 0.9961 8.784025e-02 143.5407 650.4302)" class="st11" cx="426.9" cy="246.8" rx="7.7" ry="7.7"/>
	<circle class="st11" cx="403.7" cy="213" r="3.9"/>
	<g>
		<path class="st11" d="M469.8,201c-4.1-0.4-7.2-4-6.8-8.2c0.4-4.1,4-7.2,8.2-6.8c1.4,0.1,3.1,1.2,4.2,2.1l-2.2,0.6
			c-0.7-0.4-1.4-0.6-2.2-0.7c-3-0.3-5.7,2-6,5c-0.3,3,2,5.7,5,6c2,0.2,4-0.8,5.1-2.5l2.3-0.3C476.2,199.3,472.9,201.2,469.8,201z"/>
	</g>
	<g>
		<path class="st11" d="M461.2,204.7c-4.1-0.4-7.2-4-6.8-8.2c0.4-4.1,4-7.2,8.2-6.8c1.4,0.1,2.9,0.9,4.1,1.7l-1.8,1.2
			c-0.8-0.6-1.5-0.9-2.5-0.9c-3-0.3-5.7,2-6,5c-0.3,3,2,5.7,5,6c2.3,0.2,5.1-0.6,5.7-3.8l1.9-0.8C468.1,202.4,464.3,205,461.2,204.7
			z"/>
	</g>
	<g>
		<path class="st11" d="M527.9,266.3c-0.4,4.1-4,7.2-8.2,6.8s-7.2-4-6.8-8.2c0.1-1.4,0.9-2.9,1.7-4.1l1.2,1.8
			c-0.6,0.8-0.9,1.5-0.9,2.5c-0.3,3,2.1,4.7,5.1,5c3,0.3,5.6-1,5.9-4L527.9,266.3L527.9,266.3z"/>
	</g>
	<path class="st3" d="M532.8,310c-1.3,2.2-8.6-3.6-17-4.3c-8.6-0.8-17.5,5.1-20.4,2.8s7.5-9.4,19.7-8.8
		C525.4,300.2,535.1,306.2,532.8,310z"/>
	<g>
		<path class="st10" d="M552.5,188.8c-16.5-0.2-26.1,6-22.3,10.5c3.5,4,17.3-1.9,25.3-1.6c0,0,0.1,0,0.1,0l2.8-8.1
			C556.5,189.1,554.5,188.8,552.5,188.8z"/>
		<path class="st10" d="M562.5,190.8l-2.7,7.5c9.4,2.4,19,10.2,20.8,8.4C581.8,205.6,573.9,195.3,562.5,190.8z"/>
	</g>
	
		<ellipse transform="matrix(8.784026e-02 -0.9961 0.9961 8.784026e-02 200.9074 691.7665)" class="st10" cx="478.2" cy="236.2" rx="2" ry="2"/>
	
		<ellipse transform="matrix(8.784026e-02 -0.9961 0.9961 8.784026e-02 263.6926 767.0857)" class="st10" cx="550.7" cy="239.6" rx="2" ry="1.9"/>
	<path class="st12" d="M502.1,252.9c-0.7,0.6-1.5,1.4-2,2.2c-0.5,0.8-0.7,1.7-0.6,2.4c0.1,0.8,0.6,1.7,1.1,2.2
		c0.6,0.6,1.3,0.8,2.2,0.9c0.9,0,2-0.1,3-0.4l3.3-0.9c0.6-0.1,1.2-0.3,1.9-0.3c0.8-0.1,1.5,0.1,2.1,0.3c1.2,0.4,2.3,0.9,3.3,1.3
		c2.1,0.9,4.2,1.9,6.3,2.8c2.1,0.8,4.2,1.6,6.3,1.9c1.1,0.1,2.1,0.2,3,0c0.9-0.2,1.8-0.7,2.5-1.3c1.5-1.3,2.4-3.4,2.9-5.4l0-0.1
		c0.1-0.5,0.7-0.9,1.2-0.7c0.5,0.1,0.8,0.6,0.7,1.2c-0.3,1.3-0.7,2.4-1.2,3.5c-0.6,1.1-1.3,2.2-2.2,3.1c-0.9,0.9-2.2,1.6-3.5,1.9
		c-0.3,0.1-0.7,0.2-1,0.2l-1,0.1c-0.6,0-1.3-0.1-1.9-0.1c-4.9-0.7-9.1-2.8-13.3-4.6c-1-0.4-2.1-0.9-3.1-1.2
		c-0.5-0.2-0.9-0.2-1.3-0.2c-0.4,0-0.9,0.1-1.4,0.3c-2.1,0.5-4.3,1.5-7.1,1.5c-1.4,0-2.9-0.5-4-1.6c-0.2-0.3-0.5-0.6-0.7-0.8
		c-0.2-0.3-0.3-0.6-0.5-0.9c-0.3-0.6-0.5-1.3-0.6-2.1c-0.2-1.5,0.4-3,1.2-4.1c0.4-0.5,0.8-1,1.3-1.4c0.5-0.4,1-0.8,1.6-1.1
		c0.5-0.3,1.1-0.1,1.4,0.4C502.6,252,502.5,252.6,502.1,252.9L502.1,252.9z"/>
	<path class="st8" d="M450.4,145.7c0,0,3.9,21.2,40.9,21s58.9-6.1,75.5,14.9s-0.4,56.8,23.6,73c0,0,41.4-84.7,6-134.8
		S428.9,81.5,450.4,145.7z"/>
	<path class="st7" d="M605.1,136.3c-0.2,1.3-0.7,2.5-1.4,3.6c-7.8-5.4-15.1-11.7-21.7-18.5c8,8.5,15.4,18.6,16.5,30.3
		c0.3,2.9,0.1,5.8-0.7,8.6c-0.9,2.9-2.5,5.5-4.7,7.5c-0.8-1.2-2.8-1.2-3.5,0c-0.8,1.2-0.2,2.8-0.8,4.2c-0.5,1.3-2.3,1.9-3.6,1.3
		c0.4,3.6,0.4,7.3,0,10.9c-7.5-9.4-15.1-18.9-25.2-25.4c3.1,7,6.3,14.4,6.3,22.1c0.2,0.3,0.4,0.5,0.7,0.8c3.8,4.8,5.9,10.5,7.1,16.5
		c0-0.2,0.1-0.4,0.1-0.6c0.5-2.2,2.3-5,4.4-4.1c1.1,0.5,1.5,1.8,2.4,2.7c0.8,0.9,2.8,0.9,2.8-0.3c1.1,2.3,1.8,4.8,2.1,7.4
		c1.5-2.6,2.7-5.5,3.6-8.4c2.3,5.2,4.2,10.5,5.9,15.9c5.6-10.3,1.5-23.3,5.4-34.4c1.6,2,3.2,4,4.8,6c0.9-6.5,1.8-12.9,2.7-19.4
		c0.9,1.6,1.9,3.3,2.8,4.9C610.5,157.1,608.8,146.4,605.1,136.3z"/>
	<path class="st7" d="M439.1,208.6c-1.8-0.9-2.2-3.4-1.8-5.5c0.4-2,1.4-4,1.3-6c-0.9,1.5-2.2,2.8-3.7,3.8c0.4-5.5,1.5-10.9,3.2-16.2
		c-4.2,4.8-8.1,9.9-11.6,15.3c-1.5-11.8,0.1-24,4.7-35c-3.9,6.2-7,12.9-9,20c-0.8,2.7-1.6,5.8-3.9,7.5c-1.2,0.8-2.4,1.1-3.1,2.4
		c-0.8,1.4-1.9,1.8-3.3,0.8c-0.4-0.3-0.7-0.5-1.1-0.6c0.7,4.3,1.7,8.1,3,11.4c1.4,0.2,2.9,0.3,4.2,1c0.1-1.1,0.3-2.2,0.5-3.4
		c3,2.8,5,6.7,5.3,10.8c-0.2-3.5,0.6-7,2.2-10.2c2,7.7,3.3,15.6,4,23.6c0.9-5,3.6-9.6,7.3-12.9c0.1,2.6,0.9,5.2,2.2,7.5
		c0.9-3.2,2.4-6.1,4.1-9c0.1-1.4,0.3-2.8,0.5-4.2C442.6,208.8,440.6,209.4,439.1,208.6z"/>
	<path class="st7" d="M423.9,135.7c1.4,3-0.9,7.4,1.7,9.5c7.9,2.7,12-0.5,17.5,8c1.6,1.2,3.8,1.2,5.6,2.1c2.1,1,3.4,3.1,5,4.8
		c1.1,1.2,7.9,3.6,8.3,0c-2.2-10.8-7.1-20.4-8.7-31.4c-1.9-6,0.1-15-4.9-19.3c-3.4,9.5-0.7,20.4-0.2,30.3
		c-8.6-3.2-11.2-13.2-12.6-21.5c-0.3,1.5-0.7,3-1,4.5c-6.9-1.7-7.8-9.2-11.6-13.8c-0.4,1.5-0.6,2.9-0.8,4.4c0,0-8.9,2.2-18.4,10.4
		c3.7,0.7,7.5,1.4,11.2,2.2c-5.4,3.5-11.1,7.6-12.8,13.7C408.6,137.8,418.3,128.6,423.9,135.7z"/>
	<path class="st7" d="M423.9,154c-7.7,1.4-14,6.9-19.7,12.2c0.1-4,0.8-8.1,2.3-11.9c-3,1.2-6,2.2-9.1,2.9c-0.3-0.8-0.6-1.5-1-2.3
		c-0.9,0.5-1.8,0.9-2.7,1.4c-0.8-1.2-2.4-1.8-3.8-1.3c0.2-0.1,0.5-2,0.6-2.3c0.2-0.8,0.4-1.6,0.6-2.4c0.4-1.6,0.8-3.2,1.2-4.8
		c0.8-3.2,1.7-6.5,2.5-9.7c0.4-1.4,0.9-2.9,1.2-4.3c-4.9,6.2-9.3,14.4-11.9,25.1c-0.4,1.8-0.8,3.6-1.1,5.4c0,0,0.1-0.1,0.1-0.1
		c-0.2,3.9-0.4,7.8-0.7,11.7c3.9-0.9,7.6-2.2,11.2-3.8c-0.1,1.6-0.2,3.2-0.2,4.7c2.3,0.6,4.7,0.5,7-0.2c-3.2,7.6-4.6,16-4.2,24.3
		c4.8-10.8,9.9-22.2,19.5-29.2c-0.8-2.9,0.8-5.9,2.7-8.3C420.3,158.8,422.7,156.8,423.9,154z"/>
	<path class="st11" d="M554.7,177.9c6.1,2.6,25.1-46.2,18.7-49.3C566.9,125.5,547.3,174.8,554.7,177.9z"/>
	<path class="st11" d="M567,190.4c6.1,2.6,25.1-46.2,18.7-49.3C579.2,138,559.7,187.2,567,190.4z"/>
	<g>
		<path class="st3" d="M496.9,216.3c-1.2,2.2-10.6-2.6-16.8-3.6c-6.2-1-16.9,5.9-19.8,3.7c-2.9-2.1,9.1-12.3,19.1-11.3
			C489.6,206.3,499,212.4,496.9,216.3z"/>
		<path class="st13" d="M498.3,224.5c0,0-5.1-11.6-16-12.3c-15.8-1.1-22.8,10.1-22.8,10.1s3.3,5.3,17.2,6.3
			C490.7,229.5,498.3,224.5,498.3,224.5z"/>
		
			<ellipse transform="matrix(8.784026e-02 -0.9961 0.9961 8.784026e-02 218.4265 687.4357)" class="st10" cx="484.6" cy="224.5" rx="7.7" ry="7.6"/>
		<path class="st3" d="M498.3,224.5c0,0-1.5-14.2-18-15.4s-20.8,13.1-20.8,13.1s0.2,1.1,12.3-0.1c8.1-0.7,12.3-2.6,17.5-2
			C493.8,220.7,498.3,224.5,498.3,224.5z"/>
		<path class="st10" d="M459.5,222.2c0,0,5.1,5.2,19.1,5.9c10.4,0.5,19.8-3.6,19.8-3.6s-4.9,9.5-20.9,8.3
			C461.7,231.6,459.5,222.2,459.5,222.2z"/>
		<path class="st12" d="M459.9,214.4c8.4-10.3,25.7-12.8,35.4-3.8c0.6,0.6,3,3.5,1.7,4.1c-9.7-8.7-26.7-9.1-36.3,0.3
			C460.3,215.5,459.5,214.9,459.9,214.4z"/>
		<path class="st10" d="M489.4,217.9c-5.2-0.7-11,0.8-17.9,2.2c-7.5,1.6-10.7,1.6-11.8,1.2l-0.3,0.9c0,0,0.3,1.7,12.3,0.6
			c8.1-0.7,12-2.6,17.2-1.9c4.5,0.6,9.3,3.6,9.3,3.6s0.4-0.1-0.5-2.3C495.9,220.4,492.4,218.3,489.4,217.9z"/>
	</g>
	<g>
		<path class="st3" d="M567,220.3c-1.3,2.1-10.5-3.1-16.6-4.4c-6.1-1.3-17.1,5.1-19.9,2.8c-2.8-2.2,9.7-11.9,19.6-10.4
			C560.1,209.9,569.2,216.5,567,220.3z"/>
		<path class="st13" d="M568,228.5c0,0-4.6-11.8-15.4-13.1c-15.7-1.9-23.3,9-23.3,9s3,5.4,16.9,7.1C560.1,233.2,568,228.5,568,228.5
			z"/>
		
			<ellipse transform="matrix(0.1347 -0.9909 0.9909 0.1347 253.8208 746.378)" class="st10" cx="554.2" cy="227.9" rx="7.7" ry="7.6"/>
		<path class="st3" d="M568,228.5c0,0-0.8-14.3-17.3-16.2c-16.4-2-21.4,12.1-21.4,12.1s0.2,1.1,12.3,0.5c8.2-0.4,12.4-2.1,17.6-1.1
			C563.6,224.6,568,228.5,568,228.5z"/>
		<path class="st10" d="M529.3,224.4c0,0,4.8,5.4,18.8,6.8c10.3,1,19.9-2.6,19.9-2.6s-5.3,9.2-21.3,7.3
			C531,234,529.3,224.4,529.3,224.4z"/>
		<path class="st12" d="M530.1,216.7c8.8-9.9,26.2-11.6,35.6-2.1c0.6,0.6,2.8,3.6,1.5,4.2c-9.3-9.2-26.3-10.3-36.3-1.5
			C530.4,217.8,529.7,217.1,530.1,216.7z"/>
		<path class="st10" d="M559.4,221.5c-5.2-0.9-11,0.2-18,1.4c-7.6,1.2-10.7,1.1-11.8,0.6l-0.4,0.9c0,0,0.2,1.8,12.3,1.2
			c8.2-0.4,12.1-2.1,17.3-1.1c4.4,0.8,9.1,4,9.1,4s0.4-0.1-0.4-2.4C565.7,224.3,562.3,222,559.4,221.5z"/>
	</g>
	<g>
		<path class="st13" d="M483.5,287.2l16,6.2l26.2,3.6l11.8-4.8c0,0,9.3-4.6,9.2-4.6c-6.4-0.7-16.4-5.3-17-5.1
			c-0.7,0.2-29.5-0.4-29.5-0.4L483.5,287.2z"/>
		<path class="st2" d="M504.3,302c5.1,1.2,14.4,2.7,23.9-0.4c3.8-1.2,9.8-6.6,14.3-9.9c3.3-2.4,6.6-3.1,6-3.8
			c-0.7-0.7-0.4-1.8-5-0.5c-5.4,1.6-15.9,3.1-26.2,2.8c-13.4-0.4-25.6-1.9-31.5-3.3c-6-1.5-5.6,0.2-5.8,0.7c0,0,5.8,1.6,8.8,4.4
			C492.5,295.5,497.6,300.4,504.3,302z"/>
		<polygon class="st2" points="519.8,293.2 516.9,293.1 517.3,284.5 520.3,284.7 		"/>
		<path class="st2" d="M478.2,288.7c0.6,1.3,10.3-4.4,19.7-3.2c9.4,1.2,13.2,1.8,21.9,2.2c8.6,0.4,17.9-1,20.6-1
			c2.7,0,11.4,3.4,10.3,1.9c-1-1.5-6.3-5.1-7.9-6.7c-1.6-1.6-5.3-7.6-11.8-7.9c-6.5-0.3-9,4.2-11.7,4c-2.6-0.3-4-4.2-14.4-4.5
			c-8.8-0.3-12.8,4.6-16,6.7C486.2,282,477.7,287.6,478.2,288.7z"/>
	</g>
	<path class="st10" d="M533.1,203.8c-3.4,8-2.2,14.1-0.6,22.1c0,0,7,26.8,7,26.8c-2.8,7.4-11-30.5-11.6-33.8
		C527.2,214.8,531.1,198,533.1,203.8z"/>
</g>
</svg>
