<?xml version="1.0" encoding="utf-8"?>
<!-- Generator: Adobe Illustrator 25.2.0, SVG Export Plug-In . SVG Version: 6.00 Build 0)  -->
<svg version="1.1" id="Layer_1" xmlns="http://www.w3.org/2000/svg" xmlns:xlink="http://www.w3.org/1999/xlink" x="0px" y="0px"
	 viewBox="0 0 998.2 973.2" style="enable-background:new 0 0 998.2 973.2;" xml:space="preserve">
<style type="text/css">
	.st0{fill:#146C8A;}
	.st1{fill:#264A56;}
	.st2{fill:#15272D;}
	.st3{fill:#4B7887;}
	.st4{fill:#5B99AE;}
	.st5{fill:#FF8580;}
	.st6{fill:#FF9F78;}
	.st7{fill:#FFD5B3;}
	.st8{fill:#FF9461;}
	.st9{fill:#FF706E;}
	.st10{fill:#1B2334;}
	.st11{fill:#FF7472;}
	.st12{fill:#FFFFFF;}
</style>
<g id="тело_1_">
	<g id="наушники_сзади">
		<path class="st0" d="M414.3,317.4c0,0,10.2-25.9,67.9-20.6s83.6,70.9,83.6,70.9l21.7-25l-62.9-65.4l-43.6-7.6l-50.6,4.1l-20,11.2
			L414.3,317.4z"/>
		<path class="st1" d="M435.8,267.8c-10.2,1.9-27.7,7.3-29.7,19.4c-2,12.1-5.4,26.3-5.4,26.3l35.6,24.9l6.8-9.4
			c0,0-36.1-20.2-28.9-41.8c7.3-21.6,77.2-17.4,93.5-12.2c19.4,6.1,51,31,69.8,65.4l12.4,2.8c0,0-40.6-64-79.4-73.4
			C486,263.8,446,265.8,435.8,267.8z"/>
	</g>
	<g id="предплечье_1_">
		<path class="st2" d="M678.7,394.7c37.2-3.3,67.9,115.4,84.8,159s55.5,159.7,41.4,214.1c-14.1,54.4-80.6,51.5-120.3,6
			s-25.2-91.8-41.1-152.8S599.8,401.7,678.7,394.7z"/>
		<path class="st2" d="M665.6,714c10.4-9.6,25.1-12.6,39.2-14.3c30.8-3.7,62.8-3.1,92,7.3c7.7,2.7,16,7,18.5,14.8
			c1.2,3.8,0.8,7.9,1.3,11.8c0.8,6.7,8.3,11.2,11,17.3c3.7,8.3,3,16.1,5.1,25c3.2,13.6,3.2,31.7-6,42.2
			c-6.6,7.6-16.8,10.7-26.6,13.1c-9.7,2.4-19.8,4.5-29.7,2.8c-22.2-3.8-36.8-24.9-56.5-35.8c-9.7-5.3-20.6-8.2-30-13.9
			c-5.1-3.1-9.7-6.9-13.6-11.4c-2-2.2-3.9-4.6-5.4-7.2c-1.7-2.9-1.8-5.7-2.5-8.9c-0.9-4.2-3.3-7.7-4.8-11.6
			c-1.9-5.1-2.2-10.4-0.9-15.7C658.1,723.6,661.2,718.1,665.6,714z"/>
		<path class="st1" d="M682.9,709.7c13.8-13.8,33.5-20.7,53-21.7c19.5-1,38.9,3.6,57.2,10.2c1.8-1.7,1.5-4.9,0-6.9s-4-3.1-6.3-4
			c-32-12.9-69.3-11.9-100.5,2.7c1.9-0.2,3.3-2.3,2.8-4.1c-11.8-1.1-22.8,8.5-26,20c-2.5,9.3-0.7,19.2,3.1,27.9c0.3,0.7,2,5.2,2.8,5
			s0.7-3.8,0.8-4.3c0.5-4.4,1.9-8.6,4-12.5C676.2,717.4,679.3,713.3,682.9,709.7z"/>
		<path class="st1" d="M781.3,726.3c5.3,3.4,9.6,8.1,15.2,11.1c4.4,2.3,9.3,3.5,14.1,4.4c0.6-6.6,0.8-14.3-4.3-18.4
			c-2.1-1.7-4.7-2.4-7.2-3.1c-15.8-4.1-32.2-6-48.5-5.6c-2.2,0-8.3-0.2-8.7,2.8c-0.4,3.2,5.3,1.6,7.1,1.6c7.3-0.2,14.7,0.2,21.7,2.3
			C774.3,722.6,778,724.2,781.3,726.3z"/>
	</g>
	<g id="предплечье">
		<path class="st2" d="M304.5,407.1c-58.5-17.3-91,119-104.8,163.7s-44.4,163.2-26.5,216.5s83.9,45.8,120.5-2.3s22.6-27.2,34.2-89.2
			C339.4,633.8,399.4,435.2,304.5,407.1z"/>
	</g>
	<g>
		<path id="тело_2_" class="st2" d="M435.2,253.6c-9,6.6-2.8,17.5-3.6,28.6s-22.2,43.3-21.1,49.4c0,0-101.2,30.4-120.8,50
			c-19.7,19.6-26.6,23.2-40.1,63.9c-13.6,40.7,68.4,60.6,69.9,80.2c1.5,19.6,5.1,39.2,20.2,64.8c0,0-40.7,228.5,1.5,243.6
			c42.2,15.1,249,31.9,314.2-8.6c29.3-18.2-10.1-192.7-5.6-198.8s33.2-33.2,21.1-108.6c0,0,60.3-49.8,51.3-75.4
			c-9-25.6-27.2-58.8-54.3-70.9c-27.2-12.1-103.2-40.8-109.8-45.3c2.8-3.5-5.6-10.9-7.1-36.7C550.3,281.6,435.2,253.6,435.2,253.6z"
			/>
		<path class="st1" d="M475.4,348.2c9,3,18.4,4,27.8,4.7c2.1,0.2,4.2,0.3,6.2-0.1c2.1-0.4,4-1.4,6-2.2c6-2.6,12.4-4.4,18-7.7
			c6.1-3.6,11.6-9.3,18.7-9.9c0.3,0,0.7,0,1,0.1c1.1,0.4,1,2.1,0.5,3.1c-1.8,3.6-5.9,5.6-8.5,8.7c-1.8,2.1-2.9,4.8-4.6,7
			c-2.9,3.7-7.4,5.8-11.7,7.8c-3.8,1.7-7.6,3.4-11.7,4.3c-4.5,0.9-9.2,0.7-13.9,0.5c-5-0.2-10.1-0.5-15.1-0.7c-3.4-0.1-6.7-0.3-10-1
			c-7.2-1.4-13.7-5-20-8.6c-14.2-8-28.7-16.1-39.5-28.4c-1-1.1-3.7-4.2-1.5-5.4c1-0.5,2.1,0,3,0.3c1.1,0.3,2.2,0.7,3.3,1.1
			c4.4,1.5,8.7,3.5,12.8,5.7c4.2,2.2,8.2,4.7,12.3,7.1c4.1,2.5,8.2,4.9,12.4,7.1c4.1,2.2,8.4,4.2,12.9,5.8
			C474.4,347.9,474.9,348,475.4,348.2z"/>
		<path class="st1" d="M339.2,569c16.8,40.1,66.2,64,95.8,70.9c-38.8,0.9-85.9-16.4-102.1-53.5C315.5,538.2,296.7,457.3,339.2,569z"
			/>
		<path class="st1" d="M662.1,466.9c-0.6,4.6-0.3,9.2,0,13.8c1.3,20.7,2.6,41.4,3.9,62.1c0.6,9.9,1.2,19.8,0.1,29.6
			s-4.1,19.7-10,27.6c-3.1,4.1-6.8,7.6-10.6,11.1c-6,5.5-11.9,11-17.8,16.5c3.2,1.5,7,0.8,10.3-0.4c16.6-6,27.7-22.4,31.9-39.5
			c2.2-9.1,2.8-18.4,3.3-27.7c1-15.6,1.9-31.2,2.9-46.8c-1.1,2.9-2.2,5.8-3.4,8.7c-1.6-4.9-0.3-10.2,1-15.2
			c3.1-12.3,5.8-24.8,5.4-37.5c-2.5,0.3-3.8,3.1-4.8,5.5s-2.8,5-5.3,4.6c1.5-9.4,3-18.8,4.5-28.2c0.3-1.7,0.4-3.6-0.2-5.3
			c-0.3-0.7-0.7-1.5-1.4-1.9c-1-0.5-1.4,1.2-1.8,1.9c-2.2,4.3-4.4,8.7-5.9,13.3C663.1,461.5,662.5,464.2,662.1,466.9z"/>
		<path class="st1" d="M653.4,685.4c3.1,15,6.3,30.1,9.4,45.1c0.5,2.5,1.2,5.2,3.4,6.5c2.9,1.7,6.8-0.6,8-3.6c1.3-3.1,0.7-6.6,0-9.8
			c-3.7-17.3-10.2-34.2-11.6-51.8c-0.7-9.3,0-18.8-2.5-27.7c-1.5-5.5-4.2-10.7-7.3-15.5c-1.4-2.2-3-5.4-5-7.1
			c-2.8-2.4-2.2,2.9-2.2,4.5c-0.3,12.9,1.3,25.7,3.6,38.3C650.5,671.3,651.9,678.4,653.4,685.4z"/>
		<path class="st1" d="M337,563.3c3.9,12.6,3.5,26.4,1.1,39.4c-7.1,38.6-10.6,61.5-16.1,122.5c3.4,5.6,17.5,13.1,20.5,7.2
			s-0.2-22.4-0.1-29c0.1-7.9,2-15.6,3.6-23.3c5.3-26.4,5.9-53.7,1.9-80.2c-1.3-8.3-3.4-17.2-9.8-22.7"/>
		<path class="st1" d="M329.7,467.5c-1.2-6.2-4.4-14-10.7-13.6c2.2,19.6,4.4,39.1,6.7,58.7c-1.5-6.5-3.9-12.7-7.1-18.5
			c-1.1-2-3.8-4.2-5.3-2.5c-0.4,0.5-0.6,1.2-0.7,1.8c-2,12,5.3,23.3,8.1,35c2.5,10.5,1.3,21.5,3.7,32c0.7,3.3,2.2,10.6,5.4,12.4
			c2.9,1.6,7.1,6.7,8.2,4.4c2-4.2-0.1-18.3-0.1-22.9c0-5.6-0.1-11.2-0.2-16.8c-0.4-11.2-1.2-22.3-2.4-33.5
			C333.9,491.9,332.1,479.6,329.7,467.5z"/>
	</g>
	<g id="наушники">
		<g>
			<path class="st1" d="M414.3,287.2c0.1-0.2,0.2-0.5,0.3-0.7c-2-1.7-4.1-3.4-6.1-5.1c-1.2,1.7-2,3.6-2.4,5.8
				c-2,12.1-5.4,26.3-5.4,26.3l46.7,32.6l6.8-9.4C454.3,336.7,407.6,313.8,414.3,287.2z"/>
			<path class="st1" d="M564.3,309.2l-4,5.7c6.4,7.7,12.4,16.2,17.5,25.5l12.4,2.8C590.1,343.1,579.6,326.7,564.3,309.2z"/>
		</g>
		<path class="st0" d="M423,367.7l17.9-30.3c0,0-42.9-23.9-34.8-50.2l-14.2,36.4C391.9,323.6,383.2,341.8,423,367.7z"/>
		<path class="st0" d="M557.6,318.4c0,0-9.7,3.6-10.4,3.9l-0.1,0v0c-19.1,8.7-27,35.3-17.6,60.8c9.4,25.5,32.8,40.6,53,34.7L593,414
			c20.7-7.6,29.5-35.3,19.8-61.7C603,325.9,578.3,310.7,557.6,318.4z"/>
		<path class="st0" d="M508.9,362.6c-12.6-27.3-39.1-39.8-56.5-32.4l-10.4,4.4c-17.5,7.4-21.4,35.5-8.8,62.8
			c12.3,26.6,35.7,42.7,53.1,36.6l-6.4,1.6l6.7-1.7c0.3-0.1,0.7-0.2,1-0.4c0.3-0.1,0.5-0.3,0.8-0.4l9.6-4
			C515.4,421.8,521.5,389.9,508.9,362.6z"/>
		<path class="st3" d="M557.7,372.9c4.6,12.4,14.3,20.6,23.2,20.4c3.8-7.5,4.2-18.4,0.2-29.2c-3.9-10.6-11.2-18.6-18.8-21.9
			C555.2,347.6,553,360.4,557.7,372.9z"/>
		
			<ellipse transform="matrix(0.8981 -0.4399 0.4399 0.8981 -125.1836 238.7991)" class="st0" cx="452.6" cy="389.5" rx="28.3" ry="43.8"/>
		<path class="st1" d="M428.1,350.4c-0.7,1.2-1.2,2.6-2,3.8c-0.5,0.7-1,1.3-1.4,2c-1.4,2.2-1.9,5.2-4.2,6.2
			c-1.7-2.7-1.8-6.4-0.1-9.1c0.6-1,1.4-1.9,2.2-2.8c1.3-1.4,2.6-2.9,3.9-4.3c1.4-1.5,4.1-5.1,6.5-4.6c0.8,0.2,1.8,0.8,1.3,1.7
			c-0.3,0.5-1.1,1-1.5,1.5c-0.5,0.5-1.1,1-1.5,1.6C429.9,347.6,428.9,348.9,428.1,350.4z"/>
		<path class="st1" d="M538.3,354.2c-0.8,2.7-1.1,5.6-1.1,8.4c0.1,12.4,5,24.6,13.6,33.5c3.7,3.9,8.3,7.2,13.7,8
			c7.3,1,15.2-3.9,16.9-11.1c-3.5-2.7-7.7-4.5-12.1-5.2c-1.5-0.3-3.1-0.4-4.4-1.3c-2.5-1.6-2.8-5.1-3.6-8c-1.2-4.4-4.2-8.1-6.3-12.2
			s-3.2-9.3-0.7-13.1c1.8-2.8,5-4.3,6.5-7.3c1.2-2.4,0.4-5-2.4-5.4c-5.5-0.8-11.5,2-15.3,5.8C540.9,348.6,539.2,351.3,538.3,354.2z"
			/>
		<path class="st1" d="M470.3,372.2c2.5,5.4,3.7,11.3,6,16.8c1.9,4.5,4.5,8.9,5.5,13.7c1.6,8-1.6,16.1-4.7,23.7
			c4.8-1.6,7.9-6.3,9.7-11c2.8-7.7,2.9-16.3,1.2-24.3c-1.7-8-5-15.6-8.9-22.9c-3.9-7.3-8.6-14.6-15.7-18.8c-6.1-3.6-13.4-4.6-20.4-4
			c-1.4,0.1-3,0.4-4.1,1.3c-0.4,0.3-1.2,1-1.2,1.5c0,0.8,0.9,0.7,1.6,0.8c3.2,0.5,6.4,1.4,9.4,2.6c6.1,2.5,11.5,6.5,15.8,11.4
			C466.8,365.7,468.8,368.9,470.3,372.2z"/>
	</g>
	<g>
		<path class="st2" d="M313,866.3c-31.4,9.9-32.8-4.3-67.2-2.8c-19.6-2-45.9-21.1-57.5-36.8c-3.7-5.7-5.9-12.3-9.6-18
			c-6-9-10.5-15.6-13.5-26c-4.9-18.9,7.1-33.4,21.8-42.2c30.2-21.8,65.9-32.6,102.7-37.1c18.7-3.3,29.9-0.7,41.4,13.9
			c27.9,7.8,59.3,17.9,72.6,45.7c12.9,21.7-13.5,37.9-25.2,53.3c-11.1,15.2-27.9,22.3-42.9,32.5C325.3,855.4,326.3,862.1,313,866.3z
			"/>
		<path class="st1" d="M336.8,758.3c-8,2.8-15.5,6.7-23,10.6c-14.3,7.5-28.6,15-42.9,22.5c-8.5,4.5-17.3,9.2-22.7,17.2
			c-4.2,6.2-5.9,13.8-7,21.2c-0.8,5.2-1.3,10.8,1.2,15.4c4.2,7.8,15.2,9.4,23.7,6.8c4-1.2,8.2-3.2,12.2-1.9c2,0.7,3.7,2.1,5.5,3.2
			c11.2,7.2,26.3,3.8,38.1-2.5c15.6-8.3,28.5-20.9,42.2-32c11.1-8.9,23-17,35.4-24.1c3.9-2.2,8-4.4,11-7.7c2.1-2.3,3.7-5.2,4.2-8.3
			c0.5-3.7-1.1-6.7-3-9.7c-2.2-3.7-3.3-7.9-7.6-9.6c-6.5-2.6-14-3.8-21-4.8c-7.3-1-14.6-1.5-22-1
			C352.9,754.1,344.7,755.6,336.8,758.3z"/>
		<path class="st1" d="M316.7,729.6c-21.7,8.6-43.9,17.7-60.4,34.2c-8,8-14.6,17.7-24.4,23.5c-2.6,1.5-5.5,2.8-8.5,2.5
			s-5.9-2.7-6-5.7c0-2.5,1.8-4.6,3.6-6.4c17.1-17.4,36.7-32.5,58.8-43c11.9-5.7,24.5-9.9,37.5-12.4c6.5-1.2,13-2,19.6-2.3
			c1.7-0.1,3.3-0.1,5-0.1c1.1,0,2.8-0.3,3.5,0.8c0.8,1.3-0.4,1.2-1.5,1.2c-1.7,0.1-3.4,0.3-5.1,0.6
			C331.2,724,323.9,726.8,316.7,729.6z"/>
		<path class="st1" d="M264.4,711.8c-20.7,7.3-40.4,17.7-61.8,22.5c-1.6,0.3-3.4,0.6-4.8-0.2c-1.7-1.1-1.9-3.7-1-5.5
			c0.9-1.8,2.7-3,4.4-4.2c6.9-4.5,14.2-8.3,21.7-11.6c7.6-3.2,15.4-5.8,23.5-7.8c8-2,16.2-3.2,24.4-3.9c8.3-0.6,16.6-0.6,24.8,0.2
			c7.6,0.7,16.1,1.5,23.3,4.2c0.4,0.1,0.8,0.3,1.1,0.5c-3.3-0.4-6.6-1.2-10-1.5c-3.7-0.3-7.5-0.3-11.2-0.1c-7.5,0.4-15,1.8-22.2,3.7
			C272.6,709,268.5,710.3,264.4,711.8z"/>
		<path class="st1" d="M374.3,737.3c3.6,2.2,7,4.7,10.4,7.3c7.6,5.7,15.2,11.4,22.7,17.2c-8.5-20.4-29-33.3-49.9-40.4
			c-3.9-1.3-8-2.5-12.1-2.8c-4.4-0.2-8.8,0.6-13.2,1.5c-6,1.2-12,2.3-18,3.5c-2,0.4-4.7,1-5.6,3c-0.8,1.8,0.6,4.3,2.5,4.6
			c2,0.3,4.4-0.8,6.3-1.2c2.7-0.6,5.3-1,8-1.4c10.7-1.4,21.7-1,32.2,1.8C363.5,731.8,369.1,734.2,374.3,737.3z"/>
	</g>
	<g id="рука_3_">
		<g>
			<path class="st4" d="M625.8,817.6c-36.9-11.7-83.3-18.3-120.6-30.3c-37.2-12-93.5-37.1-147.8-23.9c-43,10.4-100.1,51.2-79.7,82.9
				s121.2,29.8,185.5,27s124.3,9.6,139.6,11.8S652.2,826,625.8,817.6z"/>
			<path class="st1" d="M379.9,799.3c-2.2-2.3-5-3.9-8-5.1c-3.2-1.3-6.5-2.4-9.9-2.5c-11.3-0.5-21.4,9.2-24.1,20.2
				c-0.8,3.4-1,7.1,0.6,10.2s5.5,5.2,8.7,3.9c2.5-1,4-3.8,4.3-6.5c0.3-2.7-0.2-5.5-0.5-8.2c-0.1-1.1-0.2-2.3,0.2-3.4
				c0.6-1.2,1.8-2,3-2.7c3.7-2.2,7.8-4.1,12.1-4.1s8.9,2.2,10.3,6.3c1.7,4.6-1,9.3-1.2,14c-0.1,1.9,0.3,7.9,3.5,7.2
				c2.4-0.5,3.8-4,4.6-5.9c1.3-3.3,1.9-6.8,1.7-10.3C384.8,807.6,383.2,802.8,379.9,799.3z"/>
			<path class="st1" d="M377.6,781.8c-4.6,3.9-7.4,9.5-8.9,15.3c-4.3,0.7-8.5-3-9.3-7.4c-0.8-4.3,1.3-8.8,4.3-11.9s7.1-5.2,11-7
				c3.3-1.5,6.9-3,10.5-2.5c2.9,0.4,7.4,2.9,6.9,6.3c-0.2,1.4-1.2,2.3-2.6,2.5c-2,0.3-4,0.4-6,1.2
				C381.4,779.2,379.4,780.3,377.6,781.8z"/>
			<path class="st1" d="M391,795.3c1.7-0.5,3.6-0.6,5.2,0.3s2.5,2.9,1.7,4.5c-0.5,0.8-1.3,1.4-2.1,1.9c-2.3,1.5-4.6,3-7,4.3
				c-1.5,0.9-3.9,2.1-5.5,1c-2.8-1.9-0.4-6.4,1.3-8.1C386.3,797.3,388.5,795.9,391,795.3z"/>
			<path class="st1" d="M501.2,872.8c1.1-2.6,1.4-5.8,1.8-8.6c0.9-6.1,0.8-12.4-0.4-18.4c-0.7-3.3-1.8-6.6-3.3-9.7
				c-5.5-11.4-17.4-20.1-30-19.6c-4.9,0.2-9.7,1.7-14.1,3.9c-7.5,3.8-14,9.6-18.5,16.6c-1.7-5.2-5.7-9.4-10.4-12.4
				c-11.3-7.3-26.5-7.8-38.6-2c-12.1,5.8-21,17.7-24,30.8c-1.2,5.3-1.5,11.1,0.6,16.2c0.6,1.4,1.4,2.7,2.3,3.9
				c5.2,0.3,10.5,0.5,15.8,0.7c4.4-7.2,7.9-14.9,13.7-21c6.5-6.8,17-11,25.3-6.5c5.3,2.9,9.6,9.2,15.7,8.3c5.3-0.8,8-6.7,11.5-10.7
				c5.5-6.4,15.2-8.7,23.1-5.6c7.9,3.1,13.3,11.5,12.9,20c-0.2,4.8-1.8,10.2,0.7,14c5.4,0,10.6,0.2,15.8,0.3
				C501,873.1,501.1,873,501.2,872.8z"/>
			<path class="st1" d="M586.6,812.6c-2.4,4.9-8.7,6.2-14.1,6.8c-2.7,0.3-5.5,0.6-8.1-0.5c-2.5-1.1-4.5-3.9-3.6-6.5
				c0.3-0.9,1-1.8,1.2-2.7c0.4-1.8-0.9-3.5-2.5-4.5c-3.8-2.4-9.3-1.2-11.8,2.5c-2.8,4.1-1.5,10.1,2,13.7c3.4,3.6,8.4,5.3,13.3,6.1
				c5.3,0.9,10.8,1,15.8-0.7c5.1-1.6,9.7-5,12.1-9.8c1.2-2.5,1.8-5.5,1.5-8.3c-1.7-0.4-3.4-0.8-5.1-1.2
				C587.4,809.2,587.4,810.9,586.6,812.6z"/>
			<path class="st1" d="M629.2,840.6c-11.9-1.5-24,0-36,0.1c-18.5,0.1-37-3.1-54.3-9.6c-4.6-1.7-9.2-3.7-13.3-6.3
				c-0.6-0.4-1.2-0.8-1.8-1.2c-4.7-3.2-8.7-7.2-12-11.8c-3.3-4.6-5.8-9.7-7.5-15.1c-0.8-2.7-1.4-5.5-1.8-8.3c-0.1-0.7-0.2-1.3-0.2-2
				c-1.8-0.6-3.7-1.2-5.6-1.9c0.1,1.5,0.1,3,0.2,4.5c0.4,7,1,14.2,3,21c1.8,6.2,4.8,12.1,8.6,17.3c2.4,3.2,5.2,6.2,8.6,8.3
				c2.9,1.8,6.2,2.9,9.4,3.9c9.9,3.3,19.8,6.5,30.1,8.5c19.3,3.7,39.1,2.8,58.7,1.9c5.8-0.3,11.5-0.5,17.2-1.1
				c0.8-2.2,1.4-4.5,1.9-6.7C632.8,841.3,630.9,840.8,629.2,840.6z"/>
			<path class="st1" d="M483,790.5c1.5-2.9,2.4-6.3,1.5-9.5c-0.1-0.3-0.2-0.6-0.4-0.9c-2.8-1-5.7-2-8.6-3c-2.1,1.5-3.1,4.5-4.2,7.1
				c-5.7,14.5-21.2,24.6-36.9,23.8c-5.1-0.2-10.2-1.6-15-3.4c-3.9-1.5-7.8-3.4-11-6.1c-5.5-4.7-8.6-11.8-9.9-18.9
				c-0.5-2.7-0.8-5.5-0.9-8.2c-0.1-2.5-0.1-4.9,0-7.3c0-1.6-0.1-3.1-1.7-4c-4.1-2.2-5,4.4-5.1,6.9c-0.3,9.6,0.7,19.5,4.4,28.4
				c3.7,8.9,10.3,16.8,19.1,20.8c7.4,3.3,15.9,3.7,23.8,2.1c8-1.5,15.5-4.9,22.6-8.6C469.7,805.1,478.5,799.4,483,790.5z"/>
			<path class="st1" d="M466.7,774.3c-3.2-1-6.5-2.1-9.8-3.1c-5.6,1.4-11.1,3-16.8,3.6c-4.6,0.4-9.3,0.1-13.7-1.4
				c-4.7-1.7-8-4.7-10.8-8.6c-0.6-0.9-1.4-2.3-2.3-3.3c-1.6-0.2-3.2-0.4-4.8-0.6c-0.4,0.4-0.8,0.9-1.1,1.3c-2.5,3.9-0.4,8.7,2.3,12
				c3.3,4,8.1,6.5,13,8.1c12.3,4,26.2,3.1,37.9-2.4C463,778.6,465.7,776.7,466.7,774.3z"/>
		</g>
		<g>
			<path class="st4" d="M709.4,852.4c1.8-3,5.1-20.8,2.2-23c-4.9-3.7-44.7-5.5-62.9-8.8c-22.8-4-45.2-0.1-64.7,12.9
				c-18.3,13.6-37.1,33.3-13.5,47c31.9,15.5,70.9,24.2,108.4,17.4C700.5,893.3,711.2,869.6,709.4,852.4z"/>
			<path class="st4" d="M692.7,907.9c4.3,1.2,8.8,2.4,13.3,2c4.6-0.5,9.3-3,10.5-6.8c0.8-2.5-0.1-5.3-1.8-7.4s-4.1-3.7-6.5-5.2
				c-4.6-2.8-9.4-5.2-14.5-7.3c-6.8-2.8-15.3-4.8-21.9-1.2c-2.8,1.5-4.8,3.9-6,6.4c-1.4,3-1.5,6.4,0.2,9.2
				C668.9,902.2,684.4,905.5,692.7,907.9z"/>
			<path class="st4" d="M662.1,838.7c11.1-4.9,22.1-19,5.2-21.6c-14.2,0.7-47.4,4.8-47.3,18.2C620.1,851.1,647.7,845.1,662.1,838.7z
				"/>
			<path class="st4" d="M697.8,903.2c0.9,3.4,4,6.3,7.9,7c1.9,0.3,4,0.2,5.9-0.2c1.3-0.3,2.7-0.6,3.9-1.2c3.4-1.6,5.6-4.8,5.7-8.1
				c0.1-3.2-1.8-6.3-4.8-8.2c-3.2-2.1-8.1-2.9-12.2-1.9c-1.6,0.4-3.5,1.2-4.6,2.3c-1,1-1.3,2.4-1.7,3.6
				C697.4,898.8,697.2,901,697.8,903.2z"/>
			<path class="st4" d="M717.2,915.5c9.8,4.3,20.9,7.9,32.1,6.2c3.7-0.5,7.7-2.1,8.8-5.1c0.7-2-0.1-4.1-1.5-5.6s-3.4-2.6-5.4-3.7
				c-9.2-4.7-18.9-8.8-29-12c-4.9-1.6-10.6-2.9-15.4-0.8c-2.1,0.9-3.8,2.6-4.8,4.4c-0.7,1.4-1.4,3.1-1.1,4.6
				c0.4,1.5,1.8,2.8,2.9,3.9c1.7,1.6,3.7,3,5.8,4.3C712,913.2,714.6,914.4,717.2,915.5z"/>
			<path class="st4" d="M684.9,832.6c9.4-1.2,19.4-3.4,27.2-9.4c2.5-2,5-4.8,4.4-7.4c-0.4-1.7-1.9-2.8-3.7-3.3s-3.8-0.4-5.8-0.2
				c-9.1,0.6-18.3,1.9-27.5,4c-4.4,1-9.4,2.5-12,6c-1.2,1.6-1.7,3.4-1.6,5.1c0.1,1.3,0.3,2.8,1.3,3.7c1,0.9,2.6,1.2,4,1.5
				c2,0.4,4.2,0.6,6.3,0.5C679.9,833.1,682.4,832.9,684.9,832.6z"/>
			<path class="st1" d="M746.2,916.9c3,1.3,6.4,2.6,9.8,2c1.3-0.2,2.7-0.7,3.6-1.6c0.9-0.9,1.3-2.2,0.8-3.2c-0.3-0.6-0.8-1-1.3-1.5
				c-3.6-3-8.2-5.5-13.4-6.2c-2.1-0.3-5-0.7-6.6,0.9c-1.3,1.4-1,3.3-0.2,4.7C740.3,914.4,743.5,915.7,746.2,916.9z"/>
			<path class="st1" d="M712.7,816.3c3-0.4,6.2-0.9,7.4-2c0.5-0.4,0.6-0.9,0.2-1.4c-0.5-0.5-1.6-1-3-1.2c-0.8-0.1-1.5-0.1-2.3-0.1
				c-5.2,0-10.3,0.5-13.9,1.6c-1.4,0.5-3.4,1.1-2.5,2c0.8,0.8,3,1.3,5,1.5C706.9,817.1,710,816.6,712.7,816.3z"/>
			<path class="st4" d="M761.1,883.2c11.2,4,29.4-4.1,18.5-14.3c-11.1-6.8-34.5-14.9-43.9-8.3C720.4,871.1,744.2,881.5,761.1,883.2z
				"/>
			<path class="st4" d="M710.7,883.5c0.9,3.4,4,6.3,7.9,7c1.9,0.3,4,0.2,5.9-0.2c1.3-0.3,2.7-0.6,3.9-1.2c3.4-1.6,5.6-4.8,5.7-8.1
				c0.1-3.2-1.8-6.3-4.8-8.2c-3.2-2.1-8.1-2.9-12.2-1.9c-1.6,0.4-3.5,1.2-4.6,2.3c-1,1-1.3,2.4-1.7,3.6
				C710.3,879.1,710.1,881.4,710.7,883.5z"/>
			<path class="st4" d="M742.7,859.8c10.8,4.8,29.6-1.9,19.5-13c-10.5-7.6-33.3-17.4-43.2-11.5C703,844.8,726,856.9,742.7,859.8z"/>
			<path class="st4" d="M745.8,854.8c1.5,11,22.6,10.4,23.6-0.7C770.5,839.4,741.6,838.5,745.8,854.8z"/>
			<path class="st4" d="M661.8,828.5c2.3,10.9,23.3,8.7,23.5-2.4C685.3,811.4,656.4,812.6,661.8,828.5z"/>
			<path class="st4" d="M715.2,849.9c10.8,4.8,29.6-1.9,19.5-13c-10.5-7.6-33.3-17.4-43.2-11.5C675.5,834.9,698.5,847,715.2,849.9z"
				/>
			<path class="st4" d="M760.7,864.2c9.5,5,20.9,10.5,32,8.7c27.8-4.5-25.9-31.2-37.1-26.8C741,852.7,751.7,860.2,760.7,864.2z"/>
			<path class="st1" d="M789.9,867.9c2.9,1.5,6.2,3,9.7,2.7c1.3-0.1,2.7-0.5,3.7-1.4c1-0.8,1.5-2.1,1-3.1c-0.2-0.6-0.7-1.1-1.2-1.6
				c-3.4-3.3-7.8-6.1-12.9-7.2c-2-0.5-4.9-1.1-6.6,0.5c-1.4,1.3-1.3,3.2-0.6,4.7C784.2,865,787.3,866.6,789.9,867.9z"/>
			<path class="st4" d="M732.9,875.3c11.2,4,29.4-4.1,18.5-14.3c-11.1-6.8-49.1-17.2-58.5-10.5C677.7,861,716,873.7,732.9,875.3z"/>
			<path class="st4" d="M763.8,878c2.3,10.9,23.3,8.7,23.5-2.4C787.3,860.8,758.5,862,763.8,878z"/>
			<path class="st4" d="M740.8,896.5c11.4,3.1,29-6.4,17.3-15.8c-11.6-5.9-35.5-12.1-44.5-4.8C699.4,887.7,723.9,896.2,740.8,896.5z
				"/>
			<path class="st4" d="M731.9,869.3c0.9,3.4,4,6.3,7.9,7c1.9,0.3,4,0.2,5.9-0.2c1.3-0.3,2.7-0.6,3.9-1.2c3.4-1.6,5.6-4.8,5.7-8.1
				c0.1-3.2-1.8-6.3-4.8-8.2c-3.2-2.1-8.1-2.9-12.2-1.9c-1.6,0.4-3.5,1.2-4.6,2.3c-1,1-1.3,2.4-1.7,3.6
				C731.5,864.9,731.3,867.2,731.9,869.3z"/>
			<path class="st4" d="M743.2,891.1c3.1,10.7,23.9,6.8,23.2-4.3C765.3,872.1,736.6,875.6,743.2,891.1z"/>
			<path class="st4" d="M779.3,886.3c9.8,4.3,21.6,9,32.6,6.4c27.4-6.5-28.1-29.2-38.9-24C758.9,876.3,770,883,779.3,886.3z"/>
			<path class="st4" d="M712.2,890.9c11.4,3.1,29-6.4,17.3-15.8c-11.6-5.9-35.5-12.1-44.5-4.8C670.7,882.1,695.2,890.6,712.2,890.9z
				"/>
			<path class="st4" d="M759.3,898.2c10.2,3.5,22.2,7.3,33,3.8c26.8-8.7-30.3-26.9-40.7-20.8C738.1,889.8,749.8,895.6,759.3,898.2z"
				/>
			<path class="st1" d="M788.8,897.4c3.1,1.1,6.6,2,10,1.2c1.3-0.3,2.6-1,3.4-1.9c0.8-1,1.1-2.3,0.6-3.3c-0.3-0.5-0.9-1-1.4-1.4
				c-3.9-2.8-8.6-4.8-13.8-5.2c-2.1-0.1-5-0.3-6.5,1.5c-1.2,1.5-0.8,3.4,0.2,4.8C782.7,895.4,786,896.5,788.8,897.4z"/>
			<path class="st1" d="M808.8,887.9c3,1.3,6.4,2.6,9.8,2c1.3-0.2,2.7-0.7,3.6-1.6c0.9-0.9,1.3-2.2,0.8-3.2c-0.3-0.6-0.8-1-1.3-1.5
				c-3.6-3-8.2-5.5-13.4-6.2c-2.1-0.3-5-0.7-6.6,0.9c-1.3,1.4-1,3.3-0.2,4.7C802.9,885.4,806.1,886.7,808.8,887.9z"/>
			<path class="st1" d="M705.2,887.5c0.9-1.1-0.5-2.4-1.7-3.1c-5.5-3.1-11.8-5.2-18.4-6.2c-0.9-0.1-4.6-0.2-3.7,1.4
				c0.5,1,4.2,1.1,5.4,1.3c4.2,0.9,8.2,2.1,12.1,3.7C699.5,884.8,705.3,887.4,705.2,887.5z"/>
			<path class="st1" d="M729.4,869.3c-12.5-2.7-25-6.2-34.4-13.5c14-0.8,29.4,8.6,44.4,9.6c6.9,1.5,30,5.6,35.9,9.6
				C774.8,883,735.5,869,729.4,869.3z"/>
			<path class="st1" d="M710.8,845.5c-3.6-1.4-7.6-4-6.8-7.4c14.8,8.3,77,12.8,73.2,23.8C751,852.9,737.5,855.1,710.8,845.5z"/>
			<path class="st1" d="M686.4,881c-0.2-1.5-0.6-3-1.3-4.3c-1.2-2.3-3.1-4.4-5.5-5.9c-0.8-0.5-3.8-2.6-5-1.5
				c-0.9,0.9,0.1,2.7,0.5,3.5c0.8,1.7,2,3.4,3.4,4.8C680.4,879.4,683.3,881.3,686.4,881z"/>
			<path class="st1" d="M687.2,851.3c2.8,3.2,6,6,9.6,8.5c1,0.7,2.2,1.3,3.4,1c1.1-0.2,1.8-1.2,1.9-2.2s-0.3-1.9-0.8-2.7
				c-1.9-3.3-5.4-5.8-9.6-6.8c-1.2-0.3-2.8-0.4-3.6,0.5c-0.6,0.7-0.5,1.6,0,2.4s1.1,1.3,1.6,2"/>
			<path class="st5" d="M782.6,868.8c-3.5,3.7-7.5,11.7-12,8.7c-7.1-4.8,0.2-17.7,9.1-18.8C785.2,860.1,787.8,864.8,782.6,868.8z"/>
			<path class="st5" d="M722.5,916.9c-12.2,7.1,6-30,9.8-17.6C728.2,904.5,726.1,911.2,722.5,916.9z"/>
			<path class="st1" d="M710.6,825.7c-1.7-2.7-5.3-3.2-8.4-3.4c-8.1-0.5-16.2-0.7-24.2-0.6c-12.1,0.2-24.6,1.1-36.1-2.6
				c13.7,0.1,27.5,0.2,41.2,0.3c8.4,0,17.2,0.2,24.7,4.1"/>
		</g>
	</g>
	<g id="значки">
		<path class="st6" d="M619.1,511.3l-41.8,24.1c-3.1,1.8-7.2,0.7-9-2.4l-10-17.4c-1.8-3.1-0.7-7.2,2.4-9l41.8-24.1
			c3.1-1.8,7.2-0.7,9,2.4l10,17.4C623.3,505.4,622.2,509.5,619.1,511.3z"/>
		<circle class="st7" cx="624.7" cy="453.6" r="30.5"/>
		<path class="st5" d="M639.2,531l4.3,25.8c1,6.4-3.3,12.4-9.6,13.5l-19.8,3.3c-6.4,1-12.4-3.3-13.5-9.6l-4.3-25.8
			c-1-6.4,3.3-12.4,9.6-13.5l19.8-3.3C632.2,520.3,638.2,524.6,639.2,531z"/>
		<path class="st8" d="M646.8,443.1c-0.2-0.1-0.4-0.1-0.6-0.1c-4.4,0.3-8.7,1.4-12.8,3.2c-0.8-1.5-1.6-3.1-2.4-4.7
			c-1.7-3.4-3.4-7-5.7-10c-0.7-0.9-1.6-1.9-2.7-2c-1.1-0.2-2.3,0.5-3,1.4c-0.7,0.9-1.1,2-1.4,3.1c-0.1,0.4-0.2,0.8-0.3,1.1
			c-0.4,1.5-0.8,3.1-1.1,4.7c-0.3,1.6-0.5,3.1-0.8,4.7c-0.2,1.6-0.4,3.2-0.5,4.8c-0.1,1.5-0.2,2.9-0.2,4.4c-2.5,1.2-5,2.5-7.5,3.7
			c-2.1,1-4.2,2.1-5.7,3.9c-0.4,0.5-0.7,1.2-0.3,1.6c0.2,0.2,0.5,0.3,0.7,0.3c2.4,0.4,4.8-0.7,7-1.7c1.9-0.8,3.7-1.7,5.6-2.5
			c0,1.6,0,3.2,0.1,4.9c0,1.6,0.1,3.2,0.2,4.8c0.1,1.6,0.2,3.2,0.3,4.9c0.1,1-0.1,2.1,0.3,3c0.2,0.5,0.5,1.2,1.1,1.4
			c0.6,0.2,1.2-0.2,1.5-0.7c0.3-0.5,0.3-1.1,0.4-1.7c0.4-5.1,0.8-10.2,1.2-15.2c0.1-0.9,0.2-1.9,0.8-2.6c0.3-0.3,0.8-0.5,1.2-0.8
			c2.4-1.1,4.8-2.3,7.2-3.4c0.3-0.1,0.6-0.3,0.9-0.2c0.3,0.1,0.5,0.4,0.7,0.6c3,4.5,5.9,9,8.8,13.5c0.4,0.6,0.8,1.2,1.4,1.6
			s1.5,0.4,2-0.1c0.6-0.6,0.4-1.7,0-2.5c-1.9-5-4.3-9.7-6.8-14.4c3.5-2.2,6.8-4.7,9.8-7.4c0.2-0.2,0.5-0.5,0.6-0.8
			C647.2,443.7,647.1,443.3,646.8,443.1z M628,448.3c-0.1,0.3-0.3,0.5-0.6,0.6c-1,0.5-2,1-3,1.5c-0.5,0.2-1,0.5-1.5,0.7
			c-0.3,0.1-0.9,0.3-1.2,0c-0.2-0.2-0.2-0.5-0.2-0.8c0-0.4,0.1-0.9,0.2-1.3c0.1-1.2,0.2-2.3,0.3-3.5c0.1-1.3,0.1-2.6,0-3.9
			c0-0.5,0-1.1,0.1-1.6c0.2-0.5,0.6-1,1.2-1.1c0.1,0,0.2,0,0.3,0c0.1,0,0.1,0.1,0.2,0.2c1.6,2.7,3,5.5,4.3,8.4
			C627.9,447.9,628,448.1,628,448.3z"/>
		<circle class="st8" cx="652.9" cy="502.4" r="18.3"/>
	</g>
	<g id="рука_2_">
		<g>
			<path class="st4" d="M374,877.6c-2.9-2-13.2-16.9-11.4-20c3-5.4,38.5-23.3,53.8-33.7c19.2-12.9,41.3-18.6,64.3-14.6
				c22.2,5,47.5,15.3,31.5,37.4c-22.8,27.2-54.9,51-91.9,60.1C398.7,911.3,379.3,894,374,877.6z"/>
			<path class="st4" d="M411.8,921.5c-3.4,2.9-7,5.8-11.4,7.2c-4.4,1.5-9.7,1.1-12.4-1.9c-1.8-2-2.1-4.8-1.4-7.5
				c0.7-2.6,2.2-5.1,3.9-7.4c3-4.4,6.5-8.6,10.3-12.5c5.1-5.3,12-10.6,19.5-10c3.1,0.2,6,1.5,8.1,3.4c2.5,2.2,4,5.2,3.5,8.4
				C431.2,906.5,418.4,915.9,411.8,921.5z"/>
			<path class="st4" d="M411.5,845.7c-12.2,0-28-8.3-13.6-17.6c13.2-5.2,45.2-15,50.6-2.6C455,839.9,427.3,845.7,411.5,845.7z"/>
			<path class="st4" d="M405.2,919.2c0.5,3.5-1,7.4-4.4,9.7c-1.6,1.1-3.5,1.8-5.5,2.2c-1.3,0.3-2.7,0.5-4.1,0.5
				c-3.8-0.1-7.1-2.1-8.5-5.1c-1.4-2.9-0.9-6.5,1-9.5c2.1-3.2,6.2-6,10.3-6.7c1.6-0.3,3.7-0.3,5.1,0.3c1.3,0.5,2.2,1.6,3,2.6
				C403.8,915,404.9,917,405.2,919.2z"/>
			<path class="st4" d="M392.5,938.4c-7.2,7.9-15.9,15.7-26.8,18.7c-3.6,1-7.9,1.3-10.1-1.1c-1.4-1.5-1.6-3.8-0.9-5.8
				c0.7-2,2.1-3.8,3.5-5.6c6.4-8.1,13.7-15.7,21.6-22.8c3.8-3.4,8.5-7,13.7-7c2.3,0,4.5,0.8,6.1,2.1c1.2,1,2.6,2.2,2.8,3.7
				c0.3,1.5-0.5,3.3-1.1,4.8c-0.9,2.2-2.1,4.3-3.5,6.2C396.3,934.1,394.5,936.3,392.5,938.4z"/>
			<path class="st4" d="M388.2,849.5c-9.1,2.8-19.1,4.8-28.7,2.5c-3.1-0.8-6.5-2.3-7-4.9c-0.4-1.7,0.6-3.3,2.1-4.5
				c1.5-1.2,3.3-1.9,5.2-2.6c8.6-3.2,17.5-5.7,26.7-7.5c4.5-0.9,9.6-1.5,13.5,0.6c1.7,1,3,2.4,3.6,4c0.4,1.2,0.9,2.7,0.3,3.9
				c-0.5,1.2-1.9,2.2-3,3c-1.7,1.2-3.6,2.2-5.5,3.1C393,847.9,390.7,848.7,388.2,849.5z"/>
			<path class="st1" d="M366.6,951.5c-2.2,2.5-4.8,5-8.2,5.8c-1.3,0.3-2.7,0.4-3.9,0c-1.2-0.4-2.1-1.4-2.1-2.6
				c0-0.6,0.3-1.3,0.6-1.9c2.1-4.3,5.3-8.4,9.7-11.2c1.8-1.1,4.3-2.7,6.4-1.8c1.8,0.7,2.3,2.6,2.1,4.2
				C371,946.8,368.6,949.3,366.6,951.5z"/>
			<path class="st1" d="M356.2,845.9c-2.9,0.9-6,1.7-7.6,1.2c-0.6-0.2-1-0.6-0.7-1.2c0.2-0.7,1.1-1.6,2.3-2.3c0.7-0.4,1.4-0.7,2-1
				c4.8-2.1,9.6-3.8,13.3-4.2c1.5-0.2,3.6-0.4,3.1,0.8c-0.4,1-2.2,2.4-3.9,3.4C361.8,844.3,358.8,845.1,356.2,845.9z"/>
			<path class="st4" d="M339.3,926.7c-8.5,8.2-28.5,8.3-22.7-5.6c7.3-10.7,25.4-27.7,36.7-25.5C371.5,899.2,354.1,918.3,339.3,926.7
				z"/>
			<path class="st4" d="M385.5,906.5c0.5,3.5-1,7.4-4.4,9.7c-1.6,1.1-3.5,1.8-5.5,2.2c-1.3,0.3-2.7,0.5-4.1,0.5
				c-3.8-0.1-7.1-2.1-8.5-5.1c-1.4-2.9-0.9-6.5,1-9.5c2.1-3.2,6.2-6,10.3-6.7c1.6-0.3,3.7-0.3,5.1,0.3c1.3,0.5,2.2,1.6,3,2.6
				C384,902.3,385.1,904.3,385.5,906.5z"/>
			<path class="st4" d="M346.5,897.8c-7.9,8.8-27.8,10.3-23.1-3.9c6.5-11.2,23.3-29.4,34.8-28.1C376.7,868,360.6,888.4,346.5,897.8z
				"/>
			<path class="st4" d="M341.6,894.6c3.1,10.7-16.4,18.7-21.8,9C312.8,890.6,338.8,878,341.6,894.6z"/>
			<path class="st4" d="M407.7,836.3c2.4,10.9-17.7,17.5-22.4,7.4C379.2,830.3,406.1,819.6,407.7,836.3z"/>
			<path class="st4" d="M367.6,877.6c-7.9,8.8-27.8,10.3-23.1-3.9c6.5-11.2,23.3-29.4,34.8-28.1
				C397.7,847.8,381.7,868.2,367.6,877.6z"/>
			<path class="st4" d="M332,909.3c-6.6,8.4-14.8,18.1-25.7,21c-27.2,7.2,11-39,22.9-39.6C345.2,890.7,338.5,901.9,332,909.3z"/>
			<path class="st1" d="M306.8,924.6c-2,2.6-4.4,5.3-7.7,6.4c-1.3,0.4-2.7,0.6-3.9,0.2c-1.2-0.3-2.2-1.3-2.2-2.4
				c0-0.6,0.2-1.3,0.5-1.9c1.8-4.4,4.6-8.7,8.8-11.8c1.7-1.2,4.1-3,6.2-2.3c1.8,0.6,2.5,2.5,2.4,4.1
				C310.8,919.6,308.6,922.3,306.8,924.6z"/>
			<path class="st4" d="M361.8,908.1c-8.5,8.2-28.5,8.3-22.7-5.6c7.3-10.7,37.8-35.7,49.2-33.5C406.4,872.5,376.6,899.7,361.8,908.1
				z"/>
			<path class="st4" d="M334.7,923.1c2.4,10.9-17.7,17.5-22.4,7.4C306.2,917,333.1,906.4,334.7,923.1z"/>
			<path class="st4" d="M363.2,930.6c-9.2,7.5-29,6-22.2-7.3c8.2-10.1,27.5-25.6,38.6-22.5C397.5,905.7,378.6,923.4,363.2,930.6z"/>
			<path class="st4" d="M360.3,902.2c0.5,3.5-1,7.4-4.4,9.7c-1.6,1.1-3.5,1.8-5.5,2.2c-1.3,0.3-2.7,0.5-4.1,0.5
				c-3.8-0.1-7.1-2.1-8.5-5.1c-1.4-2.9-0.9-6.5,1-9.5c2.1-3.2,6.2-6,10.3-6.7c1.6-0.3,3.7-0.3,5.1,0.3c1.3,0.5,2.2,1.6,3,2.6
				C358.9,898,360,900,360.3,902.2z"/>
			<path class="st4" d="M358.9,926.6c1.5,11-19.1,16-23,5.6C331,918.3,358.6,909.8,358.9,926.6z"/>
			<path class="st4" d="M324,937c-7.2,7.9-16,17-27.1,19.1c-27.7,5.2,13.8-38.1,25.8-37.8C338.5,919.5,331,930.2,324,937z"/>
			<path class="st4" d="M387.1,913.8c-9.2,7.5-29,6-22.2-7.3c8.2-10.1,27.5-25.6,38.6-22.5C421.4,888.9,402.5,906.6,387.1,913.8z"/>
			<path class="st4" d="M347.1,939.7c-7.8,7.3-17.3,15.7-28.6,16.9c-28,3,16.7-36.9,28.7-35.6C363,923.4,354.7,933.4,347.1,939.7z"
				/>
			<path class="st1" d="M319.8,951c-2.4,2.3-5.2,4.6-8.6,5.2c-1.3,0.2-2.8,0.2-3.9-0.3s-2-1.6-1.9-2.8c0.1-0.6,0.4-1.2,0.7-1.8
				c2.4-4.1,5.9-7.9,10.5-10.4c1.9-1,4.5-2.3,6.5-1.3c1.7,0.8,2.1,2.8,1.8,4.4C324.5,946.7,322,949,319.8,951z"/>
			<path class="st1" d="M297.7,950.5c-2.2,2.5-4.8,5-8.2,5.8c-1.3,0.3-2.7,0.4-3.9,0c-1.2-0.4-2.1-1.4-2.1-2.6
				c0-0.6,0.3-1.3,0.6-1.9c2.1-4.3,5.3-8.4,9.7-11.2c1.8-1.1,4.3-2.7,6.4-1.8c1.8,0.7,2.3,2.6,2.1,4.2
				C302,945.8,299.7,948.3,297.7,950.5z"/>
			<path class="st1" d="M392,907.9c-1.2-0.6-0.6-2.4,0.3-3.5c3.8-5.1,8.7-9.6,14.3-13.1c0.8-0.5,4.1-2.1,3.9-0.2
				c-0.1,1.1-3.4,2.7-4.4,3.4c-3.4,2.5-6.6,5.3-9.5,8.3C396.2,903.1,392,907.8,392,907.9z"/>
			<path class="st1" d="M362.6,901.2c10.3-7.5,20.3-15.9,26-26.3c-13.1,4.9-23.4,19.8-36.6,26.9c-5.7,4.2-25.1,17.3-28.8,23.4
				C326.7,932.2,356.9,903.3,362.6,901.2z"/>
			<path class="st1" d="M369.8,871.8c2.7-2.8,5.3-6.8,3.2-9.6c-10.2,13.7-65.1,43.1-57.1,51.6C336.1,895,349.4,891.5,369.8,871.8z"
				/>
			<path class="st1" d="M406.6,894.3c-0.5-1.4-0.7-2.9-0.6-4.5c0.1-2.6,1-5.3,2.6-7.7c0.5-0.8,2.5-3.9,4-3.4c1.2,0.4,1,2.5,1,3.4
				c0,1.9-0.5,3.9-1.2,5.8C411.4,890.4,409.6,893.3,406.6,894.3z"/>
			<path class="st1" d="M393.7,867.5c-1.2,4-3,8-5.3,11.7c-0.6,1-1.4,2.1-2.7,2.3c-1.1,0.2-2.2-0.4-2.6-1.2s-0.5-1.8-0.4-2.8
				c0.4-3.8,2.6-7.5,6-10.2c1-0.8,2.4-1.5,3.5-1c0.8,0.4,1.1,1.3,1,2.1s-0.5,1.7-0.7,2.5"/>
			<path class="st5" d="M344.9,876.4c-2.7-2.7-4.9-6.4-4.2-10.2c0.4-2.4,2-4.5,4-5.9s4.3-2.3,6.7-2.9c0.6-0.2,1.3-0.3,1.9-0.2
				c0.8,0.1,1.6,0.5,2.3,0.8c3.5,1.9,7,4,10.3,6.3c1,0.7,2,1.4,2.2,2.6c0.4,1.8-1.3,3.3-2.8,4.4c-2.9,2.2-5.6,4.6-8,7.3
				c-0.6,0.7-1.2,1.3-1.8,2c-0.4,0.5-0.9,1.5-1.7,1.6c-1.3,0.2-3.3-1.5-4.4-2.2C347.8,879.1,346.3,877.8,344.9,876.4z"/>
			<path class="st5" d="M377.8,892c4.5,2.3,7.9,6.4,12.4,8.8c1.1,0.6,2.4,1.1,3.7,1.1s2.6-0.7,3.1-1.9c0.5-1.1,0.2-2.3-0.1-3.5
				c-0.8-3-1.9-6.1-4-8.5c-1.8-2-4.2-3.4-6.5-4.7c-2.7-1.5-6.2-3.3-9.3-1.8c-1.5,0.8-2.4,2.3-3.2,3.8c-0.6,1.1-1.1,2.3-0.5,3.5
				C374.3,890.4,376.2,891.2,377.8,892z"/>
			<path class="st5" d="M426,906.7c16.7,1.8-21.1-29.7-19.1-14.3C413.8,896.1,419.3,902.3,426,906.7z"/>
			<path class="st5" d="M373.8,925.5c-1.4,4.1,20.1,15.7,21.4,11.2C397.4,928.5,375.1,921.4,373.8,925.5z"/>
			<path class="st1" d="M361.9,853.7c0.5-3.1,3.5-5.1,6.3-6.5c7.1-3.8,14.4-7.3,21.9-10.4c11.2-4.8,22.9-9,31.9-17.1
				c-12.5,5.7-25,11.4-37.5,17c-7.7,3.5-15.7,7.2-20.9,13.8"/>
		</g>
		<g>
			<path class="st4" d="M450.6,810.9c36-14.2,81.9-24,118.2-38.5s90.7-43.4,145.8-34.1c43.6,7.4,103.4,44.1,85.2,77.2
				s-118.8,38-183.2,39.7s-123.3,18.1-138.4,21.4C463.1,879.9,424.8,821,450.6,810.9z"/>
			<path class="st1" d="M740.4,823c0.2,0.9,0.6,2,1.5,1.9c0.6,0,1-0.6,1.3-1.2c1.2-2.5,1.7-5.3,1.8-8.1c0.1-1.4,0.1-2.9-1-4
				c-0.7-0.7-2-0.9-3-0.4c-1.7,1-1.3,4.4-1.3,6C739.9,819.2,740.1,821.1,740.4,823z"/>
			<path class="st1" d="M750.3,810c0.1,0.5,0.3,1.1,0.6,1.5s1,0.7,1.5,0.5c0.4-0.2,0.6-0.5,0.8-0.9c1.1-2.1,1.4-4.5,1.8-6.8
				c0.2-1.4,0.4-3-0.5-4.2c-0.8-1-2.1-1-3.2-0.5c-1.8,0.8-1.7,3.2-1.6,4.8C749.7,806.2,749.9,808.1,750.3,810z"/>
			<path class="st1" d="M748.4,824.9c-1,1.9-1.6,4-1.8,6.1c-0.1,1.2,0.1,2.7,1.2,2.9c1.1,0.2,1.9-0.9,2.3-1.9c1.2-3,1.6-6.2,1-9.4
				C750,822.8,748.8,823.7,748.4,824.9"/>
			<path class="st1" d="M689.6,783.7c-0.3,2.2-0.1,4.4,0.6,6.4c0.3,0.8,0.6,1.6,1.2,2.2c0.6,0.6,1.5,0.9,2.3,0.7
				c1.5-0.5,1.7-2.4,1.7-4c0-2.3-0.1-4.7-1.4-6.6c-0.6-0.8-1.5-1.4-2.4-1.3c-1.3,0.2-1.9,1.6-2.3,2.9"/>
			<path class="st1" d="M694.3,770c-0.2,1.6-0.2,3.3,0.5,4.8s2.2,2.6,3.8,2.7c0.6,0,1.3-0.2,1.7-0.7c0.3-0.3,0.4-0.7,0.5-1
				c0.8-2.8-0.2-6.1-2.4-8c-0.9-0.8-2.3-1.4-3.4-0.8c-1,0.6-1.2,1.9-1.3,3"/>
			<path class="st5" d="M539.5,860.9c-0.4,15.8,23.6,11,33.8,8.6c27.9-9.5,5.6-50.8-10.3-63C509.9,804.8,547.4,830.1,539.5,860.9z"
				/>
			<ellipse class="st5" cx="536.6" cy="794.8" rx="32.3" ry="28.5"/>
			<path class="st9" d="M539.6,822.5c-0.1,0.5-0.1,1,0.2,1.4c0.4,0.5,1.1,0.5,1.7,0.5c6.4-0.5,12.6-2.6,17.9-6
				c1.6-1,3.1-2.2,4.2-3.7c1.1-1.5,1.8-3.5,1.4-5.3c0-0.2-0.1-0.4-0.2-0.6c-0.2-0.2-0.4-0.2-0.7-0.2c-2.3-0.2-4.5,0.7-6.5,1.7
				c-2.8,1.4-5.6,2.8-8.3,4.3c-1.4,0.8-2.8,1.5-4.2,2.3c-1.3,0.7-2.7,1.4-3.9,2.3C540.3,819.8,539.8,821.3,539.6,822.5z"/>
			<path class="st1" d="M700.5,845.2c5.9-1.1,11.8-2.2,17.3-4.7c5.5-2.4,10.5-6.2,13.3-11.6c1.8-3.4,2.5-7.3,2.7-11.2
				c0.2-3.3,0-6.6-0.9-9.8c-0.2-0.7-0.5-1.5-0.3-2.2c0.2-0.9,0.9-1.5,1.5-2.2c5.6-5.2,9.9-11.8,12.5-19
				c-16.4,5.2-33.2,10.7-46.7,21.3c-0.4,0.3-0.9,0.7-1.3,1c-3.7,3.1-7.2,6.6-10.2,10.4c-3,3.8-5.7,7.9-7.9,12.2s-4,8.8-5.4,13.5
				c-0.9,3.1-1.6,6.3-2,9.5c2-0.1,3.9-0.3,5.9-0.4c0.6-5.6,1-11.3,3.6-16.2c1.4-2.6,3.4-4.8,5.4-7c10.8-11.5,23.2-21.6,36.6-29.9
				c2.2-1.4,4.8-2.8,7.4-2.3c0.4,4.2-5,6.5-6.7,10.3c-1.8,3.9,0.5,8.5-0.2,12.7c-0.8,4.4-4.6,7.6-8.2,10.3c-4.2,3.2-8.7,6.5-14,7.4
				c-3.9,0.7-8.4,0.1-11.2,2.9c-2,2-2.4,5.2-2,8c0.1,1,0.3,1.9,0.6,2.8c3.6-0.3,7.2-0.7,10.8-1.1
				C700.6,848.6,700.2,846.9,700.5,845.2z"/>
			<path class="st1" d="M659.8,853.5c2.4-0.1,4.9-0.3,7.4-0.4c2.9-10.7,6.8-21.2,9.7-31.9c4.1-15,6.3-31.4,1.1-46.1
				c-0.1-0.2-0.2-0.5-0.4-0.5c-0.2-0.1-0.5,0.1-0.7,0.3c-5,4.2-9.5,8.9-13.7,13.9c-2.3,2.8-4.5,5.6-6.1,8.8c-1.7,3.3-2.7,7-3.7,10.6
				c-2.5,9.4-5,19-5.6,28.7c-0.2,2.7-0.2,5.4-0.1,8c0.1,3,0.3,6.1,0.6,9.1c1.8-0.1,3.6-0.2,5.4-0.2c-0.1-7.9-0.5-15.8,0-23.6
				c0.9-11.8,4.4-24.1,13.1-32.2c0.8-0.8,1.9-1.5,3-1.2c-0.5,14.1-2.7,28.1-6.5,41.6C662,843.4,660.4,848.5,659.8,853.5z"/>
			<path class="st1" d="M615.7,823.7c1.1,2,2.6,3.8,4.1,5.6c6.3,7.7,12.6,15.8,15.6,25.2c2.9-0.1,5.8-0.2,8.8-0.3
				c-1.7-9.8-5.6-19.2-11.5-27.3c-4.6-6.4-10.5-12.2-12.7-19.7c-1.5-5.2-1-11,1.3-15.9c-6.3,1.6-12.6,3.5-18.1,7.1
				c-5.5,3.5-10.1,8.7-11.7,15c-0.8,3.1-0.9,6.3-0.6,9.4c0.7,10.8,5.3,22,14.6,27.7c2.9,1.8,6.1,2.9,9.3,4c0.7,0.2,1.4,0.4,2,0.7
				c3.5-0.1,7.1-0.2,10.8-0.3c-2.1-3.4-5.2-6.2-8.6-7.9c-2.9-1.5-6-2.2-8.8-3.8c-4.9-2.8-8.2-7.9-9.4-13.3
				c-1.2-5.5-0.3-11.3,1.9-16.4c2-4.6,5.3-9,10.2-10.2C612.6,810.1,612.3,817.6,615.7,823.7z"/>
			<path class="st1" d="M592.9,763.2c-0.2,3.1,0.1,6.4,0.2,9.6c0,2.7,0,5.8-2,7.8c-2.5,2.5-6.7,1.9-10.1,1c-1.3-0.3-2.7-0.7-4-1
				c-1.1-0.3-2.3-0.6-3.1-1.4c-1.2-1.2-1.2-3.4-0.2-4.9s2.7-2.3,4.5-2.6c0.9-0.2,2.1,0,2.2,0.9c0.1,0.4-0.2,0.8-0.3,1.1
				c-0.7,1.2-1.3,2.3-2,3.5c3.2,0,6.4,0.1,9.5,0.1c0.4,0,0.8,0,1.1-0.2s0.4-0.7,0.4-1c0.6-4.2,0.9-8.4,0.7-12.6
				c-7.5,3.2-14.6,6.3-21.1,8.9c-0.5,0.2-1.1,0.4-1.6,0.7c-0.2,1.4-0.4,2.8-0.6,4.1c-0.1,1.1-0.2,2.4,0.5,3.3
				c0.5,0.7,1.3,1.1,2.2,1.5c4.4,2,8.9,4,13.3,6.1c3.6,1.7,7.5,3.4,11.5,2.9c0.7-0.1,1.4-0.2,1.9-0.7c0.8-0.7,1-1.9,1.1-3
				c0.3-3.7,0.4-7.3,0.5-11c0.1-3.3,0.1-6.6,0.1-9.9c0-1.4,0.3-3.1-0.1-4.5c-0.2-0.7-0.7-1-1.3-1c-0.1,0-0.1,0-0.2,0
				c-0.8,0.3-1.6,0.7-2.4,1C593.2,762.3,593,762.7,592.9,763.2z"/>
			<path class="st1" d="M619.2,764.6c1,1.5,0.9,3.3,1.3,5.1c0.9,4.9,5.1,8.8,9.8,10.6c4.7,1.7,9.9,1.6,14.9,0.9
				c23.1-3.1,44.1-18.6,54-39.6c0.7-1.5,1.4-3.1,1.7-4.8c-4.3-0.3-8.6-0.3-12.9-0.2c-0.4,0.9-0.8,1.9-1.3,2.8
				c-1.2,2.4-2.9,4.6-4.6,6.8c-5.3,7-10.8,14-17.5,19.5s-15.2,9.6-24,9.5c-2.1,0-4.2-0.3-6.1-1.3c-1.8-1-3.2-2.9-3.2-5
				c0-2.5,2.1-5.4,0.4-7.3c-0.8-0.9-2.2-1.1-3.3-1.3c-3.7-0.7-7-2.8-9.3-5.7c-0.5-0.7-1-1.4-1.5-2.2c-3.4,1.3-6.8,2.6-10.1,3.9
				c0.8,1,1.7,1.9,2.7,2.6c2,1.5,4.4,2.5,6.5,3.8C617.7,763.1,618.6,763.7,619.2,764.6z"/>
			<path class="st1" d="M641.5,757c0.5,2,0.1,4.2,1.3,5.9c0.7,1,2,1.5,3.2,1.8c3.4,0.7,7-0.5,9.8-2.5c2.8-2,5.1-4.7,7.3-7.4
				c4.3-5.3,8.7-10.9,11.1-17.3c-2.9,0.3-5.8,0.8-8.7,1.3c-0.4,0.8-0.7,1.5-1.1,2.2c-2,4.2-4.4,8.3-7.2,12c-2,2.6-4.6,5.3-8,5.4
				c-0.7,0-1.4-0.1-2-0.5c-1.6-1-1.4-3.4-1.5-5.3c-0.2-3.2-1.7-6.2-3.7-8.6c-3.3,0.9-6.6,1.9-9.8,3
				C634.7,750.9,640.3,752.4,641.5,757z"/>
			<path class="st1" d="M712.3,774.6c0.1,0.8,0.3,1.7,0.8,2.3c1.1,1.2,3.2,1,4.5-0.1s1.8-2.8,2.3-4.3c3.2-10.7,4.4-22.3,1-32.9
				c-2.2-0.5-4.3-0.9-6.4-1.3c-1.4-0.2-2.8-0.4-4.2-0.6c1.6,4.1,2.6,8.4,3,12.7c0.3,3,0.3,6,0,9.1
				C712.9,764.5,711.6,769.6,712.3,774.6z"/>
			<path class="st1" d="M728.6,777.3c0.3-0.1,0.5-0.3,0.7-0.5c8.4-7.7,13.5-18.8,14.2-30.1c0,0,0-0.1,0-0.2c-3.5-1.4-7-2.7-10.5-3.8
				c0.2,1,0.3,2.1,0.4,3.1c0.2,2.7,0.2,5.5,0,8.2c-0.3,3.1-1,6.1-1.9,9c-1.3,3.9-3.2,7.5-4.1,11.5
				C727,775.8,727.4,777.6,728.6,777.3z"/>
			<path class="st1" d="M745.5,773.6c1.4-1,2.8-2,4.2-2.9c2.8-1.9,5.6-3.9,7.8-6.4c1.8-2,3.2-4.3,3.8-6.8c0.2-0.7,0.3-1.6,0.3-2.4
				c-2.6-1.4-5.3-2.8-8-4.1c-0.3,0.6-0.6,1.3-0.9,2c-1,2.9-2.5,5.7-4.6,8c-2,2.3-4.5,4.2-6.6,6.4c-2.1,2.2-3.9,5-3.9,8
				C740.1,776.9,743.2,775.2,745.5,773.6z"/>
			<path class="st1" d="M525.8,863.5c-1-5.5-0.4-11.1,0.7-16.5c1.1-5.6,2.7-11.2,3.6-16.8c0.1-0.7,0.2-1.4,0.3-2.1
				c0.2-1.5-0.1-3.4-1.5-3.7c-0.6-0.1-1.2,0.2-1.7,0.5c-3,1.6-5.1,4.4-7.3,6.9c-7.7,8.8-17.9,15.9-29.4,17.6
				c-2.7,0.4-6.1,0.2-7.5-2.2c-1-1.9-0.3-4.3,1.1-5.9s3.4-2.6,5.2-3.6c6.5-3.7,12-9,16-15.3c1.4-2.3,2.7-4.8,2.5-7.5
				c-0.2-2.7-2.6-5.3-5.2-5c-1.5,0.2-2.8,1.3-4,2.2c-5.5,4.3-12.4,6.9-19.4,7.3c-1.9,0.1-4,0.1-5.6-0.9c-2.6-1.5-3.6-5-3.2-8
				c0.4-2.7,1.6-5.1,2.8-7.6c-3.9,1.3-7.8,2.6-11.6,3.9c-0.3,1-0.5,2.1-0.7,3.1c-0.8,4.4-0.4,9.3,2.5,12.6c2.4,2.7,6,3.8,9.5,4.3
				c6,0.8,12.1,0,17.6-2.3c0.6,0.7,0.5,1.8,0,2.5s-1.4,1.2-2.2,1.6c-7.8,4.2-14.9,11-16.9,19.7c-0.6,2.7-0.7,5.7,0.8,8.1
				c0.9,1.5,2.4,2.7,3.9,3.6c3.8,2.4,8.4,3.9,12.8,3.4c5.3-0.5,10-3.7,14-7.2c4-3.5,7.8-7.4,12.5-10c-0.3,0.2-0.6,1.3-0.7,1.6
				c-0.2,0.6-0.4,1.1-0.6,1.7c-0.3,1.2-0.6,2.4-0.7,3.6c-0.3,2.4-0.1,4.9,0.4,7.3c0.5,2.4,1.5,5.1,3,7.4c3.1-0.6,6.2-1.3,9.5-1.9
				C526.2,865,526,864.2,525.8,863.5z"/>
		</g>
	</g>
</g>
<g id="голова_1_">
	<path class="st8" d="M408.7,108.8c0,0-28.8,8.1-36.6,44.6c-5.8,27.2,8.7,61.8,32.9,70.8s139.8,11.9,146,27.6s20.8,33.9,34.7,39.5
		c0,0-9.6-31.9-2.7-53.2c6.9-21.3,8.9-57.4-1.7-69.7c-10.7-12.3,12.3-91.9-67.8-106.4S411.5,85.1,408.7,108.8z"/>
	<path class="st4" d="M406.6,201.9c0,0-16.5-12.3-21.2,5.1s20.3,56.2,42,45.1c0,0,11.3,32.1,25.7,48.8c14.4,16.7,32.2,25.2,55,24.1
		c22.8-1.1,36.9-18.2,42.4-34.3s18.4-49.3,16.7-67.8c-1.7-18.4,23.6-100.3-81.6-92.9C406,135.6,406.6,201.9,406.6,201.9z"/>
	<path class="st3" d="M433.4,253.2c1,1.7,2.3,3.5,4.2,3.8c0.9-3.6-0.6-7.3-2-10.7c-1.5-3.5-2.9-7-4.3-10.6c-0.6-1.5-1.5-3.3-3.5-2.9
		c-1.4,0.3-1.8,1.6-1.8,2.8c0,3.9,1.9,8,3.7,11.4C430.9,249.2,432.1,251.2,433.4,253.2z"/>
	<path class="st8" d="M450.3,150.2c0,0-0.3,29.6-8.2,44.1c-7.9,14.6-19.8,23.7-9.7,46.3c0,0-17.9-9.5-18.6-22.6
		c0,0-18.3-15.6-14.4-46.7c5.2-42,39.6-47.8,39.6-47.8L450.3,150.2z"/>
	<path class="st10" d="M405.1,215.2c5.1,2.3,10.4,7.6,15.3,19.2c0,0,0,0,0,0c0,0,0,0.1,0,0.1c0.5,1.2,1,2.5,1.5,3.8
		c0.2,0.6-0.1,1.2-0.7,1.4c-0.1,0-0.1,0-0.2,0c-0.5,0.1-1-0.2-1.2-0.7c-0.4-1.3-0.9-2.5-1.4-3.6c-6-10-16.9-5.1-17.1-5.7
		c-0.3-0.5,5.6-6.6,12-2.6c-9.3-15.1-21.9-12.2-22-12.8C391.3,213.8,399,212.4,405.1,215.2z"/>
	
		<ellipse transform="matrix(5.656205e-02 -0.9984 0.9984 5.656205e-02 152.2697 645.6366)" class="st11" cx="417.8" cy="242.2" rx="7.7" ry="7.7"/>
	<circle class="st11" cx="393.5" cy="209.1" r="3.9"/>
	<g>
		<path class="st10" d="M491.8,189.6c-3.5,4-17.3-2.1-25.3-1.8c-10.6,0.4-23.1,10.9-25.2,8.8c-1.5-1.5,11.8-17.6,28.3-17.6
			C486.1,178.8,495.6,185.2,491.8,189.6z"/>
		<g>
			<path class="st11" d="M458.3,193c-4.1-0.2-7.3-3.8-7.1-7.9c0.2-4.1,3.8-7.3,7.9-7.1c1.4,0.1,3.2,1.1,4.3,1.9l-2.2,0.7
				c-0.7-0.3-1.4-0.6-2.2-0.6c-3-0.2-5.7,2.2-5.8,5.2c-0.2,3,2.2,5.7,5.2,5.8c2,0.1,4-0.9,5-2.6l2.3-0.4
				C464.6,191.1,461.4,193.2,458.3,193z"/>
		</g>
		<g>
			<path class="st11" d="M449.8,197c-4.1-0.2-7.3-3.8-7.1-7.9c0.2-4.1,3.8-7.3,7.9-7.1c1.4,0.1,3,0.8,4.1,1.6l-1.7,1.3
				c-0.8-0.6-1.5-0.8-2.5-0.9c-3-0.2-5.7,2.2-5.8,5.2c-0.2,3,2.2,5.7,5.2,5.8c2.3,0.1,5-0.8,5.6-3.9l1.9-0.8
				C456.6,194.5,452.9,197.2,449.8,197z"/>
		</g>
	</g>
	<g>
		<path class="st11" d="M519.3,258.5c-0.2,4.1-3.8,7.3-7.9,7.1c-4.1-0.2-7.3-3.8-7.1-7.9c0.1-1.4,0.8-3,1.6-4.1l1.3,1.7
			c-0.6,0.8-0.8,1.5-0.9,2.5c-0.2,3,2.2,4.7,5.3,4.8c3,0.2,5.6-1.2,5.8-4.2L519.3,258.5L519.3,258.5z"/>
	</g>
	<path class="st3" d="M486.8,209.3c-1.1,2.2-10.7-2.2-16.9-3c-6.2-0.8-16.7,6.4-19.6,4.4c-3-2,8.7-12.6,18.8-11.9
		C479.1,199.5,488.8,205.3,486.8,209.3z"/>
	<path class="st3" d="M525.6,302.1c-1.2,2.2-8.7-3.3-17.2-3.8c-8.6-0.5-17.4,5.6-20.3,3.5s7.2-9.7,19.4-9.4
		C517.9,292.5,527.8,298.2,525.6,302.1z"/>
	<g>
		<path class="st10" d="M540.5,178.2c-16.5,0.3-25.8,6.8-21.9,11.1c3.6,3.9,17.2-2.5,25.2-2.4c0,0,0.1,0,0.1,0l2.5-8.2
			C544.6,178.4,542.6,178.2,540.5,178.2z"/>
		<path class="st10" d="M550.6,180l-2.4,7.6c9.5,2.1,19.3,9.6,21.1,7.7C570.4,194.1,562.2,184,550.6,180z"/>
	</g>
	<path class="st12" d="M488.4,217.6c0,0-6.2-13.8-17.1-14.2c-15.8-0.6-21.8,13.2-21.8,13.2s3.5,7.3,17.5,7.9
		C481,225.1,488.4,217.6,488.4,217.6z"/>
	<path class="st10" d="M488.4,217.6c0,0-1.8-16.2-18.4-16.8c-16.5-0.7-20.5,15.8-20.5,15.8s8.6-12.1,20.8-11.6
		C482.4,205.5,488.4,217.6,488.4,217.6z"/>
	<path class="st10" d="M449.5,216.6c0,0,5.1,7,19.1,7.3c10.4,0.2,19.8-6.2,19.8-6.2s-4.6,8.9-20.6,8.2
		C452,225.2,449.5,216.6,449.5,216.6z"/>
	
		<ellipse transform="matrix(5.656203e-02 -0.9984 0.9984 5.656203e-02 212.9637 685.0895)" class="st10" cx="469" cy="229.9" rx="2" ry="2"/>
	
		<ellipse transform="matrix(5.656203e-02 -0.9984 0.9984 5.656203e-02 223.1711 665.3075)" class="st10" cx="463.6" cy="214.6" rx="7.7" ry="7.6"/>
	<path class="st3" d="M556.3,207.7c-1,2.3-10.6-1.7-16.7-2.2c-6.1-0.5-16.1,7.2-19.1,5.3c-3-1.9,8-13,17.9-12.7
		C548.4,198.3,558.1,203.6,556.3,207.7z"/>
	<g>
		<path class="st10" d="M449.2,204c2.1-2.9,5-5.1,8.2-6.6c3.2-1.5,6.8-2.3,10.3-2.5c3.5-0.1,7.1,0.1,10.5,1.3
			c1.7,0.6,3.4,1.3,4.9,2.3c0.7,0.5,1.5,1.1,2.1,1.7c0.6,0.6,1.4,1.3,1.5,2.4c0,0.3-0.2,0.6-0.5,0.6c-0.1,0-0.2,0-0.3,0l-0.1-0.1
			c-0.8-0.3-1.3-1-1.9-1.5c-0.6-0.5-1.3-1-2-1.4c-1.4-0.8-2.9-1.5-4.5-1.9c-0.8-0.3-1.6-0.4-2.4-0.6c-0.8-0.1-1.6-0.3-2.4-0.3
			c-1.6-0.2-3.3-0.2-5-0.2c-3.3,0.1-6.6,0.7-9.7,1.9c-1.5,0.6-3,1.4-4.4,2.3c-1.4,0.9-2.7,2-3.8,3.2l0,0c-0.2,0.2-0.5,0.2-0.7,0
			C449,204.5,449,204.2,449.2,204z"/>
	</g>
	<g>
		<path class="st10" d="M520.6,204.1c2.2-2.8,5.2-4.7,8.5-6c3.3-1.3,6.8-1.8,10.3-1.8c3.5,0.1,7,0.6,10.3,2c1.6,0.7,3.2,1.6,4.6,2.7
			c0.7,0.6,1.4,1.2,1.9,1.9c0.6,0.7,1.2,1.4,1.3,2.4c0,0.3-0.2,0.5-0.5,0.5c-0.1,0-0.2,0-0.3-0.1l-0.1-0.1c-0.8-0.4-1.2-1-1.7-1.6
			c-0.5-0.6-1.2-1.1-1.8-1.5c-1.3-0.9-2.7-1.7-4.2-2.2c-0.7-0.3-1.5-0.5-2.3-0.8c-0.8-0.2-1.6-0.4-2.4-0.5c-1.6-0.3-3.2-0.5-4.8-0.5
			c-3.2-0.2-6.5,0.3-9.6,1.3c-1.5,0.5-3,1.2-4.4,2c-1.4,0.8-2.8,1.8-3.9,2.9l0,0c-0.2,0.2-0.5,0.2-0.7,0
			C520.5,204.6,520.4,204.3,520.6,204.1z"/>
	</g>
	<path class="st12" d="M558.2,215.9c0,0-5.8-11.1-16.5-11.1c-15.5,0.1-21.6,11.8-21.6,11.8s4,8.5,17.7,8.5S558.2,215.9,558.2,215.9z
		"/>
	<path class="st10" d="M558.2,215.9c0,0-2.4-15.1-18.7-15s-19.5,15.7-19.5,15.7s8-11.5,19.9-11.5
		C551.9,205.1,558.2,215.9,558.2,215.9z"/>
	<path class="st10" d="M520.1,216.7c0,0,5.2,7.9,18.9,7.5c10.2-0.3,19.2-8.2,19.2-8.2s-4.2,10.2-20,10.3
		C522.8,226.3,520.1,216.7,520.1,216.7z"/>
	
		<ellipse transform="matrix(5.656203e-02 -0.9984 0.9984 5.656203e-02 275.4182 757.8973)" class="st10" cx="538.7" cy="233.2" rx="2" ry="1.9"/>
	
		<ellipse transform="matrix(5.656203e-02 -0.9984 0.9984 5.656203e-02 289.9498 736.7156)" class="st10" cx="534.8" cy="214.9" rx="7.7" ry="7.4"/>
	<path class="st10" d="M522.6,195.9c-3.1,8.1-1.7,14.2,0.1,22.1c0,0,7.8,26.6,7.8,26.6c-2.6,7.5-11.9-30.1-12.7-33.5
		C517,207.1,520.3,190.1,522.6,195.9z"/>
	<g>
		<path class="st10" d="M493,246c-0.7,0.6-1.4,1.5-1.9,2.3c-0.4,0.8-0.7,1.7-0.5,2.5c0.1,0.8,0.6,1.6,1.2,2.2
			c0.6,0.6,1.3,0.8,2.3,0.8c0.9,0,2-0.2,3-0.5l3.3-1c0.6-0.2,1.2-0.3,1.9-0.4c0.8-0.1,1.5,0.1,2.1,0.3c1.2,0.3,2.3,0.8,3.4,1.2
			c2.1,0.9,4.2,1.8,6.3,2.6c2.1,0.8,4.3,1.4,6.4,1.7c1.1,0.1,2.1,0.2,3-0.1c0.9-0.2,1.8-0.7,2.5-1.4c1.4-1.4,2.3-3.5,2.8-5.5l0-0.1
			c0.1-0.5,0.6-0.9,1.2-0.8c0.5,0.1,0.9,0.6,0.8,1.1c-0.2,1.3-0.6,2.4-1.1,3.6c-0.5,1.1-1.2,2.2-2.1,3.2c-0.9,0.9-2.1,1.7-3.4,2
			c-0.3,0.1-0.7,0.2-1,0.2l-1,0.1c-0.6,0-1.3,0-1.9-0.1c-4.9-0.6-9.2-2.6-13.4-4.2c-1-0.4-2.1-0.8-3.1-1.1c-0.5-0.1-0.9-0.2-1.3-0.2
			c-0.4,0-0.9,0.2-1.4,0.3c-2.1,0.6-4.3,1.6-7,1.7c-1.4,0-3-0.4-4.1-1.5c-0.3-0.3-0.5-0.5-0.7-0.8c-0.2-0.3-0.4-0.6-0.6-0.9
			c-0.3-0.6-0.6-1.3-0.7-2.1c-0.2-1.5,0.3-3,1.1-4.1c0.4-0.6,0.8-1.1,1.3-1.5c0.5-0.4,0.9-0.8,1.5-1.2c0.5-0.3,1.1-0.1,1.4,0.3
			C493.6,245.1,493.5,245.6,493,246L493,246z"/>
	</g>
	<path class="st8" d="M438,140.4c0,0,4.6,21.1,41.6,19.7c37-1.4,58.6-8,75.9,12.5c17.3,20.5,1.4,56.8,25.9,72.2
		c0,0,38.7-86,1.8-134.9C546.2,61.1,414.5,76.9,438,140.4z"/>
	<path class="st7" d="M592.3,126.2c-0.2,1.3-0.6,2.5-1.3,3.6c-8-5.2-15.5-11.2-22.3-17.9c8.3,8.3,16,18.1,17.4,29.8
		c0.4,2.9,0.3,5.8-0.4,8.6c-0.8,2.9-2.3,5.6-4.5,7.7c-0.8-1.2-2.8-1.1-3.5,0.1c-0.7,1.2-0.1,2.8-0.6,4.2c-0.5,1.3-2.2,2-3.5,1.4
		c0.5,3.6,0.7,7.3,0.4,10.9c-7.7-9.1-15.7-18.4-26-24.5c3.3,6.9,6.7,14.2,7,21.8c0.2,0.3,0.5,0.5,0.7,0.8c4,4.7,6.2,10.3,7.6,16.2
		c0-0.2,0.1-0.4,0.1-0.6c0.4-2.3,2.2-5.1,4.3-4.2c1.1,0.5,1.6,1.8,2.5,2.6c0.9,0.9,2.8,0.8,2.8-0.4c1.2,2.3,2,4.8,2.3,7.3
		c1.4-2.7,2.5-5.5,3.3-8.5c2.4,5.1,4.6,10.3,6.4,15.7c5.2-10.4,0.8-23.4,4.3-34.5c1.7,2,3.3,3.9,5,5.9c0.7-6.5,1.4-13,2.1-19.4
		c1,1.6,2,3.2,2.9,4.8C598.4,146.8,596.4,136.1,592.3,126.2z"/>
	<path class="st7" d="M428.7,203.6c-1.9-0.9-2.3-3.4-2-5.4c0.3-2,1.2-4,1.1-6.1c-0.9,1.6-2.1,2.9-3.6,3.9c0.2-5.5,1.1-11,2.7-16.3
		c-4,5-7.7,10.2-11.1,15.6c-1.9-11.8-0.6-24,3.6-35.2c-3.8,6.3-6.6,13.1-8.4,20.2c-0.7,2.7-1.4,5.9-3.7,7.6
		c-1.2,0.9-2.3,1.2-3.1,2.5c-0.8,1.4-1.8,1.8-3.2,0.9c-0.4-0.2-0.8-0.5-1.1-0.6c0.8,4.3,2,8.1,3.4,11.3c1.4,0.1,2.9,0.2,4.2,0.8
		c0.1-1.1,0.2-2.3,0.4-3.4c3.1,2.7,5.2,6.6,5.7,10.7c-0.3-3.5,0.4-7,1.9-10.2c2.2,7.7,3.8,15.5,4.7,23.4c0.8-5,3.3-9.7,6.9-13.2
		c0.2,2.6,1,5.2,2.4,7.4c0.8-3.2,2.2-6.2,3.9-9.1c0.1-1.4,0.2-2.8,0.4-4.2C432.2,203.7,430.3,204.4,428.7,203.6z"/>
	<path class="st7" d="M411.3,131.3c1.5,3-0.6,7.4,2,9.5c7.9,2.4,12-0.9,17.8,7.4c1.6,1.2,3.8,1.1,5.6,2c2.1,1,3.5,3,5.1,4.6
		c1.2,1.2,8,3.3,8.3-0.3c-2.6-10.7-7.8-20.2-9.7-31.1c-2.1-6-0.4-15-5.5-19.1c-3.1,9.6-0.1,20.4,0.7,30.3
		c-8.7-3-11.6-12.9-13.3-21.1c-0.3,1.5-0.6,3-0.9,4.5c-7-1.5-8.1-8.9-12.1-13.4c-0.3,1.5-0.5,3-0.7,4.4c0,0-8.9,2.5-18.1,10.9
		c3.8,0.6,7.5,1.2,11.3,1.8c-5.2,3.7-10.9,7.9-12.4,14.1C396,133.8,405.4,124.3,411.3,131.3z"/>
	<path class="st7" d="M411.9,149.6c-7.7,1.6-13.7,7.4-19.3,12.9c-0.1-4,0.6-8.1,1.9-12c-2.9,1.3-5.9,2.4-9,3.2
		c-0.3-0.7-0.7-1.5-1-2.2c-0.9,0.5-1.8,1-2.7,1.5c-0.8-1.2-2.5-1.7-3.8-1.2c0.2-0.1,0.5-2.1,0.5-2.3c0.2-0.8,0.4-1.6,0.5-2.4
		c0.4-1.6,0.7-3.3,1.1-4.9c0.7-3.3,1.5-6.5,2.2-9.8c0.3-1.4,0.8-2.9,1-4.4c-4.7,6.4-8.9,14.6-11.2,25.4c-0.4,1.8-0.7,3.6-0.9,5.4
		c0,0,0.1-0.1,0.1-0.1c-0.1,3.9-0.2,7.8-0.3,11.7c3.8-1,7.5-2.4,11.1-4.2c0,1.6-0.1,3.2-0.1,4.8c2.3,0.5,4.7,0.3,7-0.4
		c-2.9,7.7-4.1,16.2-3.5,24.4c4.4-11,9.2-22.5,18.6-29.8c-0.8-2.9,0.6-6,2.5-8.3C408.4,154.5,410.7,152.4,411.9,149.6z"/>
	<path class="st11" d="M543.3,169.4c6.2,2.5,23.7-47,17.1-49.9S535.9,166.4,543.3,169.4z"/>
	<path class="st11" d="M556,181.5c6.2,2.5,23.7-47,17.1-49.9C566.6,128.7,548.6,178.5,556,181.5z"/>
	<path class="st2" d="M539.3,276.4c-0.1-0.2-0.4-0.2-0.6-0.3c-1.4-0.7-2.7-2.3-4.8-4.1c-2.4-2-5.3-5.6-10.1-5.6
		c-6.6-0.2-9.1,4.6-11.8,4.4s-4.1-4.8-14.5-4.6c-7.9,0.1-12.7,5.1-15.6,6.5c-3,1.4-5.8,2.9-7.7,3.6c0,0,0,0,0,0
		c-0.2,0-0.3,0.1-0.3,0.2c0,0,0,0,0,0c0,0,0,0.1,0,0.1c0.2,1.7,9.7,11.6,19.8,14.8c10.5,3.3,23.4,2.6,30.5-0.4
		c6.5-2.7,15.2-11.3,15.4-14.1C539.8,276.8,539.8,276.6,539.3,276.4z"/>
</g>
</svg>
