<?xml version="1.0" encoding="utf-8"?>
<!-- Generator: Adobe Illustrator 25.2.0, SVG Export Plug-In . SVG Version: 6.00 Build 0)  -->
<svg version="1.1" id="Layer_2" xmlns="http://www.w3.org/2000/svg" xmlns:xlink="http://www.w3.org/1999/xlink" x="0px" y="0px"
	 viewBox="0 0 2562 1441" style="enable-background:new 0 0 2562 1441;" xml:space="preserve">
<style type="text/css">
	.st0{fill:#6BAFDD;}
	.st1{fill:#45585A;}
	.st2{fill:#FFFFFC;}
	.st3{fill:#83A097;}
	.st4{fill:#4D1C39;}
	.st5{fill:#3C2C40;}
	.st6{fill:#E27247;}
	.st7{fill:none;stroke:#4D1C39;stroke-width:5.5847;stroke-miterlimit:10;}
	.st8{fill:#9DCBA4;}
	.st9{fill:#FFFFFF;}
	.st10{fill:#8DA38E;}
	.st11{fill:#82A295;}
	.st12{fill:none;stroke:#45585A;stroke-width:3;stroke-linecap:round;stroke-linejoin:round;stroke-miterlimit:10;}
</style>
<rect y="1" class="st0" width="2562" height="1441"/>
<g>
	<path class="st1" d="M772.4,362H337.6c-4.2,0-7.6-3.4-7.6-7.6V37.9c0-4.2,3.4-7.6,7.6-7.6h434.7c4.2,0,7.6,3.4,7.6,7.6v316.5
		C780,358.6,776.6,362,772.4,362z"/>
	<path class="st2" d="M751.2,340.4H358.8c-3.7,0-6.8-3-6.8-6.8v-275c0-3.7,3-6.8,6.8-6.8h392.4c3.7,0,6.8,3,6.8,6.8v275
		C758,337.4,754.9,340.4,751.2,340.4z"/>
	<path class="st3" d="M683.6,275.6H426.4c-2.2,0-4.1-1.8-4.1-4.1V120.7c0-2.2,1.8-4.1,4.1-4.1h257.3c2.2,0,4.1,1.8,4.1,4.1v150.9
		C687.7,273.8,685.9,275.6,683.6,275.6z"/>
</g>
<rect x="0" y="1206" class="st4" width="2562" height="235"/>
<g>
	<path class="st4" d="M147.9,302.8c8.5-3.7,18.7-0.1,25.4,6.3s10.6,15,14.4,23.5c-8.1-31-16-64.7-3.8-94.3
		c10.7,16.3,16.3,36,15.6,55.5c0.8-18.5,2.5-37,5.1-55.4c1-6.7,3.2-14.8,9.8-16.4c2.6,7.1,3.2,14.9,1.8,22.4
		c2.4-35.7,24.4-69.5,56.1-86.2c-2.4,28.9-10.5,57.2-23.9,83c7.4-8.1,18-13.3,28.9-14.2c-9.4,12.7-19.5,25-30.2,36.6
		c13.4-2.8,28.1,1.4,38,10.8c-13.8,24.4-34.2,45-58.4,59.1c11.3-7.1,25.1-10.3,38.5-8.9c-9.1,12.6-19.4,24.2-30.7,34.8
		c6.1-3.5,12.9-5.7,19.9-6.5c2.4,4.4-0.8,9.7-3.8,13.7c-8.8,11.4-17.6,22.9-26.4,34.3c-1.9,2.4-3.8,6-6.4,7.6
		c-3,1.8-5.7-0.1-8.4-1.6c-5-2.8-10.3-5.5-14.8-9.1c-5.9-4.7-8.5-10.9-11.6-17.6c-5.3-11.5-12.4-22.1-17.9-33.5
		c-3.5-7.1-6.6-14.4-9.5-21.8C154.8,322.9,147.2,303.1,147.9,302.8z"/>
	<path class="st4" d="M213.8,335.2c15.5,11.9,29.1,26.5,39.9,42.8c-8.2-23.4-11.5-48.6-9.4-73.4c2.6-0.4,4.6,2,6,4.2
		c9.8,15.8,16.1,33.8,18.5,52.2c-1.1-6.5-2.2-13.2-1-19.7c1.2-6.5,5.2-12.9,11.5-15c1.2-0.4,2.6-0.8,3.3-1.9c0.8-1.3,0-3-0.7-4.4
		c-8.8-17-12.5-36.5-10.6-55.6c0.3-3.4,1.2-7.3,4.2-8.9c4.9-2.6,10.1,2.8,12.7,7.6c8.7,16.4,13,35.1,12.2,53.7
		c4.8-8.1,12.6-14.3,21.5-17.1c-6.2-12.8-9.8-26.8-10.5-41c-0.2-4,0.7-9.2,4.6-10.1c11.1,12.6,18,28.9,19.4,45.6
		c-1.5-13.9,2.6-28.4,11.3-39.5c5.1,9.3,4,21.6-2.6,29.8c7.8-18.7,19.9-35.7,35.1-49.2c3.8-3.3,9.4-6.5,13.4-3.4
		c1.6,1.3,2.4,3.4,2.8,5.5c1.2,7.2-2,14.4-5.6,20.8c-8,14.1-18.6,26.6-31.1,36.9c4.5-0.7,9-0.9,13.6-0.7c2,0.1,4.3,0.5,5.1,2.4
		c1,2.6-2,4.8-4.6,5.8c-8.2,3.2-16.8,5.1-25.6,5.6c4.3,2.5,9.5,2.9,14,4.8c4.6,1.9,8.8,6.7,7.2,11.4c-1.2,3.4-5,5.2-8.5,6.1
		c-6.4,1.5-13.2,1.3-19.5-0.8c-6.1-2-11.6-5.5-17.7-7.3c-6.1-1.8-13.6-1.6-17.9,3.1c20.7,3.1,40.3,13.4,54.6,28.7
		c0.7,0.7,1.4,1.6,1.4,2.6c0,1.5-1.5,2.5-2.8,3.2c-10.1,4.5-21.9,1.9-32.4-1.5c-13.4-4.3-26.4-9.6-38.9-16c0.4,3.4-0.6,6.9-2.8,9.4
		c16.7,1.5,32.8,9.1,44.4,21.2c1.6,1.7,3.3,3.8,2.9,6.1c-0.5,3.5-4.9,4.7-8.4,4.9c-17.5,1.4-35.2-0.5-52-5.7
		c3.9-1.2,8.2-2.4,12.1-1.2c4,1.2,7.2,5.8,5.3,9.4c-1.7,3.4-6.2,4-9.9,4.6c-8.3,1.4-16.1,5.3-22.3,10.8c-2.6,2.3-4.9,5.6-8.8,5.4
		c-3.6-0.2-5.5-3.2-6.7-6.2c-5.7-14.9-16-27.3-22.3-41.9C214.4,352,212.4,343.6,213.8,335.2z"/>
	<path class="st5" d="M37.4,443.9c6.8-4.8,16.1-2.1,23.9,0.8c16.5,6.1,33,12.2,49.5,18.4c-23.6-10-46.5-21.7-68.4-35
		c-4.2-2.5-8.8-6-8.7-10.9c19.8-2.1,40.1,2.2,57.4,12.1c2.9-9.7-4.1-19.4-11.3-26.5c-7.2-7.1-15.8-14.2-17.3-24.2
		c-0.5-3.4-0.3-7.1-2.4-9.8c-1.8-2.4-5-3.2-7.9-3.9c-8.2-2-16.7-4.3-23.1-9.8s-9.9-15.3-5.8-22.7c0.6-1.1,1.4-2.1,2.6-2.6
		c1.9-0.8,4,0.3,5.7,1.3c10.5,6.1,21,12.3,31.5,18.4c-4.6-3.5-1.8-11.8,3.6-13.7c5.5-1.9,11.5,1,15.6,5.1c7.1,7.2,10,18.3,7.2,28
		c0-4.6,3.5-9,7.9-10s9.5,1.3,11.6,5.5c5.3,10.6-9.2,21.3-8.9,33.2c0.4,12.7,17.5,21.7,14.4,34.1c2.3-20.4,6.5-43.7,24.1-54.2
		c-10.3-9.6-20.5-19.3-30.8-28.9c-7.4-7-15.5-15.6-14.1-25.7c8.7,1.1,17.3,2.1,26,3.2c-16.7-10.3-24.4-33.2-17.2-51.4
		c-16.8-9.3-28.6-27.3-30.3-46.5c16,6.7,30.1,17.7,40.7,31.5c-1.3-6.2,0.5-12.9,4.7-17.6c1.3-1.4,2.9-2.7,4.8-2.9
		c3.8-0.5,6.8,3.6,7.6,7.3s0.4,7.8,2,11.4c4.2,9.2,19.4,7.3,24.8-1.3c8.2,17.7,3.5,38.4-1.4,57.3c12.4-9.1,27.6-14.3,42.9-14.7
		c3.7,11.9-6.5,23.3-16.2,31.1c-9.7,7.8-20.9,17.2-20.1,29.6c13.1-12.4,29-22,46.2-27.8c2.1,11.7-2.5,24.3-11.6,32
		c6.8-4.4,16.5-0.5,21.1,6.2s5.4,15.2,5.7,23.3c5.8-4.4,12.4-7.6,19.5-9.5c-7.4-8.4-11.5-19.6-11.4-30.8c11,7.5,19.9,17.8,25.6,29.8
		c-1.4-5.2-2.9-10.6-2.1-15.9c0.7-5.3,4.2-10.7,9.4-11.9c5.2-1.2,11.5,3.5,10.4,8.8c-1.8-4.4,0.7-9.5,4.5-12.3
		c3.8-2.8,8.6-3.7,13.3-4.5c13.1-2.4,28.4-4.1,38,5.1c-17.2,4.9-32.1,17.5-39.6,33.8c3.9,4.6,11.4,0.3,14.9-4.7
		c3.4-4.9,7.3-11.3,13.3-10.8c5.8,0.5,8.3,9.4,3.8,13c2.9-5.4,10.4-7.7,15.8-4.8c7,3.8,8.2,13.2,7.6,21.1s-2.3,16.5,1.7,23.3
		c5.2-4.4,6.5-11.9,5.8-18.7c-0.7-6.7-3.2-13.2-4.2-19.9c-0.9-6.4,1.7-15.3,8.2-14.9c6.9,0.4,8.1,10.1,7,17
		c-1.3,8.4-2.5,16.7-3.8,25.1c-0.1,0.9-0.3,1.9,0.1,2.8c0.8,2,3.5,2.1,5.7,2c20.6-1.3,41.4,1,61.2,6.9
		c-4.4,10.5-17.4,14.3-28.9,14.9s-23.7-0.3-33.4,5.8c5,4,10.1,7.9,15.1,11.9c-16.6,6.8-35.8,6.8-52.3,0c5,6.5,10,13,15,19.4
		c-22.3-0.6-44.4-4.9-65.3-12.7c11.7,1.6,22.1,10.5,25.5,21.8c-17.3,2.6-34.8,3.4-52.2,2.4c2.6,4.2-4.3,7.8-9.3,8
		c-29.7,1.3-59.4,0.6-89-2.1c-3.8-0.4-7.6-0.7-11.5-1.2c-3.1-0.3-7.3-1.7-10.4-1c-3,0.6-4.3,2-7.5,0.7c-3.3-1.2-6.4-2.7-9.6-4.2
		c-12.6-5.6-25-11.8-37.1-18.5C63.7,461,50.3,452.7,37.4,443.9z"/>
	<path class="st6" d="M189,478.9c48.1,0,87.4,0.5,87.4,17.3c0,16.9,6.7,130.9-87.1,130.9c-97.2,0-87.1-114-87.1-130.9
		S141,478.9,189,478.9z"/>
</g>
<circle class="st3" cx="342.5" cy="580.5" r="57.5"/>
<g>
	<polygon class="st7" points="93.2,633.6 32.3,1275.8 459.5,1279 392.3,633.6 	"/>
	<rect x="62.2" y="624" class="st8" width="359" height="19.9"/>
	<rect x="45.2" y="806.8" class="st8" width="393" height="19.9"/>
	<rect x="22.7" y="989.6" class="st8" width="438" height="19.9"/>
</g>
<polygon class="st9" points="412.6,1382.2 375.9,1383.7 339.8,1379.2 303.6,1380.7 267.4,1378.7 231.2,1377.9 195,1382.2 
	158.9,1384.2 122.7,1380.9 86.5,1383.7 50.3,1380.3 17,1379.4 39.9,1359.6 69,1343.3 97.6,1326.4 120.3,1300.9 151.6,1287.6 
	176.2,1263.3 213.2,1263.4 249.4,1262.9 285.5,1266.6 321.7,1267.9 357.9,1268.6 394.1,1268 430.3,1266.4 466.4,1266.4 
	502.6,1269.8 538.8,1268.9 578.4,1264.4 549.6,1287.6 520,1303.2 491,1319.8 464.7,1340.1 436.8,1358.3 "/>
<polygon class="st10" points="501.8,1358.8 465.4,1360.4 429.7,1355.8 394,1357.4 358.3,1355.3 322.5,1354.4 286.8,1358.8 
	251.1,1361 215.3,1357.5 176.7,1358.5 204.9,1330.8 231.8,1305.7 252.4,1274.8 279.9,1250.3 305.6,1226.1 339.8,1218.4 
	375.5,1225.8 411.2,1219.7 447,1219.9 482.7,1219.5 518.4,1223.3 554.2,1224.6 589.9,1225.4 623.8,1223.4 600.4,1249.3 
	575.5,1276.2 548.1,1300.8 523.8,1328.4 "/>
<polygon class="st2" points="576,1342.1 538,1341.5 501,1334.6 463.7,1334.1 426.6,1329.8 389.5,1326.8 352,1329 314.6,1328.9 
	277.5,1323.2 298.4,1295.5 324.1,1272.3 349.2,1248.6 367.9,1219.1 393.2,1196.2 429.9,1201.1 467.5,1195.3 504.3,1204.9 
	541.9,1201 579.1,1203.4 616.4,1205.1 653.4,1211.1 688.9,1213.5 665.6,1236.4 643,1262.5 621.2,1289.1 598.1,1314.7 "/>
<g>
	<path class="st11" d="M84.8,823.8c23.2,83.5,148.9,66.8,172.8,61c24-5.8,32.3-56.7,18.5-113.6c-13.8-56.9-44.4-98.4-68.4-92.6
		S59.9,734.4,84.8,823.8z"/>
	
		<ellipse transform="matrix(0.972 -0.2351 0.2351 0.972 -177.1606 76.5772)" class="st2" cx="232.6" cy="781.3" rx="40.8" ry="99.3"/>
	<path class="st11" d="M18.1,839.6c9.6,33.1,75.7,22.6,88.4,19.5s18.5-23.9,13.1-46.6c-5.5-22.7-20.2-38.5-32.9-35.5
		C73.9,780.2,7.8,804.2,18.1,839.6z"/>
	<polygon class="st1" points="109.6,1290.4 184,1290.4 213.8,1260.6 179.9,1257.8 177.2,1234.9 166.5,1234.9 166.5,904.3 
		152.4,904.3 152.4,1234.9 139.4,1234.9 134.4,1255.7 	"/>
	<path class="st11" d="M163.1,930.2c1.2,1.5,2.5,3,4.2,3.8c2,0.8,4.3,0.5,6.4,0.1c4.9-0.9,11-3.1,11.1-8.1c0-2.5-1.7-4.7-3.4-6.7
		c-22.4-26.5-44.9-53-69.5-77.4c-5.1-5.1-15.1-12.9-21.7-5.3c-4.6,5.3,0.1,13.6,3.7,18c6.7,8.1,15.1,15.1,22.5,22.7
		c7.7,8,15.2,16.2,22.6,24.5C147.3,911,155.3,920.5,163.1,930.2z"/>
	<path class="st12" d="M18.8,838.5c-38.6,42.6,129.7,99,100.5,231.8c-8.9,40.5-77.5,18.4-65.8-6.7c19-41,240,159,96.8,193.5
		c-73.8,11.5-77.2-87.4-98.9-51.7"/>
</g>
</svg>
