<?xml version="1.0" encoding="utf-8"?>
<!-- Generator: Adobe Illustrator 25.2.0, SVG Export Plug-In . SVG Version: 6.00 Build 0)  -->
<svg version="1.1" id="Layer_1" xmlns="http://www.w3.org/2000/svg" xmlns:xlink="http://www.w3.org/1999/xlink" x="0px" y="0px"
	 viewBox="0 0 998.2 973.2" style="enable-background:new 0 0 998.2 973.2;" xml:space="preserve">
<style type="text/css">
	.st0{fill:#82A295;}
	.st1{fill:#45585A;}
</style>
<g>
	<path class="st0" d="M443.2,409.8c-13.5,10-94,145.4-94,145.4s-153.9,6.1-153.9,13.2c0,7.2,109.9,72.5,119.1,72.6
		s322.5-16.3,330-15.8s5.8-6.7,11.2-6.7c5.4,0,151.9-217.2,145.7-227C794.3,380.8,457,399.6,443.2,409.8z"/>
	<path class="st1" d="M213,564c0,0,82.2,47.4,93.7,50c10.1,2.3,35.8-46.7,42.2-58.9C349.8,553.5,213,564,213,564z"/>
</g>
</svg>
