<?xml version="1.0" encoding="utf-8"?>
<!-- Generator: Adobe Illustrator 25.2.0, SVG Export Plug-In . SVG Version: 6.00 Build 0)  -->
<svg version="1.1" id="Layer_3" xmlns="http://www.w3.org/2000/svg" xmlns:xlink="http://www.w3.org/1999/xlink" x="0px" y="0px"
	 viewBox="0 0 2562 1441" style="enable-background:new 0 0 2562 1441;" xml:space="preserve">
<style type="text/css">
	.st0{fill:#FFC08B;}
	.st1{fill:#FFFFFF;}
	.st2{fill:none;stroke:#F18F24;stroke-width:3;stroke-linecap:round;stroke-linejoin:round;stroke-miterlimit:10;}
	.st3{fill:none;stroke:#76A1A9;stroke-width:3;stroke-linecap:round;stroke-linejoin:round;stroke-miterlimit:10;}
	.st4{fill:#285BAA;}
	.st5{fill:#2B1E3C;}
	.st6{fill:#F18F24;}
	.st7{fill:#B27246;}
	.st8{fill:#26394B;}
	.st9{fill:#8E4C16;}
	.st10{fill:#76A1A9;}
	.st11{fill:#8F6014;}
</style>
<rect class="st0" width="2562" height="1441"/>
<g>
	<rect x="764.4" y="380.4" class="st1" width="293.6" height="251.6"/>
	<path class="st2" d="M911.1,380.4c0,0,0,249.5,0,251.6"/>
	<path class="st2" d="M985.8,380.4c0,0,0,249.5,0,251.6"/>
	<path class="st2" d="M835.5,380.4c0,0,0,249.5,0,251.6"/>
	<path class="st2" d="M1057.4,506.3c0,0-290.9,0-293,0"/>
	<path class="st2" d="M1057.4,461.6c0,0-290.9,0-293,0"/>
	<path class="st2" d="M1057.4,416.9c0,0-290.9,0-293,0"/>
	<path class="st2" d="M1057.4,551c0,0-290.9,0-293,0"/>
	<path class="st2" d="M1057.4,595.8c0,0-290.9,0-293,0"/>
	<path class="st3" d="M848.5,475.2c0.5,8,3.6,15.8,8.7,22c1.6,2,4.1,4,6.5,3.3c2.6-0.7,3.6-4,3.9-6.7c1.8-12.4,1.7-25.1-0.3-37.6
		c-3.9,12.3-4.7,25.5-2.4,38.2c0.5,2.8,1.2,5.7,3.1,7.9s5.2,3.3,7.7,1.9c2.3-1.3,3.1-4.1,3.6-6.6c1.4-7.6,1.7-15.3,0.9-23
		c-0.4,7.9-0.7,16.3,3.4,23.1c0.7,1.1,1.7,2.3,3,2.3c2.1,0.1,3.1-2.5,3.4-4.6c0.9-6,1.1-12,0.7-18c0.8,6.2,4.8,11.8,10.4,14.5"/>
	<path class="st3" d="M997.2,573.9c1.7-4.5,2.3-9.5,1.7-14.3c0.9,1.8,0.1,3.9-0.2,5.9c-0.3,2,0.5,4.5,2.4,4.8
		c1.4,0.2,2.5-0.9,3.4-1.9c3.3-3.6,6.2-7.6,8.7-11.9c-0.1,4.9-0.3,9.7-0.4,14.6c2.6,0.9,5.2-1.4,7-3.5c2.5-2.9,5.1-5.8,7.6-8.8
		c-0.3,1.8-0.7,3.8-0.2,5.6s2,3.5,3.9,3.5c2.8,0.1,4.3-3.1,6.7-4.5c0.3-0.2,0.7-0.4,1.1-0.3c0.6,0.1,1,0.8,1.2,1.3
		c2.2,5.1,3.6,11.1,7.9,14.6c0.1-4.3-5.1-7.5-9.3-6.2c-4.2,1.3-6.7,5.8-6.8,10.1c-3.3-0.2-6.2-3.5-9.5-2.9c-2,0.4-3.6,2.2-4.2,4.1
		s-0.5,4.1-0.4,6.1c-0.2-4-1.9-8.2-5.4-10.1s-8.8-0.4-9.7,3.5c-1.7-1.7-4-3-6.3-3.6c-0.7,1.6-0.9,3.4-0.5,5"/>
	<path class="st3" d="M1003.9,392.6c7.6,6,16.1,10.9,25.2,14.3c3.2,1.2,6.4,2.2,9.3,3.9c0.3,0.2,0.6,0.4,0.6,0.7
		c0,0.3-0.4,0.6-0.6,0.3"/>
	<path class="st3" d="M1019.4,388.4c-0.2-0.5-0.5-0.9-0.7-1.4c-2.8,9.7-6.6,19.1-11.3,28"/>
</g>
<g>
	<path class="st4" d="M1040.9,1086.2c0,25.7,13.4,199.2-114.9,199.2c-123.6,0-114.9-173.4-114.9-199.2c0-25.7,51.4-42.7,114.9-42.7
		S1040.9,1060.4,1040.9,1086.2z"/>
	<path class="st4" d="M1061.3,1084.5c0-24.7-60.5-41.1-135.3-41.1s-135.3,16.3-135.3,41.1c0,1.6,0,7.7,0,9.3
		c0,24.7,60.5,39.2,135.3,39.2s135.3-14.5,135.3-39.2C1061.3,1092.2,1061.3,1086.1,1061.3,1084.5z"/>
	<ellipse class="st5" cx="926.1" cy="1077.7" rx="100.7" ry="13.3"/>
	<path class="st6" d="M804.5,584c23.7,62.1,19.7,131.7,39.9,195.1c-0.1-20.4-0.1-40.8-0.2-61.2c4.1,12.4,9.7,24.3,16.7,35.4
		c2.4-41.7-19.4-83.4-10.5-124.2c0.2,24.9,13.1,47.7,23.8,70.2c22.9,48.2,36.9,100.5,41.1,153.7c0.2-30.2,0.3-60.4,0.5-90.6
		c4.6,19.2,11.4,37.8,20,55.6c-1.2-33.1,9.2-65.5,19.4-97c7.8-24,15.7-48,26.8-70.7c14.4-29.3,34.3-56.1,44.3-87.2
		c-7.7,58.9-2.2,118.7-7.3,177.8c-4.3,50.1-16.2,100.6-7.9,150.2c-1.6-18.2,10.9-34.2,17.1-51.3c5-13.7,6-28.5,10.8-42.3
		c7.9-22.4,25.6-41.2,28.6-64.8c2.2,13.8,2.4,27.9,0.6,41.7c-3.7,27.8-15.5,53.9-21.7,81.3c-2.9,12.6-4.5,25.5-8.2,37.9
		c-4.4,14.6-11.4,28.2-18.5,41.8c-17.2,33.1-34.4,66.1-51.5,99.2c-1,2-2.2,4.1-4,5.4c-2.7,2-6.4,1.8-9.8,1.5
		c-19.3-1.5-40.3-3.8-54.1-17.4c-6-5.9-10.1-13.4-13.6-21c-15.4-32.8-23.4-68.6-36.9-102.3c-15.7-39.2-39-76-45.5-117.7
		c-4.1-26.3-1.1-53.1-3.5-79.5c-1-11-0.3-22,0.1-33.1c0.5-13.6,1.1-27.2,1.6-40.7c0.3-7.7,0.6-15.4,0.9-23.1
		c0.1-3.8,0.3-7.5,0.4-11.3c0.1-2,0.2-3.9,0.2-5.9C804.3,588.1,805,585.3,804.5,584z"/>
	<path class="st7" d="M795.3,838.7c-13-54.7-24.5-110.1-25.4-166.3c-0.2-10.6-0.1-21.9-5.8-30.8c-2.5-3.9-6.2-8.4-4.3-12.6
		c20.9,9.3,37.7,26.3,50.3,45.5c12.6,19.1,21.4,40.4,30.1,61.6c29,71.1,57.2,143.7,65.9,220c-0.6-51.9-1.3-104.2-12.2-154.9
		c14.4,33.7,28.8,67.6,37.1,103.3c7.6,32.8,10,67,22.9,98.1C947.1,964,970,927.2,977.7,889c6.3-31.7,2.2-65.4,13.6-95.6
		c5.7-15.2,15.2-28.8,24.5-42.1c10.4-14.9,20.8-29.8,31.2-44.6c1.6,27.8-0.9,55.8-7.2,82.9c6.8-8.1,13.6-16.1,20.4-24.2
		c6.8,29.4,0.6,60.1-5.6,89.6c-3.6,17.1-7.3,34.4-13.7,50.6c-5.4,13.7-12.8,26.5-18.5,40c-18.1,42.6-19.6,90.3-32.7,134.7
		c-0.8,2.6-1.6,5.2-3.7,7c-1.6,1.4-3.7,2-5.8,2.4c-26,5.7-52.3-7.5-78.9-7.2c-9.5,0.1-19.4,2.5-28.8,1.2c-5.9-0.8-7.8-4.9-9.4-10.1
		c-5.7-18.1-12.2-36.1-18-54.2c-6.1-19.1-11.9-38.3-17.5-57.5c-5.5-19.2-10.8-38.4-15.9-57.7c-5.1-19.4-9.9-38.8-14.6-58.3
		C796.4,843.5,795.8,841.1,795.3,838.7z"/>
</g>
<rect class="st1" width="690" height="843"/>
<rect y="810" class="st8" width="630" height="73"/>
<polygon class="st9" points="709.4,0.2 714.1,35.5 708.9,71.1 707.1,106.6 712.8,142.1 711.2,177.6 715.9,213.2 710.2,248.7 
	714.8,284.2 710.8,319.8 713.3,355.3 714.4,390.8 706.9,426.3 706.2,461.9 717,497.4 714.5,532.9 706.8,568.4 711,604 714.4,639.5 
	712.5,675 710.6,710.6 716.6,746.1 709.5,781.6 715.2,817.1 706.3,852.7 712.6,888.2 716,923.7 710.5,959.3 717.5,994.8 
	711.2,1030.3 714.9,1065.9 711.8,1101.4 713.5,1136.9 717.3,1172.3 714.5,1288.5 665.5,1282.2 619.3,1282.5 573,1288 526.7,1284 
	480.4,1286.5 434.2,1282.2 387.9,1287.2 341.6,1285.5 295.3,1285.7 249.1,1288.4 202.8,1286.1 159.4,1284 153.2,1172.5 
	155.8,1136.9 161.6,1101.4 153.1,1065.9 158.1,1030.4 159.1,994.8 154.2,959.3 158,923.8 152.2,888.2 160.3,852.7 154.8,817.2 
	162.1,781.7 153,746.1 159.5,710.6 151.3,675.1 151.8,639.6 151.2,604 157.2,568.5 160.4,533 158.9,497.4 151,461.9 152.7,426.4 
	156.4,390.9 159.5,355.3 151.6,319.8 161.8,284.3 155.1,248.7 160.3,213.2 160.8,177.7 155.8,142.1 154.7,106.6 152.2,71.1 
	157.3,35.5 156.7,0.2 "/>
<path class="st7" d="M569.9,0.2c0,0,23.6,1104.1,42.9,1192.3c19.3,88.2-42.9,31.1-42.9,31.1L547.4,0.2L369,0l97.5,1203.1l-102.5,3.7
	l-27.3-627.4L306.3,1217c0,0-76.5,1.8-76.9-6.6S302,0.2,302,0.2H569.9z"/>
<circle class="st10" cx="904.9" cy="192.6" r="126.5"/>
<circle class="st4" cx="904.9" cy="192.6" r="99.1"/>
<rect y="1206" class="st11" width="2562" height="235"/>
</svg>
