<?xml version="1.0" encoding="utf-8"?>
<!-- Generator: Adobe Illustrator 25.2.0, SVG Export Plug-In . SVG Version: 6.00 Build 0)  -->
<svg version="1.1" id="Layer_1" xmlns="http://www.w3.org/2000/svg" xmlns:xlink="http://www.w3.org/1999/xlink" x="0px" y="0px"
	 viewBox="0 0 1192.7 973.2" style="enable-background:new 0 0 1192.7 973.2;" xml:space="preserve">
<style type="text/css">
	.st0{fill:#285BAA;}
	.st1{fill:#1B2334;}
	.st2{fill:#76A1A9;}
	.st3{fill:#26394B;}
	.st4{fill:#264A56;}
</style>
<g>
	<path class="st0" d="M234.2,413.4c0,23.2,10,179.1-86,179.1c-92.6,0-86-155.9-86-179.1s38.5-38.4,86-38.4S234.2,390.3,234.2,413.4z
		"/>
	<ellipse class="st1" cx="149.6" cy="411.2" rx="71.2" ry="23.6"/>
	<path class="st0" d="M57.6,424.4c-12.1-0.9-25.5,2.8-31.1,11.4c-2.3,3.5-3.1,7.4-3.5,11.3c-3.7,31.1,15.9,63.2,48.8,80.1
		c2.4,1.2,5.4,2.4,7.8,1.2c1.1-0.5,1.8-1.4,2.2-2.4c2-3.9,0.8-8.5-1.8-12.1s-6.3-6.7-9.9-9.8c-5.6-5-10.8-10.4-15.3-16.1
		c-3.9-5-7.4-10.2-9.2-16c-1.7-5.7-1.6-11.6-1.5-17.5c0-1.7,0.1-3.5,0.9-5.1c2.8-5.5,12.4-6,19.7-4.7c2.1,0.4,4.2,0.8,6.3,0.3
		c1.6-0.4,2.8-1.4,3.7-2.6c4.5-5.8-1.6-13.4-8.3-16.1C63.7,425.2,60.7,424.6,57.6,424.4z"/>
</g>
<g>
	<path class="st2" d="M223.7,477.4c39.4,0,71.4,12.7,71.4,31.9c0,19.2,5.4,148.6-71.4,148.6c-79.8,0-71.4-129.4-71.4-148.6
		C152.3,490.1,184.3,477.4,223.7,477.4z"/>
	<ellipse class="st1" cx="222.5" cy="507.5" rx="59.1" ry="19.6"/>
	<path class="st2" d="M298.9,518.4c10-0.8,21.2,2.3,25.8,9.5c1.9,2.9,2.6,6.1,2.9,9.4c3,25.8-13.2,52.5-40.5,66.4c-2,1-4.5,2-6.5,1
		c-0.9-0.4-1.5-1.2-1.8-2c-1.6-3.2-0.7-7,1.5-10.1c2.1-3.1,5.3-5.6,8.2-8.2c4.7-4.2,8.9-8.6,12.7-13.4c3.3-4.1,6.2-8.5,7.6-13.3
		c1.4-4.7,1.3-9.6,1.2-14.5c0-1.4-0.1-2.9-0.8-4.3c-2.3-4.6-10.3-5-16.3-3.9c-1.7,0.3-3.5,0.7-5.2,0.2c-1.3-0.4-2.4-1.2-3.1-2.1
		c-3.8-4.8,1.3-11.1,6.9-13.3C293.8,519.1,296.3,518.6,298.9,518.4z"/>
</g>
<g>
	<path class="st3" d="M802.4,393c-13.5,10-94,145.4-94,145.4s-153.9,6.1-153.9,13.2c0,7.2,109.9,72.5,119.1,72.6
		s322.5-16.3,330-15.8s5.8-6.7,11.2-6.7s151.9-217.2,145.7-227C1153.5,364,816.2,382.8,802.4,393z"/>
	<path class="st4" d="M572.2,547.2c0,0,82.2,47.4,93.7,50c10.1,2.3,35.8-46.7,42.2-58.9C709,536.7,572.2,547.2,572.2,547.2z"/>
</g>
</svg>
