<?xml version="1.0" encoding="utf-8"?>
<!-- Generator: Adobe Illustrator 25.2.0, SVG Export Plug-In . SVG Version: 6.00 Build 0)  -->
<svg version="1.1" id="Layer_3" xmlns="http://www.w3.org/2000/svg" xmlns:xlink="http://www.w3.org/1999/xlink" x="0px" y="0px"
	 viewBox="0 0 2562 1441" style="enable-background:new 0 0 2562 1441;" xml:space="preserve">
<style type="text/css">
	.st0{fill:#FFC08B;}
	.st1{fill:none;stroke:#264A56;stroke-width:3;stroke-miterlimit:10;}
	.st2{fill:#FFFFFF;}
	.st3{fill:#FF7472;}
	.st4{fill:#4B7887;}
	.st5{fill:#264A56;}
	.st6{fill:#15272D;}
	.st7{fill:#5B99AE;}
	.st8{fill:#39768D;}
	.st9{fill:#146C8A;}
	.st10{fill:#FF9461;}
	.st11{fill:#FFD5B3;}
	.st12{fill:none;stroke:#FFD5B3;stroke-width:3;stroke-miterlimit:10;}
</style>
<rect class="st0" width="2562" height="1441"/>
<g>
	<path class="st1" d="M516.1,615.5h139.1V739H488.5V643C488.5,627.8,500.8,615.5,516.1,615.5z"/>
	<rect x="655.1" y="615.5" class="st1" width="166.6" height="123.5"/>
	<rect x="821.8" y="615.5" class="st1" width="166.6" height="123.5"/>
	<rect x="988.4" y="615.5" class="st1" width="166.6" height="123.5"/>
	<path class="st1" d="M1155,615.5h139.1c15.2,0,27.5,12.3,27.5,27.5V739H1155V615.5z"/>
	<rect x="488.5" y="739" class="st1" width="166.6" height="123.5"/>
	<rect x="655.1" y="739" class="st1" width="166.6" height="123.5"/>
	<rect x="821.8" y="739" class="st1" width="166.6" height="123.5"/>
	<rect x="988.4" y="739" class="st1" width="166.6" height="123.5"/>
	<rect x="1155" y="739" class="st1" width="166.6" height="123.5"/>
	<rect x="488.5" y="862.5" class="st1" width="166.6" height="123.5"/>
	<rect x="655.1" y="862.5" class="st1" width="166.6" height="123.5"/>
	<rect x="821.8" y="862.5" class="st1" width="166.6" height="123.5"/>
	<rect x="988.4" y="862.5" class="st1" width="166.6" height="123.5"/>
	<rect x="1155" y="862.5" class="st1" width="166.6" height="123.5"/>
	<rect x="488.5" y="986" class="st1" width="166.6" height="123.5"/>
	<rect x="655.1" y="986" class="st1" width="166.6" height="123.5"/>
	<rect x="821.8" y="986" class="st1" width="166.6" height="123.5"/>
	<rect x="988.4" y="986" class="st1" width="166.6" height="123.5"/>
	<rect x="1155" y="986" class="st1" width="166.6" height="123.5"/>
	<path class="st1" d="M488.5,1109.5h166.6V1233H516.1c-15.2,0-27.5-12.3-27.5-27.5V1109.5z"/>
	<rect x="655.1" y="1109.5" class="st1" width="166.6" height="123.5"/>
	<rect x="821.8" y="1109.5" class="st1" width="166.6" height="123.5"/>
	<rect x="988.4" y="1109.5" class="st1" width="166.6" height="123.5"/>
	<path class="st1" d="M1155,1109.5h166.6v95.9c0,15.2-12.3,27.5-27.5,27.5H1155V1109.5z"/>
	<polygon class="st2" points="781.9,770.5 594.7,777.9 592.6,642.8 783.7,650.7 	"/>
	<polygon class="st2" points="1054.1,1025.9 726.7,1024.2 731.4,807.8 1054.3,798.9 	"/>
	<polygon class="st2" points="1125.1,943.8 1124.3,755.1 1254.7,753.2 1255.5,946.7 	"/>
	<path class="st3" d="M623,608.2c-0.9-3.8-2.3-7.9-5.7-9.8c-5-2.7-11.5,1.7-13.2,7.1s0,11.3,1.7,16.8c2.5,8.1,4.9,16.2,7.4,24.2
		c1.2,3.8,2.4,7.8,4.8,11c2.2,2.9,6.3,5.8,10.1,5.1c3.3-0.6,1.1-5.6,1.1-8c-0.2-10-1.1-20-2.8-29.8
		C625.5,619.2,624.3,613.7,623,608.2z"/>
	<path class="st3" d="M765.1,611.3c-0.3-4.9-1.1-10.2-4.7-13.5c-1.5-1.4-3.7-2.3-5.6-1.7c-2,0.7-3.1,2.7-3.9,4.7
		c-3.6,8.9-3.8,18.7-3.9,28.3c-0.1,7.4-0.2,14.8,0.7,22.2c0.4,3,0.6,13.1,5.4,12.8c3.9-0.2,7.1-5.5,8.7-8.5c2.9-5.6,3-12.2,3.4-18.4
		C765.7,628.6,765.7,619.9,765.1,611.3z"/>
	<path class="st3" d="M836.3,783.7c-0.7-3.3-2.5-6.5-5.5-8.1c-5.4-2.9-12.4,0.6-15.5,5.9c-3.1,5.3-3.3,11.7-3.3,17.8
		c-0.1,7.4-0.5,14.8-0.3,22.2c0.1,3.9,2.1,10.7,7.2,10.4c3.9-0.2,6.7-5,8.3-8c2.7-4.9,4.6-10.4,6.1-15.8
		C835.2,800.6,837.9,791.4,836.3,783.7z"/>
	<path class="st3" d="M998.9,792.3c0.5-3.6,0.2-7.7-2.6-10c-2.6-2.1-6.7-1.7-9.5,0.2s-4.5,5-5.8,8.2c-2.4,6-3.5,12.4-3.9,18.8
		c-0.2,3.3-0.3,6.6-0.3,9.9c0,2.7-0.7,6.6,0.5,9.1c2,4.3,6.2,3.6,8.6,0.4c3-4.1,4.5-9.4,6.2-14.2C994.7,807.4,997.9,800,998.9,792.3
		z"/>
	<path class="st3" d="M1146.5,727.4c-2.1-3.2-5.4-6.9-9.1-5.8c-3.3,1-4.3,5.1-4.3,8.5c0.1,6.7,2.5,13,5.5,18.9
		c1.5,3,3.1,5.9,4.8,8.8c1.3,2.3,2.8,5.5,5.2,7c3.5,2.2,7.9-0.2,10.1-3.1c3.5-4.7,1.5-9.6-0.6-14.4
		C1155,740.2,1150.8,733.8,1146.5,727.4z"/>
</g>
<rect y="1206" class="st4" width="2562" height="235"/>
<g>
	<rect x="432.3" y="128.8" class="st5" width="302.6" height="213"/>
	<rect x="417.6" y="115.6" class="st5" width="332" height="77.9"/>
	<path class="st6" d="M616.7,234.6h-66.1c-6,0-11-5-11-11l0,0c0-6,5-11,11-11h66.1c6,0,11,5,11,11l0,0
		C627.7,229.6,622.7,234.6,616.7,234.6z"/>
	<path class="st6" d="M815.2,317.1c0,30.3-24.6,54.9-54.9,54.9s-54.9-24.6-54.9-54.9c0-30.3,24.6-49.9,54.9-49.9
		S815.2,286.8,815.2,317.1z"/>
	<path class="st7" d="M957,252.4c0,15.5,7.8,119.6-67.2,119.6c-72.4,0-67.2-104.2-67.2-119.6s30.4-15.8,67.5-15.8
		C927.1,236.6,957,236.9,957,252.4z"/>
	<ellipse class="st8" cx="889.8" cy="248.7" rx="59" ry="6.8"/>
	<g>
		<path class="st7" d="M335.4,284.5h141.4c9.7,0,17.5,7.8,17.5,17.5l0,0c0,7.8-6.3,14.1-14.1,14.1H335.4V284.5z"/>
		<path class="st3" d="M335.4,215.5h141.4c9.7,0,17.5,7.8,17.5,17.5l0,0c0,7.8-6.3,14.1-14.1,14.1H335.4V215.5z"/>
		<path class="st9" d="M335.4,276.6h158.9c4.4,0,7.9,3.6,7.9,7.9l0,0H335.4V276.6z"/>
		<path class="st9" d="M335.4,247.6h158.9c4.4,0,7.9,3.6,7.9,7.9l0,0H335.4V247.6z"/>
		<rect x="335.4" y="255.5" class="st2" width="158.9" height="21.1"/>
		<path class="st2" d="M335.4,316.1h159.2c1,0,1.8,0.7,2,1.7l3.2,18.3c0.2,1.3-0.8,2.4-2,2.4H335.4V316.1z"/>
		<path class="st7" d="M437.7,316.1H292.9c-7.8,0-14.1-6.3-14.1-14.1l0,0c0-9.7,7.8-17.5,17.5-17.5h141.4V316.1z"/>
		<path class="st3" d="M437.7,247.1H292.9c-7.8,0-14.1-6.3-14.1-14.1l0,0c0-9.7,7.8-17.5,17.5-17.5h141.4V247.1z"/>
		<path class="st9" d="M437.7,284.5H270.9l0,0c0-4.3,3.5-7.9,7.9-7.9h158.9V284.5z"/>
		<path class="st9" d="M437.7,255.5H270.9l0,0c0-4.3,3.5-7.9,7.9-7.9h158.9V255.5z"/>
		<rect x="278.8" y="255.5" class="st2" width="158.9" height="21.1"/>
		<path class="st2" d="M437.7,338.5H275.3c-1.2,0-2.2-1.1-2-2.4l3.2-18.3c0.2-1,1-1.7,2-1.7h159.2V338.5z"/>
		<path class="st6" d="M498.1,339.7V156.8l0,0c4.8,0,8.7,3.9,8.7,8.7v174.2H498.1z"/>
		<path class="st6" d="M529.9,339.7V156.8l0,0c4.8,0,8.7,3.9,8.7,8.7v174.2H529.9z"/>
		<rect x="506.8" y="165.5" class="st2" width="23.1" height="174.2"/>
		<path class="st3" d="M569.1,354.2l-38.5-178.8l0,0c4.7-1,9.3,2,10.3,6.7l36.6,170.3L569.1,354.2z"/>
		<path class="st3" d="M600.2,347.5l-38.5-178.8l0,0c4.7-1,9.3,2,10.3,6.6l36.6,170.3L600.2,347.5z"/>
		
			<rect x="559" y="177.7" transform="matrix(0.9775 -0.2108 0.2108 0.9775 -42.9991 126.2253)" class="st2" width="23.1" height="174.2"/>
	</g>
	<rect x="247.7" y="338.5" class="st4" width="785.4" height="56"/>
	<polygon class="st5" points="294.1,394.5 294.1,550.1 439.8,394.5 	"/>
	<polygon class="st5" points="844.4,394.5 844.4,550.1 990.2,394.5 	"/>
	<path class="st10" d="M914.9,45.6c6.9-8.1,15.4-15.1,18.3-26.1c9.1,29.5,18.3,60.7,12.4,86.8c12-21.7,24.6-44.1,45.7-55.8
		c7.1-3.9,15-6.5,21.8-10.8c12.1-7.5,20.6-20,33.1-26.9c-4.5,10.2-2.9,23.6-3.1,35.9c-0.6,42.2-23.5,76.9-58.8,89
		c23.5,15.1,43.4,39.2,54,65.3c-11.8-12.9-24-26-38.4-34.5c-14.5-8.5-30.3-11.5-44.6-10.7c-14.3,0.8-27.4,5.3-39.7,10.8
		c-4.3,1.9-8.9,6.5-5.6,11.6c1.5,2.3,4.1,3.6,6.4,4.5c17.1,6.5,34,4.2,51.1,10.4c20.2,7.4,37.8,25.7,57.7,35.2
		C988,224,949.6,217,913.7,195.7c14.5,14.9,30.6,28.1,47.6,38.8c-6.7,7.5-17.6,10.1-28.7,9.6s-22.7-4-34.1-7.4
		c3.3,7.6,7.9,14.9,13.7,21.2c-9.5,0.4-18.9-12.1-28.9-14.1c-5.1-1-9.7,0.8-14.7-0.5c-7.8-2-14.2-11-16.1-19.2
		c-1.9-8.3-0.2-15.9,1.5-23.1c2.6-10.4,5.4-20.7,10.1-29.8c4.4-8.8,10.4-16.3,15.7-24.3c5-7.4,9.1-15.3,12-24.1
		c2.3-6.7,1.4-14.8,2-22.3c0.8-10,2.8-19.6,6-28.4c3.2-8.8,7.6-16.9,13.1-23.9C913.4,47.3,914.1,46.4,914.9,45.6z"/>
	<path class="st3" d="M861.3,243.7c-5.8-7.7-12-15-18.7-21.9c-1.8-1.9-3.8-3.9-6.4-4.7c-1.7-0.5-3.4-0.5-5.2-0.5
		c-16.7,0-33.3,0-50,0c-6.8,0-13.7,0-20-2.4c-15.2-5.7-22.5-22.7-34.2-34c18.5-2.8,37.2-4.1,55.9-4c-1.8-8.4-12.3-10.9-20.1-14.5
		c-19.2-8.9-28.4-32.7-47.9-41c15.1,4,31-0.3,46.6-1.9c27-2.8,55.4,3,77.1,19.3c-0.8-8.6-1.6-17.3,0-25.7
		c1.6-8.5,5.9-16.8,13.2-21.3c2.3-1.4,4.8-2.5,6.8-4.3c18.6,10.8,29.5,33.3,26.5,54.6c-0.9-16.9,9.6-32.9,23.7-42.4
		c14-9.5,31.1-13.3,47.9-15.4c-10.2,12.7-10.2,30.7-18.1,45c-5.3,9.6-13.8,16.9-22.1,24c12.8-7.3,28.4-9.8,42.9-6.7
		c-6.1,8.6-8.7,19.4-15.4,27.5c-7,8.4-17.4,12.8-26.8,18.3s-18.6,13.5-20,24.3c7.1-4.3,16.3-4.8,23.8-1.2
		c-14.2,9.4-24.6,24.3-28.7,40.8c0.3-1.3-14.7-2-16-1.9c-2.8,0.2-5.4,0.8-8.1,1.4c-2.7,0.6-2.9-1-3.2-3.4
		C864.5,248.6,863.1,246.1,861.3,243.7z"/>
</g>
<g>
	<g>
		<polygon class="st3" points="49.4,659.2 75.1,439.2 158.4,439.2 178.1,658.3 		"/>
		<polygon class="st3" points="73.1,456.3 67.2,411.5 198.3,411.5 159.8,454.8 		"/>
		<path class="st3" d="M53.1,445.7c-6.6-0.5-13.1,2.7-18.1,7c-8.4,7.1-13.9,17.6-14.9,28.6c-1.5,15.2,5.2,30.1,13.9,42.6
			s19.4,23.6,27.7,36.4c2.1,3.2,4.5,6.9,8.3,7.6c0.6,0.1,1.2,0.1,1.7-0.2c0.6-0.4,0.9-1.1,1-1.8c2.1-8.6-5.3-16.1-10.6-23.2
			c-3.3-4.3-6-9.1-8.6-14c-5.6-10.7-10.6-21.7-14.8-32.9c-2.5-6.6-4.7-13.8-2.9-20.6c1.5-5.5,5.8-10.3,11.3-12s11.9-0.1,15.7,4.2
			c2.4,2.7,3.7,6.3,6.4,8.8c2.8,2.5,7.8,3.7,11.3,1.9c3-1.6,2.6-5.1,1.5-7.8c-1.6-4-4.8-7.4-7.6-10.6c-2.7-3.2-5.6-6.3-8.9-8.8
			C61.9,448.1,57.7,446,53.1,445.7z"/>
	</g>
	<path class="st10" d="M269,659.2h-72V544.5c0,0,5.2-12.2,36-12.2s36,12.2,36,12.2V659.2z"/>
	<path class="st11" d="M326,659.2h-72v-87.9c0,0,5.2-9.3,36-9.3s36,9.3,36,9.3V659.2z"/>
	<polygon class="st5" points="233,710.3 233,865.9 378.7,710.3 	"/>
	<path class="st7" d="M213.9,569.3c0,15.5,7.8,119.6-67.2,119.6c-72.4,0-67.2-104.2-67.2-119.6c0-15.4,30.4-15.8,67.5-15.8
		C184,553.5,213.9,553.8,213.9,569.3z"/>
	<path class="st7" d="M228.5,574.3c7.9,1.4,14.3,7.9,16.7,15.6c2.4,7.6,1.1,16.1-2.2,23.4c-3.3,7-8.4,13-13.7,18.6
		c-3.5,3.6-7.1,7.1-10.8,10.4c-2.5,2.3-5.2,4.5-8.5,5.4c-3.3,0.9-7.2,0.2-9.2-2.6c-2.2-3.2-0.9-7.8,1.6-10.7
		c2.6-2.9,6.2-4.7,9.4-6.9c6.6-4.5,11.7-11.1,14.4-18.6c1.1-3.1,1.8-6.4,1.1-9.6c-0.7-3.2-3.2-6.1-6.4-6.6c-3.3-0.4-6.3,1.4-9.5,1.6
		c-3.7,0.3-5.9-2.5-5.5-6c0.3-2.8,2.1-3.9,4-5.7c2.5-2.3,4.2-4.9,7.4-6.6C220.8,574.3,224.8,573.6,228.5,574.3z"/>
	<rect x="0.2" y="657.8" class="st4" width="413.8" height="56"/>
</g>
<g>
	<path class="st12" d="M682.7,0c-58.1,133.9-151.5,281.6-280.9,281.6c-155.2,0-279-166.6-346-281.6"/>
	<circle class="st11" cx="557.7" cy="248.7" r="32.5"/>
	<circle class="st11" cx="701.2" cy="37.7" r="32.5"/>
	<circle class="st11" cx="364.2" cy="311.7" r="32.5"/>
	<circle class="st11" cx="177.2" cy="208.7" r="32.5"/>
	<circle class="st11" cx="46.9" cy="45.2" r="32.5"/>
</g>
</svg>
