<?xml version="1.0" encoding="utf-8"?>
<!-- Generator: Adobe Illustrator 24.0.1, SVG Export Plug-In . SVG Version: 6.00 Build 0)  -->
<svg version="1.1" xmlns="http://www.w3.org/2000/svg" xmlns:xlink="http://www.w3.org/1999/xlink" x="0px" y="0px"
	 viewBox="20 32 94.7 124.4" style="enable-background:new 0 0 141.7 198.4;" xml:space="preserve">
<g id="Слой_2">
	<path fill="#000000" d="M43.8,103.4c0-0.3,0-0.4,0-0.6c0-15.5,0-31,0-46.5c0-5.8,2.3-10.2,6.5-12.9c2.9-1.8,6-2,9.1-0.7c0.1,0.1,0.2,0.1,0.4,0.2
		c0,0,0,0,0.1,0c0.3-0.8,0.5-1.7,0.9-2.5c1.9-4.4,4.9-7,8.9-7.8c1-0.2,3.5,0.1,4.5,0.5c1.4,0.6,1.6,0.8,2.1,1.1
		c1.5,1.2,3,2.9,4.3,4.8c0.1,0.1,0.1,0.2,0.2,0.3c4.1-2.8,8.2-2.9,12.1,0c4,2.9,5.8,7.4,5.7,12.9c0.7-0.2,1.5-0.5,2.2-0.6
		c3.6-0.7,6.7,0.5,9.4,3.4c2.7,2.9,4,6.5,4,10.9c0,17.5,0,34.9,0,52.4c0,8.3-2.2,15.8-6.5,22.4c-4,6.3-9.2,10.7-15.4,13.1
		c-2.9,1.1-5.8,1.7-8.8,1.8c-5.6,0-11.1,0-16.7,0c-3.8,0-7.4-1.1-10.8-3c-3.7-2-7-4.7-10.1-7.8c-4.4-4.3-8.9-8.6-13.3-12.9
		c-1.6-1.6-3.2-3.1-4.9-4.7c-0.9-0.9-1.8-1.7-2.7-2.6c-2.2-2.4-3.8-5.2-4.4-8.7c-1.3-6.8,2-14,7.5-16.3c2.4-1,4.8-1.2,7.2-0.3
		c1.4,0.5,2.7,1.3,4,1.9c1.4,0.7,2.8,1.4,4.2,2.1C43.6,103.3,43.7,103.3,43.8,103.4z M59.5,89.2c0-0.2,0-0.4,0-0.7
		c0-10.8,0-21.6,0-32.4c0-1.7-0.5-3-1.7-3.9c-1.3-1.1-2.7-1.1-4.1-0.3c-1.4,0.9-2.1,2.3-2.1,4.2c0,20.3,0,40.6,0,60.9
		c0,0.2,0,0.4,0,0.6c-0.1-0.1-0.2-0.1-0.3-0.1c-6-3-12-6-18-9c-0.7-0.4-1.5-0.4-2.3-0.2c-2.2,0.6-3.4,3.2-2.9,5.9
		c0.2,1.2,0.8,2.2,1.6,3c0.8,0.8,1.7,1.5,2.6,2.3c3.2,3.1,6.4,6.2,9.6,9.2c2.9,2.8,5.8,5.6,8.7,8.4c2.3,2.3,4.7,4.4,7.3,6
		c3.1,1.9,6.3,2.9,9.8,2.8c5.2,0,10.4,0,15.5,0c1.4,0,2.7-0.2,4.1-0.5c5.5-1.3,10.1-4.5,13.7-9.7c3.5-5,5.4-10.8,5.4-17.3
		c0.1-17.6,0-35.2,0-52.9c0-0.4,0-0.8-0.1-1.1c-0.5-2.3-2.3-3.8-4.2-3.6c-2.1,0.3-3.5,2.2-3.5,4.7c0,7.7,0,15.4,0,23.1
		c0,0.2,0,0.4,0,0.5c-2.6,0-5.2,0-7.8,0c0-0.2,0-0.4,0-0.7c0-12.4,0-24.8,0-37.2c0-1.1-0.3-2.2-0.9-3.1c-1.1-1.6-2.8-2.1-4.4-1.4
		C84,47.6,83,49.3,83,51.4c0,12.4,0,24.8,0,37.2c0,0.2,0,0.4,0,0.6c-2.6,0-5.2,0-7.8,0c0-0.3,0-0.5,0-0.7c0-13.9,0-27.9,0-41.8
		c0-1.2-0.3-2.2-0.9-3.1c-1.1-1.6-2.8-2.1-4.4-1.4c-1.6,0.7-2.5,2.4-2.5,4.5c0,14,0,28,0,41.9c0,0.2,0,0.4,0,0.6
		C64.7,89.2,62.1,89.2,59.5,89.2z"/>
	<path fill="#000000" d="M93.5,107.4H63.1v-8.7h30.4V107.4z M93.5,129.1H63.1v8.7h30.4V129.1z M89.2,115.1H67.4v6.2h21.7V115.1z"/>
</g>
</svg>
