<?xml version="1.0" encoding="utf-8"?>
<!-- Generator: Adobe Illustrator 24.0.1, SVG Export Plug-In . SVG Version: 6.00 Build 0)  -->
<svg version="1.1" xmlns="http://www.w3.org/2000/svg" xmlns:xlink="http://www.w3.org/1999/xlink" x="0px" y="0px"
	 viewBox="0 10 141.7 173.4" style="enable-background:new 0 0 141.7 198.4;" xml:space="preserve">
<g id="Слой_2">
	<path d="M43.8,103.4c0-0.3,0-0.4,0-0.6c0-15.5,0-31,0-46.5c0-5.8,2.3-10.2,6.5-12.9c2.9-1.8,6-2,9.1-0.7c0.1,0.1,0.2,0.1,0.4,0.2
		c0,0,0,0,0.1,0c0.3-0.8,0.5-1.7,0.9-2.5c1.9-4.4,4.9-7,8.9-7.8c1-0.2,3.5,0.1,4.5,0.5c1.4,0.6,1.6,0.8,2.1,1.1
		c1.5,1.2,3,2.9,4.3,4.8c0.1,0.1,0.1,0.2,0.2,0.3c4.1-2.8,8.2-2.9,12.1,0c4,2.9,5.8,7.4,5.7,12.9c0.7-0.2,1.5-0.5,2.2-0.6
		c3.6-0.7,6.7,0.5,9.4,3.4c2.7,2.9,4,6.5,4,10.9c0,17.5,0,34.9,0,52.4c0,8.3-2.2,15.8-6.5,22.4c-4,6.3-9.2,10.7-15.4,13.1
		c-2.9,1.1-5.8,1.7-8.8,1.8c-5.6,0-11.1,0-16.7,0c-3.8,0-7.4-1.1-10.8-3c-3.7-2-7-4.7-10.1-7.8c-4.4-4.3-8.9-8.6-13.3-12.9
		c-1.6-1.6-3.2-3.1-4.9-4.7c-0.9-0.9-1.8-1.7-2.7-2.6c-2.2-2.4-3.8-5.2-4.4-8.7c-1.3-6.8,2-14,7.5-16.3c2.4-1,4.8-1.2,7.2-0.3
		c1.4,0.5,2.7,1.3,4,1.9c1.4,0.7,2.8,1.4,4.2,2.1C43.6,103.3,43.7,103.3,43.8,103.4z M59.5,89.2c0-0.2,0-0.4,0-0.7
		c0-10.8,0-21.6,0-32.4c0-1.7-0.5-3-1.7-3.9c-1.3-1.1-2.7-1.1-4.1-0.3c-1.4,0.9-2.1,2.3-2.1,4.2c0,20.3,0,40.6,0,60.9
		c0,0.2,0,0.4,0,0.6c-0.1-0.1-0.2-0.1-0.3-0.1c-6-3-12-6-18-9c-0.7-0.4-1.5-0.4-2.3-0.2c-2.2,0.6-3.4,3.2-2.9,5.9
		c0.2,1.2,0.8,2.2,1.6,3c0.8,0.8,1.7,1.5,2.6,2.3c3.2,3.1,6.4,6.2,9.6,9.2c2.9,2.8,5.8,5.6,8.7,8.4c2.3,2.3,4.7,4.4,7.3,6
		c3.1,1.9,6.3,2.9,9.8,2.8c5.2,0,10.4,0,15.5,0c1.4,0,2.7-0.2,4.1-0.5c5.5-1.3,10.1-4.5,13.7-9.7c3.5-5,5.4-10.8,5.4-17.3
		c0.1-17.6,0-35.2,0-52.9c0-0.4,0-0.8-0.1-1.1c-0.5-2.3-2.3-3.8-4.2-3.6c-2.1,0.3-3.5,2.2-3.5,4.7c0,7.7,0,15.4,0,23.1
		c0,0.2,0,0.4,0,0.5c-2.6,0-5.2,0-7.8,0c0-0.2,0-0.4,0-0.7c0-12.4,0-24.8,0-37.2c0-1.1-0.3-2.2-0.9-3.1c-1.1-1.6-2.8-2.1-4.4-1.4
		C84,47.6,83,49.3,83,51.4c0,12.4,0,24.8,0,37.2c0,0.2,0,0.4,0,0.6c-2.6,0-5.2,0-7.8,0c0-0.3,0-0.5,0-0.7c0-13.9,0-27.9,0-41.8
		c0-1.2-0.3-2.2-0.9-3.1c-1.1-1.6-2.8-2.1-4.4-1.4c-1.6,0.7-2.5,2.4-2.5,4.5c0,14,0,28,0,41.9c0,0.2,0,0.4,0,0.6
		C64.7,89.2,62.1,89.2,59.5,89.2z"/>
	<g>
		<path d="M52.9,13.3H57c1.7,0,3,0.7,4,2.1c0.5,0.8,0.8,1.7,0.8,2.5c0,0.9-0.3,1.8-0.8,2.7c-1,1.4-2.5,2.1-4.3,2.1h-1.9
			c-0.2,0-0.4,0-0.4,0.1v3.5c0,0.4-0.2,0.9-0.7,1.4c-0.4,0.3-0.8,0.4-1.2,0.4c-1.3,0-1.9-0.6-2-1.7V15.3
			C50.5,14,51.3,13.3,52.9,13.3z M54.5,18.8H57c0.6,0,0.9-0.2,0.9-0.7v-0.2c-0.1-0.5-0.4-0.8-1-0.8l-2.1,0c-0.3,0-0.4,0.1-0.4,0.2
			L54.5,18.8z"/>
		<path d="M71.8,13.3l0.4,0c0.3,0,0.7,0.2,1.1,0.5c0.3,0.4,0.5,0.8,0.5,1.2v0.3c0,0.2-0.2,0.8-0.6,1.5l-3.6,8.6
			c-0.3,0.7-0.6,1.2-1.1,1.6c-0.7,0.7-1.6,1-2.8,1h-0.1c-0.9,0-1.5-0.4-1.9-1.2l0-0.4v-0.4c0-0.5,0.3-1,1-1.4
			c0.5-0.1,0.9-0.2,1.2-0.2c0,0,0.1-0.1,0.2-0.3v-0.2l-3.1-6.6c-0.6-1-0.8-1.8-0.8-2.3c0-0.6,0.3-1,0.9-1.5c0.2-0.1,0.5-0.2,0.8-0.3
			c1.1,0,1.9,0.7,2.3,2.1l1.6,3.6c0.1,0.3,0.3,0.4,0.3,0.4c0.2-0.2,0.7-1.7,1.7-4.3c0.3-0.8,0.6-1.2,0.8-1.3
			C71.1,13.5,71.5,13.3,71.8,13.3z"/>
		<path d="M75.7,13.3c1,0,1.7,0.4,2.1,1.2l0.1,0.8l0,2.6c0,0.1,0,0.1,0.1,0.1c0.1,0,1.5-1.4,4.2-4.1c0.4-0.4,0.8-0.6,1.4-0.6
			c0.9,0,1.5,0.5,1.9,1.4l0,0.3v0.3c0,0.5-0.3,0.9-0.8,1.4c-2.4,2.4-3.6,3.6-3.6,3.7c0,0.1,0,0.1,0,0.1c0,0.1,1,1.1,3.1,3.1
			c1,0.9,1.5,1.5,1.5,1.9c0.1,0,0.1,0.2,0.1,0.6v0c0,0.8-0.5,1.4-1.4,1.8c-0.2,0-0.3,0-0.3,0.1l-0.1,0h-0.3c0,0,0,0,0,0
			c-0.6-0.2-1-0.4-1.2-0.7c0,0-1.5-1.4-4.3-4.2h0c0,0-0.1,0-0.1,0.1l0,2.7c0,0.9-0.4,1.6-1.3,2C76.4,28,76.2,28,76.1,28H76
			c-0.6,0-1.2-0.3-1.6-1l-0.2-0.6h0l0-0.1l0-11.3C74.1,14.2,74.6,13.6,75.7,13.3z"/>
		<path d="M96.5,13.2c0.3,0,0.6,0.1,0.9,0.2c0.7,0.4,1.1,1,1.2,1.6v11.2l-0.1,0.4c-0.4,0.9-1,1.4-1.8,1.4h-0.1l-0.5,0
			c-1-0.4-1.4-1-1.4-2V21c-0.1,0-0.1,0-0.1-0.1l-0.2,0.2l-4.5,5.9c-0.4,0.7-1,1-1.6,1c-0.6,0-0.9-0.1-1-0.3c-0.7-0.2-1-0.9-1-2.1
			v-10c0-1,0.2-1.6,0.6-1.9c0.3-0.3,0.7-0.4,1.2-0.5c0.6,0,1.1,0.2,1.5,0.7c0.3,0.4,0.5,0.8,0.5,1.2v5l0,0.3h0.2
			c3.1-4.1,4.8-6.3,5.2-6.7C95.7,13.4,96.1,13.3,96.5,13.2z"/>
		<path d="M50.8,162.9l7.4,0h0.2c0.9,0,1.5,0.5,1.9,1.4l0.1,0.7v10.8c0,0.8-0.4,1.5-1.3,1.9c-0.3,0.1-0.5,0.1-0.7,0.1
			c-0.9,0-1.5-0.5-1.8-1.4c-0.1-0.1-0.1-0.2-0.1-0.4v-9.8c0,0,0-0.1-0.1-0.1h-3.4c-0.2,0-0.2,0.1-0.2,0.2v8.6c0,1.3-0.1,2-0.4,2.1
			c0,0.2-0.3,0.4-0.9,0.7c-0.3,0.1-0.4,0.1-0.5,0.1c-1.2,0-1.8-0.6-2.1-1.8v-11.2c0-0.8,0.5-1.4,1.5-1.8
			C50.5,162.9,50.7,162.9,50.8,162.9z"/>
		<path d="M63.1,162.9h4.1c1.7,0,3,0.7,4,2.1c0.5,0.8,0.8,1.7,0.8,2.5c0,0.9-0.3,1.8-0.8,2.7c-1,1.4-2.5,2.1-4.3,2.1H65
			c-0.2,0-0.4,0-0.4,0.1v3.5c0,0.4-0.2,0.9-0.7,1.4c-0.4,0.3-0.8,0.4-1.2,0.4c-1.3,0-1.9-0.6-2-1.7v-11.1
			C60.7,163.5,61.5,162.9,63.1,162.9z M64.7,168.4h2.5c0.6,0,0.9-0.2,0.9-0.7v-0.2c-0.1-0.5-0.4-0.8-1-0.8l-2.1,0
			c-0.3,0-0.4,0.1-0.4,0.2L64.7,168.4z"/>
		<path d="M79.5,162.8h1c0.9,0.1,1.7,0.3,2.5,0.6c0.8,0.3,1.6,0.9,2.6,1.8c1.3,1.6,1.9,3.1,1.9,4.7c0,1-0.1,1.4-0.1,1.4l0,0.1
			c-0.1,0.8-0.6,1.8-1.2,3c-1,1.2-1.9,2-2.8,2.4c-0.5,0.4-1.5,0.6-2.8,0.9c-0.2,0-0.3,0-0.3,0h-0.5c-0.6,0-1.6-0.2-2.8-0.7
			c-0.6-0.3-1.2-0.6-1.8-1.1c-0.4-0.4-0.8-0.8-1.2-1.3c-1-1.4-1.4-2.8-1.4-4.2V170c0-1.6,0.6-3.2,1.9-4.7c1.1-1,2-1.7,2.8-1.9
			c0.4-0.2,0.9-0.3,1.7-0.4C78.9,162.9,79.1,162.8,79.5,162.8z M76.2,170.3c0,1,0.4,1.9,1.3,2.8c0.6,0.4,1.1,0.7,1.7,0.7
			c0.1,0,0.3,0,0.5,0.1c1.4,0,2.5-0.7,3.3-2c0.2-0.4,0.3-0.8,0.4-1.2c0.1-0.3,0.1-0.5,0-0.7c-0.1-0.8-0.3-1.4-0.6-1.8
			c-0.4-0.5-0.8-0.8-1.3-1.1c-0.3-0.2-0.8-0.3-1.6-0.5c-0.2,0-0.3,0-0.5,0c-0.5,0.1-1,0.2-1.6,0.5C76.8,167.8,76.2,168.9,76.2,170.3
			z"/>
		<path d="M89.8,162.8c0.5,0,1,0.3,1.5,0.8c0.3,0.4,0.4,0.9,0.4,1.3v3.4h3.6c0,0,0.1,0,0.1-0.1V165c0-0.9,0.4-1.6,1.2-2
			c0,0,0.2,0,0.5-0.1h0.2c0.9,0,1.5,0.5,1.9,1.4l0.1,0.7v10.7c0,0.8-0.4,1.5-1.3,1.9c-0.3,0.1-0.5,0.1-0.7,0.1
			c-0.9,0-1.5-0.5-1.8-1.4c-0.1-0.1-0.1-0.2-0.1-0.4v-3.6c0,0,0-0.1-0.1-0.1c-3.6,0-5.4,0-5.5,0c-1.2,0-1.8-0.6-2.1-1.8v-5.6
			c0-0.8,0.5-1.4,1.5-1.8C89.6,162.9,89.7,162.8,89.8,162.8z"/>
		<path d="M99.8,175.7v-11.1c0.1-1.1,0.7-1.7,2-1.7c0.4,0,0.8,0.1,1.2,0.4c0.5,0.5,0.7,1,0.7,1.4v3.5c0,0.1,0.1,0.2,0.4,0.1h1.9
			c1.8,0,3.3,0.7,4.3,2.1c0.5,0.9,0.8,1.8,0.8,2.7c0,0.8-0.3,1.6-0.8,2.5c-1,1.4-2.4,2.1-4,2.1h-4.1
			C100.5,177.7,99.8,177,99.8,175.7z M103.7,173.7c0,0.2,0.1,0.2,0.4,0.2l2.1,0c0.6,0,0.9-0.3,1-0.8v-0.2c0-0.5-0.3-0.8-0.9-0.7
			h-2.5L103.7,173.7z"/>
	</g>
	<path d="M93.5,107.4H63.1v-8.7h30.4V107.4z M93.5,129.1H63.1v8.7h30.4V129.1z M89.2,115.1H67.4v6.2h21.7V115.1z"/>
</g>
</svg>
